*
*
G04 PADS VX.2 Build Number: 5060570 generated Gerber (RS-274-X) file*
G04 PC Version=2.1*
*
%IN "ESP32-Sense-Series-SubB"*%
*
%MOIN*%
*
%FSLAX35Y35*%
*
*
*
*
G04 PC Standard Apertures*
*
*
G04 Thermal Relief Aperture macro.*
%AMTER*
1,1,$1,0,0*
1,0,$1-$2,0,0*
21,0,$3,$4,0,0,45*
21,0,$3,$4,0,0,135*
%
*
*
G04 Annular Aperture macro.*
%AMANN*
1,1,$1,0,0*
1,0,$2,0,0*
%
*
*
G04 Odd Aperture macro.*
%AMODD*
1,1,$1,0,0*
1,0,$1-0.005,0,0*
%
*
*
G04 PC Custom Aperture Macros*
*
*
*
*
*
*
G04 PC Aperture Table*
*
%ADD010C,0.001*%
%ADD011C,0.005*%
%ADD016C,0.01*%
*
*
*
*
G04 PC Circuitry*
G04 Layer Name ESP32-Sense-Series-SubB - circuitry*
%LPD*%
*
*
G04 PC Custom Flashes*
G04 Layer Name ESP32-Sense-Series-SubB - flashes*
%LPD*%
*
*
G04 PC Circuitry*
G04 Layer Name ESP32-Sense-Series-SubB - circuitry*
%LPD*%
*
G54D10*
G54D11*
G01X2169578Y1770383D02*
X2148971D01*
G75*
G03X2137160Y1758572I-0J-11811D01*
G01Y1745181*
X2097973*
Y1758572*
G03X2086162Y1770383I-11811J-0*
G01X1850856*
G03X1839045Y1758572I-0J-11811*
G01Y1462903*
G03X1850856Y1451091I11811J-0*
G01X2086152*
G03X2097963Y1462903I-0J11812*
G01Y1481558*
X2109774Y1493369D02*
G03X2097963Y1481558I-0J-11811D01*
G01X2109774Y1493369D02*
X2125349D01*
X2137160Y1481558D02*
G03X2125349Y1493369I-11811J0D01*
G01X2137160Y1481558D02*
Y1462903D01*
G03X2148971Y1451091I11811J-0*
G01X2384267*
G03X2396078Y1462903I-0J11812*
G01Y1481558*
X2407889Y1493369D02*
G03X2396078Y1481558I-0J-11811D01*
G01X2407889Y1493369D02*
X2425349D01*
X2437160Y1481558D02*
G03X2425349Y1493369I-11811J0D01*
G01X2437160Y1481558D02*
Y1462903D01*
G03X2448971Y1451091I11811J-0*
G01X2684537*
G03X2696348Y1462903I-0J11812*
G01Y1758572*
G03X2684537Y1770383I-11811J-0*
G01X2676513*
Y1805369*
X2684537*
G03X2696348Y1817180I-0J11811*
G01Y2148380*
G03X2684537Y2160191I-11811J0*
G01X2449241*
G03X2437430Y2148380I-0J-11811*
G01Y2097180*
X2425619Y2085369D02*
G03X2437430Y2097180I-0J11811D01*
G01X2425619Y2085369D02*
X2407889D01*
X2396078Y2097180D02*
G03X2407889Y2085369I11811J0D01*
G01X2396078Y2097180D02*
Y2112850D01*
G03X2384267Y2124661I-11811J-0*
G01X2148971*
G03X2137160Y2112850I-0J-11811*
G01Y1817180*
G03X2148971Y1805369I11811J0*
G01X2169578*
Y1770383*
X2396078Y1749180D02*
G03X2407889Y1737369I11811J-0D01*
G01X2396078Y1749180D02*
Y1758572D01*
G03X2384267Y1770383I-11811J0*
G01X2379889*
X2368078Y1782194D02*
G03X2379889Y1770383I11811J0D01*
G01X2368078Y1782194D02*
Y1793558D01*
X2379889Y1805369D02*
G03X2368078Y1793558I-0J-11811D01*
G01X2379889Y1805369D02*
X2384267D01*
G03X2396078Y1817180I-0J11811*
G01Y1829558*
X2407889Y1841369D02*
G03X2396078Y1829558I-0J-11811D01*
G01X2407889Y1841369D02*
X2425619D01*
X2437430Y1829558D02*
G03X2425619Y1841369I-11811J-0D01*
G01X2437430Y1829558D02*
Y1817180D01*
G03X2449241Y1805369I11811J0*
G01X2456267*
X2468078Y1793558D02*
G03X2456267Y1805369I-11811J0D01*
G01X2468078Y1793558D02*
Y1782194D01*
X2456267Y1770383D02*
G03X2468078Y1782194I-0J11811D01*
G01X2456267Y1770383D02*
X2448971D01*
G03X2437160Y1758572I-0J-11811*
G01Y1749180*
X2425349Y1737369D02*
G03X2437160Y1749180I-0J11811D01*
G01X2425349Y1737369D02*
X2407889D01*
X2396088Y2069370D02*
X2437430Y2069371D01*
Y1856772*
X2396088*
Y2069370*
X2483712Y1805369D02*
X2653791D01*
Y1770383*
X2483712*
Y1805369*
X2195523D02*
X2351429D01*
Y1770383*
X2195523*
Y1805369*
X2097973Y1719764D02*
X2137160D01*
Y1507166*
X2097973*
Y1719764*
X2396078Y1724489D02*
X2437160D01*
Y1507166*
X2396078*
Y1724489*
G54D16*
X2645358Y1522092D02*
X2649358Y1526092D01*
X2645358Y1530092*
X2641358Y1526092*
X2645358Y1522092*
Y1526092D02*
Y1530092D01*
X2554807Y1522092D02*
X2558807Y1526092D01*
X2554807Y1530092*
X2550807Y1526092*
X2554807Y1522092*
Y1526092D02*
Y1530092D01*
X2487879Y1522092D02*
X2491879Y1526092D01*
X2487879Y1530092*
X2483879Y1526092*
X2487879Y1522092*
Y1526092D02*
Y1530092D01*
X2665078Y1466421D02*
X2673078D01*
X2665078Y1474421*
X2673078*
X2665078Y1466421*
X2160160D02*
X2168160D01*
X2160160Y1474421*
X2168160*
X2160160Y1466421*
X2365078Y1747053D02*
X2373078D01*
X2365078Y1755053*
X2373078*
X2365078Y1747053*
Y1466421D02*
X2373078D01*
X2365078Y1474421*
X2373078*
X2365078Y1466421*
X1862045D02*
X1870045D01*
X1862045Y1474421*
X1870045*
X1862045Y1466421*
Y1747053D02*
X1870045D01*
X1862045Y1755053*
X1870045*
X1862045Y1747053*
X2066963D02*
X2074963D01*
X2066963Y1755053*
X2074963*
X2066963Y1747053*
Y1466421D02*
X2074963D01*
X2066963Y1474421*
X2074963*
X2066963Y1466421*
X2460160D02*
X2468160D01*
X2460160Y1474421*
X2468160*
X2460160Y1466421*
X2665078Y1747053D02*
X2673078D01*
X2665078Y1755053*
X2673078*
X2665078Y1747053*
X2460160D02*
X2468160D01*
X2460160Y1755053*
X2468160*
X2460160Y1747053*
X2160160D02*
X2168160D01*
X2160160Y1755053*
X2168160*
X2160160Y1747053*
X2460430Y1856229D02*
X2468430D01*
X2460430Y1864229*
X2468430*
X2460430Y1856229*
Y2136861D02*
X2468430D01*
X2460430Y2144861*
X2468430*
X2460430Y2136861*
X2665348D02*
X2673348D01*
X2665348Y2144861*
X2673348*
X2665348Y2136861*
Y1856229D02*
X2673348D01*
X2665348Y1864229*
X2673348*
X2665348Y1856229*
X2160160Y1820699D02*
X2168160D01*
X2160160Y1828699*
X2168160*
X2160160Y1820699*
Y2101331D02*
X2168160D01*
X2160160Y2109331*
X2168160*
X2160160Y2101331*
X2365078D02*
X2373078D01*
X2365078Y2109331*
X2373078*
X2365078Y2101331*
Y1820699D02*
X2373078D01*
X2365078Y1828699*
X2373078*
X2365078Y1820699*
X2487879Y1691383D02*
X2491879Y1695383D01*
X2487879Y1699383*
X2483879Y1695383*
X2487879Y1691383*
Y1695383D02*
Y1699383D01*
X2566619Y1703194D02*
X2570619Y1707194D01*
X2566619Y1711194*
X2562619Y1707194*
X2566619Y1703194*
Y1707194D02*
Y1711194D01*
X2645359Y1691383D02*
X2649359Y1695383D01*
X2645359Y1699383*
X2641359Y1695383*
X2645359Y1691383*
Y1695383D02*
Y1699383D01*
X2093885Y1732300D02*
X2101885D01*
Y1740300*
X2093885*
Y1732300*
X2097885Y1736300D02*
Y1740300D01*
X2093885Y1718126D02*
X2101885D01*
Y1726126*
X2093885*
Y1718126*
X2097885Y1722126D02*
Y1726126D01*
X2093885Y1722851D02*
X2101885D01*
Y1730851*
X2093885*
Y1722851*
X2097885Y1726851D02*
Y1730851D01*
X2093885Y1737024D02*
X2101885D01*
Y1745024*
X2093885*
Y1737024*
X2097885Y1741024D02*
Y1745024D01*
X2093885Y1727575D02*
X2101885D01*
Y1735575*
X2093885*
Y1727575*
X2097885Y1731575D02*
Y1735575D01*
X2132862Y1732300D02*
X2140862D01*
Y1740300*
X2132862*
Y1732300*
X2136862Y1736300D02*
Y1740300D01*
X2132862Y1718126D02*
X2140862D01*
Y1726126*
X2132862*
Y1718126*
X2136862Y1722126D02*
Y1726126D01*
X2132862Y1722851D02*
X2140862D01*
Y1730851*
X2132862*
Y1722851*
X2136862Y1726851D02*
Y1730851D01*
X2132862Y1737024D02*
X2140862D01*
Y1745024*
X2132862*
Y1737024*
X2136862Y1741024D02*
Y1745024D01*
X2132862Y1727575D02*
X2140862D01*
Y1735575*
X2132862*
Y1727575*
X2136862Y1731575D02*
Y1735575D01*
X2093885Y1491355D02*
X2101885D01*
Y1499355*
X2093885*
Y1491355*
X2097885Y1495355D02*
Y1499355D01*
X2093885Y1500804D02*
X2101885D01*
Y1508804*
X2093885*
Y1500804*
X2097885Y1504804D02*
Y1508804D01*
X2093885Y1481906D02*
X2101885D01*
Y1489906*
X2093885*
Y1481906*
X2097885Y1485906D02*
Y1489906D01*
X2093885Y1496079D02*
X2101885D01*
Y1504079*
X2093885*
Y1496079*
X2097885Y1500079D02*
Y1504079D01*
X2093885Y1486630D02*
X2101885D01*
Y1494630*
X2093885*
Y1486630*
X2097885Y1490630D02*
Y1494630D01*
X2132862Y1491355D02*
X2140862D01*
Y1499355*
X2132862*
Y1491355*
X2136862Y1495355D02*
Y1499355D01*
X2132862Y1500804D02*
X2140862D01*
Y1508804*
X2132862*
Y1500804*
X2136862Y1504804D02*
Y1508804D01*
X2132862Y1481906D02*
X2140862D01*
Y1489906*
X2132862*
Y1481906*
X2136862Y1485906D02*
Y1489906D01*
X2132862Y1496079D02*
X2140862D01*
Y1504079*
X2132862*
Y1496079*
X2136862Y1500079D02*
Y1504079D01*
X2132862Y1486630D02*
X2140862D01*
Y1494630*
X2132862*
Y1486630*
X2136862Y1490630D02*
Y1494630D01*
X2391917Y2086630D02*
X2399917D01*
Y2094630*
X2391917*
Y2086630*
X2395917Y2090630D02*
Y2094630D01*
X2391917Y2072457D02*
X2399917D01*
Y2080457*
X2391917*
Y2072457*
X2395917Y2076457D02*
Y2080457D01*
X2391917Y2077182D02*
X2399917D01*
Y2085182*
X2391917*
Y2077182*
X2395917Y2081182D02*
Y2085182D01*
X2391917Y2067733D02*
X2399917D01*
Y2075733*
X2391917*
Y2067733*
X2395917Y2071733D02*
Y2075733D01*
X2391917Y2081906D02*
X2399917D01*
Y2089906*
X2391917*
Y2081906*
X2395917Y2085906D02*
Y2089906D01*
X2433256Y2086630D02*
X2441256D01*
Y2094630*
X2433256*
Y2086630*
X2437256Y2090630D02*
Y2094630D01*
X2433256Y2072457D02*
X2441256D01*
Y2080457*
X2433256*
Y2072457*
X2437256Y2076457D02*
Y2080457D01*
X2433256Y2077182D02*
X2441256D01*
Y2085182*
X2433256*
Y2077182*
X2437256Y2081182D02*
Y2085182D01*
X2433256Y2067733D02*
X2441256D01*
Y2075733*
X2433256*
Y2067733*
X2437256Y2071733D02*
Y2075733D01*
X2433256Y2081906D02*
X2441256D01*
Y2089906*
X2433256*
Y2081906*
X2437256Y2085906D02*
Y2089906D01*
X2391917Y1850410D02*
X2399917D01*
Y1858410*
X2391917*
Y1850410*
X2395917Y1854410D02*
Y1858410D01*
X2391917Y1836237D02*
X2399917D01*
Y1844237*
X2391917*
Y1836237*
X2395917Y1840237D02*
Y1844237D01*
X2391917Y1840961D02*
X2399917D01*
Y1848961*
X2391917*
Y1840961*
X2395917Y1844961D02*
Y1848961D01*
X2391917Y1831512D02*
X2399917D01*
Y1839512*
X2391917*
Y1831512*
X2395917Y1835512D02*
Y1839512D01*
X2391917Y1845686D02*
X2399917D01*
Y1853686*
X2391917*
Y1845686*
X2395917Y1849686D02*
Y1853686D01*
X2433256Y1850410D02*
X2441256D01*
Y1858410*
X2433256*
Y1850410*
X2437256Y1854410D02*
Y1858410D01*
X2433256Y1836237D02*
X2441256D01*
Y1844237*
X2433256*
Y1836237*
X2437256Y1840237D02*
Y1844237D01*
X2433256Y1840961D02*
X2441256D01*
Y1848961*
X2433256*
Y1840961*
X2437256Y1844961D02*
Y1848961D01*
X2433256Y1831512D02*
X2441256D01*
Y1839512*
X2433256*
Y1831512*
X2437256Y1835512D02*
Y1839512D01*
X2433256Y1845686D02*
X2441256D01*
Y1853686*
X2433256*
Y1845686*
X2437256Y1849686D02*
Y1853686D01*
X2391917Y1741749D02*
X2399917D01*
Y1749749*
X2391917*
Y1741749*
X2395917Y1745749D02*
Y1749749D01*
X2391917Y1727575D02*
X2399917D01*
Y1735575*
X2391917*
Y1727575*
X2395917Y1731575D02*
Y1735575D01*
X2391917Y1732300D02*
X2399917D01*
Y1740300*
X2391917*
Y1732300*
X2395917Y1736300D02*
Y1740300D01*
X2391917Y1722851D02*
X2399917D01*
Y1730851*
X2391917*
Y1722851*
X2395917Y1726851D02*
Y1730851D01*
X2391917Y1737024D02*
X2399917D01*
Y1745024*
X2391917*
Y1737024*
X2395917Y1741024D02*
Y1745024D01*
X2433256Y1741749D02*
X2441256D01*
Y1749749*
X2433256*
Y1741749*
X2437256Y1745749D02*
Y1749749D01*
X2433256Y1727575D02*
X2441256D01*
Y1735575*
X2433256*
Y1727575*
X2437256Y1731575D02*
Y1735575D01*
X2433256Y1732300D02*
X2441256D01*
Y1740300*
X2433256*
Y1732300*
X2437256Y1736300D02*
Y1740300D01*
X2433256Y1722851D02*
X2441256D01*
Y1730851*
X2433256*
Y1722851*
X2437256Y1726851D02*
Y1730851D01*
X2433256Y1737024D02*
X2441256D01*
Y1745024*
X2433256*
Y1737024*
X2437256Y1741024D02*
Y1745024D01*
X2391917Y1500804D02*
X2399917D01*
Y1508804*
X2391917*
Y1500804*
X2395917Y1504804D02*
Y1508804D01*
X2391917Y1486630D02*
X2399917D01*
Y1494630*
X2391917*
Y1486630*
X2395917Y1490630D02*
Y1494630D01*
X2391917Y1491355D02*
X2399917D01*
Y1499355*
X2391917*
Y1491355*
X2395917Y1495355D02*
Y1499355D01*
X2391917Y1481906D02*
X2399917D01*
Y1489906*
X2391917*
Y1481906*
X2395917Y1485906D02*
Y1489906D01*
X2391917Y1496079D02*
X2399917D01*
Y1504079*
X2391917*
Y1496079*
X2395917Y1500079D02*
Y1504079D01*
X2433256Y1500804D02*
X2441256D01*
Y1508804*
X2433256*
Y1500804*
X2437256Y1504804D02*
Y1508804D01*
X2433256Y1486630D02*
X2441256D01*
Y1494630*
X2433256*
Y1486630*
X2437256Y1490630D02*
Y1494630D01*
X2433256Y1491355D02*
X2441256D01*
Y1499355*
X2433256*
Y1491355*
X2437256Y1495355D02*
Y1499355D01*
X2433256Y1481906D02*
X2441256D01*
Y1489906*
X2433256*
Y1481906*
X2437256Y1485906D02*
Y1489906D01*
X2433256Y1496079D02*
X2441256D01*
Y1504079*
X2433256*
Y1496079*
X2437256Y1500079D02*
Y1504079D01*
X2367901Y1766552D02*
X2375901D01*
Y1774552*
X2367901*
Y1766552*
X2371901Y1770552D02*
Y1774552D01*
X2363177Y1766552D02*
X2371177D01*
Y1774552*
X2363177*
Y1766552*
X2367177Y1770552D02*
Y1774552D01*
X2358452Y1766552D02*
X2366452D01*
Y1774552*
X2358452*
Y1766552*
X2362452Y1770552D02*
Y1774552D01*
X2353728Y1766552D02*
X2361728D01*
Y1774552*
X2353728*
Y1766552*
X2357728Y1770552D02*
Y1774552D01*
X2349004Y1766552D02*
X2357004D01*
Y1774552*
X2349004*
Y1766552*
X2353004Y1770552D02*
Y1774552D01*
X2349004Y1801197D02*
X2357004D01*
Y1809197*
X2349004*
Y1801197*
X2353004Y1805197D02*
Y1809197D01*
X2353728Y1801197D02*
X2361728D01*
Y1809197*
X2353728*
Y1801197*
X2357728Y1805197D02*
Y1809197D01*
X2358452Y1801197D02*
X2366452D01*
Y1809197*
X2358452*
Y1801197*
X2362452Y1805197D02*
Y1809197D01*
X2363177Y1801197D02*
X2371177D01*
Y1809197*
X2363177*
Y1801197*
X2367177Y1805197D02*
Y1809197D01*
X2367901Y1801197D02*
X2375901D01*
Y1809197*
X2367901*
Y1801197*
X2371901Y1805197D02*
Y1809197D01*
X2169476Y1801197D02*
X2177476D01*
Y1809197*
X2169476*
Y1801197*
X2173476Y1805197D02*
Y1809197D01*
X2174200Y1801197D02*
X2182200D01*
Y1809197*
X2174200*
Y1801197*
X2178200Y1805197D02*
Y1809197D01*
X2178925Y1801197D02*
X2186925D01*
Y1809197*
X2178925*
Y1801197*
X2182925Y1805197D02*
Y1809197D01*
X2183649Y1801197D02*
X2191649D01*
Y1809197*
X2183649*
Y1801197*
X2187649Y1805197D02*
Y1809197D01*
X2188374Y1801197D02*
X2196374D01*
Y1809197*
X2188374*
Y1801197*
X2192374Y1805197D02*
Y1809197D01*
X2188374Y1766552D02*
X2196374D01*
Y1774552*
X2188374*
Y1766552*
X2192374Y1770552D02*
Y1774552D01*
X2183649Y1766552D02*
X2191649D01*
Y1774552*
X2183649*
Y1766552*
X2187649Y1770552D02*
Y1774552D01*
X2178925Y1766552D02*
X2186925D01*
Y1774552*
X2178925*
Y1766552*
X2182925Y1770552D02*
Y1774552D01*
X2174200Y1766552D02*
X2182200D01*
Y1774552*
X2174200*
Y1766552*
X2178200Y1770552D02*
Y1774552D01*
X2169476Y1766552D02*
X2177476D01*
Y1774552*
X2169476*
Y1766552*
X2173476Y1770552D02*
Y1774552D01*
X2670263Y1766552D02*
X2678263D01*
Y1774552*
X2670263*
Y1766552*
X2674263Y1770552D02*
Y1774552D01*
X2665539Y1766552D02*
X2673539D01*
Y1774552*
X2665539*
Y1766552*
X2669539Y1770552D02*
Y1774552D01*
X2660815Y1766552D02*
X2668815D01*
Y1774552*
X2660815*
Y1766552*
X2664815Y1770552D02*
Y1774552D01*
X2656090Y1766552D02*
X2664090D01*
Y1774552*
X2656090*
Y1766552*
X2660090Y1770552D02*
Y1774552D01*
X2651366Y1766552D02*
X2659366D01*
Y1774552*
X2651366*
Y1766552*
X2655366Y1770552D02*
Y1774552D01*
X2651366Y1801197D02*
X2659366D01*
Y1809197*
X2651366*
Y1801197*
X2655366Y1805197D02*
Y1809197D01*
X2656090Y1801197D02*
X2664090D01*
Y1809197*
X2656090*
Y1801197*
X2660090Y1805197D02*
Y1809197D01*
X2660815Y1801197D02*
X2668815D01*
Y1809197*
X2660815*
Y1801197*
X2664815Y1805197D02*
Y1809197D01*
X2665539Y1801197D02*
X2673539D01*
Y1809197*
X2665539*
Y1801197*
X2669539Y1805197D02*
Y1809197D01*
X2670263Y1801197D02*
X2678263D01*
Y1809197*
X2670263*
Y1801197*
X2674263Y1805197D02*
Y1809197D01*
X2457665Y1801197D02*
X2465665D01*
Y1809197*
X2457665*
Y1801197*
X2461665Y1805197D02*
Y1809197D01*
X2462389Y1801197D02*
X2470389D01*
Y1809197*
X2462389*
Y1801197*
X2466389Y1805197D02*
Y1809197D01*
X2467114Y1801197D02*
X2475114D01*
Y1809197*
X2467114*
Y1801197*
X2471114Y1805197D02*
Y1809197D01*
X2471838Y1801197D02*
X2479838D01*
Y1809197*
X2471838*
Y1801197*
X2475838Y1805197D02*
Y1809197D01*
X2476563Y1801197D02*
X2484563D01*
Y1809197*
X2476563*
Y1801197*
X2480563Y1805197D02*
Y1809197D01*
X2476563Y1766552D02*
X2484563D01*
Y1774552*
X2476563*
Y1766552*
X2480563Y1770552D02*
Y1774552D01*
X2471838Y1766552D02*
X2479838D01*
Y1774552*
X2471838*
Y1766552*
X2475838Y1770552D02*
Y1774552D01*
X2467114Y1766552D02*
X2475114D01*
Y1774552*
X2467114*
Y1766552*
X2471114Y1770552D02*
Y1774552D01*
X2462389Y1766552D02*
X2470389D01*
Y1774552*
X2462389*
Y1766552*
X2466389Y1770552D02*
Y1774552D01*
X2457665Y1766552D02*
X2465665D01*
Y1774552*
X2457665*
Y1766552*
X2461665Y1770552D02*
Y1774552D01*
X2146065Y1491337D02*
X2154065Y1499337D01*
X2146065D02*
X2154065Y1491337D01*
X2375815Y1494837D02*
X2383815Y1502837D01*
X2375815D02*
X2383815Y1494837D01*
X2448368Y1488982D02*
X2456368Y1496982D01*
X2448368D02*
X2456368Y1488982D01*
X2560572Y1481108D02*
X2568572Y1489108D01*
X2560572D02*
X2568572Y1481108D01*
X2643643Y1485439D02*
X2651643Y1493439D01*
X2643643D02*
X2651643Y1485439D01*
X1851450Y1551587D02*
X1859450Y1559587D01*
X1851450D02*
X1859450Y1551587D01*
X1851450Y1508837D02*
X1859450Y1516837D01*
X1851450D02*
X1859450Y1508837D01*
X1915200Y1509087D02*
X1923200Y1517087D01*
X1915200D02*
X1923200Y1509087D01*
X1957700D02*
X1965700Y1517087D01*
X1957700D02*
X1965700Y1509087D01*
X2077700Y1551337D02*
X2085700Y1559337D01*
X2077700D02*
X2085700Y1551337D01*
X2077700Y1509087D02*
X2085700Y1517087D01*
X2077700D02*
X2085700Y1509087D01*
X2021450Y1508837D02*
X2029450Y1516837D01*
X2021450D02*
X2029450Y1508837D01*
X2223815Y1576337D02*
X2231815Y1584337D01*
X2223815D02*
X2231815Y1576337D01*
X2186619Y1527053D02*
X2194619Y1535053D01*
X2186619D02*
X2194619Y1527053D01*
X2178619D02*
X2186619Y1535053D01*
X2178619D02*
X2186619Y1527053D01*
X2308565Y1569087D02*
X2316565Y1577087D01*
X2308565D02*
X2316565Y1569087D01*
X2266619Y1527053D02*
X2274619Y1535053D01*
X2266619D02*
X2274619Y1527053D01*
X2258619D02*
X2266619Y1535053D01*
X2258619D02*
X2266619Y1527053D01*
X2359619Y1541053D02*
X2367619Y1549053D01*
X2359619D02*
X2367619Y1541053D01*
X2346619Y1527053D02*
X2354619Y1535053D01*
X2346619D02*
X2354619Y1527053D01*
X2338619D02*
X2346619Y1535053D01*
X2338619D02*
X2346619Y1527053D01*
X2466815Y1547587D02*
X2474815Y1555587D01*
X2466815D02*
X2474815Y1547587D01*
X2519882Y1571672D02*
X2527882Y1579672D01*
X2519882D02*
X2527882Y1571672D01*
X2495315Y1547837D02*
X2503315Y1555837D01*
X2495315D02*
X2503315Y1547837D01*
X2557731Y1547378D02*
X2565731Y1555378D01*
X2557731D02*
X2565731Y1547378D01*
X2605061Y1517722D02*
X2613061Y1525722D01*
X2605061D02*
X2613061Y1517722D01*
X2612541Y1536226D02*
X2620541Y1544226D01*
X2612541D02*
X2620541Y1536226D01*
X1844200Y1629087D02*
X1852200Y1637087D01*
X1844200D02*
X1852200Y1629087D01*
X1893638Y1592850D02*
X1901638Y1600850D01*
X1893638D02*
X1901638Y1592850D01*
X1914950Y1629087D02*
X1922950Y1637087D01*
X1914950D02*
X1922950Y1629087D01*
X1964504Y1592850D02*
X1972504Y1600850D01*
X1964504D02*
X1972504Y1592850D01*
X1999950Y1629337D02*
X2007950Y1637337D01*
X1999950D02*
X2007950Y1629337D01*
X1957200D02*
X1965200Y1637337D01*
X1957200D02*
X1965200Y1629337D01*
X2035370Y1592850D02*
X2043370Y1600850D01*
X2035370D02*
X2043370Y1592850D01*
X2081200Y1647087D02*
X2089200Y1655087D01*
X2081200D02*
X2089200Y1647087D01*
X2077700Y1629337D02*
X2085700Y1637337D01*
X2077700D02*
X2085700Y1629337D01*
X2223815Y1654087D02*
X2231815Y1662087D01*
X2223815D02*
X2231815Y1654087D01*
X2186619Y1607053D02*
X2194619Y1615053D01*
X2186619D02*
X2194619Y1607053D01*
X2178619D02*
X2186619Y1615053D01*
X2178619D02*
X2186619Y1607053D01*
X2308565Y1654087D02*
X2316565Y1662087D01*
X2308565D02*
X2316565Y1654087D01*
X2266619Y1607053D02*
X2274619Y1615053D01*
X2266619D02*
X2274619Y1607053D01*
X2258619D02*
X2266619Y1615053D01*
X2258619D02*
X2266619Y1607053D01*
X2359619Y1621053D02*
X2367619Y1629053D01*
X2359619D02*
X2367619Y1621053D01*
X2346619Y1607053D02*
X2354619Y1615053D01*
X2346619D02*
X2354619Y1607053D01*
X2338619D02*
X2346619Y1615053D01*
X2338619D02*
X2346619Y1607053D01*
X2436557Y1636620D02*
X2444557Y1644620D01*
X2436557D02*
X2444557Y1636620D01*
X2466815Y1618337D02*
X2474815Y1626337D01*
X2466815D02*
X2474815Y1618337D01*
X2519858Y1623537D02*
X2527858Y1631537D01*
X2519858D02*
X2527858Y1623537D01*
X2491565Y1621837D02*
X2499565Y1629837D01*
X2491565D02*
X2499565Y1621837D01*
X2557681Y1623822D02*
X2565681Y1631822D01*
X2557681D02*
X2565681Y1623822D01*
X2619605Y1581355D02*
X2627605Y1589355D01*
X2619605D02*
X2627605Y1581355D01*
X2619065Y1636087D02*
X2627065Y1644087D01*
X2619065D02*
X2627065Y1636087D01*
X2670809Y1636620D02*
X2678809Y1644620D01*
X2670809D02*
X2678809Y1636620D01*
X1840700Y1703587D02*
X1848700Y1711587D01*
X1840700D02*
X1848700Y1703587D01*
X1879545Y1685492D02*
X1887545Y1693492D01*
X1879545D02*
X1887545Y1685492D01*
X1913545D02*
X1921545Y1693492D01*
X1913545D02*
X1921545Y1685492D01*
X1947045D02*
X1955045Y1693492D01*
X1947045D02*
X1955045Y1685492D01*
X1968545D02*
X1976545Y1693492D01*
X1968545D02*
X1976545Y1685492D01*
X1988045D02*
X1996045Y1693492D01*
X1988045D02*
X1996045Y1685492D01*
X2021045D02*
X2029045Y1693492D01*
X2021045D02*
X2029045Y1685492D01*
X2081200Y1710587D02*
X2089200Y1718587D01*
X2081200D02*
X2089200Y1710587D01*
X2142565Y1714087D02*
X2150565Y1722087D01*
X2142565D02*
X2150565Y1714087D01*
X2182619Y1709053D02*
X2190619Y1717053D01*
X2182619D02*
X2190619Y1709053D01*
X2186619Y1687053D02*
X2194619Y1695053D01*
X2186619D02*
X2194619Y1687053D01*
X2178619D02*
X2186619Y1695053D01*
X2178619D02*
X2186619Y1687053D01*
X2262619Y1709053D02*
X2270619Y1717053D01*
X2262619D02*
X2270619Y1709053D01*
X2266619Y1687053D02*
X2274619Y1695053D01*
X2266619D02*
X2274619Y1687053D01*
X2258619D02*
X2266619Y1695053D01*
X2258619D02*
X2266619Y1687053D01*
X2382815Y1714087D02*
X2390815Y1722087D01*
X2382815D02*
X2390815Y1714087D01*
X2342619Y1709053D02*
X2350619Y1717053D01*
X2342619D02*
X2350619Y1709053D01*
X2359619Y1701053D02*
X2367619Y1709053D01*
X2359619D02*
X2367619Y1701053D01*
X2346619Y1687053D02*
X2354619Y1695053D01*
X2346619D02*
X2354619Y1687053D01*
X2338619D02*
X2346619Y1695053D01*
X2338619D02*
X2346619Y1687053D01*
X2490468Y1728096D02*
X2498468Y1736096D01*
X2490468D02*
X2498468Y1728096D01*
X2466815Y1668087D02*
X2474815Y1676087D01*
X2466815D02*
X2474815Y1668087D01*
X2479076Y1730714D02*
X2487076Y1738714D01*
X2479076D02*
X2487076Y1730714D01*
X2520210Y1665774D02*
X2528210Y1673774D01*
X2520210D02*
X2528210Y1665774D01*
X2559295Y1662841D02*
X2567295Y1670841D01*
X2559295D02*
X2567295Y1662841D01*
X2495065Y1667837D02*
X2503065Y1675837D01*
X2495065D02*
X2503065Y1667837D01*
X2505680Y1730753D02*
X2513680Y1738753D01*
X2505680D02*
X2513680Y1730753D01*
X2623171Y1705124D02*
X2631171Y1713124D01*
X2623171D02*
X2631171Y1705124D01*
X2626795Y1723841D02*
X2634795Y1731841D01*
X2626795D02*
X2634795Y1723841D01*
X2601545Y1726341D02*
X2609545Y1734341D01*
X2601545D02*
X2609545Y1726341D01*
X2619065Y1671587D02*
X2627065Y1679587D01*
X2619065D02*
X2627065Y1671587D01*
X1989200Y1753087D02*
X1997200Y1761087D01*
X1989200D02*
X1997200Y1753087D01*
X1989200Y1760087D02*
X1997200Y1768087D01*
X1989200D02*
X1997200Y1760087D01*
X2290815Y1756587D02*
X2298815Y1764587D01*
X2290815D02*
X2298815Y1756587D01*
X2287315Y1760087D02*
X2295315Y1768087D01*
X2287315D02*
X2295315Y1760087D01*
X2482226Y1748824D02*
X2490226Y1756824D01*
X2482226D02*
X2490226Y1748824D01*
X2487344D02*
X2495344Y1756824D01*
X2487344D02*
X2495344Y1748824D01*
X2505680Y1748076D02*
X2513680Y1756076D01*
X2505680D02*
X2513680Y1748076D01*
X2497806D02*
X2505806Y1756076D01*
X2497806D02*
X2505806Y1748076D01*
X2590565Y1756337D02*
X2598565Y1764337D01*
X2590565D02*
X2598565Y1756337D01*
X2587065Y1759837D02*
X2595065Y1767837D01*
X2587065D02*
X2595065Y1759837D01*
X2163656Y1856249D02*
X2171656Y1864249D01*
X2163656D02*
X2171656Y1856249D01*
X2191619Y1886331D02*
X2199619Y1894331D01*
X2191619D02*
X2199619Y1886331D01*
X2307619Y1865331D02*
X2315619Y1873331D01*
X2307619D02*
X2315619Y1865331D01*
X2365126Y1845563D02*
X2373126Y1853563D01*
X2365126D02*
X2373126Y1845563D01*
X2492228Y1877483D02*
X2500228Y1885483D01*
X2492228D02*
X2500228Y1877483D01*
X2640717Y1877402D02*
X2648717Y1885402D01*
X2640717D02*
X2648717Y1877402D01*
X2589889Y1856861D02*
X2597889Y1864861D01*
X2589889D02*
X2597889Y1856861D01*
X2591889Y1873861D02*
X2599889Y1881861D01*
X2591889D02*
X2599889Y1873861D01*
X2593889Y1891861D02*
X2601889Y1899861D01*
X2593889D02*
X2601889Y1891861D01*
X2166619Y1947331D02*
X2174619Y1955331D01*
X2166619D02*
X2174619Y1947331D01*
X2351619Y1915331D02*
X2359619Y1923331D01*
X2351619D02*
X2359619Y1915331D01*
X2644215Y1965837D02*
X2652215Y1973837D01*
X2644215D02*
X2652215Y1965837D01*
X2599889Y1942861D02*
X2607889Y1950861D01*
X2599889D02*
X2607889Y1942861D01*
X2601889Y1959861D02*
X2609889Y1967861D01*
X2601889D02*
X2609889Y1959861D01*
X2595889Y1908861D02*
X2603889Y1916861D01*
X2595889D02*
X2603889Y1908861D01*
Y1974861D02*
X2611889Y1982861D01*
X2603889D02*
X2611889Y1974861D01*
X2597889Y1925861D02*
X2605889Y1933861D01*
X2597889D02*
X2605889Y1925861D01*
X2240619Y2044331D02*
X2248619Y2052331D01*
X2240619D02*
X2248619Y2044331D01*
X2186619Y2010331D02*
X2194619Y2018331D01*
X2186619D02*
X2194619Y2010331D01*
X2174241Y2057808D02*
X2182241Y2065808D01*
X2174241D02*
X2182241Y2057808D01*
X2313619Y2033331D02*
X2321619Y2041331D01*
X2313619D02*
X2321619Y2033331D01*
X2260619Y2047331D02*
X2268619Y2055331D01*
X2260619D02*
X2268619Y2047331D01*
X2354619Y1981331D02*
X2362619Y1989331D01*
X2354619D02*
X2362619Y1981331D01*
X2488610Y1994132D02*
X2496610Y2002132D01*
X2488610D02*
X2496610Y1994132D01*
X2545889Y2009861D02*
X2553889Y2017861D01*
X2545889D02*
X2553889Y2009861D01*
X2545889Y2027861D02*
X2553889Y2035861D01*
X2545889D02*
X2553889Y2027861D01*
X2545889Y1992861D02*
X2553889Y2000861D01*
X2545889D02*
X2553889Y1992861D01*
X2545889Y2044861D02*
X2553889Y2052861D01*
X2545889D02*
X2553889Y2044861D01*
X2599889Y2009861D02*
X2607889Y2017861D01*
X2599889D02*
X2607889Y2009861D01*
X2589889Y2027861D02*
X2597889Y2035861D01*
X2589889D02*
X2597889Y2027861D01*
X2593889Y1992861D02*
X2601889Y2000861D01*
X2593889D02*
X2601889Y1992861D01*
X2595889Y2044861D02*
X2603889Y2052861D01*
X2595889D02*
X2603889Y2044861D01*
X2234313Y2061090D02*
X2242313Y2069090D01*
X2234313D02*
X2242313Y2061090D01*
X2251942Y2064759D02*
X2259942Y2072759D01*
X2251942D02*
X2259942Y2064759D01*
X2268045Y2067091D02*
X2276045Y2075091D01*
X2268045D02*
X2276045Y2067091D01*
X2290815Y2110765D02*
X2298815Y2118765D01*
X2290815D02*
X2298815Y2110765D01*
X2287315Y2114265D02*
X2295315Y2122265D01*
X2287315D02*
X2295315Y2114265D01*
X2372210Y2071998D02*
X2380210Y2079998D01*
X2372210D02*
X2380210Y2071998D01*
X2488553Y2107244D02*
X2496553Y2115244D01*
X2488553D02*
X2496553Y2107244D01*
X2545889Y2079861D02*
X2553889Y2087861D01*
X2545889D02*
X2553889Y2079861D01*
X2545889Y2061861D02*
X2553889Y2069861D01*
X2545889D02*
X2553889Y2061861D01*
X2563889Y2104861D02*
X2571889Y2112861D01*
X2563889D02*
X2571889Y2104861D01*
X2545889Y2096861D02*
X2553889Y2104861D01*
X2545889D02*
X2553889Y2096861D01*
X2651271Y2107297D02*
X2659271Y2115297D01*
X2651271D02*
X2659271Y2107297D01*
X2591889Y2079861D02*
X2599889Y2087861D01*
X2591889D02*
X2599889Y2079861D01*
X2601889Y2061861D02*
X2609889Y2069861D01*
X2601889D02*
X2609889Y2061861D01*
X2603889Y2104861D02*
X2611889Y2112861D01*
X2603889D02*
X2611889Y2104861D01*
X2597889Y2096861D02*
X2605889Y2104861D01*
X2597889D02*
X2605889Y2096861D01*
X2591275Y2146045D02*
X2599275Y2154045D01*
X2591275D02*
X2599275Y2146045D01*
X2587525Y2149545D02*
X2595525Y2157545D01*
X2587525D02*
X2595525Y2149545D01*
X1771654Y2088504D02*
X2029654D01*
X1771654Y2064504D02*
X2029654D01*
X1771654Y2040504D02*
X2029654D01*
X1771654Y2016504D02*
X2029654D01*
X1771654Y1992504D02*
X2029654D01*
X1771654Y1968504D02*
X2029654D01*
X1771654Y2088504D02*
Y1968504D01*
X1855654Y2088504D02*
Y1968504D01*
X1891654Y2088504D02*
Y1968504D01*
X1927654Y2088504D02*
Y1968504D01*
X1981654Y2088504D02*
Y1968504D01*
X2029654Y2088504D02*
Y1968504D01*
X1807154Y2077254D02*
X1806608Y2078004D01*
X1805790Y2078379*
X1804699*
X1803881Y2078004*
X1803335Y2077254*
Y2076504*
X1803608Y2075754*
X1803881Y2075379*
X1804426Y2075004*
X1806063Y2074254*
X1806608Y2073879*
X1806881Y2073504*
X1807154Y2072754*
Y2071629*
X1806608Y2070879*
X1805790Y2070504*
X1804699*
X1803881Y2070879*
X1803335Y2071629*
X1809608Y2078379D02*
Y2070504D01*
X1815881Y2078379D02*
X1812063Y2070504D01*
Y2078379D02*
X1815881D01*
X1812063Y2070504D02*
X1815881D01*
X1818335Y2078379D02*
Y2070504D01*
Y2078379D02*
X1821881D01*
X1818335Y2074629D02*
X1820517D01*
X1818335Y2070504D02*
X1821881D01*
X1865517Y2078379D02*
X1864972Y2078004D01*
X1864426Y2077254*
X1864154Y2076504*
X1863881Y2075379*
Y2073504*
X1864154Y2072379*
X1864426Y2071629*
X1864972Y2070879*
X1865517Y2070504*
X1866608*
X1867154Y2070879*
X1867699Y2071629*
X1867972Y2072379*
X1868244Y2073504*
Y2075379*
X1867972Y2076504*
X1867699Y2077254*
X1867154Y2078004*
X1866608Y2078379*
X1865517*
X1866335Y2072004D02*
X1867972Y2069754D01*
X1872608Y2078379D02*
Y2070504D01*
X1870699Y2078379D02*
X1874517D01*
X1876972D02*
X1879154Y2074629D01*
Y2070504*
X1881335Y2078379D02*
X1879154Y2074629D01*
X1903699Y2077254D02*
X1903154Y2078004D01*
X1902335Y2078379*
X1901244*
X1900426Y2078004*
X1899881Y2077254*
Y2076504*
X1900154Y2075754*
X1900426Y2075379*
X1900972Y2075004*
X1902608Y2074254*
X1903154Y2073879*
X1903426Y2073504*
X1903699Y2072754*
Y2071629*
X1903154Y2070879*
X1902335Y2070504*
X1901244*
X1900426Y2070879*
X1899881Y2071629*
X1906154Y2078379D02*
X1908335Y2074629D01*
Y2070504*
X1910517Y2078379D02*
X1908335Y2074629D01*
X1912972Y2078379D02*
Y2070504D01*
Y2078379D02*
X1915154Y2070504D01*
X1917335Y2078379D02*
X1915154Y2070504D01*
X1917335Y2078379D02*
Y2070504D01*
X1939154Y2078379D02*
Y2070504D01*
Y2078379D02*
X1941608D01*
X1942426Y2078004*
X1942699Y2077629*
X1942972Y2076879*
Y2075754*
X1942699Y2075004*
X1942426Y2074629*
X1941608Y2074254*
X1939154*
X1945426Y2078379D02*
Y2070504D01*
X1948699*
X1953335Y2078379D02*
X1951154Y2070504D01*
X1953335Y2078379D02*
X1955517Y2070504D01*
X1951972Y2073129D02*
X1954699D01*
X1959881Y2078379D02*
Y2070504D01*
X1957972Y2078379D02*
X1961790D01*
X1964244D02*
Y2070504D01*
Y2078379D02*
X1967790D01*
X1964244Y2074629D02*
X1966426D01*
X1964244Y2070504D02*
X1967790D01*
X1970244Y2078379D02*
Y2070504D01*
Y2078379D02*
X1972154D01*
X1972972Y2078004*
X1973517Y2077254*
X1973790Y2076504*
X1974063Y2075379*
Y2073504*
X1973790Y2072379*
X1973517Y2071629*
X1972972Y2070879*
X1972154Y2070504*
X1970244*
X1998335Y2078379D02*
Y2070504D01*
X1996426Y2078379D02*
X2000244D01*
X2004335D02*
X2003790Y2078004D01*
X2003244Y2077254*
X2002972Y2076504*
X2002699Y2075379*
Y2073504*
X2002972Y2072379*
X2003244Y2071629*
X2003790Y2070879*
X2004335Y2070504*
X2005426*
X2005972Y2070879*
X2006517Y2071629*
X2006790Y2072379*
X2007063Y2073504*
Y2075379*
X2006790Y2076504*
X2006517Y2077254*
X2005972Y2078004*
X2005426Y2078379*
X2004335*
X2009517D02*
Y2070504D01*
X2012790*
X1779290Y2054379D02*
X1778472Y2054004D01*
X1777926Y2052879*
X1777654Y2051004*
Y2049879*
X1777926Y2048004*
X1778472Y2046879*
X1779290Y2046504*
X1779835*
X1780654Y2046879*
X1781199Y2048004*
X1781472Y2049879*
Y2051004*
X1781199Y2052879*
X1780654Y2054004*
X1779835Y2054379*
X1779290*
X1784199Y2047254D02*
X1783926Y2046879D01*
X1784199Y2046504*
X1784472Y2046879*
X1784199Y2047254*
X1787199Y2052504D02*
Y2052879D01*
X1787472Y2053629*
X1787744Y2054004*
X1788290Y2054379*
X1789381*
X1789926Y2054004*
X1790199Y2053629*
X1790472Y2052879*
Y2052129*
X1790199Y2051379*
X1789654Y2050254*
X1786926Y2046504*
X1790744*
X1793472Y2052504D02*
Y2052879D01*
X1793744Y2053629*
X1794017Y2054004*
X1794563Y2054379*
X1795654*
X1796199Y2054004*
X1796472Y2053629*
X1796744Y2052879*
Y2052129*
X1796472Y2051379*
X1795926Y2050254*
X1793199Y2046504*
X1797017*
X1800835Y2054379D02*
X1800017Y2054004D01*
X1799744Y2053254*
Y2052504*
X1800017Y2051754*
X1800563Y2051379*
X1801654Y2051004*
X1802472Y2050629*
X1803017Y2049879*
X1803290Y2049129*
Y2048004*
X1803017Y2047254*
X1802744Y2046879*
X1801926Y2046504*
X1800835*
X1800017Y2046879*
X1799744Y2047254*
X1799472Y2048004*
Y2049129*
X1799744Y2049879*
X1800290Y2050629*
X1801108Y2051004*
X1802199Y2051379*
X1802744Y2051754*
X1803017Y2052504*
Y2053254*
X1802744Y2054004*
X1801926Y2054379*
X1800835*
X1809017Y2053254D02*
X1808744Y2054004D01*
X1807926Y2054379*
X1807381*
X1806563Y2054004*
X1806017Y2052879*
X1805744Y2051004*
Y2049129*
X1806017Y2047629*
X1806563Y2046879*
X1807381Y2046504*
X1807654*
X1808472Y2046879*
X1809017Y2047629*
X1809290Y2048754*
Y2049129*
X1809017Y2050254*
X1808472Y2051004*
X1807654Y2051379*
X1807381*
X1806563Y2051004*
X1806017Y2050254*
X1805744Y2049129*
X1865381Y2052879D02*
X1865926Y2053254D01*
X1866744Y2054379*
Y2046504*
X1871926Y2054379D02*
X1869199Y2049129D01*
X1873290*
X1871926Y2054379D02*
Y2046504D01*
X1878472Y2054379D02*
X1875744Y2049129D01*
X1879835*
X1878472Y2054379D02*
Y2046504D01*
X1903654D02*
X1915654Y2058504D01*
X1903654D02*
X1915654Y2046504D01*
X1936290Y2054379D02*
X1938472Y2050629D01*
Y2046504*
X1940654Y2054379D02*
X1938472Y2050629D01*
X1943108Y2054379D02*
Y2046504D01*
Y2054379D02*
X1946654D01*
X1943108Y2050629D02*
X1945290D01*
X1943108Y2046504D02*
X1946654D01*
X1952926Y2053254D02*
X1952381Y2054004D01*
X1951563Y2054379*
X1950472*
X1949654Y2054004*
X1949108Y2053254*
Y2052504*
X1949381Y2051754*
X1949654Y2051379*
X1950199Y2051004*
X1951835Y2050254*
X1952381Y2049879*
X1952654Y2049504*
X1952926Y2048754*
Y2047629*
X1952381Y2046879*
X1951563Y2046504*
X1950472*
X1949654Y2046879*
X1949108Y2047629*
X1989472Y2053254D02*
Y2046504D01*
X1987017Y2049879D02*
X1991926D01*
X1999290Y2055879D02*
X1994381Y2043879D01*
X2001744Y2049879D02*
X2006654D01*
X2010744Y2054379D02*
X2009926Y2054004D01*
X2009381Y2052879*
X2009108Y2051004*
Y2049879*
X2009381Y2048004*
X2009926Y2046879*
X2010744Y2046504*
X2011290*
X2012108Y2046879*
X2012654Y2048004*
X2012926Y2049879*
Y2051004*
X2012654Y2052879*
X2012108Y2054004*
X2011290Y2054379*
X2010744*
X2015654Y2047254D02*
X2015381Y2046879D01*
X2015654Y2046504*
X2015926Y2046879*
X2015654Y2047254*
X2020017Y2054379D02*
X2019199Y2054004D01*
X2018654Y2052879*
X2018381Y2051004*
Y2049879*
X2018654Y2048004*
X2019199Y2046879*
X2020017Y2046504*
X2020563*
X2021381Y2046879*
X2021926Y2048004*
X2022199Y2049879*
Y2051004*
X2021926Y2052879*
X2021381Y2054004*
X2020563Y2054379*
X2020017*
X1779290Y2030379D02*
X1778472Y2030004D01*
X1777926Y2028879*
X1777654Y2027004*
Y2025879*
X1777926Y2024004*
X1778472Y2022879*
X1779290Y2022504*
X1779835*
X1780654Y2022879*
X1781199Y2024004*
X1781472Y2025879*
Y2027004*
X1781199Y2028879*
X1780654Y2030004*
X1779835Y2030379*
X1779290*
X1784199Y2023254D02*
X1783926Y2022879D01*
X1784199Y2022504*
X1784472Y2022879*
X1784199Y2023254*
X1788290Y2030379D02*
X1787472Y2030004D01*
X1787199Y2029254*
Y2028504*
X1787472Y2027754*
X1788017Y2027379*
X1789108Y2027004*
X1789926Y2026629*
X1790472Y2025879*
X1790744Y2025129*
Y2024004*
X1790472Y2023254*
X1790199Y2022879*
X1789381Y2022504*
X1788290*
X1787472Y2022879*
X1787199Y2023254*
X1786926Y2024004*
Y2025129*
X1787199Y2025879*
X1787744Y2026629*
X1788563Y2027004*
X1789654Y2027379*
X1790199Y2027754*
X1790472Y2028504*
Y2029254*
X1790199Y2030004*
X1789381Y2030379*
X1788290*
X1865654Y2028879D02*
X1866199Y2029254D01*
X1867017Y2030379*
Y2022504*
X1871108Y2030379D02*
X1870290Y2030004D01*
X1869744Y2028879*
X1869472Y2027004*
Y2025879*
X1869744Y2024004*
X1870290Y2022879*
X1871108Y2022504*
X1871654*
X1872472Y2022879*
X1873017Y2024004*
X1873290Y2025879*
Y2027004*
X1873017Y2028879*
X1872472Y2030004*
X1871654Y2030379*
X1871108*
X1877381D02*
X1876563Y2030004D01*
X1876017Y2028879*
X1875744Y2027004*
Y2025879*
X1876017Y2024004*
X1876563Y2022879*
X1877381Y2022504*
X1877926*
X1878744Y2022879*
X1879290Y2024004*
X1879563Y2025879*
Y2027004*
X1879290Y2028879*
X1878744Y2030004*
X1877926Y2030379*
X1877381*
X1903654Y2022504D02*
X1915654D01*
Y2034504*
X1903654*
Y2022504*
X1909654Y2028504D02*
Y2034504D01*
X1939290Y2030379D02*
Y2022504D01*
Y2030379D02*
X1943108Y2022504D01*
Y2030379D02*
Y2022504D01*
X1947199Y2030379D02*
X1946654Y2030004D01*
X1946108Y2029254*
X1945835Y2028504*
X1945563Y2027379*
Y2025504*
X1945835Y2024379*
X1946108Y2023629*
X1946654Y2022879*
X1947199Y2022504*
X1948290*
X1948835Y2022879*
X1949381Y2023629*
X1949654Y2024379*
X1949926Y2025504*
Y2027379*
X1949654Y2028504*
X1949381Y2029254*
X1948835Y2030004*
X1948290Y2030379*
X1947199*
X1989472Y2029254D02*
Y2022504D01*
X1987017Y2025879D02*
X1991926D01*
X1999290Y2031879D02*
X1994381Y2019879D01*
X2001744Y2025879D02*
X2006654D01*
X2010744Y2030379D02*
X2009926Y2030004D01*
X2009381Y2028879*
X2009108Y2027004*
Y2025879*
X2009381Y2024004*
X2009926Y2022879*
X2010744Y2022504*
X2011290*
X2012108Y2022879*
X2012654Y2024004*
X2012926Y2025879*
Y2027004*
X2012654Y2028879*
X2012108Y2030004*
X2011290Y2030379*
X2010744*
X2015654Y2023254D02*
X2015381Y2022879D01*
X2015654Y2022504*
X2015926Y2022879*
X2015654Y2023254*
X2020017Y2030379D02*
X2019199Y2030004D01*
X2018654Y2028879*
X2018381Y2027004*
Y2025879*
X2018654Y2024004*
X2019199Y2022879*
X2020017Y2022504*
X2020563*
X2021381Y2022879*
X2021926Y2024004*
X2022199Y2025879*
Y2027004*
X2021926Y2028879*
X2021381Y2030004*
X2020563Y2030379*
X2020017*
X1779290Y2006379D02*
X1778472Y2006004D01*
X1777926Y2004879*
X1777654Y2003004*
Y2001879*
X1777926Y2000004*
X1778472Y1998879*
X1779290Y1998504*
X1779835*
X1780654Y1998879*
X1781199Y2000004*
X1781472Y2001879*
Y2003004*
X1781199Y2004879*
X1780654Y2006004*
X1779835Y2006379*
X1779290*
X1784199Y1999254D02*
X1783926Y1998879D01*
X1784199Y1998504*
X1784472Y1998879*
X1784199Y1999254*
X1790744Y2006379D02*
X1788017Y1998504D01*
X1786926Y2006379D02*
X1790744D01*
X1874108Y2005254D02*
X1873835Y2006004D01*
X1873017Y2006379*
X1872472*
X1871654Y2006004*
X1871108Y2004879*
X1870835Y2003004*
Y2001129*
X1871108Y1999629*
X1871654Y1998879*
X1872472Y1998504*
X1872744*
X1873563Y1998879*
X1874108Y1999629*
X1874381Y2000754*
Y2001129*
X1874108Y2002254*
X1873563Y2003004*
X1872744Y2003379*
X1872472*
X1871654Y2003004*
X1871108Y2002254*
X1870835Y2001129*
X1909654Y1998504D02*
X1915654Y2004504D01*
X1909654Y2010504*
X1903654Y2004504*
X1909654Y1998504*
Y2004504D02*
Y2010504D01*
X1936290Y2006379D02*
X1938472Y2002629D01*
Y1998504*
X1940654Y2006379D02*
X1938472Y2002629D01*
X1943108Y2006379D02*
Y1998504D01*
Y2006379D02*
X1946654D01*
X1943108Y2002629D02*
X1945290D01*
X1943108Y1998504D02*
X1946654D01*
X1952926Y2005254D02*
X1952381Y2006004D01*
X1951563Y2006379*
X1950472*
X1949654Y2006004*
X1949108Y2005254*
Y2004504*
X1949381Y2003754*
X1949654Y2003379*
X1950199Y2003004*
X1951835Y2002254*
X1952381Y2001879*
X1952654Y2001504*
X1952926Y2000754*
Y1999629*
X1952381Y1998879*
X1951563Y1998504*
X1950472*
X1949654Y1998879*
X1949108Y1999629*
X1989472Y2005254D02*
Y1998504D01*
X1987017Y2001879D02*
X1991926D01*
X1999290Y2007879D02*
X1994381Y1995879D01*
X2001744Y2001879D02*
X2006654D01*
X2010744Y2006379D02*
X2009926Y2006004D01*
X2009381Y2004879*
X2009108Y2003004*
Y2001879*
X2009381Y2000004*
X2009926Y1998879*
X2010744Y1998504*
X2011290*
X2012108Y1998879*
X2012654Y2000004*
X2012926Y2001879*
Y2003004*
X2012654Y2004879*
X2012108Y2006004*
X2011290Y2006379*
X2010744*
X2015654Y1999254D02*
X2015381Y1998879D01*
X2015654Y1998504*
X2015926Y1998879*
X2015654Y1999254*
X2020017Y2006379D02*
X2019199Y2006004D01*
X2018654Y2004879*
X2018381Y2003004*
Y2001879*
X2018654Y2000004*
X2019199Y1998879*
X2020017Y1998504*
X2020563*
X2021381Y1998879*
X2021926Y2000004*
X2022199Y2001879*
Y2003004*
X2021926Y2004879*
X2021381Y2006004*
X2020563Y2006379*
X2020017*
X1778199Y1982379D02*
X1781199D01*
X1779563Y1979379*
X1780381*
X1780926Y1979004*
X1781199Y1978629*
X1781472Y1977504*
Y1976754*
X1781199Y1975629*
X1780654Y1974879*
X1779835Y1974504*
X1779017*
X1778199Y1974879*
X1777926Y1975254*
X1777654Y1976004*
X1784199Y1975254D02*
X1783926Y1974879D01*
X1784199Y1974504*
X1784472Y1974879*
X1784199Y1975254*
X1787199Y1980504D02*
Y1980879D01*
X1787472Y1981629*
X1787744Y1982004*
X1788290Y1982379*
X1789381*
X1789926Y1982004*
X1790199Y1981629*
X1790472Y1980879*
Y1980129*
X1790199Y1979379*
X1789654Y1978254*
X1786926Y1974504*
X1790744*
X1867835Y1980504D02*
Y1980879D01*
X1868108Y1981629*
X1868381Y1982004*
X1868926Y1982379*
X1870017*
X1870563Y1982004*
X1870835Y1981629*
X1871108Y1980879*
Y1980129*
X1870835Y1979379*
X1870290Y1978254*
X1867563Y1974504*
X1871381*
X1875472Y1982379D02*
X1874654Y1982004D01*
X1874108Y1980879*
X1873835Y1979004*
Y1977879*
X1874108Y1976004*
X1874654Y1974879*
X1875472Y1974504*
X1876017*
X1876835Y1974879*
X1877381Y1976004*
X1877654Y1977879*
Y1979004*
X1877381Y1980879*
X1876835Y1982004*
X1876017Y1982379*
X1875472*
X1903654Y1974504D02*
X1915654D01*
X1903654Y1986504*
X1915654*
X1903654Y1974504*
X1939290Y1982379D02*
Y1974504D01*
Y1982379D02*
X1943108Y1974504D01*
Y1982379D02*
Y1974504D01*
X1947199Y1982379D02*
X1946654Y1982004D01*
X1946108Y1981254*
X1945835Y1980504*
X1945563Y1979379*
Y1977504*
X1945835Y1976379*
X1946108Y1975629*
X1946654Y1974879*
X1947199Y1974504*
X1948290*
X1948835Y1974879*
X1949381Y1975629*
X1949654Y1976379*
X1949926Y1977504*
Y1979379*
X1949654Y1980504*
X1949381Y1981254*
X1948835Y1982004*
X1948290Y1982379*
X1947199*
X1989472Y1981254D02*
Y1974504D01*
X1987017Y1977879D02*
X1991926D01*
X1999290Y1983879D02*
X1994381Y1971879D01*
X2001744Y1977879D02*
X2006654D01*
X2010744Y1982379D02*
X2009926Y1982004D01*
X2009381Y1980879*
X2009108Y1979004*
Y1977879*
X2009381Y1976004*
X2009926Y1974879*
X2010744Y1974504*
X2011290*
X2012108Y1974879*
X2012654Y1976004*
X2012926Y1977879*
Y1979004*
X2012654Y1980879*
X2012108Y1982004*
X2011290Y1982379*
X2010744*
X2015654Y1975254D02*
X2015381Y1974879D01*
X2015654Y1974504*
X2015926Y1974879*
X2015654Y1975254*
X2020017Y1982379D02*
X2019199Y1982004D01*
X2018654Y1980879*
X2018381Y1979004*
Y1977879*
X2018654Y1976004*
X2019199Y1974879*
X2020017Y1974504*
X2020563*
X2021381Y1974879*
X2021926Y1976004*
X2022199Y1977879*
Y1979004*
X2021926Y1980879*
X2021381Y1982004*
X2020563Y1982379*
X2020017*
G74*
X0Y0D02*
M02*
