M48
;FILE_FORMAT=2:4
INCH,LZ
FMAT,2
ICI,OFF
;TYPE=PLATED
T1C.009
T2C.02756
;TYPE=NON_PLATED
T3C.0315
T4C.12598
%
M72
G90
G93X0Y0
T1C.009F0S0
X185545Y151284
X19192Y151309
X185545Y155559
X189764Y159685
X18482Y163309
X191895Y163309
X188354Y168949
X191754Y168949
X18447Y170759
X19932Y176409
X19932Y175709
X195104Y168949
X197254Y168949
X199204Y168949
X202504Y168949
X19612Y163334
X200395Y163334
X19685Y159685
X203937Y159685
X19617Y151309
X202545Y151284
X215006Y149534
X20817Y151309
X20817Y155534
X20817Y163334
X20852Y165109
X20852Y171459
X214656Y171809
X216766Y186025
X223831Y206509
X217824Y206181
X224462Y204833
X219062Y201433
X217062Y195133
X219562Y189033
X218662Y171305
X218262Y169105
X219062Y169105
X222781Y165809
X218262Y161105
X219062Y161105
X222781Y158034
X219062Y153105
X218262Y153105
X226262Y153105
X227062Y153105
X231256Y157309
X226262Y161105
X227062Y161105
X231256Y165809
X227062Y169105
X226262Y169105
X226662Y171305
X229481Y176059
X229131Y176409
X231162Y186933
X231762Y203733
X226462Y205133
X225594Y206876
X227204Y207109
X229481Y211476
X229131Y211826
X237621Y2076
X235862Y198533
X235562Y191933
X236913Y184956
X238681Y171809
X234662Y171305
X236362Y170505
X235062Y169105
X234262Y169105
X236362Y162505
X234262Y161105
X235062Y161105
X236362Y154505
X235062Y153105
X234262Y153105
X237981Y149884
X245237Y149298
X247081Y155159
X247081Y162234
X244056Y164062
X247081Y167209
X249447Y17321
X248308Y173471
X248623Y175282
X249134Y175282
X249261Y199813
X249255Y211124
X256789Y210886
X254989Y210086
X254989Y208386
X254989Y206586
X254989Y204886
X254989Y203186
X254989Y201386
X254989Y199686
X249623Y188148
X250968Y175208
X250181Y175208
X250968Y173475
X249906Y167184
X252421Y166977
X256329Y166684
X256168Y162782
X252386Y162754
X249556Y162584
X252388Y157567
X249931Y155184
X256173Y155138
X256457Y148511
X260906Y152172
X261654Y154023
X260554Y173034
X259456Y176034
X259106Y176384
X259389Y186086
X259589Y187786
X259789Y189586
X259989Y191286
X260189Y192986
X260389Y194686
X260589Y196386
X260789Y197886
X259789Y199686
X260389Y201386
X259389Y203186
X259989Y204886
X260589Y206586
X259589Y208386
X260189Y210086
X260789Y210886
X259527Y215004
X259152Y215354
X265527Y21113
X264821Y196984
X264472Y18814
X263079Y172784
X262717Y170912
X262306Y167559
X267481Y164062
X262306Y164009
X262361Y158536
X264764Y148944
T2C.02756F197S55
X248788Y152609
X248788Y169538
X256662Y170719
X264536Y169538
X264536Y152609
X255481Y152609
T3C.0315F197S55
X209789Y148591
X209789Y149063
X209789Y149535
X209789Y150008
X209789Y15048
X209789Y172213
X209789Y172685
X209789Y173158
X209789Y17363
X209789Y174102
X217348Y18052
X21782Y18052
X218292Y18052
X218765Y18052
X219237Y18052
X219237Y177055
X218765Y177055
X218292Y177055
X21782Y177055
X217348Y177055
X213686Y174102
X213686Y17363
X213686Y173158
X213686Y172685
X213686Y172213
X213686Y15048
X213686Y150008
X213686Y149535
X213686Y149063
X213686Y148591
X236718Y177055
X236245Y177055
X235773Y177055
X2353Y177055
X2353Y18052
X235773Y18052
X236245Y18052
X236718Y18052
X239592Y209063
X239592Y208591
X239592Y208118
X239592Y207646
X239592Y207173
X239592Y185441
X239592Y184969
X239592Y184496
X239592Y184024
X239592Y183551
X23719Y18052
X23719Y177055
X239592Y174575
X239592Y174102
X239592Y17363
X239592Y173158
X239592Y172685
X239592Y15048
X239592Y150008
X239592Y149535
X239592Y149063
X239592Y148591
X243726Y148591
X243726Y149063
X243726Y149535
X243726Y150008
X243726Y15048
X243726Y172685
X243726Y173158
X243726Y17363
X243726Y174102
X243726Y174575
X246639Y177055
X246166Y177055
X246166Y18052
X246639Y18052
X243726Y183551
X243726Y184024
X243726Y184496
X243726Y184969
X243726Y185441
X243726Y207173
X243726Y207646
X243726Y208118
X243726Y208591
X243726Y209063
X247111Y18052
X247584Y18052
X248056Y18052
X248056Y177055
X247584Y177055
X247111Y177055
X266954Y177055
X265537Y177055
X266481Y177055
X266009Y177055
X267426Y177055
X266954Y18052
X265537Y18052
X266009Y18052
X266481Y18052
X267426Y18052
T4C.12598F035S794
X186604Y147042
X207096Y147042
X207096Y175105
X186604Y175105
X216416Y210533
X216416Y18247
X216416Y175105
X216416Y147042
X236908Y147042
X236908Y175105
X236908Y18247
X236908Y210533
X246443Y214086
X246443Y186023
X246416Y175105
X246416Y147042
X266908Y147042
X266908Y175105
X266935Y186023
X266935Y214086
M30
