*
*
G04 PADS VX.2 Build Number: 5060570 generated Gerber (RS-274-X) file*
G04 PC Version=2.1*
*
%IN "ESP32-Sense-Series-SubB"*%
*
%MOIN*%
*
%FSLAX35Y35*%
*
*
*
*
G04 PC Standard Apertures*
*
*
G04 Thermal Relief Aperture macro.*
%AMTER*
1,1,$1,0,0*
1,0,$1-$2,0,0*
21,0,$3,$4,0,0,45*
21,0,$3,$4,0,0,135*
%
*
*
G04 Annular Aperture macro.*
%AMANN*
1,1,$1,0,0*
1,0,$2,0,0*
%
*
*
G04 Odd Aperture macro.*
%AMODD*
1,1,$1,0,0*
1,0,$1-0.005,0,0*
%
*
*
G04 PC Custom Aperture Macros*
*
*
*
*
*
*
G04 PC Aperture Table*
*
%ADD010C,0.001*%
%ADD011C,0.005*%
%ADD024R,0.02X0.02*%
%ADD036C,0.0315*%
%ADD037R,0.03504X0.11811*%
*
*
*
*
G04 PC Circuitry*
G04 Layer Name ESP32-Sense-Series-SubB - circuitry*
%LPD*%
*
*
G04 PC Custom Flashes*
G04 Layer Name ESP32-Sense-Series-SubB - flashes*
%LPD*%
*
*
G04 PC Circuitry*
G04 Layer Name ESP32-Sense-Series-SubB - circuitry*
%LPD*%
*
G54D10*
G54D11*
G01X2169578Y1770383D02*
X2148971D01*
G75*
G03X2137160Y1758572I-0J-11811D01*
G01Y1745181*
X2097973*
Y1758572*
G03X2086162Y1770383I-11811J-0*
G01X1850856*
G03X1839045Y1758572I-0J-11811*
G01Y1462903*
G03X1850856Y1451091I11811J-0*
G01X2086152*
G03X2097963Y1462903I-0J11812*
G01Y1481558*
X2109774Y1493369D02*
G03X2097963Y1481558I-0J-11811D01*
G01X2109774Y1493369D02*
X2125349D01*
X2137160Y1481558D02*
G03X2125349Y1493369I-11811J0D01*
G01X2137160Y1481558D02*
Y1462903D01*
G03X2148971Y1451091I11811J-0*
G01X2384267*
G03X2396078Y1462903I-0J11812*
G01Y1481558*
X2407889Y1493369D02*
G03X2396078Y1481558I-0J-11811D01*
G01X2407889Y1493369D02*
X2425349D01*
X2437160Y1481558D02*
G03X2425349Y1493369I-11811J0D01*
G01X2437160Y1481558D02*
Y1462903D01*
G03X2448971Y1451091I11811J-0*
G01X2684537*
G03X2696348Y1462903I-0J11812*
G01Y1758572*
G03X2684537Y1770383I-11811J-0*
G01X2676513*
Y1805369*
X2684537*
G03X2696348Y1817180I-0J11811*
G01Y2148380*
G03X2684537Y2160191I-11811J0*
G01X2449241*
G03X2437430Y2148380I-0J-11811*
G01Y2097180*
X2425619Y2085369D02*
G03X2437430Y2097180I-0J11811D01*
G01X2425619Y2085369D02*
X2407889D01*
X2396078Y2097180D02*
G03X2407889Y2085369I11811J0D01*
G01X2396078Y2097180D02*
Y2112850D01*
G03X2384267Y2124661I-11811J-0*
G01X2148971*
G03X2137160Y2112850I-0J-11811*
G01Y1817180*
G03X2148971Y1805369I11811J0*
G01X2169578*
Y1770383*
X2396078Y1749180D02*
G03X2407889Y1737369I11811J-0D01*
G01X2396078Y1749180D02*
Y1758572D01*
G03X2384267Y1770383I-11811J0*
G01X2379889*
X2368078Y1782194D02*
G03X2379889Y1770383I11811J0D01*
G01X2368078Y1782194D02*
Y1793558D01*
X2379889Y1805369D02*
G03X2368078Y1793558I-0J-11811D01*
G01X2379889Y1805369D02*
X2384267D01*
G03X2396078Y1817180I-0J11811*
G01Y1829558*
X2407889Y1841369D02*
G03X2396078Y1829558I-0J-11811D01*
G01X2407889Y1841369D02*
X2425619D01*
X2437430Y1829558D02*
G03X2425619Y1841369I-11811J-0D01*
G01X2437430Y1829558D02*
Y1817180D01*
G03X2449241Y1805369I11811J0*
G01X2456267*
X2468078Y1793558D02*
G03X2456267Y1805369I-11811J0D01*
G01X2468078Y1793558D02*
Y1782194D01*
X2456267Y1770383D02*
G03X2468078Y1782194I-0J11811D01*
G01X2456267Y1770383D02*
X2448971D01*
G03X2437160Y1758572I-0J-11811*
G01Y1749180*
X2425349Y1737369D02*
G03X2437160Y1749180I-0J11811D01*
G01X2425349Y1737369D02*
X2407889D01*
X2396088Y2069370D02*
X2437430Y2069371D01*
Y1856772*
X2396088*
Y2069370*
X2483712Y1805369D02*
X2653791D01*
Y1770383*
X2483712*
Y1805369*
X2195523D02*
X2351429D01*
Y1770383*
X2195523*
Y1805369*
X2097973Y1719764D02*
X2137160D01*
Y1507166*
X2097973*
Y1719764*
X2396078Y1724489D02*
X2437160D01*
Y1507166*
X2396078*
Y1724489*
G54D24*
X2594160Y1752737D03*
Y1748737D03*
X2293619Y1753053D03*
Y1749053D03*
X1995754Y1753053D03*
Y1749053D03*
X2593780Y2142861D03*
Y2138861D03*
X2293684Y2107331D03*
Y2103331D03*
G54D36*
X2486049Y1764242D02*
X2486403D01*
Y1755580*
X2486049*
Y1764242*
Y1757480D02*
X2486403D01*
X2486049Y1760630D02*
X2486403D01*
X2486049Y1763780D02*
X2486403D01*
X2186049Y1764242D02*
X2186403D01*
Y1755580*
X2186049*
Y1764242*
Y1757480D02*
X2186403D01*
X2186049Y1760630D02*
X2186403D01*
X2186049Y1763780D02*
X2186403D01*
X2323213Y1764242D02*
X2323567D01*
Y1755580*
X2323213*
Y1764242*
Y1757480D02*
X2323567D01*
X2323213Y1760630D02*
X2323567D01*
X2323213Y1763780D02*
X2323567D01*
X2025098Y1764242D02*
X2025452D01*
Y1755581*
X2025098*
Y1764242*
Y1757480D02*
X2025452D01*
X2025098Y1760630D02*
X2025452D01*
X2025098Y1763780D02*
X2025452D01*
X2025197Y1755581D02*
Y1764242D01*
X1887934D02*
X1888288D01*
Y1755581*
X1887934*
Y1764242*
Y1757480D02*
X1888288D01*
X1887934Y1760630D02*
X1888288D01*
X1887934Y1763780D02*
X1888288D01*
X1887934Y1755581D02*
Y1764242D01*
X2623213D02*
X2623567D01*
Y1755580*
X2623213*
Y1764242*
Y1757480D02*
X2623567D01*
X2623213Y1760630D02*
X2623567D01*
X2623213Y1763780D02*
X2623567D01*
X2623483Y2154050D02*
X2623837D01*
Y2145389*
X2623483*
Y2154050*
Y2148031D02*
X2623837D01*
X2623483Y2151181D02*
X2623837D01*
X2623622Y2145389D02*
Y2154050D01*
X2486319D02*
X2486673D01*
Y2145389*
X2486319*
Y2154050*
Y2148031D02*
X2486673D01*
X2486319Y2151181D02*
X2486673D01*
X2323213Y2118520D02*
X2323567D01*
Y2109858*
X2323213*
Y2118520*
Y2110236D02*
X2323567D01*
X2323213Y2113386D02*
X2323567D01*
X2323213Y2116535D02*
X2323567D01*
X2186049Y2118520D02*
X2186403D01*
Y2109858*
X2186049*
Y2118520*
Y2110236D02*
X2186403D01*
X2186049Y2113386D02*
X2186403D01*
X2186049Y2116535D02*
X2186403D01*
X2246757Y1764242D02*
X2247111D01*
Y1755581*
X2246757*
Y1764242*
Y1757480D02*
X2247111D01*
X2246757Y1760630D02*
X2247111D01*
X2246757Y1763780D02*
X2247111D01*
X2254631Y1764242D02*
X2254985D01*
Y1755581*
X2254631*
Y1764242*
Y1757480D02*
X2254985D01*
X2254631Y1760630D02*
X2254985D01*
X2254631Y1763780D02*
X2254985D01*
X2262505Y1764242D02*
X2262859D01*
Y1755581*
X2262505*
Y1764242*
Y1757480D02*
X2262859D01*
X2262505Y1760630D02*
X2262859D01*
X2262505Y1763780D02*
X2262859D01*
X2270379Y1764242D02*
X2270733D01*
Y1755581*
X2270379*
Y1764242*
Y1757480D02*
X2270733D01*
X2270379Y1760630D02*
X2270733D01*
X2270379Y1763780D02*
X2270733D01*
X2278253Y1764242D02*
X2278607D01*
Y1755581*
X2278253*
Y1764242*
Y1757480D02*
X2278607D01*
X2278253Y1760630D02*
X2278607D01*
X2278253Y1763780D02*
X2278607D01*
X2286127Y1764242D02*
X2286481D01*
Y1755581*
X2286127*
Y1764242*
Y1757480D02*
X2286481D01*
X2286127Y1760630D02*
X2286481D01*
X2286127Y1763780D02*
X2286481D01*
X2286127Y1746526D02*
X2286481D01*
Y1737864*
X2286127*
Y1746526*
Y1738583D02*
X2286481D01*
X2286127Y1741732D02*
X2286481D01*
X2286127Y1744882D02*
X2286481D01*
X2278253Y1746526D02*
X2278607D01*
Y1737864*
X2278253*
Y1746526*
Y1738583D02*
X2278607D01*
X2278253Y1741732D02*
X2278607D01*
X2278253Y1744882D02*
X2278607D01*
X2270379Y1746526D02*
X2270733D01*
Y1737864*
X2270379*
Y1746526*
Y1738583D02*
X2270733D01*
X2270379Y1741732D02*
X2270733D01*
X2270379Y1744882D02*
X2270733D01*
X2262505Y1746526D02*
X2262859D01*
Y1737864*
X2262505*
Y1746526*
Y1738583D02*
X2262859D01*
X2262505Y1741732D02*
X2262859D01*
X2262505Y1744882D02*
X2262859D01*
X2254631Y1746526D02*
X2254985D01*
Y1737864*
X2254631*
Y1746526*
Y1738583D02*
X2254985D01*
X2254631Y1741732D02*
X2254985D01*
X2254631Y1744882D02*
X2254985D01*
X2246757Y1746526D02*
X2247111D01*
Y1737864*
X2246757*
Y1746526*
Y1738583D02*
X2247111D01*
X2246757Y1741732D02*
X2247111D01*
X2246757Y1744882D02*
X2247111D01*
X2546757Y1764242D02*
X2547111D01*
Y1755580*
X2546757*
Y1764242*
Y1757480D02*
X2547111D01*
X2546757Y1760630D02*
X2547111D01*
X2546757Y1763780D02*
X2547111D01*
X2554631Y1764242D02*
X2554985D01*
Y1755580*
X2554631*
Y1764242*
Y1757480D02*
X2554985D01*
X2554631Y1760630D02*
X2554985D01*
X2554631Y1763780D02*
X2554985D01*
X2562505Y1764242D02*
X2562859D01*
Y1755580*
X2562505*
Y1764242*
Y1757480D02*
X2562859D01*
X2562505Y1760630D02*
X2562859D01*
X2562505Y1763780D02*
X2562859D01*
X2570379Y1764242D02*
X2570733D01*
Y1755580*
X2570379*
Y1764242*
Y1757480D02*
X2570733D01*
X2570379Y1760630D02*
X2570733D01*
X2570379Y1763780D02*
X2570733D01*
X2578253Y1764242D02*
X2578607D01*
Y1755580*
X2578253*
Y1764242*
Y1757480D02*
X2578607D01*
X2578253Y1760630D02*
X2578607D01*
X2578253Y1763780D02*
X2578607D01*
X2586127Y1764242D02*
X2586481D01*
Y1755580*
X2586127*
Y1764242*
Y1757480D02*
X2586481D01*
X2586127Y1760630D02*
X2586481D01*
X2586127Y1763780D02*
X2586481D01*
X2586127Y1746525D02*
X2586481D01*
Y1737864*
X2586127*
Y1746525*
Y1738583D02*
X2586481D01*
X2586127Y1741732D02*
X2586481D01*
X2586127Y1744882D02*
X2586481D01*
X2578253Y1746525D02*
X2578607D01*
Y1737864*
X2578253*
Y1746525*
Y1738583D02*
X2578607D01*
X2578253Y1741732D02*
X2578607D01*
X2578253Y1744882D02*
X2578607D01*
X2570379Y1746525D02*
X2570733D01*
Y1737864*
X2570379*
Y1746525*
Y1738583D02*
X2570733D01*
X2570379Y1741732D02*
X2570733D01*
X2570379Y1744882D02*
X2570733D01*
X2562505Y1746525D02*
X2562859D01*
Y1737864*
X2562505*
Y1746525*
Y1738583D02*
X2562859D01*
X2562505Y1741732D02*
X2562859D01*
X2562505Y1744882D02*
X2562859D01*
X2554631Y1746525D02*
X2554985D01*
Y1737864*
X2554631*
Y1746525*
Y1738583D02*
X2554985D01*
X2554631Y1741732D02*
X2554985D01*
X2554631Y1744882D02*
X2554985D01*
X2546757Y1746525D02*
X2547111D01*
Y1737864*
X2546757*
Y1746525*
Y1738583D02*
X2547111D01*
X2546757Y1741732D02*
X2547111D01*
X2546757Y1744882D02*
X2547111D01*
X1948642Y1764242D02*
X1948996D01*
Y1755581*
X1948642*
Y1764242*
Y1757480D02*
X1948996D01*
X1948642Y1760630D02*
X1948996D01*
X1948642Y1763780D02*
X1948996D01*
X1948642Y1755581D02*
Y1764242D01*
X1956516D02*
X1956870D01*
Y1755581*
X1956516*
Y1764242*
Y1757480D02*
X1956870D01*
X1956516Y1760630D02*
X1956870D01*
X1956516Y1763780D02*
X1956870D01*
X1956516Y1755581D02*
Y1764242D01*
X1964390D02*
X1964744D01*
Y1755581*
X1964390*
Y1764242*
Y1757480D02*
X1964744D01*
X1964390Y1760630D02*
X1964744D01*
X1964390Y1763780D02*
X1964744D01*
X1964390Y1755581D02*
Y1764242D01*
X1972264D02*
X1972618D01*
Y1755581*
X1972264*
Y1764242*
Y1757480D02*
X1972618D01*
X1972264Y1760630D02*
X1972618D01*
X1972264Y1763780D02*
X1972618D01*
X1980138Y1764242D02*
X1980492D01*
Y1755581*
X1980138*
Y1764242*
Y1757480D02*
X1980492D01*
X1980138Y1760630D02*
X1980492D01*
X1980138Y1763780D02*
X1980492D01*
X1988012Y1764242D02*
X1988366D01*
Y1755581*
X1988012*
Y1764242*
Y1757480D02*
X1988366D01*
X1988012Y1760630D02*
X1988366D01*
X1988012Y1763780D02*
X1988366D01*
X1988012Y1746526D02*
X1988366D01*
Y1737864*
X1988012*
Y1746526*
Y1738583D02*
X1988366D01*
X1988012Y1741732D02*
X1988366D01*
X1988012Y1744882D02*
X1988366D01*
X1980138Y1746526D02*
X1980492D01*
Y1737864*
X1980138*
Y1746526*
Y1738583D02*
X1980492D01*
X1980138Y1741732D02*
X1980492D01*
X1980138Y1744882D02*
X1980492D01*
X1972264Y1746526D02*
X1972618D01*
Y1737864*
X1972264*
Y1746526*
Y1738583D02*
X1972618D01*
X1972264Y1741732D02*
X1972618D01*
X1972264Y1744882D02*
X1972618D01*
X1964390Y1746526D02*
X1964744D01*
Y1737864*
X1964390*
Y1746526*
Y1738583D02*
X1964744D01*
X1964390Y1741732D02*
X1964744D01*
X1964390Y1744882D02*
X1964744D01*
X1964390Y1737864D02*
Y1746526D01*
X1956516D02*
X1956870D01*
Y1737864*
X1956516*
Y1746526*
Y1738583D02*
X1956870D01*
X1956516Y1741732D02*
X1956870D01*
X1956516Y1744882D02*
X1956870D01*
X1956516Y1737864D02*
Y1746526D01*
X1948642D02*
X1948996D01*
Y1737864*
X1948642*
Y1746526*
Y1738583D02*
X1948996D01*
X1948642Y1741732D02*
X1948996D01*
X1948642Y1744882D02*
X1948996D01*
X1948642Y1737864D02*
Y1746526D01*
X2547027Y2154050D02*
X2547381D01*
Y2145389*
X2547027*
Y2154050*
Y2148031D02*
X2547381D01*
X2547027Y2151181D02*
X2547381D01*
X2554901Y2154050D02*
X2555255D01*
Y2145389*
X2554901*
Y2154050*
Y2148031D02*
X2555255D01*
X2554901Y2151181D02*
X2555255D01*
X2562775Y2154050D02*
X2563129D01*
Y2145389*
X2562775*
Y2154050*
Y2148031D02*
X2563129D01*
X2562775Y2151181D02*
X2563129D01*
X2570649Y2154050D02*
X2571003D01*
Y2145389*
X2570649*
Y2154050*
Y2148031D02*
X2571003D01*
X2570649Y2151181D02*
X2571003D01*
X2578523Y2154050D02*
X2578877D01*
Y2145389*
X2578523*
Y2154050*
Y2148031D02*
X2578877D01*
X2578523Y2151181D02*
X2578877D01*
X2586397Y2154050D02*
X2586751D01*
Y2145389*
X2586397*
Y2154050*
Y2148031D02*
X2586751D01*
X2586397Y2151181D02*
X2586751D01*
X2586397Y2136334D02*
X2586751D01*
Y2127672*
X2586397*
Y2136334*
Y2129134D02*
X2586751D01*
X2586397Y2132283D02*
X2586751D01*
X2586397Y2135433D02*
X2586751D01*
X2578523Y2136334D02*
X2578877D01*
Y2127672*
X2578523*
Y2136334*
Y2129134D02*
X2578877D01*
X2578523Y2132283D02*
X2578877D01*
X2578523Y2135433D02*
X2578877D01*
X2570649Y2136334D02*
X2571003D01*
Y2127672*
X2570649*
Y2136334*
Y2129134D02*
X2571003D01*
X2570649Y2132283D02*
X2571003D01*
X2570649Y2135433D02*
X2571003D01*
X2562775Y2136334D02*
X2563129D01*
Y2127672*
X2562775*
Y2136334*
Y2129134D02*
X2563129D01*
X2562775Y2132283D02*
X2563129D01*
X2562775Y2135433D02*
X2563129D01*
X2554901Y2136334D02*
X2555255D01*
Y2127672*
X2554901*
Y2136334*
Y2129134D02*
X2555255D01*
X2554901Y2132283D02*
X2555255D01*
X2554901Y2135433D02*
X2555255D01*
X2547027Y2136334D02*
X2547381D01*
Y2127672*
X2547027*
Y2136334*
Y2129134D02*
X2547381D01*
X2547027Y2132283D02*
X2547381D01*
X2547027Y2135433D02*
X2547381D01*
X2246757Y2118520D02*
X2247111D01*
Y2109858*
X2246757*
Y2118520*
Y2110236D02*
X2247111D01*
X2246757Y2113386D02*
X2247111D01*
X2246757Y2116535D02*
X2247111D01*
X2254631Y2118520D02*
X2254985D01*
Y2109858*
X2254631*
Y2118520*
Y2110236D02*
X2254985D01*
X2254631Y2113386D02*
X2254985D01*
X2254631Y2116535D02*
X2254985D01*
X2262505Y2118520D02*
X2262859D01*
Y2109858*
X2262505*
Y2118520*
Y2110236D02*
X2262859D01*
X2262505Y2113386D02*
X2262859D01*
X2262505Y2116535D02*
X2262859D01*
X2270379Y2118520D02*
X2270733D01*
Y2109858*
X2270379*
Y2118520*
Y2110236D02*
X2270733D01*
X2270379Y2113386D02*
X2270733D01*
X2270379Y2116535D02*
X2270733D01*
X2278253Y2118520D02*
X2278607D01*
Y2109858*
X2278253*
Y2118520*
Y2110236D02*
X2278607D01*
X2278253Y2113386D02*
X2278607D01*
X2278253Y2116535D02*
X2278607D01*
X2286127Y2118520D02*
X2286481D01*
Y2109858*
X2286127*
Y2118520*
Y2110236D02*
X2286481D01*
X2286127Y2113386D02*
X2286481D01*
X2286127Y2116535D02*
X2286481D01*
X2286127Y2100803D02*
X2286481D01*
Y2092142*
X2286127*
Y2100803*
Y2094488D02*
X2286481D01*
X2286127Y2097638D02*
X2286481D01*
X2286127Y2100787D02*
X2286481D01*
X2278253Y2100803D02*
X2278607D01*
Y2092142*
X2278253*
Y2100803*
Y2094488D02*
X2278607D01*
X2278253Y2097638D02*
X2278607D01*
X2278253Y2100787D02*
X2278607D01*
X2270379Y2100803D02*
X2270733D01*
Y2092142*
X2270379*
Y2100803*
Y2094488D02*
X2270733D01*
X2270379Y2097638D02*
X2270733D01*
X2270379Y2100787D02*
X2270733D01*
X2262505Y2100803D02*
X2262859D01*
Y2092142*
X2262505*
Y2100803*
Y2094488D02*
X2262859D01*
X2262505Y2097638D02*
X2262859D01*
X2262505Y2100787D02*
X2262859D01*
X2254631Y2100803D02*
X2254985D01*
Y2092142*
X2254631*
Y2100803*
Y2094488D02*
X2254985D01*
X2254631Y2097638D02*
X2254985D01*
X2254631Y2100787D02*
X2254985D01*
X2246757Y2100803D02*
X2247111D01*
Y2092142*
X2246757*
Y2100803*
Y2094488D02*
X2247111D01*
X2246757Y2097638D02*
X2247111D01*
X2246757Y2100787D02*
X2247111D01*
G54D37*
X2494100Y1759911D03*
X2501974D03*
X2509848D03*
Y1742195D03*
X2501974D03*
X2494100D03*
X2486226D03*
X2194100Y1759911D03*
X2201974D03*
X2209848D03*
Y1742195D03*
X2201974D03*
X2194100D03*
X2186226D03*
X2331264Y1759911D03*
X2339138D03*
X2347012D03*
Y1742195D03*
X2339138D03*
X2331264D03*
X2323390D03*
X2033149Y1759911D03*
X2041023D03*
X2048897D03*
Y1742195D03*
X2041023D03*
X2033149D03*
X2025275D03*
X1895985Y1759911D03*
X1903859D03*
X1911733D03*
Y1742195D03*
X1903859D03*
X1895985D03*
X1888111D03*
X2631264Y1759911D03*
X2639138D03*
X2647012D03*
Y1742195D03*
X2639138D03*
X2631264D03*
X2623390D03*
X2631534Y2149719D03*
X2639408D03*
X2647282D03*
Y2132003D03*
X2639408D03*
X2631534D03*
X2623660D03*
X2494370Y2149719D03*
X2502244D03*
X2510118D03*
Y2132003D03*
X2502244D03*
X2494370D03*
X2486496D03*
X2331264Y2114189D03*
X2339138D03*
X2347012D03*
Y2096473D03*
X2339138D03*
X2331264D03*
X2323390D03*
X2194100Y2114189D03*
X2201974D03*
X2209848D03*
Y2096473D03*
X2201974D03*
X2194100D03*
X2186226D03*
G74*
X0Y0D02*
M02*
