*
*
G04 PADS VX.2 Build Number: 5060570 generated Gerber (RS-274-X) file*
G04 PC Version=2.1*
*
%IN "ESP32-Sense-Series-SubB"*%
*
%MOIN*%
*
%FSLAX35Y35*%
*
*
*
*
G04 PC Standard Apertures*
*
*
G04 Thermal Relief Aperture macro.*
%AMTER*
1,1,$1,0,0*
1,0,$1-$2,0,0*
21,0,$3,$4,0,0,45*
21,0,$3,$4,0,0,135*
%
*
*
G04 Annular Aperture macro.*
%AMANN*
1,1,$1,0,0*
1,0,$2,0,0*
%
*
*
G04 Odd Aperture macro.*
%AMODD*
1,1,$1,0,0*
1,0,$1-0.005,0,0*
%
*
*
G04 PC Custom Aperture Macros*
*
*
*
*
*
*
G04 PC Aperture Table*
*
%ADD010C,0.001*%
%ADD011C,0.005*%
%ADD012C,0.008*%
%ADD014C,0.004*%
%ADD016C,0.01*%
%ADD022C,0.00591*%
%ADD029C,0.00394*%
%ADD044C,0.002*%
*
*
*
*
G04 PC Circuitry*
G04 Layer Name ESP32-Sense-Series-SubB - circuitry*
%LPD*%
*
*
G04 PC Custom Flashes*
G04 Layer Name ESP32-Sense-Series-SubB - flashes*
%LPD*%
*
*
G04 PC Circuitry*
G04 Layer Name ESP32-Sense-Series-SubB - circuitry*
%LPD*%
*
G54D10*
G01X2696078Y1451092D02*
X2696081D01*
X2437160Y1451091D02*
X2437163D01*
X2396078D02*
X2396081D01*
X2137160D02*
X2137163D01*
X2097963Y1451092D02*
X2097966D01*
X1839045Y1451091D02*
X1839048D01*
X1839045D02*
X1839048D01*
X1839045Y1770383D02*
X1839048D01*
X2137160Y2124661D02*
X2137163D01*
X2396078D02*
X2396081D01*
X2437430Y2160191D02*
X2437433D01*
X2696348D02*
X2696351D01*
X2696348Y1805369D02*
X2696351D01*
X2696348Y2160191D02*
X2696351D01*
X2137160Y1805369D02*
X2137163D01*
X2137160Y2124661D02*
X2137163D01*
G54D11*
X2661089Y1532721D02*
Y1529725D01*
X2653909*
Y1532721*
X2661089*
X2669965Y1526092D02*
G75*
G03X2669965I-12796J0D01*
G01X2667996D02*
G03X2667996I-10827J0D01*
G01X2570172Y1532572D02*
Y1529576D01*
X2562992*
Y1532572*
X2570172*
X2579414Y1526092D02*
G03X2579414I-12796J0D01*
G01X2577445D02*
G03X2577445I-10827J0D01*
G01X2488863D02*
G03X2488863I-12796J0D01*
G01X2486894D02*
G03X2486894I-10827J0D01*
G01X2472477Y1529594D02*
Y1532590D01*
X2479657*
Y1529594*
X2472477*
X2479658Y1701881D02*
Y1698885D01*
X2472478*
Y1701881*
X2479658*
X2570209D02*
Y1698885D01*
X2563029*
Y1701881*
X2570209*
X2653580Y1698885D02*
Y1701881D01*
X2660760*
Y1698885*
X2653580*
X2488863Y1695383D02*
G03X2488863I-12795J0D01*
G01X2486894D02*
G03X2486894I-10826J0D01*
G01X2579414D02*
G03X2579414I-12795J0D01*
G01X2577445D02*
G03X2577445I-10826J0D01*
G01X2669965D02*
G03X2669965I-12795J0D01*
G01X2667996D02*
G03X2667996I-10826J0D01*
G01X2588889Y2113630D02*
Y1823092D01*
X2546889*
Y2113630*
X2588889*
X2546889Y2109030D02*
X2567889Y2075350D01*
X2588889Y2109030*
X2546889Y2091730D02*
X2567889Y2058050D01*
X2588889Y2091730*
X2546889Y2074430D02*
X2567889Y2040750D01*
X2588889Y2074430*
X2546889Y2057130D02*
X2567889Y2023450D01*
X2588889Y2057130*
X2546889Y2039830D02*
X2567889Y2006150D01*
X2588889Y2039830*
X2546889Y2022530D02*
X2567889Y1988850D01*
X2588889Y2022530*
X2546889Y2005230D02*
X2567889Y1971550D01*
X2588889Y2005230*
X2546889Y1987930D02*
X2567889Y1954250D01*
X2588889Y1987930*
X2546889Y1970630D02*
X2567889Y1936950D01*
X2588889Y1970630*
X2546889Y1953330D02*
X2567889Y1919650D01*
X2588889Y1953330*
X2546889Y1936030D02*
X2567889Y1902350D01*
X2588889Y1936030*
X2546889Y1918730D02*
X2567889Y1885050D01*
X2588889Y1918730*
X2546889Y1901430D02*
X2567889Y1867750D01*
X2588889Y1901430*
X2546889Y1884130D02*
X2567889Y1850450D01*
X2588889Y1884130*
X2546889Y1866830D02*
X2567889Y1833150D01*
X2588889Y1866830*
X2322113Y1975529D02*
X2359108Y1988994D01*
Y1921667D02*
G03Y1988994I-92489J33664D01*
G01Y1921667D02*
X2322113Y1935133D01*
G03Y1975529I-55494J20198*
G01X2296146Y2006474D02*
X2315832Y2040570D01*
X2359108Y1988994D02*
G03X2315832Y2040570I-92489J-33663D01*
G01X2359108Y1988994D02*
X2322113Y1975529D01*
G03X2296146Y2006474I-55494J-20198*
G01X2256364Y2013489D02*
X2249528Y2052261D01*
X2315832Y2040570D02*
G03X2249528Y2052261I-49213J-85239D01*
G01X2315832Y2040570D02*
X2296146Y2006474D01*
G03X2256364Y2013489I-29527J-51143*
G01X2221380Y1993291D02*
X2191221Y2018597D01*
X2249528Y2052261D02*
G03X2191221Y2018597I17091J-96930D01*
G01X2249528Y2052261D02*
X2256364Y2013489D01*
G03X2221380Y1993291I10255J-58158*
G01X2207564Y1955331D02*
X2168194D01*
X2191221Y2018597D02*
G03X2168194Y1955331I75398J-63266D01*
G01X2191221Y2018597D02*
X2221380Y1993291D01*
G03X2207564Y1955331I45239J-37960*
G01X2221380Y1917371D02*
X2191221Y1892064D01*
X2168194Y1955331D02*
G03X2191221Y1892064I98425J-0D01*
G01X2168194Y1955331D02*
X2207564D01*
G03X2221380Y1917371I59055J-0*
G01X2256364Y1897173D02*
X2249528Y1858401D01*
X2191221Y1892064D02*
G03X2249528Y1858401I75398J63267D01*
G01X2191221Y1892064D02*
X2221380Y1917371D01*
G03X2256364Y1897173I45239J37960*
G01X2296146Y1904188D02*
X2315832Y1870092D01*
X2249528Y1858401D02*
G03X2315832Y1870092I17091J96930D01*
G01X2249528Y1858401D02*
X2256364Y1897173D01*
G03X2296146Y1904188I10255J58158*
G01X2322113Y1935133D02*
X2359108Y1921667D01*
X2315832Y1870092D02*
G03X2359108Y1921667I-49213J85239D01*
G01X2315832Y1870092D02*
X2296146Y1904188D01*
G03X2322113Y1935133I-29527J51143*
G01X2169578Y1770383D02*
X2148971D01*
G03X2137160Y1758572I-0J-11811*
G01Y1745181*
X2097973*
Y1758572*
G03X2086162Y1770383I-11811J-0*
G01X1850856*
G03X1839045Y1758572I-0J-11811*
G01Y1462903*
G03X1850856Y1451091I11811J-0*
G01X2086152*
G03X2097963Y1462903I-0J11812*
G01Y1481558*
X2109774Y1493369D02*
G03X2097963Y1481558I-0J-11811D01*
G01X2109774Y1493369D02*
X2125349D01*
X2137160Y1481558D02*
G03X2125349Y1493369I-11811J0D01*
G01X2137160Y1481558D02*
Y1462903D01*
G03X2148971Y1451091I11811J-0*
G01X2384267*
G03X2396078Y1462903I-0J11812*
G01Y1481558*
X2407889Y1493369D02*
G03X2396078Y1481558I-0J-11811D01*
G01X2407889Y1493369D02*
X2425349D01*
X2437160Y1481558D02*
G03X2425349Y1493369I-11811J0D01*
G01X2437160Y1481558D02*
Y1462903D01*
G03X2448971Y1451091I11811J-0*
G01X2684537*
G03X2696348Y1462903I-0J11812*
G01Y1758572*
G03X2684537Y1770383I-11811J-0*
G01X2676513*
Y1805369*
X2684537*
G03X2696348Y1817180I-0J11811*
G01Y2148380*
G03X2684537Y2160191I-11811J0*
G01X2449241*
G03X2437430Y2148380I-0J-11811*
G01Y2097180*
X2425619Y2085369D02*
G03X2437430Y2097180I-0J11811D01*
G01X2425619Y2085369D02*
X2407889D01*
X2396078Y2097180D02*
G03X2407889Y2085369I11811J0D01*
G01X2396078Y2097180D02*
Y2112850D01*
G03X2384267Y2124661I-11811J-0*
G01X2148971*
G03X2137160Y2112850I-0J-11811*
G01Y1817180*
G03X2148971Y1805369I11811J0*
G01X2169578*
Y1770383*
X2396078Y1749180D02*
G03X2407889Y1737369I11811J-0D01*
G01X2396078Y1749180D02*
Y1758572D01*
G03X2384267Y1770383I-11811J0*
G01X2379889*
X2368078Y1782194D02*
G03X2379889Y1770383I11811J0D01*
G01X2368078Y1782194D02*
Y1793558D01*
X2379889Y1805369D02*
G03X2368078Y1793558I-0J-11811D01*
G01X2379889Y1805369D02*
X2384267D01*
G03X2396078Y1817180I-0J11811*
G01Y1829558*
X2407889Y1841369D02*
G03X2396078Y1829558I-0J-11811D01*
G01X2407889Y1841369D02*
X2425619D01*
X2437430Y1829558D02*
G03X2425619Y1841369I-11811J-0D01*
G01X2437430Y1829558D02*
Y1817180D01*
G03X2449241Y1805369I11811J0*
G01X2456267*
X2468078Y1793558D02*
G03X2456267Y1805369I-11811J0D01*
G01X2468078Y1793558D02*
Y1782194D01*
X2456267Y1770383D02*
G03X2468078Y1782194I-0J11811D01*
G01X2456267Y1770383D02*
X2448971D01*
G03X2437160Y1758572I-0J-11811*
G01Y1749180*
X2425349Y1737369D02*
G03X2437160Y1749180I-0J11811D01*
G01X2425349Y1737369D02*
X2407889D01*
X2396088Y2069370D02*
X2437430Y2069371D01*
Y1856772*
X2396088*
Y2069370*
X2483712Y1805369D02*
X2653791D01*
Y1770383*
X2483712*
Y1805369*
X2195523D02*
X2351429D01*
Y1770383*
X2195523*
Y1805369*
X2097973Y1719764D02*
X2137160D01*
Y1507166*
X2097973*
Y1719764*
X2396078Y1724489D02*
X2437160D01*
Y1507166*
X2396078*
Y1724489*
X1866600Y1692687D02*
X2070200D01*
Y1649387*
X1866600*
Y1692687*
X2141738Y1692092D02*
X2152238D01*
X2149238Y1695092*
X2141738Y1611092D02*
X2152238D01*
X2149238Y1614092*
X2142738Y1531092D02*
X2153238D01*
X2150238Y1534092*
X2188147Y1732265D02*
Y1723265D01*
X2190147Y1725265*
X2188147Y1723265D02*
X2186147Y1725265D01*
X2268147Y1731265D02*
Y1723265D01*
X2270147Y1725265*
X2268147Y1723265D02*
X2266147Y1725265D01*
X2348147Y1731265D02*
Y1723265D01*
X2350147Y1725265*
X2348147Y1723265D02*
X2346147Y1725265D01*
G54D12*
X2657499Y1530723D02*
Y1531723D01*
X2566582Y1530574D02*
Y1531574D01*
X2476067Y1531592D02*
Y1530592D01*
X2476068Y1699883D02*
Y1700883D01*
X2566619Y1699883D02*
Y1700883D01*
X2657170D02*
Y1699883D01*
G54D14*
X2651519Y1523592D02*
X2655269D01*
X2656322Y1526091D02*
X2657824Y1524588D01*
Y1527593*
X2656322Y1526091*
X2659069Y1523592D02*
X2662819D01*
Y1528592*
X2659069*
X2651519D02*
Y1523592D01*
X2655269Y1528592D02*
X2651519D01*
X2560968Y1523592D02*
X2564718D01*
X2565771Y1526091D02*
X2567273Y1524588D01*
Y1527593*
X2565771Y1526091*
X2568518Y1523592D02*
X2572268D01*
Y1528592*
X2568518*
X2560968D02*
Y1523592D01*
X2564718Y1528592D02*
X2560968D01*
X2481717D02*
X2477967D01*
X2476915Y1526094D02*
X2475412Y1527596D01*
Y1524591*
X2476915Y1526094*
X2474167Y1528592D02*
X2470417D01*
Y1523592*
X2474167*
X2481717D02*
Y1528592D01*
X2477967Y1523592D02*
X2481717D01*
X2481718Y1697883D02*
X2477968D01*
X2476915Y1695385D02*
X2475413Y1696887D01*
Y1693882*
X2476915Y1695385*
X2474168Y1697883D02*
X2470418D01*
Y1692883*
X2474168*
X2481718D02*
Y1697883D01*
X2477968Y1692883D02*
X2481718D01*
X2560969D02*
X2564719D01*
X2565771Y1695382D02*
X2567274Y1693879D01*
Y1696884*
X2565771Y1695382*
X2568519Y1692883D02*
X2572269D01*
Y1697883*
X2568519*
X2560969D02*
Y1692883D01*
X2564719Y1697883D02*
X2560969D01*
X2662820D02*
X2659070D01*
X2658017Y1695385D02*
X2656515Y1696887D01*
Y1693882*
X2658017Y1695385*
X2655270Y1697883D02*
X2651520D01*
Y1692883*
X2655270*
X2662820D02*
Y1697883D01*
X2659070Y1692883D02*
X2662820D01*
G54D16*
X2696078Y1435087D02*
X2585187D01*
X2696078D02*
X2686078Y1432587D01*
Y1437587*
X2696078Y1435087*
X2437160D02*
X2548051D01*
X2437160D02*
X2447160Y1437587D01*
Y1432587*
X2437160Y1435087*
X2696078Y1446092D02*
Y1430087D01*
X2437160Y1446091D02*
Y1430087D01*
X2553778Y1436962D02*
X2553551Y1437587D01*
X2552869Y1437900*
X2552414*
X2551733Y1437587*
X2551278Y1436650*
X2551051Y1435087*
Y1433525*
X2551278Y1432275*
X2551733Y1431650*
X2552414Y1431337*
X2552642*
X2553324Y1431650*
X2553778Y1432275*
X2554005Y1433212*
Y1433525*
X2553778Y1434462*
X2553324Y1435087*
X2552642Y1435400*
X2552414*
X2551733Y1435087*
X2551278Y1434462*
X2551051Y1433525*
X2559005Y1437900D02*
X2556733D01*
X2556505Y1435087*
X2556733Y1435400*
X2557414Y1435712*
X2558096*
X2558778Y1435400*
X2559233Y1434775*
X2559460Y1433837*
X2559233Y1433212*
X2559005Y1432275*
X2558551Y1431650*
X2557869Y1431337*
X2557187*
X2556505Y1431650*
X2556278Y1431962*
X2556051Y1432587*
X2561733Y1431962D02*
X2561505Y1431650D01*
X2561733Y1431337*
X2561960Y1431650*
X2561733Y1431962*
X2565142Y1437900D02*
X2564460Y1437587D01*
X2564233Y1436962*
Y1436337*
X2564460Y1435712*
X2564914Y1435400*
X2565824Y1435087*
X2566505Y1434775*
X2566960Y1434150*
X2567187Y1433525*
Y1432587*
X2566960Y1431962*
X2566733Y1431650*
X2566051Y1431337*
X2565142*
X2564460Y1431650*
X2564233Y1431962*
X2564005Y1432587*
Y1433525*
X2564233Y1434150*
X2564687Y1434775*
X2565369Y1435087*
X2566278Y1435400*
X2566733Y1435712*
X2566960Y1436337*
Y1436962*
X2566733Y1437587*
X2566051Y1437900*
X2565142*
X2569233Y1435712D02*
Y1431337D01*
Y1434462D02*
X2569914Y1435400D01*
X2570369Y1435712*
X2571051*
X2571505Y1435400*
X2571733Y1434462*
Y1431337*
Y1434462D02*
X2572414Y1435400D01*
X2572869Y1435712*
X2573551*
X2574005Y1435400*
X2574233Y1434462*
Y1431337*
X2576278Y1435712D02*
Y1431337D01*
Y1434462D02*
X2576960Y1435400D01*
X2577414Y1435712*
X2578096*
X2578551Y1435400*
X2578778Y1434462*
Y1431337*
Y1434462D02*
X2579460Y1435400D01*
X2579914Y1435712*
X2580596*
X2581051Y1435400*
X2581278Y1434462*
Y1431337*
X2396078Y1433864D02*
X2285187D01*
X2396078D02*
X2386078Y1431364D01*
Y1436364*
X2396078Y1433864*
X2137160D02*
X2248051D01*
X2137160D02*
X2147160Y1436364D01*
Y1431364*
X2137160Y1433864*
X2396078Y1446091D02*
Y1428864D01*
X2137160Y1446091D02*
Y1428864D01*
X2253778Y1435739D02*
X2253551Y1436364D01*
X2252869Y1436676*
X2252414*
X2251733Y1436364*
X2251278Y1435426*
X2251051Y1433864*
Y1432301*
X2251278Y1431051*
X2251733Y1430426*
X2252414Y1430114*
X2252642*
X2253323Y1430426*
X2253778Y1431051*
X2254005Y1431989*
Y1432301*
X2253778Y1433239*
X2253323Y1433864*
X2252642Y1434176*
X2252414*
X2251733Y1433864*
X2251278Y1433239*
X2251051Y1432301*
X2259005Y1436676D02*
X2256733D01*
X2256505Y1433864*
X2256733Y1434176*
X2257414Y1434489*
X2258096*
X2258778Y1434176*
X2259233Y1433551*
X2259460Y1432614*
X2259233Y1431989*
X2259005Y1431051*
X2258551Y1430426*
X2257869Y1430114*
X2257187*
X2256505Y1430426*
X2256278Y1430739*
X2256051Y1431364*
X2261733Y1430739D02*
X2261505Y1430426D01*
X2261733Y1430114*
X2261960Y1430426*
X2261733Y1430739*
X2265142Y1436676D02*
X2264460Y1436364D01*
X2264233Y1435739*
Y1435114*
X2264460Y1434489*
X2264914Y1434176*
X2265823Y1433864*
X2266505Y1433551*
X2266960Y1432926*
X2267187Y1432301*
Y1431364*
X2266960Y1430739*
X2266733Y1430426*
X2266051Y1430114*
X2265142*
X2264460Y1430426*
X2264233Y1430739*
X2264005Y1431364*
Y1432301*
X2264233Y1432926*
X2264687Y1433551*
X2265369Y1433864*
X2266278Y1434176*
X2266733Y1434489*
X2266960Y1435114*
Y1435739*
X2266733Y1436364*
X2266051Y1436676*
X2265142*
X2269233Y1434489D02*
Y1430114D01*
Y1433239D02*
X2269914Y1434176D01*
X2270369Y1434489*
X2271051*
X2271505Y1434176*
X2271733Y1433239*
Y1430114*
Y1433239D02*
X2272414Y1434176D01*
X2272869Y1434489*
X2273551*
X2274005Y1434176*
X2274233Y1433239*
Y1430114*
X2276278Y1434489D02*
Y1430114D01*
Y1433239D02*
X2276960Y1434176D01*
X2277414Y1434489*
X2278096*
X2278551Y1434176*
X2278778Y1433239*
Y1430114*
Y1433239D02*
X2279460Y1434176D01*
X2279914Y1434489*
X2280596*
X2281051Y1434176*
X2281278Y1433239*
Y1430114*
X2097963Y1432881D02*
X1987072D01*
X2097963D02*
X2087963Y1430381D01*
Y1435381*
X2097963Y1432881*
X1839045D02*
X1949936D01*
X1839045D02*
X1849045Y1435381D01*
Y1430381*
X1839045Y1432881*
X2097963Y1446092D02*
Y1427881D01*
X1839045Y1446091D02*
Y1427881D01*
X1955663Y1434756D02*
X1955436Y1435381D01*
X1954754Y1435694*
X1954299*
X1953618Y1435381*
X1953163Y1434444*
X1952936Y1432881*
Y1431319*
X1953163Y1430069*
X1953618Y1429444*
X1954299Y1429131*
X1954527*
X1955209Y1429444*
X1955663Y1430069*
X1955890Y1431006*
Y1431319*
X1955663Y1432256*
X1955209Y1432881*
X1954527Y1433194*
X1954299*
X1953618Y1432881*
X1953163Y1432256*
X1952936Y1431319*
X1960890Y1435694D02*
X1958618D01*
X1958390Y1432881*
X1958618Y1433194*
X1959299Y1433506*
X1959981*
X1960663Y1433194*
X1961118Y1432569*
X1961345Y1431631*
X1961118Y1431006*
X1960890Y1430069*
X1960436Y1429444*
X1959754Y1429131*
X1959072*
X1958390Y1429444*
X1958163Y1429756*
X1957936Y1430381*
X1963618Y1429756D02*
X1963390Y1429444D01*
X1963618Y1429131*
X1963845Y1429444*
X1963618Y1429756*
X1967027Y1435694D02*
X1966345Y1435381D01*
X1966118Y1434756*
Y1434131*
X1966345Y1433506*
X1966799Y1433194*
X1967709Y1432881*
X1968390Y1432569*
X1968845Y1431944*
X1969072Y1431319*
Y1430381*
X1968845Y1429756*
X1968618Y1429444*
X1967936Y1429131*
X1967027*
X1966345Y1429444*
X1966118Y1429756*
X1965890Y1430381*
Y1431319*
X1966118Y1431944*
X1966572Y1432569*
X1967254Y1432881*
X1968163Y1433194*
X1968618Y1433506*
X1968845Y1434131*
Y1434756*
X1968618Y1435381*
X1967936Y1435694*
X1967027*
X1971118Y1433506D02*
Y1429131D01*
Y1432256D02*
X1971799Y1433194D01*
X1972254Y1433506*
X1972936*
X1973390Y1433194*
X1973618Y1432256*
Y1429131*
Y1432256D02*
X1974299Y1433194D01*
X1974754Y1433506*
X1975436*
X1975890Y1433194*
X1976118Y1432256*
Y1429131*
X1978163Y1433506D02*
Y1429131D01*
Y1432256D02*
X1978845Y1433194D01*
X1979299Y1433506*
X1979981*
X1980436Y1433194*
X1980663Y1432256*
Y1429131*
Y1432256D02*
X1981345Y1433194D01*
X1981799Y1433506*
X1982481*
X1982936Y1433194*
X1983163Y1432256*
Y1429131*
X1817989Y1451091D02*
Y1603987D01*
Y1451091D02*
X1815489Y1461091D01*
X1820489*
X1817989Y1451091*
Y1770383D02*
Y1617487D01*
Y1770383D02*
X1820489Y1760383D01*
X1815489*
X1817989Y1770383*
X1834045Y1451091D02*
X1812989D01*
X1834045Y1770383D02*
X1812989D01*
X1805603Y1613550D02*
X1804921Y1613237D01*
X1804694Y1612612*
Y1611987*
X1804921Y1611362*
X1805375Y1611050*
X1806285Y1610737*
X1806966Y1610425*
X1807421Y1609800*
X1807648Y1609175*
Y1608237*
X1807421Y1607612*
X1807194Y1607300*
X1806512Y1606987*
X1805603*
X1804921Y1607300*
X1804694Y1607612*
X1804466Y1608237*
Y1609175*
X1804694Y1609800*
X1805148Y1610425*
X1805830Y1610737*
X1806739Y1611050*
X1807194Y1611362*
X1807421Y1611987*
Y1612612*
X1807194Y1613237*
X1806512Y1613550*
X1805603*
X1809694Y1612300D02*
X1810148Y1612612D01*
X1810830Y1613550*
Y1606987*
X1813103Y1607612D02*
X1812875Y1607300D01*
X1813103Y1606987*
X1813330Y1607300*
X1813103Y1607612*
X1815375Y1612300D02*
X1815830Y1612612D01*
X1816512Y1613550*
Y1606987*
X1818557Y1611362D02*
Y1606987D01*
Y1610112D02*
X1819239Y1611050D01*
X1819694Y1611362*
X1820375*
X1820830Y1611050*
X1821057Y1610112*
Y1606987*
Y1610112D02*
X1821739Y1611050D01*
X1822194Y1611362*
X1822875*
X1823330Y1611050*
X1823557Y1610112*
Y1606987*
X1825603Y1611362D02*
Y1606987D01*
Y1610112D02*
X1826285Y1611050D01*
X1826739Y1611362*
X1827421*
X1827875Y1611050*
X1828103Y1610112*
Y1606987*
Y1610112D02*
X1828785Y1611050D01*
X1829239Y1611362*
X1829921*
X1830375Y1611050*
X1830603Y1610112*
Y1606987*
X2137160Y2139384D02*
X2248051D01*
X2137160D02*
X2147160Y2141884D01*
Y2136884*
X2137160Y2139384*
X2396078D02*
X2285187D01*
X2396078D02*
X2386078Y2136884D01*
Y2141884*
X2396078Y2139384*
X2137160Y2129661D02*
Y2144384D01*
X2396078Y2129661D02*
Y2144384D01*
X2253778Y2141259D02*
X2253551Y2141884D01*
X2252869Y2142196*
X2252414*
X2251733Y2141884*
X2251278Y2140946*
X2251051Y2139384*
Y2137821*
X2251278Y2136571*
X2251733Y2135946*
X2252414Y2135634*
X2252642*
X2253323Y2135946*
X2253778Y2136571*
X2254005Y2137509*
Y2137821*
X2253778Y2138759*
X2253323Y2139384*
X2252642Y2139696*
X2252414*
X2251733Y2139384*
X2251278Y2138759*
X2251051Y2137821*
X2259005Y2142196D02*
X2256733D01*
X2256505Y2139384*
X2256733Y2139696*
X2257414Y2140009*
X2258096*
X2258778Y2139696*
X2259233Y2139071*
X2259460Y2138134*
X2259233Y2137509*
X2259005Y2136571*
X2258551Y2135946*
X2257869Y2135634*
X2257187*
X2256505Y2135946*
X2256278Y2136259*
X2256051Y2136884*
X2261733Y2136259D02*
X2261505Y2135946D01*
X2261733Y2135634*
X2261960Y2135946*
X2261733Y2136259*
X2265142Y2142196D02*
X2264460Y2141884D01*
X2264233Y2141259*
Y2140634*
X2264460Y2140009*
X2264914Y2139696*
X2265823Y2139384*
X2266505Y2139071*
X2266960Y2138446*
X2267187Y2137821*
Y2136884*
X2266960Y2136259*
X2266733Y2135946*
X2266051Y2135634*
X2265142*
X2264460Y2135946*
X2264233Y2136259*
X2264005Y2136884*
Y2137821*
X2264233Y2138446*
X2264687Y2139071*
X2265369Y2139384*
X2266278Y2139696*
X2266733Y2140009*
X2266960Y2140634*
Y2141259*
X2266733Y2141884*
X2266051Y2142196*
X2265142*
X2269233Y2140009D02*
Y2135634D01*
Y2138759D02*
X2269914Y2139696D01*
X2270369Y2140009*
X2271051*
X2271505Y2139696*
X2271733Y2138759*
Y2135634*
Y2138759D02*
X2272414Y2139696D01*
X2272869Y2140009*
X2273551*
X2274005Y2139696*
X2274233Y2138759*
Y2135634*
X2276278Y2140009D02*
Y2135634D01*
Y2138759D02*
X2276960Y2139696D01*
X2277414Y2140009*
X2278096*
X2278551Y2139696*
X2278778Y2138759*
Y2135634*
Y2138759D02*
X2279460Y2139696D01*
X2279914Y2140009*
X2280596*
X2281051Y2139696*
X2281278Y2138759*
Y2135634*
X2437430Y2173483D02*
X2548321D01*
X2437430D02*
X2447430Y2175983D01*
Y2170983*
X2437430Y2173483*
X2696348D02*
X2585457D01*
X2696348D02*
X2686348Y2170983D01*
Y2175983*
X2696348Y2173483*
X2437430Y2165191D02*
Y2178483D01*
X2696348Y2165191D02*
Y2178483D01*
X2554048Y2175358D02*
X2553821Y2175983D01*
X2553139Y2176296*
X2552684*
X2552003Y2175983*
X2551548Y2175046*
X2551321Y2173483*
Y2171921*
X2551548Y2170671*
X2552003Y2170046*
X2552684Y2169733*
X2552912*
X2553593Y2170046*
X2554048Y2170671*
X2554275Y2171608*
Y2171921*
X2554048Y2172858*
X2553593Y2173483*
X2552912Y2173796*
X2552684*
X2552003Y2173483*
X2551548Y2172858*
X2551321Y2171921*
X2559275Y2176296D02*
X2557003D01*
X2556775Y2173483*
X2557003Y2173796*
X2557684Y2174108*
X2558366*
X2559048Y2173796*
X2559503Y2173171*
X2559730Y2172233*
X2559503Y2171608*
X2559275Y2170671*
X2558821Y2170046*
X2558139Y2169733*
X2557457*
X2556775Y2170046*
X2556548Y2170358*
X2556321Y2170983*
X2562003Y2170358D02*
X2561775Y2170046D01*
X2562003Y2169733*
X2562230Y2170046*
X2562003Y2170358*
X2565412Y2176296D02*
X2564730Y2175983D01*
X2564503Y2175358*
Y2174733*
X2564730Y2174108*
X2565184Y2173796*
X2566093Y2173483*
X2566775Y2173171*
X2567230Y2172546*
X2567457Y2171921*
Y2170983*
X2567230Y2170358*
X2567003Y2170046*
X2566321Y2169733*
X2565412*
X2564730Y2170046*
X2564503Y2170358*
X2564275Y2170983*
Y2171921*
X2564503Y2172546*
X2564957Y2173171*
X2565639Y2173483*
X2566548Y2173796*
X2567003Y2174108*
X2567230Y2174733*
Y2175358*
X2567003Y2175983*
X2566321Y2176296*
X2565412*
X2569503Y2174108D02*
Y2169733D01*
Y2172858D02*
X2570184Y2173796D01*
X2570639Y2174108*
X2571321*
X2571775Y2173796*
X2572003Y2172858*
Y2169733*
Y2172858D02*
X2572684Y2173796D01*
X2573139Y2174108*
X2573821*
X2574275Y2173796*
X2574503Y2172858*
Y2169733*
X2576548Y2174108D02*
Y2169733D01*
Y2172858D02*
X2577230Y2173796D01*
X2577684Y2174108*
X2578366*
X2578821Y2173796*
X2579048Y2172858*
Y2169733*
Y2172858D02*
X2579730Y2173796D01*
X2580184Y2174108*
X2580866*
X2581321Y2173796*
X2581548Y2172858*
Y2169733*
X2716998Y1805369D02*
Y1976030D01*
Y1805369D02*
X2714498Y1815369D01*
X2719498*
X2716998Y1805369*
Y2160191D02*
Y1989530D01*
Y2160191D02*
X2719498Y2150191D01*
X2714498*
X2716998Y2160191*
X2701348Y1805369D02*
X2721998D01*
X2701348Y2160191D02*
X2721998D01*
X2705520Y1983405D02*
X2705293Y1982468D01*
X2704839Y1981843*
X2704157Y1981530*
X2703930*
X2703248Y1981843*
X2702793Y1982468*
X2702566Y1983405*
Y1983718*
X2702793Y1984655*
X2703248Y1985280*
X2703930Y1985593*
X2704157*
X2704839Y1985280*
X2705293Y1984655*
X2705520Y1983405*
Y1981843*
X2705293Y1980280*
X2704839Y1979343*
X2704157Y1979030*
X2703702*
X2703020Y1979343*
X2702793Y1979968*
X2708930Y1985593D02*
X2708248Y1985280D01*
X2707793Y1984343*
X2707566Y1982780*
Y1981843*
X2707793Y1980280*
X2708248Y1979343*
X2708930Y1979030*
X2709384*
X2710066Y1979343*
X2710520Y1980280*
X2710748Y1981843*
Y1982780*
X2710520Y1984343*
X2710066Y1985280*
X2709384Y1985593*
X2708930*
X2713020Y1979655D02*
X2712793Y1979343D01*
X2713020Y1979030*
X2713248Y1979343*
X2713020Y1979655*
X2715293Y1984343D02*
X2715748Y1984655D01*
X2716430Y1985593*
Y1979030*
X2718475Y1983405D02*
Y1979030D01*
Y1982155D02*
X2719157Y1983093D01*
X2719611Y1983405*
X2720293*
X2720748Y1983093*
X2720975Y1982155*
Y1979030*
Y1982155D02*
X2721657Y1983093D01*
X2722111Y1983405*
X2722793*
X2723248Y1983093*
X2723475Y1982155*
Y1979030*
X2725520Y1983405D02*
Y1979030D01*
Y1982155D02*
X2726202Y1983093D01*
X2726657Y1983405*
X2727339*
X2727793Y1983093*
X2728020Y1982155*
Y1979030*
Y1982155D02*
X2728702Y1983093D01*
X2729157Y1983405*
X2729839*
X2730293Y1983093*
X2730520Y1982155*
Y1979030*
X2118572Y1805369D02*
Y1958265D01*
Y1805369D02*
X2116072Y1815369D01*
X2121072*
X2118572Y1805369*
Y2124661D02*
Y1971765D01*
Y2124661D02*
X2121072Y2114661D01*
X2116072*
X2118572Y2124661*
X2132160Y1805369D02*
X2113572D01*
X2132160Y2124661D02*
X2113572D01*
X2106186Y1967827D02*
X2105504Y1967515D01*
X2105277Y1966890*
Y1966265*
X2105504Y1965640*
X2105959Y1965327*
X2106868Y1965015*
X2107550Y1964702*
X2108004Y1964077*
X2108232Y1963452*
Y1962515*
X2108004Y1961890*
X2107777Y1961577*
X2107095Y1961265*
X2106186*
X2105504Y1961577*
X2105277Y1961890*
X2105050Y1962515*
Y1963452*
X2105277Y1964077*
X2105732Y1964702*
X2106413Y1965015*
X2107322Y1965327*
X2107777Y1965640*
X2108004Y1966265*
Y1966890*
X2107777Y1967515*
X2107095Y1967827*
X2106186*
X2110277Y1966577D02*
X2110732Y1966890D01*
X2111413Y1967827*
Y1961265*
X2113686Y1961890D02*
X2113459Y1961577D01*
X2113686Y1961265*
X2113913Y1961577*
X2113686Y1961890*
X2115959Y1966577D02*
X2116413Y1966890D01*
X2117095Y1967827*
Y1961265*
X2119141Y1965640D02*
Y1961265D01*
Y1964390D02*
X2119822Y1965327D01*
X2120277Y1965640*
X2120959*
X2121413Y1965327*
X2121641Y1964390*
Y1961265*
Y1964390D02*
X2122322Y1965327D01*
X2122777Y1965640*
X2123459*
X2123913Y1965327*
X2124141Y1964390*
Y1961265*
X2126186Y1965640D02*
Y1961265D01*
Y1964390D02*
X2126868Y1965327D01*
X2127322Y1965640*
X2128004*
X2128459Y1965327*
X2128686Y1964390*
Y1961265*
Y1964390D02*
X2129368Y1965327D01*
X2129822Y1965640*
X2130504*
X2130959Y1965327*
X2131186Y1964390*
Y1961265*
G54D22*
X2211028Y1691053D02*
G03X2211028I-24409J0D01*
G01X2291028D02*
G03X2291028I-24409J0D01*
G01X2371028D02*
G03X2371028I-24409J0D01*
G01X2211028Y1611053D02*
G03X2211028I-24409J0D01*
G01X2291028D02*
G03X2291028I-24409J0D01*
G01X2371028D02*
G03X2371028I-24409J0D01*
G01X2211028Y1531053D02*
G03X2211028I-24409J0D01*
G01X2291028D02*
G03X2291028I-24409J0D01*
G01X2371028D02*
G03X2371028I-24409J0D01*
G01X1922047Y1574803D02*
G03X1922047I-24409J0D01*
G01X1992913D02*
G03X1992913I-24409J0D01*
G01X2063780D02*
G03X2063780I-24410J0D01*
G54D29*
G01X2656131Y1535421D02*
X2656040Y1535646D01*
X2655859Y1535872*
X2655677Y1535984*
X2655313*
X2655131Y1535872*
X2654950Y1535646*
X2654950D02*
X2654859Y1535421D01*
X2654768Y1535083*
Y1534519*
X2654859Y1534181*
X2654950Y1533956*
X2654950D02*
X2655131Y1533731D01*
X2655313Y1533618*
X2655677*
X2655859Y1533731*
X2656040Y1533956*
X2656131Y1534181*
X2657040Y1535421D02*
Y1535534D01*
X2657131Y1535759*
X2657222Y1535872*
X2657404Y1535984*
X2657768*
X2657950Y1535872*
X2657950D02*
X2658040Y1535759D01*
X2658131Y1535534*
Y1535308*
X2658040Y1535083*
X2657859Y1534745*
X2656950Y1533618*
X2656950D02*
X2658222D01*
X2659495Y1535984D02*
X2659222Y1535872D01*
X2659131Y1535646*
Y1535421*
X2659222Y1535196*
X2659404Y1535083*
X2659768Y1534970*
X2660040Y1534858*
X2660222Y1534632*
X2660313Y1534407*
Y1534069*
X2660222Y1533843*
X2660131Y1533731*
X2659859Y1533618*
X2659495*
X2659222Y1533731*
X2659131Y1533843*
X2659040Y1534069*
Y1534407*
X2659131Y1534632*
X2659313Y1534858*
X2659586Y1534970*
X2659950Y1535083*
X2659950D02*
X2660131Y1535196D01*
X2660222Y1535421*
Y1535646*
X2660131Y1535872*
X2659859Y1535984*
X2659495*
X2654100Y1511437D02*
X2653873Y1511725D01*
X2653532Y1511869*
X2653078*
X2652737Y1511725*
X2652509Y1511437*
Y1511149*
X2652623Y1510861*
X2652737Y1510717*
X2652964Y1510573*
X2653646Y1510285*
X2653873Y1510141*
X2653987Y1509997*
X2654100Y1509709*
Y1509278*
X2653873Y1508990*
X2653532Y1508846*
X2653078*
X2652737Y1508990*
X2652509Y1509278*
X2655123Y1511869D02*
Y1508846D01*
Y1511869D02*
X2656146D01*
X2656487Y1511725*
X2656600Y1511581*
X2656714Y1511293*
Y1511005*
X2656600Y1510717*
X2656487Y1510573*
X2656146Y1510429*
X2655123D02*
X2656146D01*
X2656487Y1510285*
X2656600Y1510141*
X2656714Y1509853*
Y1509422*
X2656600Y1509134*
X2656487Y1508990*
X2656146Y1508846*
X2655123*
X2658532Y1511869D02*
Y1508846D01*
X2657737Y1511869D02*
X2659328D01*
X2660350D02*
Y1508846D01*
Y1511869D02*
X2661941Y1508846D01*
Y1511869D02*
Y1508846D01*
X2664328Y1511437D02*
X2664214Y1511725D01*
X2663873Y1511869*
X2663646*
X2663305Y1511725*
X2663078Y1511293*
X2662964Y1510573*
Y1509853*
X2663078Y1509278*
X2663305Y1508990*
X2663646Y1508846*
X2663759*
X2664100Y1508990*
X2664328Y1509278*
X2664441Y1509709*
Y1509853*
X2664328Y1510285*
X2664100Y1510573*
X2663759Y1510717*
X2663646*
X2663305Y1510573*
X2663078Y1510285*
X2662964Y1509853*
X2655763Y1522346D02*
Y1519979D01*
Y1522346D02*
X2656400D01*
X2656672Y1522233*
X2656854Y1522008*
X2656945Y1521782*
X2657036Y1521444*
Y1520881*
X2656945Y1520543*
X2656854Y1520317*
X2656672Y1520092*
X2656400Y1519979*
X2655763*
X2658945Y1522008D02*
X2658854Y1522233D01*
X2658581Y1522346*
X2658400*
X2658127Y1522233*
X2657945Y1521895*
X2657854Y1521332*
Y1520768*
X2657945Y1520317*
X2658127Y1520092*
X2658400Y1519979*
X2658490*
X2658763Y1520092*
X2658945Y1520317*
X2659036Y1520655*
Y1520768*
X2658945Y1521106*
X2658763Y1521332*
X2658490Y1521444*
X2658400*
X2658127Y1521332*
X2657945Y1521106*
X2657854Y1520768*
X2565508Y1535374D02*
X2565417Y1535600D01*
X2565235Y1535825*
X2565053Y1535938*
X2564690*
X2564508Y1535825*
X2564326Y1535600*
X2564235Y1535374*
X2564144Y1535036*
Y1534473*
X2564235Y1534135*
X2564326Y1533909*
X2564508Y1533684*
X2564690Y1533571*
X2565053*
X2565235Y1533684*
X2565417Y1533909*
X2565508Y1534135*
X2566417Y1535374D02*
Y1535487D01*
X2566508Y1535713*
X2566599Y1535825*
X2566781Y1535938*
X2567144*
X2567326Y1535825*
X2567417Y1535713*
X2567508Y1535487*
Y1535262*
X2567417Y1535036*
X2567235Y1534698*
X2566326Y1533571*
X2567599*
X2569690Y1535938D02*
X2568781Y1533571D01*
X2568417Y1535938D02*
X2569690D01*
X2563563Y1511474D02*
X2563336Y1511762D01*
X2562995Y1511906*
X2562540*
X2562200Y1511762*
X2561972Y1511474*
Y1511186*
X2562086Y1510898*
X2562200Y1510754*
X2562427Y1510610*
X2563109Y1510323*
X2563336Y1510179*
X2563450Y1510035*
X2563563Y1509747*
Y1509315*
X2563336Y1509027*
X2562995Y1508883*
X2562540*
X2562200Y1509027*
X2561972Y1509315*
X2564586Y1511906D02*
Y1508883D01*
Y1511906D02*
X2565609D01*
X2565950Y1511762*
X2566063Y1511618*
X2566177Y1511330*
Y1511042*
X2566063Y1510754*
X2565950Y1510610*
X2565609Y1510466*
X2564586D02*
X2565609D01*
X2565950Y1510323*
X2566063Y1510179*
X2566177Y1509891*
Y1509459*
X2566063Y1509171*
X2565950Y1509027*
X2565609Y1508883*
X2564586*
X2567995Y1511906D02*
Y1508883D01*
X2567200Y1511906D02*
X2568790D01*
X2569813D02*
Y1508883D01*
Y1511906D02*
X2571404Y1508883D01*
Y1511906D02*
Y1508883D01*
X2573904Y1511906D02*
X2572768D01*
X2572654Y1510610*
X2572768Y1510754*
X2573109Y1510898*
X2573450*
X2573790Y1510754*
X2574018Y1510466*
X2574131Y1510035*
X2574018Y1509747*
X2573904Y1509315*
X2573677Y1509027*
X2573336Y1508883*
X2572995*
X2572654Y1509027*
X2572540Y1509171*
X2572427Y1509459*
X2565256Y1522580D02*
Y1520214D01*
Y1522580D02*
X2565892D01*
X2566165Y1522467*
X2566347Y1522242*
X2566438Y1522017*
X2566528Y1521679*
Y1521115*
X2566438Y1520777*
X2566347Y1520552*
X2566165Y1520326*
X2565892Y1520214*
X2565256*
X2568528Y1522580D02*
X2567619D01*
X2567528Y1521566*
X2567619Y1521679*
X2567892Y1521791*
X2568165*
X2568438Y1521679*
X2568619Y1521453*
X2568710Y1521115*
X2568619Y1520890*
X2568528Y1520552*
X2568347Y1520326*
X2568074Y1520214*
X2567801*
X2567528Y1520326*
X2567438Y1520439*
X2567347Y1520664*
X2472502Y1511655D02*
X2472274Y1511943D01*
X2471934Y1512087*
X2471479*
X2471138Y1511943*
X2470911Y1511655*
Y1511367*
X2471024Y1511079*
X2471138Y1510935*
X2471365Y1510791*
X2472047Y1510503*
X2472274Y1510359*
X2472388Y1510215*
X2472388D02*
X2472502Y1509928D01*
Y1509496*
X2472274Y1509208*
X2471934Y1509064*
X2471479*
X2471138Y1509208*
X2470911Y1509496*
X2473524Y1512087D02*
Y1509064D01*
Y1512087D02*
X2474547D01*
X2474888Y1511943*
X2475002Y1511799*
X2475115Y1511511*
Y1511223*
X2475002Y1510935*
X2474888Y1510791*
X2474547Y1510647*
X2473524D02*
X2474547D01*
X2474888Y1510503*
X2475002Y1510359*
X2475115Y1510072*
Y1509640*
X2475002Y1509352*
X2474888Y1509208*
X2474547Y1509064*
X2473524*
X2476934Y1512087D02*
Y1509064D01*
X2476138Y1512087D02*
X2477729D01*
X2478752D02*
Y1509064D01*
Y1512087D02*
X2480343Y1509064D01*
Y1512087D02*
Y1509064D01*
X2482502Y1512087D02*
X2481365Y1510072D01*
X2483070*
X2482502Y1512087D02*
Y1509064D01*
X2474918Y1522879D02*
Y1520513D01*
Y1522879D02*
X2475555D01*
X2475827Y1522766*
X2476009Y1522541*
X2476100Y1522316*
X2476191Y1521978*
Y1521414*
X2476100Y1521076*
X2476009Y1520851*
X2475827Y1520625*
X2475555Y1520513*
X2474918*
X2477918Y1522879D02*
X2477009Y1521301D01*
X2478373*
X2477918Y1522879D02*
Y1520513D01*
X2475119Y1535262D02*
X2475028Y1535488D01*
X2474846Y1535713*
X2474665Y1535826*
X2474665D02*
X2474301D01*
X2474119Y1535713*
X2473937Y1535488*
X2473846Y1535262*
X2473755Y1534924*
Y1534361*
X2473846Y1534022*
X2473846D02*
X2473937Y1533797D01*
X2474119Y1533572*
X2474301Y1533459*
X2474665*
X2474665D02*
X2474846Y1533572D01*
X2475028Y1533797*
X2475119Y1534022*
X2476028Y1535262D02*
Y1535375D01*
X2476119Y1535600*
X2476210Y1535713*
X2476392Y1535826*
X2476755*
X2476937Y1535713*
X2477028Y1535600*
X2477119Y1535375*
Y1535149*
X2477028Y1534924*
X2476846Y1534586*
X2475937Y1533459*
X2477210*
X2479119Y1535488D02*
X2479028Y1535713D01*
X2478755Y1535826*
X2478574*
X2478301Y1535713*
X2478119Y1535375*
X2478028Y1534811*
Y1534248*
X2478119Y1533797*
X2478301Y1533572*
X2478574Y1533459*
X2478665*
X2478665D02*
X2478937Y1533572D01*
X2479119Y1533797*
X2479210Y1534135*
Y1534248*
X2479119Y1534586*
X2478937Y1534811*
X2478665Y1534924*
X2478665D02*
X2478574D01*
X2478301Y1534811*
X2478119Y1534586*
X2478028Y1534248*
X2474340Y1692140D02*
Y1689774D01*
Y1692140D02*
X2474976D01*
X2475249Y1692027*
X2475431Y1691802*
X2475522Y1691577*
X2475613Y1691239*
Y1690675*
X2475522Y1690337*
X2475431Y1690112*
X2475249Y1689886*
X2474976Y1689774*
X2474340*
X2476431Y1691689D02*
X2476613Y1691802D01*
X2476885Y1692140*
Y1689774*
X2565522Y1692116D02*
Y1689749D01*
Y1692116D02*
X2566158D01*
X2566431Y1692003*
X2566613Y1691778*
X2566704Y1691552*
X2566794Y1691214*
Y1690651*
X2566704Y1690312*
X2566613Y1690087*
X2566431Y1689862*
X2566158Y1689749*
X2565522*
X2567704Y1691552D02*
Y1691665D01*
X2567794Y1691890*
X2567885Y1692003*
X2568067Y1692116*
X2568431*
X2568613Y1692003*
X2568704Y1691890*
X2568794Y1691665*
Y1691439*
X2568704Y1691214*
X2568522Y1690876*
X2567613Y1689749*
X2568885*
X2656040Y1692361D02*
Y1689994D01*
Y1692361D02*
X2656677D01*
X2656949Y1692248*
X2657131Y1692022*
X2657222Y1691797*
X2657313Y1691459*
Y1690895*
X2657222Y1690557*
X2657131Y1690332*
X2656949Y1690107*
X2656677Y1689994*
X2656040*
X2658313Y1692361D02*
X2659313D01*
X2658768Y1691459*
X2659040*
X2659222Y1691346*
X2659313Y1691234*
X2659404Y1690895*
Y1690670*
X2659313Y1690332*
X2659131Y1690107*
X2658858Y1689994*
X2658586*
X2658313Y1690107*
X2658222Y1690219*
X2658131Y1690445*
X2475305Y1704485D02*
X2475214Y1704711D01*
X2475032Y1704936*
X2474850Y1705049*
X2474487*
X2474305Y1704936*
X2474123Y1704711*
X2474032Y1704485*
X2473941Y1704147*
Y1703584*
X2474032Y1703246*
X2474123Y1703020*
X2474305Y1702795*
X2474487Y1702682*
X2474850*
X2475032Y1702795*
X2475214Y1703020*
X2475305Y1703246*
X2476214Y1704485D02*
Y1704598D01*
X2476305Y1704823*
X2476396Y1704936*
X2476578Y1705049*
X2476941*
X2477123Y1704936*
X2477214Y1704823*
X2477305Y1704598*
Y1704373*
X2477214Y1704147*
X2477032Y1703809*
X2476123Y1702682*
X2477396*
X2478396Y1705049D02*
X2479396D01*
X2478850Y1704147*
X2479123*
X2479305Y1704034*
X2479396Y1703922*
X2479487Y1703584*
Y1703358*
X2479396Y1703020*
X2479214Y1702795*
X2478941Y1702682*
X2478669*
X2478396Y1702795*
X2478305Y1702907*
X2478214Y1703133*
X2565584Y1704542D02*
X2565493Y1704768D01*
X2565311Y1704993*
X2565129Y1705106*
X2564766*
X2564584Y1704993*
X2564402Y1704768*
X2564311Y1704542*
X2564220Y1704204*
Y1703641*
X2564311Y1703303*
X2564402Y1703077*
X2564584Y1702852*
X2564766Y1702739*
X2565129*
X2565311Y1702852*
X2565493Y1703077*
X2565584Y1703303*
X2566493Y1704542D02*
Y1704655D01*
X2566584Y1704880*
X2566675Y1704993*
X2566857Y1705106*
X2567220*
X2567402Y1704993*
X2567493Y1704880*
X2567584Y1704655*
Y1704430*
X2567493Y1704204*
X2567311Y1703866*
X2566402Y1702739*
X2567675*
X2569402Y1705106D02*
X2568493Y1703528D01*
X2569857*
X2569402Y1705106D02*
Y1702739D01*
X2656035Y1704339D02*
X2655944Y1704565D01*
X2655762Y1704790*
X2655581Y1704903*
X2655217*
X2655035Y1704790*
X2654853Y1704565*
X2654762Y1704339*
X2654671Y1704001*
Y1703438*
X2654762Y1703100*
X2654853Y1702874*
X2655035Y1702649*
X2655217Y1702536*
X2655581*
X2655762Y1702649*
X2655944Y1702874*
X2656035Y1703100*
X2656944Y1704339D02*
Y1704452D01*
X2657035Y1704677*
X2657126Y1704790*
X2657308Y1704903*
X2657671*
X2657853Y1704790*
X2657944Y1704677*
X2658035Y1704452*
Y1704227*
X2657944Y1704001*
X2657762Y1703663*
X2656853Y1702536*
X2658126*
X2660126Y1704903D02*
X2659217D01*
X2659126Y1703888*
X2659217Y1704001*
X2659490Y1704114*
X2659762*
X2660035Y1704001*
X2660217Y1703776*
X2660308Y1703438*
X2660217Y1703212*
X2660126Y1702874*
X2659944Y1702649*
X2659671Y1702536*
X2659399*
X2659126Y1702649*
X2659035Y1702761*
X2658944Y1702987*
X2163963Y1467857D02*
Y1470224D01*
X2162690Y1467857D02*
Y1470224D01*
X2163963Y1468984D02*
X2162690D01*
X2161872Y1468308D02*
X2161690Y1468195D01*
X2161418Y1467857*
Y1470224*
X2160054Y1467857D02*
X2160327Y1467970D01*
X2160509Y1468308*
X2160599Y1468872*
Y1469210*
X2160509Y1469773*
X2160327Y1470111*
X2160054Y1470224*
X2159872*
X2159599Y1470111*
X2159418Y1469773*
X2159327Y1469210*
Y1468872*
X2159418Y1468308*
X2159599Y1467970*
X2159872Y1467857*
X2160054*
X2368881Y1748489D02*
Y1750856D01*
X2367608Y1748489D02*
Y1750856D01*
X2368881Y1749616D02*
X2367608D01*
X2366790Y1748940D02*
X2366608Y1748827D01*
X2366336Y1748489*
Y1750856*
X2365517Y1748940D02*
X2365336Y1748827D01*
X2365063Y1748489*
Y1750856*
X2368881Y1467857D02*
Y1470224D01*
X2367608Y1467857D02*
Y1470224D01*
X2368881Y1468984D02*
X2367608D01*
X2366790Y1468308D02*
X2366608Y1468195D01*
X2366336Y1467857*
Y1470224*
X2365427Y1468421D02*
Y1468308D01*
X2365336Y1468083*
X2365245Y1467970*
X2365063Y1467857*
X2364699*
X2364517Y1467970*
X2364427Y1468083*
X2364336Y1468308*
Y1468534*
X2364427Y1468759*
X2364608Y1469097*
X2365517Y1470224*
X2364245*
X1865848Y1467858D02*
Y1470224D01*
X1864575Y1467858D02*
Y1470224D01*
X1865848Y1468985D02*
X1864575D01*
X1863757Y1468308D02*
X1863575Y1468196D01*
X1863303Y1467858*
Y1470224*
X1862303Y1467858D02*
X1861303D01*
X1861848Y1468759*
X1861575*
X1861394Y1468872*
X1861303Y1468985*
X1861212Y1469323*
Y1469548*
X1861303Y1469886*
X1861484Y1470112*
X1861757Y1470224*
X1862030*
X1862303Y1470112*
X1862394Y1469999*
X1862484Y1469774*
X1865848Y1748490D02*
Y1750856D01*
X1864575Y1748490D02*
Y1750856D01*
X1865848Y1749617D02*
X1864575D01*
X1863757Y1748940D02*
X1863575Y1748828D01*
X1863303Y1748490*
Y1750856*
X1861575Y1748490D02*
X1862484Y1750067D01*
X1861121*
X1861575Y1748490D02*
Y1750856D01*
X2070766Y1748490D02*
Y1750856D01*
X2069493Y1748490D02*
Y1750856D01*
X2070766Y1749617D02*
X2069493D01*
X2068675Y1748940D02*
X2068493Y1748828D01*
X2068221Y1748490*
Y1750856*
X2066221Y1748490D02*
X2067130D01*
X2067221Y1749504*
X2067130Y1749391*
X2066857Y1749279*
X2066584*
X2066312Y1749391*
X2066130Y1749617*
X2066039Y1749955*
X2066130Y1750180*
X2066221Y1750518*
X2066402Y1750744*
X2066675Y1750856*
X2066948*
X2067221Y1750744*
X2067312Y1750631*
X2067402Y1750406*
X2070766Y1467858D02*
Y1470224D01*
X2069493Y1467858D02*
Y1470224D01*
X2070766Y1468985D02*
X2069493D01*
X2068675Y1468308D02*
X2068493Y1468196D01*
X2068221Y1467858*
Y1470224*
X2066312Y1468196D02*
X2066402Y1467970D01*
X2066675Y1467858*
X2066857*
X2067130Y1467970*
X2067312Y1468308*
X2067402Y1468872*
Y1469435*
X2067312Y1469886*
X2067130Y1470112*
X2066857Y1470224*
X2066766*
X2066493Y1470112*
X2066312Y1469886*
X2066221Y1469548*
Y1469435*
X2066312Y1469097*
X2066493Y1468872*
X2066766Y1468759*
X2066857*
X2067130Y1468872*
X2067312Y1469097*
X2067402Y1469435*
X2163963Y1748489D02*
Y1750856D01*
X2162690Y1748489D02*
Y1750856D01*
X2163963Y1749616D02*
X2162690D01*
X2160690Y1749278D02*
X2160781Y1749616D01*
X2160963Y1749842*
X2161236Y1749954*
X2161327*
X2161599Y1749842*
X2161781Y1749616*
X2161872Y1749278*
Y1749166*
X2161781Y1748827*
X2161599Y1748602*
X2161327Y1748489*
X2161236*
X2160963Y1748602*
X2160781Y1748827*
X2160690Y1749278*
Y1749842*
X2160781Y1750405*
X2160963Y1750743*
X2161236Y1750856*
X2161418*
X2161690Y1750743*
X2161781Y1750518*
X2182462Y1663169D02*
Y1660147D01*
Y1663169D02*
X2183484D01*
X2183825Y1663025*
X2183939Y1662882*
X2184053Y1662594*
Y1662306*
X2183939Y1662018*
X2183825Y1661874*
X2183484Y1661730*
X2182462D02*
X2183484D01*
X2183825Y1661586*
X2183939Y1661442*
X2184053Y1661154*
Y1660722*
X2183939Y1660434*
X2183825Y1660291*
X2183825D02*
X2183484Y1660147D01*
X2182462*
X2185075Y1663169D02*
Y1660147D01*
Y1663169D02*
X2186666Y1660147D01*
Y1663169D02*
Y1660147D01*
X2188484Y1663169D02*
Y1660147D01*
X2187689Y1663169D02*
X2189280D01*
X2190303Y1662594D02*
X2190530Y1662738D01*
X2190871Y1663169*
Y1660147*
X2262425Y1663478D02*
Y1660455D01*
Y1663478D02*
X2263447D01*
X2263788Y1663334*
X2263902Y1663190*
X2264016Y1662902*
Y1662614*
X2263902Y1662326*
X2263788Y1662182*
X2263447Y1662038*
X2262425D02*
X2263447D01*
X2263788Y1661894*
X2263902Y1661750*
X2264016Y1661463*
Y1661031*
X2263902Y1660743*
X2263788Y1660599*
X2263447Y1660455*
X2262425*
X2265038Y1663478D02*
Y1660455D01*
Y1663478D02*
X2266629Y1660455D01*
Y1663478D02*
Y1660455D01*
X2268447Y1663478D02*
Y1660455D01*
X2267652Y1663478D02*
X2269243D01*
X2270379Y1662758D02*
Y1662902D01*
X2270493Y1663190*
X2270607Y1663334*
X2270607D02*
X2270834Y1663478D01*
X2271288*
X2271516Y1663334*
X2271629Y1663190*
X2271743Y1662902*
Y1662614*
X2271629Y1662326*
X2271402Y1661894*
X2270266Y1660455*
X2271857*
X2342800Y1663445D02*
Y1660423D01*
Y1663445D02*
X2343823D01*
X2344163Y1663302*
X2344277Y1663158*
X2344391Y1662870*
Y1662582*
X2344277Y1662294*
X2344163Y1662150*
X2343823Y1662006*
X2342800D02*
X2343823D01*
X2344163Y1661862*
X2344277Y1661718*
X2344391Y1661430*
Y1660998*
X2344277Y1660710*
X2344163Y1660567*
X2343823Y1660423*
X2342800*
X2345413Y1663445D02*
Y1660423D01*
Y1663445D02*
X2347004Y1660423D01*
Y1663445D02*
Y1660423D01*
X2348823Y1663445D02*
Y1660423D01*
X2348027Y1663445D02*
X2349618D01*
X2350868D02*
X2352118D01*
X2351436Y1662294*
X2351777*
X2352004Y1662150*
X2352118Y1662006*
X2352232Y1661574*
Y1661286*
X2352118Y1660854*
X2351891Y1660567*
X2351550Y1660423*
X2351209*
X2350868Y1660567*
X2350754Y1660710*
X2350641Y1660998*
X2182419Y1583608D02*
Y1580585D01*
Y1583608D02*
X2183442D01*
X2183783Y1583464*
X2183896Y1583320*
X2184010Y1583032*
Y1582744*
X2183896Y1582456*
X2183783Y1582312*
X2183442Y1582168*
X2182419D02*
X2183442D01*
X2183783Y1582024*
X2183896Y1581880*
X2184010Y1581592*
Y1581160*
X2183896Y1580873*
X2183783Y1580729*
X2183442Y1580585*
X2182419*
X2185033Y1583608D02*
Y1580585D01*
Y1583608D02*
X2186624Y1580585D01*
Y1583608D02*
Y1580585D01*
X2188442Y1583608D02*
Y1580585D01*
X2187646Y1583608D02*
X2189237D01*
X2191396D02*
X2190260Y1581592D01*
X2191964*
X2191396Y1583608D02*
Y1580585D01*
X2262453Y1583753D02*
Y1580730D01*
Y1583753D02*
X2263475D01*
X2263816Y1583609*
X2263930Y1583465*
X2264044Y1583178*
Y1582890*
X2263930Y1582602*
X2263816Y1582458*
X2263475Y1582314*
X2262453D02*
X2263475D01*
X2263816Y1582170*
X2263930Y1582026*
X2264044Y1581738*
Y1581306*
X2263930Y1581018*
X2263816Y1580874*
X2263475Y1580730*
X2262453*
X2265066Y1583753D02*
Y1580730D01*
Y1583753D02*
X2266657Y1580730D01*
Y1583753D02*
Y1580730D01*
X2268475Y1583753D02*
Y1580730D01*
X2267680Y1583753D02*
X2269271D01*
X2271771D02*
X2270635D01*
X2270521Y1582458*
X2270635Y1582602*
X2270975Y1582746*
X2271316*
X2271657Y1582602*
X2271885Y1582314*
X2271998Y1581882*
X2271885Y1581594*
X2271771Y1581162*
X2271544Y1580874*
X2271203Y1580730*
X2270862*
X2270521Y1580874*
X2270407Y1581018*
X2270294Y1581306*
X2342069Y1583687D02*
Y1580664D01*
Y1583687D02*
X2343091D01*
X2343432Y1583543*
X2343546Y1583399*
X2343660Y1583111*
Y1582823*
X2343546Y1582536*
X2343432Y1582392*
X2343091Y1582248*
X2342069D02*
X2343091D01*
X2343432Y1582104*
X2343546Y1581960*
X2343660Y1581672*
Y1581240*
X2343546Y1580952*
X2343432Y1580808*
X2343091Y1580664*
X2342069*
X2344682Y1583687D02*
Y1580664D01*
Y1583687D02*
X2346273Y1580664D01*
Y1583687D02*
Y1580664D01*
X2348091Y1583687D02*
Y1580664D01*
X2347296Y1583687D02*
X2348887D01*
X2351273Y1583255D02*
X2351160Y1583543D01*
X2350819Y1583687*
X2350591*
X2350250Y1583543*
X2350023Y1583111*
X2349910Y1582392*
Y1581672*
X2350023Y1581096*
X2350250Y1580808*
X2350591Y1580664*
X2350705*
X2351046Y1580808*
X2351273Y1581096*
X2351387Y1581528*
Y1581672*
X2351273Y1582104*
X2351046Y1582392*
X2350705Y1582536*
X2350591*
X2350250Y1582392*
X2350023Y1582104*
X2349910Y1581672*
X2182454Y1503313D02*
Y1500290D01*
Y1503313D02*
X2183477D01*
X2183818Y1503169*
X2183932Y1503025*
X2184045Y1502737*
Y1502449*
X2183932Y1502161*
X2183818Y1502017*
X2183477Y1501873*
X2182454D02*
X2183477D01*
X2183818Y1501729*
X2183932Y1501585*
X2184045Y1501297*
Y1500866*
X2184045D02*
X2183932Y1500578D01*
X2183818Y1500434*
X2183477Y1500290*
X2182454*
X2185068Y1503313D02*
Y1500290D01*
Y1503313D02*
X2186659Y1500290D01*
Y1503313D02*
Y1500290D01*
X2188477Y1503313D02*
Y1500290D01*
X2187682Y1503313D02*
X2189272D01*
X2191886D02*
X2190750Y1500290D01*
X2190295Y1503313D02*
X2191886D01*
X2262303Y1503586D02*
Y1500563D01*
Y1503586D02*
X2263326D01*
X2263667Y1503442*
X2263780Y1503298*
X2263894Y1503010*
Y1502722*
X2263780Y1502434*
X2263667Y1502290*
X2263326Y1502146*
X2262303D02*
X2263326D01*
X2263667Y1502002*
X2263780Y1501858*
X2263894Y1501571*
Y1501139*
X2263780Y1500851*
X2263667Y1500707*
X2263326Y1500563*
X2262303*
X2264917Y1503586D02*
Y1500563D01*
Y1503586D02*
X2266508Y1500563D01*
Y1503586D02*
Y1500563D01*
X2268326Y1503586D02*
Y1500563D01*
X2267530Y1503586D02*
X2269121D01*
X2270712D02*
X2270371Y1503442D01*
X2270258Y1503154*
Y1502866*
X2270371Y1502578*
X2270599Y1502434*
X2271053Y1502290*
X2271394Y1502146*
X2271621Y1501858*
X2271735Y1501571*
Y1501139*
X2271621Y1500851*
X2271508Y1500707*
X2271167Y1500563*
X2270712*
X2270371Y1500707*
X2270258Y1500851*
X2270144Y1501139*
Y1501571*
X2270258Y1501858*
X2270485Y1502146*
X2270826Y1502290*
X2271280Y1502434*
X2271508Y1502578*
X2271621Y1502866*
Y1503154*
X2271508Y1503442*
X2271167Y1503586*
X2270712*
X2342307Y1503127D02*
Y1500105D01*
Y1503127D02*
X2343329D01*
X2343670Y1502983*
X2343784Y1502840*
X2343897Y1502552*
Y1502264*
X2343784Y1501976*
X2343670Y1501832*
X2343329Y1501688*
X2342307D02*
X2343329D01*
X2343670Y1501544*
X2343784Y1501400*
X2343897Y1501112*
Y1500680*
X2343784Y1500392*
X2343670Y1500248*
X2343329Y1500105*
X2342307*
X2344920Y1503127D02*
Y1500105D01*
Y1503127D02*
X2346511Y1500105D01*
Y1503127D02*
Y1500105D01*
X2348329Y1503127D02*
Y1500105D01*
X2347534Y1503127D02*
X2349125D01*
X2351625Y1502120D02*
X2351511Y1501688D01*
X2351284Y1501400*
X2350943Y1501256*
X2350829*
X2350488Y1501400*
X2350261Y1501688*
X2350147Y1502120*
Y1502264*
X2350261Y1502696*
X2350488Y1502983*
X2350829Y1503127*
X2350943*
X2351284Y1502983*
X2351511Y1502696*
X2351625Y1502120*
Y1501400*
X2351511Y1500680*
X2351284Y1500248*
X2350943Y1500105*
X2350716*
X2350375Y1500248*
X2350261Y1500536*
X2473333Y1681309D02*
X2473106Y1681597D01*
X2472765Y1681741*
X2472310*
X2471969Y1681597*
X2471742Y1681309*
Y1681021*
X2471856Y1680733*
X2471969Y1680589*
X2472197Y1680445*
X2472878Y1680157*
X2473106Y1680013*
X2473219Y1679869*
X2473333Y1679581*
Y1679150*
X2473106Y1678862*
X2472765Y1678718*
X2472310*
X2471969Y1678862*
X2471742Y1679150*
X2474356Y1681741D02*
Y1678718D01*
Y1681741D02*
X2475378D01*
X2475719Y1681597*
X2475833Y1681453*
X2475947Y1681165*
Y1680877*
X2475833Y1680589*
X2475719Y1680445*
X2475378Y1680301*
X2474356D02*
X2475378D01*
X2475719Y1680157*
X2475833Y1680013*
X2475947Y1679725*
Y1679293*
X2475833Y1679006*
X2475719Y1678862*
X2475378Y1678718*
X2474356*
X2477765Y1681741D02*
Y1678718D01*
X2476969Y1681741D02*
X2478560D01*
X2479583D02*
Y1678718D01*
Y1681741D02*
X2481174Y1678718D01*
Y1681741D02*
Y1678718D01*
X2482197Y1681165D02*
X2482424Y1681309D01*
X2482765Y1681741*
Y1678718*
X2563452Y1680953D02*
X2563225Y1681241D01*
X2562884Y1681385*
X2562429*
X2562088Y1681241*
X2561861Y1680953*
Y1680665*
X2561975Y1680377*
X2562088Y1680233*
X2562316Y1680089*
X2562997Y1679801*
X2563225Y1679657*
X2563338Y1679513*
X2563452Y1679225*
Y1678794*
X2563225Y1678506*
X2562884Y1678362*
X2562429*
X2562088Y1678506*
X2561861Y1678794*
X2564475Y1681385D02*
Y1678362D01*
Y1681385D02*
X2565497D01*
X2565838Y1681241*
X2565952Y1681097*
X2566066Y1680809*
Y1680521*
X2565952Y1680233*
X2565838Y1680089*
X2565497Y1679945*
X2564475D02*
X2565497D01*
X2565838Y1679801*
X2565952Y1679657*
X2566066Y1679369*
Y1678938*
X2565952Y1678650*
X2565838Y1678506*
X2565497Y1678362*
X2564475*
X2567884Y1681385D02*
Y1678362D01*
X2567088Y1681385D02*
X2568679D01*
X2569702D02*
Y1678362D01*
Y1681385D02*
X2571293Y1678362D01*
Y1681385D02*
Y1678362D01*
X2572429Y1680665D02*
Y1680809D01*
X2572543Y1681097*
X2572657Y1681241*
X2572884Y1681385*
X2573338*
X2573566Y1681241*
X2573679Y1681097*
X2573793Y1680809*
Y1680521*
X2573679Y1680233*
X2573452Y1679801*
X2572316Y1678362*
X2573907*
X2654137Y1681222D02*
X2653910Y1681510D01*
X2653569Y1681654*
X2653114*
X2652773Y1681510*
X2652546Y1681222*
Y1680934*
X2652660Y1680647*
X2652773Y1680503*
X2653001Y1680359*
X2653682Y1680071*
X2653910Y1679927*
X2654023Y1679783*
X2654137Y1679495*
Y1679063*
X2653910Y1678775*
X2653569Y1678631*
X2653114*
X2652773Y1678775*
X2652546Y1679063*
X2655160Y1681654D02*
Y1678631D01*
Y1681654D02*
X2656182D01*
X2656523Y1681510*
X2656637Y1681366*
X2656751Y1681078*
Y1680791*
X2656637Y1680503*
X2656523Y1680359*
X2656182Y1680215*
X2655160D02*
X2656182D01*
X2656523Y1680071*
X2656637Y1679927*
X2656751Y1679639*
Y1679207*
X2656637Y1678919*
X2656523Y1678775*
X2656182Y1678631*
X2655160*
X2658569Y1681654D02*
Y1678631D01*
X2657773Y1681654D02*
X2659364D01*
X2660387D02*
Y1678631D01*
Y1681654D02*
X2661978Y1678631D01*
Y1681654D02*
Y1678631D01*
X2663228Y1681654D02*
X2664478D01*
X2663796Y1680503*
X2664137*
X2664364Y1680359*
X2664478Y1680215*
X2664592Y1679783*
Y1679495*
X2664478Y1679063*
X2664251Y1678775*
X2663910Y1678631*
X2663569*
X2663228Y1678775*
X2663114Y1678919*
X2663001Y1679207*
X1895546Y1545679D02*
Y1542656D01*
X1894750Y1545679D02*
X1896341D01*
X1897364D02*
Y1542656D01*
Y1545679D02*
X1898387D01*
X1898727Y1545535*
X1898841Y1545391*
X1898955Y1545103*
Y1544672*
X1898841Y1544384*
X1898727Y1544240*
X1898387Y1544096*
X1897364*
X1899977Y1545103D02*
X1900205Y1545247D01*
X1900546Y1545679*
Y1542656*
X1966712Y1545564D02*
Y1542541D01*
X1965917Y1545564D02*
X1967508D01*
X1968530D02*
Y1542541D01*
Y1545564D02*
X1969553D01*
X1969894Y1545420*
X1970008Y1545276*
X1970121Y1544988*
Y1544557*
X1970008Y1544269*
X1969894Y1544125*
X1969553Y1543981*
X1968530*
X1971258Y1544845D02*
Y1544988D01*
X1971371Y1545276*
X1971485Y1545420*
X1971712Y1545564*
X1972167*
X1972394Y1545420*
X1972508Y1545276*
X1972621Y1544988*
Y1544701*
X1972508Y1544413*
X1972280Y1543981*
X1971144Y1542541*
X1972735*
X2038048Y1545606D02*
Y1542583D01*
X2037253Y1545606D02*
X2038844D01*
X2039867D02*
Y1542583D01*
Y1545606D02*
X2040889D01*
X2041230Y1545462*
X2041344Y1545318*
X2041457Y1545030*
Y1544598*
X2041344Y1544310*
X2041230Y1544167*
X2040889Y1544023*
X2039867*
X2042707Y1545606D02*
X2043957D01*
X2043276Y1544454*
X2043617*
X2043844Y1544310*
X2043957Y1544167*
X2044071Y1543735*
Y1543447*
X2043957Y1543015*
X2043730Y1542727*
X2043389Y1542583*
X2043048*
X2042707Y1542727*
X2042594Y1542871*
X2042480Y1543159*
X2221767Y2020551D02*
Y2017528D01*
X2220971Y2020551D02*
X2222562D01*
X2224948Y2020119D02*
X2224835Y2020407D01*
X2224494Y2020551*
X2224267*
X2223926Y2020407*
X2223698Y2019975*
X2223585Y2019255*
Y2018535*
X2223698Y2017960*
X2223926Y2017672*
X2224267Y2017528*
X2224380*
X2224721Y2017672*
X2224948Y2017960*
X2225062Y2018391*
Y2018535*
X2224948Y2018967*
X2224721Y2019255*
X2224380Y2019399*
X2224267*
X2223926Y2019255*
X2223698Y2018967*
X2223585Y2018535*
X2228130Y2021126D02*
X2226085Y2016520D01*
X2229153Y2020551D02*
Y2017528D01*
X2230858Y2020551D02*
X2230630Y2020407D01*
X2230403Y2020119*
X2230289Y2019831*
X2230176Y2019399*
Y2018679*
X2230289Y2018247*
X2230403Y2017960*
X2230630Y2017672*
X2230858Y2017528*
X2231312*
X2231539Y2017672*
X2231767Y2017960*
X2231880Y2018247*
X2231994Y2018679*
Y2019399*
X2231880Y2019831*
X2231767Y2020119*
X2231539Y2020407*
X2231312Y2020551*
X2230858*
X2233017Y2019975D02*
X2233244Y2020119D01*
X2233585Y2020551*
Y2017528*
X2235744Y2020551D02*
X2234608Y2018535D01*
X2236312*
X2235744Y2020551D02*
Y2017528D01*
X2270710Y2030551D02*
Y2027528D01*
X2269914Y2030551D02*
X2271505D01*
X2274005D02*
X2272869D01*
X2272755Y2029255*
X2272869Y2029399*
X2273210Y2029543*
X2273551*
X2273892Y2029399*
X2274119Y2029111*
X2274233Y2028679*
X2274119Y2028391*
X2274005Y2027960*
X2273778Y2027672*
X2273437Y2027528*
X2273096*
X2272755Y2027672*
X2272642Y2027816*
X2272528Y2028103*
X2277301Y2031126D02*
X2275255Y2026520D01*
X2278323Y2030551D02*
Y2027528D01*
X2280028Y2030551D02*
X2279801Y2030407D01*
X2279573Y2030119*
X2279460Y2029831*
X2279346Y2029399*
Y2028679*
X2279460Y2028247*
X2279573Y2027960*
X2279801Y2027672*
X2280028Y2027528*
X2280483*
X2280710Y2027672*
X2280937Y2027960*
X2281051Y2028247*
X2281164Y2028679*
Y2029399*
X2281051Y2029831*
X2280937Y2030119*
X2280710Y2030407*
X2280483Y2030551*
X2280028*
X2282187Y2029975D02*
X2282414Y2030119D01*
X2282755Y2030551*
Y2027528*
X2283892Y2029831D02*
Y2029975D01*
X2284005Y2030263*
X2284119Y2030407*
X2284346Y2030551*
X2284801*
X2285028Y2030407*
X2285142Y2030263*
X2285255Y2029975*
Y2029687*
X2285142Y2029399*
X2284914Y2028967*
X2283778Y2027528*
X2285369*
X2314710Y2007551D02*
Y2004528D01*
X2313914Y2007551D02*
X2315505D01*
X2317664D02*
X2316528Y2005535D01*
X2318233*
X2317664Y2007551D02*
Y2004528D01*
X2321301Y2008126D02*
X2319255Y2003520D01*
X2322323Y2007551D02*
Y2004528D01*
X2324028Y2007551D02*
X2323801Y2007407D01*
X2323573Y2007119*
X2323460Y2006831*
X2323346Y2006399*
Y2005679*
X2323460Y2005247*
X2323573Y2004960*
X2323801Y2004672*
X2324028Y2004528*
X2324483*
X2324710Y2004672*
X2324937Y2004960*
X2325051Y2005247*
X2325164Y2005679*
Y2006399*
X2325051Y2006831*
X2324937Y2007119*
X2324710Y2007407*
X2324483Y2007551*
X2324028*
X2326187Y2006975D02*
X2326414Y2007119D01*
X2326755Y2007551*
Y2004528*
X2328005Y2007551D02*
X2329255D01*
X2328573Y2006399*
X2328914*
X2329142Y2006255*
X2329255Y2006111*
X2329369Y2005679*
Y2005391*
X2329255Y2004960*
X2329028Y2004672*
X2328687Y2004528*
X2328346*
X2328005Y2004672*
X2327892Y2004816*
X2327778Y2005103*
X2332710Y1957551D02*
Y1954528D01*
X2331914Y1957551D02*
X2333505D01*
X2334755D02*
X2336005D01*
X2335323Y1956399*
X2335664*
X2335892Y1956255*
X2336005Y1956111*
X2336119Y1955679*
Y1955391*
X2336005Y1954960*
X2335778Y1954672*
X2335437Y1954528*
X2335096*
X2334755Y1954672*
X2334642Y1954816*
X2334528Y1955103*
X2339187Y1958126D02*
X2337142Y1953520D01*
X2340210Y1957551D02*
Y1954528D01*
X2341914Y1957551D02*
X2341687Y1957407D01*
X2341460Y1957119*
X2341346Y1956831*
X2341233Y1956399*
Y1955679*
X2341346Y1955247*
X2341460Y1954960*
X2341687Y1954672*
X2341914Y1954528*
X2342369*
X2342596Y1954672*
X2342823Y1954960*
X2342937Y1955247*
X2343051Y1955679*
Y1956399*
X2342937Y1956831*
X2342823Y1957119*
X2342596Y1957407*
X2342369Y1957551*
X2341914*
X2344073Y1956975D02*
X2344301Y1957119D01*
X2344642Y1957551*
Y1954528*
X2347142Y1957551D02*
X2346005D01*
X2345892Y1956255*
X2346005Y1956399*
X2346346Y1956543*
X2346687*
X2347028Y1956399*
X2347255Y1956111*
X2347369Y1955679*
X2347255Y1955391*
X2347142Y1954960*
X2346914Y1954672*
X2346573Y1954528*
X2346233*
X2345892Y1954672*
X2345778Y1954816*
X2345664Y1955103*
X2315562Y1912551D02*
Y1909528D01*
X2314767Y1912551D02*
X2316358D01*
X2317494Y1911831D02*
Y1911975D01*
X2317608Y1912263*
X2317721Y1912407*
X2317948Y1912551*
X2318403*
X2318630Y1912407*
X2318744Y1912263*
X2318858Y1911975*
Y1911687*
X2318744Y1911399*
X2318517Y1910967*
X2317380Y1909528*
X2318971*
X2322039Y1913126D02*
X2319994Y1908520D01*
X2323062Y1912551D02*
Y1909528D01*
X2324767Y1912551D02*
X2324539Y1912407D01*
X2324312Y1912119*
X2324198Y1911831*
X2324085Y1911399*
Y1910679*
X2324198Y1910247*
X2324312Y1909960*
X2324539Y1909672*
X2324767Y1909528*
X2325221*
X2325448Y1909672*
X2325676Y1909960*
X2325789Y1910247*
X2325903Y1910679*
Y1911399*
X2325789Y1911831*
X2325676Y1912119*
X2325448Y1912407*
X2325221Y1912551*
X2324767*
X2327039Y1911831D02*
Y1911975D01*
X2327153Y1912263*
X2327267Y1912407*
X2327494Y1912551*
X2327948*
X2328176Y1912407*
X2328289Y1912263*
X2328403Y1911975*
Y1911687*
X2328289Y1911399*
X2328062Y1910967*
X2326926Y1909528*
X2328517*
X2273505Y1891551D02*
Y1888528D01*
X2272710Y1891551D02*
X2274301D01*
X2276005D02*
X2275664Y1891407D01*
X2275437Y1890975*
X2275323Y1890255*
Y1889823*
X2275437Y1889103*
X2275664Y1888672*
X2276005Y1888528*
X2276233*
X2276573Y1888672*
X2276801Y1889103*
X2276914Y1889823*
Y1890255*
X2276801Y1890975*
X2276573Y1891407*
X2276233Y1891551*
X2276005*
X2279983Y1892126D02*
X2277937Y1887520D01*
X2281005Y1891551D02*
Y1888528D01*
X2282710Y1891551D02*
X2282483Y1891407D01*
X2282255Y1891119*
X2282142Y1890831*
X2282028Y1890399*
Y1889679*
X2282142Y1889247*
X2282255Y1888960*
X2282483Y1888672*
X2282710Y1888528*
X2283164*
X2283392Y1888672*
X2283619Y1888960*
X2283733Y1889247*
X2283846Y1889679*
Y1890399*
X2283733Y1890831*
X2283619Y1891119*
X2283392Y1891407*
X2283164Y1891551*
X2282710*
X2286005D02*
X2284869Y1889535D01*
X2286573*
X2286005Y1891551D02*
Y1888528D01*
X2225255Y1895551D02*
Y1892528D01*
X2224460Y1895551D02*
X2226051D01*
X2227642D02*
X2227301Y1895407D01*
X2227187Y1895119*
Y1894831*
X2227301Y1894543*
X2227528Y1894399*
X2227983Y1894255*
X2228323Y1894111*
X2228551Y1893823*
X2228664Y1893535*
Y1893103*
X2228551Y1892816*
X2228437Y1892672*
X2228096Y1892528*
X2227642*
X2227301Y1892672*
X2227187Y1892816*
X2227073Y1893103*
Y1893535*
X2227187Y1893823*
X2227414Y1894111*
X2227755Y1894255*
X2228210Y1894399*
X2228437Y1894543*
X2228551Y1894831*
Y1895119*
X2228437Y1895407*
X2228096Y1895551*
X2227642*
X2231733Y1896126D02*
X2229687Y1891520D01*
X2232755Y1895551D02*
Y1892528D01*
X2234460Y1895551D02*
X2234233Y1895407D01*
X2234005Y1895119*
X2233892Y1894831*
X2233778Y1894399*
Y1893679*
X2233892Y1893247*
X2234005Y1892960*
X2234233Y1892672*
X2234460Y1892528*
X2234914*
X2235142Y1892672*
X2235369Y1892960*
X2235483Y1893247*
X2235596Y1893679*
Y1894399*
X2235483Y1894831*
X2235369Y1895119*
X2235142Y1895407*
X2234914Y1895551*
X2234460*
X2236846D02*
X2238096D01*
X2237414Y1894399*
X2237755*
X2237983Y1894255*
X2238096Y1894111*
X2238210Y1893679*
Y1893391*
X2238096Y1892960*
X2237869Y1892672*
X2237528Y1892528*
X2237187*
X2236846Y1892672*
X2236733Y1892816*
X2236619Y1893103*
X2239460Y1895551D02*
X2240710D01*
X2240028Y1894399*
X2240369*
X2240596Y1894255*
X2240710Y1894111*
X2240823Y1893679*
Y1893391*
X2240710Y1892960*
X2240483Y1892672*
X2240142Y1892528*
X2239801*
X2239460Y1892672*
X2239346Y1892816*
X2239233Y1893103*
X2190312Y1932551D02*
Y1929528D01*
X2189517Y1932551D02*
X2191108D01*
X2193608Y1931543D02*
X2193494Y1931111D01*
X2193267Y1930823*
X2192926Y1930679*
X2192812*
X2192471Y1930823*
X2192244Y1931111*
X2192130Y1931543*
Y1931687*
X2192244Y1932119*
X2192471Y1932407*
X2192812Y1932551*
X2192926*
X2193267Y1932407*
X2193494Y1932119*
X2193608Y1931543*
Y1930823*
X2193494Y1930103*
X2193267Y1929672*
X2192926Y1929528*
X2192698*
X2192358Y1929672*
X2192244Y1929960*
X2196676Y1933126D02*
X2194630Y1928520D01*
X2197698Y1932551D02*
Y1929528D01*
X2199403Y1932551D02*
X2199176Y1932407D01*
X2198948Y1932119*
X2198835Y1931831*
X2198721Y1931399*
Y1930679*
X2198835Y1930247*
X2198948Y1929960*
X2199176Y1929672*
X2199403Y1929528*
X2199858*
X2200085Y1929672*
X2200312Y1929960*
X2200426Y1930247*
X2200539Y1930679*
Y1931399*
X2200426Y1931831*
X2200312Y1932119*
X2200085Y1932407*
X2199858Y1932551*
X2199403*
X2201789D02*
X2203039D01*
X2202358Y1931399*
X2202698*
X2202926Y1931255*
X2203039Y1931111*
X2203153Y1930679*
Y1930391*
X2203039Y1929960*
X2202812Y1929672*
X2202471Y1929528*
X2202130*
X2201789Y1929672*
X2201676Y1929816*
X2201562Y1930103*
X2204289Y1931831D02*
Y1931975D01*
X2204403Y1932263*
X2204517Y1932407*
X2204744Y1932551*
X2205198*
X2205426Y1932407*
X2205539Y1932263*
X2205653Y1931975*
Y1931687*
X2205539Y1931399*
X2205312Y1930967*
X2204176Y1929528*
X2205767*
X2190255Y1979551D02*
Y1976528D01*
X2189460Y1979551D02*
X2191051D01*
X2193664D02*
X2192528Y1976528D01*
X2192073Y1979551D02*
X2193664D01*
X2196733Y1980126D02*
X2194687Y1975520D01*
X2197755Y1979551D02*
Y1976528D01*
X2199460Y1979551D02*
X2199233Y1979407D01*
X2199005Y1979119*
X2198892Y1978831*
X2198778Y1978399*
Y1977679*
X2198892Y1977247*
X2199005Y1976960*
X2199233Y1976672*
X2199460Y1976528*
X2199914*
X2200142Y1976672*
X2200369Y1976960*
X2200483Y1977247*
X2200596Y1977679*
Y1978399*
X2200483Y1978831*
X2200369Y1979119*
X2200142Y1979407*
X2199914Y1979551*
X2199460*
X2201733Y1978831D02*
Y1978975D01*
X2201846Y1979263*
X2201960Y1979407*
X2202187Y1979551*
X2202642*
X2202869Y1979407*
X2202983Y1979263*
X2203096Y1978975*
Y1978687*
X2202983Y1978399*
X2202755Y1977967*
X2201619Y1976528*
X2203210*
X2205823Y1979551D02*
X2204687Y1976528D01*
X2204233Y1979551D02*
X2205823D01*
X1878197Y1645623D02*
Y1642600D01*
X1877402Y1645623D02*
X1878993D01*
X1881493Y1644615D02*
X1881379Y1644183D01*
X1881152Y1643895*
X1880811Y1643751*
X1880697*
X1880356Y1643895*
X1880129Y1644183*
X1880015Y1644615*
Y1644759*
X1880129Y1645191*
X1880356Y1645479*
X1880697Y1645623*
X1880811*
X1881152Y1645479*
X1881379Y1645191*
X1881493Y1644615*
Y1643895*
X1881379Y1643175*
X1881152Y1642744*
X1880811Y1642600*
X1880583*
X1880243Y1642744*
X1880129Y1643032*
X1884561Y1646198D02*
X1882515Y1641592D01*
X1885583Y1645623D02*
Y1642600D01*
X1887288Y1645623D02*
X1887061Y1645479D01*
X1886833Y1645191*
X1886720Y1644903*
X1886606Y1644471*
Y1643751*
X1886720Y1643319*
X1886833Y1643032*
X1887061Y1642744*
X1887288Y1642600*
X1887743*
X1887970Y1642744*
X1888197Y1643032*
X1888311Y1643319*
X1888424Y1643751*
Y1644471*
X1888311Y1644903*
X1888197Y1645191*
X1887970Y1645479*
X1887743Y1645623*
X1887288*
X1889674D02*
X1890924D01*
X1890243Y1644471*
X1890583*
X1890811Y1644327*
X1890924Y1644183*
X1891038Y1643751*
Y1643463*
X1890924Y1643032*
X1890697Y1642744*
X1890356Y1642600*
X1890015*
X1889674Y1642744*
X1889561Y1642888*
X1889447Y1643175*
X1892174Y1644903D02*
Y1645047D01*
X1892288Y1645335*
X1892402Y1645479*
X1892629Y1645623*
X1893083*
X1893311Y1645479*
X1893424Y1645335*
X1893538Y1645047*
Y1644759*
X1893424Y1644471*
X1893197Y1644039*
X1892061Y1642600*
X1893652*
X1924739Y1645623D02*
Y1642600D01*
X1923944Y1645623D02*
X1925535D01*
X1928148D02*
X1927012Y1642600D01*
X1926557Y1645623D02*
X1928148D01*
X1931216Y1646198D02*
X1929171Y1641592D01*
X1932239Y1645623D02*
Y1642600D01*
X1933944Y1645623D02*
X1933716Y1645479D01*
X1933489Y1645191*
X1933376Y1644903*
X1933262Y1644471*
Y1643751*
X1933376Y1643319*
X1933489Y1643032*
X1933716Y1642744*
X1933944Y1642600*
X1934398*
X1934626Y1642744*
X1934853Y1643032*
X1934966Y1643319*
X1935080Y1643751*
Y1644471*
X1934966Y1644903*
X1934853Y1645191*
X1934626Y1645479*
X1934398Y1645623*
X1933944*
X1936216Y1644903D02*
Y1645047D01*
X1936330Y1645335*
X1936444Y1645479*
X1936671Y1645623*
X1937126*
X1937353Y1645479*
X1937466Y1645335*
X1937580Y1645047*
Y1644759*
X1937466Y1644471*
X1937239Y1644039*
X1936103Y1642600*
X1937694*
X1940307Y1645623D02*
X1939171Y1642600D01*
X1938716Y1645623D02*
X1940307D01*
X1992136D02*
Y1642600D01*
X1991340Y1645623D02*
X1992931D01*
X1994181D02*
X1995431D01*
X1994749Y1644471*
X1995090*
X1995318Y1644327*
X1995431Y1644183*
X1995545Y1643751*
Y1643463*
X1995431Y1643032*
X1995204Y1642744*
X1994863Y1642600*
X1994522*
X1994181Y1642744*
X1994068Y1642888*
X1993954Y1643175*
X1998613Y1646198D02*
X1996568Y1641592D01*
X1999636Y1645623D02*
Y1642600D01*
X2001340Y1645623D02*
X2001113Y1645479D01*
X2000886Y1645191*
X2000772Y1644903*
X2000659Y1644471*
Y1643751*
X2000772Y1643319*
X2000886Y1643032*
X2001113Y1642744*
X2001340Y1642600*
X2001795*
X2002022Y1642744*
X2002249Y1643032*
X2002363Y1643319*
X2002477Y1643751*
Y1644471*
X2002363Y1644903*
X2002249Y1645191*
X2002022Y1645479*
X2001795Y1645623*
X2001340*
X2003499Y1645047D02*
X2003727Y1645191D01*
X2004068Y1645623*
Y1642600*
X2006568Y1645623D02*
X2005431D01*
X2005318Y1644327*
X2005431Y1644471*
X2005772Y1644615*
X2006113*
X2006454Y1644471*
X2006681Y1644183*
X2006795Y1643751*
X2006681Y1643463*
X2006568Y1643032*
X2006340Y1642744*
X2005999Y1642600*
X2005659*
X2005318Y1642744*
X2005204Y1642888*
X2005090Y1643175*
X2025488Y1645623D02*
Y1642600D01*
X2024693Y1645623D02*
X2026284D01*
X2027420Y1644903D02*
Y1645047D01*
X2027534Y1645335*
X2027647Y1645479*
X2027874Y1645623*
X2028329*
X2028556Y1645479*
X2028670Y1645335*
X2028784Y1645047*
Y1644759*
X2028670Y1644471*
X2028443Y1644039*
X2027306Y1642600*
X2028897*
X2031965Y1646198D02*
X2029920Y1641592D01*
X2032988Y1645623D02*
Y1642600D01*
X2034693Y1645623D02*
X2034465Y1645479D01*
X2034238Y1645191*
X2034124Y1644903*
X2034011Y1644471*
Y1643751*
X2034124Y1643319*
X2034238Y1643032*
X2034465Y1642744*
X2034693Y1642600*
X2035147*
X2035374Y1642744*
X2035602Y1643032*
X2035715Y1643319*
X2035829Y1643751*
Y1644471*
X2035715Y1644903*
X2035602Y1645191*
X2035374Y1645479*
X2035147Y1645623*
X2034693*
X2036965Y1644903D02*
Y1645047D01*
X2037079Y1645335*
X2037193Y1645479*
X2037420Y1645623*
X2037874*
X2038102Y1645479*
X2038215Y1645335*
X2038329Y1645047*
Y1644759*
X2038215Y1644471*
X2037988Y1644039*
X2036852Y1642600*
X2038443*
X1957136Y1645623D02*
Y1642600D01*
X1956340Y1645623D02*
X1957931D01*
X1960431D02*
X1959295D01*
X1959181Y1644327*
X1959295Y1644471*
X1959636Y1644615*
X1959977*
X1960318Y1644471*
X1960545Y1644183*
X1960659Y1643751*
X1960545Y1643463*
X1960431Y1643032*
X1960204Y1642744*
X1959863Y1642600*
X1959522*
X1959181Y1642744*
X1959068Y1642888*
X1958954Y1643175*
X1963727Y1646198D02*
X1961681Y1641592D01*
X1964749Y1645623D02*
Y1642600D01*
X1966454Y1645623D02*
X1966227Y1645479D01*
X1965999Y1645191*
X1965886Y1644903*
X1965772Y1644471*
Y1643751*
X1965886Y1643319*
X1965999Y1643032*
X1966227Y1642744*
X1966454Y1642600*
X1966909*
X1967136Y1642744*
X1967363Y1643032*
X1967477Y1643319*
X1967590Y1643751*
Y1644471*
X1967477Y1644903*
X1967363Y1645191*
X1967136Y1645479*
X1966909Y1645623*
X1966454*
X1968613Y1645047D02*
X1968840Y1645191D01*
X1969181Y1645623*
Y1642600*
X1970318Y1644903D02*
Y1645047D01*
X1970431Y1645335*
X1970545Y1645479*
X1970772Y1645623*
X1971227*
X1971454Y1645479*
X1971568Y1645335*
X1971681Y1645047*
Y1644759*
X1971568Y1644471*
X1971340Y1644039*
X1970204Y1642600*
X1971795*
X2056390Y1645623D02*
Y1642600D01*
X2055595Y1645623D02*
X2057186D01*
X2058890D02*
X2058549Y1645479D01*
X2058322Y1645047*
X2058208Y1644327*
Y1643895*
X2058322Y1643175*
X2058549Y1642744*
X2058890Y1642600*
X2059118*
X2059458Y1642744*
X2059686Y1643175*
X2059799Y1643895*
Y1644327*
X2059686Y1645047*
X2059458Y1645479*
X2059118Y1645623*
X2058890*
X2062868Y1646198D02*
X2060822Y1641592D01*
X2063890Y1645623D02*
Y1642600D01*
X2065595Y1645623D02*
X2065368Y1645479D01*
X2065140Y1645191*
X2065027Y1644903*
X2064913Y1644471*
Y1643751*
X2065027Y1643319*
X2065140Y1643032*
X2065368Y1642744*
X2065595Y1642600*
X2066049*
X2066277Y1642744*
X2066504Y1643032*
X2066618Y1643319*
X2066731Y1643751*
Y1644471*
X2066618Y1644903*
X2066504Y1645191*
X2066277Y1645479*
X2066049Y1645623*
X2065595*
X2068890D02*
X2067754Y1643607D01*
X2069458*
X2068890Y1645623D02*
Y1642600D01*
X1890140Y1541249D02*
Y1538226D01*
X1889345Y1541249D02*
X1890936D01*
X1892527D02*
X1892186Y1541105D01*
X1892072Y1540817*
Y1540529*
X1892186Y1540241*
X1892413Y1540097*
X1892868Y1539953*
X1893208Y1539809*
X1893436Y1539521*
X1893549Y1539233*
Y1538801*
X1893436Y1538514*
X1893322Y1538370*
X1892981Y1538226*
X1892527*
X1892186Y1538370*
X1892072Y1538514*
X1891958Y1538801*
Y1539233*
X1892072Y1539521*
X1892299Y1539809*
X1892640Y1539953*
X1893095Y1540097*
X1893322Y1540241*
X1893436Y1540529*
Y1540817*
X1893322Y1541105*
X1892981Y1541249*
X1892527*
X1896618Y1541824D02*
X1894572Y1537218D01*
X1897640Y1541249D02*
Y1538226D01*
X1899345Y1541249D02*
X1899118Y1541105D01*
X1898890Y1540817*
X1898777Y1540529*
X1898663Y1540097*
Y1539377*
X1898777Y1538945*
X1898890Y1538658*
X1898890D02*
X1899118Y1538370D01*
X1899345Y1538226*
X1899799*
X1900027Y1538370*
X1900254Y1538658*
X1900254D02*
X1900368Y1538945D01*
X1900481Y1539377*
Y1540097*
X1900368Y1540529*
X1900254Y1540817*
X1900027Y1541105*
X1899799Y1541249*
X1899345*
X1901731D02*
X1902981D01*
X1902299Y1540097*
X1902640*
X1902868Y1539953*
X1902981Y1539809*
X1903095Y1539377*
Y1539089*
X1902981Y1538658*
X1902981D02*
X1902754Y1538370D01*
X1902413Y1538226*
X1902072*
X1901731Y1538370*
X1901618Y1538514*
X1901504Y1538801*
X1904345Y1541249D02*
X1905595D01*
X1904913Y1540097*
X1905254*
X1905481Y1539953*
X1905595Y1539809*
X1905708Y1539377*
Y1539089*
X1905595Y1538658*
X1905595D02*
X1905368Y1538370D01*
X1905027Y1538226*
X1904686*
X1904345Y1538370*
X1904231Y1538514*
X1904118Y1538801*
X1962652Y1541249D02*
Y1538226D01*
X1961856Y1541249D02*
X1963447D01*
X1965833Y1540817D02*
X1965720Y1541105D01*
X1965379Y1541249*
X1965152*
X1964811Y1541105*
X1964583Y1540673*
X1964470Y1539953*
Y1539233*
X1964583Y1538658*
X1964583D02*
X1964811Y1538370D01*
X1965152Y1538226*
X1965265*
X1965606Y1538370*
X1965833Y1538658*
X1965833D02*
X1965947Y1539089D01*
Y1539233*
X1965833Y1539665*
X1965606Y1539953*
X1965265Y1540097*
X1965152*
X1964811Y1539953*
X1964583Y1539665*
X1964470Y1539233*
X1969015Y1541824D02*
X1966970Y1537218D01*
X1970038Y1541249D02*
Y1538226D01*
X1971743Y1541249D02*
X1971515Y1541105D01*
X1971288Y1540817*
X1971174Y1540529*
X1971061Y1540097*
Y1539377*
X1971174Y1538945*
X1971288Y1538658*
X1971288D02*
X1971515Y1538370D01*
X1971743Y1538226*
X1972197*
X1972424Y1538370*
X1972652Y1538658*
X1972652D02*
X1972765Y1538945D01*
X1972879Y1539377*
Y1540097*
X1972765Y1540529*
X1972652Y1540817*
X1972424Y1541105*
X1972197Y1541249*
X1971743*
X1973902Y1540673D02*
X1974129Y1540817D01*
X1974470Y1541249*
Y1538226*
X1976629Y1541249D02*
X1975493Y1539233D01*
X1977197*
X1976629Y1541249D02*
Y1538226D01*
X2033595Y1541249D02*
Y1538226D01*
X2032799Y1541249D02*
X2034390D01*
X2036549D02*
X2035413Y1539233D01*
X2037118*
X2036549Y1541249D02*
Y1538226D01*
X2040186Y1541824D02*
X2038140Y1537218D01*
X2041208Y1541249D02*
Y1538226D01*
X2042913Y1541249D02*
X2042686Y1541105D01*
X2042458Y1540817*
X2042345Y1540529*
X2042231Y1540097*
Y1539377*
X2042345Y1538945*
X2042458Y1538658*
X2042458D02*
X2042686Y1538370D01*
X2042913Y1538226*
X2043368*
X2043595Y1538370*
X2043822Y1538658*
X2043822D02*
X2043936Y1538945D01*
X2044049Y1539377*
Y1540097*
X2043936Y1540529*
X2043822Y1540817*
X2043595Y1541105*
X2043368Y1541249*
X2042913*
X2045072Y1540673D02*
X2045299Y1540817D01*
X2045640Y1541249*
Y1538226*
X2046890Y1541249D02*
X2048140D01*
X2047458Y1540097*
X2047799*
X2048027Y1539953*
X2048140Y1539809*
X2048254Y1539377*
Y1539089*
X2048140Y1538658*
X2048140D02*
X2047913Y1538370D01*
X2047572Y1538226*
X2047231*
X2046890Y1538370*
X2046777Y1538514*
X2046663Y1538801*
X2142309Y1685178D02*
Y1682155D01*
X2141513Y1685178D02*
X2143104D01*
X2144354D02*
X2145604D01*
X2144923Y1684026*
X2145263*
X2145491Y1683883*
X2145604Y1683739*
X2145718Y1683307*
Y1683019*
X2145604Y1682587*
X2145377Y1682299*
X2145036Y1682155*
X2144695*
X2144354Y1682299*
X2144241Y1682443*
X2144127Y1682731*
X2148786Y1685754D02*
X2146741Y1681148D01*
X2149809Y1685178D02*
Y1682155D01*
X2151513Y1685178D02*
X2151286Y1685034D01*
X2151059Y1684746*
X2150945Y1684458*
X2150832Y1684026*
Y1683307*
X2150945Y1682875*
X2151059Y1682587*
X2151286Y1682299*
X2151513Y1682155*
X2151968*
X2152195Y1682299*
X2152423Y1682587*
X2152536Y1682875*
X2152650Y1683307*
Y1684026*
X2152536Y1684458*
X2152423Y1684746*
X2152195Y1685034*
X2151968Y1685178*
X2151513*
X2153673Y1684602D02*
X2153900Y1684746D01*
X2154241Y1685178*
Y1682155*
X2156741Y1685178D02*
X2155604D01*
X2155491Y1683883*
X2155604Y1684026*
X2155945Y1684170*
X2156286*
X2156627Y1684026*
X2156854Y1683739*
X2156968Y1683307*
X2156854Y1683019*
X2156741Y1682587*
X2156513Y1682299*
X2156173Y1682155*
X2155832*
X2155491Y1682299*
X2155377Y1682443*
X2155263Y1682731*
X2170840Y1731485D02*
Y1728462D01*
X2170045Y1731485D02*
X2171636D01*
X2174136Y1730478D02*
X2174022Y1730046D01*
X2173795Y1729758*
X2173454Y1729614*
X2173340*
X2172999Y1729758*
X2172772Y1730046*
X2172659Y1730478*
Y1730621*
X2172772Y1731053*
X2172999Y1731341*
X2173340Y1731485*
X2173454*
X2173795Y1731341*
X2174022Y1731053*
X2174136Y1730478*
Y1729758*
X2174022Y1729038*
X2173795Y1728606*
X2173454Y1728462*
X2173227*
X2172886Y1728606*
X2172772Y1728894*
X2177204Y1732061D02*
X2175159Y1727455D01*
X2178227Y1731485D02*
Y1728462D01*
X2179931Y1731485D02*
X2179704Y1731341D01*
X2179477Y1731053*
X2179363Y1730765*
X2179249Y1730334*
Y1729614*
X2179363Y1729182*
X2179477Y1728894*
X2179704Y1728606*
X2179931Y1728462*
X2180386*
X2180613Y1728606*
X2180840Y1728894*
X2180954Y1729182*
X2181068Y1729614*
Y1730334*
X2180954Y1730765*
X2180840Y1731053*
X2180613Y1731341*
X2180386Y1731485*
X2179931*
X2182318D02*
X2183568D01*
X2182886Y1730334*
X2183227*
X2183454Y1730190*
X2183568Y1730046*
X2183681Y1729614*
Y1729326*
X2183568Y1728894*
X2183340Y1728606*
X2182999Y1728462*
X2182659*
X2182318Y1728606*
X2182204Y1728750*
X2182090Y1729038*
X2184818Y1730765D02*
Y1730909D01*
X2184931Y1731197*
X2185045Y1731341*
X2185272Y1731485*
X2185727*
X2185954Y1731341*
X2186068Y1731197*
X2186181Y1730909*
Y1730621*
X2186068Y1730334*
X2185840Y1729902*
X2184704Y1728462*
X2186295*
X2650505Y1675875D02*
Y1672852D01*
X2649710Y1675875D02*
X2651301D01*
X2653005D02*
X2652664Y1675731D01*
X2652437Y1675299*
X2652323Y1674579*
X2652323D02*
Y1674147D01*
X2652323D02*
X2652437Y1673427D01*
X2652664Y1672996*
X2653005Y1672852*
X2653233*
X2653573Y1672996*
X2653573D02*
X2653801Y1673427D01*
X2653914Y1674147*
Y1674579*
X2653801Y1675299*
X2653573Y1675731*
X2653573D02*
X2653233Y1675875D01*
X2653005*
X2656983Y1676450D02*
X2654937Y1671844D01*
X2658005Y1675875D02*
Y1672852D01*
X2659710Y1675875D02*
X2659483Y1675731D01*
X2659255Y1675443*
X2659142Y1675155*
X2659028Y1674723*
Y1674003*
X2659142Y1673571*
X2659255Y1673283*
X2659483Y1672996*
X2659710Y1672852*
X2660164*
X2660392Y1672996*
X2660619Y1673283*
X2660733Y1673571*
X2660846Y1674003*
Y1674723*
X2660733Y1675155*
X2660619Y1675443*
X2660392Y1675731*
X2660164Y1675875*
X2659710*
X2663005D02*
X2661869Y1673859D01*
X2663573*
X2663005Y1675875D02*
Y1672852D01*
X2560710Y1675875D02*
Y1672852D01*
X2559914Y1675875D02*
X2561505D01*
X2562755D02*
X2564005D01*
X2563323Y1674723*
X2563323D02*
X2563664D01*
X2563892Y1674579*
X2564005Y1674435*
X2564119Y1674003*
Y1673715*
X2564005Y1673283*
X2563778Y1672996*
X2563437Y1672852*
X2563096*
X2562755Y1672996*
X2562642Y1673140*
X2562528Y1673427*
X2567187Y1676450D02*
X2565142Y1671844D01*
X2568210Y1675875D02*
Y1672852D01*
X2569914Y1675875D02*
X2569687Y1675731D01*
X2569460Y1675443*
X2569346Y1675155*
X2569233Y1674723*
Y1674003*
X2569346Y1673571*
X2569460Y1673283*
X2569687Y1672996*
X2569914Y1672852*
X2570369*
X2570596Y1672996*
X2570823Y1673283*
X2570823D02*
X2570937Y1673571D01*
X2571051Y1674003*
Y1674723*
X2570937Y1675155*
X2570823Y1675443*
X2570823D02*
X2570596Y1675731D01*
X2570369Y1675875*
X2569914*
X2572073Y1675299D02*
X2572301Y1675443D01*
X2572642Y1675875*
Y1672852*
X2575142Y1675875D02*
X2574005D01*
X2573892Y1674579*
X2574005Y1674723*
X2574346Y1674867*
X2574687*
X2575028Y1674723*
X2575255Y1674435*
X2575369Y1674003*
X2575255Y1673715*
X2575142Y1673283*
X2574914Y1672996*
X2574573Y1672852*
X2574573D02*
X2574233D01*
X2573892Y1672996*
X2573778Y1673140*
X2573664Y1673427*
X2470911Y1675040D02*
Y1672017D01*
X2470116Y1675040D02*
X2471706D01*
X2474206Y1674032D02*
X2474093Y1673600D01*
X2473866Y1673312*
X2473525Y1673168*
X2473411*
X2473070Y1673312*
X2472843Y1673600*
X2472729Y1674032*
Y1674176*
X2472843Y1674608*
X2473070Y1674896*
X2473411Y1675040*
X2473525*
X2473866Y1674896*
X2474093Y1674608*
X2474206Y1674032*
Y1673312*
X2474093Y1672592*
X2473866Y1672161*
X2473525Y1672017*
X2473297*
X2472956Y1672161*
X2472843Y1672448*
X2477275Y1675615D02*
X2475229Y1671009D01*
X2478297Y1675040D02*
Y1672017D01*
X2480002Y1675040D02*
X2479775Y1674896D01*
X2479547Y1674608*
X2479434Y1674320*
X2479320Y1673888*
Y1673168*
X2479434Y1672736*
X2479547Y1672448*
X2479775Y1672161*
X2480002Y1672017*
X2480456*
X2480684Y1672161*
X2480911Y1672448*
X2481025Y1672736*
X2481138Y1673168*
Y1673888*
X2481025Y1674320*
X2480911Y1674608*
X2480684Y1674896*
X2480456Y1675040*
X2480002*
X2482388D02*
X2483638D01*
X2482956Y1673888*
X2483297*
X2483525Y1673744*
X2483638Y1673600*
X2483752Y1673168*
Y1672880*
X2483638Y1672448*
X2483411Y1672161*
X2483070Y1672017*
X2482729*
X2482388Y1672161*
X2482275Y1672305*
X2482161Y1672592*
X2484888Y1674320D02*
Y1674464D01*
X2485002Y1674752*
X2485116Y1674896*
X2485343Y1675040*
X2485797*
X2486025Y1674896*
X2486138Y1674752*
X2486252Y1674464*
Y1674176*
X2486138Y1673888*
X2485911Y1673456*
X2484775Y1672017*
X2486366*
X2651562Y1506063D02*
Y1503041D01*
X2650767Y1506063D02*
X2652358D01*
X2653494Y1505344D02*
Y1505488D01*
X2653608Y1505776*
X2653721Y1505920*
X2653948Y1506063*
X2653948D02*
X2654403D01*
X2654403D02*
X2654630Y1505920D01*
X2654744Y1505776*
X2654858Y1505488*
Y1505200*
X2654744Y1504912*
X2654517Y1504480*
X2653380Y1503041*
X2654971*
X2658039Y1506639D02*
X2655994Y1502033D01*
X2659062Y1506063D02*
Y1503041D01*
X2660767Y1506063D02*
X2660539Y1505920D01*
X2660312Y1505632*
X2660198Y1505344*
X2660085Y1504912*
Y1504192*
X2660198Y1503760*
X2660312Y1503472*
X2660539Y1503185*
X2660767Y1503041*
X2661221*
X2661448Y1503185*
X2661676Y1503472*
X2661789Y1503760*
X2661903Y1504192*
Y1504912*
X2661789Y1505344*
X2661676Y1505632*
X2661448Y1505920*
X2661221Y1506063*
X2661221D02*
X2660767D01*
X2663039Y1505344D02*
Y1505488D01*
X2663153Y1505776*
X2663267Y1505920*
X2663494Y1506063*
X2663494D02*
X2663948D01*
X2663948D02*
X2664176Y1505920D01*
X2664289Y1505776*
X2664403Y1505488*
Y1505200*
X2664289Y1504912*
X2664062Y1504480*
X2662926Y1503041*
X2664517*
X2559710Y1506063D02*
Y1503041D01*
X2558914Y1506063D02*
X2560505D01*
X2563005D02*
X2561869D01*
X2561869D02*
X2561755Y1504768D01*
X2561869Y1504912*
X2562210Y1505056*
X2562551*
X2562892Y1504912*
X2563119Y1504624*
X2563233Y1504192*
X2563119Y1503904*
X2563005Y1503472*
X2562778Y1503185*
X2562437Y1503041*
X2562096*
X2561755Y1503185*
X2561642Y1503329*
X2561528Y1503616*
X2566301Y1506639D02*
X2564255Y1502033D01*
X2567323Y1506063D02*
Y1503041D01*
X2569028Y1506063D02*
X2568801Y1505920D01*
X2568573Y1505632*
X2568460Y1505344*
X2568346Y1504912*
Y1504192*
X2568460Y1503760*
X2568573Y1503472*
X2568801Y1503185*
X2569028Y1503041*
X2569483*
X2569710Y1503185*
X2569937Y1503472*
X2570051Y1503760*
X2570164Y1504192*
Y1504912*
X2570051Y1505344*
X2569937Y1505632*
X2569710Y1505920*
X2569483Y1506063*
X2569483D02*
X2569028D01*
X2571187Y1505488D02*
X2571414Y1505632D01*
X2571755Y1506063*
X2571755D02*
Y1503041D01*
X2572892Y1505344D02*
Y1505488D01*
X2573005Y1505776*
X2573119Y1505920*
X2573346Y1506063*
X2573346D02*
X2573801D01*
X2573801D02*
X2574028Y1505920D01*
X2574142Y1505776*
X2574255Y1505488*
Y1505200*
X2574142Y1504912*
X2573914Y1504480*
X2572778Y1503041*
X2574369*
X2468854Y1506063D02*
Y1503041D01*
X2468059Y1506063D02*
X2469650D01*
X2472263D02*
X2471127Y1503041D01*
X2470672Y1506063D02*
X2472263D01*
X2475331Y1506639D02*
X2473286Y1502033D01*
X2476354Y1506063D02*
Y1503041D01*
X2478059Y1506063D02*
X2477831Y1505920D01*
X2477604Y1505632*
X2477491Y1505344*
X2477377Y1504912*
Y1504192*
X2477491Y1503760*
X2477604Y1503472*
X2477831Y1503185*
X2478059Y1503041*
X2478513*
X2478741Y1503185*
X2478968Y1503472*
X2479081Y1503760*
X2479195Y1504192*
Y1504912*
X2479081Y1505344*
X2478968Y1505632*
X2478741Y1505920*
X2478513Y1506063*
X2478513D02*
X2478059D01*
X2480331Y1505344D02*
Y1505488D01*
X2480445Y1505776*
X2480559Y1505920*
X2480786Y1506063*
X2480786D02*
X2481241D01*
X2481241D02*
X2481468Y1505920D01*
X2481581Y1505776*
X2481695Y1505488*
Y1505200*
X2481581Y1504912*
X2481354Y1504480*
X2480218Y1503041*
X2481809*
X2484422Y1506063D02*
X2483286Y1503041D01*
X2482831Y1506063D02*
X2484422D01*
X2142101Y1690312D02*
Y1687289D01*
Y1690312D02*
X2143124D01*
X2143465Y1690168*
X2143579Y1690024*
X2143692Y1689736*
Y1689448*
X2143579Y1689160*
X2143465Y1689016*
X2143124Y1688872*
X2142101*
X2142897D02*
X2143692Y1687289D01*
X2145397Y1690312D02*
X2145170Y1690168D01*
X2144942Y1689880*
X2144829Y1689592*
X2144715Y1689160*
Y1688441*
X2144829Y1688009*
X2144942Y1687721*
X2145170Y1687433*
X2145397Y1687289*
X2145851*
X2146079Y1687433*
X2146306Y1687721*
X2146420Y1688009*
X2146533Y1688441*
Y1689160*
X2146420Y1689592*
X2146306Y1689880*
X2146079Y1690168*
X2145851Y1690312*
X2145397*
X2147556D02*
X2148124Y1687289D01*
X2148692Y1690312D02*
X2148124Y1687289D01*
X2148692Y1690312D02*
X2149260Y1687289D01*
X2149829Y1690312D02*
X2149260Y1687289D01*
X2150851Y1689736D02*
X2151079Y1689880D01*
X2151420Y1690312*
Y1687289*
X2141590Y1609312D02*
Y1606289D01*
Y1609312D02*
X2142613D01*
X2142954Y1609168*
X2143067Y1609024*
X2143181Y1608736*
Y1608448*
X2143067Y1608160*
X2142954Y1608016*
X2142613Y1607872*
X2141590*
X2142385D02*
X2143181Y1606289D01*
X2144885Y1609312D02*
X2144658Y1609168D01*
X2144431Y1608880*
X2144317Y1608592*
X2144204Y1608160*
Y1607441*
X2144317Y1607009*
X2144431Y1606721*
X2144658Y1606433*
X2144885Y1606289*
X2145340*
X2145567Y1606433*
X2145795Y1606721*
X2145908Y1607009*
X2146022Y1607441*
Y1608160*
X2145908Y1608592*
X2145795Y1608880*
X2145567Y1609168*
X2145340Y1609312*
X2144885*
X2147045D02*
X2147613Y1606289D01*
X2148181Y1609312D02*
X2147613Y1606289D01*
X2148181Y1609312D02*
X2148749Y1606289D01*
X2149317Y1609312D02*
X2148749Y1606289D01*
X2150454Y1608592D02*
Y1608736D01*
X2150567Y1609024*
X2150681Y1609168*
X2150908Y1609312*
X2151363*
X2151590Y1609168*
X2151704Y1609024*
X2151817Y1608736*
Y1608448*
X2151704Y1608160*
X2151476Y1607729*
X2150340Y1606289*
X2151931*
X2142590Y1529312D02*
Y1526289D01*
Y1529312D02*
X2143613D01*
X2143954Y1529168*
X2144067Y1529024*
X2144181Y1528736*
Y1528448*
X2144067Y1528160*
X2143954Y1528016*
X2143613Y1527872*
X2142590*
X2143385D02*
X2144181Y1526289D01*
X2145885Y1529312D02*
X2145658Y1529168D01*
X2145431Y1528880*
X2145317Y1528592*
X2145204Y1528160*
Y1527441*
X2145317Y1527009*
X2145431Y1526721*
X2145658Y1526433*
X2145885Y1526289*
X2146340*
X2146567Y1526433*
X2146795Y1526721*
X2146908Y1527009*
X2147022Y1527441*
Y1528160*
X2146908Y1528592*
X2146795Y1528880*
X2146567Y1529168*
X2146340Y1529312*
X2145885*
X2148045D02*
X2148613Y1526289D01*
X2149181Y1529312D02*
X2148613Y1526289D01*
X2149181Y1529312D02*
X2149749Y1526289D01*
X2150317Y1529312D02*
X2149749Y1526289D01*
X2151567Y1529312D02*
X2152817D01*
X2152135Y1528160*
X2152476*
X2152704Y1528016*
X2152817Y1527872*
X2152931Y1527441*
Y1527153*
X2152817Y1526721*
X2152590Y1526433*
X2152249Y1526289*
X2151908*
X2151567Y1526433*
X2151454Y1526577*
X2151340Y1526865*
X2178613Y1725765D02*
X2178499Y1726053D01*
X2178272Y1726341*
X2178045Y1726485*
X2177590*
X2177363Y1726341*
X2177136Y1726053*
X2177022Y1725765*
X2176909Y1725334*
Y1724614*
X2177022Y1724182*
X2177136Y1723894*
X2177363Y1723606*
X2177590Y1723462*
X2178045*
X2178272Y1723606*
X2178499Y1723894*
X2178613Y1724182*
X2180318Y1726485D02*
X2180090Y1726341D01*
X2179863Y1726053*
X2179749Y1725765*
X2179636Y1725334*
Y1724614*
X2179749Y1724182*
X2179863Y1723894*
X2180090Y1723606*
X2180318Y1723462*
X2180772*
X2180999Y1723606*
X2181227Y1723894*
X2181340Y1724182*
X2181454Y1724614*
Y1725334*
X2181340Y1725765*
X2181227Y1726053*
X2180999Y1726341*
X2180772Y1726485*
X2180318*
X2182477D02*
Y1723462D01*
X2183840*
X2184863Y1725909D02*
X2185090Y1726053D01*
X2185431Y1726485*
Y1723462*
X2257529Y1725765D02*
X2257415Y1726053D01*
X2257188Y1726341*
X2256960Y1726485*
X2256506*
X2256279Y1726341*
X2256051Y1726053*
X2255938Y1725765*
X2255824Y1725334*
Y1724614*
X2255938Y1724182*
X2256051Y1723894*
X2256279Y1723606*
X2256506Y1723462*
X2256960*
X2257188Y1723606*
X2257415Y1723894*
X2257529Y1724182*
X2259233Y1726485D02*
X2259006Y1726341D01*
X2258779Y1726053*
X2258665Y1725765*
X2258551Y1725334*
Y1724614*
X2258665Y1724182*
X2258779Y1723894*
X2259006Y1723606*
X2259233Y1723462*
X2259688*
X2259915Y1723606*
X2260142Y1723894*
X2260256Y1724182*
X2260370Y1724614*
Y1725334*
X2260256Y1725765*
X2260142Y1726053*
X2259915Y1726341*
X2259688Y1726485*
X2259233*
X2261392D02*
Y1723462D01*
X2262756*
X2263892Y1725765D02*
Y1725909D01*
X2264006Y1726197*
X2264120Y1726341*
X2264347Y1726485*
X2264801*
X2265029Y1726341*
X2265142Y1726197*
X2265256Y1725909*
Y1725621*
X2265142Y1725334*
X2264915Y1724902*
X2263779Y1723462*
X2265370*
X2337312Y1725765D02*
X2337198Y1726053D01*
X2336971Y1726341*
X2336743Y1726485*
X2336289*
X2336062Y1726341*
X2335834Y1726053*
X2335721Y1725765*
X2335607Y1725334*
Y1724614*
X2335721Y1724182*
X2335834Y1723894*
X2336062Y1723606*
X2336289Y1723462*
X2336743*
X2336971Y1723606*
X2337198Y1723894*
X2337312Y1724182*
X2339016Y1726485D02*
X2338789Y1726341D01*
X2338562Y1726053*
X2338448Y1725765*
X2338334Y1725334*
Y1724614*
X2338448Y1724182*
X2338562Y1723894*
X2338789Y1723606*
X2339016Y1723462*
X2339471*
X2339698Y1723606*
X2339925Y1723894*
X2340039Y1724182*
X2340153Y1724614*
Y1725334*
X2340039Y1725765*
X2339925Y1726053*
X2339698Y1726341*
X2339471Y1726485*
X2339016*
X2341175D02*
Y1723462D01*
X2342539*
X2343789Y1726485D02*
X2345039D01*
X2344357Y1725334*
X2344698*
X2344925Y1725190*
X2345039Y1725046*
X2345153Y1724614*
Y1724326*
X2345039Y1723894*
X2344812Y1723606*
X2344471Y1723462*
X2344130*
X2343789Y1723606*
X2343675Y1723750*
X2343562Y1724038*
X2336407Y1952119D02*
X2336179Y1952407D01*
X2335839Y1952551*
X2335384*
X2335043Y1952407*
X2334816Y1952119*
Y1951831*
X2334929Y1951543*
X2335043Y1951399*
X2335270Y1951255*
X2335952Y1950967*
X2336179Y1950823*
X2336293Y1950679*
X2336407Y1950391*
Y1949960*
X2336179Y1949672*
X2335839Y1949528*
X2335384*
X2335043Y1949672*
X2334816Y1949960*
X2337429Y1950679D02*
X2338793D01*
Y1950967*
X2338679Y1951255*
X2338566Y1951399*
X2338339Y1951543*
X2337998*
X2337770Y1951399*
X2337543Y1951111*
X2337429Y1950679*
Y1950391*
X2337543Y1949960*
X2337770Y1949672*
X2337998Y1949528*
X2338339*
X2338566Y1949672*
X2338793Y1949960*
X2341179Y1951543D02*
Y1949240D01*
X2341066Y1948808*
X2340952Y1948664*
X2340725Y1948520*
X2340384*
X2340157Y1948664*
X2341179Y1951111D02*
X2340952Y1951399D01*
X2340725Y1951543*
X2340384*
X2340157Y1951399*
X2339929Y1951111*
X2339816Y1950679*
Y1950391*
X2339929Y1949960*
X2340157Y1949672*
X2340384Y1949528*
X2340725*
X2340952Y1949672*
X2341179Y1949960*
X2342202Y1951975D02*
X2342429Y1952119D01*
X2342770Y1952551*
Y1949528*
X2318407Y1907119D02*
X2318179Y1907407D01*
X2317839Y1907551*
X2317384*
X2317043Y1907407*
X2316816Y1907119*
Y1906831*
X2316929Y1906543*
X2317043Y1906399*
X2317270Y1906255*
X2317952Y1905967*
X2318179Y1905823*
X2318293Y1905679*
X2318407Y1905391*
Y1904960*
X2318179Y1904672*
X2317839Y1904528*
X2317384*
X2317043Y1904672*
X2316816Y1904960*
X2319429Y1905679D02*
X2320793D01*
Y1905967*
X2320679Y1906255*
X2320566Y1906399*
X2320339Y1906543*
X2319998*
X2319770Y1906399*
X2319543Y1906111*
X2319429Y1905679*
Y1905391*
X2319543Y1904960*
X2319770Y1904672*
X2319998Y1904528*
X2320339*
X2320566Y1904672*
X2320793Y1904960*
X2323179Y1906543D02*
Y1904240D01*
X2323066Y1903808*
X2322952Y1903664*
X2322725Y1903520*
X2322384*
X2322157Y1903664*
X2323179Y1906111D02*
X2322952Y1906399D01*
X2322725Y1906543*
X2322384*
X2322157Y1906399*
X2321929Y1906111*
X2321816Y1905679*
Y1905391*
X2321929Y1904960*
X2322157Y1904672*
X2322384Y1904528*
X2322725*
X2322952Y1904672*
X2323179Y1904960*
X2325679Y1906543D02*
X2325566Y1906111D01*
X2325339Y1905823*
X2324998Y1905679*
X2324884*
X2324543Y1905823*
X2324316Y1906111*
X2324202Y1906543*
Y1906687*
X2324316Y1907119*
X2324543Y1907407*
X2324884Y1907551*
X2324998*
X2325339Y1907407*
X2325566Y1907119*
X2325679Y1906543*
Y1905823*
X2325566Y1905103*
X2325339Y1904672*
X2324998Y1904528*
X2324770*
X2324429Y1904672*
X2324316Y1904960*
X2275407Y1886119D02*
X2275179Y1886407D01*
X2274839Y1886551*
X2274384*
X2274043Y1886407*
X2273816Y1886119*
Y1885831*
X2273929Y1885543*
X2274043Y1885399*
X2274270Y1885255*
X2274952Y1884967*
X2275179Y1884823*
X2275293Y1884679*
X2275407Y1884391*
Y1883960*
X2275179Y1883672*
X2274839Y1883528*
X2274384*
X2274043Y1883672*
X2273816Y1883960*
X2276429Y1884679D02*
X2277793D01*
Y1884967*
X2277679Y1885255*
X2277566Y1885399*
X2277339Y1885543*
X2276998*
X2276770Y1885399*
X2276543Y1885111*
X2276429Y1884679*
Y1884391*
X2276543Y1883960*
X2276770Y1883672*
X2276998Y1883528*
X2277339*
X2277566Y1883672*
X2277793Y1883960*
X2280179Y1885543D02*
Y1883240D01*
X2280066Y1882808*
X2279952Y1882664*
X2279725Y1882520*
X2279384*
X2279157Y1882664*
X2280179Y1885111D02*
X2279952Y1885399D01*
X2279725Y1885543*
X2279384*
X2279157Y1885399*
X2278929Y1885111*
X2278816Y1884679*
Y1884391*
X2278929Y1883960*
X2279157Y1883672*
X2279384Y1883528*
X2279725*
X2279952Y1883672*
X2280179Y1883960*
X2281770Y1886551D02*
X2281429Y1886407D01*
X2281316Y1886119*
Y1885831*
X2281429Y1885543*
X2281657Y1885399*
X2282111Y1885255*
X2282452Y1885111*
X2282679Y1884823*
X2282793Y1884535*
Y1884103*
X2282679Y1883816*
X2282566Y1883672*
X2282225Y1883528*
X2281770*
X2281429Y1883672*
X2281316Y1883816*
X2281202Y1884103*
Y1884535*
X2281316Y1884823*
X2281543Y1885111*
X2281884Y1885255*
X2282339Y1885399*
X2282566Y1885543*
X2282679Y1885831*
Y1886119*
X2282566Y1886407*
X2282225Y1886551*
X2281770*
X2229407Y1890119D02*
X2229179Y1890407D01*
X2228839Y1890551*
X2228384*
X2228043Y1890407*
X2227816Y1890119*
Y1889831*
X2227929Y1889543*
X2228043Y1889399*
X2228270Y1889255*
X2228952Y1888967*
X2229179Y1888823*
X2229293Y1888679*
X2229407Y1888391*
Y1887960*
X2229179Y1887672*
X2228839Y1887528*
X2228384*
X2228043Y1887672*
X2227816Y1887960*
X2230429Y1888679D02*
X2231793D01*
Y1888967*
X2231679Y1889255*
X2231566Y1889399*
X2231339Y1889543*
X2230998*
X2230770Y1889399*
X2230543Y1889111*
X2230429Y1888679*
Y1888391*
X2230543Y1887960*
X2230770Y1887672*
X2230998Y1887528*
X2231339*
X2231566Y1887672*
X2231793Y1887960*
X2234179Y1889543D02*
Y1887240D01*
X2234066Y1886808*
X2233952Y1886664*
X2233725Y1886520*
X2233384*
X2233157Y1886664*
X2234179Y1889111D02*
X2233952Y1889399D01*
X2233725Y1889543*
X2233384*
X2233157Y1889399*
X2232929Y1889111*
X2232816Y1888679*
Y1888391*
X2232929Y1887960*
X2233157Y1887672*
X2233384Y1887528*
X2233725*
X2233952Y1887672*
X2234179Y1887960*
X2236793Y1890551D02*
X2235657Y1887528D01*
X2235202Y1890551D02*
X2236793D01*
X2193407Y1927119D02*
X2193179Y1927407D01*
X2192839Y1927551*
X2192384*
X2192043Y1927407*
X2191816Y1927119*
Y1926831*
X2191929Y1926543*
X2192043Y1926399*
X2192270Y1926255*
X2192952Y1925967*
X2193179Y1925823*
X2193293Y1925679*
X2193407Y1925391*
Y1924960*
X2193179Y1924672*
X2192839Y1924528*
X2192384*
X2192043Y1924672*
X2191816Y1924960*
X2194429Y1925679D02*
X2195793D01*
Y1925967*
X2195679Y1926255*
X2195566Y1926399*
X2195339Y1926543*
X2194998*
X2194770Y1926399*
X2194543Y1926111*
X2194429Y1925679*
Y1925391*
X2194543Y1924960*
X2194770Y1924672*
X2194998Y1924528*
X2195339*
X2195566Y1924672*
X2195793Y1924960*
X2198179Y1926543D02*
Y1924240D01*
X2198066Y1923808*
X2197952Y1923664*
X2197725Y1923520*
X2197384*
X2197157Y1923664*
X2198179Y1926111D02*
X2197952Y1926399D01*
X2197725Y1926543*
X2197384*
X2197157Y1926399*
X2196929Y1926111*
X2196816Y1925679*
Y1925391*
X2196929Y1924960*
X2197157Y1924672*
X2197384Y1924528*
X2197725*
X2197952Y1924672*
X2198179Y1924960*
X2200566Y1927119D02*
X2200452Y1927407D01*
X2200111Y1927551*
X2199884*
X2199543Y1927407*
X2199316Y1926975*
X2199202Y1926255*
Y1925535*
X2199316Y1924960*
X2199543Y1924672*
X2199884Y1924528*
X2199998*
X2200339Y1924672*
X2200566Y1924960*
X2200679Y1925391*
Y1925535*
X2200566Y1925967*
X2200339Y1926255*
X2199998Y1926399*
X2199884*
X2199543Y1926255*
X2199316Y1925967*
X2199202Y1925535*
X2193407Y1974119D02*
X2193179Y1974407D01*
X2192839Y1974551*
X2192384*
X2192043Y1974407*
X2191816Y1974119*
Y1973831*
X2191929Y1973543*
X2192043Y1973399*
X2192270Y1973255*
X2192952Y1972967*
X2193179Y1972823*
X2193293Y1972679*
X2193407Y1972391*
Y1971960*
X2193179Y1971672*
X2192839Y1971528*
X2192384*
X2192043Y1971672*
X2191816Y1971960*
X2194429Y1972679D02*
X2195793D01*
Y1972967*
X2195679Y1973255*
X2195566Y1973399*
X2195339Y1973543*
X2194998*
X2194770Y1973399*
X2194543Y1973111*
X2194429Y1972679*
Y1972391*
X2194543Y1971960*
X2194770Y1971672*
X2194998Y1971528*
X2195339*
X2195566Y1971672*
X2195793Y1971960*
X2198179Y1973543D02*
Y1971240D01*
X2198066Y1970808*
X2197952Y1970664*
X2197725Y1970520*
X2197384*
X2197157Y1970664*
X2198179Y1973111D02*
X2197952Y1973399D01*
X2197725Y1973543*
X2197384*
X2197157Y1973399*
X2196929Y1973111*
X2196816Y1972679*
Y1972391*
X2196929Y1971960*
X2197157Y1971672*
X2197384Y1971528*
X2197725*
X2197952Y1971672*
X2198179Y1971960*
X2200679Y1974551D02*
X2199543D01*
X2199429Y1973255*
X2199543Y1973399*
X2199884Y1973543*
X2200225*
X2200566Y1973399*
X2200793Y1973111*
X2200907Y1972679*
X2200793Y1972391*
X2200679Y1971960*
X2200452Y1971672*
X2200111Y1971528*
X2199770*
X2199429Y1971672*
X2199316Y1971816*
X2199202Y1972103*
X2225407Y2015119D02*
X2225179Y2015407D01*
X2224839Y2015551*
X2224384*
X2224043Y2015407*
X2223816Y2015119*
Y2014831*
X2223929Y2014543*
X2224043Y2014399*
X2224270Y2014255*
X2224952Y2013967*
X2225179Y2013823*
X2225293Y2013679*
X2225407Y2013391*
Y2012960*
X2225179Y2012672*
X2224839Y2012528*
X2224384*
X2224043Y2012672*
X2223816Y2012960*
X2226429Y2013679D02*
X2227793D01*
Y2013967*
X2227679Y2014255*
X2227566Y2014399*
X2227339Y2014543*
X2226998*
X2226770Y2014399*
X2226543Y2014111*
X2226429Y2013679*
Y2013391*
X2226543Y2012960*
X2226770Y2012672*
X2226998Y2012528*
X2227339*
X2227566Y2012672*
X2227793Y2012960*
X2230179Y2014543D02*
Y2012240D01*
X2230066Y2011808*
X2229952Y2011664*
X2229725Y2011520*
X2229384*
X2229157Y2011664*
X2230179Y2014111D02*
X2229952Y2014399D01*
X2229725Y2014543*
X2229384*
X2229157Y2014399*
X2228929Y2014111*
X2228816Y2013679*
Y2013391*
X2228929Y2012960*
X2229157Y2012672*
X2229384Y2012528*
X2229725*
X2229952Y2012672*
X2230179Y2012960*
X2232339Y2015551D02*
X2231202Y2013535D01*
X2232907*
X2232339Y2015551D02*
Y2012528D01*
X2273407Y2025119D02*
X2273179Y2025407D01*
X2272839Y2025551*
X2272384*
X2272043Y2025407*
X2271816Y2025119*
Y2024831*
X2271929Y2024543*
X2272043Y2024399*
X2272270Y2024255*
X2272952Y2023967*
X2273179Y2023823*
X2273293Y2023679*
X2273407Y2023391*
Y2022960*
X2273179Y2022672*
X2272839Y2022528*
X2272384*
X2272043Y2022672*
X2271816Y2022960*
X2274429Y2023679D02*
X2275793D01*
Y2023967*
X2275679Y2024255*
X2275566Y2024399*
X2275339Y2024543*
X2274998*
X2274770Y2024399*
X2274543Y2024111*
X2274429Y2023679*
Y2023391*
X2274543Y2022960*
X2274770Y2022672*
X2274998Y2022528*
X2275339*
X2275566Y2022672*
X2275793Y2022960*
X2278179Y2024543D02*
Y2022240D01*
X2278066Y2021808*
X2277952Y2021664*
X2277725Y2021520*
X2277384*
X2277157Y2021664*
X2278179Y2024111D02*
X2277952Y2024399D01*
X2277725Y2024543*
X2277384*
X2277157Y2024399*
X2276929Y2024111*
X2276816Y2023679*
Y2023391*
X2276929Y2022960*
X2277157Y2022672*
X2277384Y2022528*
X2277725*
X2277952Y2022672*
X2278179Y2022960*
X2279429Y2025551D02*
X2280679D01*
X2279998Y2024399*
X2280339*
X2280566Y2024255*
X2280679Y2024111*
X2280793Y2023679*
Y2023391*
X2280679Y2022960*
X2280452Y2022672*
X2280111Y2022528*
X2279770*
X2279429Y2022672*
X2279316Y2022816*
X2279202Y2023103*
X2318407Y2002119D02*
X2318179Y2002407D01*
X2317839Y2002551*
X2317384*
X2317043Y2002407*
X2316816Y2002119*
Y2001831*
X2316929Y2001543*
X2317043Y2001399*
X2317270Y2001255*
X2317952Y2000967*
X2318179Y2000823*
X2318293Y2000679*
X2318407Y2000391*
Y1999960*
X2318179Y1999672*
X2317839Y1999528*
X2317384*
X2317043Y1999672*
X2316816Y1999960*
X2319429Y2000679D02*
X2320793D01*
Y2000967*
X2320679Y2001255*
X2320566Y2001399*
X2320339Y2001543*
X2319998*
X2319770Y2001399*
X2319543Y2001111*
X2319429Y2000679*
Y2000391*
X2319543Y1999960*
X2319770Y1999672*
X2319998Y1999528*
X2320339*
X2320566Y1999672*
X2320793Y1999960*
X2323179Y2001543D02*
Y1999240D01*
X2323066Y1998808*
X2322952Y1998664*
X2322725Y1998520*
X2322384*
X2322157Y1998664*
X2323179Y2001111D02*
X2322952Y2001399D01*
X2322725Y2001543*
X2322384*
X2322157Y2001399*
X2321929Y2001111*
X2321816Y2000679*
Y2000391*
X2321929Y1999960*
X2322157Y1999672*
X2322384Y1999528*
X2322725*
X2322952Y1999672*
X2323179Y1999960*
X2324316Y2001831D02*
Y2001975D01*
X2324429Y2002263*
X2324543Y2002407*
X2324770Y2002551*
X2325225*
X2325452Y2002407*
X2325566Y2002263*
X2325679Y2001975*
Y2001687*
X2325566Y2001399*
X2325339Y2000967*
X2324202Y1999528*
X2325793*
X2458435Y2092149D02*
X2458207Y2092437D01*
X2457867Y2092581*
X2457412*
X2457071Y2092437*
X2456844Y2092149*
Y2091861*
X2456957Y2091573*
X2457071Y2091429*
X2457298Y2091285*
X2457980Y2090997*
X2458207Y2090853*
X2458321Y2090709*
X2458435Y2090421*
Y2089990*
X2458207Y2089702*
X2457867Y2089558*
X2457412*
X2457071Y2089702*
X2456844Y2089990*
X2459457Y2090709D02*
X2460821D01*
Y2090997*
X2460707Y2091285*
X2460594Y2091429*
X2460367Y2091573*
X2460026*
X2459798Y2091429*
X2459571Y2091141*
X2459457Y2090709*
Y2090421*
X2459571Y2089990*
X2459798Y2089702*
X2460026Y2089558*
X2460367*
X2460594Y2089702*
X2460821Y2089990*
X2463207Y2091573D02*
Y2089270D01*
X2463094Y2088838*
X2462980Y2088694*
X2462753Y2088550*
X2462412*
X2462185Y2088694*
X2463207Y2091141D02*
X2462980Y2091429D01*
X2462753Y2091573*
X2462412*
X2462185Y2091429*
X2461957Y2091141*
X2461844Y2090709*
Y2090421*
X2461957Y2089990*
X2462185Y2089702*
X2462412Y2089558*
X2462753*
X2462980Y2089702*
X2463207Y2089990*
X2464230Y2091573D02*
Y2089558D01*
Y2090997D02*
X2464571Y2091429D01*
X2464798Y2091573*
X2465139*
X2465367Y2091429*
X2465480Y2090997*
Y2089558*
Y2090997D02*
X2465821Y2091429D01*
X2466048Y2091573*
X2466389*
X2466617Y2091429*
X2466730Y2090997*
Y2089558*
X2467753Y2090709D02*
X2469117D01*
Y2090997*
X2469003Y2091285*
X2468889Y2091429*
X2468662Y2091573*
X2468321*
X2468094Y2091429*
X2467867Y2091141*
X2467753Y2090709*
Y2090421*
X2467867Y2089990*
X2468094Y2089702*
X2468321Y2089558*
X2468662*
X2468889Y2089702*
X2469117Y2089990*
X2470139Y2091573D02*
Y2089558D01*
Y2090997D02*
X2470480Y2091429D01*
X2470707Y2091573*
X2471048*
X2471276Y2091429*
X2471389Y2090997*
Y2089558*
X2472753Y2092581D02*
Y2090133D01*
X2472867Y2089702*
X2473094Y2089558*
X2473321*
X2472412Y2091573D02*
X2473207D01*
X2476957Y2092581D02*
Y2089558D01*
Y2092581D02*
X2477980D01*
X2478321Y2092437*
X2478435Y2092293*
X2478548Y2092005*
Y2091573*
X2478435Y2091285*
X2478321Y2091141*
X2477980Y2090997*
X2476957*
X2480935Y2091573D02*
Y2089558D01*
Y2091141D02*
X2480707Y2091429D01*
X2480480Y2091573*
X2480139*
X2479912Y2091429*
X2479685Y2091141*
X2479571Y2090709*
Y2090421*
X2479685Y2089990*
X2479912Y2089702*
X2480139Y2089558*
X2480480*
X2480707Y2089702*
X2480935Y2089990*
X2481957Y2092581D02*
X2482071Y2092437D01*
X2482185Y2092581*
X2482071Y2092725*
X2481957Y2092581*
X2482071Y2091573D02*
Y2089558D01*
X2483207Y2091573D02*
Y2089558D01*
Y2090709D02*
X2483321Y2091141D01*
X2483548Y2091429*
X2483776Y2091573*
X2484117*
X2485253D02*
X2485139Y2091429D01*
X2485253Y2091285*
X2485367Y2091429*
X2485253Y2091573*
Y2089846D02*
X2485139Y2089702D01*
X2485253Y2089558*
X2485367Y2089702*
X2485253Y2089846*
X2489344Y2092005D02*
X2489571Y2092149D01*
X2489912Y2092581*
Y2089558*
X2493207Y2091285D02*
Y2091429D01*
X2493094Y2091573*
X2492980*
X2492867Y2091429*
X2492753Y2091141*
X2492526Y2090421*
X2492298Y2089990*
X2492071Y2089702*
X2491844Y2089558*
X2491389*
X2491162Y2089702*
X2491048Y2089846*
X2490935Y2090133*
Y2090421*
X2491048Y2090709*
X2491162Y2090853*
X2491957Y2091429*
X2492071Y2091573*
X2492185Y2091861*
Y2092149*
X2492071Y2092437*
X2491844Y2092581*
X2491617Y2092437*
X2491503Y2092149*
Y2091861*
X2491617Y2091429*
X2491844Y2090997*
X2492412Y2089990*
X2492639Y2089702*
X2492867Y2089558*
X2493094*
X2493207Y2089702*
Y2089846*
X2495707Y2091573D02*
X2495594Y2091141D01*
X2495367Y2090853*
X2495026Y2090709*
X2494912*
X2494571Y2090853*
X2494344Y2091141*
X2494230Y2091573*
Y2091717*
X2494344Y2092149*
X2494571Y2092437*
X2494912Y2092581*
X2495026*
X2495367Y2092437*
X2495594Y2092149*
X2495707Y2091573*
Y2090853*
X2495594Y2090133*
X2495367Y2089702*
X2495026Y2089558*
X2494798*
X2494457Y2089702*
X2494344Y2089990*
X2489457Y2084361D02*
Y2084505D01*
X2489571Y2084793*
X2489685Y2084937*
X2489912Y2085081*
X2490367*
X2490594Y2084937*
X2490707Y2084793*
X2490821Y2084505*
Y2084217*
X2490707Y2083929*
X2490480Y2083497*
X2489344Y2082058*
X2490935*
X2494230Y2083785D02*
Y2083929D01*
X2494117Y2084073*
X2494003*
X2493889Y2083929*
X2493776Y2083641*
X2493548Y2082921*
X2493321Y2082490*
X2493094Y2082202*
X2492867Y2082058*
X2492412*
X2492185Y2082202*
X2492071Y2082346*
X2491957Y2082633*
Y2082921*
X2492071Y2083209*
X2492185Y2083353*
X2492980Y2083929*
X2493094Y2084073*
X2493207Y2084361*
Y2084649*
X2493094Y2084937*
X2492867Y2085081*
X2492639Y2084937*
X2492526Y2084649*
Y2084361*
X2492639Y2083929*
X2492867Y2083497*
X2493435Y2082490*
X2493662Y2082202*
X2493889Y2082058*
X2494117*
X2494230Y2082202*
Y2082346*
X2495253Y2084505D02*
X2495480Y2084649D01*
X2495821Y2085081*
Y2082058*
X2496957Y2084361D02*
Y2084505D01*
X2497071Y2084793*
X2497185Y2084937*
X2497412Y2085081*
X2497867*
X2498094Y2084937*
X2498207Y2084793*
X2498321Y2084505*
Y2084217*
X2498207Y2083929*
X2497980Y2083497*
X2496844Y2082058*
X2498435*
X2489571Y2077581D02*
X2490821D01*
X2490139Y2076429*
X2490480*
X2490707Y2076285*
X2490821Y2076141*
X2490935Y2075709*
Y2075421*
X2490821Y2074990*
X2490594Y2074702*
X2490253Y2074558*
X2489912*
X2489571Y2074702*
X2489457Y2074846*
X2489344Y2075133*
X2494230Y2076285D02*
Y2076429D01*
X2494117Y2076573*
X2494003*
X2493889Y2076429*
X2493776Y2076141*
X2493548Y2075421*
X2493321Y2074990*
X2493094Y2074702*
X2492867Y2074558*
X2492412*
X2492185Y2074702*
X2492071Y2074846*
X2491957Y2075133*
Y2075421*
X2492071Y2075709*
X2492185Y2075853*
X2492980Y2076429*
X2493094Y2076573*
X2493207Y2076861*
Y2077149*
X2493094Y2077437*
X2492867Y2077581*
X2492639Y2077437*
X2492526Y2077149*
Y2076861*
X2492639Y2076429*
X2492867Y2075997*
X2493435Y2074990*
X2493662Y2074702*
X2493889Y2074558*
X2494117*
X2494230Y2074702*
Y2074846*
X2495253Y2077005D02*
X2495480Y2077149D01*
X2495821Y2077581*
Y2074558*
X2498321Y2077581D02*
X2497185D01*
X2497071Y2076285*
X2497185Y2076429*
X2497526Y2076573*
X2497867*
X2498207Y2076429*
X2498435Y2076141*
X2498548Y2075709*
X2498435Y2075421*
X2498321Y2074990*
X2498094Y2074702*
X2497753Y2074558*
X2497412*
X2497071Y2074702*
X2496957Y2074846*
X2496844Y2075133*
X2490480Y2070081D02*
X2489344Y2068065D01*
X2491048*
X2490480Y2070081D02*
Y2067058D01*
X2494344Y2068785D02*
Y2068929D01*
X2494230Y2069073*
X2494117*
X2494003Y2068929*
X2493889Y2068641*
X2493662Y2067921*
X2493435Y2067490*
X2493207Y2067202*
X2492980Y2067058*
X2492526*
X2492298Y2067202*
X2492185Y2067346*
X2492071Y2067633*
Y2067921*
X2492185Y2068209*
X2492298Y2068353*
X2493094Y2068929*
X2493207Y2069073*
X2493321Y2069361*
Y2069649*
X2493207Y2069937*
X2492980Y2070081*
X2492753Y2069937*
X2492639Y2069649*
Y2069361*
X2492753Y2068929*
X2492980Y2068497*
X2493548Y2067490*
X2493776Y2067202*
X2494003Y2067058*
X2494230*
X2494344Y2067202*
Y2067346*
X2495367Y2069505D02*
X2495594Y2069649D01*
X2495935Y2070081*
Y2067058*
X2497639Y2070081D02*
X2497298Y2069937D01*
X2497071Y2069505*
X2496957Y2068785*
Y2068353*
X2497071Y2067633*
X2497298Y2067202*
X2497639Y2067058*
X2497867*
X2498207Y2067202*
X2498435Y2067633*
X2498548Y2068353*
Y2068785*
X2498435Y2069505*
X2498207Y2069937*
X2497867Y2070081*
X2497639*
X2490753Y2063081D02*
X2489617D01*
X2489503Y2061785*
X2489617Y2061929*
X2489958Y2062073*
X2490299*
X2490639Y2061929*
X2490867Y2061641*
X2490980Y2061209*
X2490867Y2060921*
X2490753Y2060490*
X2490526Y2060202*
X2490185Y2060058*
X2489844*
X2489503Y2060202*
X2489389Y2060346*
X2489276Y2060633*
X2494276Y2061785D02*
Y2061929D01*
X2494162Y2062073*
X2494049*
X2493935Y2061929*
X2493821Y2061641*
X2493594Y2060921*
X2493367Y2060490*
X2493139Y2060202*
X2492912Y2060058*
X2492458*
X2492230Y2060202*
X2492117Y2060346*
X2492003Y2060633*
Y2060921*
X2492117Y2061209*
X2492230Y2061353*
X2493026Y2061929*
X2493139Y2062073*
X2493253Y2062361*
Y2062649*
X2493139Y2062937*
X2492912Y2063081*
X2492685Y2062937*
X2492571Y2062649*
Y2062361*
X2492685Y2061929*
X2492912Y2061497*
X2493480Y2060490*
X2493708Y2060202*
X2493935Y2060058*
X2494162*
X2494276Y2060202*
Y2060346*
X2495299Y2062505D02*
X2495526Y2062649D01*
X2495867Y2063081*
Y2060058*
X2497117Y2063081D02*
X2498367D01*
X2497685Y2061929*
X2498026*
X2498253Y2061785*
X2498367Y2061641*
X2498480Y2061209*
Y2060921*
X2498367Y2060490*
X2498139Y2060202*
X2497799Y2060058*
X2497458*
X2497117Y2060202*
X2497003Y2060346*
X2496889Y2060633*
X2490639Y2054649D02*
X2490526Y2054937D01*
X2490185Y2055081*
X2489958*
X2489617Y2054937*
X2489389Y2054505*
X2489276Y2053785*
Y2053065*
X2489389Y2052490*
X2489617Y2052202*
X2489958Y2052058*
X2490071*
X2490412Y2052202*
X2490639Y2052490*
X2490753Y2052921*
Y2053065*
X2490639Y2053497*
X2490412Y2053785*
X2490071Y2053929*
X2489958*
X2489617Y2053785*
X2489389Y2053497*
X2489276Y2053065*
X2494049Y2053785D02*
Y2053929D01*
X2493935Y2054073*
X2493821*
X2493708Y2053929*
X2493594Y2053641*
X2493367Y2052921*
X2493139Y2052490*
X2492912Y2052202*
X2492685Y2052058*
X2492230*
X2492003Y2052202*
X2491889Y2052346*
X2491776Y2052633*
Y2052921*
X2491889Y2053209*
X2492003Y2053353*
X2492799Y2053929*
X2492912Y2054073*
X2493026Y2054361*
Y2054649*
X2492912Y2054937*
X2492685Y2055081*
X2492458Y2054937*
X2492344Y2054649*
Y2054361*
X2492458Y2053929*
X2492685Y2053497*
X2493253Y2052490*
X2493480Y2052202*
X2493708Y2052058*
X2493935*
X2494049Y2052202*
Y2052346*
X2495071Y2054505D02*
X2495299Y2054649D01*
X2495639Y2055081*
Y2052058*
X2498026Y2054649D02*
X2497912Y2054937D01*
X2497571Y2055081*
X2497344*
X2497003Y2054937*
X2496776Y2054505*
X2496662Y2053785*
Y2053065*
X2496776Y2052490*
X2497003Y2052202*
X2497344Y2052058*
X2497458*
X2497799Y2052202*
X2498026Y2052490*
X2498139Y2052921*
Y2053065*
X2498026Y2053497*
X2497799Y2053785*
X2497458Y2053929*
X2497344*
X2497003Y2053785*
X2496776Y2053497*
X2496662Y2053065*
X2490867Y2048081D02*
X2489730Y2045058D01*
X2489276Y2048081D02*
X2490867D01*
X2494162Y2046785D02*
Y2046929D01*
X2494049Y2047073*
X2493935*
X2493821Y2046929*
X2493708Y2046641*
X2493480Y2045921*
X2493253Y2045490*
X2493026Y2045202*
X2492799Y2045058*
X2492344*
X2492117Y2045202*
X2492003Y2045346*
X2491889Y2045633*
Y2045921*
X2492003Y2046209*
X2492117Y2046353*
X2492912Y2046929*
X2493026Y2047073*
X2493139Y2047361*
Y2047649*
X2493026Y2047937*
X2492799Y2048081*
X2492571Y2047937*
X2492458Y2047649*
Y2047361*
X2492571Y2046929*
X2492799Y2046497*
X2493367Y2045490*
X2493594Y2045202*
X2493821Y2045058*
X2494049*
X2494162Y2045202*
Y2045346*
X2495185Y2047505D02*
X2495412Y2047649D01*
X2495753Y2048081*
Y2045058*
X2496776Y2047505D02*
X2497003Y2047649D01*
X2497344Y2048081*
Y2045058*
X2489844Y2040081D02*
X2489503Y2039937D01*
X2489389Y2039649*
Y2039361*
X2489503Y2039073*
X2489730Y2038929*
X2490185Y2038785*
X2490526Y2038641*
X2490753Y2038353*
X2490867Y2038065*
Y2037633*
X2490753Y2037346*
X2490639Y2037202*
X2490299Y2037058*
X2489844*
X2489503Y2037202*
X2489389Y2037346*
X2489276Y2037633*
Y2038065*
X2489389Y2038353*
X2489617Y2038641*
X2489958Y2038785*
X2490412Y2038929*
X2490639Y2039073*
X2490753Y2039361*
Y2039649*
X2490639Y2039937*
X2490299Y2040081*
X2489844*
X2494162Y2038785D02*
Y2038929D01*
X2494049Y2039073*
X2493935*
X2493821Y2038929*
X2493708Y2038641*
X2493480Y2037921*
X2493253Y2037490*
X2493026Y2037202*
X2492799Y2037058*
X2492344*
X2492117Y2037202*
X2492003Y2037346*
X2491889Y2037633*
Y2037921*
X2492003Y2038209*
X2492117Y2038353*
X2492912Y2038929*
X2493026Y2039073*
X2493139Y2039361*
Y2039649*
X2493026Y2039937*
X2492799Y2040081*
X2492571Y2039937*
X2492458Y2039649*
Y2039361*
X2492571Y2038929*
X2492799Y2038497*
X2493367Y2037490*
X2493594Y2037202*
X2493821Y2037058*
X2494049*
X2494162Y2037202*
Y2037346*
X2495185Y2039505D02*
X2495412Y2039649D01*
X2495753Y2040081*
Y2037058*
X2497912Y2040081D02*
X2496776Y2038065D01*
X2498480*
X2497912Y2040081D02*
Y2037058D01*
X2543254Y2112664D02*
X2543429Y2112391D01*
X2543955Y2111982*
X2540276*
X2543955Y1996982D02*
X2543780Y1997391D01*
X2543429Y1997528*
X2543079*
X2542729Y1997391*
X2542553Y1997119*
X2542378Y1996573*
X2542203Y1996164*
X2541853Y1995891*
X2541502Y1995755*
X2540977*
X2540626Y1995891*
X2540451Y1996028*
X2540276Y1996437*
Y1996982*
X2540451Y1997391*
X2540626Y1997528*
X2540977Y1997664*
X2541502*
X2541853Y1997528*
X2542203Y1997255*
X2542378Y1996846*
X2542553Y1996300*
X2542729Y1996028*
X2543079Y1995891*
X2543429*
X2543780Y1996028*
X2543955Y1996437*
Y1996982*
X2543254Y1846664D02*
X2543429Y1846391D01*
X2543955Y1845982*
X2540276*
X2543429Y1843119D02*
X2543780Y1843255D01*
X2543955Y1843664*
Y1843937*
X2543780Y1844346*
X2543254Y1844619*
X2542378Y1844755*
X2541502*
X2540801Y1844619*
X2540451Y1844346*
X2540276Y1843937*
Y1843800*
X2540451Y1843391*
X2540801Y1843119*
X2541327Y1842982*
X2541502*
X2542028Y1843119*
X2542378Y1843391*
X2542553Y1843800*
Y1843937*
X2542378Y1844346*
X2542028Y1844619*
X2541502Y1844755*
X2543079Y2097528D02*
X2543254D01*
X2543605Y2097391*
X2543780Y2097255*
X2543955Y2096982*
Y2096437*
X2543780Y2096164*
X2543605Y2096028*
X2543254Y2095891*
X2542904*
X2542553Y2096028*
X2542028Y2096300*
X2540276Y2097664*
Y2095755*
X2543955Y2082391D02*
Y2080891D01*
X2542553Y2081709*
Y2081300*
X2542378Y2081028*
X2542203Y2080891*
X2541677Y2080755*
X2541327*
X2540801Y2080891*
X2540451Y2081164*
X2540276Y2081573*
Y2081982*
X2540451Y2082391*
X2540626Y2082528*
X2540977Y2082664*
X2543955Y2064300D02*
X2541502Y2065664D01*
Y2063619*
X2543955Y2064300D02*
X2540276D01*
X2543955Y2045891D02*
Y2047255D01*
X2542378Y2047391*
X2542553Y2047255*
X2542729Y2046846*
Y2046437*
X2542553Y2046028*
X2542203Y2045755*
X2541677Y2045619*
X2541327Y2045755*
X2540801Y2045891*
X2540451Y2046164*
X2540276Y2046573*
Y2046982*
X2540451Y2047391*
X2540626Y2047528*
X2540977Y2047664*
X2543429Y2029028D02*
X2543780Y2029164D01*
X2543955Y2029573*
Y2029846*
X2543780Y2030255*
X2543254Y2030528*
X2542378Y2030664*
X2541502*
X2540801Y2030528*
X2540451Y2030255*
X2540276Y2029846*
Y2029709*
X2540451Y2029300*
X2540801Y2029028*
X2541327Y2028891*
X2541502*
X2542028Y2029028*
X2542378Y2029300*
X2542553Y2029709*
Y2029846*
X2542378Y2030255*
X2542028Y2030528*
X2541502Y2030664*
X2543955Y2011755D02*
X2540276Y2013119D01*
X2543955Y2013664D02*
Y2011755D01*
X2542729Y1978891D02*
X2542203Y1979028D01*
X2541853Y1979300*
X2541677Y1979709*
Y1979846*
X2541853Y1980255*
X2542203Y1980528*
X2542729Y1980664*
X2542904*
X2543429Y1980528*
X2543780Y1980255*
X2543955Y1979846*
Y1979709*
X2543780Y1979300*
X2543429Y1979028*
X2542729Y1978891*
X2541853*
X2540977Y1979028*
X2540451Y1979300*
X2540276Y1979709*
Y1979982*
X2540451Y1980391*
X2540801Y1980528*
X2543254Y1964664D02*
X2543429Y1964391D01*
X2543955Y1963982*
X2540276*
X2543955Y1961937D02*
X2543780Y1962346D01*
X2543254Y1962619*
X2542378Y1962755*
X2541853*
X2540977Y1962619*
X2540451Y1962346*
X2540276Y1961937*
Y1961664*
X2540451Y1961255*
X2540977Y1960982*
X2541853Y1960846*
X2542378*
X2543254Y1960982*
X2543780Y1961255*
X2543955Y1961664*
Y1961937*
X2543254Y1945664D02*
X2543429Y1945391D01*
X2543955Y1944982*
X2540276*
X2543254Y1943755D02*
X2543429Y1943482D01*
X2543955Y1943073*
X2540276*
X2543254Y1929664D02*
X2543429Y1929391D01*
X2543955Y1928982*
X2540276*
X2543079Y1927619D02*
X2543254D01*
X2543605Y1927482*
X2543780Y1927346*
X2543955Y1927073*
Y1926528*
X2543780Y1926255*
X2543605Y1926119*
X2543254Y1925982*
X2542904*
X2542553Y1926119*
X2542028Y1926391*
X2540276Y1927755*
Y1925846*
X2543254Y1911664D02*
X2543429Y1911391D01*
X2543955Y1910982*
X2540276*
X2543955Y1909482D02*
Y1907982D01*
X2542553Y1908800*
Y1908391*
X2542378Y1908119*
X2542203Y1907982*
X2541677Y1907846*
X2541327*
X2540801Y1907982*
X2540451Y1908255*
X2540276Y1908664*
Y1909073*
X2540451Y1909482*
X2540626Y1909619*
X2540977Y1909755*
X2543254Y1893664D02*
X2543429Y1893391D01*
X2543955Y1892982*
X2540276*
X2543955Y1890391D02*
X2541502Y1891755D01*
Y1889709*
X2543955Y1890391D02*
X2540276D01*
X2543254Y1876664D02*
X2543429Y1876391D01*
X2543955Y1875982*
X2540276*
X2543955Y1872982D02*
Y1874346D01*
X2542378Y1874482*
X2542553Y1874346*
X2542729Y1873937*
Y1873528*
X2542553Y1873119*
X2542203Y1872846*
X2541677Y1872709*
X2541327Y1872846*
X2540801Y1872982*
X2540451Y1873255*
X2540276Y1873664*
Y1874073*
X2540451Y1874482*
X2540626Y1874619*
X2540977Y1874755*
X2503139Y2092581D02*
Y2089558D01*
X2502344Y2092581D02*
X2503935D01*
X2505639D02*
X2505298Y2092437D01*
X2505071Y2092005*
X2504957Y2091285*
Y2090853*
X2505071Y2090133*
X2505298Y2089702*
X2505639Y2089558*
X2505867*
X2506207Y2089702*
X2506435Y2090133*
X2506548Y2090853*
Y2091285*
X2506435Y2092005*
X2506207Y2092437*
X2505867Y2092581*
X2505639*
X2509617Y2093156D02*
X2507571Y2088550D01*
X2510639Y2092581D02*
Y2089558D01*
X2512344Y2092581D02*
X2512117Y2092437D01*
X2511889Y2092149*
X2511776Y2091861*
X2511662Y2091429*
Y2090709*
X2511776Y2090277*
X2511889Y2089990*
X2512117Y2089702*
X2512344Y2089558*
X2512798*
X2513026Y2089702*
X2513253Y2089990*
X2513367Y2090277*
X2513480Y2090709*
Y2091429*
X2513367Y2091861*
X2513253Y2092149*
X2513026Y2092437*
X2512798Y2092581*
X2512344*
X2515639D02*
X2514503Y2090565D01*
X2516207*
X2515639Y2092581D02*
Y2089558D01*
X2503071Y2085081D02*
Y2082058D01*
X2502276Y2085081D02*
X2503867D01*
X2505117D02*
X2506367D01*
X2505685Y2083929*
X2506026*
X2506253Y2083785*
X2506367Y2083641*
X2506480Y2083209*
Y2082921*
X2506367Y2082490*
X2506139Y2082202*
X2505799Y2082058*
X2505458*
X2505117Y2082202*
X2505003Y2082346*
X2504889Y2082633*
X2509549Y2085656D02*
X2507503Y2081050D01*
X2510571Y2085081D02*
Y2082058D01*
X2512276Y2085081D02*
X2512049Y2084937D01*
X2511821Y2084649*
X2511708Y2084361*
X2511594Y2083929*
Y2083209*
X2511708Y2082777*
X2511821Y2082490*
X2512049Y2082202*
X2512276Y2082058*
X2512730*
X2512958Y2082202*
X2513185Y2082490*
X2513299Y2082777*
X2513412Y2083209*
Y2083929*
X2513299Y2084361*
X2513185Y2084649*
X2512958Y2084937*
X2512730Y2085081*
X2512276*
X2514435Y2084505D02*
X2514662Y2084649D01*
X2515003Y2085081*
Y2082058*
X2517503Y2085081D02*
X2516367D01*
X2516253Y2083785*
X2516367Y2083929*
X2516708Y2084073*
X2517049*
X2517389Y2083929*
X2517617Y2083641*
X2517730Y2083209*
X2517617Y2082921*
X2517503Y2082490*
X2517276Y2082202*
X2516935Y2082058*
X2516594*
X2516253Y2082202*
X2516139Y2082346*
X2516026Y2082633*
X2503139Y2077581D02*
Y2074558D01*
X2502344Y2077581D02*
X2503935D01*
X2505071Y2076861D02*
Y2077005D01*
X2505185Y2077293*
X2505298Y2077437*
X2505526Y2077581*
X2505980*
X2506207Y2077437*
X2506321Y2077293*
X2506435Y2077005*
Y2076717*
X2506321Y2076429*
X2506094Y2075997*
X2504957Y2074558*
X2506548*
X2509617Y2078156D02*
X2507571Y2073550D01*
X2510639Y2077581D02*
Y2074558D01*
X2512344Y2077581D02*
X2512117Y2077437D01*
X2511889Y2077149*
X2511776Y2076861*
X2511662Y2076429*
Y2075709*
X2511776Y2075277*
X2511889Y2074990*
X2512117Y2074702*
X2512344Y2074558*
X2512798*
X2513026Y2074702*
X2513253Y2074990*
X2513367Y2075277*
X2513480Y2075709*
Y2076429*
X2513367Y2076861*
X2513253Y2077149*
X2513026Y2077437*
X2512798Y2077581*
X2512344*
X2514617Y2076861D02*
Y2077005D01*
X2514730Y2077293*
X2514844Y2077437*
X2515071Y2077581*
X2515526*
X2515753Y2077437*
X2515867Y2077293*
X2515980Y2077005*
Y2076717*
X2515867Y2076429*
X2515639Y2075997*
X2514503Y2074558*
X2516094*
X2503071Y2070081D02*
Y2067058D01*
X2502276Y2070081D02*
X2503867D01*
X2506367D02*
X2505230D01*
X2505117Y2068785*
X2505230Y2068929*
X2505571Y2069073*
X2505912*
X2506253Y2068929*
X2506480Y2068641*
X2506594Y2068209*
X2506480Y2067921*
X2506367Y2067490*
X2506139Y2067202*
X2505799Y2067058*
X2505458*
X2505117Y2067202*
X2505003Y2067346*
X2504889Y2067633*
X2509662Y2070656D02*
X2507617Y2066050D01*
X2510685Y2070081D02*
Y2067058D01*
X2512389Y2070081D02*
X2512162Y2069937D01*
X2511935Y2069649*
X2511821Y2069361*
X2511708Y2068929*
Y2068209*
X2511821Y2067777*
X2511935Y2067490*
X2512162Y2067202*
X2512389Y2067058*
X2512844*
X2513071Y2067202*
X2513299Y2067490*
X2513412Y2067777*
X2513526Y2068209*
Y2068929*
X2513412Y2069361*
X2513299Y2069649*
X2513071Y2069937*
X2512844Y2070081*
X2512389*
X2514549Y2069505D02*
X2514776Y2069649D01*
X2515117Y2070081*
Y2067058*
X2516253Y2069361D02*
Y2069505D01*
X2516367Y2069793*
X2516480Y2069937*
X2516708Y2070081*
X2517162*
X2517389Y2069937*
X2517503Y2069793*
X2517617Y2069505*
Y2069217*
X2517503Y2068929*
X2517276Y2068497*
X2516139Y2067058*
X2517730*
X2503139Y2062581D02*
Y2059558D01*
X2502344Y2062581D02*
X2503935D01*
X2506094D02*
X2504957Y2060565D01*
X2506662*
X2506094Y2062581D02*
Y2059558D01*
X2509730Y2063156D02*
X2507685Y2058550D01*
X2510753Y2062581D02*
Y2059558D01*
X2512457Y2062581D02*
X2512230Y2062437D01*
X2512003Y2062149*
X2511889Y2061861*
X2511776Y2061429*
Y2060709*
X2511889Y2060277*
X2512003Y2059990*
X2512230Y2059702*
X2512457Y2059558*
X2512912*
X2513139Y2059702*
X2513367Y2059990*
X2513480Y2060277*
X2513594Y2060709*
Y2061429*
X2513480Y2061861*
X2513367Y2062149*
X2513139Y2062437*
X2512912Y2062581*
X2512457*
X2514617Y2062005D02*
X2514844Y2062149D01*
X2515185Y2062581*
Y2059558*
X2516435Y2062581D02*
X2517685D01*
X2517003Y2061429*
X2517344*
X2517571Y2061285*
X2517685Y2061141*
X2517798Y2060709*
Y2060421*
X2517685Y2059990*
X2517457Y2059702*
X2517117Y2059558*
X2516776*
X2516435Y2059702*
X2516321Y2059846*
X2516207Y2060133*
X2503139Y2047581D02*
Y2044558D01*
X2502344Y2047581D02*
X2503935D01*
X2506435Y2046573D02*
X2506321Y2046141D01*
X2506094Y2045853*
X2505753Y2045709*
X2505639*
X2505298Y2045853*
X2505071Y2046141*
X2504957Y2046573*
Y2046717*
X2505071Y2047149*
X2505298Y2047437*
X2505639Y2047581*
X2505753*
X2506094Y2047437*
X2506321Y2047149*
X2506435Y2046573*
Y2045853*
X2506321Y2045133*
X2506094Y2044702*
X2505753Y2044558*
X2505526*
X2505185Y2044702*
X2505071Y2044990*
X2509503Y2048156D02*
X2507457Y2043550D01*
X2510526Y2047581D02*
Y2044558D01*
X2512230Y2047581D02*
X2512003Y2047437D01*
X2511776Y2047149*
X2511662Y2046861*
X2511548Y2046429*
Y2045709*
X2511662Y2045277*
X2511776Y2044990*
X2512003Y2044702*
X2512230Y2044558*
X2512685*
X2512912Y2044702*
X2513139Y2044990*
X2513253Y2045277*
X2513367Y2045709*
Y2046429*
X2513253Y2046861*
X2513139Y2047149*
X2512912Y2047437*
X2512685Y2047581*
X2512230*
X2514617D02*
X2515867D01*
X2515185Y2046429*
X2515526*
X2515753Y2046285*
X2515867Y2046141*
X2515980Y2045709*
Y2045421*
X2515867Y2044990*
X2515639Y2044702*
X2515298Y2044558*
X2514957*
X2514617Y2044702*
X2514503Y2044846*
X2514389Y2045133*
X2517117Y2046861D02*
Y2047005D01*
X2517230Y2047293*
X2517344Y2047437*
X2517571Y2047581*
X2518026*
X2518253Y2047437*
X2518367Y2047293*
X2518480Y2047005*
Y2046717*
X2518367Y2046429*
X2518139Y2045997*
X2517003Y2044558*
X2518594*
X2503071Y2055081D02*
Y2052058D01*
X2502276Y2055081D02*
X2503867D01*
X2506480D02*
X2505344Y2052058D01*
X2504889Y2055081D02*
X2506480D01*
X2509549Y2055656D02*
X2507503Y2051050D01*
X2510571Y2055081D02*
Y2052058D01*
X2512276Y2055081D02*
X2512049Y2054937D01*
X2511821Y2054649*
X2511708Y2054361*
X2511594Y2053929*
Y2053209*
X2511708Y2052777*
X2511821Y2052490*
X2512049Y2052202*
X2512276Y2052058*
X2512730*
X2512958Y2052202*
X2513185Y2052490*
X2513299Y2052777*
X2513412Y2053209*
Y2053929*
X2513299Y2054361*
X2513185Y2054649*
X2512958Y2054937*
X2512730Y2055081*
X2512276*
X2514549Y2054361D02*
Y2054505D01*
X2514662Y2054793*
X2514776Y2054937*
X2515003Y2055081*
X2515458*
X2515685Y2054937*
X2515799Y2054793*
X2515912Y2054505*
Y2054217*
X2515799Y2053929*
X2515571Y2053497*
X2514435Y2052058*
X2516026*
X2518639Y2055081D02*
X2517503Y2052058D01*
X2517049Y2055081D02*
X2518639D01*
X2503071Y2040081D02*
Y2037058D01*
X2502276Y2040081D02*
X2503867D01*
X2505458D02*
X2505117Y2039937D01*
X2505003Y2039649*
Y2039361*
X2505117Y2039073*
X2505344Y2038929*
X2505799Y2038785*
X2506139Y2038641*
X2506367Y2038353*
X2506480Y2038065*
Y2037633*
X2506367Y2037346*
X2506253Y2037202*
X2505912Y2037058*
X2505458*
X2505117Y2037202*
X2505003Y2037346*
X2504889Y2037633*
Y2038065*
X2505003Y2038353*
X2505230Y2038641*
X2505571Y2038785*
X2506026Y2038929*
X2506253Y2039073*
X2506367Y2039361*
Y2039649*
X2506253Y2039937*
X2505912Y2040081*
X2505458*
X2509549Y2040656D02*
X2507503Y2036050D01*
X2510571Y2040081D02*
Y2037058D01*
X2512276Y2040081D02*
X2512049Y2039937D01*
X2511821Y2039649*
X2511708Y2039361*
X2511594Y2038929*
Y2038209*
X2511708Y2037777*
X2511821Y2037490*
X2512049Y2037202*
X2512276Y2037058*
X2512730*
X2512958Y2037202*
X2513185Y2037490*
X2513299Y2037777*
X2513412Y2038209*
Y2038929*
X2513299Y2039361*
X2513185Y2039649*
X2512958Y2039937*
X2512730Y2040081*
X2512276*
X2514662D02*
X2515912D01*
X2515230Y2038929*
X2515571*
X2515799Y2038785*
X2515912Y2038641*
X2516026Y2038209*
Y2037921*
X2515912Y2037490*
X2515685Y2037202*
X2515344Y2037058*
X2515003*
X2514662Y2037202*
X2514549Y2037346*
X2514435Y2037633*
X2517276Y2040081D02*
X2518526D01*
X2517844Y2038929*
X2518185*
X2518412Y2038785*
X2518526Y2038641*
X2518639Y2038209*
Y2037921*
X2518526Y2037490*
X2518299Y2037202*
X2517958Y2037058*
X2517617*
X2517276Y2037202*
X2517162Y2037346*
X2517049Y2037633*
X2249784Y1730485D02*
Y1727462D01*
X2248988Y1730485D02*
X2250579D01*
X2253193D02*
X2252056Y1727462D01*
X2251602Y1730485D02*
X2253193D01*
X2256261Y1731061D02*
X2254215Y1726455D01*
X2257284Y1730485D02*
Y1727462D01*
X2258988Y1730485D02*
X2258761Y1730341D01*
X2258534Y1730053*
X2258420Y1729765*
X2258306Y1729334*
Y1728614*
X2258420Y1728182*
X2258534Y1727894*
X2258761Y1727606*
X2258988Y1727462*
X2259443*
X2259670Y1727606*
X2259897Y1727894*
X2260011Y1728182*
X2260124Y1728614*
Y1729334*
X2260011Y1729765*
X2259897Y1730053*
X2259670Y1730341*
X2259443Y1730485*
X2258988*
X2261261Y1729765D02*
Y1729909D01*
X2261374Y1730197*
X2261488Y1730341*
X2261715Y1730485*
X2262170*
X2262397Y1730341*
X2262511Y1730197*
X2262624Y1729909*
Y1729621*
X2262511Y1729334*
X2262284Y1728902*
X2261147Y1727462*
X2262738*
X2265352Y1730485D02*
X2264215Y1727462D01*
X2263761Y1730485D02*
X2265352D01*
X2330238D02*
Y1727462D01*
X2329443Y1730485D02*
X2331034D01*
X2333534D02*
X2332397D01*
X2332284Y1729190*
X2332397Y1729334*
X2332738Y1729478*
X2333079*
X2333420Y1729334*
X2333647Y1729046*
X2333761Y1728614*
X2333647Y1728326*
X2333534Y1727894*
X2333306Y1727606*
X2332965Y1727462*
X2332624*
X2332284Y1727606*
X2332170Y1727750*
X2332056Y1728038*
X2336829Y1731061D02*
X2334784Y1726455D01*
X2337852Y1730485D02*
Y1727462D01*
X2339556Y1730485D02*
X2339329Y1730341D01*
X2339102Y1730053*
X2338988Y1729765*
X2338874Y1729334*
Y1728614*
X2338988Y1728182*
X2339102Y1727894*
X2339329Y1727606*
X2339556Y1727462*
X2340011*
X2340238Y1727606*
X2340465Y1727894*
X2340579Y1728182*
X2340693Y1728614*
Y1729334*
X2340579Y1729765*
X2340465Y1730053*
X2340238Y1730341*
X2340011Y1730485*
X2339556*
X2341715Y1729909D02*
X2341943Y1730053D01*
X2342284Y1730485*
Y1727462*
X2343420Y1729765D02*
Y1729909D01*
X2343534Y1730197*
X2343647Y1730341*
X2343874Y1730485*
X2344329*
X2344556Y1730341*
X2344670Y1730197*
X2344784Y1729909*
Y1729621*
X2344670Y1729334*
X2344443Y1728902*
X2343306Y1727462*
X2344897*
X2142374Y1605257D02*
Y1602234D01*
X2141578Y1605257D02*
X2143169D01*
X2144306Y1604537D02*
Y1604681D01*
X2144419Y1604969*
X2144533Y1605113*
X2144760Y1605257*
X2145215*
X2145442Y1605113*
X2145556Y1604969*
X2145669Y1604681*
Y1604393*
X2145556Y1604105*
X2145328Y1603673*
X2144192Y1602234*
X2145783*
X2148851Y1605833D02*
X2146806Y1601226D01*
X2149874Y1605257D02*
Y1602234D01*
X2151578Y1605257D02*
X2151351Y1605113D01*
X2151124Y1604825*
X2151010Y1604537*
X2150897Y1604105*
Y1603385*
X2151010Y1602954*
X2151124Y1602666*
X2151351Y1602378*
X2151578Y1602234*
X2152033*
X2152260Y1602378*
X2152487Y1602666*
X2152601Y1602954*
X2152715Y1603385*
Y1604105*
X2152601Y1604537*
X2152487Y1604825*
X2152260Y1605113*
X2152033Y1605257*
X2151578*
X2153851Y1604537D02*
Y1604681D01*
X2153965Y1604969*
X2154078Y1605113*
X2154306Y1605257*
X2154760*
X2154987Y1605113*
X2155101Y1604969*
X2155215Y1604681*
Y1604393*
X2155101Y1604105*
X2154874Y1603673*
X2153737Y1602234*
X2155328*
X2143104Y1525336D02*
Y1522313D01*
X2142309Y1525336D02*
X2143900D01*
X2145604D02*
X2145263Y1525192D01*
X2145036Y1524760*
X2144923Y1524040*
Y1523608*
X2145036Y1522888*
X2145263Y1522457*
X2145604Y1522313*
X2145832*
X2146173Y1522457*
X2146400Y1522888*
X2146513Y1523608*
Y1524040*
X2146400Y1524760*
X2146173Y1525192*
X2145832Y1525336*
X2145604*
X2149582Y1525911D02*
X2147536Y1521305D01*
X2150604Y1525336D02*
Y1522313D01*
X2152309Y1525336D02*
X2152082Y1525192D01*
X2151854Y1524904*
X2151741Y1524616*
X2151627Y1524184*
Y1523464*
X2151741Y1523032*
X2151854Y1522745*
X2151854D02*
X2152082Y1522457D01*
X2152309Y1522313*
X2152763*
X2152991Y1522457*
X2153218Y1522745*
X2153218D02*
X2153332Y1523032D01*
X2153445Y1523464*
Y1524184*
X2153332Y1524616*
X2153218Y1524904*
X2152991Y1525192*
X2152763Y1525336*
X2152309*
X2155604D02*
X2154468Y1523320D01*
X2156173*
X2155604Y1525336D02*
Y1522313D01*
G54D44*
X1913888Y1659556D02*
X1868380Y1650283D01*
X1913888*
Y1659556*
X1947868Y1666615D02*
X1919220Y1660626D01*
Y1650283*
X1947868*
Y1666615*
X1981833Y1673512D02*
X1953185Y1667523D01*
Y1650383*
X1981833*
Y1673512*
X2014846Y1680381D02*
X1987173Y1674596D01*
Y1650383*
X2014846*
Y1680381*
X2048924Y1687463D02*
X2020276Y1681474D01*
Y1650383*
X2048924*
Y1687463*
X2069455Y1691725D02*
X2054137Y1688523D01*
Y1650383*
X2069455*
Y1691725*
X1913427Y1659462D02*
X1913888D01*
X1912544Y1659282D02*
X1913888D01*
X1911660Y1659102D02*
X1913888D01*
X1910777Y1658922D02*
X1913888D01*
X1909894Y1658742D02*
X1913888D01*
X1909010Y1658562D02*
X1913888D01*
X1908127Y1658382D02*
X1913888D01*
X1907243Y1658202D02*
X1913888D01*
X1906360Y1658022D02*
X1913888D01*
X1905476Y1657842D02*
X1913888D01*
X1904593Y1657662D02*
X1913888D01*
X1903710Y1657482D02*
X1913888D01*
X1902826Y1657302D02*
X1913888D01*
X1901943Y1657122D02*
X1913888D01*
X1901059Y1656942D02*
X1913888D01*
X1900176Y1656762D02*
X1913888D01*
X1899293Y1656582D02*
X1913888D01*
X1898409Y1656402D02*
X1913888D01*
X1897526Y1656222D02*
X1913888D01*
X1896642Y1656042D02*
X1913888D01*
X1895759Y1655862D02*
X1913888D01*
X1894875Y1655682D02*
X1913888D01*
X1893992Y1655502D02*
X1913888D01*
X1893109Y1655322D02*
X1913888D01*
X1892225Y1655142D02*
X1913888D01*
X1891342Y1654962D02*
X1913888D01*
X1890458Y1654782D02*
X1913888D01*
X1889575Y1654602D02*
X1913888D01*
X1888692Y1654422D02*
X1913888D01*
X1887808Y1654242D02*
X1913888D01*
X1886925Y1654062D02*
X1913888D01*
X1886041Y1653882D02*
X1913888D01*
X1885158Y1653702D02*
X1913888D01*
X1884275Y1653522D02*
X1913888D01*
X1883391Y1653342D02*
X1913888D01*
X1882508Y1653162D02*
X1913888D01*
X1881624Y1652982D02*
X1913888D01*
X1880741Y1652802D02*
X1913888D01*
X1879857Y1652622D02*
X1913888D01*
X1878974Y1652442D02*
X1913888D01*
X1878091Y1652262D02*
X1913888D01*
X1877207Y1652082D02*
X1913888D01*
X1876324Y1651902D02*
X1913888D01*
X1875440Y1651722D02*
X1913888D01*
X1874557Y1651542D02*
X1913888D01*
X1873674Y1651362D02*
X1913888D01*
X1872790Y1651182D02*
X1913888D01*
X1871907Y1651002D02*
X1913888D01*
X1871023Y1650822D02*
X1913888D01*
X1870140Y1650642D02*
X1913888D01*
X1869257Y1650462D02*
X1913888D01*
X1947231Y1666482D02*
X1947868D01*
X1946370Y1666302D02*
X1947868D01*
X1945509Y1666122D02*
X1947868D01*
X1944648Y1665942D02*
X1947868D01*
X1943787Y1665762D02*
X1947868D01*
X1942926Y1665582D02*
X1947868D01*
X1942065Y1665402D02*
X1947868D01*
X1941204Y1665222D02*
X1947868D01*
X1940343Y1665042D02*
X1947868D01*
X1939482Y1664862D02*
X1947868D01*
X1938621Y1664682D02*
X1947868D01*
X1937760Y1664502D02*
X1947868D01*
X1936899Y1664322D02*
X1947868D01*
X1936038Y1664142D02*
X1947868D01*
X1935177Y1663962D02*
X1947868D01*
X1934316Y1663782D02*
X1947868D01*
X1933455Y1663602D02*
X1947868D01*
X1932594Y1663422D02*
X1947868D01*
X1931733Y1663242D02*
X1947868D01*
X1930872Y1663062D02*
X1947868D01*
X1930011Y1662882D02*
X1947868D01*
X1929150Y1662702D02*
X1947868D01*
X1928289Y1662522D02*
X1947868D01*
X1927428Y1662342D02*
X1947868D01*
X1926567Y1662162D02*
X1947868D01*
X1925706Y1661982D02*
X1947868D01*
X1924845Y1661802D02*
X1947868D01*
X1923984Y1661622D02*
X1947868D01*
X1923123Y1661442D02*
X1947868D01*
X1922262Y1661262D02*
X1947868D01*
X1921401Y1661082D02*
X1947868D01*
X1920540Y1660902D02*
X1947868D01*
X1919679Y1660722D02*
X1947868D01*
X1919220Y1660542D02*
X1947868D01*
X1919220Y1660362D02*
X1947868D01*
X1919220Y1660182D02*
X1947868D01*
X1919220Y1660002D02*
X1947868D01*
X1919220Y1659822D02*
X1947868D01*
X1919220Y1659642D02*
X1947868D01*
X1919220Y1659462D02*
X1947868D01*
X1919220Y1659282D02*
X1947868D01*
X1919220Y1659102D02*
X1947868D01*
X1919220Y1658922D02*
X1947868D01*
X1919220Y1658742D02*
X1947868D01*
X1919220Y1658562D02*
X1947868D01*
X1919220Y1658382D02*
X1947868D01*
X1919220Y1658202D02*
X1947868D01*
X1919220Y1658022D02*
X1947868D01*
X1919220Y1657842D02*
X1947868D01*
X1919220Y1657662D02*
X1947868D01*
X1919220Y1657482D02*
X1947868D01*
X1919220Y1657302D02*
X1947868D01*
X1919220Y1657122D02*
X1947868D01*
X1919220Y1656942D02*
X1947868D01*
X1919220Y1656762D02*
X1947868D01*
X1919220Y1656582D02*
X1947868D01*
X1919220Y1656402D02*
X1947868D01*
X1919220Y1656222D02*
X1947868D01*
X1919220Y1656042D02*
X1947868D01*
X1919220Y1655862D02*
X1947868D01*
X1919220Y1655682D02*
X1947868D01*
X1919220Y1655502D02*
X1947868D01*
X1919220Y1655322D02*
X1947868D01*
X1919220Y1655142D02*
X1947868D01*
X1919220Y1654962D02*
X1947868D01*
X1919220Y1654782D02*
X1947868D01*
X1919220Y1654602D02*
X1947868D01*
X1919220Y1654422D02*
X1947868D01*
X1919220Y1654242D02*
X1947868D01*
X1919220Y1654062D02*
X1947868D01*
X1919220Y1653882D02*
X1947868D01*
X1919220Y1653702D02*
X1947868D01*
X1919220Y1653522D02*
X1947868D01*
X1919220Y1653342D02*
X1947868D01*
X1919220Y1653162D02*
X1947868D01*
X1919220Y1652982D02*
X1947868D01*
X1919220Y1652802D02*
X1947868D01*
X1919220Y1652622D02*
X1947868D01*
X1919220Y1652442D02*
X1947868D01*
X1919220Y1652262D02*
X1947868D01*
X1919220Y1652082D02*
X1947868D01*
X1919220Y1651902D02*
X1947868D01*
X1919220Y1651722D02*
X1947868D01*
X1919220Y1651542D02*
X1947868D01*
X1919220Y1651362D02*
X1947868D01*
X1919220Y1651182D02*
X1947868D01*
X1919220Y1651002D02*
X1947868D01*
X1919220Y1650822D02*
X1947868D01*
X1919220Y1650642D02*
X1947868D01*
X1919220Y1650462D02*
X1947868D01*
X1981401Y1673422D02*
X1981833D01*
X1980540Y1673242D02*
X1981833D01*
X1979679Y1673062D02*
X1981833D01*
X1978818Y1672882D02*
X1981833D01*
X1977957Y1672702D02*
X1981833D01*
X1977096Y1672522D02*
X1981833D01*
X1976235Y1672342D02*
X1981833D01*
X1975374Y1672162D02*
X1981833D01*
X1974513Y1671982D02*
X1981833D01*
X1973652Y1671802D02*
X1981833D01*
X1972791Y1671622D02*
X1981833D01*
X1971930Y1671442D02*
X1981833D01*
X1971069Y1671262D02*
X1981833D01*
X1970208Y1671082D02*
X1981833D01*
X1969347Y1670902D02*
X1981833D01*
X1968486Y1670722D02*
X1981833D01*
X1967625Y1670542D02*
X1981833D01*
X1966764Y1670362D02*
X1981833D01*
X1965903Y1670182D02*
X1981833D01*
X1965042Y1670002D02*
X1981833D01*
X1964181Y1669822D02*
X1981833D01*
X1963320Y1669642D02*
X1981833D01*
X1962459Y1669462D02*
X1981833D01*
X1961598Y1669282D02*
X1981833D01*
X1960737Y1669102D02*
X1981833D01*
X1959876Y1668922D02*
X1981833D01*
X1959015Y1668742D02*
X1981833D01*
X1958154Y1668562D02*
X1981833D01*
X1957293Y1668382D02*
X1981833D01*
X1956433Y1668202D02*
X1981833D01*
X1955572Y1668022D02*
X1981833D01*
X1954711Y1667842D02*
X1981833D01*
X1953850Y1667662D02*
X1981833D01*
X1953185Y1667482D02*
X1981833D01*
X1953185Y1667302D02*
X1981833D01*
X1953185Y1667122D02*
X1981833D01*
X1953185Y1666942D02*
X1981833D01*
X1953185Y1666762D02*
X1981833D01*
X1953185Y1666582D02*
X1981833D01*
X1953185Y1666402D02*
X1981833D01*
X1953185Y1666222D02*
X1981833D01*
X1953185Y1666042D02*
X1981833D01*
X1953185Y1665862D02*
X1981833D01*
X1953185Y1665682D02*
X1981833D01*
X1953185Y1665502D02*
X1981833D01*
X1953185Y1665322D02*
X1981833D01*
X1953185Y1665142D02*
X1981833D01*
X1953185Y1664962D02*
X1981833D01*
X1953185Y1664782D02*
X1981833D01*
X1953185Y1664602D02*
X1981833D01*
X1953185Y1664422D02*
X1981833D01*
X1953185Y1664242D02*
X1981833D01*
X1953185Y1664062D02*
X1981833D01*
X1953185Y1663882D02*
X1981833D01*
X1953185Y1663702D02*
X1981833D01*
X1953185Y1663522D02*
X1981833D01*
X1953185Y1663342D02*
X1981833D01*
X1953185Y1663162D02*
X1981833D01*
X1953185Y1662982D02*
X1981833D01*
X1953185Y1662802D02*
X1981833D01*
X1953185Y1662622D02*
X1981833D01*
X1953185Y1662442D02*
X1981833D01*
X1953185Y1662262D02*
X1981833D01*
X1953185Y1662082D02*
X1981833D01*
X1953185Y1661902D02*
X1981833D01*
X1953185Y1661722D02*
X1981833D01*
X1953185Y1661542D02*
X1981833D01*
X1953185Y1661362D02*
X1981833D01*
X1953185Y1661182D02*
X1981833D01*
X1953185Y1661002D02*
X1981833D01*
X1953185Y1660822D02*
X1981833D01*
X1953185Y1660642D02*
X1981833D01*
X1953185Y1660462D02*
X1981833D01*
X1953185Y1660282D02*
X1981833D01*
X1953185Y1660102D02*
X1981833D01*
X1953185Y1659922D02*
X1981833D01*
X1953185Y1659742D02*
X1981833D01*
X1953185Y1659562D02*
X1981833D01*
X1953185Y1659382D02*
X1981833D01*
X1953185Y1659202D02*
X1981833D01*
X1953185Y1659022D02*
X1981833D01*
X1953185Y1658842D02*
X1981833D01*
X1953185Y1658662D02*
X1981833D01*
X1953185Y1658482D02*
X1981833D01*
X1953185Y1658302D02*
X1981833D01*
X1953185Y1658122D02*
X1981833D01*
X1953185Y1657942D02*
X1981833D01*
X1953185Y1657762D02*
X1981833D01*
X1953185Y1657582D02*
X1981833D01*
X1953185Y1657402D02*
X1981833D01*
X1953185Y1657222D02*
X1981833D01*
X1953185Y1657042D02*
X1981833D01*
X1953185Y1656862D02*
X1981833D01*
X1953185Y1656682D02*
X1981833D01*
X1953185Y1656502D02*
X1981833D01*
X1953185Y1656322D02*
X1981833D01*
X1953185Y1656142D02*
X1981833D01*
X1953185Y1655962D02*
X1981833D01*
X1953185Y1655782D02*
X1981833D01*
X1953185Y1655602D02*
X1981833D01*
X1953185Y1655422D02*
X1981833D01*
X1953185Y1655242D02*
X1981833D01*
X1953185Y1655062D02*
X1981833D01*
X1953185Y1654882D02*
X1981833D01*
X1953185Y1654702D02*
X1981833D01*
X1953185Y1654522D02*
X1981833D01*
X1953185Y1654342D02*
X1981833D01*
X1953185Y1654162D02*
X1981833D01*
X1953185Y1653982D02*
X1981833D01*
X1953185Y1653802D02*
X1981833D01*
X1953185Y1653622D02*
X1981833D01*
X1953185Y1653442D02*
X1981833D01*
X1953185Y1653262D02*
X1981833D01*
X1953185Y1653082D02*
X1981833D01*
X1953185Y1652902D02*
X1981833D01*
X1953185Y1652722D02*
X1981833D01*
X1953185Y1652542D02*
X1981833D01*
X1953185Y1652362D02*
X1981833D01*
X1953185Y1652182D02*
X1981833D01*
X1953185Y1652002D02*
X1981833D01*
X1953185Y1651822D02*
X1981833D01*
X1953185Y1651642D02*
X1981833D01*
X1953185Y1651462D02*
X1981833D01*
X1953185Y1651282D02*
X1981833D01*
X1953185Y1651102D02*
X1981833D01*
X1953185Y1650922D02*
X1981833D01*
X1953185Y1650742D02*
X1981833D01*
X1953185Y1650562D02*
X1981833D01*
X2014275Y1680262D02*
X2014846D01*
X2013414Y1680082D02*
X2014846D01*
X2012553Y1679902D02*
X2014846D01*
X2011692Y1679722D02*
X2014846D01*
X2010831Y1679542D02*
X2014846D01*
X2009970Y1679362D02*
X2014846D01*
X2009109Y1679182D02*
X2014846D01*
X2008248Y1679002D02*
X2014846D01*
X2007387Y1678822D02*
X2014846D01*
X2006526Y1678642D02*
X2014846D01*
X2005665Y1678462D02*
X2014846D01*
X2004804Y1678282D02*
X2014846D01*
X2003943Y1678102D02*
X2014846D01*
X2003082Y1677922D02*
X2014846D01*
X2002221Y1677742D02*
X2014846D01*
X2001360Y1677562D02*
X2014846D01*
X2000499Y1677382D02*
X2014846D01*
X1999638Y1677202D02*
X2014846D01*
X1998777Y1677022D02*
X2014846D01*
X1997916Y1676842D02*
X2014846D01*
X1997055Y1676662D02*
X2014846D01*
X1996194Y1676482D02*
X2014846D01*
X1995333Y1676302D02*
X2014846D01*
X1994472Y1676122D02*
X2014846D01*
X1993611Y1675942D02*
X2014846D01*
X1992750Y1675762D02*
X2014846D01*
X1991889Y1675582D02*
X2014846D01*
X1991028Y1675402D02*
X2014846D01*
X1990167Y1675222D02*
X2014846D01*
X1989306Y1675042D02*
X2014846D01*
X1988445Y1674862D02*
X2014846D01*
X1987584Y1674682D02*
X2014846D01*
X1987173Y1674502D02*
X2014846D01*
X1987173Y1674322D02*
X2014846D01*
X1987173Y1674142D02*
X2014846D01*
X1987173Y1673962D02*
X2014846D01*
X1987173Y1673782D02*
X2014846D01*
X1987173Y1673602D02*
X2014846D01*
X1987173Y1673422D02*
X2014846D01*
X1987173Y1673242D02*
X2014846D01*
X1987173Y1673062D02*
X2014846D01*
X1987173Y1672882D02*
X2014846D01*
X1987173Y1672702D02*
X2014846D01*
X1987173Y1672522D02*
X2014846D01*
X1987173Y1672342D02*
X2014846D01*
X1987173Y1672162D02*
X2014846D01*
X1987173Y1671982D02*
X2014846D01*
X1987173Y1671802D02*
X2014846D01*
X1987173Y1671622D02*
X2014846D01*
X1987173Y1671442D02*
X2014846D01*
X1987173Y1671262D02*
X2014846D01*
X1987173Y1671082D02*
X2014846D01*
X1987173Y1670902D02*
X2014846D01*
X1987173Y1670722D02*
X2014846D01*
X1987173Y1670542D02*
X2014846D01*
X1987173Y1670362D02*
X2014846D01*
X1987173Y1670182D02*
X2014846D01*
X1987173Y1670002D02*
X2014846D01*
X1987173Y1669822D02*
X2014846D01*
X1987173Y1669642D02*
X2014846D01*
X1987173Y1669462D02*
X2014846D01*
X1987173Y1669282D02*
X2014846D01*
X1987173Y1669102D02*
X2014846D01*
X1987173Y1668922D02*
X2014846D01*
X1987173Y1668742D02*
X2014846D01*
X1987173Y1668562D02*
X2014846D01*
X1987173Y1668382D02*
X2014846D01*
X1987173Y1668202D02*
X2014846D01*
X1987173Y1668022D02*
X2014846D01*
X1987173Y1667842D02*
X2014846D01*
X1987173Y1667662D02*
X2014846D01*
X1987173Y1667482D02*
X2014846D01*
X1987173Y1667302D02*
X2014846D01*
X1987173Y1667122D02*
X2014846D01*
X1987173Y1666942D02*
X2014846D01*
X1987173Y1666762D02*
X2014846D01*
X1987173Y1666582D02*
X2014846D01*
X1987173Y1666402D02*
X2014846D01*
X1987173Y1666222D02*
X2014846D01*
X1987173Y1666042D02*
X2014846D01*
X1987173Y1665862D02*
X2014846D01*
X1987173Y1665682D02*
X2014846D01*
X1987173Y1665502D02*
X2014846D01*
X1987173Y1665322D02*
X2014846D01*
X1987173Y1665142D02*
X2014846D01*
X1987173Y1664962D02*
X2014846D01*
X1987173Y1664782D02*
X2014846D01*
X1987173Y1664602D02*
X2014846D01*
X1987173Y1664422D02*
X2014846D01*
X1987173Y1664242D02*
X2014846D01*
X1987173Y1664062D02*
X2014846D01*
X1987173Y1663882D02*
X2014846D01*
X1987173Y1663702D02*
X2014846D01*
X1987173Y1663522D02*
X2014846D01*
X1987173Y1663342D02*
X2014846D01*
X1987173Y1663162D02*
X2014846D01*
X1987173Y1662982D02*
X2014846D01*
X1987173Y1662802D02*
X2014846D01*
X1987173Y1662622D02*
X2014846D01*
X1987173Y1662442D02*
X2014846D01*
X1987173Y1662262D02*
X2014846D01*
X1987173Y1662082D02*
X2014846D01*
X1987173Y1661902D02*
X2014846D01*
X1987173Y1661722D02*
X2014846D01*
X1987173Y1661542D02*
X2014846D01*
X1987173Y1661362D02*
X2014846D01*
X1987173Y1661182D02*
X2014846D01*
X1987173Y1661002D02*
X2014846D01*
X1987173Y1660822D02*
X2014846D01*
X1987173Y1660642D02*
X2014846D01*
X1987173Y1660462D02*
X2014846D01*
X1987173Y1660282D02*
X2014846D01*
X1987173Y1660102D02*
X2014846D01*
X1987173Y1659922D02*
X2014846D01*
X1987173Y1659742D02*
X2014846D01*
X1987173Y1659562D02*
X2014846D01*
X1987173Y1659382D02*
X2014846D01*
X1987173Y1659202D02*
X2014846D01*
X1987173Y1659022D02*
X2014846D01*
X1987173Y1658842D02*
X2014846D01*
X1987173Y1658662D02*
X2014846D01*
X1987173Y1658482D02*
X2014846D01*
X1987173Y1658302D02*
X2014846D01*
X1987173Y1658122D02*
X2014846D01*
X1987173Y1657942D02*
X2014846D01*
X1987173Y1657762D02*
X2014846D01*
X1987173Y1657582D02*
X2014846D01*
X1987173Y1657402D02*
X2014846D01*
X1987173Y1657222D02*
X2014846D01*
X1987173Y1657042D02*
X2014846D01*
X1987173Y1656862D02*
X2014846D01*
X1987173Y1656682D02*
X2014846D01*
X1987173Y1656502D02*
X2014846D01*
X1987173Y1656322D02*
X2014846D01*
X1987173Y1656142D02*
X2014846D01*
X1987173Y1655962D02*
X2014846D01*
X1987173Y1655782D02*
X2014846D01*
X1987173Y1655602D02*
X2014846D01*
X1987173Y1655422D02*
X2014846D01*
X1987173Y1655242D02*
X2014846D01*
X1987173Y1655062D02*
X2014846D01*
X1987173Y1654882D02*
X2014846D01*
X1987173Y1654702D02*
X2014846D01*
X1987173Y1654522D02*
X2014846D01*
X1987173Y1654342D02*
X2014846D01*
X1987173Y1654162D02*
X2014846D01*
X1987173Y1653982D02*
X2014846D01*
X1987173Y1653802D02*
X2014846D01*
X1987173Y1653622D02*
X2014846D01*
X1987173Y1653442D02*
X2014846D01*
X1987173Y1653262D02*
X2014846D01*
X1987173Y1653082D02*
X2014846D01*
X1987173Y1652902D02*
X2014846D01*
X1987173Y1652722D02*
X2014846D01*
X1987173Y1652542D02*
X2014846D01*
X1987173Y1652362D02*
X2014846D01*
X1987173Y1652182D02*
X2014846D01*
X1987173Y1652002D02*
X2014846D01*
X1987173Y1651822D02*
X2014846D01*
X1987173Y1651642D02*
X2014846D01*
X1987173Y1651462D02*
X2014846D01*
X1987173Y1651282D02*
X2014846D01*
X1987173Y1651102D02*
X2014846D01*
X1987173Y1650922D02*
X2014846D01*
X1987173Y1650742D02*
X2014846D01*
X1987173Y1650562D02*
X2014846D01*
X2048918Y1687462D02*
X2048924D01*
X2048057Y1687282D02*
X2048924D01*
X2047196Y1687102D02*
X2048924D01*
X2046335Y1686922D02*
X2048924D01*
X2045474Y1686742D02*
X2048924D01*
X2044613Y1686562D02*
X2048924D01*
X2043752Y1686382D02*
X2048924D01*
X2042891Y1686202D02*
X2048924D01*
X2042030Y1686022D02*
X2048924D01*
X2041169Y1685842D02*
X2048924D01*
X2040308Y1685662D02*
X2048924D01*
X2039447Y1685482D02*
X2048924D01*
X2038586Y1685302D02*
X2048924D01*
X2037725Y1685122D02*
X2048924D01*
X2036864Y1684942D02*
X2048924D01*
X2036003Y1684762D02*
X2048924D01*
X2035142Y1684582D02*
X2048924D01*
X2034281Y1684402D02*
X2048924D01*
X2033420Y1684222D02*
X2048924D01*
X2032559Y1684042D02*
X2048924D01*
X2031698Y1683862D02*
X2048924D01*
X2030837Y1683682D02*
X2048924D01*
X2029976Y1683502D02*
X2048924D01*
X2029115Y1683322D02*
X2048924D01*
X2028254Y1683142D02*
X2048924D01*
X2027393Y1682962D02*
X2048924D01*
X2026532Y1682782D02*
X2048924D01*
X2025671Y1682602D02*
X2048924D01*
X2024810Y1682422D02*
X2048924D01*
X2023949Y1682242D02*
X2048924D01*
X2023088Y1682062D02*
X2048924D01*
X2022227Y1681882D02*
X2048924D01*
X2021366Y1681702D02*
X2048924D01*
X2020505Y1681522D02*
X2048924D01*
X2020276Y1681342D02*
X2048924D01*
X2020276Y1681162D02*
X2048924D01*
X2020276Y1680982D02*
X2048924D01*
X2020276Y1680802D02*
X2048924D01*
X2020276Y1680622D02*
X2048924D01*
X2020276Y1680442D02*
X2048924D01*
X2020276Y1680262D02*
X2048924D01*
X2020276Y1680082D02*
X2048924D01*
X2020276Y1679902D02*
X2048924D01*
X2020276Y1679722D02*
X2048924D01*
X2020276Y1679542D02*
X2048924D01*
X2020276Y1679362D02*
X2048924D01*
X2020276Y1679182D02*
X2048924D01*
X2020276Y1679002D02*
X2048924D01*
X2020276Y1678822D02*
X2048924D01*
X2020276Y1678642D02*
X2048924D01*
X2020276Y1678462D02*
X2048924D01*
X2020276Y1678282D02*
X2048924D01*
X2020276Y1678102D02*
X2048924D01*
X2020276Y1677922D02*
X2048924D01*
X2020276Y1677742D02*
X2048924D01*
X2020276Y1677562D02*
X2048924D01*
X2020276Y1677382D02*
X2048924D01*
X2020276Y1677202D02*
X2048924D01*
X2020276Y1677022D02*
X2048924D01*
X2020276Y1676842D02*
X2048924D01*
X2020276Y1676662D02*
X2048924D01*
X2020276Y1676482D02*
X2048924D01*
X2020276Y1676302D02*
X2048924D01*
X2020276Y1676122D02*
X2048924D01*
X2020276Y1675942D02*
X2048924D01*
X2020276Y1675762D02*
X2048924D01*
X2020276Y1675582D02*
X2048924D01*
X2020276Y1675402D02*
X2048924D01*
X2020276Y1675222D02*
X2048924D01*
X2020276Y1675042D02*
X2048924D01*
X2020276Y1674862D02*
X2048924D01*
X2020276Y1674682D02*
X2048924D01*
X2020276Y1674502D02*
X2048924D01*
X2020276Y1674322D02*
X2048924D01*
X2020276Y1674142D02*
X2048924D01*
X2020276Y1673962D02*
X2048924D01*
X2020276Y1673782D02*
X2048924D01*
X2020276Y1673602D02*
X2048924D01*
X2020276Y1673422D02*
X2048924D01*
X2020276Y1673242D02*
X2048924D01*
X2020276Y1673062D02*
X2048924D01*
X2020276Y1672882D02*
X2048924D01*
X2020276Y1672702D02*
X2048924D01*
X2020276Y1672522D02*
X2048924D01*
X2020276Y1672342D02*
X2048924D01*
X2020276Y1672162D02*
X2048924D01*
X2020276Y1671982D02*
X2048924D01*
X2020276Y1671802D02*
X2048924D01*
X2020276Y1671622D02*
X2048924D01*
X2020276Y1671442D02*
X2048924D01*
X2020276Y1671262D02*
X2048924D01*
X2020276Y1671082D02*
X2048924D01*
X2020276Y1670902D02*
X2048924D01*
X2020276Y1670722D02*
X2048924D01*
X2020276Y1670542D02*
X2048924D01*
X2020276Y1670362D02*
X2048924D01*
X2020276Y1670182D02*
X2048924D01*
X2020276Y1670002D02*
X2048924D01*
X2020276Y1669822D02*
X2048924D01*
X2020276Y1669642D02*
X2048924D01*
X2020276Y1669462D02*
X2048924D01*
X2020276Y1669282D02*
X2048924D01*
X2020276Y1669102D02*
X2048924D01*
X2020276Y1668922D02*
X2048924D01*
X2020276Y1668742D02*
X2048924D01*
X2020276Y1668562D02*
X2048924D01*
X2020276Y1668382D02*
X2048924D01*
X2020276Y1668202D02*
X2048924D01*
X2020276Y1668022D02*
X2048924D01*
X2020276Y1667842D02*
X2048924D01*
X2020276Y1667662D02*
X2048924D01*
X2020276Y1667482D02*
X2048924D01*
X2020276Y1667302D02*
X2048924D01*
X2020276Y1667122D02*
X2048924D01*
X2020276Y1666942D02*
X2048924D01*
X2020276Y1666762D02*
X2048924D01*
X2020276Y1666582D02*
X2048924D01*
X2020276Y1666402D02*
X2048924D01*
X2020276Y1666222D02*
X2048924D01*
X2020276Y1666042D02*
X2048924D01*
X2020276Y1665862D02*
X2048924D01*
X2020276Y1665682D02*
X2048924D01*
X2020276Y1665502D02*
X2048924D01*
X2020276Y1665322D02*
X2048924D01*
X2020276Y1665142D02*
X2048924D01*
X2020276Y1664962D02*
X2048924D01*
X2020276Y1664782D02*
X2048924D01*
X2020276Y1664602D02*
X2048924D01*
X2020276Y1664422D02*
X2048924D01*
X2020276Y1664242D02*
X2048924D01*
X2020276Y1664062D02*
X2048924D01*
X2020276Y1663882D02*
X2048924D01*
X2020276Y1663702D02*
X2048924D01*
X2020276Y1663522D02*
X2048924D01*
X2020276Y1663342D02*
X2048924D01*
X2020276Y1663162D02*
X2048924D01*
X2020276Y1662982D02*
X2048924D01*
X2020276Y1662802D02*
X2048924D01*
X2020276Y1662622D02*
X2048924D01*
X2020276Y1662442D02*
X2048924D01*
X2020276Y1662262D02*
X2048924D01*
X2020276Y1662082D02*
X2048924D01*
X2020276Y1661902D02*
X2048924D01*
X2020276Y1661722D02*
X2048924D01*
X2020276Y1661542D02*
X2048924D01*
X2020276Y1661362D02*
X2048924D01*
X2020276Y1661182D02*
X2048924D01*
X2020276Y1661002D02*
X2048924D01*
X2020276Y1660822D02*
X2048924D01*
X2020276Y1660642D02*
X2048924D01*
X2020276Y1660462D02*
X2048924D01*
X2020276Y1660282D02*
X2048924D01*
X2020276Y1660102D02*
X2048924D01*
X2020276Y1659922D02*
X2048924D01*
X2020276Y1659742D02*
X2048924D01*
X2020276Y1659562D02*
X2048924D01*
X2020276Y1659382D02*
X2048924D01*
X2020276Y1659202D02*
X2048924D01*
X2020276Y1659022D02*
X2048924D01*
X2020276Y1658842D02*
X2048924D01*
X2020276Y1658662D02*
X2048924D01*
X2020276Y1658482D02*
X2048924D01*
X2020276Y1658302D02*
X2048924D01*
X2020276Y1658122D02*
X2048924D01*
X2020276Y1657942D02*
X2048924D01*
X2020276Y1657762D02*
X2048924D01*
X2020276Y1657582D02*
X2048924D01*
X2020276Y1657402D02*
X2048924D01*
X2020276Y1657222D02*
X2048924D01*
X2020276Y1657042D02*
X2048924D01*
X2020276Y1656862D02*
X2048924D01*
X2020276Y1656682D02*
X2048924D01*
X2020276Y1656502D02*
X2048924D01*
X2020276Y1656322D02*
X2048924D01*
X2020276Y1656142D02*
X2048924D01*
X2020276Y1655962D02*
X2048924D01*
X2020276Y1655782D02*
X2048924D01*
X2020276Y1655602D02*
X2048924D01*
X2020276Y1655422D02*
X2048924D01*
X2020276Y1655242D02*
X2048924D01*
X2020276Y1655062D02*
X2048924D01*
X2020276Y1654882D02*
X2048924D01*
X2020276Y1654702D02*
X2048924D01*
X2020276Y1654522D02*
X2048924D01*
X2020276Y1654342D02*
X2048924D01*
X2020276Y1654162D02*
X2048924D01*
X2020276Y1653982D02*
X2048924D01*
X2020276Y1653802D02*
X2048924D01*
X2020276Y1653622D02*
X2048924D01*
X2020276Y1653442D02*
X2048924D01*
X2020276Y1653262D02*
X2048924D01*
X2020276Y1653082D02*
X2048924D01*
X2020276Y1652902D02*
X2048924D01*
X2020276Y1652722D02*
X2048924D01*
X2020276Y1652542D02*
X2048924D01*
X2020276Y1652362D02*
X2048924D01*
X2020276Y1652182D02*
X2048924D01*
X2020276Y1652002D02*
X2048924D01*
X2020276Y1651822D02*
X2048924D01*
X2020276Y1651642D02*
X2048924D01*
X2020276Y1651462D02*
X2048924D01*
X2020276Y1651282D02*
X2048924D01*
X2020276Y1651102D02*
X2048924D01*
X2020276Y1650922D02*
X2048924D01*
X2020276Y1650742D02*
X2048924D01*
X2020276Y1650562D02*
X2048924D01*
X2068864Y1691602D02*
X2069455D01*
X2068003Y1691422D02*
X2069455D01*
X2067142Y1691242D02*
X2069455D01*
X2066281Y1691062D02*
X2069455D01*
X2065420Y1690882D02*
X2069455D01*
X2064559Y1690702D02*
X2069455D01*
X2063698Y1690522D02*
X2069455D01*
X2062837Y1690342D02*
X2069455D01*
X2061976Y1690162D02*
X2069455D01*
X2061115Y1689982D02*
X2069455D01*
X2060254Y1689802D02*
X2069455D01*
X2059393Y1689622D02*
X2069455D01*
X2058532Y1689442D02*
X2069455D01*
X2057671Y1689262D02*
X2069455D01*
X2056811Y1689082D02*
X2069455D01*
X2055950Y1688902D02*
X2069455D01*
X2055089Y1688722D02*
X2069455D01*
X2054228Y1688542D02*
X2069455D01*
X2054137Y1688362D02*
X2069455D01*
X2054137Y1688182D02*
X2069455D01*
X2054137Y1688002D02*
X2069455D01*
X2054137Y1687822D02*
X2069455D01*
X2054137Y1687642D02*
X2069455D01*
X2054137Y1687462D02*
X2069455D01*
X2054137Y1687282D02*
X2069455D01*
X2054137Y1687102D02*
X2069455D01*
X2054137Y1686922D02*
X2069455D01*
X2054137Y1686742D02*
X2069455D01*
X2054137Y1686562D02*
X2069455D01*
X2054137Y1686382D02*
X2069455D01*
X2054137Y1686202D02*
X2069455D01*
X2054137Y1686022D02*
X2069455D01*
X2054137Y1685842D02*
X2069455D01*
X2054137Y1685662D02*
X2069455D01*
X2054137Y1685482D02*
X2069455D01*
X2054137Y1685302D02*
X2069455D01*
X2054137Y1685122D02*
X2069455D01*
X2054137Y1684942D02*
X2069455D01*
X2054137Y1684762D02*
X2069455D01*
X2054137Y1684582D02*
X2069455D01*
X2054137Y1684402D02*
X2069455D01*
X2054137Y1684222D02*
X2069455D01*
X2054137Y1684042D02*
X2069455D01*
X2054137Y1683862D02*
X2069455D01*
X2054137Y1683682D02*
X2069455D01*
X2054137Y1683502D02*
X2069455D01*
X2054137Y1683322D02*
X2069455D01*
X2054137Y1683142D02*
X2069455D01*
X2054137Y1682962D02*
X2069455D01*
X2054137Y1682782D02*
X2069455D01*
X2054137Y1682602D02*
X2069455D01*
X2054137Y1682422D02*
X2069455D01*
X2054137Y1682242D02*
X2069455D01*
X2054137Y1682062D02*
X2069455D01*
X2054137Y1681882D02*
X2069455D01*
X2054137Y1681702D02*
X2069455D01*
X2054137Y1681522D02*
X2069455D01*
X2054137Y1681342D02*
X2069455D01*
X2054137Y1681162D02*
X2069455D01*
X2054137Y1680982D02*
X2069455D01*
X2054137Y1680802D02*
X2069455D01*
X2054137Y1680622D02*
X2069455D01*
X2054137Y1680442D02*
X2069455D01*
X2054137Y1680262D02*
X2069455D01*
X2054137Y1680082D02*
X2069455D01*
X2054137Y1679902D02*
X2069455D01*
X2054137Y1679722D02*
X2069455D01*
X2054137Y1679542D02*
X2069455D01*
X2054137Y1679362D02*
X2069455D01*
X2054137Y1679182D02*
X2069455D01*
X2054137Y1679002D02*
X2069455D01*
X2054137Y1678822D02*
X2069455D01*
X2054137Y1678642D02*
X2069455D01*
X2054137Y1678462D02*
X2069455D01*
X2054137Y1678282D02*
X2069455D01*
X2054137Y1678102D02*
X2069455D01*
X2054137Y1677922D02*
X2069455D01*
X2054137Y1677742D02*
X2069455D01*
X2054137Y1677562D02*
X2069455D01*
X2054137Y1677382D02*
X2069455D01*
X2054137Y1677202D02*
X2069455D01*
X2054137Y1677022D02*
X2069455D01*
X2054137Y1676842D02*
X2069455D01*
X2054137Y1676662D02*
X2069455D01*
X2054137Y1676482D02*
X2069455D01*
X2054137Y1676302D02*
X2069455D01*
X2054137Y1676122D02*
X2069455D01*
X2054137Y1675942D02*
X2069455D01*
X2054137Y1675762D02*
X2069455D01*
X2054137Y1675582D02*
X2069455D01*
X2054137Y1675402D02*
X2069455D01*
X2054137Y1675222D02*
X2069455D01*
X2054137Y1675042D02*
X2069455D01*
X2054137Y1674862D02*
X2069455D01*
X2054137Y1674682D02*
X2069455D01*
X2054137Y1674502D02*
X2069455D01*
X2054137Y1674322D02*
X2069455D01*
X2054137Y1674142D02*
X2069455D01*
X2054137Y1673962D02*
X2069455D01*
X2054137Y1673782D02*
X2069455D01*
X2054137Y1673602D02*
X2069455D01*
X2054137Y1673422D02*
X2069455D01*
X2054137Y1673242D02*
X2069455D01*
X2054137Y1673062D02*
X2069455D01*
X2054137Y1672882D02*
X2069455D01*
X2054137Y1672702D02*
X2069455D01*
X2054137Y1672522D02*
X2069455D01*
X2054137Y1672342D02*
X2069455D01*
X2054137Y1672162D02*
X2069455D01*
X2054137Y1671982D02*
X2069455D01*
X2054137Y1671802D02*
X2069455D01*
X2054137Y1671622D02*
X2069455D01*
X2054137Y1671442D02*
X2069455D01*
X2054137Y1671262D02*
X2069455D01*
X2054137Y1671082D02*
X2069455D01*
X2054137Y1670902D02*
X2069455D01*
X2054137Y1670722D02*
X2069455D01*
X2054137Y1670542D02*
X2069455D01*
X2054137Y1670362D02*
X2069455D01*
X2054137Y1670182D02*
X2069455D01*
X2054137Y1670002D02*
X2069455D01*
X2054137Y1669822D02*
X2069455D01*
X2054137Y1669642D02*
X2069455D01*
X2054137Y1669462D02*
X2069455D01*
X2054137Y1669282D02*
X2069455D01*
X2054137Y1669102D02*
X2069455D01*
X2054137Y1668922D02*
X2069455D01*
X2054137Y1668742D02*
X2069455D01*
X2054137Y1668562D02*
X2069455D01*
X2054137Y1668382D02*
X2069455D01*
X2054137Y1668202D02*
X2069455D01*
X2054137Y1668022D02*
X2069455D01*
X2054137Y1667842D02*
X2069455D01*
X2054137Y1667662D02*
X2069455D01*
X2054137Y1667482D02*
X2069455D01*
X2054137Y1667302D02*
X2069455D01*
X2054137Y1667122D02*
X2069455D01*
X2054137Y1666942D02*
X2069455D01*
X2054137Y1666762D02*
X2069455D01*
X2054137Y1666582D02*
X2069455D01*
X2054137Y1666402D02*
X2069455D01*
X2054137Y1666222D02*
X2069455D01*
X2054137Y1666042D02*
X2069455D01*
X2054137Y1665862D02*
X2069455D01*
X2054137Y1665682D02*
X2069455D01*
X2054137Y1665502D02*
X2069455D01*
X2054137Y1665322D02*
X2069455D01*
X2054137Y1665142D02*
X2069455D01*
X2054137Y1664962D02*
X2069455D01*
X2054137Y1664782D02*
X2069455D01*
X2054137Y1664602D02*
X2069455D01*
X2054137Y1664422D02*
X2069455D01*
X2054137Y1664242D02*
X2069455D01*
X2054137Y1664062D02*
X2069455D01*
X2054137Y1663882D02*
X2069455D01*
X2054137Y1663702D02*
X2069455D01*
X2054137Y1663522D02*
X2069455D01*
X2054137Y1663342D02*
X2069455D01*
X2054137Y1663162D02*
X2069455D01*
X2054137Y1662982D02*
X2069455D01*
X2054137Y1662802D02*
X2069455D01*
X2054137Y1662622D02*
X2069455D01*
X2054137Y1662442D02*
X2069455D01*
X2054137Y1662262D02*
X2069455D01*
X2054137Y1662082D02*
X2069455D01*
X2054137Y1661902D02*
X2069455D01*
X2054137Y1661722D02*
X2069455D01*
X2054137Y1661542D02*
X2069455D01*
X2054137Y1661362D02*
X2069455D01*
X2054137Y1661182D02*
X2069455D01*
X2054137Y1661002D02*
X2069455D01*
X2054137Y1660822D02*
X2069455D01*
X2054137Y1660642D02*
X2069455D01*
X2054137Y1660462D02*
X2069455D01*
X2054137Y1660282D02*
X2069455D01*
X2054137Y1660102D02*
X2069455D01*
X2054137Y1659922D02*
X2069455D01*
X2054137Y1659742D02*
X2069455D01*
X2054137Y1659562D02*
X2069455D01*
X2054137Y1659382D02*
X2069455D01*
X2054137Y1659202D02*
X2069455D01*
X2054137Y1659022D02*
X2069455D01*
X2054137Y1658842D02*
X2069455D01*
X2054137Y1658662D02*
X2069455D01*
X2054137Y1658482D02*
X2069455D01*
X2054137Y1658302D02*
X2069455D01*
X2054137Y1658122D02*
X2069455D01*
X2054137Y1657942D02*
X2069455D01*
X2054137Y1657762D02*
X2069455D01*
X2054137Y1657582D02*
X2069455D01*
X2054137Y1657402D02*
X2069455D01*
X2054137Y1657222D02*
X2069455D01*
X2054137Y1657042D02*
X2069455D01*
X2054137Y1656862D02*
X2069455D01*
X2054137Y1656682D02*
X2069455D01*
X2054137Y1656502D02*
X2069455D01*
X2054137Y1656322D02*
X2069455D01*
X2054137Y1656142D02*
X2069455D01*
X2054137Y1655962D02*
X2069455D01*
X2054137Y1655782D02*
X2069455D01*
X2054137Y1655602D02*
X2069455D01*
X2054137Y1655422D02*
X2069455D01*
X2054137Y1655242D02*
X2069455D01*
X2054137Y1655062D02*
X2069455D01*
X2054137Y1654882D02*
X2069455D01*
X2054137Y1654702D02*
X2069455D01*
X2054137Y1654522D02*
X2069455D01*
X2054137Y1654342D02*
X2069455D01*
X2054137Y1654162D02*
X2069455D01*
X2054137Y1653982D02*
X2069455D01*
X2054137Y1653802D02*
X2069455D01*
X2054137Y1653622D02*
X2069455D01*
X2054137Y1653442D02*
X2069455D01*
X2054137Y1653262D02*
X2069455D01*
X2054137Y1653082D02*
X2069455D01*
X2054137Y1652902D02*
X2069455D01*
X2054137Y1652722D02*
X2069455D01*
X2054137Y1652542D02*
X2069455D01*
X2054137Y1652362D02*
X2069455D01*
X2054137Y1652182D02*
X2069455D01*
X2054137Y1652002D02*
X2069455D01*
X2054137Y1651822D02*
X2069455D01*
X2054137Y1651642D02*
X2069455D01*
X2054137Y1651462D02*
X2069455D01*
X2054137Y1651282D02*
X2069455D01*
X2054137Y1651102D02*
X2069455D01*
X2054137Y1650922D02*
X2069455D01*
X2054137Y1650742D02*
X2069455D01*
X2054137Y1650562D02*
X2069455D01*
G74*
X0Y0D02*
M02*
