*
*
G04 PADS VX.2 Build Number: 5060570 generated Gerber (RS-274-X) file*
G04 PC Version=2.1*
*
%IN "ESP32-Sense-Series-Main"*%
*
%MOIN*%
*
%FSLAX35Y35*%
*
*
*
*
G04 PC Standard Apertures*
*
*
G04 Thermal Relief Aperture macro.*
%AMTER*
1,1,$1,0,0*
1,0,$1-$2,0,0*
21,0,$3,$4,0,0,45*
21,0,$3,$4,0,0,135*
%
*
*
G04 Annular Aperture macro.*
%AMANN*
1,1,$1,0,0*
1,0,$2,0,0*
%
*
*
G04 Odd Aperture macro.*
%AMODD*
1,1,$1,0,0*
1,0,$1-0.005,0,0*
%
*
*
G04 PC Custom Aperture Macros*
*
*
*
*
*
*
G04 PC Aperture Table*
*
%ADD010C,0.001*%
%ADD011C,0.005*%
%ADD012C,0.008*%
%ADD014C,0.004*%
%ADD016C,0.01*%
%ADD018C,0.015*%
%ADD024R,0.02X0.02*%
%ADD025R,0.07X0.07*%
%ADD026C,0.07*%
%ADD030C,0.05906*%
%ADD031R,0.032X0.036*%
%ADD032R,0.0315X0.0315*%
%ADD033R,0.03937X0.06299*%
%ADD041C,0.012*%
%ADD043C,0.02*%
%ADD047R,0.02559X0.03937*%
%ADD048R,0.04724X0.0374*%
%ADD049C,0.02362*%
%ADD050R,0.02362X0.05512*%
%ADD051R,0.05512X0.03543*%
%ADD052R,0.03543X0.05512*%
%ADD053R,0.23622X0.23622*%
%ADD054R,0.07087X0.05512*%
%ADD055R,0.07087X0.13386*%
%ADD056R,0.05315X0.02362*%
%ADD057R,0.05315X0.00984*%
%ADD058O,0.07087X0.05906*%
%ADD059C,0.02913*%
%ADD060R,0.09449X0.02913*%
%ADD061R,0.036X0.032*%
%ADD062R,0.02323X0.01772*%
%ADD063R,0.0189X0.01575*%
%ADD065C,0.04528*%
*
*
*
*
G04 PC Circuitry*
G04 Layer Name ESP32-Sense-Series-Main - circuitry*
%LPD*%
*
*
G04 PC Custom Flashes*
G04 Layer Name ESP32-Sense-Series-Main - flashes*
%LPD*%
*
*
G04 PC Circuitry*
G04 Layer Name ESP32-Sense-Series-Main - circuitry*
%LPD*%
*
G54D10*
G54D11*
G01X1959707Y1512917D02*
X1967176Y1520387D01*
X1986807*
X1989507Y1523087*
X1959707Y1512917D02*
Y1495157D01*
X1963823Y1491041*
X1924977Y1521767D02*
Y1543966D01*
X1928589Y1547578*
X1924977Y1521767D02*
X1944107Y1502637D01*
Y1495009*
X1948075Y1491041*
X1940201D02*
Y1490175D01*
X1963823Y1498915D02*
Y1512167D01*
X1969442Y1517787*
X1989207*
X1994507Y1523087*
X1955949Y1498915D02*
Y1521796D01*
X1954507Y1533406D02*
X1954577Y1534587D01*
Y1527167*
Y1523167D02*
X1955949Y1521796D01*
X1928589Y1541078D02*
Y1524167D01*
X1948075Y1504682*
Y1498915*
X1931418Y1543907D02*
X1933004Y1545493D01*
X1937323*
X1933577Y1528167D02*
X1951577Y1510167D01*
Y1495413*
X1955949Y1491041*
X1933577Y1532167D02*
Y1537732D01*
X1936338Y1540493*
X1937323*
X1967577Y1511167D02*
X1971577Y1515167D01*
X1997477*
X2008477Y1526167*
X1967577Y1511167D02*
Y1495161D01*
X1971697Y1491041*
Y1498915D02*
Y1509803D01*
X1974561Y1512667*
X2002477*
X2014577Y1524767*
Y1541667*
X2008477Y1530167D02*
X2012577D01*
X2006614Y1545493D02*
X2014403D01*
X2014577Y1545667*
X2006614Y1540493D02*
X2007461D01*
X2008477Y1539477*
Y1530167*
X1994507Y1527087D02*
Y1533406D01*
X1989507Y1527087D02*
Y1533406D01*
X2016577Y1530167D02*
X2025567Y1521177D01*
X2069655*
X2072355Y1523877*
Y1568064*
X1922177Y1554666D02*
Y1516939D01*
X1940201Y1498915*
X1922177Y1554666D02*
X1928589Y1561078D01*
X1919377Y1558366D02*
Y1511865D01*
X1940201Y1491041*
X1919377Y1558366D02*
X1928589Y1567578D01*
X1937323Y1550493D02*
X1938504Y1550407D01*
X1937323Y1570493D02*
X1938504Y1570407D01*
X1931418*
Y1550407D02*
X1938504D01*
X1931418Y1563907D02*
X1933004Y1565493D01*
X1937323*
X2062424Y1571436D02*
X2065715D01*
X2068982*
X2072355Y1568064D02*
X2068982Y1571436D01*
X2065715*
X2068982D02*
X2074523Y1576977D01*
X2077955*
X2019971Y1491041D02*
G75*
G03X2019971I-3314J0D01*
G01Y1498915D02*
G03X2019971I-3314J0D01*
G01X2023014Y1518574D02*
G03X2022868Y1518927I-500J-0D01*
G01X2019229Y1522566*
G03X2018445Y1522468I-354J-354*
G01X2017759Y1521585D02*
G03X2018445Y1522468I-3182J3182D01*
G01X2017759Y1521585D02*
X2005659Y1509485D01*
X2002477Y1508167D02*
G03X2005659Y1509485I0J4500D01*
G01X2002477Y1508167D02*
X1976697D01*
G03X1976197Y1507667I-0J-500*
G01Y1503834*
G03X1976341Y1503483I500J-0*
G01X1978211Y1498915D02*
G03X1976341Y1503483I-6514J0D01*
G01X1977890Y1496896D02*
G03X1978211Y1498915I-6193J2019D01*
G01X1977890Y1496896D02*
G03X1977865Y1496741I475J-155D01*
X1978365Y1496241I500J-0*
G01X1983427*
X1983677Y1495991D02*
G03X1983427Y1496241I-250J-0D01*
G01X1983677Y1495991D02*
Y1484203D01*
X1983427Y1483953D02*
G03X1983677Y1484203I-0J250D01*
G01X1983427Y1483953D02*
X1933304D01*
X1933054Y1484203D02*
G03X1933304Y1483953I250J0D01*
G01X1933054Y1484203D02*
Y1491617D01*
G03X1932907Y1491971I-500J0*
G01X1916195Y1508683*
X1914877Y1511865D02*
G03X1916195Y1508683I4500J-0D01*
G01X1914877Y1511865D02*
Y1558366D01*
X1916196Y1561549D02*
G03X1914877Y1558366I3181J-3183D01*
G01X1916196Y1561549D02*
X1922889Y1568242D01*
G03X1923024Y1568488I-354J353*
G01X1924170Y1570584D02*
G03X1923024Y1568488I3005J-3006D01*
G01X1924170Y1570584D02*
X1924459Y1570873D01*
G03X1924606Y1571227I-353J354*
X1924106Y1571727I-500J-0*
G01X1914522*
G03X1914168Y1571580I-0J-500*
G01X1912623Y1570035*
G03X1912477Y1569682I354J-353*
G01Y1468727*
G03X1912977Y1468227I500J-0*
G01X2022514*
G03X2023014Y1468727I0J500*
G01Y1487804*
G03X2022778Y1488229I-500J0*
G01X2021217Y1491041D02*
G03X2022778Y1488229I3314J0D01*
G01Y1493854D02*
G03X2021217Y1491041I1753J-2813D01*
G01X2022778Y1493854D02*
G03X2023014Y1494278I-264J424D01*
G01Y1495678*
G03X2022778Y1496103I-500J0*
G01X2021217Y1498915D02*
G03X2022778Y1496103I3314J0D01*
G01Y1501728D02*
G03X2021217Y1498915I1753J-2813D01*
G01X2022778Y1501728D02*
G03X2023014Y1502152I-264J424D01*
G01Y1518574*
X1984309Y1525387D02*
G03X1984303Y1525460I-500J-0D01*
G01X1984257Y1526087D02*
G03X1984303Y1525460I4250J-0D01*
G01X1984257Y1526087D02*
Y1528055D01*
G03X1984176Y1528329I-500J0*
G01X1983718Y1529263D02*
G03X1984176Y1528329I4018J1387D01*
G01X1983718Y1529263D02*
G03X1983246Y1529600I-472J-163D01*
G01X1982736*
X1982242Y1529723D02*
G03X1982736Y1529600I494J927D01*
G01X1982242Y1529723D02*
G03X1981772I-235J-441D01*
G01X1981279Y1529600D02*
G03X1981772Y1529723I0J1050D01*
G01X1981279Y1529600D02*
X1977736D01*
X1977242Y1529723D02*
G03X1977736Y1529600I494J927D01*
G01X1977242Y1529723D02*
G03X1976772I-235J-441D01*
G01X1976279Y1529600D02*
G03X1976772Y1529723I0J1050D01*
G01X1976279Y1529600D02*
X1972736D01*
X1972242Y1529723D02*
G03X1972736Y1529600I494J927D01*
G01X1972242Y1529723D02*
G03X1971772I-235J-441D01*
G01X1971279Y1529600D02*
G03X1971772Y1529723I0J1050D01*
G01X1971279Y1529600D02*
X1967736D01*
X1967242Y1529723D02*
G03X1967736Y1529600I494J927D01*
G01X1967242Y1529723D02*
G03X1966772I-235J-441D01*
G01X1966279Y1529600D02*
G03X1966772Y1529723I0J1050D01*
G01X1966279Y1529600D02*
X1962736D01*
X1962242Y1529723D02*
G03X1962736Y1529600I494J927D01*
G01X1962242Y1529723D02*
G03X1961772I-235J-441D01*
G01X1961279Y1529600D02*
G03X1961772Y1529723I0J1050D01*
G01X1961279Y1529600D02*
X1960769D01*
G03X1960296Y1529263I0J-500*
G01X1959901Y1528427D02*
G03X1960296Y1529263I-3622J2223D01*
G01X1959901Y1528427D02*
G03X1959827Y1528165I426J-262D01*
G01Y1526167*
X1959732Y1525273D02*
G03X1959827Y1526167I-4155J894D01*
G01X1959732Y1525273D02*
G03X1959721Y1525167I489J-106D01*
G01X1959721*
G03X1959732Y1525062I500J0*
G01X1959827Y1524206D02*
G03X1959732Y1525062I-4250J-39D01*
G01X1959827Y1524206D02*
G03X1959889Y1523969I500J5D01*
G01X1960449Y1521796D02*
G03X1959889Y1523969I-4500J-0D01*
G01X1960449Y1521796D02*
Y1521230D01*
G03X1961303Y1520877I500J0*
G01X1963994Y1523569*
X1967176Y1524887D02*
G03X1963994Y1523569I0J-4500D01*
G01X1967176Y1524887D02*
X1983809D01*
G03X1984309Y1525387I-0J500*
G01X1951449Y1518211D02*
G03X1951226Y1518627I-500J-0D01*
G01X1949327Y1522167D02*
G03X1951226Y1518627I4250J0D01*
G01X1949327Y1522167D02*
Y1524167D01*
X1949423Y1525062D02*
G03X1949327Y1524167I4154J-895D01*
G01X1949423Y1525062D02*
G03X1949434Y1525167I-489J105D01*
G01X1949434*
G03X1949423Y1525273I-500J0*
G01X1949327Y1526167D02*
G03X1949423Y1525273I4250J0D01*
G01X1949327Y1526167D02*
Y1527951D01*
G03X1949239Y1528235I-500J-0*
G01X1948486Y1530650D02*
G03X1949239Y1528235I4250J0D01*
G01X1948486Y1530650D02*
Y1536162D01*
X1949057Y1538290D02*
G03X1948486Y1536162I3679J-2128D01*
G01X1949057Y1538290D02*
G03X1949124Y1538541I-433J251D01*
X1948624Y1539041I-500J-0*
G01X1944825*
G03X1944326Y1538560I0J-500*
G01X1940079Y1534471D02*
G03X1944326Y1538560I-0J4250D01*
G01X1940079Y1534471D02*
X1939259D01*
G03X1938759Y1533971I-0J-500*
G01X1938759*
G03X1938766Y1533887I500J0*
G01X1938827Y1533167D02*
G03X1938766Y1533887I-4250J0D01*
G01X1938827Y1533167D02*
Y1531167D01*
X1938732Y1530273D02*
G03X1938827Y1531167I-4155J894D01*
G01X1938732Y1530273D02*
G03X1938721Y1530167I489J-106D01*
G01X1938721*
G03X1938732Y1530062I500J0*
G01X1938817Y1529465D02*
G03X1938732Y1530062I-4240J-298D01*
G01X1938817Y1529465D02*
G03X1938962Y1529146I499J35D01*
G01X1950595Y1517513*
G03X1951449Y1517867I354J354*
G01Y1518211*
X2019971Y1491041D02*
G03X2019971I-3314J0D01*
G01Y1498915D02*
G03X2019971I-3314J0D01*
G01X1973519Y1468227D02*
X2023014Y1517722D01*
X1980590Y1468227D02*
X2023014Y1510650D01*
X2019688Y1500254D02*
X2023014Y1503579D01*
X2008875Y1468227D02*
X2023014Y1482366D01*
X2015946Y1468227D02*
X2023014Y1475295D01*
X2019402Y1492897D02*
X2022675Y1496170D01*
X2001803Y1468227D02*
X2022232Y1488655D01*
X1983677Y1485456D02*
X2020008Y1521787D01*
X1987661Y1468227D02*
X2015318Y1495884D01*
X1994732Y1468227D02*
X2014801Y1488296D01*
X1983677Y1492527D02*
X1999318Y1508167D01*
X1980320Y1496241D02*
X1992247Y1508167D01*
X1977903Y1500895D02*
X1985175Y1508167D01*
X1966448Y1468227D02*
X1982175Y1483953D01*
X1976197Y1506260D02*
X1978104Y1508167D01*
X1959377Y1468227D02*
X1975103Y1483953D01*
X1952306Y1468227D02*
X1968032Y1483953D01*
X1945235Y1468227D02*
X1960961Y1483953D01*
X1938164Y1468227D02*
X1953890Y1483953D01*
X1931093Y1468227D02*
X1946819Y1483953D01*
X1924022Y1468227D02*
X1939748Y1483953D01*
X1912477Y1470824D02*
X1933054Y1491401D01*
X1916951Y1468227D02*
X1933054Y1484330D01*
X1912477Y1477895D02*
X1929730Y1495148D01*
X1912477Y1484966D02*
X1926194Y1498684D01*
X1912477Y1492037D02*
X1922659Y1502219D01*
X1912477Y1562748D02*
X1921456Y1571727D01*
X1912477Y1499108D02*
X1919123Y1505755D01*
X1912477Y1506179D02*
X1915646Y1509349D01*
X1912477Y1555677D02*
X1914877Y1558077D01*
X1912477Y1548606D02*
X1914877Y1551006D01*
X1912477Y1541535D02*
X1914877Y1543935D01*
X1912477Y1534464D02*
X1914877Y1536864D01*
X1912477Y1527393D02*
X1914877Y1529793D01*
X1912477Y1520322D02*
X1914877Y1522722D01*
X1912477Y1513250D02*
X1914877Y1515651D01*
X1912505Y1569847D02*
X1914357Y1571699D01*
X1980682Y1524887D02*
X1984155Y1528360D01*
X1973611Y1524887D02*
X1978324Y1529600D01*
X1966486Y1524833D02*
X1971253Y1529600D01*
X1959722Y1525140D02*
X1964182Y1529600D01*
X1947810Y1520299D02*
X1949341Y1521830D01*
X1944274Y1523834D02*
X1949022Y1528583D01*
X1940739Y1527370D02*
X1948486Y1535117D01*
X1944261Y1537963D02*
X1945338Y1539041D01*
X1938827Y1532530D02*
X1940837Y1534540D01*
X2016219Y1520045D02*
X2023014Y1513250D01*
X2012684Y1516510D02*
X2023014Y1506179D01*
X2019137Y1488843D02*
X2023014Y1484966D01*
X1992742Y1508167D02*
X2023014Y1477895D01*
X1985671Y1508167D02*
X2023014Y1470824D01*
X2018725Y1496326D02*
X2021942Y1493109D01*
X2009148Y1512974D02*
X2021621Y1500501D01*
X1978600Y1508167D02*
X2018540Y1468227D01*
X1999813Y1508167D02*
X2014459Y1493521D01*
X2005612Y1509439D02*
X2014068Y1500983D01*
X1983675Y1496021D02*
X2011469Y1468227D01*
X1983677Y1488948D02*
X2004398Y1468227D01*
X1981601Y1483953D02*
X1997327Y1468227D01*
X1974530Y1483953D02*
X1990256Y1468227D01*
X1977004Y1502692D02*
X1983457Y1496239D01*
X1967459Y1483953D02*
X1983185Y1468227D01*
X1960387Y1483953D02*
X1976114Y1468227D01*
X1953316Y1483953D02*
X1969043Y1468227D01*
X1946245Y1483953D02*
X1961972Y1468227D01*
X1939174Y1483953D02*
X1954901Y1468227D01*
X1912477Y1503579D02*
X1947830Y1468227D01*
X1912477Y1496508D02*
X1940759Y1468227D01*
X1912477Y1489437D02*
X1933688Y1468227D01*
X1912477Y1510650D02*
X1933054Y1490073D01*
X1912477Y1482366D02*
X1926616Y1468227D01*
X1922111Y1571727D02*
X1923747Y1570091D01*
X1915040Y1571727D02*
X1920707Y1566060D01*
X1912477Y1475295D02*
X1919545Y1468227D01*
X1912477Y1567219D02*
X1917171Y1562524D01*
X1912477Y1560148D02*
X1914877Y1557748D01*
X1912477Y1553077D02*
X1914877Y1550677D01*
X1912477Y1546006D02*
X1914877Y1543605D01*
X1912477Y1538935D02*
X1914877Y1536534D01*
X1912477Y1531864D02*
X1914877Y1529463D01*
X1912477Y1524793D02*
X1914877Y1522392D01*
X1912477Y1517722D02*
X1914877Y1515321D01*
X1978380Y1529600D02*
X1983094Y1524887D01*
X1971309Y1529601D02*
X1976023Y1524887D01*
X1964238Y1529600D02*
X1968952Y1524887D01*
X1959827Y1526940D02*
X1963596Y1523171D01*
X1938772Y1533853D02*
X1949327Y1523298D01*
X1947726Y1539041D02*
X1948860Y1537907D01*
X1943498Y1536198D02*
X1948486Y1531210D01*
G54D12*
X1866577Y1544407D02*
X1867177D01*
Y1549907*
X1862077Y1544407D02*
Y1549907D01*
X1897505Y1528434D02*
X1900264D01*
X1902264Y1530434*
Y1561727*
X1914514Y1573977*
X1928827*
X1930927Y1576077*
Y1578291*
X1867177Y1549907D02*
X1867077D01*
Y1551482*
X1876827Y1561232*
Y1574331*
X1885127Y1582631*
X1903264*
X1907109Y1586477*
X1929764*
X1930627Y1586491*
X1862077Y1549907D02*
Y1551482D01*
X1874827Y1564232*
Y1577031*
X1882427Y1584631*
X1902264*
X1906200Y1588567*
X1929777*
X1890427Y1577648D02*
X1890220D01*
X1892489Y1579917*
X1903764*
X1908073Y1584227*
X1929764*
X1943996Y1587431D02*
X1952896Y1596331D01*
X1989727*
X2005566Y1580493*
X2006614*
X1941996Y1585681D02*
X1945046D01*
X1953896Y1594531*
X1987727*
X2001977Y1580281*
Y1574186*
X2005670Y1570493*
X2006614*
X1941996Y1588931D02*
X1950982Y1597917D01*
X1990727*
X1993152Y1595493*
X2006614*
X1941996Y1597431D02*
X1945882Y1601317D01*
X1992891*
X1993716Y1600493*
X2006614*
X1941996Y1579681D02*
X1954982Y1592667D01*
X1986191*
X1999977Y1578881*
Y1571036*
X2005520Y1565493*
X2006614*
X1937323Y1575493D02*
X1940496D01*
X1955634Y1590631*
X1985627*
X1996927Y1579291*
Y1569741*
X1937323Y1595493D02*
X1944179D01*
X1948104Y1599417*
X1991977*
X1993227Y1598167*
X2002477*
X1899177Y1577648D02*
X1904514D01*
X1908842Y1581977*
X1929764*
X1928014Y1578727D02*
Y1579327D01*
X1928764*
X1929664Y1580227*
X1931514*
X1936248Y1575493*
X1937323*
X2006614Y1590493D02*
X2011014D01*
X2006614Y1585493D02*
X2006714Y1585593D01*
X2015214*
X2006614Y1560493D02*
X2021814D01*
X2047004Y1535303*
X2059229*
X2067555Y1526977*
X2006614Y1555493D02*
X2022814D01*
X2045314Y1532993*
X2051539*
X2057555Y1526977*
X2006614Y1550493D02*
X2024039D01*
X2047555Y1526977*
X2075469Y1566436D02*
X2081069D01*
X2075569Y1561436D02*
X2081069D01*
X2075469Y1571436D02*
X2081069D01*
G54D14*
X2042796Y1621448D02*
X2041132Y1619783D01*
Y1616612*
X2042196Y1615548*
X2046133*
X2049891Y1611789*
Y1605195*
X2050512Y1604574*
X2052660*
X2053109Y1605023*
Y1613912*
X2045573Y1621448*
X2042796*
X2019148Y1599101D02*
X2017888Y1597840D01*
Y1585211*
X2018951Y1584147*
X2037782*
X2042113Y1588477*
X2050479*
X2053117Y1591116*
Y1592919*
X2051660Y1594377*
X2042838*
X2038114Y1599101*
X2019148*
X2048108Y1613573D02*
X2053109D01*
X2048468Y1613213D02*
X2053109D01*
X2048828Y1612853D02*
X2053109D01*
X2049188Y1612493D02*
X2053109D01*
X2049548Y1612133D02*
X2053109D01*
X2049891Y1611773D02*
X2053109D01*
X2049891Y1611413D02*
X2053109D01*
X2049891Y1611053D02*
X2053109D01*
X2049891Y1610693D02*
X2053109D01*
X2049891Y1610333D02*
X2053109D01*
X2049891Y1609973D02*
X2053109D01*
X2049891Y1609613D02*
X2053109D01*
X2049891Y1609253D02*
X2053109D01*
X2049891Y1608893D02*
X2053109D01*
X2049891Y1608533D02*
X2053109D01*
X2049891Y1608173D02*
X2053109D01*
X2049891Y1607813D02*
X2053109D01*
X2049891Y1607453D02*
X2053109D01*
X2049891Y1607093D02*
X2053109D01*
X2049891Y1606733D02*
X2053109D01*
X2049891Y1606373D02*
X2053109D01*
X2049891Y1606013D02*
X2053109D01*
X2049891Y1605653D02*
X2053109D01*
X2049891Y1605293D02*
X2053109D01*
X2047748Y1613933D02*
X2053088D01*
X2050154Y1604933D02*
X2053018D01*
X2047388Y1614293D02*
X2052728D01*
X2047028Y1614653D02*
X2052368D01*
X2046668Y1615013D02*
X2052008D01*
X2046308Y1615373D02*
X2051648D01*
X2042011Y1615733D02*
X2051288D01*
X2041651Y1616093D02*
X2050928D01*
X2041291Y1616453D02*
X2050568D01*
X2041132Y1616813D02*
X2050208D01*
X2041132Y1617173D02*
X2049848D01*
X2041132Y1617533D02*
X2049488D01*
X2041132Y1617893D02*
X2049128D01*
X2041132Y1618253D02*
X2048768D01*
X2041132Y1618613D02*
X2048408D01*
X2041132Y1618973D02*
X2048048D01*
X2041132Y1619333D02*
X2047688D01*
X2041132Y1619693D02*
X2047328D01*
X2041401Y1620053D02*
X2046968D01*
X2041761Y1620413D02*
X2046608D01*
X2042121Y1620773D02*
X2046248D01*
X2042481Y1621133D02*
X2045888D01*
X2017888Y1592785D02*
X2053117D01*
X2017888Y1592425D02*
X2053117D01*
X2017888Y1592065D02*
X2053117D01*
X2017888Y1591705D02*
X2053117D01*
X2017888Y1591345D02*
X2053117D01*
X2017888Y1590985D02*
X2052987D01*
X2017888Y1593145D02*
X2052891D01*
X2017888Y1590625D02*
X2052627D01*
X2017888Y1593505D02*
X2052531D01*
X2017888Y1590265D02*
X2052267D01*
X2017888Y1593865D02*
X2052171D01*
X2017888Y1589905D02*
X2051907D01*
X2017888Y1594225D02*
X2051811D01*
X2017888Y1589545D02*
X2051547D01*
X2017888Y1589185D02*
X2051187D01*
X2017888Y1588825D02*
X2050827D01*
X2017888Y1594585D02*
X2042630D01*
X2017888Y1594945D02*
X2042270D01*
X2017888Y1588465D02*
X2042101D01*
X2017888Y1595305D02*
X2041910D01*
X2017888Y1588105D02*
X2041741D01*
X2017888Y1595665D02*
X2041550D01*
X2017888Y1587745D02*
X2041381D01*
X2017888Y1596025D02*
X2041190D01*
X2017888Y1587385D02*
X2041021D01*
X2017888Y1596385D02*
X2040830D01*
X2017888Y1587025D02*
X2040661D01*
X2017888Y1596745D02*
X2040470D01*
X2017888Y1586665D02*
X2040301D01*
X2017888Y1597105D02*
X2040110D01*
X2017888Y1586305D02*
X2039941D01*
X2017888Y1597465D02*
X2039750D01*
X2017888Y1585945D02*
X2039581D01*
X2017888Y1597825D02*
X2039390D01*
X2017888Y1585585D02*
X2039221D01*
X2018233Y1598185D02*
X2039030D01*
X2017888Y1585225D02*
X2038861D01*
X2018593Y1598545D02*
X2038670D01*
X2018233Y1584865D02*
X2038501D01*
X2018953Y1598905D02*
X2038310D01*
X2018593Y1584505D02*
X2038141D01*
X2075471Y1621919D02*
G03X2075471I-2131J0D01*
G01X1869635Y1494978D02*
G03X1869635I-12208J0D01*
G01X2074553D02*
G03X2074553I-12208J0D01*
G01X2043543Y1491041D02*
G03X2043543I-3264J0D01*
G01Y1498915D02*
G03X2043543I-3264J0D01*
G01X2035669Y1491041D02*
G03X2035669I-3264J0D01*
G01Y1498915D02*
G03X2035669I-3264J0D01*
G01X2088368Y1629819D02*
G03Y1629828I-400J0D01*
X2083462Y1634541I-4817J-104*
G01X2083462*
X2083439D02*
G03X2083462I0J1200D01*
G01X2083439D02*
X2018864D01*
G03X2018464Y1634141I0J-400*
G01Y1607241*
X1923564*
Y1634109*
G03X1923164Y1634509I-400J-0*
G01X1833353Y1634540*
G03X1831627Y1632815I-0J-1726*
G01Y1468977*
G03X1832027Y1468577I400J-0*
G01X1905927*
G03X1906327Y1468977I-0J400*
G01Y1488692*
X1906327D02*
G03X1905620Y1488949I-400J0D01*
G01X1905030Y1488398D02*
G03X1905620Y1488949I-1915J2643D01*
G01X1905030Y1488398D02*
G03X1904865Y1488075I235J-323D01*
G01Y1487214*
X1904352Y1485977D02*
G03X1904865Y1487214I-1237J1237D01*
G01X1904352Y1485977D02*
X1901341Y1482966D01*
X1900104Y1482453D02*
G03X1901341Y1482966I-0J1750D01*
G01X1900104Y1482453D02*
X1877977D01*
X1876740Y1482966D02*
G03X1877977Y1482453I1237J1237D01*
G01X1876740Y1482966D02*
X1871740Y1487966D01*
X1871227Y1489203D02*
G03X1871740Y1487966I1750J0D01*
G01X1871227Y1489203D02*
Y1505877D01*
G03X1871110Y1506160I-400J-0*
G01X1866734Y1510536*
G03X1866451Y1510653I-283J-283*
G01X1858904*
X1857666Y1511166D02*
G03X1858904Y1510653I1238J1237D01*
G01X1857666Y1511166D02*
X1855667Y1513165D01*
X1855154Y1514403D02*
G03X1855667Y1513165I1750J0D01*
G01X1855902Y1515838D02*
G03X1855154Y1514403I1002J-1435D01*
G01X1855902Y1515838D02*
G03X1856073Y1516166I-229J328D01*
X1855956Y1516449I-400J0*
G01X1846046Y1526359*
X1845577Y1527491D02*
G03X1846046Y1526359I1600J-0D01*
G01X1845577Y1527491D02*
Y1536978D01*
G03X1845549Y1537125I-400J0*
G01X1845427Y1537767D02*
G03X1845549Y1537125I1750J0D01*
G01X1845427Y1537767D02*
X1845427D01*
X1845502Y1538272D02*
G03X1845427Y1537767I1675J-505D01*
G01X1845502Y1538272D02*
G03X1845519Y1538387I-383J115D01*
X1845392Y1538679I-400J0*
G01X1845077Y1539407D02*
G03X1845392Y1538679I1000J0D01*
G01X1845077Y1539407D02*
Y1541407D01*
X1845377Y1542122D02*
G03X1845077Y1541407I700J-715D01*
G01X1845377Y1542122D02*
G03X1845497Y1542407I-280J285D01*
X1845377Y1542693I-400J0*
G01X1845077Y1543407D02*
G03X1845377Y1542693I1000J0D01*
G01X1845077Y1543407D02*
Y1545407D01*
X1845237Y1545950D02*
G03X1845077Y1545407I840J-543D01*
G01X1845237Y1545950D02*
G03X1845301Y1546167I-336J217D01*
X1845185Y1546448I-400J-0*
G01X1844954Y1546816D02*
G03X1845185Y1546448I942J336D01*
G01X1844954Y1546816D02*
G03X1844200I-377J-134D01*
G01X1843969Y1546448D02*
G03X1844200Y1546816I-711J704D01*
G01X1843969Y1546448D02*
G03X1843854Y1546167I284J-281D01*
G01X1843853D02*
G03X1843917Y1545950I400J-0D01*
G01X1844077Y1545407D02*
G03X1843917Y1545950I-1000J0D01*
G01X1844077Y1545407D02*
Y1543407D01*
X1843777Y1542693D02*
G03X1844077Y1543407I-700J714D01*
G01X1843777Y1542693D02*
G03X1843657Y1542407I280J-286D01*
X1843777Y1542122I400J0*
G01X1844077Y1541407D02*
G03X1843777Y1542122I-1000J0D01*
G01X1844077Y1541407D02*
Y1539407D01*
X1843725Y1538645D02*
G03X1844077Y1539407I-648J762D01*
G01X1843725Y1538645D02*
G03X1843584Y1538340I259J-305D01*
X1843610Y1538196I400J0*
G01X1843727Y1537567D02*
G03X1843610Y1538196I-1750J0D01*
G01X1840227Y1537567D02*
G03X1843727I1750J0D01*
G01X1840349Y1538209D02*
G03X1840227Y1537567I1628J-642D01*
G01X1840349Y1538209D02*
G03X1840377Y1538356I-372J147D01*
G01Y1538541*
G03X1840292Y1538789I-400J0*
G01X1840077Y1539407D02*
G03X1840292Y1538789I1000J0D01*
G01X1840077Y1539407D02*
Y1541407D01*
X1840377Y1542122D02*
G03X1840077Y1541407I700J-715D01*
G01X1840377Y1542122D02*
G03X1840497Y1542407I-280J285D01*
X1840377Y1542693I-400J0*
G01X1840077Y1543407D02*
G03X1840377Y1542693I1000J0D01*
G01X1840077Y1543407D02*
Y1545407D01*
X1840237Y1545950D02*
G03X1840077Y1545407I840J-543D01*
G01X1840237Y1545950D02*
G03X1840301Y1546167I-336J217D01*
X1840185Y1546448I-400J-0*
G01X1839896Y1547152D02*
G03X1840185Y1546448I1000J-0D01*
G01X1839896Y1547152D02*
Y1547432D01*
G03X1839121Y1547571I-400J-0*
G01X1838767Y1546954D02*
G03X1839121Y1547571I-1690J1379D01*
G01X1838767Y1546954D02*
G03X1838677Y1546701I310J-253D01*
G01Y1546387*
G03X1838792Y1546107I400J0*
G01X1839077Y1545407D02*
G03X1838792Y1546107I-1000J0D01*
G01X1839077Y1545407D02*
Y1543407D01*
X1838777Y1542693D02*
G03X1839077Y1543407I-700J714D01*
G01X1838777Y1542693D02*
G03X1838657Y1542407I280J-286D01*
X1838777Y1542122I400J0*
G01X1839077Y1541407D02*
G03X1838777Y1542122I-1000J0D01*
G01X1839077Y1541407D02*
Y1539407D01*
X1838725Y1538645D02*
G03X1839077Y1539407I-648J762D01*
G01X1838725Y1538645D02*
G03X1838584Y1538340I259J-305D01*
X1838610Y1538196I400J0*
G01X1838727Y1537567D02*
G03X1838610Y1538196I-1750J0D01*
G01X1835227Y1537567D02*
G03X1838727I1750J0D01*
G01X1835349Y1538209D02*
G03X1835227Y1537567I1628J-642D01*
G01X1835349Y1538209D02*
G03X1835377Y1538356I-372J147D01*
G01Y1538541*
G03X1835292Y1538789I-400J0*
G01X1835077Y1539407D02*
G03X1835292Y1538789I1000J0D01*
G01X1835077Y1539407D02*
Y1541407D01*
X1835377Y1542122D02*
G03X1835077Y1541407I700J-715D01*
G01X1835377Y1542122D02*
G03X1835497Y1542407I-280J285D01*
X1835377Y1542693I-400J0*
G01X1835077Y1543407D02*
G03X1835377Y1542693I1000J0D01*
G01X1835077Y1543407D02*
Y1545407D01*
X1835363Y1546107D02*
G03X1835077Y1545407I714J-700D01*
G01X1835363Y1546107D02*
G03X1835477Y1546387I-286J280D01*
G01Y1546701*
G03X1835387Y1546954I-400J-0*
G01X1834896Y1548333D02*
G03X1835387Y1546954I2181J-0D01*
G01X1834896Y1548333D02*
Y1551482D01*
X1837077Y1553663D02*
G03X1834896Y1551482I0J-2181D01*
G01X1837077Y1553663D02*
X1837077D01*
X1839121Y1552243D02*
G03X1837077Y1553663I-2044J-761D01*
G01X1839121Y1552243D02*
G03X1839896Y1552383I375J140D01*
G01Y1552663*
X1840896Y1553663D02*
G03X1839896Y1552663I0J-1000D01*
G01X1840896Y1553663D02*
X1843258D01*
X1844200Y1552999D02*
G03X1843258Y1553663I-942J-336D01*
G01X1844200Y1552999D02*
G03X1844954I377J134D01*
G01X1845896Y1553663D02*
G03X1844954Y1552999I0J-1000D01*
G01X1845896Y1553663D02*
X1848258D01*
X1849200Y1552999D02*
G03X1848258Y1553663I-942J-336D01*
G01X1849200Y1552999D02*
G03X1849954I377J134D01*
G01X1850896Y1553663D02*
G03X1849954Y1552999I0J-1000D01*
G01X1850896Y1553663D02*
X1853258D01*
X1854200Y1552999D02*
G03X1853258Y1553663I-942J-336D01*
G01X1854200Y1552999D02*
G03X1854954I377J134D01*
G01X1855896Y1553663D02*
G03X1854954Y1552999I0J-1000D01*
G01X1855896Y1553663D02*
X1858258D01*
X1859200Y1552999D02*
G03X1858258Y1553663I-942J-336D01*
G01X1859200Y1552999D02*
G03X1859954I377J134D01*
G01X1860896Y1553663D02*
G03X1859954Y1552999I0J-1000D01*
G01X1860896Y1553663D02*
X1862113D01*
G03X1862396Y1553780I-0J400*
G01X1873310Y1564695*
G03X1873427Y1564978I-283J283*
G01Y1567011*
G03X1873027Y1567411I-400J0*
G01X1870896*
X1869954Y1568076D02*
G03X1870896Y1567411I942J335D01*
G01X1869954Y1568076D02*
G03X1869200I-377J-134D01*
G01X1868258Y1567411D02*
G03X1869200Y1568076I0J1000D01*
G01X1868258Y1567411D02*
X1865896D01*
X1864954Y1568076D02*
G03X1865896Y1567411I942J335D01*
G01X1864954Y1568076D02*
G03X1864200I-377J-134D01*
G01X1863258Y1567411D02*
G03X1864200Y1568076I0J1000D01*
G01X1863258Y1567411D02*
X1860896D01*
X1859954Y1568076D02*
G03X1860896Y1567411I942J335D01*
G01X1859954Y1568076D02*
G03X1859200I-377J-134D01*
G01X1858258Y1567411D02*
G03X1859200Y1568076I0J1000D01*
G01X1858258Y1567411D02*
X1855896D01*
X1854954Y1568076D02*
G03X1855896Y1567411I942J335D01*
G01X1854954Y1568076D02*
G03X1854200I-377J-134D01*
G01X1853258Y1567411D02*
G03X1854200Y1568076I0J1000D01*
G01X1853258Y1567411D02*
X1850896D01*
X1849954Y1568076D02*
G03X1850896Y1567411I942J335D01*
G01X1849954Y1568076D02*
G03X1849200I-377J-134D01*
G01X1848258Y1567411D02*
G03X1849200Y1568076I0J1000D01*
G01X1848258Y1567411D02*
X1845896D01*
X1844954Y1568076D02*
G03X1845896Y1567411I942J335D01*
G01X1844954Y1568076D02*
G03X1844200I-377J-134D01*
G01X1843258Y1567411D02*
G03X1844200Y1568076I0J1000D01*
G01X1843258Y1567411D02*
X1840896D01*
X1839954Y1568076D02*
G03X1840896Y1567411I942J335D01*
G01X1839954Y1568076D02*
G03X1839200I-377J-134D01*
G01X1838258Y1567411D02*
G03X1839200Y1568076I0J1000D01*
G01X1838258Y1567411D02*
X1835896D01*
X1834896Y1568411D02*
G03X1835896Y1567411I1000J0D01*
G01X1834896Y1568411D02*
Y1573923D01*
X1834912Y1574098D02*
G03X1834896Y1573923I984J-175D01*
G01X1834912Y1574098D02*
G03X1834918Y1574168I-394J70D01*
X1834535Y1574568I-400J0*
G01X1833577Y1575567D02*
G03X1834535Y1574568I1000J0D01*
G01X1833577Y1575567D02*
Y1577567D01*
X1833877Y1578282D02*
G03X1833577Y1577567I700J-715D01*
G01X1833877Y1578282D02*
G03X1833997Y1578567I-280J285D01*
X1833877Y1578853I-400J0*
G01X1833577Y1579567D02*
G03X1833877Y1578853I1000J0D01*
G01X1833577Y1579567D02*
Y1581567D01*
X1833863Y1582267D02*
G03X1833577Y1581567I714J-700D01*
G01X1833863Y1582267D02*
G03X1833977Y1582547I-286J280D01*
G01Y1589488*
G03X1833645Y1589883I-400J0*
G01X1832816Y1590868D02*
G03X1833645Y1589883I1000J-0D01*
G01X1832816Y1590868D02*
Y1597167D01*
X1833647Y1598153D02*
G03X1832816Y1597167I169J-986D01*
G01X1833647Y1598153D02*
G03X1833979Y1598547I-68J394D01*
G01Y1605592*
G03X1833951Y1605739I-400J0*
G01X1833829Y1606381D02*
G03X1833951Y1605739I1750J0D01*
G01X1836392Y1607931D02*
G03X1833829Y1606381I-813J-1550D01*
G01X1836392Y1607931D02*
G03X1836977Y1608286I185J355D01*
G01Y1613555*
G03X1836860Y1613838I-400J-0*
G01X1835505Y1615192*
G03X1835382Y1615276I-282J-283*
G01X1834329Y1616881D02*
G03X1835382Y1615276I1750J0D01*
G01X1834451Y1617524D02*
G03X1834329Y1616881I1628J-643D01*
G01X1834451Y1617524D02*
G03X1834479Y1617670I-372J146D01*
G01Y1624901*
G03X1834079Y1625301I-400J-0*
G01X1833816*
X1832816Y1626301D02*
G03X1833816Y1625301I1000J0D01*
G01X1832816Y1626301D02*
Y1632600D01*
X1833816Y1633600D02*
G03X1832816Y1632600I-0J-1000D01*
G01X1833816Y1633600D02*
X1837753D01*
X1838372Y1633386D02*
G03X1837753Y1633600I-619J-786D01*
G01X1838372Y1633386D02*
G03X1838867I247J314D01*
G01X1839485Y1633600D02*
G03X1838867Y1633386I0J-1000D01*
G01X1839485Y1633600D02*
X1843422D01*
X1844041Y1633386D02*
G03X1843422Y1633600I-619J-786D01*
G01X1844041Y1633386D02*
G03X1844536I247J314D01*
G01X1845154Y1633600D02*
G03X1844536Y1633386I0J-1000D01*
G01X1845154Y1633600D02*
X1849092D01*
X1849710Y1633386D02*
G03X1849092Y1633600I-618J-786D01*
G01X1849710Y1633386D02*
G03X1850205I248J314D01*
G01X1850824Y1633600D02*
G03X1850205Y1633386I-0J-1000D01*
G01X1850824Y1633600D02*
X1854761D01*
X1855379Y1633386D02*
G03X1854761Y1633600I-618J-786D01*
G01X1855379Y1633386D02*
G03X1855874I248J314D01*
G01X1856493Y1633600D02*
G03X1855874Y1633386I0J-1000D01*
G01X1856493Y1633600D02*
X1860430D01*
X1861104Y1633339D02*
G03X1860430Y1633600I-674J-739D01*
G01X1861104Y1633339D02*
G03X1861642I269J296D01*
G01X1862316Y1633600D02*
G03X1861642Y1633339I-0J-1000D01*
G01X1862316Y1633600D02*
X1866253D01*
X1866872Y1633386D02*
G03X1866253Y1633600I-619J-786D01*
G01X1866872Y1633386D02*
G03X1867367I247J314D01*
G01X1867985Y1633600D02*
G03X1867367Y1633386I0J-1000D01*
G01X1867985Y1633600D02*
X1871922D01*
X1872541Y1633386D02*
G03X1871922Y1633600I-619J-786D01*
G01X1872541Y1633386D02*
G03X1873036I247J314D01*
G01X1873654Y1633600D02*
G03X1873036Y1633386I0J-1000D01*
G01X1873654Y1633600D02*
X1877592D01*
X1878210Y1633386D02*
G03X1877592Y1633600I-618J-786D01*
G01X1878210Y1633386D02*
G03X1878705I248J314D01*
G01X1879324Y1633600D02*
G03X1878705Y1633386I-0J-1000D01*
G01X1879324Y1633600D02*
X1883261D01*
X1883879Y1633386D02*
G03X1883261Y1633600I-618J-786D01*
G01X1883879Y1633386D02*
G03X1884374I248J314D01*
G01X1884993Y1633600D02*
G03X1884374Y1633386I0J-1000D01*
G01X1884993Y1633600D02*
X1888930D01*
X1889604Y1633339D02*
G03X1888930Y1633600I-674J-739D01*
G01X1889604Y1633339D02*
G03X1890142I269J296D01*
G01X1890816Y1633600D02*
G03X1890142Y1633339I-0J-1000D01*
G01X1890816Y1633600D02*
X1894753D01*
X1895372Y1633386D02*
G03X1894753Y1633600I-619J-786D01*
G01X1895372Y1633386D02*
G03X1895867I247J314D01*
G01X1896485Y1633600D02*
G03X1895867Y1633386I0J-1000D01*
G01X1896485Y1633600D02*
X1900422D01*
X1901041Y1633386D02*
G03X1900422Y1633600I-619J-786D01*
G01X1901041Y1633386D02*
G03X1901536I247J314D01*
G01X1902154Y1633600D02*
G03X1901536Y1633386I0J-1000D01*
G01X1902154Y1633600D02*
X1906092D01*
X1906710Y1633386D02*
G03X1906092Y1633600I-618J-786D01*
G01X1906710Y1633386D02*
G03X1907205I248J314D01*
G01X1907824Y1633600D02*
G03X1907205Y1633386I-0J-1000D01*
G01X1907824Y1633600D02*
X1911761D01*
X1912379Y1633386D02*
G03X1911761Y1633600I-618J-786D01*
G01X1912379Y1633386D02*
G03X1912874I248J314D01*
G01X1913493Y1633600D02*
G03X1912874Y1633386I0J-1000D01*
G01X1913493Y1633600D02*
X1917430D01*
X1918430Y1632600D02*
G03X1917430Y1633600I-1000J0D01*
G01X1918430Y1632600D02*
Y1626301D01*
X1917576Y1625312D02*
G03X1918430Y1626301I-146J989D01*
G01X1917576Y1625312D02*
G03X1917234Y1624916I58J-396D01*
X1917242Y1624837I400J-0*
G01X1917277Y1624491D02*
G03X1917242Y1624837I-1750J-0D01*
G01X1917277Y1624491D02*
X1917277D01*
X1913777D02*
G03X1917277I1750J-0D01*
G01X1913777D02*
X1913777D01*
X1913809Y1624826D02*
G03X1913777Y1624491I1718J-335D01*
G01X1913809Y1624826D02*
G03X1913817Y1624903I-392J77D01*
X1913439Y1625302I-400J0*
G01X1912874Y1625515D02*
G03X1913439Y1625302I619J786D01*
G01X1912874Y1625515D02*
G03X1912379I-247J-314D01*
G01X1911761Y1625301D02*
G03X1912379Y1625515I-0J1000D01*
G01X1911761Y1625301D02*
X1911579D01*
G03X1911179Y1624901I-0J-400*
G01Y1622632*
G03X1911197Y1622513I400J0*
G01X1911277Y1621991D02*
G03X1911197Y1622513I-1750J-0D01*
G01X1907777Y1621991D02*
G03X1911277I1750J-0D01*
G01X1907941Y1622731D02*
G03X1907777Y1621991I1586J-740D01*
G01X1907941Y1622731D02*
G03X1907979Y1622900I-362J169D01*
G01Y1624923*
G03X1907649Y1625316I-400J-0*
G01X1907205Y1625515D02*
G03X1907649Y1625316I619J786D01*
G01X1907205Y1625515D02*
G03X1906710I-247J-314D01*
G01X1906221Y1625309D02*
G03X1906710Y1625515I-130J992D01*
G01X1906221Y1625309D02*
G03X1905873Y1624913I52J-396D01*
G01Y1598555*
G03X1906221Y1598159I400J0*
G01X1906710Y1597953D02*
G03X1906221Y1598159I-619J-786D01*
G01X1906710Y1597953D02*
G03X1907205I248J314D01*
G01X1907649Y1598152D02*
G03X1907205Y1597953I175J-985D01*
G01X1907649Y1598152D02*
G03X1907979Y1598546I-70J394D01*
G01Y1600592*
G03X1907951Y1600739I-400J0*
G01X1907829Y1601381D02*
G03X1907951Y1600739I1750J0D01*
G01X1911329Y1601381D02*
G03X1907829I-1750J0D01*
G01X1911207Y1600739D02*
G03X1911329Y1601381I-1628J642D01*
G01X1911207Y1600739D02*
G03X1911179Y1600592I372J-147D01*
G01Y1598567*
G03X1911579Y1598167I400J0*
G01X1911761*
X1912379Y1597953D02*
G03X1911761Y1598167I-618J-786D01*
G01X1912379Y1597953D02*
G03X1912874I248J314D01*
G01X1913464Y1598167D02*
G03X1912874Y1597953I29J-1000D01*
G01X1913464Y1598167D02*
G03X1913852Y1598567I-12J400D01*
X1913848Y1598625I-400J-0*
G01X1913829Y1598881D02*
G03X1913848Y1598625I1750J0D01*
G01X1917329Y1598881D02*
G03X1913829I-1750J0D01*
G01X1917329D02*
X1917329D01*
X1917307Y1598604D02*
G03X1917329Y1598881I-1728J277D01*
G01X1917307Y1598604D02*
G03X1917302Y1598541I395J-63D01*
X1917624Y1598148I400J-0*
G01X1918430Y1597167D02*
G03X1917624Y1598148I-1000J0D01*
G01X1918430Y1597167D02*
Y1590868D01*
X1918364Y1590510D02*
G03X1918430Y1590868I-934J358D01*
G01X1918364Y1590510D02*
G03X1918338Y1590367I374J-143D01*
X1918738Y1589967I400J0*
G01X1926060*
G03X1926460Y1590367I0J400*
X1926442Y1590487I-400J0*
G01X1926396Y1590788D02*
G03X1926442Y1590487I1000J-0D01*
G01X1926396Y1590788D02*
Y1592788D01*
X1926558Y1593333D02*
G03X1926396Y1592788I838J-545D01*
G01X1926558Y1593333D02*
G03X1926622Y1593551I-336J218D01*
X1925986Y1593874I-400J0*
G01X1925396Y1593681D02*
G03X1925986Y1593874I-0J1000D01*
G01X1925396Y1593681D02*
X1923396D01*
X1922396Y1594681D02*
G03X1923396Y1593681I1000J0D01*
G01X1922396Y1594681D02*
Y1596681D01*
X1922753Y1597447D02*
G03X1922396Y1596681I643J-766D01*
G01X1922753Y1597447D02*
G03X1922896Y1597754I-257J307D01*
G01Y1597931*
X1922941Y1598299D02*
G03X1922896Y1597931I1455J-368D01*
G01X1922941Y1598299D02*
G03X1922954Y1598396I-387J97D01*
X1922851Y1598664I-400J0*
G01X1922781Y1598752D02*
G03X1922851Y1598664I815J579D01*
G01X1922781Y1598752D02*
G03X1922475Y1598920I-327J-232D01*
G01X1921163Y1599503D02*
G03X1922475Y1598920I1414J1414D01*
G01X1921163Y1599503D02*
X1919914Y1600752D01*
X1919327Y1602167D02*
G03X1919914Y1600752I2000J0D01*
G01X1922742Y1603581D02*
G03X1919327Y1602167I-1415J-1414D01*
G01X1922742Y1603581D02*
X1922780Y1603543D01*
G03X1923215Y1603456I283J283*
G01X1923596Y1603531D02*
G03X1923215Y1603456I-0J-1000D01*
G01X1923596Y1603531D02*
X1927196D01*
X1928186Y1602674D02*
G03X1927196Y1603531I-990J-143D01*
G01X1928186Y1602674D02*
G03X1928581Y1602331I395J57D01*
G01X1933247*
G03X1933624Y1602598I-0J400*
G01X1934567Y1603265D02*
G03X1933624Y1602598I-0J-1000D01*
G01X1934567Y1603265D02*
X1940079D01*
X1941079Y1602265D02*
G03X1940079Y1603265I-1000J-0D01*
G01X1941079Y1602265D02*
Y1599518D01*
G03X1941575Y1599130I400J0*
G01X1941636Y1599144D02*
G03X1941575Y1599130I360J-1713D01*
G01X1941636Y1599144D02*
G03X1941837Y1599253I-82J391D01*
G01X1944892Y1602307*
X1945882Y1602717D02*
G03X1944892Y1602307I-0J-1400D01*
G01X1945882Y1602717D02*
X1992891D01*
X1993881Y1602307D02*
G03X1992891Y1602717I-990J-990D01*
G01X1993881Y1602307D02*
X1994178Y1602010D01*
G03X1994461Y1601893I283J283*
G01X2002459*
G03X2002858Y1602285I-0J400*
G01X2003858Y1603265D02*
G03X2002858Y1602285I0J-1000D01*
G01X2003858Y1603265D02*
X2009370D01*
X2010370Y1602265D02*
G03X2009370Y1603265I-1000J-0D01*
G01X2010370Y1602265D02*
Y1598721D01*
X2010224Y1598201D02*
G03X2010370Y1598721I-854J520D01*
G01X2010224Y1598201D02*
G03X2010166Y1597993I342J-208D01*
G01X2010166*
G03X2010224Y1597785I400J0*
G01X2010370Y1597265D02*
G03X2010224Y1597785I-1000J-0D01*
G01X2010370Y1597265D02*
Y1593721D01*
X2010224Y1593201D02*
G03X2010370Y1593721I-854J520D01*
G01X2010224Y1593201D02*
G03X2010166Y1592993I342J-208D01*
G01X2010166*
G03X2010224Y1592785I400J0*
G01X2010337Y1592521D02*
G03X2010224Y1592785I-967J-256D01*
G01X2010337Y1592521D02*
G03X2010777Y1592227I386J102D01*
G01X2012764Y1590493D02*
G03X2010777Y1592227I-1750J0D01*
G01Y1588759D02*
G03X2012764Y1590493I237J1734D01*
G01X2010777Y1588759D02*
G03X2010337Y1588465I-54J-396D01*
G01X2010224Y1588201D02*
G03X2010337Y1588465I-854J520D01*
G01X2010224Y1588201D02*
G03X2010166Y1587993I342J-208D01*
G01X2010166*
G03X2010224Y1587785I400J0*
G01X2010366Y1587356D02*
G03X2010224Y1587785I-996J-91D01*
G01X2010366Y1587356D02*
G03X2010764Y1586993I398J37D01*
G01X2014038*
G03X2014257Y1587058I0J400*
G01X2016088Y1587110D02*
G03X2014257Y1587058I-874J-1517D01*
G01X2016088Y1587110D02*
G03X2016687Y1587456I199J346D01*
G01Y1597395*
G03X2016570Y1597678I-400J0*
G01X2015732Y1598516*
X2015146Y1599931D02*
G03X2015732Y1598516I2000J0D01*
G01X2018561Y1601345D02*
G03X2015146Y1599931I-1415J-1414D01*
G01X2018561Y1601345D02*
X2019487Y1600418D01*
G03X2019770Y1600301I283J283*
G01X2038114*
X2038963Y1599950D02*
G03X2038114Y1600301I-849J-849D01*
G01X2038963Y1599950D02*
X2040158Y1598754D01*
G03X2040841Y1599037I283J283*
G01Y1603386*
X2041837Y1604386D02*
G03X2040841Y1603386I4J-1000D01*
G01X2041837Y1604386D02*
G03X2042235Y1604786I-2J400D01*
G01Y1606993*
G03X2042055Y1607326I-400J-0*
G01X2040282Y1610624D02*
G03X2042055Y1607326I3953J-0D01*
G01X2040500Y1611919D02*
G03X2040282Y1610624I3735J-1295D01*
G01X2040500Y1611919D02*
G03X2040522Y1612050I-378J131D01*
X2040405Y1612332I-400J-0*
G01X2035934Y1616803*
X2035495Y1617864D02*
G03X2035934Y1616803I1500J0D01*
G01X2035495Y1617864D02*
Y1628340D01*
X2035935Y1629402D02*
G03X2035495Y1628340I1060J-1062D01*
G01X2035935Y1629402D02*
X2038397Y1631864D01*
X2039457Y1632303D02*
G03X2038397Y1631864I0J-1500D01*
G01X2039457Y1632303D02*
X2051345D01*
X2052406Y1631864D02*
G03X2051345Y1632303I-1061J-1061D01*
G01X2052406Y1631864D02*
X2053487Y1630783D01*
G03X2053770Y1630666I283J283*
G01X2054483*
X2055197Y1630366D02*
G03X2054483Y1630666I-714J-700D01*
G01X2055197Y1630366D02*
G03X2055768I286J280D01*
G01X2056483Y1630666D02*
G03X2055769Y1630366I-0J-1000D01*
G01X2056483Y1630666D02*
X2058483D01*
X2059483Y1629666D02*
G03X2058483Y1630666I-1000J-0D01*
G01X2059483Y1629666D02*
Y1627666D01*
X2058483Y1626666D02*
G03X2059483Y1627666I-0J1000D01*
G01X2058483Y1626666D02*
X2057746D01*
G03X2057469Y1626555I0J-400*
G01X2055031Y1624218*
G03X2054908Y1623930I277J-288*
G01Y1622091*
X2053908Y1621091D02*
G03X2054908Y1622091I-0J1000D01*
G01X2053908Y1621091D02*
X2050758D01*
X2049758Y1622091D02*
G03X2050758Y1621091I1000J-0D01*
G01X2049758Y1622091D02*
Y1625241D01*
X2050758Y1626241D02*
G03X2049758Y1625241I-0J-1000D01*
G01X2050758Y1626241D02*
X2051529D01*
G03X2051929Y1626641I0J400*
X2051802Y1626934I-400J-0*
G01X2051483Y1627666D02*
G03X2051802Y1626934I1000J-0D01*
G01X2051483Y1627666D02*
Y1628379D01*
G03X2051366Y1628662I-400J-0*
G01X2050841Y1629186*
G03X2050558Y1629303I-283J-283*
G01X2047776*
G03X2047376Y1628903I-0J-400*
X2047451Y1628671I400J0*
G01X2048188Y1626372D02*
G03X2047451Y1628671I-3953J-0D01*
G01X2046356Y1623036D02*
G03X2048188Y1626372I-2121J3336D01*
G01X2046356Y1623036D02*
G03X2046170Y1622699I214J-337D01*
X2046321Y1622386I400J-0*
G01X2046422Y1622296D02*
G03X2046321Y1622386I-849J-848D01*
G01X2046422Y1622296D02*
X2053957Y1614761D01*
X2054309Y1613912D02*
G03X2053957Y1614761I-1200J0D01*
G01X2054309Y1613912D02*
Y1605023D01*
X2053957Y1604174D02*
G03X2054309Y1605023I-848J849D01*
G01X2053957Y1604174D02*
X2053508Y1603725D01*
X2052660Y1603374D02*
G03X2053508Y1603725I-0J1200D01*
G01X2052660Y1603374D02*
X2050512D01*
X2050374Y1603382D02*
G03X2050512Y1603374I138J1192D01*
G01X2050374Y1603382D02*
G03X2049928Y1602985I-46J-397D01*
G01Y1602606*
G03X2050571Y1602289I400J0*
G01X2051179Y1602495D02*
G03X2050571Y1602289I0J-1000D01*
G01X2051179Y1602495D02*
X2054379D01*
X2055379Y1601495D02*
G03X2054379Y1602495I-1000J-0D01*
G01X2055379Y1601495D02*
Y1597895D01*
X2054379Y1596895D02*
G03X2055379Y1597895I0J1000D01*
G01X2054379Y1596895D02*
X2051179D01*
X2050381Y1597293D02*
G03X2051179Y1596895I798J602D01*
G01X2050381Y1597293D02*
G03X2049737Y1597287I-320J-241D01*
G01X2048928Y1596874D02*
G03X2049737Y1597287I-0J1000D01*
G01X2048928Y1596874D02*
X2043004D01*
G03X2042604Y1596474I-0J-400*
X2042721Y1596191I400J0*
G01X2043218Y1595694*
G03X2043501Y1595577I283J283*
G01X2051660*
X2052196Y1595450D02*
G03X2051660Y1595577I-536J-1073D01*
G01X2052196Y1595450D02*
G03X2052375Y1595408I179J358D01*
G01X2054379*
X2055379Y1594408D02*
G03X2054379Y1595408I-1000J0D01*
G01X2055379Y1594408D02*
Y1590808D01*
X2054379Y1589808D02*
G03X2055379Y1590808I0J1000D01*
G01X2054379Y1589808D02*
X2053672D01*
G03X2053389Y1589691I0J-400*
G01X2051327Y1587629*
X2050479Y1587277D02*
G03X2051327Y1587629I-0J1200D01*
G01X2050479Y1587277D02*
X2042775D01*
G03X2042492Y1587160I0J-400*
G01X2038630Y1583298*
X2037782Y1582947D02*
G03X2038630Y1583298I-0J1200D01*
G01X2037782Y1582947D02*
X2031154D01*
G03X2030754Y1582547I-0J-400*
G01Y1557694*
G03X2030871Y1557411I400J-0*
G01X2037987Y1550295*
G03X2038142Y1550199I283J283*
G01X2039504Y1548303D02*
G03X2038142Y1550199I-2000J0D01*
G01X2038463Y1546548D02*
G03X2039504Y1548303I-959J1755D01*
G01X2038463Y1546548D02*
G03X2038255Y1546197I192J-351D01*
X2038372Y1545915I400J0*
G01X2038372D02*
X2047467Y1536820D01*
G03X2047750Y1536703I283J283*
G01X2059229*
X2060219Y1536293D02*
G03X2059229Y1536703I-990J-990D01*
G01X2060219Y1536293D02*
X2065322Y1531190D01*
G03X2065764Y1531106I283J283*
G01X2068427Y1531392D02*
G03X2065764Y1531106I-872J-4415D01*
G01X2068427Y1531392D02*
G03X2068905Y1531784I78J392D01*
G01Y1558579*
G03X2068505Y1558979I-400J0*
G01X2060990*
X2060251Y1559306D02*
G03X2060990Y1558979I739J673D01*
G01X2060251Y1559306D02*
G03X2059956Y1559436I-295J-270D01*
G01X2056396*
X2054982Y1560022D02*
G03X2056396Y1559436I1414J1414D01*
G01X2054982Y1560022D02*
X2052241Y1562763D01*
X2051655Y1564177D02*
G03X2052241Y1562763I2000J0D01*
G01X2051655Y1564177D02*
Y1577977D01*
X2052241Y1579392D02*
G03X2051655Y1577977I1414J-1415D01*
G01X2052241Y1579392D02*
X2061641Y1588791D01*
X2063055Y1589377D02*
G03X2061641Y1588791I-0J-2000D01*
G01X2063055Y1589377D02*
X2065561D01*
G03X2065844Y1589494I-0J400*
G01X2070938Y1594588*
G03X2071055Y1594871I-283J283*
G01Y1601099*
G03X2070938Y1601382I-400J0*
G01X2069344Y1602976*
G03X2069061Y1603093I-283J-283*
G01X2060708*
X2059294Y1603679D02*
G03X2060708Y1603093I1414J1414D01*
G01X2059294Y1603679D02*
X2058810Y1604163D01*
G03X2058527Y1604280I-283J-283*
G01X2058474*
X2057474Y1605280D02*
G03X2058474Y1604280I1000J-0D01*
G01X2057474Y1605280D02*
Y1607052D01*
X2058474Y1608052D02*
G03X2057474Y1607052I0J-1000D01*
G01X2058474Y1608052D02*
X2058904D01*
G03X2059026Y1608071I0J400*
G01X2060245D02*
G03X2059026I-609J-1905D01*
G01X2060245D02*
G03X2060367Y1608052I122J381D01*
G01X2060797*
X2060918Y1608044D02*
G03X2060797Y1608052I-121J-992D01*
G01X2060918Y1608044D02*
G03X2061366Y1608441I48J397D01*
X2061249Y1608724I-400J0*
G01X2058810Y1611163*
G03X2058527Y1611280I-283J-283*
G01X2058474*
X2057474Y1612280D02*
G03X2058474Y1611280I1000J-0D01*
G01X2057474Y1612280D02*
Y1614052D01*
X2057590Y1614518D02*
G03X2057474Y1614052I884J-466D01*
G01X2057590Y1614518D02*
G03X2057636Y1614704I-354J186D01*
G01Y1616275*
G03X2057519Y1616557I-400J-0*
G01X2057311Y1616765*
G03X2057059Y1616881I-283J-282*
G01X2056136Y1617878D02*
G03X2057059Y1616881I1000J0D01*
G01X2056136Y1617878D02*
Y1618154D01*
G03X2056127Y1618240I-400J0*
G01X2056081Y1618666D02*
G03X2056127Y1618240I2000J-0D01*
G01Y1619092D02*
G03X2056081Y1618666I1954J-426D01*
G01X2056127Y1619092D02*
G03X2056136Y1619177I-391J85D01*
G01Y1619453*
X2057105Y1620453D02*
G03X2056136Y1619453I31J-1000D01*
G01X2057105Y1620453D02*
G03X2057257Y1620488I-13J400D01*
G01X2058081Y1620666D02*
G03X2057257Y1620488I0J-2000D01*
G01X2058081Y1620666D02*
X2058239D01*
X2059101Y1620470D02*
G03X2058239Y1620666I-862J-1804D01*
G01X2059101Y1620470D02*
G03X2059203Y1620437I173J361D01*
G01X2059955Y1619824D02*
G03X2059203Y1620437I-929J-371D01*
G01X2059955Y1619824D02*
G03X2060043Y1619689I371J148D01*
G01X2061050Y1618683*
X2061636Y1617269D02*
G03X2061050Y1618683I-2000J-0D01*
G01X2061636Y1617269D02*
Y1614704D01*
G03X2061682Y1614518I400J0*
G01X2061797Y1614052D02*
G03X2061682Y1614518I-1000J-0D01*
G01X2061797Y1614052D02*
Y1613998D01*
G03X2061914Y1613716I400J0*
G01X2063739Y1611891*
G03X2064418Y1612118I283J283*
G01X2064581Y1612541D02*
G03X2064418Y1612118I827J-563D01*
G01X2064581Y1612541D02*
G03X2064650Y1612766I-331J225D01*
X2064581Y1612991I-400J-0*
G01X2064408Y1613553D02*
G03X2064581Y1612991I1000J0D01*
G01X2064408Y1613553D02*
Y1614537D01*
X2064581Y1615100D02*
G03X2064408Y1614537I827J-563D01*
G01X2064581Y1615100D02*
G03X2064650Y1615325I-331J225D01*
X2064581Y1615550I-400J-0*
G01X2064408Y1616112D02*
G03X2064581Y1615550I1000J0D01*
G01X2064408Y1616112D02*
Y1617096D01*
X2065408Y1618096D02*
G03X2064408Y1617096I-0J-1000D01*
G01X2065408Y1618096D02*
X2070723D01*
X2071723Y1617096D02*
G03X2070723Y1618096I-1000J0D01*
G01X2071723Y1617096D02*
Y1616112D01*
X2071550Y1615550D02*
G03X2071723Y1616112I-827J562D01*
G01X2071550Y1615550D02*
G03X2071481Y1615325I331J-225D01*
X2071550Y1615100I400J-0*
G01X2071723Y1614537D02*
G03X2071550Y1615100I-1000J0D01*
G01X2071723Y1614537D02*
Y1613553D01*
X2071550Y1612991D02*
G03X2071723Y1613553I-827J562D01*
G01X2071550Y1612991D02*
G03X2071481Y1612766I331J-225D01*
X2071550Y1612541I400J-0*
G01X2071723Y1611978D02*
G03X2071550Y1612541I-1000J0D01*
G01X2071723Y1611978D02*
Y1610994D01*
X2071560Y1610447D02*
G03X2071723Y1610994I-837J547D01*
G01X2071560Y1610447D02*
G03X2071495Y1610228I335J-219D01*
G01X2071495*
G03X2071560Y1610009I400J0*
G01X2071723Y1609463D02*
G03X2071560Y1610009I-1000J-0D01*
G01X2071723Y1609463D02*
Y1608391D01*
G03X2072315Y1608040I400J-0*
G01X2075471Y1606171D02*
G03X2072315Y1608040I-2131J0D01*
G01X2074383Y1604313D02*
G03X2075471Y1606171I-1043J1858D01*
G01X2074383Y1604313D02*
G03X2074178Y1603964I195J-349D01*
X2074296Y1603681I400J-0*
G01X2074468Y1603508*
X2075055Y1602093D02*
G03X2074468Y1603508I-2000J0D01*
G01X2075055Y1602093D02*
Y1593877D01*
X2074469Y1592463D02*
G03X2075055Y1593877I-1414J1414D01*
G01X2074469Y1592463D02*
X2067969Y1585963D01*
X2066555Y1585377D02*
G03X2067969Y1585963I-0J2000D01*
G01X2066555Y1585377D02*
X2064049D01*
G03X2063766Y1585260I0J-400*
G01X2055772Y1577266*
G03X2055655Y1576983I283J-283*
G01Y1565171*
G03X2055772Y1564888I400J0*
G01X2057107Y1563553*
G03X2057390Y1563436I283J283*
G01X2059956*
G03X2060251Y1563567I-0J400*
G01X2060990Y1563893D02*
G03X2060251Y1563567I0J-1000D01*
G01X2060990Y1563893D02*
X2068505D01*
G03X2068905Y1564293I-0J400*
G01Y1566469*
G03X2068788Y1566752I-400J-0*
G01X2067671Y1567869*
G03X2067388Y1567986I-283J-283*
G01X2062424*
X2058974Y1571436D02*
G03X2062424Y1567986I3450J0D01*
G01Y1574886D02*
G03X2058974Y1571436I-0J-3450D01*
G01X2062424Y1574886D02*
X2067388D01*
G03X2067671Y1575003I-0J400*
G01X2072084Y1579417*
X2074523Y1580427D02*
G03X2072084Y1579417I0J-3450D01*
G01X2074523Y1580427D02*
X2077955D01*
X2081405Y1576977D02*
G03X2077955Y1580427I-3450J0D01*
G01X2080428Y1574572D02*
G03X2081405Y1576977I-2473J2405D01*
G01X2080428Y1574572D02*
G03X2080315Y1574293I287J-279D01*
X2080715Y1573893I400J-0*
G01X2085794*
X2086794Y1572893D02*
G03X2085794Y1573893I-1000J-0D01*
G01X2086794Y1572893D02*
Y1569979D01*
X2086460Y1569234D02*
G03X2086794Y1569979I-666J745D01*
G01X2086460Y1569234D02*
G03X2086327Y1568936I267J-298D01*
X2086460Y1568638I400J0*
G01X2086794Y1567893D02*
G03X2086460Y1568638I-1000J-0D01*
G01X2086794Y1567893D02*
Y1564979D01*
X2086060Y1564016D02*
G03X2086794Y1564979I-266J963D01*
G01X2086060Y1564016D02*
G03X2085766Y1563630I106J-386D01*
X2085910Y1563323I400J0*
G01X2086794Y1561436D02*
G03X2085910Y1563323I-2457J0D01*
G01X2086794Y1561436D02*
X2086794D01*
X2084337Y1558979D02*
G03X2086794Y1561436I-0J2457D01*
G01X2084337Y1558979D02*
X2077801D01*
X2076428Y1559399D02*
G03X2077801Y1558979I1373J2037D01*
G01X2076428Y1559399D02*
G03X2075805Y1559067I-223J-332D01*
G01Y1523877*
X2074794Y1521438D02*
G03X2075805Y1523877I-2439J2439D01*
G01X2074794Y1521438D02*
X2072094Y1518738D01*
X2069655Y1517727D02*
G03X2072094Y1518738I-0J3450D01*
G01X2069655Y1517727D02*
X2027864D01*
G03X2027464Y1517327I0J-400*
G01Y1500436*
G03X2027500Y1500270I400J0*
G01X2027795Y1498915D02*
G03X2027500Y1500270I-3264J0D01*
G01Y1497560D02*
G03X2027795Y1498915I-2969J1355D01*
G01X2027500Y1497560D02*
G03X2027464Y1497394I364J-166D01*
G01Y1492562*
G03X2027500Y1492396I400J0*
G01X2027795Y1491041D02*
G03X2027500Y1492396I-3264J0D01*
G01Y1489686D02*
G03X2027795Y1491041I-2969J1355D01*
G01X2027500Y1489686D02*
G03X2027464Y1489520I364J-166D01*
G01Y1468577*
G03X2027864Y1468177I400J-0*
G01X2087968*
G03X2088368Y1468577I-0J400*
G01Y1629819*
X2043460Y1525027D02*
G03X2043427Y1525186I-400J0D01*
G01X2043055Y1526977D02*
G03X2043427Y1525186I4500J0D01*
G01Y1528768D02*
G03X2043055Y1526977I4128J-1791D01*
G01X2043427Y1528768D02*
G03X2043460Y1528927I-367J159D01*
X2043342Y1529210I-400J-0*
G01X2028147Y1544405*
G03X2027464Y1544122I-283J-283*
G01Y1525027*
G03X2027864Y1524627I400J0*
G01X2033060*
G03X2033460Y1525027I-0J400*
X2033427Y1525186I-400J0*
G01X2033055Y1526977D02*
G03X2033427Y1525186I4500J0D01*
G01X2042055Y1526977D02*
G03X2033055I-4500J0D01*
G01X2041683Y1525186D02*
G03X2042055Y1526977I-4128J1791D01*
G01X2041683Y1525186D02*
G03X2041650Y1525027I367J-159D01*
X2042050Y1524627I400J0*
G01X2043060*
G03X2043460Y1525027I-0J400*
G01X1990818Y1578591D02*
G03X1990719Y1578853I-400J-0D01*
G01X1990332Y1579529D02*
G03X1990719Y1578853I1895J638D01*
G01X1990332Y1579529D02*
G03X1990236Y1579684I-379J-128D01*
G01X1983560Y1586360*
G03X1983277Y1586477I-283J-283*
G01X1957287*
G03X1957004Y1586360I-0J-400*
G01X1948718Y1578073*
G03X1948601Y1577791I283J-282*
X1949001Y1577391I400J-0*
G01X1955464*
Y1563077*
G03X1955864Y1562677I400J-0*
G01X1981664*
G03X1982064Y1563077I0J400*
G01Y1578191*
X1990418*
G03X1990818Y1578591I-0J400*
G01X1906327Y1562844D02*
G03X1905644Y1563127I-400J0D01*
G01X1903781Y1561264*
G03X1903664Y1560981I283J-283*
G01Y1530434*
X1903254Y1529444D02*
G03X1903664Y1530434I-990J990D01*
G01X1903254Y1529444D02*
X1901254Y1527444D01*
X1900264Y1527034D02*
G03X1901254Y1527444I0J1400D01*
G01X1900264Y1527034D02*
X1899654D01*
G03X1899325Y1526862I-0J-400*
G01X1898505Y1526434D02*
G03X1899325Y1526862I-0J1000D01*
G01X1898505Y1526434D02*
X1896505D01*
X1895505Y1527434D02*
G03X1896505Y1526434I1000J-0D01*
G01X1895505Y1527434D02*
Y1529434D01*
X1895884Y1530218D02*
G03X1895505Y1529434I621J-784D01*
G01X1895884Y1530218D02*
G03X1896036Y1530531I-248J313D01*
X1895905Y1530827I-400J0*
G01X1895863Y1530867D02*
G03X1895905Y1530827I714J700D01*
G01X1895863Y1530867D02*
G03X1895292I-286J-280D01*
G01X1894577Y1530567D02*
G03X1895292Y1530867I0J1000D01*
G01X1894577Y1530567D02*
X1892577D01*
X1891811Y1530924D02*
G03X1892577Y1530567I766J643D01*
G01X1891811Y1530924D02*
G03X1891505Y1531067I-306J-257D01*
G01X1886137*
G03X1885854Y1530950I0J-400*
G01X1883708Y1528804*
G03X1883591Y1528521I283J-283*
G01Y1525871*
X1882591Y1524871D02*
G03X1883591Y1525871I-0J1000D01*
G01X1882591Y1524871D02*
X1880032D01*
X1879032Y1525871D02*
G03X1880032Y1524871I1000J-0D01*
G01X1879032Y1525871D02*
Y1529808D01*
X1880032Y1530808D02*
G03X1879032Y1529808I-0J-1000D01*
G01X1880032Y1530808D02*
X1881304D01*
G03X1881587Y1530925I-0J400*
G01X1883922Y1533260*
G03X1884039Y1533543I-283J283*
X1883699Y1533938I-400J-0*
G01X1882851Y1534927D02*
G03X1883699Y1533938I1000J-0D01*
G01X1882851Y1534927D02*
Y1538257D01*
G03X1882451Y1538657I-400J0*
G01X1868376*
G03X1868148Y1538586I-0J-400*
G01X1867577Y1538407D02*
G03X1868148Y1538586I0J1000D01*
G01X1867577Y1538407D02*
X1865577D01*
X1865007Y1538586D02*
G03X1865577Y1538407I570J821D01*
G01X1865007Y1538586D02*
G03X1864779Y1538657I-228J-329D01*
G01X1863876*
G03X1863648Y1538586I-0J-400*
G01X1863077Y1538407D02*
G03X1863648Y1538586I0J1000D01*
G01X1863077Y1538407D02*
X1861077D01*
X1860080Y1539327D02*
G03X1861077Y1538407I997J80D01*
G01X1860080Y1539327D02*
G03X1859965Y1539578I-398J-32D01*
G01X1859337Y1540206*
G03X1858654Y1539923I-283J-283*
G01Y1530803*
X1857714Y1529252D02*
G03X1858654Y1530803I-810J1551D01*
G01X1857714Y1529252D02*
G03X1857499Y1528897I185J-355D01*
X1857616Y1528614I400J0*
G01X1863423Y1522808*
G03X1863706Y1522691I283J283*
G01X1878638*
G03X1878785Y1522719I-0J400*
G01X1881177Y1521091D02*
G03X1878785Y1522719I-1750J-0D01*
G01X1881177Y1521091D02*
X1881177D01*
X1881169Y1520928D02*
G03X1881177Y1521091I-1742J163D01*
G01X1881169Y1520928D02*
G03X1881168Y1520891I399J-37D01*
X1881568Y1520491I400J-0*
G01X1892214*
X1893346Y1520022D02*
G03X1892214Y1520491I-1132J-1131D01*
G01X1893346Y1520022D02*
X1904246Y1509122D01*
X1904715Y1507990D02*
G03X1904246Y1509122I-1600J-0D01*
G01X1904715Y1507990D02*
Y1501985D01*
G03X1904897Y1501650I400J-0*
G01X1905620Y1501007D02*
G03X1904897Y1501650I-2505J-2092D01*
G01X1905620Y1501007D02*
G03X1906327Y1501264I307J257D01*
G01Y1562844*
X1897275Y1566127D02*
G03X1897258Y1566241I-400J-0D01*
G01X1897217Y1566527D02*
G03X1897258Y1566241I1000J-0D01*
G01X1897217Y1566527D02*
Y1569322D01*
G03X1897100Y1569605I-400J-0*
G01X1895173Y1571531*
G03X1894890Y1571648I-283J-283*
G01X1894177*
X1893195Y1572460D02*
G03X1894177Y1571648I982J188D01*
G01X1893195Y1572460D02*
G03X1892409I-393J-75D01*
G01X1891427Y1571648D02*
G03X1892409Y1572460I0J1000D01*
G01X1891427Y1571648D02*
X1889435D01*
G03X1889035Y1571248I0J-400*
X1889104Y1571024I400J0*
G01X1889276Y1570464D02*
G03X1889104Y1571024I-1000J-0D01*
G01X1889276Y1570464D02*
Y1566527D01*
X1888276Y1565527D02*
G03X1889276Y1566527I-0J1000D01*
G01X1888276Y1565527D02*
X1885717D01*
X1884717Y1566527D02*
G03X1885717Y1565527I1000J-0D01*
G01X1884717Y1566527D02*
Y1570464D01*
X1885002Y1571163D02*
G03X1884717Y1570464I715J-699D01*
G01X1885002Y1571163D02*
G03X1885116Y1571443I-286J280D01*
X1884919Y1571787I-400J-0*
G01X1884427Y1572648D02*
G03X1884919Y1571787I1000J0D01*
G01X1884427Y1572648D02*
Y1574648D01*
X1885427Y1575648D02*
G03X1884427Y1574648I0J-1000D01*
G01X1885427Y1575648D02*
X1887427D01*
X1888142Y1575348D02*
G03X1887427Y1575648I-715J-700D01*
G01X1888142Y1575348D02*
G03X1888713I285J280D01*
G01X1888727Y1575363D02*
G03X1888713Y1575348I700J-715D01*
G01X1888727Y1575363D02*
G03X1888847Y1575648I-280J285D01*
X1888727Y1575934I-400J0*
G01X1888427Y1576648D02*
G03X1888727Y1575934I1000J0D01*
G01X1888427Y1576648D02*
Y1578648D01*
X1889427Y1579648D02*
G03X1888427Y1578648I0J-1000D01*
G01X1889427Y1579648D02*
X1890075D01*
G03X1890357Y1579766I-0J400*
G01X1891140Y1580548*
G03X1891257Y1580831I-283J283*
X1890857Y1581231I-400J0*
G01X1885873*
G03X1885590Y1581114I-0J-400*
G01X1878344Y1573869*
G03X1878227Y1573586I283J-283*
G01Y1561232*
X1877817Y1560242D02*
G03X1878227Y1561232I-990J990D01*
G01X1877817Y1560242D02*
X1869376Y1551801D01*
G03X1869258Y1551518I282J-283*
G01Y1547152*
X1868772Y1546293D02*
G03X1869258Y1547152I-514J859D01*
G01X1868772Y1546293D02*
G03X1868577Y1545950I205J-343D01*
G01Y1543407*
X1868372Y1542800D02*
G03X1868577Y1543407I-795J607D01*
G01X1868372Y1542800D02*
G03X1868290Y1542557I318J-243D01*
X1868690Y1542157I400J0*
G01X1882703*
G03X1883103Y1542557I0J400*
G01Y1544586*
X1883566Y1545430D02*
G03X1883103Y1544586I537J-844D01*
G01X1883566Y1545430D02*
G03X1883752Y1545767I-214J337D01*
X1883566Y1546105I-400J0*
G01X1883103Y1546948D02*
G03X1883566Y1546105I1000J0D01*
G01X1883103Y1546948D02*
Y1550689D01*
X1883870Y1551661D02*
G03X1883103Y1550689I233J-972D01*
G01X1883870Y1551661D02*
G03X1884177Y1552050I-93J389D01*
X1883863Y1552441I-400J-0*
G01X1883077Y1553417D02*
G03X1883863Y1552441I1000J0D01*
G01X1883077Y1553417D02*
Y1555417D01*
X1883193Y1555884D02*
G03X1883077Y1555417I884J-467D01*
G01X1883193Y1555884D02*
G03X1883239Y1556071I-354J187D01*
X1882839Y1556471I-400J-0*
G01X1881898*
X1880898Y1557471D02*
G03X1881898Y1556471I1000J-0D01*
G01X1880898Y1557471D02*
Y1561408D01*
X1881898Y1562408D02*
G03X1880898Y1561408I-0J-1000D01*
G01X1881898Y1562408D02*
X1884457D01*
X1885457Y1561408D02*
G03X1884457Y1562408I-1000J-0D01*
G01X1885457Y1561408D02*
Y1559447D01*
G03X1885574Y1559164I400J-0*
G01X1886138Y1558600*
X1886577Y1557539D02*
G03X1886138Y1558600I-1500J0D01*
G01X1886577Y1557539D02*
Y1556490D01*
G03X1886720Y1556183I400J-0*
G01X1886792Y1556117D02*
G03X1886720Y1556183I-715J-700D01*
G01X1886792Y1556117D02*
G03X1887363I285J280D01*
G01X1888077Y1556417D02*
G03X1887363Y1556117I0J-1000D01*
G01X1888077Y1556417D02*
X1889864D01*
G03X1890264Y1556817I-0J400*
G01Y1560933*
X1890777Y1562171D02*
G03X1890264Y1560933I1237J-1238D01*
G01X1890777Y1562171D02*
X1893820Y1565214D01*
X1895057Y1565727D02*
G03X1893820Y1565214I0J-1750D01*
G01X1895057Y1565727D02*
X1896875D01*
G03X1897275Y1566127I0J400*
G01X1897597Y1575648D02*
G03X1897477Y1575934I-400J0D01*
G01X1897177Y1576648D02*
G03X1897477Y1575934I1000J0D01*
G01X1897177Y1576648D02*
Y1578117D01*
G03X1896777Y1578517I-400J0*
G01X1893235*
G03X1892952Y1578400I-0J-400*
G01X1892544Y1577993*
G03X1892427Y1577710I283J-283*
G01Y1576648*
X1892127Y1575934D02*
G03X1892427Y1576648I-700J714D01*
G01X1892127Y1575934D02*
G03X1892007Y1575648I280J-286D01*
X1892127Y1575363I400J0*
G01X1892409Y1574837D02*
G03X1892127Y1575363I-982J-189D01*
G01X1892409Y1574837D02*
G03X1893195I393J75D01*
G01X1894177Y1575648D02*
G03X1893195Y1574837I0J-1000D01*
G01X1894177Y1575648D02*
X1896177D01*
X1896892Y1575348D02*
G03X1896177Y1575648I-715J-700D01*
G01X1896892Y1575348D02*
G03X1897463I285J280D01*
G01X1897477Y1575363D02*
G03X1897463Y1575348I700J-715D01*
G01X1897477Y1575363D02*
G03X1897597Y1575648I-280J285D01*
G01X1852977Y1585578D02*
G03X1852949Y1585725I-400J0D01*
G01X1852827Y1586367D02*
G03X1852949Y1585725I1750J0D01*
G01X1852827Y1586367D02*
X1852827D01*
X1852904Y1586878D02*
G03X1852827Y1586367I1673J-511D01*
G01X1852904Y1586878D02*
G03X1852921Y1586995I-383J117D01*
X1852804Y1587278I-400J0*
G01X1852555Y1587527*
G03X1851957Y1587490I-283J-283*
G01X1849339Y1587331D02*
G03X1851957Y1587490I1238J1236D01*
G01X1849339Y1587331D02*
X1846919Y1589751D01*
G03X1846636Y1589868I-283J-283*
G01X1845154*
X1844536Y1590082D02*
G03X1845154Y1589868I618J786D01*
G01X1844536Y1590082D02*
G03X1844041I-248J-314D01*
G01X1843445Y1589868D02*
G03X1844041Y1590082I-23J1000D01*
G01X1843445Y1589868D02*
G03X1843054Y1589468I9J-400D01*
G01Y1588790*
X1842585Y1587659D02*
G03X1843054Y1588790I-1131J1131D01*
G01X1842585Y1587659D02*
X1841294Y1586368D01*
G03X1841177Y1586086I283J-282*
G01Y1582547*
G03X1841292Y1582267I400J0*
G01X1841577Y1581567D02*
G03X1841292Y1582267I-1000J0D01*
G01X1841577Y1581567D02*
Y1579567D01*
X1841426Y1579038D02*
G03X1841577Y1579567I-849J529D01*
G01X1841426Y1579038D02*
G03X1841365Y1578826I339J-212D01*
X1841940Y1578467I400J0*
G01X1842377Y1578567D02*
G03X1841940Y1578467I0J-1000D01*
G01X1842377Y1578567D02*
X1844377D01*
X1844806Y1578471D02*
G03X1844377Y1578567I-429J-904D01*
G01X1844806Y1578471D02*
G03X1845377Y1578832I171J361D01*
G01Y1579017*
X1846377Y1580017D02*
G03X1845377Y1579017I0J-1000D01*
G01X1846377Y1580017D02*
X1849977D01*
X1850858Y1579491D02*
G03X1849977Y1580017I-881J-474D01*
G01X1850858Y1579491D02*
G03X1851329Y1579299I352J190D01*
G01X1852136Y1579380D02*
G03X1851329Y1579299I-209J-1989D01*
G01X1852136Y1579380D02*
G03X1852577Y1579778I41J398D01*
G01Y1581567*
X1852863Y1582267D02*
G03X1852577Y1581567I714J-700D01*
G01X1852863Y1582267D02*
G03X1852977Y1582547I-286J280D01*
G01Y1585578*
X2075471Y1621919D02*
G03X2075471I-2131J0D01*
G01X2028204Y1622797D02*
G03X2030471Y1626372I-1686J3575D01*
G01X2028204Y1622797D02*
G03X2027975Y1622435I171J-362D01*
X2028204Y1622073I400J-0*
G01X2030471Y1618498D02*
G03X2028204Y1622073I-3953J-0D01*
G01Y1614923D02*
G03X2030471Y1618498I-1686J3575D01*
G01X2028204Y1614923D02*
G03X2027975Y1614561I171J-362D01*
X2028204Y1614199I400J-0*
G01X2030471Y1610624D02*
G03X2028204Y1614199I-3953J-0D01*
G01X2022565Y1610624D02*
G03X2030471I3953J-0D01*
G01X2024832Y1614199D02*
G03X2022565Y1610624I1686J-3575D01*
G01X2024832Y1614199D02*
G03X2025062Y1614561I-170J362D01*
X2024832Y1614923I-400J-0*
G01X2022565Y1618498D02*
G03X2024832Y1614923I3953J-0D01*
G01Y1622073D02*
G03X2022565Y1618498I1686J-3575D01*
G01X2024832Y1622073D02*
G03X2025062Y1622435I-170J362D01*
X2024832Y1622797I-400J-0*
G01X2022565Y1626372D02*
G03X2024832Y1622797I3953J-0D01*
G01X2030471Y1626372D02*
G03X2022565I-3953J-0D01*
G01X1869635Y1494978D02*
G03X1869635I-12208J0D01*
G01X2074553D02*
G03X2074553I-12208J0D01*
G01X2043543Y1491041D02*
G03X2043543I-3264J0D01*
G01Y1498915D02*
G03X2043543I-3264J0D01*
G01X2035669Y1491041D02*
G03X2035669I-3264J0D01*
G01Y1498915D02*
G03X2035669I-3264J0D01*
G01X2059472Y1629815D02*
X2088368D01*
X2059483Y1629455D02*
X2088368D01*
X2059483Y1629095D02*
X2088368D01*
X2059483Y1628735D02*
X2088368D01*
X2059483Y1628375D02*
X2088368D01*
X2059483Y1628015D02*
X2088368D01*
X2059483Y1627655D02*
X2088368D01*
X2059412Y1627295D02*
X2088368D01*
X2059166Y1626935D02*
X2088368D01*
X2057493Y1626575D02*
X2088368D01*
X2057115Y1626215D02*
X2088368D01*
X2056740Y1625855D02*
X2088368D01*
X2056364Y1625495D02*
X2088368D01*
X2055988Y1625135D02*
X2088368D01*
X2055612Y1624775D02*
X2088368D01*
X2055236Y1624415D02*
X2088368D01*
X2054928Y1624055D02*
X2088368D01*
X2074517Y1623695D02*
X2088368D01*
X2074932Y1623335D02*
X2088368D01*
X2075191Y1622975D02*
X2088368D01*
X2075354Y1622615D02*
X2088368D01*
X2075444Y1622255D02*
X2088368D01*
X2075471Y1621895D02*
X2088368D01*
X2075436Y1621535D02*
X2088368D01*
X2075337Y1621175D02*
X2088368D01*
X2075163Y1620815D02*
X2088368D01*
X2074889Y1620455D02*
X2088368D01*
X2074442Y1620095D02*
X2088368D01*
X2060004Y1619735D02*
X2088368D01*
X2060358Y1619375D02*
X2088368D01*
X2060718Y1619015D02*
X2088368D01*
X2061077Y1618655D02*
X2088368D01*
X2061352Y1618295D02*
X2088368D01*
X2071267Y1617935D02*
X2088368D01*
X2071601Y1617575D02*
X2088368D01*
X2071716Y1617215D02*
X2088368D01*
X2071723Y1616855D02*
X2088368D01*
X2071723Y1616495D02*
X2088368D01*
X2071723Y1616135D02*
X2088368D01*
X2071665Y1615775D02*
X2088368D01*
X2071491Y1615415D02*
X2088368D01*
X2071578Y1615055D02*
X2088368D01*
X2071710Y1614695D02*
X2088368D01*
X2071723Y1614335D02*
X2088368D01*
X2071723Y1613975D02*
X2088368D01*
X2071723Y1613615D02*
X2088368D01*
X2071678Y1613255D02*
X2088368D01*
X2071502Y1612895D02*
X2088368D01*
X2071553Y1612535D02*
X2088368D01*
X2071703Y1612175D02*
X2088368D01*
X2071723Y1611815D02*
X2088368D01*
X2071723Y1611455D02*
X2088368D01*
X2071723Y1611095D02*
X2088368D01*
X2071689Y1610735D02*
X2088368D01*
X2071523Y1610375D02*
X2088368D01*
X2071556Y1610015D02*
X2088368D01*
X2071704Y1609655D02*
X2088368D01*
X2071723Y1609295D02*
X2088368D01*
X2071723Y1608935D02*
X2088368D01*
X2071723Y1608575D02*
X2088368D01*
X2073942Y1608215D02*
X2088368D01*
X2074646Y1607855D02*
X2088368D01*
X2075010Y1607495D02*
X2088368D01*
X2075240Y1607135D02*
X2088368D01*
X2075383Y1606775D02*
X2088368D01*
X2075457Y1606415D02*
X2088368D01*
X2075468Y1606055D02*
X2088368D01*
X2075417Y1605695D02*
X2088368D01*
X2075300Y1605335D02*
X2088368D01*
X2075104Y1604975D02*
X2088368D01*
X2074796Y1604615D02*
X2088368D01*
X2074305Y1604255D02*
X2088368D01*
X2074184Y1603895D02*
X2088368D01*
X2074441Y1603535D02*
X2088368D01*
X2074737Y1603175D02*
X2088368D01*
X2074920Y1602815D02*
X2088368D01*
X2075022Y1602455D02*
X2088368D01*
X2075055Y1602095D02*
X2088368D01*
X2075055Y1601735D02*
X2088368D01*
X2075055Y1601375D02*
X2088368D01*
X2075055Y1601015D02*
X2088368D01*
X2075055Y1600655D02*
X2088368D01*
X2075055Y1600295D02*
X2088368D01*
X2075055Y1599935D02*
X2088368D01*
X2075055Y1599575D02*
X2088368D01*
X2075055Y1599215D02*
X2088368D01*
X2075055Y1598855D02*
X2088368D01*
X2075055Y1598495D02*
X2088368D01*
X2075055Y1598135D02*
X2088368D01*
X2075055Y1597775D02*
X2088368D01*
X2075055Y1597415D02*
X2088368D01*
X2075055Y1597055D02*
X2088368D01*
X2075055Y1596695D02*
X2088368D01*
X2075055Y1596335D02*
X2088368D01*
X2075055Y1595975D02*
X2088368D01*
X2075055Y1595615D02*
X2088368D01*
X2075055Y1595255D02*
X2088368D01*
X2075055Y1594895D02*
X2088368D01*
X2075055Y1594535D02*
X2088368D01*
X2075055Y1594175D02*
X2088368D01*
X2075054Y1593815D02*
X2088368D01*
X2075010Y1593455D02*
X2088368D01*
X2074896Y1593095D02*
X2088368D01*
X2074697Y1592735D02*
X2088368D01*
X2074382Y1592375D02*
X2088368D01*
X2074022Y1592015D02*
X2088368D01*
X2073662Y1591655D02*
X2088368D01*
X2073302Y1591295D02*
X2088368D01*
X2072942Y1590935D02*
X2088368D01*
X2072582Y1590575D02*
X2088368D01*
X2072222Y1590215D02*
X2088368D01*
X2071862Y1589855D02*
X2088368D01*
X2071502Y1589495D02*
X2088368D01*
X2071142Y1589135D02*
X2088368D01*
X2070782Y1588775D02*
X2088368D01*
X2070422Y1588415D02*
X2088368D01*
X2070062Y1588055D02*
X2088368D01*
X2069702Y1587695D02*
X2088368D01*
X2069342Y1587335D02*
X2088368D01*
X2068982Y1586975D02*
X2088368D01*
X2068622Y1586615D02*
X2088368D01*
X2068262Y1586255D02*
X2088368D01*
X2067898Y1585895D02*
X2088368D01*
X2067335Y1585535D02*
X2088368D01*
X2063682Y1585175D02*
X2088368D01*
X2063322Y1584815D02*
X2088368D01*
X2062962Y1584455D02*
X2088368D01*
X2062602Y1584095D02*
X2088368D01*
X2062242Y1583735D02*
X2088368D01*
X2061882Y1583375D02*
X2088368D01*
X2061522Y1583015D02*
X2088368D01*
X2061162Y1582655D02*
X2088368D01*
X2060802Y1582295D02*
X2088368D01*
X2060442Y1581935D02*
X2088368D01*
X2060082Y1581575D02*
X2088368D01*
X2059722Y1581215D02*
X2088368D01*
X2059362Y1580855D02*
X2088368D01*
X2059002Y1580495D02*
X2088368D01*
X2079344Y1580135D02*
X2088368D01*
X2079973Y1579775D02*
X2088368D01*
X2080396Y1579415D02*
X2088368D01*
X2080709Y1579055D02*
X2088368D01*
X2080947Y1578695D02*
X2088368D01*
X2081126Y1578335D02*
X2088368D01*
X2081257Y1577975D02*
X2088368D01*
X2081345Y1577615D02*
X2088368D01*
X2081394Y1577255D02*
X2088368D01*
X2081404Y1576895D02*
X2088368D01*
X2081377Y1576535D02*
X2088368D01*
X2081311Y1576175D02*
X2088368D01*
X2081203Y1575815D02*
X2088368D01*
X2081051Y1575455D02*
X2088368D01*
X2080847Y1575095D02*
X2088368D01*
X2080577Y1574735D02*
X2088368D01*
X2080323Y1574375D02*
X2088368D01*
X2080427Y1574015D02*
X2088368D01*
X2086440Y1573655D02*
X2088368D01*
X2086709Y1573295D02*
X2088368D01*
X2086793Y1572935D02*
X2088368D01*
X2086794Y1572575D02*
X2088368D01*
X2086794Y1572215D02*
X2088368D01*
X2086794Y1571855D02*
X2088368D01*
X2086794Y1571495D02*
X2088368D01*
X2086794Y1571135D02*
X2088368D01*
X2086794Y1570775D02*
X2088368D01*
X2086794Y1570415D02*
X2088368D01*
X2086794Y1570055D02*
X2088368D01*
X2086752Y1569695D02*
X2088368D01*
X2086559Y1569335D02*
X2088368D01*
X2086329Y1568975D02*
X2088368D01*
X2086485Y1568615D02*
X2088368D01*
X2086726Y1568255D02*
X2088368D01*
X2086794Y1567895D02*
X2088368D01*
X2086794Y1567535D02*
X2088368D01*
X2086794Y1567175D02*
X2088368D01*
X2086794Y1566815D02*
X2088368D01*
X2086794Y1566455D02*
X2088368D01*
X2086794Y1566095D02*
X2088368D01*
X2086794Y1565735D02*
X2088368D01*
X2086794Y1565375D02*
X2088368D01*
X2086794Y1565015D02*
X2088368D01*
X2086740Y1564655D02*
X2088368D01*
X2086523Y1564295D02*
X2088368D01*
X2085908Y1563935D02*
X2088368D01*
X2085770Y1563575D02*
X2088368D01*
X2086031Y1563215D02*
X2088368D01*
X2086342Y1562855D02*
X2088368D01*
X2086553Y1562495D02*
X2088368D01*
X2086692Y1562135D02*
X2088368D01*
X2086770Y1561775D02*
X2088368D01*
X2086793Y1561415D02*
X2088368D01*
X2086764Y1561055D02*
X2088368D01*
X2086679Y1560695D02*
X2088368D01*
X2086533Y1560335D02*
X2088368D01*
X2086312Y1559975D02*
X2088368D01*
X2085986Y1559615D02*
X2088368D01*
X2085468Y1559255D02*
X2088368D01*
X2075805Y1558895D02*
X2088368D01*
X2075805Y1558535D02*
X2088368D01*
X2075805Y1558175D02*
X2088368D01*
X2075805Y1557815D02*
X2088368D01*
X2075805Y1557455D02*
X2088368D01*
X2075805Y1557095D02*
X2088368D01*
X2075805Y1556735D02*
X2088368D01*
X2075805Y1556375D02*
X2088368D01*
X2075805Y1556015D02*
X2088368D01*
X2075805Y1555655D02*
X2088368D01*
X2075805Y1555295D02*
X2088368D01*
X2075805Y1554935D02*
X2088368D01*
X2075805Y1554575D02*
X2088368D01*
X2075805Y1554215D02*
X2088368D01*
X2075805Y1553855D02*
X2088368D01*
X2075805Y1553495D02*
X2088368D01*
X2075805Y1553135D02*
X2088368D01*
X2075805Y1552775D02*
X2088368D01*
X2075805Y1552415D02*
X2088368D01*
X2075805Y1552055D02*
X2088368D01*
X2075805Y1551695D02*
X2088368D01*
X2075805Y1551335D02*
X2088368D01*
X2075805Y1550975D02*
X2088368D01*
X2075805Y1550615D02*
X2088368D01*
X2075805Y1550255D02*
X2088368D01*
X2075805Y1549895D02*
X2088368D01*
X2075805Y1549535D02*
X2088368D01*
X2075805Y1549175D02*
X2088368D01*
X2075805Y1548815D02*
X2088368D01*
X2075805Y1548455D02*
X2088368D01*
X2075805Y1548095D02*
X2088368D01*
X2075805Y1547735D02*
X2088368D01*
X2075805Y1547375D02*
X2088368D01*
X2075805Y1547015D02*
X2088368D01*
X2075805Y1546655D02*
X2088368D01*
X2075805Y1546295D02*
X2088368D01*
X2075805Y1545935D02*
X2088368D01*
X2075805Y1545575D02*
X2088368D01*
X2075805Y1545215D02*
X2088368D01*
X2075805Y1544855D02*
X2088368D01*
X2075805Y1544495D02*
X2088368D01*
X2075805Y1544135D02*
X2088368D01*
X2075805Y1543775D02*
X2088368D01*
X2075805Y1543415D02*
X2088368D01*
X2075805Y1543055D02*
X2088368D01*
X2075805Y1542695D02*
X2088368D01*
X2075805Y1542335D02*
X2088368D01*
X2075805Y1541975D02*
X2088368D01*
X2075805Y1541615D02*
X2088368D01*
X2075805Y1541255D02*
X2088368D01*
X2075805Y1540895D02*
X2088368D01*
X2075805Y1540535D02*
X2088368D01*
X2075805Y1540175D02*
X2088368D01*
X2075805Y1539815D02*
X2088368D01*
X2075805Y1539455D02*
X2088368D01*
X2075805Y1539095D02*
X2088368D01*
X2075805Y1538735D02*
X2088368D01*
X2075805Y1538375D02*
X2088368D01*
X2075805Y1538015D02*
X2088368D01*
X2075805Y1537655D02*
X2088368D01*
X2075805Y1537295D02*
X2088368D01*
X2075805Y1536935D02*
X2088368D01*
X2075805Y1536575D02*
X2088368D01*
X2075805Y1536215D02*
X2088368D01*
X2075805Y1535855D02*
X2088368D01*
X2075805Y1535495D02*
X2088368D01*
X2075805Y1535135D02*
X2088368D01*
X2075805Y1534775D02*
X2088368D01*
X2075805Y1534415D02*
X2088368D01*
X2075805Y1534055D02*
X2088368D01*
X2075805Y1533695D02*
X2088368D01*
X2075805Y1533335D02*
X2088368D01*
X2075805Y1532975D02*
X2088368D01*
X2075805Y1532615D02*
X2088368D01*
X2075805Y1532255D02*
X2088368D01*
X2075805Y1531895D02*
X2088368D01*
X2075805Y1531535D02*
X2088368D01*
X2075805Y1531175D02*
X2088368D01*
X2075805Y1530815D02*
X2088368D01*
X2075805Y1530455D02*
X2088368D01*
X2075805Y1530095D02*
X2088368D01*
X2075805Y1529735D02*
X2088368D01*
X2075805Y1529375D02*
X2088368D01*
X2075805Y1529015D02*
X2088368D01*
X2075805Y1528655D02*
X2088368D01*
X2075805Y1528295D02*
X2088368D01*
X2075805Y1527935D02*
X2088368D01*
X2075805Y1527575D02*
X2088368D01*
X2075805Y1527215D02*
X2088368D01*
X2075805Y1526855D02*
X2088368D01*
X2075805Y1526495D02*
X2088368D01*
X2075805Y1526135D02*
X2088368D01*
X2075805Y1525775D02*
X2088368D01*
X2075805Y1525415D02*
X2088368D01*
X2075805Y1525055D02*
X2088368D01*
X2075805Y1524695D02*
X2088368D01*
X2075805Y1524335D02*
X2088368D01*
X2075805Y1523975D02*
X2088368D01*
X2075795Y1523615D02*
X2088368D01*
X2075748Y1523255D02*
X2088368D01*
X2075662Y1522895D02*
X2088368D01*
X2075533Y1522535D02*
X2088368D01*
X2075356Y1522175D02*
X2088368D01*
X2075121Y1521815D02*
X2088368D01*
X2074812Y1521455D02*
X2088368D01*
X2074452Y1521095D02*
X2088368D01*
X2074092Y1520735D02*
X2088368D01*
X2073732Y1520375D02*
X2088368D01*
X2073372Y1520015D02*
X2088368D01*
X2073012Y1519655D02*
X2088368D01*
X2072652Y1519295D02*
X2088368D01*
X2072292Y1518935D02*
X2088368D01*
X2071921Y1518575D02*
X2088368D01*
X2071424Y1518215D02*
X2088368D01*
X2070587Y1517855D02*
X2088368D01*
X2027501Y1517495D02*
X2088368D01*
X2027464Y1517135D02*
X2088368D01*
X2027464Y1516775D02*
X2088368D01*
X2027464Y1516415D02*
X2088368D01*
X2027464Y1516055D02*
X2088368D01*
X2027464Y1515695D02*
X2088368D01*
X2027464Y1515335D02*
X2088368D01*
X2027464Y1514975D02*
X2088368D01*
X2027464Y1514615D02*
X2088368D01*
X2027464Y1514255D02*
X2088368D01*
X2027464Y1513895D02*
X2088368D01*
X2027464Y1513535D02*
X2088368D01*
X2027464Y1513175D02*
X2088368D01*
X2027464Y1512815D02*
X2088368D01*
X2027464Y1512455D02*
X2088368D01*
X2027464Y1512095D02*
X2088368D01*
X2027464Y1511735D02*
X2088368D01*
X2027464Y1511375D02*
X2088368D01*
X2027464Y1511015D02*
X2088368D01*
X2027464Y1510655D02*
X2088368D01*
X2027464Y1510295D02*
X2088368D01*
X2027464Y1509935D02*
X2088368D01*
X2027464Y1509575D02*
X2088368D01*
X2027464Y1509215D02*
X2088368D01*
X2027464Y1508855D02*
X2088368D01*
X2027464Y1508495D02*
X2088368D01*
X2027464Y1508135D02*
X2088368D01*
X2027464Y1507775D02*
X2088368D01*
X2027464Y1507415D02*
X2088368D01*
X2064126Y1507055D02*
X2088368D01*
X2065771Y1506695D02*
X2088368D01*
X2066822Y1506335D02*
X2088368D01*
X2067645Y1505975D02*
X2088368D01*
X2068335Y1505615D02*
X2088368D01*
X2068934Y1505255D02*
X2088368D01*
X2069464Y1504895D02*
X2088368D01*
X2069940Y1504535D02*
X2088368D01*
X2070373Y1504175D02*
X2088368D01*
X2070767Y1503815D02*
X2088368D01*
X2071130Y1503455D02*
X2088368D01*
X2071463Y1503095D02*
X2088368D01*
X2071771Y1502735D02*
X2088368D01*
X2072056Y1502375D02*
X2088368D01*
X2072320Y1502015D02*
X2088368D01*
X2072565Y1501655D02*
X2088368D01*
X2072791Y1501295D02*
X2088368D01*
X2073001Y1500935D02*
X2088368D01*
X2073194Y1500575D02*
X2088368D01*
X2073372Y1500215D02*
X2088368D01*
X2073536Y1499855D02*
X2088368D01*
X2073686Y1499495D02*
X2088368D01*
X2073823Y1499135D02*
X2088368D01*
X2073947Y1498775D02*
X2088368D01*
X2074059Y1498415D02*
X2088368D01*
X2074159Y1498055D02*
X2088368D01*
X2074247Y1497695D02*
X2088368D01*
X2074323Y1497335D02*
X2088368D01*
X2074388Y1496975D02*
X2088368D01*
X2074443Y1496615D02*
X2088368D01*
X2074486Y1496255D02*
X2088368D01*
X2074518Y1495895D02*
X2088368D01*
X2074540Y1495535D02*
X2088368D01*
X2074551Y1495175D02*
X2088368D01*
X2074552Y1494815D02*
X2088368D01*
X2074542Y1494455D02*
X2088368D01*
X2074521Y1494095D02*
X2088368D01*
X2074489Y1493735D02*
X2088368D01*
X2074447Y1493375D02*
X2088368D01*
X2074394Y1493015D02*
X2088368D01*
X2074330Y1492655D02*
X2088368D01*
X2074254Y1492295D02*
X2088368D01*
X2074168Y1491935D02*
X2088368D01*
X2074069Y1491575D02*
X2088368D01*
X2073959Y1491215D02*
X2088368D01*
X2073836Y1490855D02*
X2088368D01*
X2073700Y1490495D02*
X2088368D01*
X2073551Y1490135D02*
X2088368D01*
X2073389Y1489775D02*
X2088368D01*
X2073212Y1489415D02*
X2088368D01*
X2073020Y1489055D02*
X2088368D01*
X2072812Y1488695D02*
X2088368D01*
X2072587Y1488335D02*
X2088368D01*
X2072345Y1487975D02*
X2088368D01*
X2072083Y1487615D02*
X2088368D01*
X2071800Y1487255D02*
X2088368D01*
X2071494Y1486895D02*
X2088368D01*
X2071163Y1486535D02*
X2088368D01*
X2070803Y1486175D02*
X2088368D01*
X2070412Y1485815D02*
X2088368D01*
X2069984Y1485455D02*
X2088368D01*
X2069512Y1485095D02*
X2088368D01*
X2068987Y1484735D02*
X2088368D01*
X2068396Y1484375D02*
X2088368D01*
X2067716Y1484015D02*
X2088368D01*
X2066909Y1483655D02*
X2088368D01*
X2065887Y1483295D02*
X2088368D01*
X2064346Y1482935D02*
X2088368D01*
X2027464Y1482575D02*
X2088368D01*
X2027464Y1482215D02*
X2088368D01*
X2027464Y1481855D02*
X2088368D01*
X2027464Y1481495D02*
X2088368D01*
X2027464Y1481135D02*
X2088368D01*
X2027464Y1480775D02*
X2088368D01*
X2027464Y1480415D02*
X2088368D01*
X2027464Y1480055D02*
X2088368D01*
X2027464Y1479695D02*
X2088368D01*
X2027464Y1479335D02*
X2088368D01*
X2027464Y1478975D02*
X2088368D01*
X2027464Y1478615D02*
X2088368D01*
X2027464Y1478255D02*
X2088368D01*
X2027464Y1477895D02*
X2088368D01*
X2027464Y1477535D02*
X2088368D01*
X2027464Y1477175D02*
X2088368D01*
X2027464Y1476815D02*
X2088368D01*
X2027464Y1476455D02*
X2088368D01*
X2027464Y1476095D02*
X2088368D01*
X2027464Y1475735D02*
X2088368D01*
X2027464Y1475375D02*
X2088368D01*
X2027464Y1475015D02*
X2088368D01*
X2027464Y1474655D02*
X2088368D01*
X2027464Y1474295D02*
X2088368D01*
X2027464Y1473935D02*
X2088368D01*
X2027464Y1473575D02*
X2088368D01*
X2027464Y1473215D02*
X2088368D01*
X2027464Y1472855D02*
X2088368D01*
X2027464Y1472495D02*
X2088368D01*
X2027464Y1472135D02*
X2088368D01*
X2027464Y1471775D02*
X2088368D01*
X2027464Y1471415D02*
X2088368D01*
X2027464Y1471055D02*
X2088368D01*
X2027464Y1470695D02*
X2088368D01*
X2027464Y1470335D02*
X2088368D01*
X2027464Y1469975D02*
X2088368D01*
X2027464Y1469615D02*
X2088368D01*
X2027464Y1469255D02*
X2088368D01*
X2027464Y1468895D02*
X2088368D01*
X2027466Y1468535D02*
X2088366D01*
X2059343Y1630175D02*
X2088348D01*
X2058977Y1630535D02*
X2088300D01*
X2053375Y1630895D02*
X2088224D01*
X2053015Y1631255D02*
X2088119D01*
X2052655Y1631615D02*
X2087982D01*
X2052281Y1631975D02*
X2087810D01*
X2018464Y1632335D02*
X2087600D01*
X2018464Y1632695D02*
X2087343D01*
X2018464Y1633055D02*
X2087031D01*
X2018464Y1633415D02*
X2086647D01*
X2018464Y1633775D02*
X2086158D01*
X2018464Y1634135D02*
X2085487D01*
X2018679Y1634495D02*
X2084217D01*
X2075852Y1559255D02*
X2076670D01*
X2058642Y1580135D02*
X2073135D01*
X2071763Y1608215D02*
X2072737D01*
X2058282Y1579775D02*
X2072505D01*
X2059793Y1620095D02*
X2072237D01*
X2054908Y1623695D02*
X2072162D01*
X2057922Y1579415D02*
X2072083D01*
X2059137Y1620455D02*
X2071791D01*
X2054908Y1623335D02*
X2071747D01*
X2057562Y1579055D02*
X2071723D01*
X2047902Y1620815D02*
X2071517D01*
X2054908Y1622975D02*
X2071489D01*
X2057202Y1578695D02*
X2071363D01*
X2054310Y1621175D02*
X2071343D01*
X2054908Y1622615D02*
X2071326D01*
X2054739Y1621535D02*
X2071243D01*
X2054908Y1622255D02*
X2071235D01*
X2054888Y1621895D02*
X2071209D01*
X2055379Y1601015D02*
X2071055D01*
X2055379Y1600655D02*
X2071055D01*
X2055379Y1600295D02*
X2071055D01*
X2055379Y1599935D02*
X2071055D01*
X2055379Y1599575D02*
X2071055D01*
X2055379Y1599215D02*
X2071055D01*
X2055379Y1598855D02*
X2071055D01*
X2055379Y1598495D02*
X2071055D01*
X2055379Y1598135D02*
X2071055D01*
X2055372Y1597775D02*
X2071055D01*
X2055257Y1597415D02*
X2071055D01*
X2054923Y1597055D02*
X2071055D01*
X2042670Y1596695D02*
X2071055D01*
X2042628Y1596335D02*
X2071055D01*
X2042937Y1595975D02*
X2071055D01*
X2043330Y1595615D02*
X2071055D01*
X2054911Y1595255D02*
X2071055D01*
X2055253Y1594895D02*
X2071055D01*
X2056842Y1578335D02*
X2071003D01*
X2055379Y1601375D02*
X2070944D01*
X2055371Y1594535D02*
X2070885D01*
X2056482Y1577975D02*
X2070643D01*
X2055350Y1601735D02*
X2070584D01*
X2055379Y1594175D02*
X2070525D01*
X2056122Y1577615D02*
X2070283D01*
X2055179Y1602095D02*
X2070224D01*
X2055379Y1593815D02*
X2070165D01*
X2055762Y1577255D02*
X2069923D01*
X2054657Y1602455D02*
X2069864D01*
X2055379Y1593455D02*
X2069805D01*
X2055655Y1576895D02*
X2069563D01*
X2049928Y1602815D02*
X2069504D01*
X2055379Y1593095D02*
X2069445D01*
X2055655Y1576535D02*
X2069203D01*
X2055379Y1592735D02*
X2069085D01*
X2055655Y1566455D02*
X2068905D01*
X2055655Y1566095D02*
X2068905D01*
X2055655Y1565735D02*
X2068905D01*
X2055655Y1565375D02*
X2068905D01*
X2055687Y1565015D02*
X2068905D01*
X2056005Y1564655D02*
X2068905D01*
X2056365Y1564295D02*
X2068905D01*
X2030754Y1558535D02*
X2068905D01*
X2030754Y1558175D02*
X2068905D01*
X2030754Y1557815D02*
X2068905D01*
X2030833Y1557455D02*
X2068905D01*
X2031187Y1557095D02*
X2068905D01*
X2031547Y1556735D02*
X2068905D01*
X2031907Y1556375D02*
X2068905D01*
X2032267Y1556015D02*
X2068905D01*
X2032627Y1555655D02*
X2068905D01*
X2032987Y1555295D02*
X2068905D01*
X2033347Y1554935D02*
X2068905D01*
X2033707Y1554575D02*
X2068905D01*
X2034067Y1554215D02*
X2068905D01*
X2034427Y1553855D02*
X2068905D01*
X2034787Y1553495D02*
X2068905D01*
X2035147Y1553135D02*
X2068905D01*
X2035507Y1552775D02*
X2068905D01*
X2035867Y1552415D02*
X2068905D01*
X2036227Y1552055D02*
X2068905D01*
X2036587Y1551695D02*
X2068905D01*
X2036947Y1551335D02*
X2068905D01*
X2037307Y1550975D02*
X2068905D01*
X2037667Y1550615D02*
X2068905D01*
X2038033Y1550255D02*
X2068905D01*
X2038714Y1549895D02*
X2068905D01*
X2039079Y1549535D02*
X2068905D01*
X2039304Y1549175D02*
X2068905D01*
X2039437Y1548815D02*
X2068905D01*
X2039498Y1548455D02*
X2068905D01*
X2039493Y1548095D02*
X2068905D01*
X2039422Y1547735D02*
X2068905D01*
X2039276Y1547375D02*
X2068905D01*
X2039034Y1547015D02*
X2068905D01*
X2038637Y1546655D02*
X2068905D01*
X2038268Y1546295D02*
X2068905D01*
X2038353Y1545935D02*
X2068905D01*
X2038712Y1545575D02*
X2068905D01*
X2039072Y1545215D02*
X2068905D01*
X2039432Y1544855D02*
X2068905D01*
X2039792Y1544495D02*
X2068905D01*
X2040152Y1544135D02*
X2068905D01*
X2040512Y1543775D02*
X2068905D01*
X2040872Y1543415D02*
X2068905D01*
X2041232Y1543055D02*
X2068905D01*
X2041592Y1542695D02*
X2068905D01*
X2041952Y1542335D02*
X2068905D01*
X2042312Y1541975D02*
X2068905D01*
X2042672Y1541615D02*
X2068905D01*
X2043032Y1541255D02*
X2068905D01*
X2043392Y1540895D02*
X2068905D01*
X2043752Y1540535D02*
X2068905D01*
X2044112Y1540175D02*
X2068905D01*
X2044472Y1539815D02*
X2068905D01*
X2044832Y1539455D02*
X2068905D01*
X2045192Y1539095D02*
X2068905D01*
X2045552Y1538735D02*
X2068905D01*
X2045912Y1538375D02*
X2068905D01*
X2046272Y1538015D02*
X2068905D01*
X2046632Y1537655D02*
X2068905D01*
X2046992Y1537295D02*
X2068905D01*
X2047352Y1536935D02*
X2068905D01*
X2059813Y1536575D02*
X2068905D01*
X2060297Y1536215D02*
X2068905D01*
X2060657Y1535855D02*
X2068905D01*
X2061017Y1535495D02*
X2068905D01*
X2061377Y1535135D02*
X2068905D01*
X2061737Y1534775D02*
X2068905D01*
X2062097Y1534415D02*
X2068905D01*
X2062457Y1534055D02*
X2068905D01*
X2062817Y1533695D02*
X2068905D01*
X2063177Y1533335D02*
X2068905D01*
X2063537Y1532975D02*
X2068905D01*
X2063897Y1532615D02*
X2068905D01*
X2064257Y1532255D02*
X2068905D01*
X2064617Y1531895D02*
X2068905D01*
X2055655Y1576175D02*
X2068843D01*
X2064977Y1531535D02*
X2068818D01*
X2030754Y1558895D02*
X2068750D01*
X2055379Y1592375D02*
X2068725D01*
X2055655Y1566815D02*
X2068724D01*
X2056725Y1563935D02*
X2068684D01*
X2055655Y1575815D02*
X2068483D01*
X2055379Y1592015D02*
X2068365D01*
X2055655Y1567175D02*
X2068364D01*
X2055655Y1575455D02*
X2068123D01*
X2055379Y1591655D02*
X2068005D01*
X2055655Y1567535D02*
X2068004D01*
X2055655Y1575095D02*
X2067763D01*
X2055379Y1591295D02*
X2067645D01*
X2055655Y1567895D02*
X2067641D01*
X2055379Y1590935D02*
X2067285D01*
X2055352Y1590575D02*
X2066925D01*
X2055185Y1590215D02*
X2066565D01*
X2054683Y1589855D02*
X2066205D01*
X2065337Y1531175D02*
X2065935D01*
X2053194Y1589495D02*
X2065845D01*
X2061521Y1617935D02*
X2064864D01*
X2061636Y1615415D02*
X2064640D01*
X2062735Y1612895D02*
X2064629D01*
X2063095Y1612535D02*
X2064578D01*
X2061636Y1615055D02*
X2064553D01*
X2061612Y1617575D02*
X2064530D01*
X2061636Y1615775D02*
X2064466D01*
X2062375Y1613255D02*
X2064453D01*
X2063455Y1612175D02*
X2064428D01*
X2061636Y1614695D02*
X2064421D01*
X2061636Y1617215D02*
X2064415D01*
X2061636Y1616855D02*
X2064408D01*
X2061636Y1616495D02*
X2064408D01*
X2061636Y1616135D02*
X2064408D01*
X2061756Y1614335D02*
X2064408D01*
X2061798Y1613975D02*
X2064408D01*
X2062015Y1613615D02*
X2064408D01*
X2063845Y1611815D02*
X2064199D01*
X2052834Y1589135D02*
X2062102D01*
X2052474Y1588775D02*
X2061625D01*
X2055655Y1574735D02*
X2061415D01*
X2054309Y1608575D02*
X2061343D01*
X2054309Y1608215D02*
X2061296D01*
X2052114Y1588415D02*
X2061265D01*
X2055655Y1568255D02*
X2061088D01*
X2054309Y1608935D02*
X2061038D01*
X2051754Y1588055D02*
X2060905D01*
X2054309Y1609295D02*
X2060678D01*
X2055655Y1574375D02*
X2060617D01*
X2027464Y1507055D02*
X2060564D01*
X2051394Y1587695D02*
X2060545D01*
X2055655Y1568615D02*
X2060437D01*
X2027464Y1482935D02*
X2060344D01*
X2054309Y1609655D02*
X2060318D01*
X2030754Y1559255D02*
X2060301D01*
X2057085Y1563575D02*
X2060259D01*
X2050847Y1587335D02*
X2060185D01*
X2049976Y1603175D02*
X2060141D01*
X2055655Y1574015D02*
X2060133D01*
X2055655Y1568975D02*
X2060006D01*
X2054309Y1610015D02*
X2059958D01*
X2042308Y1586975D02*
X2059825D01*
X2055655Y1573655D02*
X2059782D01*
X2055655Y1569335D02*
X2059687D01*
X2054309Y1610375D02*
X2059598D01*
X2055655Y1573295D02*
X2059518D01*
X2041948Y1586615D02*
X2059465D01*
X2053261Y1603535D02*
X2059454D01*
X2055655Y1569695D02*
X2059445D01*
X2055655Y1572935D02*
X2059317D01*
X2055655Y1570055D02*
X2059262D01*
X2054309Y1610735D02*
X2059238D01*
X2055655Y1572575D02*
X2059167D01*
X2055655Y1570415D02*
X2059128D01*
X2041588Y1586255D02*
X2059105D01*
X2053678Y1603895D02*
X2059078D01*
X2055655Y1572215D02*
X2059063D01*
X2055655Y1570775D02*
X2059038D01*
X2055655Y1571855D02*
X2058999D01*
X2055655Y1571135D02*
X2058987D01*
X2055655Y1571495D02*
X2058974D01*
X2027464Y1506695D02*
X2058919D01*
X2054309Y1611095D02*
X2058878D01*
X2027464Y1483295D02*
X2058803D01*
X2041228Y1585895D02*
X2058745D01*
X2054031Y1604255D02*
X2058665D01*
X2040868Y1585535D02*
X2058385D01*
X2040508Y1585175D02*
X2058025D01*
X2054309Y1611455D02*
X2057909D01*
X2054309Y1607855D02*
X2057879D01*
X2027464Y1506335D02*
X2057868D01*
X2027464Y1483655D02*
X2057781D01*
X2054237Y1604615D02*
X2057727D01*
X2040148Y1584815D02*
X2057665D01*
X2052582Y1616135D02*
X2057636D01*
X2052942Y1615775D02*
X2057636D01*
X2053302Y1615415D02*
X2057636D01*
X2053662Y1615055D02*
X2057636D01*
X2054018Y1614695D02*
X2057636D01*
X2054309Y1611815D02*
X2057589D01*
X2054309Y1607495D02*
X2057578D01*
X2052222Y1616495D02*
X2057569D01*
X2054308Y1604975D02*
X2057522D01*
X2054231Y1614335D02*
X2057515D01*
X2054309Y1612175D02*
X2057480D01*
X2054309Y1607135D02*
X2057478D01*
X2054307Y1613975D02*
X2057474D01*
X2054309Y1613615D02*
X2057474D01*
X2054309Y1613255D02*
X2057474D01*
X2054309Y1612895D02*
X2057474D01*
X2054309Y1612535D02*
X2057474D01*
X2054309Y1606775D02*
X2057474D01*
X2054309Y1606415D02*
X2057474D01*
X2054309Y1606055D02*
X2057474D01*
X2054309Y1605695D02*
X2057474D01*
X2054309Y1605335D02*
X2057474D01*
X2039788Y1584455D02*
X2057305D01*
X2051862Y1616855D02*
X2057173D01*
X2048262Y1620455D02*
X2057140D01*
X2027464Y1505975D02*
X2057045D01*
X2027464Y1484015D02*
X2056974D01*
X2039428Y1584095D02*
X2056945D01*
X2039068Y1583735D02*
X2056585D01*
X2051502Y1617215D02*
X2056388D01*
X2048622Y1620095D02*
X2056370D01*
X2027464Y1505615D02*
X2056355D01*
X2027464Y1484375D02*
X2056294D01*
X2038708Y1583375D02*
X2056225D01*
X2051142Y1617575D02*
X2056183D01*
X2048982Y1619735D02*
X2056177D01*
X2049342Y1619375D02*
X2056136D01*
X2050782Y1617935D02*
X2056136D01*
X2050422Y1618295D02*
X2056116D01*
X2049702Y1619015D02*
X2056112D01*
X2050062Y1618655D02*
X2056081D01*
X2054977Y1630535D02*
X2055989D01*
X2038182Y1583015D02*
X2055865D01*
X2027464Y1505255D02*
X2055756D01*
X2027464Y1484735D02*
X2055703D01*
X2030754Y1559615D02*
X2055568D01*
X2030769Y1582655D02*
X2055505D01*
X2027464Y1504895D02*
X2055226D01*
X2027464Y1485095D02*
X2055178D01*
X2030754Y1582295D02*
X2055145D01*
X2030754Y1559975D02*
X2055030D01*
X2030754Y1581935D02*
X2054785D01*
X2027464Y1504535D02*
X2054750D01*
X2027464Y1485455D02*
X2054706D01*
X2030754Y1560335D02*
X2054668D01*
X2030754Y1581575D02*
X2054425D01*
X2027464Y1504175D02*
X2054317D01*
X2030754Y1560695D02*
X2054308D01*
X2027464Y1485815D02*
X2054278D01*
X2030754Y1581215D02*
X2054065D01*
X2030754Y1561055D02*
X2053948D01*
X2027464Y1503815D02*
X2053923D01*
X2027464Y1486175D02*
X2053887D01*
X2030754Y1580855D02*
X2053705D01*
X2030754Y1561415D02*
X2053588D01*
X2027464Y1503455D02*
X2053560D01*
X2027464Y1486535D02*
X2053527D01*
X2030754Y1580495D02*
X2053345D01*
X2030754Y1561775D02*
X2053228D01*
X2027464Y1503095D02*
X2053227D01*
X2027464Y1486895D02*
X2053196D01*
X2030754Y1580135D02*
X2052985D01*
X2027464Y1502735D02*
X2052919D01*
X2027464Y1487255D02*
X2052890D01*
X2030754Y1562135D02*
X2052868D01*
X2027464Y1502375D02*
X2052634D01*
X2030754Y1579775D02*
X2052625D01*
X2027464Y1487615D02*
X2052607D01*
X2030754Y1562495D02*
X2052508D01*
X2041299Y1502015D02*
X2052370D01*
X2041399Y1487975D02*
X2052345D01*
X2030754Y1579415D02*
X2052265D01*
X2030754Y1562855D02*
X2052154D01*
X2042052Y1501655D02*
X2052125D01*
X2042104Y1488335D02*
X2052103D01*
X2030754Y1579055D02*
X2051970D01*
X2048182Y1626575D02*
X2051924D01*
X2030754Y1563215D02*
X2051901D01*
X2042512Y1501295D02*
X2051899D01*
X2042548Y1488695D02*
X2051878D01*
X2048147Y1626935D02*
X2051800D01*
X2030754Y1578695D02*
X2051788D01*
X2030754Y1563575D02*
X2051748D01*
X2042842Y1500935D02*
X2051689D01*
X2030754Y1578335D02*
X2051687D01*
X2042869Y1489055D02*
X2051670D01*
X2030754Y1563935D02*
X2051670D01*
X2030754Y1577975D02*
X2051655D01*
X2030754Y1577615D02*
X2051655D01*
X2030754Y1577255D02*
X2051655D01*
X2030754Y1576895D02*
X2051655D01*
X2030754Y1576535D02*
X2051655D01*
X2030754Y1576175D02*
X2051655D01*
X2030754Y1575815D02*
X2051655D01*
X2030754Y1575455D02*
X2051655D01*
X2030754Y1575095D02*
X2051655D01*
X2030754Y1574735D02*
X2051655D01*
X2030754Y1574375D02*
X2051655D01*
X2030754Y1574015D02*
X2051655D01*
X2030754Y1573655D02*
X2051655D01*
X2030754Y1573295D02*
X2051655D01*
X2030754Y1572935D02*
X2051655D01*
X2030754Y1572575D02*
X2051655D01*
X2030754Y1572215D02*
X2051655D01*
X2030754Y1571855D02*
X2051655D01*
X2030754Y1571495D02*
X2051655D01*
X2030754Y1571135D02*
X2051655D01*
X2030754Y1570775D02*
X2051655D01*
X2030754Y1570415D02*
X2051655D01*
X2030754Y1570055D02*
X2051655D01*
X2030754Y1569695D02*
X2051655D01*
X2030754Y1569335D02*
X2051655D01*
X2030754Y1568975D02*
X2051655D01*
X2030754Y1568615D02*
X2051655D01*
X2030754Y1568255D02*
X2051655D01*
X2030754Y1567895D02*
X2051655D01*
X2030754Y1567535D02*
X2051655D01*
X2030754Y1567175D02*
X2051655D01*
X2030754Y1566815D02*
X2051655D01*
X2030754Y1566455D02*
X2051655D01*
X2030754Y1566095D02*
X2051655D01*
X2030754Y1565735D02*
X2051655D01*
X2030754Y1565375D02*
X2051655D01*
X2030754Y1565015D02*
X2051655D01*
X2030754Y1564655D02*
X2051655D01*
X2030754Y1564295D02*
X2051655D01*
X2048078Y1627295D02*
X2051554D01*
X2043089Y1500575D02*
X2051496D01*
X2047973Y1627655D02*
X2051483D01*
X2047642Y1628375D02*
X2051483D01*
X2047830Y1628015D02*
X2051483D01*
X2043109Y1489415D02*
X2051478D01*
X2043273Y1500215D02*
X2051318D01*
X2043287Y1489775D02*
X2051301D01*
X2047413Y1628735D02*
X2051292D01*
X2043404Y1499855D02*
X2051154D01*
X2043415Y1490135D02*
X2051139D01*
X2043491Y1499495D02*
X2051004D01*
X2043497Y1490495D02*
X2050990D01*
X2047425Y1629095D02*
X2050932D01*
X2049957Y1602455D02*
X2050901D01*
X2043535Y1499135D02*
X2050867D01*
X2043537Y1490855D02*
X2050854D01*
X2043540Y1498775D02*
X2050743D01*
X2043538Y1491215D02*
X2050731D01*
X2049502Y1597055D02*
X2050636D01*
X2043504Y1498415D02*
X2050631D01*
X2043499Y1491575D02*
X2050621D01*
X2048184Y1626215D02*
X2050535D01*
X2043427Y1498055D02*
X2050531D01*
X2043418Y1491935D02*
X2050522D01*
X2043306Y1497695D02*
X2050443D01*
X2043292Y1492295D02*
X2050436D01*
X2043135Y1497335D02*
X2050367D01*
X2043116Y1492655D02*
X2050360D01*
X2047542Y1621175D02*
X2050356D01*
X2042904Y1496975D02*
X2050302D01*
X2042878Y1493015D02*
X2050296D01*
X2042595Y1496615D02*
X2050247D01*
X2042560Y1493375D02*
X2050243D01*
X2049893Y1597415D02*
X2050229D01*
X2042171Y1496255D02*
X2050204D01*
X2042121Y1493735D02*
X2050201D01*
X2041517Y1495895D02*
X2050172D01*
X2041430Y1494095D02*
X2050169D01*
X2027464Y1495535D02*
X2050150D01*
X2027464Y1494455D02*
X2050148D01*
X2027464Y1495175D02*
X2050139D01*
X2027464Y1494815D02*
X2050138D01*
X2048154Y1625855D02*
X2049969D01*
X2047182Y1621535D02*
X2049927D01*
X2048089Y1625495D02*
X2049791D01*
X2046822Y1621895D02*
X2049777D01*
X2047989Y1625135D02*
X2049758D01*
X2047851Y1624775D02*
X2049758D01*
X2047669Y1624415D02*
X2049758D01*
X2047438Y1624055D02*
X2049758D01*
X2047143Y1623695D02*
X2049758D01*
X2046765Y1623335D02*
X2049758D01*
X2046281Y1622975D02*
X2049758D01*
X2046179Y1622615D02*
X2049758D01*
X2046462Y1622255D02*
X2049758D01*
X2027420Y1606775D02*
X2042235D01*
X1905873Y1606415D02*
X2042235D01*
X1905873Y1606055D02*
X2042235D01*
X1905873Y1605695D02*
X2042235D01*
X1905873Y1605335D02*
X2042235D01*
X1905873Y1604975D02*
X2042235D01*
X2028377Y1607135D02*
X2042208D01*
X1905873Y1604615D02*
X2042196D01*
X2028934Y1607495D02*
X2041819D01*
X2029339Y1607855D02*
X2041413D01*
X1905873Y1604255D02*
X2041347D01*
X2029652Y1608215D02*
X2041101D01*
X1922334Y1603895D02*
X2040981D01*
X2029899Y1608575D02*
X2040854D01*
X1922788Y1603535D02*
X2040852D01*
X2009783Y1603175D02*
X2040841D01*
X2010205Y1602815D02*
X2040841D01*
X2010352Y1602455D02*
X2040841D01*
X2010370Y1602095D02*
X2040841D01*
X2018009Y1601735D02*
X2040841D01*
X2018529Y1601375D02*
X2040841D01*
X2018890Y1601015D02*
X2040841D01*
X2019250Y1600655D02*
X2040841D01*
X2038231Y1600295D02*
X2040841D01*
X2038977Y1599935D02*
X2040841D01*
X2039337Y1599575D02*
X2040841D01*
X2039697Y1599215D02*
X2040841D01*
X2040057Y1598855D02*
X2040798D01*
X2030092Y1608935D02*
X2040661D01*
X2030241Y1609295D02*
X2040512D01*
X2030154Y1612175D02*
X2040502D01*
X2030287Y1611815D02*
X2040466D01*
X2030350Y1609655D02*
X2040402D01*
X2030383Y1611455D02*
X2040370D01*
X2030424Y1610015D02*
X2040329D01*
X2030443Y1611095D02*
X2040310D01*
X2030463Y1610375D02*
X2040290D01*
X2030469Y1610735D02*
X2040284D01*
X2029978Y1612535D02*
X2040202D01*
X2029753Y1612895D02*
X2039842D01*
X2029468Y1613255D02*
X2039482D01*
X2033425Y1502015D02*
X2039259D01*
X2033525Y1487975D02*
X2039159D01*
X2033556Y1494095D02*
X2039128D01*
X2029102Y1613615D02*
X2039122D01*
X2033643Y1495895D02*
X2039041D01*
X2028614Y1613975D02*
X2038762D01*
X2018464Y1631975D02*
X2038521D01*
X2034178Y1501655D02*
X2038506D01*
X2034230Y1488335D02*
X2038454D01*
X2034247Y1493735D02*
X2038437D01*
X2028044Y1614335D02*
X2038402D01*
X2034297Y1496255D02*
X2038387D01*
X2018464Y1631615D02*
X2038148D01*
X2034638Y1501295D02*
X2038046D01*
X2027998Y1614695D02*
X2038042D01*
X2034674Y1488695D02*
X2038010D01*
X2034686Y1493375D02*
X2037998D01*
X2034721Y1496615D02*
X2037963D01*
X2018464Y1631255D02*
X2037788D01*
X2034968Y1500935D02*
X2037716D01*
X2034995Y1489055D02*
X2037689D01*
X2028461Y1615055D02*
X2037682D01*
X2035004Y1493015D02*
X2037680D01*
X2035030Y1496975D02*
X2037654D01*
X2035215Y1500575D02*
X2037469D01*
X2035235Y1489415D02*
X2037449D01*
X2035242Y1492655D02*
X2037442D01*
X2018464Y1630895D02*
X2037428D01*
X2035261Y1497335D02*
X2037423D01*
X2028993Y1615415D02*
X2037322D01*
X2035399Y1500215D02*
X2037285D01*
X2035413Y1489775D02*
X2037271D01*
X2035418Y1492295D02*
X2037266D01*
X2035432Y1497695D02*
X2037252D01*
X2035530Y1499855D02*
X2037154D01*
X2035541Y1490135D02*
X2037143D01*
X2035544Y1491935D02*
X2037140D01*
X2035553Y1498055D02*
X2037130D01*
X2018464Y1630535D02*
X2037068D01*
X2035617Y1499495D02*
X2037067D01*
X2035623Y1490495D02*
X2037061D01*
X2035625Y1491575D02*
X2037059D01*
X2035630Y1498415D02*
X2037054D01*
X2035661Y1499135D02*
X2037023D01*
X2035663Y1490855D02*
X2037020D01*
X2035664Y1491215D02*
X2037020D01*
X2035666Y1498775D02*
X2037018D01*
X2029384Y1615775D02*
X2036962D01*
X2027595Y1630175D02*
X2036708D01*
X2029687Y1616135D02*
X2036602D01*
X2028459Y1629815D02*
X2036348D01*
X2029926Y1616495D02*
X2036242D01*
X2028991Y1629455D02*
X2035988D01*
X2030114Y1616855D02*
X2035884D01*
X2029383Y1629095D02*
X2035698D01*
X2030257Y1617215D02*
X2035642D01*
X2029687Y1628735D02*
X2035547D01*
X2030362Y1617575D02*
X2035523D01*
X2029926Y1628375D02*
X2035495D01*
X2030113Y1628015D02*
X2035495D01*
X2030257Y1627655D02*
X2035495D01*
X2030362Y1627295D02*
X2035495D01*
X2030431Y1626935D02*
X2035495D01*
X2030466Y1626575D02*
X2035495D01*
X2030468Y1626215D02*
X2035495D01*
X2030437Y1625855D02*
X2035495D01*
X2030373Y1625495D02*
X2035495D01*
X2030273Y1625135D02*
X2035495D01*
X2030134Y1624775D02*
X2035495D01*
X2029953Y1624415D02*
X2035495D01*
X2029721Y1624055D02*
X2035495D01*
X2029427Y1623695D02*
X2035495D01*
X2029049Y1623335D02*
X2035495D01*
X2028540Y1622975D02*
X2035495D01*
X2028018Y1622615D02*
X2035495D01*
X2028017Y1622255D02*
X2035495D01*
X2028539Y1621895D02*
X2035495D01*
X2029048Y1621535D02*
X2035495D01*
X2029426Y1621175D02*
X2035495D01*
X2029720Y1620815D02*
X2035495D01*
X2029952Y1620455D02*
X2035495D01*
X2030134Y1620095D02*
X2035495D01*
X2030272Y1619735D02*
X2035495D01*
X2030372Y1619375D02*
X2035495D01*
X2030437Y1619015D02*
X2035495D01*
X2030468Y1618655D02*
X2035495D01*
X2030466Y1618295D02*
X2035495D01*
X2030431Y1617935D02*
X2035495D01*
X2027464Y1502015D02*
X2031385D01*
X2027464Y1487975D02*
X2031285D01*
X2027464Y1494095D02*
X2031254D01*
X2027464Y1495895D02*
X2031167D01*
X2027464Y1501655D02*
X2030632D01*
X2027464Y1488335D02*
X2030580D01*
X2027464Y1493735D02*
X2030563D01*
X2027464Y1496255D02*
X2030513D01*
X2027464Y1501295D02*
X2030172D01*
X2027464Y1488695D02*
X2030136D01*
X2027464Y1493375D02*
X2030124D01*
X2027464Y1496615D02*
X2030089D01*
X2027464Y1500935D02*
X2029842D01*
X2027464Y1489055D02*
X2029815D01*
X2027464Y1493015D02*
X2029806D01*
X2027464Y1496975D02*
X2029780D01*
X2027464Y1500575D02*
X2029595D01*
X2027464Y1489415D02*
X2029575D01*
X2027464Y1492655D02*
X2029568D01*
X2027464Y1497335D02*
X2029549D01*
X2027525Y1500215D02*
X2029411D01*
X2027539Y1489775D02*
X2029397D01*
X2027544Y1492295D02*
X2029392D01*
X2027558Y1497695D02*
X2029378D01*
X2027656Y1499855D02*
X2029280D01*
X2027667Y1490135D02*
X2029269D01*
X2027670Y1491935D02*
X2029266D01*
X2027679Y1498055D02*
X2029256D01*
X2027743Y1499495D02*
X2029193D01*
X2027749Y1490495D02*
X2029187D01*
X2027751Y1491575D02*
X2029185D01*
X2027756Y1498415D02*
X2029180D01*
X2027787Y1499135D02*
X2029149D01*
X2027789Y1490855D02*
X2029146D01*
X2027790Y1491215D02*
X2029146D01*
X2027792Y1498775D02*
X2029144D01*
X1905873Y1606775D02*
X2025617D01*
X2018464Y1630175D02*
X2025442D01*
X2018464Y1614695D02*
X2025038D01*
X2018464Y1622255D02*
X2025019D01*
X2018464Y1622615D02*
X2025019D01*
X2018464Y1614335D02*
X2024992D01*
X1905873Y1607135D02*
X2024660D01*
X2018464Y1629815D02*
X2024577D01*
X2018464Y1615055D02*
X2024576D01*
X2018464Y1621895D02*
X2024498D01*
X2018464Y1622975D02*
X2024496D01*
X2018464Y1613975D02*
X2024422D01*
X2018464Y1607495D02*
X2024102D01*
X2018464Y1629455D02*
X2024045D01*
X2018464Y1615415D02*
X2024044D01*
X2018464Y1621535D02*
X2023989D01*
X2018464Y1623335D02*
X2023988D01*
X2018464Y1613615D02*
X2023934D01*
X2018464Y1607855D02*
X2023697D01*
X2018464Y1629095D02*
X2023653D01*
X2018464Y1615775D02*
X2023653D01*
X2018464Y1621175D02*
X2023610D01*
X2018464Y1623695D02*
X2023610D01*
X2018464Y1613255D02*
X2023569D01*
X2018464Y1608215D02*
X2023384D01*
X2018464Y1628735D02*
X2023350D01*
X2018464Y1616135D02*
X2023349D01*
X2018464Y1620815D02*
X2023316D01*
X2018464Y1624055D02*
X2023315D01*
X2018464Y1612895D02*
X2023283D01*
X2018464Y1608575D02*
X2023138D01*
X2018464Y1628375D02*
X2023111D01*
X2018464Y1616495D02*
X2023110D01*
X2018464Y1620455D02*
X2023084D01*
X2018464Y1624415D02*
X2023084D01*
X2018464Y1612535D02*
X2023058D01*
X2018464Y1608935D02*
X2022944D01*
X2018464Y1628015D02*
X2022923D01*
X2018464Y1616855D02*
X2022923D01*
X2018464Y1620095D02*
X2022903D01*
X2018464Y1624775D02*
X2022902D01*
X2018464Y1612175D02*
X2022883D01*
X2018464Y1609295D02*
X2022795D01*
X2018464Y1627655D02*
X2022780D01*
X2018464Y1617215D02*
X2022779D01*
X2018464Y1619735D02*
X2022764D01*
X2018464Y1625135D02*
X2022764D01*
X2018464Y1611815D02*
X2022749D01*
X2018464Y1609655D02*
X2022686D01*
X2018464Y1627295D02*
X2022675D01*
X2018464Y1617575D02*
X2022675D01*
X2018464Y1619375D02*
X2022664D01*
X2018464Y1625495D02*
X2022664D01*
X2018464Y1611455D02*
X2022654D01*
X2018464Y1610015D02*
X2022613D01*
X2018464Y1626935D02*
X2022606D01*
X2018464Y1617935D02*
X2022606D01*
X2018464Y1619015D02*
X2022599D01*
X2018464Y1625855D02*
X2022599D01*
X2018464Y1611095D02*
X2022594D01*
X2018464Y1610375D02*
X2022573D01*
X2018464Y1626575D02*
X2022571D01*
X2018464Y1618295D02*
X2022571D01*
X2018464Y1618655D02*
X2022569D01*
X2018464Y1626215D02*
X2022569D01*
X2018464Y1610735D02*
X2022567D01*
X2010370Y1597055D02*
X2016687D01*
X2010370Y1596695D02*
X2016687D01*
X2010370Y1596335D02*
X2016687D01*
X2010370Y1595975D02*
X2016687D01*
X2010370Y1595615D02*
X2016687D01*
X2010370Y1595255D02*
X2016687D01*
X2010370Y1594895D02*
X2016687D01*
X2010370Y1594535D02*
X2016687D01*
X2010370Y1594175D02*
X2016687D01*
X2010370Y1593815D02*
X2016687D01*
X2010334Y1593455D02*
X2016687D01*
X2010179Y1593095D02*
X2016687D01*
X2010252Y1592735D02*
X2016687D01*
X2010410Y1592375D02*
X2016687D01*
X2011878Y1592015D02*
X2016687D01*
X2012323Y1591655D02*
X2016687D01*
X2012569Y1591295D02*
X2016687D01*
X2012707Y1590935D02*
X2016687D01*
X2012762Y1590575D02*
X2016687D01*
X2012742Y1590215D02*
X2016687D01*
X2012644Y1589855D02*
X2016687D01*
X2012452Y1589495D02*
X2016687D01*
X2012118Y1589135D02*
X2016687D01*
X2011349Y1588775D02*
X2016687D01*
X2010322Y1588415D02*
X2016687D01*
X2010171Y1588055D02*
X2016687D01*
X2010273Y1587695D02*
X2016687D01*
X2010359Y1597415D02*
X2016687D01*
X2015379Y1587335D02*
X2016669D01*
X2010230Y1597775D02*
X2016473D01*
X2010370Y1601735D02*
X2016282D01*
X2010192Y1598135D02*
X2016113D01*
X2010370Y1601375D02*
X2015762D01*
X2010344Y1598495D02*
X2015753D01*
X2010370Y1601015D02*
X2015465D01*
X2010370Y1598855D02*
X2015460D01*
X2010370Y1600655D02*
X2015281D01*
X2010370Y1599215D02*
X2015278D01*
X2010370Y1600295D02*
X2015179D01*
X2010370Y1599575D02*
X2015178D01*
X2010370Y1599935D02*
X2015146D01*
X2010368Y1587335D02*
X2015049D01*
X1940492Y1603175D02*
X2003445D01*
X1940914Y1602815D02*
X2003023D01*
X1993707Y1602455D02*
X2002877D01*
X1994093Y1602095D02*
X2002806D01*
X1941060Y1602455D02*
X1945066D01*
X1941079Y1602095D02*
X1944680D01*
X1941079Y1601735D02*
X1944320D01*
X1941079Y1601375D02*
X1943960D01*
X1941079Y1601015D02*
X1943600D01*
X1941079Y1600655D02*
X1943240D01*
X1941079Y1600295D02*
X1942880D01*
X1941079Y1599935D02*
X1942520D01*
X1941079Y1599575D02*
X1942160D01*
X1941217Y1599215D02*
X1941794D01*
X1927961Y1603175D02*
X1934154D01*
X1928155Y1602815D02*
X1933732D01*
X1928292Y1602455D02*
X1933537D01*
X1918430Y1593455D02*
X1926611D01*
X1925896Y1593815D02*
X1926523D01*
X1918430Y1593095D02*
X1926444D01*
X1918367Y1590215D02*
X1926430D01*
X1918386Y1590575D02*
X1926419D01*
X1918430Y1592735D02*
X1926396D01*
X1918430Y1592375D02*
X1926396D01*
X1918430Y1592015D02*
X1926396D01*
X1918430Y1591655D02*
X1926396D01*
X1918430Y1591295D02*
X1926396D01*
X1918430Y1590935D02*
X1926396D01*
X1831920Y1633775D02*
X1923564D01*
X1918009Y1633415D02*
X1923564D01*
X1918321Y1633055D02*
X1923564D01*
X1918426Y1632695D02*
X1923564D01*
X1918430Y1632335D02*
X1923564D01*
X1918430Y1631975D02*
X1923564D01*
X1918430Y1631615D02*
X1923564D01*
X1918430Y1631255D02*
X1923564D01*
X1918430Y1630895D02*
X1923564D01*
X1918430Y1630535D02*
X1923564D01*
X1918430Y1630175D02*
X1923564D01*
X1918430Y1629815D02*
X1923564D01*
X1918430Y1629455D02*
X1923564D01*
X1918430Y1629095D02*
X1923564D01*
X1918430Y1628735D02*
X1923564D01*
X1918430Y1628375D02*
X1923564D01*
X1918430Y1628015D02*
X1923564D01*
X1918430Y1627655D02*
X1923564D01*
X1918430Y1627295D02*
X1923564D01*
X1918430Y1626935D02*
X1923564D01*
X1918430Y1626575D02*
X1923564D01*
X1918426Y1626215D02*
X1923564D01*
X1918325Y1625855D02*
X1923564D01*
X1918023Y1625495D02*
X1923564D01*
X1917300Y1625135D02*
X1923564D01*
X1917254Y1624775D02*
X1923564D01*
X1917275Y1624415D02*
X1923564D01*
X1917222Y1624055D02*
X1923564D01*
X1917086Y1623695D02*
X1923564D01*
X1916842Y1623335D02*
X1923564D01*
X1916403Y1622975D02*
X1923564D01*
X1911179Y1622615D02*
X1923564D01*
X1911257Y1622255D02*
X1923564D01*
X1911274Y1621895D02*
X1923564D01*
X1911217Y1621535D02*
X1923564D01*
X1911076Y1621175D02*
X1923564D01*
X1910824Y1620815D02*
X1923564D01*
X1910367Y1620455D02*
X1923564D01*
X1905873Y1620095D02*
X1923564D01*
X1905873Y1619735D02*
X1923564D01*
X1905873Y1619375D02*
X1923564D01*
X1905873Y1619015D02*
X1923564D01*
X1905873Y1618655D02*
X1923564D01*
X1905873Y1618295D02*
X1923564D01*
X1905873Y1617935D02*
X1923564D01*
X1905873Y1617575D02*
X1923564D01*
X1905873Y1617215D02*
X1923564D01*
X1905873Y1616855D02*
X1923564D01*
X1905873Y1616495D02*
X1923564D01*
X1905873Y1616135D02*
X1923564D01*
X1905873Y1615775D02*
X1923564D01*
X1905873Y1615415D02*
X1923564D01*
X1905873Y1615055D02*
X1923564D01*
X1905873Y1614695D02*
X1923564D01*
X1905873Y1614335D02*
X1923564D01*
X1905873Y1613975D02*
X1923564D01*
X1905873Y1613615D02*
X1923564D01*
X1905873Y1613255D02*
X1923564D01*
X1905873Y1612895D02*
X1923564D01*
X1905873Y1612535D02*
X1923564D01*
X1905873Y1612175D02*
X1923564D01*
X1905873Y1611815D02*
X1923564D01*
X1905873Y1611455D02*
X1923564D01*
X1905873Y1611095D02*
X1923564D01*
X1905873Y1610735D02*
X1923564D01*
X1905873Y1610375D02*
X1923564D01*
X1905873Y1610015D02*
X1923564D01*
X1905873Y1609655D02*
X1923564D01*
X1905873Y1609295D02*
X1923564D01*
X1905873Y1608935D02*
X1923564D01*
X1905873Y1608575D02*
X1923564D01*
X1905873Y1608215D02*
X1923564D01*
X1905873Y1607855D02*
X1923564D01*
X1905873Y1607495D02*
X1923564D01*
X1832243Y1634135D02*
X1923563D01*
X1832965Y1634495D02*
X1923267D01*
X1917304Y1598495D02*
X1922941D01*
X1917680Y1598135D02*
X1922910D01*
X1918224Y1597775D02*
X1922896D01*
X1918430Y1593815D02*
X1922895D01*
X1918399Y1597415D02*
X1922717D01*
X1917329Y1598855D02*
X1922673D01*
X1918430Y1594175D02*
X1922533D01*
X1918430Y1597055D02*
X1922468D01*
X1918430Y1594535D02*
X1922406D01*
X1918430Y1596695D02*
X1922396D01*
X1918430Y1596335D02*
X1922396D01*
X1918430Y1595975D02*
X1922396D01*
X1918430Y1595615D02*
X1922396D01*
X1918430Y1595255D02*
X1922396D01*
X1918430Y1594895D02*
X1922396D01*
X1917297Y1599215D02*
X1921527D01*
X1917186Y1599575D02*
X1921091D01*
X1916976Y1599935D02*
X1920731D01*
X1916610Y1600295D02*
X1920371D01*
X1905873Y1603895D02*
X1920320D01*
X1911184Y1600655D02*
X1920011D01*
X1905873Y1603535D02*
X1919868D01*
X1911290Y1601015D02*
X1919692D01*
X1905873Y1603175D02*
X1919600D01*
X1911329Y1601375D02*
X1919491D01*
X1910582Y1602815D02*
X1919435D01*
X1911293Y1601735D02*
X1919374D01*
X1910961Y1602455D02*
X1919348D01*
X1911177Y1602095D02*
X1919329D01*
X1911179Y1622975D02*
X1914651D01*
X1911179Y1600295D02*
X1914548D01*
X1911179Y1623335D02*
X1914212D01*
X1911179Y1599935D02*
X1914182D01*
X1911179Y1599575D02*
X1913972D01*
X1911179Y1623695D02*
X1913968D01*
X1911179Y1599215D02*
X1913861D01*
X1911185Y1598495D02*
X1913846D01*
X1911179Y1624055D02*
X1913832D01*
X1911179Y1598855D02*
X1913829D01*
X1911179Y1624775D02*
X1913800D01*
X1911179Y1624415D02*
X1913779D01*
X1911255Y1625135D02*
X1913742D01*
X1912011Y1598135D02*
X1913243D01*
X1912340Y1633415D02*
X1912914D01*
X1912353Y1625495D02*
X1912901D01*
X1905873Y1620455D02*
X1908687D01*
X1905873Y1602815D02*
X1908576D01*
X1905873Y1620815D02*
X1908230D01*
X1905873Y1602455D02*
X1908197D01*
X1905873Y1602095D02*
X1907981D01*
X1905873Y1624775D02*
X1907979D01*
X1905873Y1624415D02*
X1907979D01*
X1905873Y1624055D02*
X1907979D01*
X1905873Y1623695D02*
X1907979D01*
X1905873Y1623335D02*
X1907979D01*
X1905873Y1622975D02*
X1907979D01*
X1905873Y1600295D02*
X1907979D01*
X1905873Y1599935D02*
X1907979D01*
X1905873Y1599575D02*
X1907979D01*
X1905873Y1599215D02*
X1907979D01*
X1905873Y1598855D02*
X1907979D01*
X1905873Y1621175D02*
X1907978D01*
X1905878Y1598495D02*
X1907976D01*
X1905873Y1600655D02*
X1907974D01*
X1905941Y1625135D02*
X1907918D01*
X1905873Y1622615D02*
X1907892D01*
X1905873Y1601015D02*
X1907868D01*
X1905873Y1601735D02*
X1907865D01*
X1905873Y1621535D02*
X1907837D01*
X1905873Y1601375D02*
X1907829D01*
X1905873Y1622255D02*
X1907797D01*
X1905873Y1621895D02*
X1907780D01*
X1906342Y1598135D02*
X1907574D01*
X1906671Y1633415D02*
X1907245D01*
X1906684Y1625495D02*
X1907231D01*
X1904962Y1488335D02*
X1906327D01*
X1904865Y1487975D02*
X1906327D01*
X1904865Y1487615D02*
X1906327D01*
X1904865Y1487255D02*
X1906327D01*
X1904836Y1486895D02*
X1906327D01*
X1904728Y1486535D02*
X1906327D01*
X1904523Y1486175D02*
X1906327D01*
X1904191Y1485815D02*
X1906327D01*
X1903831Y1485455D02*
X1906327D01*
X1903471Y1485095D02*
X1906327D01*
X1903111Y1484735D02*
X1906327D01*
X1902751Y1484375D02*
X1906327D01*
X1902391Y1484015D02*
X1906327D01*
X1902031Y1483655D02*
X1906327D01*
X1901671Y1483295D02*
X1906327D01*
X1901310Y1482935D02*
X1906327D01*
X1900747Y1482575D02*
X1906327D01*
X1831627Y1482215D02*
X1906327D01*
X1831627Y1481855D02*
X1906327D01*
X1831627Y1481495D02*
X1906327D01*
X1831627Y1481135D02*
X1906327D01*
X1831627Y1480775D02*
X1906327D01*
X1831627Y1480415D02*
X1906327D01*
X1831627Y1480055D02*
X1906327D01*
X1831627Y1479695D02*
X1906327D01*
X1831627Y1479335D02*
X1906327D01*
X1831627Y1478975D02*
X1906327D01*
X1831627Y1478615D02*
X1906327D01*
X1831627Y1478255D02*
X1906327D01*
X1831627Y1477895D02*
X1906327D01*
X1831627Y1477535D02*
X1906327D01*
X1831627Y1477175D02*
X1906327D01*
X1831627Y1476815D02*
X1906327D01*
X1831627Y1476455D02*
X1906327D01*
X1831627Y1476095D02*
X1906327D01*
X1831627Y1475735D02*
X1906327D01*
X1831627Y1475375D02*
X1906327D01*
X1831627Y1475015D02*
X1906327D01*
X1831627Y1474655D02*
X1906327D01*
X1831627Y1474295D02*
X1906327D01*
X1831627Y1473935D02*
X1906327D01*
X1831627Y1473575D02*
X1906327D01*
X1831627Y1473215D02*
X1906327D01*
X1831627Y1472855D02*
X1906327D01*
X1831627Y1472495D02*
X1906327D01*
X1831627Y1472135D02*
X1906327D01*
X1831627Y1471775D02*
X1906327D01*
X1831627Y1471415D02*
X1906327D01*
X1831627Y1471055D02*
X1906327D01*
X1831627Y1470695D02*
X1906327D01*
X1831627Y1470335D02*
X1906327D01*
X1831627Y1469975D02*
X1906327D01*
X1831627Y1469615D02*
X1906327D01*
X1831627Y1469255D02*
X1906327D01*
X1905384Y1488695D02*
X1906327D01*
X1831635Y1468895D02*
X1906319D01*
X1905759Y1489055D02*
X1906095D01*
X1901001Y1633415D02*
X1901575D01*
X1895332D02*
X1895906D01*
X1889509D02*
X1890237D01*
X1883840D02*
X1884414D01*
X1878171D02*
X1878745D01*
X1831627Y1482575D02*
X1877335D01*
X1859428Y1482935D02*
X1876771D01*
X1860969Y1483295D02*
X1876410D01*
X1861991Y1483655D02*
X1876050D01*
X1862798Y1484015D02*
X1875690D01*
X1863478Y1484375D02*
X1875330D01*
X1864069Y1484735D02*
X1874970D01*
X1864594Y1485095D02*
X1874610D01*
X1865066Y1485455D02*
X1874250D01*
X1865494Y1485815D02*
X1873890D01*
X1865885Y1486175D02*
X1873530D01*
X1831627Y1566815D02*
X1873427D01*
X1831627Y1566455D02*
X1873427D01*
X1831627Y1566095D02*
X1873427D01*
X1831627Y1565735D02*
X1873427D01*
X1831627Y1565375D02*
X1873427D01*
X1831627Y1565015D02*
X1873427D01*
X1831627Y1567175D02*
X1873392D01*
X1831627Y1564655D02*
X1873271D01*
X1866245Y1486535D02*
X1873170D01*
X1872501Y1633415D02*
X1873075D01*
X1831627Y1564295D02*
X1872911D01*
X1866576Y1486895D02*
X1872810D01*
X1831627Y1563935D02*
X1872551D01*
X1866882Y1487255D02*
X1872450D01*
X1831627Y1563575D02*
X1872191D01*
X1867165Y1487615D02*
X1872090D01*
X1831627Y1563215D02*
X1871831D01*
X1867427Y1487975D02*
X1871730D01*
X1831627Y1562855D02*
X1871471D01*
X1867669Y1488335D02*
X1871458D01*
X1867894Y1488695D02*
X1871303D01*
X1868102Y1489055D02*
X1871234D01*
X1863417Y1505615D02*
X1871227D01*
X1864016Y1505255D02*
X1871227D01*
X1864546Y1504895D02*
X1871227D01*
X1865022Y1504535D02*
X1871227D01*
X1865455Y1504175D02*
X1871227D01*
X1865849Y1503815D02*
X1871227D01*
X1866212Y1503455D02*
X1871227D01*
X1866545Y1503095D02*
X1871227D01*
X1866853Y1502735D02*
X1871227D01*
X1867138Y1502375D02*
X1871227D01*
X1867402Y1502015D02*
X1871227D01*
X1867647Y1501655D02*
X1871227D01*
X1867873Y1501295D02*
X1871227D01*
X1868083Y1500935D02*
X1871227D01*
X1868276Y1500575D02*
X1871227D01*
X1868454Y1500215D02*
X1871227D01*
X1868618Y1499855D02*
X1871227D01*
X1868768Y1499495D02*
X1871227D01*
X1868905Y1499135D02*
X1871227D01*
X1869029Y1498775D02*
X1871227D01*
X1869141Y1498415D02*
X1871227D01*
X1869241Y1498055D02*
X1871227D01*
X1869329Y1497695D02*
X1871227D01*
X1869405Y1497335D02*
X1871227D01*
X1869470Y1496975D02*
X1871227D01*
X1869525Y1496615D02*
X1871227D01*
X1869568Y1496255D02*
X1871227D01*
X1869600Y1495895D02*
X1871227D01*
X1869622Y1495535D02*
X1871227D01*
X1869633Y1495175D02*
X1871227D01*
X1869634Y1494815D02*
X1871227D01*
X1869624Y1494455D02*
X1871227D01*
X1869603Y1494095D02*
X1871227D01*
X1869571Y1493735D02*
X1871227D01*
X1869529Y1493375D02*
X1871227D01*
X1869476Y1493015D02*
X1871227D01*
X1869412Y1492655D02*
X1871227D01*
X1869336Y1492295D02*
X1871227D01*
X1869250Y1491935D02*
X1871227D01*
X1869151Y1491575D02*
X1871227D01*
X1869041Y1491215D02*
X1871227D01*
X1868918Y1490855D02*
X1871227D01*
X1868782Y1490495D02*
X1871227D01*
X1868633Y1490135D02*
X1871227D01*
X1868471Y1489775D02*
X1871227D01*
X1868294Y1489415D02*
X1871227D01*
X1862727Y1505975D02*
X1871215D01*
X1831627Y1562495D02*
X1871111D01*
X1861904Y1506335D02*
X1870934D01*
X1831627Y1562135D02*
X1870751D01*
X1860853Y1506695D02*
X1870574D01*
X1868741Y1567535D02*
X1870414D01*
X1831627Y1561775D02*
X1870391D01*
X1859208Y1507055D02*
X1870214D01*
X1869115Y1567895D02*
X1870040D01*
X1831627Y1561415D02*
X1870031D01*
X1831627Y1507415D02*
X1869854D01*
X1869329Y1568255D02*
X1869825D01*
X1831627Y1561055D02*
X1869671D01*
X1831627Y1507775D02*
X1869494D01*
X1831627Y1560695D02*
X1869311D01*
X1831627Y1508135D02*
X1869134D01*
X1831627Y1560335D02*
X1868951D01*
X1831627Y1508495D02*
X1868774D01*
X1831627Y1559975D02*
X1868591D01*
X1831627Y1508855D02*
X1868414D01*
X1831627Y1559615D02*
X1868231D01*
X1831627Y1509215D02*
X1868054D01*
X1831627Y1559255D02*
X1867871D01*
X1831627Y1509575D02*
X1867694D01*
X1831627Y1558895D02*
X1867511D01*
X1866832Y1633415D02*
X1867406D01*
X1831627Y1509935D02*
X1867334D01*
X1831627Y1558535D02*
X1867151D01*
X1831627Y1510295D02*
X1866974D01*
X1831627Y1558175D02*
X1866791D01*
X1831627Y1557815D02*
X1866431D01*
X1831627Y1557455D02*
X1866071D01*
X1831627Y1557095D02*
X1865711D01*
X1863741Y1567535D02*
X1865414D01*
X1831627Y1556735D02*
X1865351D01*
X1864115Y1567895D02*
X1865040D01*
X1831627Y1556375D02*
X1864991D01*
X1864329Y1568255D02*
X1864825D01*
X1831627Y1556015D02*
X1864631D01*
X1831627Y1555655D02*
X1864271D01*
X1831627Y1555295D02*
X1863911D01*
X1831627Y1554935D02*
X1863551D01*
X1831627Y1554575D02*
X1863191D01*
X1831627Y1554215D02*
X1862831D01*
X1831627Y1553855D02*
X1862471D01*
X1861009Y1633415D02*
X1861737D01*
X1858741Y1567535D02*
X1860414D01*
X1858813Y1553495D02*
X1860341D01*
X1859115Y1567895D02*
X1860040D01*
X1859140Y1553135D02*
X1860015D01*
X1859329Y1568255D02*
X1859825D01*
X1859398Y1552775D02*
X1859757D01*
X1831627Y1510655D02*
X1858815D01*
X1831627Y1511015D02*
X1857838D01*
X1831627Y1511375D02*
X1857457D01*
X1831627Y1511735D02*
X1857097D01*
X1831627Y1512095D02*
X1856737D01*
X1831627Y1512455D02*
X1856377D01*
X1831627Y1516055D02*
X1856058D01*
X1831627Y1512815D02*
X1856017D01*
X1831627Y1516415D02*
X1855986D01*
X1855340Y1633415D02*
X1855914D01*
X1831627Y1515695D02*
X1855724D01*
X1831627Y1513175D02*
X1855657D01*
X1831627Y1507055D02*
X1855646D01*
X1831627Y1516775D02*
X1855630D01*
X1831627Y1482935D02*
X1855425D01*
X1831627Y1515335D02*
X1855423D01*
X1853741Y1567535D02*
X1855414D01*
X1831627Y1513535D02*
X1855384D01*
X1853813Y1553495D02*
X1855341D01*
X1831627Y1517135D02*
X1855270D01*
X1831627Y1514975D02*
X1855250D01*
X1831627Y1513895D02*
X1855229D01*
X1831627Y1514615D02*
X1855167D01*
X1831627Y1514255D02*
X1855160D01*
X1854115Y1567895D02*
X1855040D01*
X1854140Y1553135D02*
X1855015D01*
X1831627Y1517495D02*
X1854910D01*
X1854329Y1568255D02*
X1854825D01*
X1854398Y1552775D02*
X1854757D01*
X1831627Y1517855D02*
X1854550D01*
X1831627Y1518215D02*
X1854190D01*
X1831627Y1506695D02*
X1854001D01*
X1831627Y1483295D02*
X1853885D01*
X1831627Y1518575D02*
X1853830D01*
X1831627Y1518935D02*
X1853470D01*
X1831627Y1519295D02*
X1853110D01*
X1831627Y1506335D02*
X1852950D01*
X1831627Y1483655D02*
X1852863D01*
X1831627Y1519655D02*
X1852750D01*
X1831627Y1520015D02*
X1852390D01*
X1831627Y1505975D02*
X1852127D01*
X1831627Y1484015D02*
X1852056D01*
X1831627Y1520375D02*
X1852030D01*
X1831627Y1520735D02*
X1851670D01*
X1831627Y1505615D02*
X1851437D01*
X1831627Y1484375D02*
X1851376D01*
X1831627Y1521095D02*
X1851310D01*
X1831627Y1521455D02*
X1850950D01*
X1831627Y1505255D02*
X1850838D01*
X1831627Y1484735D02*
X1850785D01*
X1831627Y1521815D02*
X1850590D01*
X1848741Y1567535D02*
X1850414D01*
X1848813Y1553495D02*
X1850341D01*
X1831627Y1504895D02*
X1850308D01*
X1831627Y1485095D02*
X1850260D01*
X1849671Y1633415D02*
X1850245D01*
X1831627Y1522175D02*
X1850230D01*
X1849115Y1567895D02*
X1850040D01*
X1849140Y1553135D02*
X1850015D01*
X1831627Y1522535D02*
X1849870D01*
X1831627Y1504535D02*
X1849832D01*
X1849329Y1568255D02*
X1849825D01*
X1831627Y1485455D02*
X1849788D01*
X1849398Y1552775D02*
X1849757D01*
X1831627Y1522895D02*
X1849510D01*
X1831627Y1504175D02*
X1849399D01*
X1831627Y1485815D02*
X1849360D01*
X1831627Y1523255D02*
X1849150D01*
X1831627Y1503815D02*
X1849005D01*
X1831627Y1486175D02*
X1848969D01*
X1831627Y1523615D02*
X1848790D01*
X1831627Y1503455D02*
X1848642D01*
X1831627Y1486535D02*
X1848609D01*
X1831627Y1523975D02*
X1848430D01*
X1831627Y1503095D02*
X1848309D01*
X1831627Y1486895D02*
X1848278D01*
X1831627Y1524335D02*
X1848070D01*
X1831627Y1502735D02*
X1848001D01*
X1831627Y1487255D02*
X1847972D01*
X1831627Y1502375D02*
X1847715D01*
X1831627Y1524695D02*
X1847710D01*
X1831627Y1487615D02*
X1847689D01*
X1831627Y1502015D02*
X1847452D01*
X1831627Y1487975D02*
X1847427D01*
X1831627Y1525055D02*
X1847350D01*
X1831627Y1501655D02*
X1847207D01*
X1831627Y1488335D02*
X1847185D01*
X1831627Y1525415D02*
X1846990D01*
X1831627Y1501295D02*
X1846981D01*
X1831627Y1488695D02*
X1846960D01*
X1831627Y1500935D02*
X1846771D01*
X1831627Y1489055D02*
X1846752D01*
X1831627Y1525775D02*
X1846630D01*
X1831627Y1500575D02*
X1846578D01*
X1831627Y1489415D02*
X1846560D01*
X1831627Y1500215D02*
X1846400D01*
X1831627Y1489775D02*
X1846383D01*
X1831627Y1526135D02*
X1846270D01*
X1831627Y1499855D02*
X1846236D01*
X1831627Y1490135D02*
X1846221D01*
X1831627Y1499495D02*
X1846086D01*
X1831627Y1490495D02*
X1846072D01*
X1831627Y1499135D02*
X1845949D01*
X1831627Y1490855D02*
X1845936D01*
X1831627Y1526495D02*
X1845924D01*
X1831627Y1498775D02*
X1845825D01*
X1831627Y1491215D02*
X1845813D01*
X1831627Y1498415D02*
X1845713D01*
X1831627Y1526855D02*
X1845709D01*
X1831627Y1491575D02*
X1845703D01*
X1831627Y1498055D02*
X1845613D01*
X1831627Y1491935D02*
X1845604D01*
X1831627Y1527215D02*
X1845601D01*
X1843609Y1536935D02*
X1845577D01*
X1843419Y1536575D02*
X1845577D01*
X1843089Y1536215D02*
X1845577D01*
X1842341Y1535855D02*
X1845577D01*
X1831627Y1535495D02*
X1845577D01*
X1831627Y1535135D02*
X1845577D01*
X1831627Y1534775D02*
X1845577D01*
X1831627Y1534415D02*
X1845577D01*
X1831627Y1534055D02*
X1845577D01*
X1831627Y1533695D02*
X1845577D01*
X1831627Y1533335D02*
X1845577D01*
X1831627Y1532975D02*
X1845577D01*
X1831627Y1532615D02*
X1845577D01*
X1831627Y1532255D02*
X1845577D01*
X1831627Y1531895D02*
X1845577D01*
X1831627Y1531535D02*
X1845577D01*
X1831627Y1531175D02*
X1845577D01*
X1831627Y1530815D02*
X1845577D01*
X1831627Y1530455D02*
X1845577D01*
X1831627Y1530095D02*
X1845577D01*
X1831627Y1529735D02*
X1845577D01*
X1831627Y1529375D02*
X1845577D01*
X1831627Y1529015D02*
X1845577D01*
X1831627Y1528655D02*
X1845577D01*
X1831627Y1528295D02*
X1845577D01*
X1831627Y1527935D02*
X1845577D01*
X1831627Y1527575D02*
X1845577D01*
X1831627Y1497695D02*
X1845525D01*
X1843585Y1538375D02*
X1845518D01*
X1831627Y1492295D02*
X1845517D01*
X1843706Y1537295D02*
X1845492D01*
X1843664Y1542335D02*
X1845491D01*
X1831627Y1497335D02*
X1845449D01*
X1843669Y1538015D02*
X1845445D01*
X1831627Y1492655D02*
X1845442D01*
X1843725Y1537655D02*
X1845431D01*
X1843741Y1567535D02*
X1845414D01*
X1831627Y1496975D02*
X1845384D01*
X1831627Y1493015D02*
X1845378D01*
X1843779Y1542695D02*
X1845375D01*
X1843813Y1553495D02*
X1845341D01*
X1843818Y1538735D02*
X1845337D01*
X1831627Y1496615D02*
X1845329D01*
X1831627Y1493375D02*
X1845325D01*
X1831627Y1496255D02*
X1845286D01*
X1831627Y1493735D02*
X1845282D01*
X1843875Y1546295D02*
X1845280D01*
X1843900Y1541975D02*
X1845254D01*
X1831627Y1495895D02*
X1845254D01*
X1831627Y1494095D02*
X1845251D01*
X1831627Y1495535D02*
X1845232D01*
X1831627Y1494455D02*
X1845230D01*
X1843927Y1545935D02*
X1845228D01*
X1831627Y1495175D02*
X1845221D01*
X1831627Y1494815D02*
X1845220D01*
X1844013Y1543055D02*
X1845141D01*
X1844027Y1539095D02*
X1845127D01*
X1844055Y1541615D02*
X1845099D01*
X1844063Y1545575D02*
X1845091D01*
X1844077Y1545215D02*
X1845077D01*
X1844077Y1544855D02*
X1845077D01*
X1844077Y1544495D02*
X1845077D01*
X1844077Y1544135D02*
X1845077D01*
X1844077Y1543775D02*
X1845077D01*
X1844077Y1543415D02*
X1845077D01*
X1844077Y1541255D02*
X1845077D01*
X1844077Y1540895D02*
X1845077D01*
X1844077Y1540535D02*
X1845077D01*
X1844077Y1540175D02*
X1845077D01*
X1844077Y1539815D02*
X1845077D01*
X1844077Y1539455D02*
X1845077D01*
X1844115Y1567895D02*
X1845040D01*
X1844127Y1546655D02*
X1845028D01*
X1844140Y1553135D02*
X1845015D01*
X1844329Y1568255D02*
X1844825D01*
X1844356Y1547015D02*
X1844798D01*
X1844398Y1552775D02*
X1844757D01*
X1844001Y1633415D02*
X1844575D01*
X1837341Y1535855D02*
X1841614D01*
X1838089Y1536215D02*
X1840866D01*
X1838419Y1536575D02*
X1840535D01*
X1838664Y1542335D02*
X1840491D01*
X1838741Y1567535D02*
X1840414D01*
X1838585Y1538375D02*
X1840377D01*
X1838779Y1542695D02*
X1840375D01*
X1838609Y1536935D02*
X1840345D01*
X1837917Y1553495D02*
X1840341D01*
X1838818Y1538735D02*
X1840327D01*
X1838669Y1538015D02*
X1840286D01*
X1838688Y1546295D02*
X1840280D01*
X1838900Y1541975D02*
X1840254D01*
X1838706Y1537295D02*
X1840249D01*
X1838725Y1537655D02*
X1840229D01*
X1838927Y1545935D02*
X1840228D01*
X1839013Y1543055D02*
X1840141D01*
X1839027Y1539095D02*
X1840127D01*
X1839055Y1541615D02*
X1840099D01*
X1839063Y1545575D02*
X1840091D01*
X1839077Y1545215D02*
X1840077D01*
X1839077Y1544855D02*
X1840077D01*
X1839077Y1544495D02*
X1840077D01*
X1839077Y1544135D02*
X1840077D01*
X1839077Y1543775D02*
X1840077D01*
X1839077Y1543415D02*
X1840077D01*
X1839077Y1541255D02*
X1840077D01*
X1839077Y1540895D02*
X1840077D01*
X1839077Y1540535D02*
X1840077D01*
X1839077Y1540175D02*
X1840077D01*
X1839077Y1539815D02*
X1840077D01*
X1839077Y1539455D02*
X1840077D01*
X1839115Y1567895D02*
X1840040D01*
X1838677Y1546655D02*
X1840028D01*
X1838500Y1553135D02*
X1840015D01*
X1838816Y1547015D02*
X1839905D01*
X1838834Y1552775D02*
X1839902D01*
X1839049Y1552415D02*
X1839896D01*
X1839037Y1547375D02*
X1839896D01*
X1839329Y1568255D02*
X1839825D01*
X1839236Y1547735D02*
X1839757D01*
X1839267Y1552055D02*
X1839726D01*
X1838332Y1633415D02*
X1838906D01*
X1831627Y1613255D02*
X1836977D01*
X1831627Y1612895D02*
X1836977D01*
X1831627Y1612535D02*
X1836977D01*
X1831627Y1612175D02*
X1836977D01*
X1831627Y1611815D02*
X1836977D01*
X1831627Y1611455D02*
X1836977D01*
X1831627Y1611095D02*
X1836977D01*
X1831627Y1610735D02*
X1836977D01*
X1831627Y1610375D02*
X1836977D01*
X1831627Y1610015D02*
X1836977D01*
X1831627Y1609655D02*
X1836977D01*
X1831627Y1609295D02*
X1836977D01*
X1831627Y1608935D02*
X1836977D01*
X1831627Y1608575D02*
X1836977D01*
X1831627Y1613615D02*
X1836973D01*
X1831627Y1608215D02*
X1836971D01*
X1831627Y1613975D02*
X1836722D01*
X1831627Y1535855D02*
X1836614D01*
X1831627Y1614335D02*
X1836362D01*
X1831627Y1553495D02*
X1836238D01*
X1831627Y1614695D02*
X1836002D01*
X1831627Y1536215D02*
X1835866D01*
X1831627Y1553135D02*
X1835654D01*
X1831627Y1615055D02*
X1835642D01*
X1831627Y1536575D02*
X1835535D01*
X1831627Y1542335D02*
X1835491D01*
X1831627Y1546655D02*
X1835477D01*
X1831627Y1546295D02*
X1835467D01*
X1831627Y1567535D02*
X1835414D01*
X1831627Y1538375D02*
X1835377D01*
X1831627Y1542695D02*
X1835375D01*
X1831627Y1536935D02*
X1835345D01*
X1831627Y1547015D02*
X1835339D01*
X1831627Y1538735D02*
X1835327D01*
X1831627Y1552775D02*
X1835321D01*
X1831627Y1538015D02*
X1835286D01*
X1831627Y1541975D02*
X1835254D01*
X1831627Y1537295D02*
X1835249D01*
X1831627Y1537655D02*
X1835229D01*
X1831627Y1545935D02*
X1835228D01*
X1831627Y1543055D02*
X1835141D01*
X1831627Y1539095D02*
X1835127D01*
X1831627Y1615415D02*
X1835123D01*
X1831627Y1547375D02*
X1835117D01*
X1831627Y1552415D02*
X1835106D01*
X1831627Y1541615D02*
X1835099D01*
X1831627Y1545575D02*
X1835091D01*
X1831627Y1545215D02*
X1835077D01*
X1831627Y1544855D02*
X1835077D01*
X1831627Y1544495D02*
X1835077D01*
X1831627Y1544135D02*
X1835077D01*
X1831627Y1543775D02*
X1835077D01*
X1831627Y1543415D02*
X1835077D01*
X1831627Y1541255D02*
X1835077D01*
X1831627Y1540895D02*
X1835077D01*
X1831627Y1540535D02*
X1835077D01*
X1831627Y1540175D02*
X1835077D01*
X1831627Y1539815D02*
X1835077D01*
X1831627Y1539455D02*
X1835077D01*
X1831627Y1567895D02*
X1835040D01*
X1831627Y1547735D02*
X1834979D01*
X1831627Y1552055D02*
X1834973D01*
X1831627Y1548095D02*
X1834909D01*
X1831627Y1568255D02*
X1834908D01*
X1831627Y1551695D02*
X1834907D01*
X1831627Y1574015D02*
X1834900D01*
X1831627Y1573655D02*
X1834896D01*
X1831627Y1573295D02*
X1834896D01*
X1831627Y1572935D02*
X1834896D01*
X1831627Y1572575D02*
X1834896D01*
X1831627Y1572215D02*
X1834896D01*
X1831627Y1571855D02*
X1834896D01*
X1831627Y1571495D02*
X1834896D01*
X1831627Y1571135D02*
X1834896D01*
X1831627Y1570775D02*
X1834896D01*
X1831627Y1570415D02*
X1834896D01*
X1831627Y1570055D02*
X1834896D01*
X1831627Y1569695D02*
X1834896D01*
X1831627Y1569335D02*
X1834896D01*
X1831627Y1568975D02*
X1834896D01*
X1831627Y1568615D02*
X1834896D01*
X1831627Y1551335D02*
X1834896D01*
X1831627Y1550975D02*
X1834896D01*
X1831627Y1550615D02*
X1834896D01*
X1831627Y1550255D02*
X1834896D01*
X1831627Y1549895D02*
X1834896D01*
X1831627Y1549535D02*
X1834896D01*
X1831627Y1549175D02*
X1834896D01*
X1831627Y1548815D02*
X1834896D01*
X1831627Y1548455D02*
X1834896D01*
X1831627Y1574375D02*
X1834860D01*
X1831627Y1615775D02*
X1834723D01*
X1831627Y1607855D02*
X1834636D01*
X1831627Y1616135D02*
X1834496D01*
X1831627Y1624775D02*
X1834479D01*
X1831627Y1624415D02*
X1834479D01*
X1831627Y1624055D02*
X1834479D01*
X1831627Y1623695D02*
X1834479D01*
X1831627Y1623335D02*
X1834479D01*
X1831627Y1622975D02*
X1834479D01*
X1831627Y1622615D02*
X1834479D01*
X1831627Y1622255D02*
X1834479D01*
X1831627Y1621895D02*
X1834479D01*
X1831627Y1621535D02*
X1834479D01*
X1831627Y1621175D02*
X1834479D01*
X1831627Y1620815D02*
X1834479D01*
X1831627Y1620455D02*
X1834479D01*
X1831627Y1620095D02*
X1834479D01*
X1831627Y1619735D02*
X1834479D01*
X1831627Y1619375D02*
X1834479D01*
X1831627Y1619015D02*
X1834479D01*
X1831627Y1618655D02*
X1834479D01*
X1831627Y1618295D02*
X1834479D01*
X1831627Y1617935D02*
X1834479D01*
X1831627Y1617575D02*
X1834468D01*
X1831627Y1625135D02*
X1834403D01*
X1831627Y1616495D02*
X1834372D01*
X1831627Y1617215D02*
X1834361D01*
X1831627Y1616855D02*
X1834329D01*
X1831627Y1607495D02*
X1834229D01*
X1831627Y1574735D02*
X1834022D01*
X1831627Y1607135D02*
X1834000D01*
X1831627Y1605335D02*
X1833979D01*
X1831627Y1604975D02*
X1833979D01*
X1831627Y1604615D02*
X1833979D01*
X1831627Y1604255D02*
X1833979D01*
X1831627Y1603895D02*
X1833979D01*
X1831627Y1603535D02*
X1833979D01*
X1831627Y1603175D02*
X1833979D01*
X1831627Y1602815D02*
X1833979D01*
X1831627Y1602455D02*
X1833979D01*
X1831627Y1602095D02*
X1833979D01*
X1831627Y1601735D02*
X1833979D01*
X1831627Y1601375D02*
X1833979D01*
X1831627Y1601015D02*
X1833979D01*
X1831627Y1600655D02*
X1833979D01*
X1831627Y1600295D02*
X1833979D01*
X1831627Y1599935D02*
X1833979D01*
X1831627Y1599575D02*
X1833979D01*
X1831627Y1599215D02*
X1833979D01*
X1831627Y1598855D02*
X1833979D01*
X1831627Y1589135D02*
X1833977D01*
X1831627Y1588775D02*
X1833977D01*
X1831627Y1588415D02*
X1833977D01*
X1831627Y1588055D02*
X1833977D01*
X1831627Y1587695D02*
X1833977D01*
X1831627Y1587335D02*
X1833977D01*
X1831627Y1586975D02*
X1833977D01*
X1831627Y1586615D02*
X1833977D01*
X1831627Y1586255D02*
X1833977D01*
X1831627Y1585895D02*
X1833977D01*
X1831627Y1585535D02*
X1833977D01*
X1831627Y1585175D02*
X1833977D01*
X1831627Y1584815D02*
X1833977D01*
X1831627Y1584455D02*
X1833977D01*
X1831627Y1584095D02*
X1833977D01*
X1831627Y1583735D02*
X1833977D01*
X1831627Y1583375D02*
X1833977D01*
X1831627Y1583015D02*
X1833977D01*
X1831627Y1582655D02*
X1833977D01*
X1831627Y1589495D02*
X1833977D01*
X1831627Y1578695D02*
X1833976D01*
X1831627Y1598495D02*
X1833976D01*
X1831627Y1605695D02*
X1833965D01*
X1831627Y1578335D02*
X1833923D01*
X1831627Y1582295D02*
X1833888D01*
X1831627Y1606775D02*
X1833874D01*
X1831627Y1606055D02*
X1833860D01*
X1831627Y1606415D02*
X1833829D01*
X1831627Y1589855D02*
X1833736D01*
X1831627Y1579055D02*
X1833718D01*
X1831627Y1575095D02*
X1833696D01*
X1831627Y1577975D02*
X1833664D01*
X1831627Y1581935D02*
X1833647D01*
X1831627Y1579415D02*
X1833589D01*
X1831627Y1575455D02*
X1833584D01*
X1831627Y1577615D02*
X1833578D01*
X1831627Y1581575D02*
X1833577D01*
X1831627Y1581215D02*
X1833577D01*
X1831627Y1580855D02*
X1833577D01*
X1831627Y1580495D02*
X1833577D01*
X1831627Y1580135D02*
X1833577D01*
X1831627Y1579775D02*
X1833577D01*
X1831627Y1577255D02*
X1833577D01*
X1831627Y1576895D02*
X1833577D01*
X1831627Y1576535D02*
X1833577D01*
X1831627Y1576175D02*
X1833577D01*
X1831627Y1575815D02*
X1833577D01*
X1831627Y1598135D02*
X1833566D01*
X1831735Y1633415D02*
X1833237D01*
X1831627Y1625495D02*
X1833223D01*
X1831627Y1590215D02*
X1833058D01*
X1831627Y1597775D02*
X1833022D01*
X1831644Y1633055D02*
X1832925D01*
X1831627Y1625855D02*
X1832921D01*
X1831627Y1590575D02*
X1832860D01*
X1831627Y1597415D02*
X1832847D01*
X1831627Y1632695D02*
X1832820D01*
X1831627Y1626215D02*
X1832820D01*
X1831627Y1632335D02*
X1832816D01*
X1831627Y1631975D02*
X1832816D01*
X1831627Y1631615D02*
X1832816D01*
X1831627Y1631255D02*
X1832816D01*
X1831627Y1630895D02*
X1832816D01*
X1831627Y1630535D02*
X1832816D01*
X1831627Y1630175D02*
X1832816D01*
X1831627Y1629815D02*
X1832816D01*
X1831627Y1629455D02*
X1832816D01*
X1831627Y1629095D02*
X1832816D01*
X1831627Y1628735D02*
X1832816D01*
X1831627Y1628375D02*
X1832816D01*
X1831627Y1628015D02*
X1832816D01*
X1831627Y1627655D02*
X1832816D01*
X1831627Y1627295D02*
X1832816D01*
X1831627Y1626935D02*
X1832816D01*
X1831627Y1626575D02*
X1832816D01*
X1831627Y1597055D02*
X1832816D01*
X1831627Y1596695D02*
X1832816D01*
X1831627Y1596335D02*
X1832816D01*
X1831627Y1595975D02*
X1832816D01*
X1831627Y1595615D02*
X1832816D01*
X1831627Y1595255D02*
X1832816D01*
X1831627Y1594895D02*
X1832816D01*
X1831627Y1594535D02*
X1832816D01*
X1831627Y1594175D02*
X1832816D01*
X1831627Y1593815D02*
X1832816D01*
X1831627Y1593455D02*
X1832816D01*
X1831627Y1593095D02*
X1832816D01*
X1831627Y1592735D02*
X1832816D01*
X1831627Y1592375D02*
X1832816D01*
X1831627Y1592015D02*
X1832816D01*
X1831627Y1591655D02*
X1832816D01*
X1831627Y1591295D02*
X1832816D01*
X1831627Y1590935D02*
X1832816D01*
X2041651Y1525055D02*
X2043459D01*
X2041567Y1529015D02*
X2043450D01*
X2041730Y1528655D02*
X2043380D01*
X2041775Y1525415D02*
X2043335D01*
X2041827Y1524695D02*
X2043283D01*
X2041858Y1528295D02*
X2043252D01*
X2041892Y1525775D02*
X2043218D01*
X2041363Y1529375D02*
X2043177D01*
X2041952Y1527935D02*
X2043158D01*
X2041976Y1526135D02*
X2043134D01*
X2042015Y1527575D02*
X2043095D01*
X2042029Y1526495D02*
X2043081D01*
X2042049Y1527215D02*
X2043061D01*
X2042053Y1526855D02*
X2043057D01*
X2041111Y1529735D02*
X2042817D01*
X2040799Y1530095D02*
X2042457D01*
X2040410Y1530455D02*
X2042097D01*
X2039904Y1530815D02*
X2041737D01*
X2039175Y1531175D02*
X2041377D01*
X2027464Y1531535D02*
X2041017D01*
X2027464Y1531895D02*
X2040657D01*
X2027464Y1532255D02*
X2040297D01*
X2027464Y1532615D02*
X2039937D01*
X2027464Y1532975D02*
X2039577D01*
X2027464Y1533335D02*
X2039217D01*
X2027464Y1533695D02*
X2038857D01*
X2027464Y1534055D02*
X2038497D01*
X2027464Y1534415D02*
X2038137D01*
X2027464Y1534775D02*
X2037777D01*
X2027464Y1535135D02*
X2037417D01*
X2027464Y1535495D02*
X2037057D01*
X2027464Y1535855D02*
X2036697D01*
X2027464Y1536215D02*
X2036337D01*
X2027464Y1536575D02*
X2035977D01*
X2027464Y1531175D02*
X2035935D01*
X2027464Y1536935D02*
X2035617D01*
X2027464Y1537295D02*
X2035257D01*
X2027464Y1530815D02*
X2035206D01*
X2027464Y1537655D02*
X2034897D01*
X2027464Y1530455D02*
X2034700D01*
X2027464Y1538015D02*
X2034537D01*
X2027464Y1530095D02*
X2034310D01*
X2027464Y1538375D02*
X2034177D01*
X2027464Y1529735D02*
X2033999D01*
X2027464Y1538735D02*
X2033817D01*
X2027464Y1529375D02*
X2033747D01*
X2027464Y1529015D02*
X2033543D01*
X2027464Y1525055D02*
X2033459D01*
X2027464Y1539095D02*
X2033457D01*
X2027464Y1528655D02*
X2033380D01*
X2027464Y1525415D02*
X2033335D01*
X2027641Y1524695D02*
X2033283D01*
X2027464Y1528295D02*
X2033252D01*
X2027464Y1525775D02*
X2033218D01*
X2027464Y1527935D02*
X2033158D01*
X2027464Y1526135D02*
X2033134D01*
X2027464Y1539455D02*
X2033097D01*
X2027464Y1527575D02*
X2033095D01*
X2027464Y1526495D02*
X2033081D01*
X2027464Y1527215D02*
X2033061D01*
X2027464Y1526855D02*
X2033057D01*
X2027464Y1539815D02*
X2032737D01*
X2027464Y1540175D02*
X2032377D01*
X2027464Y1540535D02*
X2032017D01*
X2027464Y1540895D02*
X2031657D01*
X2027464Y1541255D02*
X2031297D01*
X2027464Y1541615D02*
X2030937D01*
X2027464Y1541975D02*
X2030577D01*
X2027464Y1542335D02*
X2030217D01*
X2027464Y1542695D02*
X2029857D01*
X2027464Y1543055D02*
X2029497D01*
X2027464Y1543415D02*
X2029137D01*
X2027464Y1543775D02*
X2028777D01*
X2027464Y1544135D02*
X2028417D01*
X2027719Y1544495D02*
X2028009D01*
X1949340Y1578695D02*
X1990804D01*
X1948980Y1578335D02*
X1990726D01*
X1949700Y1579055D02*
X1990565D01*
X1950060Y1579415D02*
X1990374D01*
X1950420Y1579775D02*
X1990144D01*
X1950780Y1580135D02*
X1989784D01*
X1951140Y1580495D02*
X1989424D01*
X1951500Y1580855D02*
X1989064D01*
X1951860Y1581215D02*
X1988704D01*
X1952220Y1581575D02*
X1988344D01*
X1952580Y1581935D02*
X1987984D01*
X1952940Y1582295D02*
X1987624D01*
X1953300Y1582655D02*
X1987264D01*
X1953660Y1583015D02*
X1986904D01*
X1954020Y1583375D02*
X1986544D01*
X1954380Y1583735D02*
X1986184D01*
X1954740Y1584095D02*
X1985824D01*
X1955100Y1584455D02*
X1985464D01*
X1955460Y1584815D02*
X1985104D01*
X1955820Y1585175D02*
X1984744D01*
X1956180Y1585535D02*
X1984384D01*
X1956540Y1585895D02*
X1984024D01*
X1956900Y1586255D02*
X1983664D01*
X1948646Y1577975D02*
X1982064D01*
X1948641Y1577615D02*
X1982064D01*
X1955464Y1577255D02*
X1982064D01*
X1955464Y1576895D02*
X1982064D01*
X1955464Y1576535D02*
X1982064D01*
X1955464Y1576175D02*
X1982064D01*
X1955464Y1575815D02*
X1982064D01*
X1955464Y1575455D02*
X1982064D01*
X1955464Y1575095D02*
X1982064D01*
X1955464Y1574735D02*
X1982064D01*
X1955464Y1574375D02*
X1982064D01*
X1955464Y1574015D02*
X1982064D01*
X1955464Y1573655D02*
X1982064D01*
X1955464Y1573295D02*
X1982064D01*
X1955464Y1572935D02*
X1982064D01*
X1955464Y1572575D02*
X1982064D01*
X1955464Y1572215D02*
X1982064D01*
X1955464Y1571855D02*
X1982064D01*
X1955464Y1571495D02*
X1982064D01*
X1955464Y1571135D02*
X1982064D01*
X1955464Y1570775D02*
X1982064D01*
X1955464Y1570415D02*
X1982064D01*
X1955464Y1570055D02*
X1982064D01*
X1955464Y1569695D02*
X1982064D01*
X1955464Y1569335D02*
X1982064D01*
X1955464Y1568975D02*
X1982064D01*
X1955464Y1568615D02*
X1982064D01*
X1955464Y1568255D02*
X1982064D01*
X1955464Y1567895D02*
X1982064D01*
X1955464Y1567535D02*
X1982064D01*
X1955464Y1567175D02*
X1982064D01*
X1955464Y1566815D02*
X1982064D01*
X1955464Y1566455D02*
X1982064D01*
X1955464Y1566095D02*
X1982064D01*
X1955464Y1565735D02*
X1982064D01*
X1955464Y1565375D02*
X1982064D01*
X1955464Y1565015D02*
X1982064D01*
X1955464Y1564655D02*
X1982064D01*
X1955464Y1564295D02*
X1982064D01*
X1955464Y1563935D02*
X1982064D01*
X1955464Y1563575D02*
X1982064D01*
X1955464Y1563215D02*
X1982064D01*
X1955531Y1562855D02*
X1981997D01*
X1905013Y1562495D02*
X1906327D01*
X1904653Y1562135D02*
X1906327D01*
X1904293Y1561775D02*
X1906327D01*
X1903933Y1561415D02*
X1906327D01*
X1903671Y1561055D02*
X1906327D01*
X1903664Y1560695D02*
X1906327D01*
X1903664Y1560335D02*
X1906327D01*
X1903664Y1559975D02*
X1906327D01*
X1903664Y1559615D02*
X1906327D01*
X1903664Y1559255D02*
X1906327D01*
X1903664Y1558895D02*
X1906327D01*
X1903664Y1558535D02*
X1906327D01*
X1903664Y1558175D02*
X1906327D01*
X1903664Y1557815D02*
X1906327D01*
X1903664Y1557455D02*
X1906327D01*
X1903664Y1557095D02*
X1906327D01*
X1903664Y1556735D02*
X1906327D01*
X1903664Y1556375D02*
X1906327D01*
X1903664Y1556015D02*
X1906327D01*
X1903664Y1555655D02*
X1906327D01*
X1903664Y1555295D02*
X1906327D01*
X1903664Y1554935D02*
X1906327D01*
X1903664Y1554575D02*
X1906327D01*
X1903664Y1554215D02*
X1906327D01*
X1903664Y1553855D02*
X1906327D01*
X1903664Y1553495D02*
X1906327D01*
X1903664Y1553135D02*
X1906327D01*
X1903664Y1552775D02*
X1906327D01*
X1903664Y1552415D02*
X1906327D01*
X1903664Y1552055D02*
X1906327D01*
X1903664Y1551695D02*
X1906327D01*
X1903664Y1551335D02*
X1906327D01*
X1903664Y1550975D02*
X1906327D01*
X1903664Y1550615D02*
X1906327D01*
X1903664Y1550255D02*
X1906327D01*
X1903664Y1549895D02*
X1906327D01*
X1903664Y1549535D02*
X1906327D01*
X1903664Y1549175D02*
X1906327D01*
X1903664Y1548815D02*
X1906327D01*
X1903664Y1548455D02*
X1906327D01*
X1903664Y1548095D02*
X1906327D01*
X1903664Y1547735D02*
X1906327D01*
X1903664Y1547375D02*
X1906327D01*
X1903664Y1547015D02*
X1906327D01*
X1903664Y1546655D02*
X1906327D01*
X1903664Y1546295D02*
X1906327D01*
X1903664Y1545935D02*
X1906327D01*
X1903664Y1545575D02*
X1906327D01*
X1903664Y1545215D02*
X1906327D01*
X1903664Y1544855D02*
X1906327D01*
X1903664Y1544495D02*
X1906327D01*
X1903664Y1544135D02*
X1906327D01*
X1903664Y1543775D02*
X1906327D01*
X1903664Y1543415D02*
X1906327D01*
X1903664Y1543055D02*
X1906327D01*
X1903664Y1542695D02*
X1906327D01*
X1903664Y1542335D02*
X1906327D01*
X1903664Y1541975D02*
X1906327D01*
X1903664Y1541615D02*
X1906327D01*
X1903664Y1541255D02*
X1906327D01*
X1903664Y1540895D02*
X1906327D01*
X1903664Y1540535D02*
X1906327D01*
X1903664Y1540175D02*
X1906327D01*
X1903664Y1539815D02*
X1906327D01*
X1903664Y1539455D02*
X1906327D01*
X1903664Y1539095D02*
X1906327D01*
X1903664Y1538735D02*
X1906327D01*
X1903664Y1538375D02*
X1906327D01*
X1903664Y1538015D02*
X1906327D01*
X1903664Y1537655D02*
X1906327D01*
X1903664Y1537295D02*
X1906327D01*
X1903664Y1536935D02*
X1906327D01*
X1903664Y1536575D02*
X1906327D01*
X1903664Y1536215D02*
X1906327D01*
X1903664Y1535855D02*
X1906327D01*
X1903664Y1535495D02*
X1906327D01*
X1903664Y1535135D02*
X1906327D01*
X1903664Y1534775D02*
X1906327D01*
X1903664Y1534415D02*
X1906327D01*
X1903664Y1534055D02*
X1906327D01*
X1903664Y1533695D02*
X1906327D01*
X1903664Y1533335D02*
X1906327D01*
X1903664Y1532975D02*
X1906327D01*
X1903664Y1532615D02*
X1906327D01*
X1903664Y1532255D02*
X1906327D01*
X1903664Y1531895D02*
X1906327D01*
X1903664Y1531535D02*
X1906327D01*
X1903664Y1531175D02*
X1906327D01*
X1903664Y1530815D02*
X1906327D01*
X1903664Y1530455D02*
X1906327D01*
X1903623Y1530095D02*
X1906327D01*
X1903477Y1529735D02*
X1906327D01*
X1903186Y1529375D02*
X1906327D01*
X1902826Y1529015D02*
X1906327D01*
X1902466Y1528655D02*
X1906327D01*
X1902106Y1528295D02*
X1906327D01*
X1901746Y1527935D02*
X1906327D01*
X1901386Y1527575D02*
X1906327D01*
X1900954Y1527215D02*
X1906327D01*
X1899320Y1526855D02*
X1906327D01*
X1898850Y1526495D02*
X1906327D01*
X1883591Y1526135D02*
X1906327D01*
X1883586Y1525775D02*
X1906327D01*
X1883481Y1525415D02*
X1906327D01*
X1883170Y1525055D02*
X1906327D01*
X1861535Y1524695D02*
X1906327D01*
X1861895Y1524335D02*
X1906327D01*
X1862255Y1523975D02*
X1906327D01*
X1862615Y1523615D02*
X1906327D01*
X1862975Y1523255D02*
X1906327D01*
X1863335Y1522895D02*
X1906327D01*
X1880414Y1522535D02*
X1906327D01*
X1880800Y1522175D02*
X1906327D01*
X1881020Y1521815D02*
X1906327D01*
X1881139Y1521455D02*
X1906327D01*
X1881177Y1521095D02*
X1906327D01*
X1881199Y1520735D02*
X1906327D01*
X1892811Y1520375D02*
X1906327D01*
X1893352Y1520015D02*
X1906327D01*
X1893712Y1519655D02*
X1906327D01*
X1894072Y1519295D02*
X1906327D01*
X1894432Y1518935D02*
X1906327D01*
X1894792Y1518575D02*
X1906327D01*
X1895152Y1518215D02*
X1906327D01*
X1895512Y1517855D02*
X1906327D01*
X1895872Y1517495D02*
X1906327D01*
X1896232Y1517135D02*
X1906327D01*
X1896592Y1516775D02*
X1906327D01*
X1896952Y1516415D02*
X1906327D01*
X1897312Y1516055D02*
X1906327D01*
X1897672Y1515695D02*
X1906327D01*
X1898032Y1515335D02*
X1906327D01*
X1898392Y1514975D02*
X1906327D01*
X1898752Y1514615D02*
X1906327D01*
X1899112Y1514255D02*
X1906327D01*
X1899472Y1513895D02*
X1906327D01*
X1899832Y1513535D02*
X1906327D01*
X1900192Y1513175D02*
X1906327D01*
X1900552Y1512815D02*
X1906327D01*
X1900912Y1512455D02*
X1906327D01*
X1901272Y1512095D02*
X1906327D01*
X1901632Y1511735D02*
X1906327D01*
X1901992Y1511375D02*
X1906327D01*
X1902352Y1511015D02*
X1906327D01*
X1902712Y1510655D02*
X1906327D01*
X1903072Y1510295D02*
X1906327D01*
X1903432Y1509935D02*
X1906327D01*
X1903792Y1509575D02*
X1906327D01*
X1904152Y1509215D02*
X1906327D01*
X1904461Y1508855D02*
X1906327D01*
X1904633Y1508495D02*
X1906327D01*
X1904708Y1508135D02*
X1906327D01*
X1904715Y1507775D02*
X1906327D01*
X1904715Y1507415D02*
X1906327D01*
X1904715Y1507055D02*
X1906327D01*
X1904715Y1506695D02*
X1906327D01*
X1904715Y1506335D02*
X1906327D01*
X1904715Y1505975D02*
X1906327D01*
X1904715Y1505615D02*
X1906327D01*
X1904715Y1505255D02*
X1906327D01*
X1904715Y1504895D02*
X1906327D01*
X1904715Y1504535D02*
X1906327D01*
X1904715Y1504175D02*
X1906327D01*
X1904715Y1503815D02*
X1906327D01*
X1904715Y1503455D02*
X1906327D01*
X1904715Y1503095D02*
X1906327D01*
X1904715Y1502735D02*
X1906327D01*
X1904715Y1502375D02*
X1906327D01*
X1904715Y1502015D02*
X1906327D01*
X1904888Y1501655D02*
X1906327D01*
X1905348Y1501295D02*
X1906327D01*
X1905373Y1562855D02*
X1906327D01*
X1905699Y1500935D02*
X1906155D01*
X1905778Y1563215D02*
X1906076D01*
X1883591Y1526495D02*
X1896159D01*
X1885360Y1530455D02*
X1896028D01*
X1895237Y1530815D02*
X1895917D01*
X1885000Y1530095D02*
X1895755D01*
X1883591Y1526855D02*
X1895689D01*
X1884640Y1529735D02*
X1895551D01*
X1883591Y1527215D02*
X1895529D01*
X1884280Y1529375D02*
X1895505D01*
X1883920Y1529015D02*
X1895505D01*
X1883614Y1528655D02*
X1895505D01*
X1883591Y1528295D02*
X1895505D01*
X1883591Y1527935D02*
X1895505D01*
X1883591Y1527575D02*
X1895505D01*
X1885720Y1530815D02*
X1891918D01*
X1858654Y1533695D02*
X1884009D01*
X1858654Y1533335D02*
X1883981D01*
X1858654Y1532975D02*
X1883637D01*
X1858654Y1534055D02*
X1883360D01*
X1858654Y1532615D02*
X1883277D01*
X1858654Y1534415D02*
X1882991D01*
X1858654Y1532255D02*
X1882917D01*
X1858654Y1534775D02*
X1882862D01*
X1858654Y1538015D02*
X1882851D01*
X1858654Y1537655D02*
X1882851D01*
X1858654Y1537295D02*
X1882851D01*
X1858654Y1536935D02*
X1882851D01*
X1858654Y1536575D02*
X1882851D01*
X1858654Y1536215D02*
X1882851D01*
X1858654Y1535855D02*
X1882851D01*
X1858654Y1535495D02*
X1882851D01*
X1858654Y1535135D02*
X1882851D01*
X1858654Y1538375D02*
X1882833D01*
X1858654Y1531895D02*
X1882557D01*
X1858654Y1531535D02*
X1882197D01*
X1858654Y1531175D02*
X1881837D01*
X1858654Y1530815D02*
X1881381D01*
X1861175Y1525055D02*
X1879453D01*
X1858619Y1530455D02*
X1879270D01*
X1860815Y1525415D02*
X1879141D01*
X1858504Y1530095D02*
X1879074D01*
X1860455Y1525775D02*
X1879036D01*
X1858290Y1529735D02*
X1879032D01*
X1857916Y1529375D02*
X1879032D01*
X1857517Y1529015D02*
X1879032D01*
X1857580Y1528655D02*
X1879032D01*
X1857935Y1528295D02*
X1879032D01*
X1858295Y1527935D02*
X1879032D01*
X1858655Y1527575D02*
X1879032D01*
X1859015Y1527215D02*
X1879032D01*
X1859375Y1526855D02*
X1879032D01*
X1859735Y1526495D02*
X1879032D01*
X1860095Y1526135D02*
X1879032D01*
X1858654Y1538735D02*
X1860337D01*
X1858654Y1539095D02*
X1860127D01*
X1858654Y1539455D02*
X1860048D01*
X1858654Y1539815D02*
X1859727D01*
X1858744Y1540175D02*
X1859367D01*
X1889178Y1566095D02*
X1897274D01*
X1889273Y1566455D02*
X1897219D01*
X1889276Y1568975D02*
X1897217D01*
X1889276Y1568615D02*
X1897217D01*
X1889276Y1568255D02*
X1897217D01*
X1889276Y1567895D02*
X1897217D01*
X1889276Y1567535D02*
X1897217D01*
X1889276Y1567175D02*
X1897217D01*
X1889276Y1566815D02*
X1897217D01*
X1889276Y1569335D02*
X1897216D01*
X1889276Y1569695D02*
X1897009D01*
X1888887Y1565735D02*
X1896958D01*
X1889276Y1570055D02*
X1896649D01*
X1889276Y1570415D02*
X1896289D01*
X1889226Y1570775D02*
X1895929D01*
X1889052Y1571135D02*
X1895569D01*
X1889121Y1571495D02*
X1895209D01*
X1878227Y1565375D02*
X1894006D01*
X1878227Y1565015D02*
X1893621D01*
X1892037Y1571855D02*
X1893568D01*
X1892329Y1572215D02*
X1893276D01*
X1878227Y1564655D02*
X1893261D01*
X1892451Y1572575D02*
X1893154D01*
X1878227Y1564295D02*
X1892901D01*
X1878227Y1563935D02*
X1892541D01*
X1878227Y1563575D02*
X1892181D01*
X1878227Y1563215D02*
X1891821D01*
X1878227Y1562855D02*
X1891461D01*
X1885331Y1580855D02*
X1891257D01*
X1878227Y1562495D02*
X1891101D01*
X1884971Y1580495D02*
X1891087D01*
X1885761Y1581215D02*
X1890969D01*
X1885143Y1562135D02*
X1890742D01*
X1884611Y1580135D02*
X1890727D01*
X1885387Y1561775D02*
X1890480D01*
X1884251Y1579775D02*
X1890367D01*
X1885457Y1561415D02*
X1890332D01*
X1885457Y1561055D02*
X1890268D01*
X1885457Y1560695D02*
X1890264D01*
X1885457Y1560335D02*
X1890264D01*
X1885457Y1559975D02*
X1890264D01*
X1885457Y1559615D02*
X1890264D01*
X1885506Y1559255D02*
X1890264D01*
X1885842Y1558895D02*
X1890264D01*
X1886199Y1558535D02*
X1890264D01*
X1886436Y1558175D02*
X1890264D01*
X1886552Y1557815D02*
X1890264D01*
X1886577Y1557455D02*
X1890264D01*
X1886577Y1557095D02*
X1890264D01*
X1886577Y1556735D02*
X1890256D01*
X1880291Y1575815D02*
X1888811D01*
X1888018Y1575455D02*
X1888798D01*
X1883891Y1579415D02*
X1888786D01*
X1880651Y1576175D02*
X1888546D01*
X1883531Y1579055D02*
X1888514D01*
X1881011Y1576535D02*
X1888434D01*
X1883171Y1578695D02*
X1888428D01*
X1882811Y1578335D02*
X1888427D01*
X1882451Y1577975D02*
X1888427D01*
X1882091Y1577615D02*
X1888427D01*
X1881731Y1577255D02*
X1888427D01*
X1881371Y1576895D02*
X1888427D01*
X1886594Y1556375D02*
X1887791D01*
X1886958Y1556015D02*
X1887197D01*
X1878227Y1571495D02*
X1885112D01*
X1878227Y1565735D02*
X1885105D01*
X1878227Y1571135D02*
X1884976D01*
X1879931Y1575455D02*
X1884837D01*
X1878227Y1571855D02*
X1884818D01*
X1878227Y1566095D02*
X1884815D01*
X1878227Y1570775D02*
X1884767D01*
X1878227Y1566455D02*
X1884719D01*
X1878227Y1570415D02*
X1884717D01*
X1878227Y1570055D02*
X1884717D01*
X1878227Y1569695D02*
X1884717D01*
X1878227Y1569335D02*
X1884717D01*
X1878227Y1568975D02*
X1884717D01*
X1878227Y1568615D02*
X1884717D01*
X1878227Y1568255D02*
X1884717D01*
X1878227Y1567895D02*
X1884717D01*
X1878227Y1567535D02*
X1884717D01*
X1878227Y1567175D02*
X1884717D01*
X1878227Y1566815D02*
X1884717D01*
X1879571Y1575095D02*
X1884533D01*
X1878227Y1572215D02*
X1884526D01*
X1879211Y1574735D02*
X1884431D01*
X1878227Y1572575D02*
X1884430D01*
X1878851Y1574375D02*
X1884427D01*
X1878491Y1574015D02*
X1884427D01*
X1878233Y1573655D02*
X1884427D01*
X1878227Y1573295D02*
X1884427D01*
X1878227Y1572935D02*
X1884427D01*
X1869630Y1552055D02*
X1884177D01*
X1869300Y1551695D02*
X1883962D01*
X1869990Y1552415D02*
X1883939D01*
X1868577Y1545935D02*
X1883715D01*
X1868577Y1545575D02*
X1883703D01*
X1868775Y1546295D02*
X1883346D01*
X1869258Y1551335D02*
X1883341D01*
X1868577Y1545215D02*
X1883326D01*
X1870350Y1552775D02*
X1883310D01*
X1873590Y1556015D02*
X1883235D01*
X1869127Y1546655D02*
X1883147D01*
X1869258Y1550975D02*
X1883145D01*
X1868577Y1544855D02*
X1883140D01*
X1870710Y1553135D02*
X1883118D01*
X1873230Y1555655D02*
X1883106D01*
X1869258Y1550615D02*
X1883103D01*
X1869258Y1550255D02*
X1883103D01*
X1869258Y1549895D02*
X1883103D01*
X1869258Y1549535D02*
X1883103D01*
X1869258Y1549175D02*
X1883103D01*
X1869258Y1548815D02*
X1883103D01*
X1869258Y1548455D02*
X1883103D01*
X1869258Y1548095D02*
X1883103D01*
X1869258Y1547735D02*
X1883103D01*
X1869258Y1547375D02*
X1883103D01*
X1869249Y1547015D02*
X1883103D01*
X1868577Y1544495D02*
X1883103D01*
X1868577Y1544135D02*
X1883103D01*
X1868577Y1543775D02*
X1883103D01*
X1868577Y1543415D02*
X1883103D01*
X1868513Y1543055D02*
X1883103D01*
X1868314Y1542695D02*
X1883103D01*
X1873950Y1556375D02*
X1883098D01*
X1872870Y1555295D02*
X1883077D01*
X1872510Y1554935D02*
X1883077D01*
X1872150Y1554575D02*
X1883077D01*
X1871790Y1554215D02*
X1883077D01*
X1871430Y1553855D02*
X1883077D01*
X1871070Y1553495D02*
X1883077D01*
X1868357Y1542335D02*
X1883036D01*
X1874310Y1556735D02*
X1881220D01*
X1878227Y1562135D02*
X1881212D01*
X1874670Y1557095D02*
X1880971D01*
X1878227Y1561775D02*
X1880968D01*
X1875030Y1557455D02*
X1880898D01*
X1878227Y1561415D02*
X1880898D01*
X1878216Y1561055D02*
X1880898D01*
X1878120Y1560695D02*
X1880898D01*
X1877902Y1560335D02*
X1880898D01*
X1877550Y1559975D02*
X1880898D01*
X1877190Y1559615D02*
X1880898D01*
X1876830Y1559255D02*
X1880898D01*
X1876470Y1558895D02*
X1880898D01*
X1876110Y1558535D02*
X1880898D01*
X1875750Y1558175D02*
X1880898D01*
X1875390Y1557815D02*
X1880898D01*
X1892044Y1575815D02*
X1897561D01*
X1896768Y1575455D02*
X1897548D01*
X1892308Y1576175D02*
X1897296D01*
X1892421Y1576535D02*
X1897184D01*
X1892528Y1577975D02*
X1897177D01*
X1892427Y1577615D02*
X1897177D01*
X1892427Y1577255D02*
X1897177D01*
X1892427Y1576895D02*
X1897177D01*
X1892887Y1578335D02*
X1897113D01*
X1892057Y1575455D02*
X1893587D01*
X1892322Y1575095D02*
X1893283D01*
X1892443Y1574735D02*
X1893161D01*
X1841177Y1585535D02*
X1852977D01*
X1841177Y1585175D02*
X1852977D01*
X1841177Y1584815D02*
X1852977D01*
X1841177Y1584455D02*
X1852977D01*
X1841177Y1584095D02*
X1852977D01*
X1841177Y1583735D02*
X1852977D01*
X1841177Y1583375D02*
X1852977D01*
X1841177Y1583015D02*
X1852977D01*
X1841177Y1582655D02*
X1852977D01*
X1851304Y1586975D02*
X1852920D01*
X1841177Y1585895D02*
X1852892D01*
X1841266Y1582295D02*
X1852888D01*
X1841541Y1586615D02*
X1852845D01*
X1841215Y1586255D02*
X1852831D01*
X1851820Y1587335D02*
X1852746D01*
X1841507Y1581935D02*
X1852647D01*
X1841577Y1581575D02*
X1852577D01*
X1841577Y1581215D02*
X1852577D01*
X1841577Y1580855D02*
X1852577D01*
X1841577Y1580495D02*
X1852577D01*
X1841577Y1580135D02*
X1852577D01*
X1850629Y1579775D02*
X1852577D01*
X1850911Y1579415D02*
X1852347D01*
X1841901Y1586975D02*
X1849850D01*
X1842261Y1587335D02*
X1849334D01*
X1842620Y1587695D02*
X1848974D01*
X1842875Y1588055D02*
X1848614D01*
X1843009Y1588415D02*
X1848254D01*
X1843054Y1588775D02*
X1847894D01*
X1843054Y1589135D02*
X1847534D01*
X1843055Y1589495D02*
X1847174D01*
X1843353Y1589855D02*
X1846735D01*
X1841577Y1579775D02*
X1845725D01*
X1841566Y1579415D02*
X1845460D01*
X1841436Y1579055D02*
X1845378D01*
X1841387Y1578695D02*
X1845353D01*
X2089568Y1629839D02*
G03X2083435Y1635741I-6017J-115D01*
G01X2083439D02*
X2007704D01*
Y1611603*
X1936304*
Y1635704*
X1833353Y1635740*
G03X1830427Y1632814I-0J-2926*
G01Y1632815D02*
Y1200923D01*
G03X1836332Y1195017I5905J-0*
G01X2083439*
X2083435D02*
G03X2089568Y1200919I116J6017D01*
G01Y1200923D02*
Y1242905D01*
Y1629835*
G54D16*
X1931418Y1564614D02*
X1930711Y1563907D01*
X1931418Y1563200*
X1932125Y1563907*
X1931418Y1564614*
Y1563200D02*
X1931418D01*
X1931004Y1564200D02*
X1931832D01*
X1930711Y1563907D02*
X1930711D01*
X1931711Y1563493D02*
Y1564321D01*
X1928589Y1561785D02*
X1927882Y1561078D01*
X1928589Y1560371*
X1929296Y1561078*
X1928589Y1561785*
Y1560371D02*
X1928589D01*
X1928175Y1561371D02*
X1929004D01*
X1927882Y1561078D02*
X1927882D01*
X1928882Y1560664D02*
Y1561493D01*
X1931418Y1551114D02*
X1930711Y1550407D01*
X1931418Y1549700*
X1932125Y1550407*
X1931418Y1551114*
Y1549700D02*
X1931418D01*
X1931004Y1550700D02*
X1931832D01*
X1930711Y1550407D02*
X1930711D01*
X1931711Y1549993D02*
Y1550821D01*
X1928589Y1548285D02*
X1927882Y1547578D01*
X1928589Y1546871*
X1929296Y1547578*
X1928589Y1548285*
Y1546871D02*
X1928589D01*
X1928175Y1547871D02*
X1929004D01*
X1927882Y1547578D02*
X1927882D01*
X1928882Y1547164D02*
Y1547993D01*
X1931418Y1544614D02*
X1930711Y1543907D01*
X1931418Y1543200*
X1932125Y1543907*
X1931418Y1544614*
Y1543200D02*
X1931418D01*
X1931004Y1544200D02*
X1931832D01*
X1930711Y1543907D02*
X1930711D01*
X1931711Y1543493D02*
Y1544321D01*
X1928589Y1541785D02*
X1927882Y1541078D01*
X1928589Y1540371*
X1929296Y1541078*
X1928589Y1541785*
Y1540371D02*
X1928589D01*
X1928175Y1541371D02*
X1929004D01*
X1927882Y1541078D02*
X1927882D01*
X1928882Y1540664D02*
Y1541493D01*
X1931418Y1571114D02*
X1930711Y1570407D01*
X1931418Y1569700*
X1932125Y1570407*
X1931418Y1571114*
Y1569700D02*
X1931418D01*
X1931004Y1570700D02*
X1931832D01*
X1930711Y1570407D02*
X1930711D01*
X1931711Y1569993D02*
Y1570821D01*
X1928589Y1568285D02*
X1927882Y1567578D01*
X1928589Y1566871*
X1929296Y1567578*
X1928589Y1568285*
Y1566871D02*
X1928589D01*
X1928175Y1567871D02*
X1929004D01*
X1927882Y1567578D02*
X1927882D01*
X1928882Y1567164D02*
Y1567993D01*
X1885130Y1536895D02*
Y1537167D01*
X1893577*
X1881311Y1527839D02*
Y1528528D01*
X1885350Y1532567*
X1893577*
X1897489Y1542716D02*
X1897577D01*
Y1537167*
X1897505Y1528434D02*
X1897577D01*
Y1532567*
X1883177Y1559439D02*
X1885077Y1557539D01*
Y1554417*
X1928396Y1591788D02*
Y1595681D01*
X1938504*
X1924396D02*
Y1597931D01*
X1924846Y1598381*
Y1600931*
X1925396*
X1937323Y1595493D02*
X1938504Y1595681D01*
X1886465Y1548818D02*
Y1551805D01*
X1889077Y1554417*
X1886427Y1573648D02*
X1886996Y1569329D01*
Y1568495*
X1890427Y1573648D02*
Y1577648D01*
X1895177Y1573648D02*
X1899496Y1569329D01*
Y1568495*
X1899177Y1573648D02*
Y1577648D01*
X1895677Y1559439D02*
X1898057D01*
X1899077Y1558419*
Y1554417*
X1895077D02*
X1897489Y1552005D01*
Y1548818*
X2052333Y1623666D02*
Y1624741D01*
X2053408*
X2056983Y1628166*
X2057483*
Y1628666*
X2036995Y1628340D02*
X2039457Y1630803D01*
X2051345*
X2053483Y1628666*
X2036995Y1628340D02*
Y1617864D01*
X2044235Y1610624*
G54D18*
X1863427Y1540407D02*
X1866577D01*
X1859727Y1542291D02*
X1861610Y1540407D01*
X1863427*
X1856904Y1514403D02*
X1858904Y1512403D01*
X1867341*
X1872977Y1506767*
Y1489203*
X1877977Y1484203*
X1900104*
X1903115Y1487214*
Y1491041*
X1856904Y1530803D02*
Y1549907D01*
X1857077*
X1866577Y1540407D02*
X1884157D01*
X1886465Y1542716*
X1862077Y1540407D02*
X1863427D01*
X1886465Y1542716D02*
X1886958D01*
X1892014Y1547772*
Y1560933*
X1895057Y1563977*
X1895057D02*
X1900203D01*
X1914953Y1578727*
X1924014*
X1861977Y1588567D02*
Y1571167D01*
X1862077*
X1843377Y1576567D02*
X1848177D01*
Y1577417*
X1843377Y1576567D02*
X1847077Y1572867D01*
Y1571167*
X1848177Y1577417D02*
X1848204Y1577391D01*
X1851927*
X1848177Y1583917D02*
X1849227D01*
X1851777Y1581367*
X1847123Y1629451D02*
Y1594018D01*
Y1592022*
X1850577Y1588567*
X1875623Y1594018D02*
Y1629451D01*
X1867077Y1571167D02*
Y1583767D01*
X1875623Y1592313*
Y1594018*
X1872077Y1571167D02*
Y1580531D01*
X1879177Y1587631*
X1901791*
X1904269Y1590109*
X1944264Y1575977D02*
Y1576095D01*
X1956396Y1588227*
X1984168*
X1992227Y1580167*
X1904123Y1594018D02*
X1904269D01*
Y1590109*
X1904123Y1594018D02*
Y1629451D01*
X1924014Y1578727D02*
X1925527Y1577214D01*
Y1575991*
X2011314Y1580193D02*
X2013855D01*
X2022596Y1588934*
Y1591575*
X2022369*
X2027504*
X2029004Y1590075*
Y1556803*
X2037504Y1548303*
X1879427Y1521091D03*
X1879377Y1510967D03*
X1851977Y1537767D03*
X1874677Y1547241D03*
X1849777Y1534767D03*
X1841977Y1537567D03*
X1847177Y1537767D03*
X1852177Y1532167D03*
X1836977Y1537567D03*
X1872427Y1513091D03*
X1856904Y1514403D03*
Y1530803D03*
X1918327Y1504891D03*
X1922027Y1486991D03*
X1940727Y1527391D03*
X1960827Y1525991D03*
X1891927Y1524741D03*
X1889177D03*
X1942927Y1529491D03*
X2021027Y1522491D03*
X1999727Y1493991D03*
Y1486991D03*
X1967927Y1526091D03*
X1988968Y1504797D03*
X1855777Y1599167D03*
X1858579Y1624381D03*
X1870079Y1603881D03*
X1841579D03*
X1874677Y1550491D03*
X1884427Y1577741D03*
X1879427Y1571741D03*
X1854727Y1564391D03*
X1851777Y1581367D03*
X1835579Y1606381D03*
X1864079D03*
X1844177Y1598967D03*
X1841579Y1619381D03*
X1870079D03*
X1849977Y1598967D03*
X1881579Y1621881D03*
X1853079D03*
X1838577Y1598967D03*
X1864079Y1616881D03*
X1836079D03*
X1858577Y1584367D03*
X1858579Y1598881D03*
X1854577Y1586367D03*
X1853079Y1601381D03*
X1881079D03*
X1850577Y1588567D03*
X1861977D03*
X1929764Y1581977D03*
X1943996Y1587431D03*
X1941996Y1585681D03*
X1929764Y1584227D03*
X1915527Y1624491D03*
X1887079Y1624381D03*
X1898579Y1603881D03*
X1918427Y1568291D03*
X1953327Y1578691D03*
X1950827Y1578191D03*
X1921177Y1610241D03*
Y1607491D03*
Y1591741D03*
X1893177Y1576991D03*
X1894177Y1568741D03*
X1892579Y1606381D03*
X1941996Y1588931D03*
X1930627Y1586491D03*
X1941996Y1597431D03*
X1929777Y1588567D03*
X1898579Y1619381D03*
X1909527Y1621991D03*
X1892579Y1616881D03*
X1887079Y1598881D03*
X1915579D03*
X1909579Y1601381D03*
X1930927Y1578291D03*
X1941996Y1579681D03*
X2011014Y1590493D03*
X1988427Y1579191D03*
X1985227Y1579991D03*
X2024727Y1603591D03*
X2020227Y1603691D03*
X2002477Y1598167D03*
X1996927Y1569741D03*
X2015214Y1585593D03*
X2075469Y1566436D03*
X2064027Y1591491D03*
X2062427Y1623491D03*
X2050927Y1619991D03*
X2063927Y1595491D03*
X2051677Y1580741D03*
Y1583741D03*
X2075569Y1561436D03*
X2075469Y1571436D03*
X2077955Y1576977D03*
G54D24*
X1924014Y1578727D03*
X1928014D03*
X1895077Y1554417D03*
X1899077D03*
X1897577Y1537167D03*
X1893577D03*
X1889077Y1554417D03*
X1885077D03*
X1895177Y1577648D03*
X1899177D03*
Y1573648D03*
X1895177D03*
X1886427Y1577648D03*
X1890427D03*
Y1573648D03*
X1886427D03*
X1897577Y1532567D03*
X1893577D03*
X1893505Y1528434D03*
X1897505D03*
X1862077Y1540407D03*
Y1544407D03*
X1852077D03*
Y1540407D03*
X1847077Y1544407D03*
Y1540407D03*
X1866577D03*
Y1544407D03*
X1842077D03*
Y1540407D03*
X1837077Y1544407D03*
Y1540407D03*
X1835577Y1576567D03*
Y1580567D03*
X1839577Y1576567D03*
Y1580567D03*
X1854577Y1576567D03*
Y1580567D03*
X1858577Y1576567D03*
Y1580567D03*
X2014577Y1545667D03*
Y1541667D03*
X2016577Y1530167D03*
X2012577D03*
X1933577Y1532167D03*
Y1528167D03*
X1989507Y1527087D03*
Y1523087D03*
X1994507Y1527087D03*
Y1523087D03*
X1954577Y1527167D03*
Y1523167D03*
X2053483Y1628666D03*
X2057483D03*
X1924396Y1595681D03*
X1928396D03*
X1843377Y1580567D03*
Y1576567D03*
X1930396Y1600331D03*
Y1604331D03*
X1928396Y1591788D03*
X1924396D03*
X2008477Y1530167D03*
Y1526167D03*
G54D25*
X2077555Y1526977D03*
G54D26*
X2067555D03*
X2057555D03*
X2047555D03*
X2037555D03*
G54D30*
X2026518Y1626372D03*
Y1618498D03*
Y1610624D03*
X2044235Y1626372D03*
Y1618498D03*
Y1610624D03*
G54D31*
X2059279Y1599695D03*
X2052779D03*
X2059279Y1592608D03*
X2052779D03*
G54D32*
X2052333Y1623666D03*
X2058633D03*
G54D33*
X1915462Y1629451D03*
X1909792D03*
X1904123D03*
X1898454D03*
X1892784D03*
Y1594018D03*
X1898454D03*
X1904123D03*
X1909792D03*
X1915462D03*
X1886962Y1629451D03*
X1881292D03*
X1875623D03*
X1869954D03*
X1864284D03*
Y1594018D03*
X1869954D03*
X1875623D03*
X1881292D03*
X1886962D03*
X1858462Y1629451D03*
X1852792D03*
X1847123D03*
X1841454D03*
X1835784D03*
Y1594018D03*
X1841454D03*
X1847123D03*
X1852792D03*
X1858462D03*
G54D41*
X1879377Y1510967D02*
Y1498915D01*
X1879493*
X1851977Y1537767D02*
Y1540407D01*
X1852077*
X1851977Y1537767D02*
X1854377Y1535367D01*
Y1529591*
X1862877Y1521091*
X1879427*
X1849777Y1534767D02*
Y1527967D01*
X1860754Y1516991*
X1886240*
X1895241Y1507990*
X1841977Y1537567D02*
Y1540407D01*
X1842077*
X1847177Y1537767D02*
Y1527491D01*
X1859477Y1515191*
X1883727*
X1887367Y1511551*
X1852177Y1532167D02*
Y1528591D01*
X1861877Y1518891*
X1892214*
X1903115Y1507990*
X1836977Y1537567D02*
Y1540407D01*
X1837077*
X1872427Y1513091D02*
X1881427D01*
X1883377Y1511140*
Y1495031*
X1887367Y1491041*
X1837077Y1544407D02*
Y1549907D01*
X1842077Y1544407D02*
Y1549907D01*
X1847077Y1540407D02*
X1847177D01*
Y1537767*
X1847077Y1544407D02*
Y1549907D01*
X1852077Y1544407D02*
Y1549907D01*
X1903115Y1498915D02*
Y1507990D01*
X1895241Y1498915D02*
Y1507990D01*
X1887367Y1498915D02*
Y1511551D01*
X1852792Y1592167D02*
Y1594018D01*
X1855777Y1599167D02*
Y1621580D01*
X1858579Y1624381*
X1835579Y1606381D02*
Y1594223D01*
X1835784Y1594018*
X1864079Y1606381D02*
Y1594223D01*
X1864284Y1594018*
X1841579Y1619381D02*
X1844177Y1616783D01*
Y1598967*
X1849977D02*
Y1618780D01*
X1853079Y1621881*
X1864079Y1616881D02*
Y1629245D01*
X1864284Y1629451*
X1836079Y1616881D02*
X1838577Y1614383D01*
Y1598967*
X1881079Y1601381D02*
Y1594231D01*
X1881292Y1594018*
X1848177Y1583917D02*
X1848377D01*
X1858462Y1594018D02*
X1858579D01*
Y1598881*
X1858577Y1593902D02*
X1858462Y1594018D01*
X1858577Y1593902*
Y1584367*
X1852792Y1594018D02*
X1853079D01*
Y1601381*
X1852792Y1594018D02*
Y1589552D01*
X1854577Y1587767*
Y1586367*
X1841454Y1594018D02*
X1841579Y1594143D01*
Y1603881*
X1869954Y1594018D02*
X1870079Y1594143D01*
Y1603881*
X1858577Y1580567D02*
Y1584367D01*
X1854577Y1580567D02*
Y1586367D01*
X1839577Y1580567D02*
Y1586914D01*
X1841454Y1588790*
Y1594018*
X1839577Y1576567D02*
Y1574803D01*
X1842077Y1572303*
Y1571167*
X1835577Y1580567D02*
Y1593810D01*
X1835784Y1594018*
X1835577Y1576567D02*
X1835740D01*
X1837077Y1575230*
Y1571167*
X1852077D02*
Y1572303D01*
X1854577Y1574803*
Y1576567*
X1857077Y1571167D02*
Y1575067D01*
X1858577Y1576567*
X1915527Y1624491D02*
X1915579D01*
X1892579Y1606381D02*
Y1594223D01*
X1892784Y1594018*
X1909527Y1621991D02*
X1909579D01*
Y1629237*
X1909792Y1629451*
X1892579Y1616881D02*
Y1629245D01*
X1892784Y1629451*
X1909579Y1601381D02*
Y1594231D01*
X1909792Y1594018*
X1886962D02*
X1887079D01*
Y1598881*
X1915462Y1594018D02*
X1915579D01*
Y1598881*
X1898454Y1594018D02*
X1898579Y1594143D01*
Y1603881*
X1835784Y1629451D02*
X1836079Y1629156D01*
Y1616881*
X1841454Y1629451D02*
X1841579Y1629325D01*
Y1619381*
X1852792Y1629451D02*
X1853079Y1629164D01*
Y1621881*
X1852792Y1629451D02*
Y1631095D01*
X1858462Y1629451D02*
X1858579D01*
Y1624381*
X1869954Y1629451D02*
X1870079Y1629325D01*
Y1619381*
X1881292Y1629451D02*
X1881579Y1629164D01*
Y1621881*
X1886962Y1629451D02*
X1887079D01*
Y1624381*
X1898454Y1629451D02*
X1898579Y1629325D01*
Y1619381*
X1915462Y1629451D02*
X1915579Y1629333D01*
Y1624491*
G54D43*
X1968504Y1574803D02*
X1949507Y1555806D01*
Y1533406*
X1921327Y1602167D02*
X1922577Y1600917D01*
X1922591Y1600931*
X1925396*
X1930396Y1600331D02*
X1938504D01*
X1925396Y1600931D02*
Y1600331D01*
X1930396*
X1937323Y1600493D02*
X1938504Y1600331D01*
X2017146Y1599931D02*
X2022369Y1594708D01*
Y1591575*
X2044235Y1610624D02*
Y1603604D01*
X2045384Y1607454*
Y1600630*
X2053655Y1577977D02*
Y1564177D01*
X2056396Y1561436*
X2065715*
X2053655Y1577977D02*
X2063055Y1587377D01*
X2066555*
X2073055Y1593877*
Y1602093*
X2058081Y1618666D02*
X2058239D01*
X2059636Y1617269*
Y1613166*
Y1606166D02*
X2060708Y1605093D01*
X2070055*
X2073055Y1602093*
X2059636Y1613166D02*
X2064520Y1608281D01*
X2068065*
X2045384Y1600630D02*
Y1599695D01*
X2052779*
X2045384Y1591575D02*
Y1592608D01*
X2052779*
X1859727Y1542291D03*
X2029504Y1534803D03*
Y1538303D03*
X2082504Y1491303D03*
Y1494803D03*
X1851927Y1577391D03*
X1944264Y1575977D03*
X1925527Y1575991D03*
X1921327Y1602167D03*
X2037504Y1548303D03*
X1992227Y1580167D03*
X2017146Y1599931D03*
X2011314Y1580193D03*
X2063504Y1553303D03*
Y1556803D03*
X2058504Y1553303D03*
Y1556803D03*
Y1565303D03*
Y1568803D03*
G54D47*
X1899496Y1568495D03*
X1891858D03*
X1895677Y1559439D03*
X1886996Y1568495D03*
X1879358D03*
X1883177Y1559439D03*
X1881311Y1527839D03*
X1888949D03*
X1885130Y1536895D03*
G54D48*
X1897489Y1542716D03*
X1886465D03*
Y1548818D03*
X1897489D03*
G54D49*
X1837077Y1548333D02*
X1837077D01*
Y1551482*
X1837077*
Y1548333*
X1837077*
Y1550695D02*
X1837077D01*
Y1548333D02*
Y1551482D01*
G54D50*
X1842077Y1549907D03*
X1847077D03*
X1852077D03*
X1857077D03*
X1862077D03*
X1867077D03*
X1872077D03*
Y1571167D03*
X1867077D03*
X1862077D03*
X1857077D03*
X1852077D03*
X1847077D03*
X1842077D03*
X1837077D03*
G54D51*
X1937323Y1605493D03*
Y1600493D03*
Y1595493D03*
Y1590493D03*
Y1585493D03*
Y1580493D03*
Y1575493D03*
Y1570493D03*
Y1565493D03*
Y1560493D03*
Y1555493D03*
Y1550493D03*
Y1545493D03*
Y1540493D03*
X2006614D03*
Y1545493D03*
Y1550493D03*
Y1555493D03*
Y1560493D03*
Y1565493D03*
Y1570493D03*
Y1575493D03*
Y1580493D03*
Y1585493D03*
Y1590493D03*
Y1595493D03*
Y1600493D03*
Y1605493D03*
G54D52*
X1949507Y1533406D03*
X1954507D03*
X1959507D03*
X1964507D03*
X1969507D03*
X1974507D03*
X1979507D03*
X1984507D03*
X1989507D03*
X1994507D03*
G54D53*
X1968504Y1574803D03*
G54D54*
X2045384Y1582520D03*
Y1591575D03*
Y1600630D03*
G54D55*
X2022369Y1591575D03*
G54D56*
X2068065Y1608281D03*
Y1619763D03*
G54D57*
Y1611486D03*
Y1614045D03*
Y1616604D03*
G54D58*
X2081845Y1600266D03*
Y1627825D03*
X2067278Y1600266D03*
Y1627825D03*
G54D59*
X2084337Y1561436D02*
X2084337D01*
X2077801*
X2077801*
X2084337*
X2079213D02*
X2079213D01*
X2082126D02*
X2082126D01*
G54D60*
X2081069Y1566436D03*
Y1571436D03*
X2065715D03*
Y1566436D03*
Y1561436D03*
G54D61*
X1848177Y1583917D03*
Y1577417D03*
X1925396Y1607431D03*
Y1600931D03*
G54D62*
X2051329Y1613166D03*
X2059636D03*
X2051329Y1606166D03*
X2059636D03*
G54D63*
X2058081Y1618666D03*
X2052884D03*
G54D65*
X2016657Y1498915D03*
X2024531D03*
X2032405D03*
X2040279D03*
Y1491041D03*
X2032405D03*
X2024531D03*
X2016657D03*
X1879493Y1498915D03*
X1887367D03*
X1895241D03*
X1903115D03*
Y1491041D03*
X1895241D03*
X1887367D03*
X1879493D03*
X1940201Y1498915D03*
X1948075D03*
X1955949D03*
X1963823D03*
X1971697D03*
X1979571D03*
Y1491041D03*
X1971697D03*
X1963823D03*
X1955949D03*
X1948075D03*
X1940201D03*
G74*
X0Y0D02*
M02*
