*
*
G04 PADS VX.2 Build Number: 5060570 generated Gerber (RS-274-X) file*
G04 PC Version=2.1*
*
%IN "ESP32-Sense-Series-Main"*%
*
%MOIN*%
*
%FSLAX35Y35*%
*
*
*
*
G04 PC Standard Apertures*
*
*
G04 Thermal Relief Aperture macro.*
%AMTER*
1,1,$1,0,0*
1,0,$1-$2,0,0*
21,0,$3,$4,0,0,45*
21,0,$3,$4,0,0,135*
%
*
*
G04 Annular Aperture macro.*
%AMANN*
1,1,$1,0,0*
1,0,$2,0,0*
%
*
*
G04 Odd Aperture macro.*
%AMODD*
1,1,$1,0,0*
1,0,$1-0.005,0,0*
%
*
*
G04 PC Custom Aperture Macros*
*
*
*
*
*
*
G04 PC Aperture Table*
*
%ADD010C,0.001*%
%ADD011C,0.005*%
%ADD012C,0.008*%
%ADD014C,0.004*%
%ADD018C,0.015*%
%ADD026C,0.07*%
%ADD030C,0.05906*%
%ADD038C,0.03937*%
%ADD041C,0.012*%
%ADD043C,0.02*%
%ADD058O,0.07087X0.05906*%
%ADD065C,0.04528*%
*
*
*
*
G04 PC Circuitry*
G04 Layer Name ESP32-Sense-Series-Main - circuitry*
%LPD*%
*
*
G04 PC Custom Flashes*
G04 Layer Name ESP32-Sense-Series-Main - flashes*
%LPD*%
*
*
G04 PC Circuitry*
G04 Layer Name ESP32-Sense-Series-Main - circuitry*
%LPD*%
*
G54D10*
G54D11*
G01X2077955Y1576977D02*
X2081255D01*
X2019971Y1491041D02*
G75*
G03X2019971I-3314J0D01*
G01Y1498915D02*
G03X2019971I-3314J0D01*
G01X2023177Y1569915D02*
G03X2022882Y1570371I-500J-0D01*
G01X2022452Y1570668D02*
G03X2022882Y1570371I1025J1025D01*
G01X2022452Y1570668D02*
X2021526Y1571594D01*
G03X2021172Y1571741I-354J-353*
G01X2012277*
G03X2011777Y1571241I-0J-500*
G01Y1529441*
X2001627*
G03X2001127Y1528941I-0J-500*
G01Y1511147*
X2000702Y1510122D02*
G03X2001127Y1511147I-1025J1025D01*
G01X2000702Y1510122D02*
X1983823Y1493243D01*
G03X1983677Y1492889I354J-354*
G01Y1484203*
X1983427Y1483953D02*
G03X1983677Y1484203I-0J250D01*
G01X1983427Y1483953D02*
X1933304D01*
X1933054Y1484203D02*
G03X1933304Y1483953I250J0D01*
G01X1933054Y1484203D02*
Y1505803D01*
X1933304Y1506053D02*
G03X1933054Y1505803I-0J-250D01*
G01X1933304Y1506053D02*
X1975904D01*
X1976154Y1505803D02*
G03X1975904Y1506053I-250J0D01*
G01X1976154Y1505803D02*
Y1503877D01*
G03X1976301Y1503523I500J0*
G01X1978211Y1498915D02*
G03X1976301Y1503523I-6514J0D01*
G01X1977890Y1496896D02*
G03X1978211Y1498915I-6193J2019D01*
G01X1977890Y1496896D02*
G03X1977865Y1496741I475J-155D01*
X1978365Y1496241I500J-0*
G01X1982513*
G03X1982866Y1496387I-0J500*
G01X1998080Y1511601*
G03X1998227Y1511955I-353J354*
G01Y1528941*
G03X1997727Y1529441I-500J-0*
G01X1931277*
Y1571241*
G03X1930777Y1571741I-500J-0*
G01X1913077*
G03X1912577Y1571241I-0J-500*
G01Y1468741*
G03X1913077Y1468241I500J-0*
G01X2022677*
G03X2023177Y1468741I-0J500*
G01Y1487708*
G03X2022920Y1488145I-500J0*
G01X2021217Y1491041D02*
G03X2022920Y1488145I3314J0D01*
G01Y1493937D02*
G03X2021217Y1491041I1611J-2896D01*
G01X2022920Y1493937D02*
G03X2023177Y1494374I-243J437D01*
G01Y1495582*
G03X2022920Y1496019I-500J0*
G01X2021217Y1498915D02*
G03X2022920Y1496019I3314J0D01*
G01Y1501811D02*
G03X2021217Y1498915I1611J-2896D01*
G01X2022920Y1501811D02*
G03X2023177Y1502248I-243J437D01*
G01Y1569915*
X2019971Y1491041D02*
G03X2019971I-3314J0D01*
G01Y1498915D02*
G03X2019971I-3314J0D01*
G01X2011777Y1555833D02*
X2023177Y1567233D01*
X2011777Y1548762D02*
X2023177Y1560162D01*
X2011777Y1541691D02*
X2023177Y1553091D01*
X2011777Y1534620D02*
X2023177Y1546020D01*
X2001127Y1516899D02*
X2023177Y1538949D01*
X1983677Y1492378D02*
X2023177Y1531878D01*
X1983677Y1485306D02*
X2023177Y1524806D01*
X1973682Y1468241D02*
X2023177Y1517735D01*
X1980753Y1468241D02*
X2023177Y1510664D01*
X2019733Y1500149D02*
X2023177Y1503593D01*
X2009037Y1468241D02*
X2023177Y1482380D01*
X2016109Y1468241D02*
X2023177Y1475309D01*
X2019461Y1492807D02*
X2022766Y1496111D01*
X2001966Y1468241D02*
X2022309Y1488583D01*
X2011777Y1562904D02*
X2020614Y1571741D01*
X1987824Y1468241D02*
X2015423Y1495840D01*
X1994895Y1468241D02*
X2014892Y1488237D01*
X2011777Y1569975D02*
X2013543Y1571741D01*
X2001127Y1523970D02*
X2006598Y1529441D01*
X1976073Y1505987D02*
X1998227Y1528141D01*
X1977938Y1500781D02*
X1998227Y1521070D01*
X1980469Y1496241D02*
X1998227Y1513999D01*
X1969068Y1506053D02*
X1992456Y1529441D01*
X1961997Y1506053D02*
X1985385Y1529441D01*
X1966611Y1468241D02*
X1982324Y1483953D01*
X1954926Y1506053D02*
X1978314Y1529441D01*
X1959540Y1468241D02*
X1975253Y1483953D01*
X1947855Y1506053D02*
X1971243Y1529441D01*
X1952469Y1468241D02*
X1968181Y1483953D01*
X1940784Y1506053D02*
X1964171Y1529441D01*
X1945398Y1468241D02*
X1961110Y1483953D01*
X1933713Y1506053D02*
X1957100Y1529441D01*
X1938327Y1468241D02*
X1954039Y1483953D01*
X1912577Y1491988D02*
X1950029Y1529441D01*
X1931256Y1468241D02*
X1946968Y1483953D01*
X1912577Y1499059D02*
X1942958Y1529441D01*
X1924185Y1468241D02*
X1939897Y1483953D01*
X1912577Y1506130D02*
X1935887Y1529441D01*
X1917114Y1468241D02*
X1933055Y1484182D01*
X1912577Y1484917D02*
X1933054Y1505394D01*
X1912577Y1477846D02*
X1933054Y1498323D01*
X1912577Y1470775D02*
X1933054Y1491252D01*
X1912577Y1548557D02*
X1931277Y1567257D01*
X1912577Y1541486D02*
X1931277Y1560186D01*
X1912577Y1534415D02*
X1931277Y1553115D01*
X1912577Y1527344D02*
X1931277Y1546044D01*
X1912577Y1520272D02*
X1931277Y1538972D01*
X1912577Y1513201D02*
X1931277Y1531901D01*
X1912577Y1555628D02*
X1928690Y1571741D01*
X1912577Y1562699D02*
X1921619Y1571741D01*
X1912577Y1569770D02*
X1914548Y1571741D01*
X2021208Y1571739D02*
X2023177Y1569770D01*
X2014135Y1571741D02*
X2023177Y1562699D01*
X2011777Y1567028D02*
X2023177Y1555628D01*
X2011777Y1559957D02*
X2023177Y1548557D01*
X2011777Y1552886D02*
X2023177Y1541486D01*
X2011777Y1545815D02*
X2023177Y1534415D01*
X2011777Y1538744D02*
X2023177Y1527344D01*
X2011777Y1531672D02*
X2023177Y1520272D01*
X2006938Y1529441D02*
X2023177Y1513201D01*
X2001127Y1528180D02*
X2023177Y1506130D01*
X2019190Y1488904D02*
X2023177Y1484917D01*
X1995802Y1505221D02*
X2023177Y1477846D01*
X1992266Y1501686D02*
X2023177Y1470775D01*
X2018788Y1496377D02*
X2021993Y1493172D01*
X2001127Y1521109D02*
X2021662Y1500574D01*
X1988731Y1498150D02*
X2018640Y1468241D01*
X1999337Y1508757D02*
X2014520Y1493574D01*
X2001127Y1514038D02*
X2014119Y1501046D01*
X1985195Y1494615D02*
X2011569Y1468241D01*
X1983677Y1489062D02*
X2004498Y1468241D01*
X1992796Y1529441D02*
X1998227Y1524009D01*
X1985725Y1529441D02*
X1998227Y1516938D01*
X1981715Y1483953D02*
X1997427Y1468241D01*
X1978654Y1529441D02*
X1997287Y1510807D01*
X1971582Y1529441D02*
X1993751Y1507272D01*
X1974644Y1483953D02*
X1990356Y1468241D01*
X1964511Y1529441D02*
X1990216Y1503736D01*
X1957440Y1529441D02*
X1986680Y1500201D01*
X1967572Y1483953D02*
X1983285Y1468241D01*
X1976551Y1503258D02*
X1983145Y1496665D01*
X1960501Y1483953D02*
X1976214Y1468241D01*
X1950369Y1529441D02*
X1973757Y1506053D01*
X1953430Y1483953D02*
X1969143Y1468241D01*
X1943298Y1529441D02*
X1966686Y1506053D01*
X1946359Y1483953D02*
X1962072Y1468241D01*
X1936227Y1529441D02*
X1959615Y1506053D01*
X1939288Y1483953D02*
X1955001Y1468241D01*
X1912577Y1546020D02*
X1952543Y1506053D01*
X1912577Y1503593D02*
X1947930Y1468241D01*
X1912577Y1538949D02*
X1945472Y1506053D01*
X1912577Y1496522D02*
X1940859Y1468241D01*
X1912577Y1531878D02*
X1938401Y1506053D01*
X1912577Y1489451D02*
X1933788Y1468241D01*
X1912577Y1524806D02*
X1933054Y1504330D01*
X1912577Y1517735D02*
X1933054Y1497258D01*
X1912577Y1510664D02*
X1933054Y1490187D01*
X1929282Y1571741D02*
X1931277Y1569746D01*
X1922211Y1571741D02*
X1931277Y1562675D01*
X1915140Y1571741D02*
X1931277Y1555604D01*
X1912577Y1567233D02*
X1931277Y1548533D01*
X1912577Y1560162D02*
X1931277Y1541462D01*
X1912577Y1553091D02*
X1931277Y1534391D01*
X1912577Y1482380D02*
X1926716Y1468241D01*
X1912577Y1475309D02*
X1919645Y1468241D01*
G54D12*
X1979571Y1491041D02*
X1999677Y1511147D01*
Y1566991*
X2081255Y1546977D02*
X2075569Y1552663D01*
Y1561436*
X1941996Y1588931D02*
X1939541Y1586477D01*
X1930627*
Y1586491*
X1942021Y1585656D02*
X1941996Y1585681D01*
X1929764Y1581977D02*
X1940996D01*
X1943996Y1584977*
Y1587431*
X1929764Y1584227D02*
X1940591D01*
X1942021Y1585656*
X1929777Y1588567D02*
X1938627D01*
X1941996Y1591936*
Y1597431*
X1930927Y1578291D02*
X1940605D01*
X1941996Y1579681*
X1999677Y1566991D02*
X1996927Y1569741D01*
X2075469Y1566436D02*
X2067712Y1574193D01*
X2023839*
X2011014Y1587018*
Y1590493*
X2075569Y1561436D02*
X2065312Y1571693D01*
X2023477*
X2002477Y1592693*
Y1598167*
X2075469Y1571436D02*
X2070312Y1576593D01*
X2024214*
X2015214Y1585593*
X2081255Y1556977D02*
Y1560650D01*
X2075469Y1566436*
X2081255Y1566977D02*
X2079928D01*
X2075469Y1571436*
G54D14*
X2075471Y1606171D02*
G03X2075471I-2131J0D01*
G01Y1621919D02*
G03X2075471I-2131J0D01*
G01X1898505Y1491041D02*
G03X1898505I-3264J0D01*
G01Y1498915D02*
G03X1898505I-3264J0D01*
G01X1890631Y1491041D02*
G03X1890631I-3264J0D01*
G01Y1498915D02*
G03X1890631I-3264J0D01*
G01X1869635Y1494978D02*
G03X1869635I-12208J0D01*
G01X2074553D02*
G03X2074553I-12208J0D01*
G01X2072055Y1526977D02*
G03X2072055I-4500J0D01*
G01X2062055D02*
G03X2062055I-4500J0D01*
G01X2043543Y1491041D02*
G03X2043543I-3264J0D01*
G01Y1498915D02*
G03X2043543I-3264J0D01*
G01X2052055Y1526977D02*
G03X2052055I-4500J0D01*
G01X2035669Y1491041D02*
G03X2035669I-3264J0D01*
G01Y1498915D02*
G03X2035669I-3264J0D01*
G01X2088368Y1629819D02*
G03Y1629828I-400J0D01*
X2083462Y1634541I-4817J-104*
G01X2083462*
X2083439D02*
G03X2083462I0J1200D01*
G01X2083439D02*
X2018827D01*
G03X2018427Y1634141I-0J-400*
G01Y1607441*
X2013022*
G03X2012622Y1607041I0J-400*
X2012908Y1606657I400J-0*
G01X2013751Y1606154D02*
G03X2012908Y1606657I-1415J-1413D01*
G01X2013751Y1606154D02*
X2018559Y1601346D01*
X2019146Y1599931D02*
G03X2018559Y1601346I-2000J0D01*
G01X2015731Y1598518D02*
G03X2019146Y1599931I1415J1413D01*
G01X2015731Y1598518D02*
X2011625Y1602623D01*
G03X2011342Y1602741I-283J-282*
G01X1924895*
G03X1924612Y1602623I-0J-400*
G01X1922742Y1600754*
X1919327Y1602167D02*
G03X1922742Y1600754I2000J0D01*
G01X1919914Y1603582D02*
G03X1919327Y1602167I1413J-1415D01*
G01X1919914Y1603582D02*
X1922486Y1606155D01*
X1923448Y1606689D02*
G03X1922486Y1606155I453J-1948D01*
G01X1923448Y1606689D02*
G03X1923757Y1607078I-91J389D01*
X1923527Y1607441I-400J0*
G01Y1634109*
G03X1923127Y1634509I-400J-0*
G01X1833353Y1634540*
G03X1831627Y1632815I-0J-1726*
G01Y1468777*
G03X1832027Y1468377I400J-0*
G01X1906127*
G03X1906527Y1468777I-0J400*
G01Y1488955*
G03X1905798Y1489183I-400J0*
G01X1899851Y1491041D02*
G03X1905798Y1489183I3264J0D01*
G01Y1492899D02*
G03X1899851Y1491041I-2683J-1858D01*
G01X1905798Y1492899D02*
G03X1906527Y1493127I329J228D01*
G01Y1496829*
G03X1905798Y1497057I-400J0*
G01X1899851Y1498915D02*
G03X1905798Y1497057I3264J0D01*
G01Y1500773D02*
G03X1899851Y1498915I-2683J-1858D01*
G01X1905798Y1500773D02*
G03X1906527Y1501001I329J228D01*
G01Y1577391*
X1923939*
G03X1924204Y1577491I0J400*
G01X1926439Y1577771D02*
G03X1924204Y1577491I-912J-1780D01*
G01X1926439Y1577771D02*
G03X1926621Y1577727I182J356D01*
G01X1928783*
G03X1929183Y1578127I0J400*
G01X1929183*
G03X1929182Y1578157I-400J-0*
G01X1929177Y1578291D02*
G03X1929182Y1578157I1750J-0D01*
G01X1929722Y1579560D02*
G03X1929177Y1578291I1205J-1269D01*
G01X1929722Y1579560D02*
G03X1929847Y1579850I-275J290D01*
X1929506Y1580246I-400J0*
G01X1928014Y1581977D02*
G03X1929506Y1580246I1750J-0D01*
G01X1928273Y1582892D02*
G03X1928014Y1581977I1491J-915D01*
G01X1928273Y1582892D02*
G03X1928332Y1583102I-341J210D01*
X1928273Y1583311I-400J-0*
G01X1928014Y1584227D02*
G03X1928273Y1583311I1750J-0D01*
G01X1928764Y1585663D02*
G03X1928014Y1584227I1000J-1436D01*
G01X1928764Y1585663D02*
G03X1928936Y1585991I-228J328D01*
X1928925Y1586084I-400J0*
G01X1928877Y1586491D02*
G03X1928925Y1586084I1750J-0D01*
G01X1928899Y1586770D02*
G03X1928877Y1586491I1728J-279D01*
G01X1928899Y1586770D02*
G03X1928905Y1586834I-394J64D01*
X1928741Y1587157I-400J0*
G01X1928027Y1588567D02*
G03X1928741Y1587157I1750J0D01*
G01X1930734Y1590032D02*
G03X1928027Y1588567I-957J-1465D01*
G01X1930734Y1590032D02*
G03X1930953Y1589967I219J335D01*
G01X1937881*
G03X1938164Y1590084I0J400*
G01X1940479Y1592399*
G03X1940596Y1592682I-283J283*
G01Y1596255*
G03X1940531Y1596474I-400J0*
G01X1940246Y1597431D02*
G03X1940531Y1596474I1750J0D01*
G01X1943746Y1597431D02*
G03X1940246I-1750J0D01*
G01X1943461Y1596474D02*
G03X1943746Y1597431I-1465J957D01*
G01X1943461Y1596474D02*
G03X1943396Y1596255I335J-219D01*
G01Y1591936*
X1942986Y1590946D02*
G03X1943396Y1591936I-990J990D01*
G01X1942986Y1590946D02*
G03X1942869Y1590664I283J-282D01*
X1943032Y1590341I400J-0*
G01X1943664Y1589460D02*
G03X1943032Y1590341I-1668J-529D01*
G01X1943664Y1589460D02*
G03X1944036Y1589181I381J121D01*
G01X1945746Y1587431D02*
G03X1944036Y1589181I-1750J0D01*
G01X1945461Y1586474D02*
G03X1945746Y1587431I-1465J957D01*
G01X1945461Y1586474D02*
G03X1945396Y1586255I335J-219D01*
G01Y1584977*
X1944986Y1583987D02*
G03X1945396Y1584977I-990J990D01*
G01X1944986Y1583987D02*
X1942811Y1581812D01*
G03X1942694Y1581530I283J-282*
X1942890Y1581186I400J-0*
G01X1943746Y1579681D02*
G03X1942890Y1581186I-1750J0D01*
G01X1943333Y1578552D02*
G03X1943746Y1579681I-1337J1129D01*
G01X1943333Y1578552D02*
G03X1943238Y1578294I305J-258D01*
X1943742Y1577907I400J-0*
G01X1945574Y1577488D02*
G03X1943742Y1577907I-1310J-1511D01*
G01X1945574Y1577488D02*
G03X1945836Y1577391I262J303D01*
G01X1955427*
Y1563091*
G03X1955827Y1562691I400J-0*
G01X1981627*
G03X1982027Y1563091I-0J400*
G01Y1577991*
X1990614*
G03X1991014Y1578391I-0J400*
X1990883Y1578687I-400J-0*
G01X1990227Y1580167D02*
G03X1990883Y1578687I2000J0D01*
G01X1993116Y1581959D02*
G03X1990227Y1580167I-889J-1792D01*
G01X1993116Y1581959D02*
G03X1993294Y1581917I178J358D01*
G01X2001998*
G03X2002057Y1581922I-0J400*
G01X2002314Y1581941D02*
G03X2002057Y1581922I-0J-1750D01*
G01X2002314Y1581941D02*
X2010242D01*
G03X2010421Y1581983I0J400*
G01X2010444Y1581994D02*
G03X2010421Y1581983I870J-1801D01*
G01X2010444Y1581994D02*
G03X2010670Y1582354I-174J360D01*
X2010553Y1582637I-400J0*
G01X2001487Y1591703*
X2001077Y1592693D02*
G03X2001487Y1591703I1400J0D01*
G01X2001077Y1592693D02*
Y1596991D01*
G03X2001012Y1597210I-400J0*
G01X2000727Y1598167D02*
G03X2001012Y1597210I1750J0D01*
G01X2004227Y1598167D02*
G03X2000727I-1750J0D01*
G01X2003942Y1597210D02*
G03X2004227Y1598167I-1465J957D01*
G01X2003942Y1597210D02*
G03X2003877Y1596991I335J-219D01*
G01Y1593439*
G03X2003994Y1593156I400J-0*
G01X2008931Y1588219*
G03X2009614Y1588502I283J283*
G01Y1589317*
G03X2009549Y1589536I-400J0*
G01X2009264Y1590493D02*
G03X2009549Y1589536I1750J0D01*
G01X2012764Y1590493D02*
G03X2009264I-1750J0D01*
G01X2012479Y1589536D02*
G03X2012764Y1590493I-1465J957D01*
G01X2012479Y1589536D02*
G03X2012414Y1589317I335J-219D01*
G01Y1587764*
G03X2012531Y1587481I400J-0*
G01X2013301Y1586711*
G03X2013887Y1586734I282J283*
G01X2016927Y1585952D02*
G03X2013887Y1586734I-1713J-359D01*
G01X2016927Y1585952D02*
G03X2017036Y1585752I391J83D01*
G01X2024677Y1578110*
G03X2024960Y1577993I283J283*
G01X2070312*
X2071302Y1577583D02*
G03X2070312Y1577993I-990J-990D01*
G01X2071302Y1577583D02*
X2075628Y1573258D01*
G03X2075828Y1573149I282J282*
G01X2077182Y1571795D02*
G03X2075828Y1573149I-1713J-359D01*
G01X2077182Y1571795D02*
G03X2077290Y1571595I391J83D01*
G01X2079279Y1569606*
G03X2079763Y1569543I283J283*
G01X2084223Y1566977D02*
G03X2079763Y1569543I-2968J0D01*
G01X2080866Y1564034D02*
G03X2084223Y1566977I389J2943D01*
G01X2080866Y1564034D02*
G03X2080413Y1563638I-53J-396D01*
X2080530Y1563355I400J-0*
G01X2082245Y1561640*
X2082655Y1560650D02*
G03X2082245Y1561640I-1400J0D01*
G01X2082655Y1560650D02*
Y1559824D01*
G03X2082841Y1559486I400J0*
G01X2084223Y1556977D02*
G03X2082841Y1559486I-2968J0D01*
G01X2078286Y1556977D02*
G03X2084223I2969J0D01*
G01X2079669Y1559486D02*
G03X2078286Y1556977I1586J-2509D01*
G01X2079669Y1559486D02*
G03X2079855Y1559824I-214J338D01*
G01Y1559905*
G03X2079738Y1560188I-400J-0*
G01X2077991Y1561934*
G03X2077308Y1561651I-283J-283*
X2077310Y1561611I400J0*
G01X2077319Y1561436D02*
G03X2077310Y1561611I-1750J0D01*
G01X2077034Y1560479D02*
G03X2077319Y1561436I-1465J957D01*
G01X2077034Y1560479D02*
G03X2076969Y1560260I335J-219D01*
G01Y1553409*
G03X2077086Y1553126I400J-0*
G01X2080232Y1549980*
G03X2080602Y1549873I282J283*
G01X2084223Y1546977D02*
G03X2080602Y1549873I-2968J0D01*
G01X2078286Y1546977D02*
G03X2084223I2969J0D01*
G01X2078359Y1547630D02*
G03X2078286Y1546977I2896J-653D01*
G01X2078359Y1547630D02*
G03X2078369Y1547718I-390J88D01*
X2078252Y1548001I-400J-0*
G01X2074579Y1551673*
X2074169Y1552663D02*
G03X2074579Y1551673I1400J-0D01*
G01X2074169Y1552663D02*
Y1560260D01*
G03X2074104Y1560479I-400J0*
G01X2073856Y1561077D02*
G03X2074104Y1560479I1713J359D01*
G01X2073856Y1561077D02*
G03X2073748Y1561278I-391J-82D01*
G01X2064849Y1570176*
G03X2064567Y1570293I-282J-283*
G01X2027827*
G03X2027427Y1569893I-0J-400*
G01Y1500515*
G03X2027467Y1500340I400J0*
G01X2027795Y1498915D02*
G03X2027467Y1500340I-3264J0D01*
G01Y1497490D02*
G03X2027795Y1498915I-2936J1425D01*
G01X2027467Y1497490D02*
G03X2027427Y1497315I360J-175D01*
G01Y1492641*
G03X2027467Y1492466I400J0*
G01X2027795Y1491041D02*
G03X2027467Y1492466I-3264J0D01*
G01Y1489616D02*
G03X2027795Y1491041I-2936J1425D01*
G01X2027467Y1489616D02*
G03X2027427Y1489441I360J-175D01*
G01Y1468741*
G03X2027827Y1468341I400J-0*
G01X2087968*
G03X2088368Y1468741I-0J400*
G01Y1629819*
X2081255Y1573527D02*
G03X2084705Y1576977I-0J3450D01*
G01X2081255Y1573527D02*
X2077955D01*
X2074505Y1576977D02*
G03X2077955Y1573527I3450J0D01*
G01Y1580427D02*
G03X2074505Y1576977I-0J-3450D01*
G01X2077955Y1580427D02*
X2081255D01*
X2084705Y1576977D02*
G03X2081255Y1580427I-3450J0D01*
G01X2075471Y1606171D02*
G03X2075471I-2131J0D01*
G01Y1621919D02*
G03X2075471I-2131J0D01*
G01X2045921Y1622797D02*
G03X2048188Y1626372I-1686J3575D01*
G01X2045921Y1622797D02*
G03X2045691Y1622435I170J-362D01*
X2045921Y1622073I400J-0*
G01X2048188Y1618498D02*
G03X2045921Y1622073I-3953J-0D01*
G01Y1614923D02*
G03X2048188Y1618498I-1686J3575D01*
G01X2045921Y1614923D02*
G03X2045691Y1614561I170J-362D01*
X2045921Y1614199I400J-0*
G01X2048188Y1610624D02*
G03X2045921Y1614199I-3953J-0D01*
G01X2040937Y1608444D02*
G03X2048188Y1610624I3298J2180D01*
G01X2040937Y1608444D02*
G03X2040603Y1608624I-334J-220D01*
G01X2030150*
G03X2029816Y1608444I-0J-400*
G01X2022565Y1610624D02*
G03X2029816Y1608444I3953J-0D01*
G01X2024832Y1614199D02*
G03X2022565Y1610624I1686J-3575D01*
G01X2024832Y1614199D02*
G03X2025062Y1614561I-170J362D01*
X2024832Y1614923I-400J-0*
G01X2022565Y1618498D02*
G03X2024832Y1614923I3953J-0D01*
G01Y1622073D02*
G03X2022565Y1618498I1686J-3575D01*
G01X2024832Y1622073D02*
G03X2025062Y1622435I-170J362D01*
X2024832Y1622797I-400J-0*
G01X2022565Y1626372D02*
G03X2024832Y1622797I3953J-0D01*
G01X2030471Y1626372D02*
G03X2022565I-3953J-0D01*
G01X2028204Y1622797D02*
G03X2030471Y1626372I-1686J3575D01*
G01X2028204Y1622797D02*
G03X2027975Y1622435I171J-362D01*
X2028204Y1622073I400J-0*
G01X2029816Y1620677D02*
G03X2028204Y1622073I-3298J-2179D01*
G01X2029816Y1620677D02*
G03X2030150Y1620498I334J221D01*
G01X2040603*
G03X2040937Y1620677I0J400*
G01X2042549Y1622073D02*
G03X2040937Y1620677I1686J-3575D01*
G01X2042549Y1622073D02*
G03X2042778Y1622435I-171J362D01*
X2042549Y1622797I-400J-0*
G01X2040282Y1626372D02*
G03X2042549Y1622797I3953J-0D01*
G01X2048188Y1626372D02*
G03X2040282I-3953J-0D01*
G01X1898505Y1491041D02*
G03X1898505I-3264J0D01*
G01Y1498915D02*
G03X1898505I-3264J0D01*
G01X1890631Y1491041D02*
G03X1890631I-3264J0D01*
G01Y1498915D02*
G03X1890631I-3264J0D01*
G01X1914937Y1597253D02*
G03X1917329Y1598881I642J1628D01*
G01X1914937Y1597253D02*
G03X1914790Y1597281I-147J-372D01*
G01X1887868*
G03X1887721Y1597253I-0J-400*
G01X1886437D02*
G03X1887721I642J1628D01*
G01X1886437D02*
G03X1886290Y1597281I-147J-372D01*
G01X1859368*
G03X1859221Y1597253I-0J-400*
G01X1857305Y1597682D02*
G03X1859221Y1597253I1274J1199D01*
G01X1857305Y1597682D02*
G03X1856783Y1597735I-292J-274D01*
G01X1856474Y1597562D02*
G03X1856783Y1597735I-697J1605D01*
G01X1856474Y1597562D02*
G03X1856351Y1597478I160J-367D01*
G01X1849820Y1590947*
G03X1849703Y1590664I283J-283*
X1850191Y1590274I400J0*
G01X1850577Y1590317D02*
G03X1850191Y1590274I0J-1750D01*
G01X1850577Y1590317D02*
X1861977D01*
X1863727Y1588567D02*
G03X1861977Y1590317I-1750J0D01*
G01Y1586817D02*
G03X1863727Y1588567I0J1750D01*
G01X1861977Y1586817D02*
X1859225D01*
G03X1858825Y1586417I0J-400*
X1859105Y1586036I400J0*
G01X1860327Y1584367D02*
G03X1859105Y1586036I-1750J0D01*
G01X1857935Y1582739D02*
G03X1860327Y1584367I642J1628D01*
G01X1857935Y1582739D02*
G03X1857788Y1582767I-147J-372D01*
G01X1852355*
G03X1852073Y1582650I0J-400*
G01X1850844Y1581422*
G03X1850727Y1581139I283J-283*
G01Y1579653*
G03X1851260Y1579276I400J0*
G01X1853920Y1577554D02*
G03X1851260Y1579276I-1993J-163D01*
G01X1853920Y1577554D02*
G03X1853930Y1577494I399J33D01*
G01X1853977Y1577091D02*
G03X1853930Y1577494I-1750J-0D01*
G01X1853977Y1577091D02*
Y1550681D01*
G03X1854094Y1550398I400J0*
G01X1860210Y1544282*
G03X1860365Y1544186I283J283*
G01X1861727Y1542291D02*
G03X1860365Y1544186I-2000J-0D01*
G01X1860004Y1540310D02*
G03X1861727Y1542291I-277J1981D01*
G01X1860004Y1540310D02*
G03X1859659Y1539914I55J-396D01*
X1859776Y1539631I400J-0*
G01X1864909Y1534499*
X1865377Y1533367D02*
G03X1864909Y1534499I-1600J0D01*
G01X1865377Y1533367D02*
Y1526996D01*
G03X1865494Y1526713I400J-0*
G01X1876835Y1515372*
X1877043Y1515117D02*
G03X1876835Y1515372I-1339J-876D01*
G01X1877043Y1515117D02*
G03X1877777Y1515336I334J219D01*
G01Y1520441*
G03X1877759Y1520562I-400J0*
G01X1877677Y1521091D02*
G03X1877759Y1520562I1750J-0D01*
G01X1881177Y1521091D02*
G03X1877677I-1750J-0D01*
G01X1881014Y1520354D02*
G03X1881177Y1521091I-1587J737D01*
G01X1881014Y1520354D02*
G03X1880977Y1520186I363J-168D01*
G01Y1511756*
G03X1881005Y1511609I400J0*
G01X1881127Y1510967D02*
G03X1881005Y1511609I-1750J0D01*
G01X1878015Y1509868D02*
G03X1881127Y1510967I1362J1099D01*
G01X1878015Y1509868D02*
G03X1877304Y1509617I-311J-251D01*
G01Y1502113*
G03X1877899Y1501763I400J-0*
G01X1882757Y1498915D02*
G03X1877899Y1501763I-3264J0D01*
G01Y1496067D02*
G03X1882757Y1498915I1594J2848D01*
G01X1877899Y1496067D02*
G03X1877304Y1495718I-195J-349D01*
G01Y1495659*
G03X1877421Y1495376I400J-0*
G01X1878454Y1494343*
G03X1878819Y1494235I283J283*
G01X1882757Y1491041D02*
G03X1878819Y1494235I-3264J0D01*
G01X1876229Y1491041D02*
G03X1882757I3264J0D01*
G01X1876229D02*
X1876229D01*
X1876299Y1491715D02*
G03X1876229Y1491041I3194J-674D01*
G01X1876299Y1491715D02*
G03X1876308Y1491798I-391J83D01*
G01X1876308*
G03X1876191Y1492080I-400J-0*
G01X1874573Y1493699*
X1874104Y1494830D02*
G03X1874573Y1493699I1600J0D01*
G01X1874104Y1494830D02*
Y1510803D01*
G03X1873704Y1511203I-400J0*
G01X1857504*
X1857363Y1511262D02*
G03X1857504Y1511203I141J141D01*
G01X1857363Y1511262D02*
X1855163Y1513462D01*
X1855104Y1513603D02*
G03X1855163Y1513462I200J0D01*
G01X1855104Y1513603D02*
Y1530203D01*
G03X1854704Y1530603I-400J0*
G01X1853052*
G03X1852889Y1530569I-0J-400*
G01X1851535Y1530539D02*
G03X1852889Y1530569I642J1628D01*
G01X1851535Y1530539D02*
G03X1851388Y1530567I-147J-372D01*
G01X1842377*
X1841246Y1531036D02*
G03X1842377Y1530567I1131J1131D01*
G01X1841246Y1531036D02*
X1836404Y1535878D01*
G03X1836280Y1535962I-283J-283*
G01X1835227Y1537567D02*
G03X1836280Y1535962I1750J0D01*
G01X1835349Y1538209D02*
G03X1835227Y1537567I1628J-642D01*
G01X1835349Y1538209D02*
G03X1835377Y1538356I-372J147D01*
G01Y1597367*
X1835846Y1598499D02*
G03X1835377Y1597367I1131J-1132D01*
G01X1835846Y1598499D02*
X1836888Y1599541D01*
G03X1836972Y1599664I-283J283*
G01X1840327Y1598967D02*
G03X1836972Y1599664I-1750J0D01*
G01X1840214Y1598348D02*
G03X1840327Y1598967I-1637J619D01*
G01X1840214Y1598348D02*
G03X1840188Y1598207I374J-141D01*
X1840871Y1597924I400J-0*
G01X1842488Y1599541*
G03X1842572Y1599664I-283J283*
G01X1845480Y1600136D02*
G03X1842572Y1599664I-1303J-1169D01*
G01X1845480Y1600136D02*
G03X1845778Y1600003I298J267D01*
G01X1848377*
G03X1848675Y1600136I0J400*
G01X1850804Y1600510D02*
G03X1848675Y1600136I-827J-1543D01*
G01X1850804Y1600510D02*
G03X1851393Y1600862I189J352D01*
X1851381Y1600959I-400J0*
G01X1851329Y1601381D02*
G03X1851381Y1600959I1750J0D01*
G01X1851377Y1601788D02*
G03X1851329Y1601381I1702J-407D01*
G01X1851377Y1601788D02*
G03X1851388Y1601881I-389J93D01*
X1850988Y1602281I-400J0*
G01X1842368*
G03X1842221Y1602253I-0J-400*
G01X1839829Y1603881D02*
G03X1842221Y1602253I1750J0D01*
G01X1839877Y1604288D02*
G03X1839829Y1603881I1702J-407D01*
G01X1839877Y1604288D02*
G03X1839888Y1604381I-389J93D01*
X1839488Y1604781I-400J0*
G01X1836368*
G03X1836221Y1604753I-0J-400*
G01X1833829Y1606381D02*
G03X1836221Y1604753I1750J0D01*
G01Y1608009D02*
G03X1833829Y1606381I-642J-1628D01*
G01X1836221Y1608009D02*
G03X1836368Y1607981I147J372D01*
G01X1863290*
G03X1863437Y1608009I-0J400*
G01X1864721D02*
G03X1863437I-642J-1628D01*
G01X1864721D02*
G03X1864868Y1607981I147J372D01*
G01X1891790*
G03X1891937Y1608009I-0J400*
G01X1894329Y1606381D02*
G03X1891937Y1608009I-1750J0D01*
G01X1894281Y1605974D02*
G03X1894329Y1606381I-1702J407D01*
G01X1894281Y1605974D02*
G03X1894270Y1605881I389J-93D01*
X1894670Y1605481I400J0*
G01X1897790*
G03X1897937Y1605509I-0J400*
G01X1900329Y1603881D02*
G03X1897937Y1605509I-1750J0D01*
G01X1900281Y1603474D02*
G03X1900329Y1603881I-1702J407D01*
G01X1900281Y1603474D02*
G03X1900270Y1603381I389J-93D01*
X1900670Y1602981I400J0*
G01X1908790*
G03X1908937Y1603009I-0J400*
G01X1911329Y1601381D02*
G03X1908937Y1603009I-1750J0D01*
G01X1911281Y1600974D02*
G03X1911329Y1601381I-1702J407D01*
G01X1911281Y1600974D02*
G03X1911270Y1600881I389J-93D01*
X1911670Y1600481I400J0*
G01X1914790*
G03X1914937Y1600509I-0J400*
G01X1917329Y1598881D02*
G03X1914937Y1600509I-1750J0D01*
G01X1869635Y1494978D02*
G03X1869635I-12208J0D01*
G01X1915187Y1622774D02*
G03X1917277Y1624491I340J1717D01*
G01X1915187Y1622774D02*
G03X1915110Y1622781I-77J-393D01*
G01X1911641*
G03X1911241Y1622381I0J-400*
X1911248Y1622309I400J0*
G01X1911277Y1621991D02*
G03X1911248Y1622309I-1750J-0D01*
G01X1909187Y1620274D02*
G03X1911277Y1621991I340J1717D01*
G01X1909187Y1620274D02*
G03X1909110Y1620281I-77J-393D01*
G01X1900670*
G03X1900270Y1619881I0J-400*
X1900281Y1619788I400J0*
G01X1900329Y1619381D02*
G03X1900281Y1619788I-1750J0D01*
G01X1897937Y1617753D02*
G03X1900329Y1619381I642J1628D01*
G01X1897937Y1617753D02*
G03X1897790Y1617781I-147J-372D01*
G01X1894670*
G03X1894270Y1617381I0J-400*
X1894281Y1617288I400J0*
G01X1894329Y1616881D02*
G03X1894281Y1617288I-1750J0D01*
G01X1891937Y1615253D02*
G03X1894329Y1616881I642J1628D01*
G01X1891937Y1615253D02*
G03X1891790Y1615281I-147J-372D01*
G01X1864868*
G03X1864721Y1615253I-0J-400*
G01X1863437D02*
G03X1864721I642J1628D01*
G01X1863437D02*
G03X1863290Y1615281I-147J-372D01*
G01X1836868*
G03X1836721Y1615253I-0J-400*
G01X1834329Y1616881D02*
G03X1836721Y1615253I1750J0D01*
G01Y1618509D02*
G03X1834329Y1616881I-642J-1628D01*
G01X1836721Y1618509D02*
G03X1836868Y1618481I147J372D01*
G01X1839488*
G03X1839888Y1618881I-0J400*
X1839877Y1618974I-400J0*
G01X1839829Y1619381D02*
G03X1839877Y1618974I1750J0D01*
G01X1842221Y1621009D02*
G03X1839829Y1619381I-642J-1628D01*
G01X1842221Y1621009D02*
G03X1842368Y1620981I147J372D01*
G01X1850988*
G03X1851388Y1621381I-0J400*
X1851377Y1621474I-400J0*
G01X1851329Y1621881D02*
G03X1851377Y1621474I1750J0D01*
G01X1853721Y1623509D02*
G03X1851329Y1621881I-642J-1628D01*
G01X1853721Y1623509D02*
G03X1853868Y1623481I147J372D01*
G01X1856488*
G03X1856888Y1623881I-0J400*
X1856877Y1623974I-400J0*
G01X1856829Y1624381D02*
G03X1856877Y1623974I1750J0D01*
G01X1859221Y1626009D02*
G03X1856829Y1624381I-642J-1628D01*
G01X1859221Y1626009D02*
G03X1859368Y1625981I147J372D01*
G01X1886290*
G03X1886437Y1626009I-0J400*
G01X1887721D02*
G03X1886437I-642J-1628D01*
G01X1887721D02*
G03X1887868Y1625981I147J372D01*
G01X1914504*
G03X1914694Y1626030I-0J400*
G01X1917277Y1624491D02*
G03X1914694Y1626030I-1750J-0D01*
G01X2074553Y1494978D02*
G03X2074553I-12208J0D01*
G01X2072055Y1526977D02*
G03X2072055I-4500J0D01*
G01X2062055D02*
G03X2062055I-4500J0D01*
G01X2043543Y1491041D02*
G03X2043543I-3264J0D01*
G01Y1498915D02*
G03X2043543I-3264J0D01*
G01X2052055Y1526977D02*
G03X2052055I-4500J0D01*
G01X2035669Y1491041D02*
G03X2035669I-3264J0D01*
G01Y1498915D02*
G03X2035669I-3264J0D01*
G01X2033055Y1526977D02*
G03X2042055I4500J0D01*
G01X2035580Y1531021D02*
G03X2033055Y1526977I1975J-4044D01*
G01X2035580Y1531021D02*
G03X2035805Y1531380I-175J359D01*
G01Y1547139*
G03X2035755Y1547333I-400J0*
G01X2035504Y1548303D02*
G03X2035755Y1547333I2000J0D01*
G01X2039504Y1548303D02*
G03X2035504I-2000J0D01*
G01X2039338Y1547506D02*
G03X2039504Y1548303I-1834J797D01*
G01X2039338Y1547506D02*
G03X2039305Y1547346I367J-160D01*
G01Y1531380*
G03X2039529Y1531021I400J0*
G01X2042055Y1526977D02*
G03X2039529Y1531021I-4500J0D01*
G01X2046489Y1629619D02*
X2088368D01*
X2046934Y1629259D02*
X2088368D01*
X2047274Y1628899D02*
X2088368D01*
X2047540Y1628539D02*
X2088368D01*
X2047750Y1628179D02*
X2088368D01*
X2047913Y1627819D02*
X2088368D01*
X2048035Y1627459D02*
X2088368D01*
X2048120Y1627099D02*
X2088368D01*
X2048170Y1626739D02*
X2088368D01*
X2048188Y1626379D02*
X2088368D01*
X2048172Y1626019D02*
X2088368D01*
X2048123Y1625659D02*
X2088368D01*
X2048039Y1625299D02*
X2088368D01*
X2047919Y1624939D02*
X2088368D01*
X2047758Y1624579D02*
X2088368D01*
X2047550Y1624219D02*
X2088368D01*
X2074222Y1623859D02*
X2088368D01*
X2074770Y1623499D02*
X2088368D01*
X2075087Y1623139D02*
X2088368D01*
X2075290Y1622779D02*
X2088368D01*
X2075411Y1622419D02*
X2088368D01*
X2075466Y1622059D02*
X2088368D01*
X2075459Y1621699D02*
X2088368D01*
X2075390Y1621339D02*
X2088368D01*
X2075252Y1620979D02*
X2088368D01*
X2075028Y1620619D02*
X2088368D01*
X2074676Y1620259D02*
X2088368D01*
X2074019Y1619899D02*
X2088368D01*
X2048048Y1619539D02*
X2088368D01*
X2048128Y1619179D02*
X2088368D01*
X2048174Y1618819D02*
X2088368D01*
X2048187Y1618459D02*
X2088368D01*
X2048167Y1618099D02*
X2088368D01*
X2048114Y1617739D02*
X2088368D01*
X2048026Y1617379D02*
X2088368D01*
X2047901Y1617019D02*
X2088368D01*
X2047734Y1616659D02*
X2088368D01*
X2047520Y1616299D02*
X2088368D01*
X2047248Y1615939D02*
X2088368D01*
X2046900Y1615579D02*
X2088368D01*
X2046443Y1615219D02*
X2088368D01*
X2045825Y1614859D02*
X2088368D01*
X2045696Y1614499D02*
X2088368D01*
X2046042Y1614139D02*
X2088368D01*
X2046616Y1613779D02*
X2088368D01*
X2047030Y1613419D02*
X2088368D01*
X2047348Y1613059D02*
X2088368D01*
X2047599Y1612699D02*
X2088368D01*
X2047796Y1612339D02*
X2088368D01*
X2047948Y1611979D02*
X2088368D01*
X2048060Y1611619D02*
X2088368D01*
X2048136Y1611259D02*
X2088368D01*
X2048178Y1610899D02*
X2088368D01*
X2048187Y1610539D02*
X2088368D01*
X2048162Y1610179D02*
X2088368D01*
X2048105Y1609819D02*
X2088368D01*
X2048012Y1609459D02*
X2088368D01*
X2047882Y1609099D02*
X2088368D01*
X2047709Y1608739D02*
X2088368D01*
X2047488Y1608379D02*
X2088368D01*
X2074401Y1608019D02*
X2088368D01*
X2074865Y1607659D02*
X2088368D01*
X2075148Y1607299D02*
X2088368D01*
X2075328Y1606939D02*
X2088368D01*
X2075431Y1606579D02*
X2088368D01*
X2075470Y1606219D02*
X2088368D01*
X2075448Y1605859D02*
X2088368D01*
X2075362Y1605499D02*
X2088368D01*
X2075204Y1605139D02*
X2088368D01*
X2074954Y1604779D02*
X2088368D01*
X2074553Y1604419D02*
X2088368D01*
X2073625Y1604059D02*
X2088368D01*
X2016206Y1603699D02*
X2088368D01*
X2016566Y1603339D02*
X2088368D01*
X2016926Y1602979D02*
X2088368D01*
X2017286Y1602619D02*
X2088368D01*
X2017646Y1602259D02*
X2088368D01*
X2018006Y1601899D02*
X2088368D01*
X2018366Y1601539D02*
X2088368D01*
X2018709Y1601179D02*
X2088368D01*
X2018938Y1600819D02*
X2088368D01*
X2019075Y1600459D02*
X2088368D01*
X2019139Y1600099D02*
X2088368D01*
X2019137Y1599739D02*
X2088368D01*
X2019068Y1599379D02*
X2088368D01*
X2018926Y1599019D02*
X2088368D01*
X2018689Y1598659D02*
X2088368D01*
X2018302Y1598299D02*
X2088368D01*
X2017325Y1597939D02*
X2088368D01*
X2004126Y1597579D02*
X2088368D01*
X2003948Y1597219D02*
X2088368D01*
X2003877Y1596859D02*
X2088368D01*
X2003877Y1596499D02*
X2088368D01*
X2003877Y1596139D02*
X2088368D01*
X2003877Y1595779D02*
X2088368D01*
X2003877Y1595419D02*
X2088368D01*
X2003877Y1595059D02*
X2088368D01*
X2003877Y1594699D02*
X2088368D01*
X2003877Y1594339D02*
X2088368D01*
X2003877Y1593979D02*
X2088368D01*
X2003877Y1593619D02*
X2088368D01*
X2003920Y1593259D02*
X2088368D01*
X2004251Y1592899D02*
X2088368D01*
X2004611Y1592539D02*
X2088368D01*
X2011483Y1592179D02*
X2088368D01*
X2012156Y1591819D02*
X2088368D01*
X2012473Y1591459D02*
X2088368D01*
X2012656Y1591099D02*
X2088368D01*
X2012747Y1590739D02*
X2088368D01*
X2012760Y1590379D02*
X2088368D01*
X2012699Y1590019D02*
X2088368D01*
X2012553Y1589659D02*
X2088368D01*
X2012414Y1589299D02*
X2088368D01*
X2012414Y1588939D02*
X2088368D01*
X2012414Y1588579D02*
X2088368D01*
X2012414Y1588219D02*
X2088368D01*
X2012414Y1587859D02*
X2088368D01*
X2012514Y1587499D02*
X2088368D01*
X2016034Y1587139D02*
X2088368D01*
X2016501Y1586779D02*
X2088368D01*
X2016757Y1586419D02*
X2088368D01*
X2016901Y1586059D02*
X2088368D01*
X2017088Y1585699D02*
X2088368D01*
X2017448Y1585339D02*
X2088368D01*
X2017808Y1584979D02*
X2088368D01*
X2018168Y1584619D02*
X2088368D01*
X2018528Y1584259D02*
X2088368D01*
X2018888Y1583899D02*
X2088368D01*
X2019248Y1583539D02*
X2088368D01*
X2019608Y1583179D02*
X2088368D01*
X2019968Y1582819D02*
X2088368D01*
X2020328Y1582459D02*
X2088368D01*
X2020688Y1582099D02*
X2088368D01*
X2021048Y1581739D02*
X2088368D01*
X2021408Y1581379D02*
X2088368D01*
X2021768Y1581019D02*
X2088368D01*
X2022128Y1580659D02*
X2088368D01*
X2082186Y1580299D02*
X2088368D01*
X2083024Y1579939D02*
X2088368D01*
X2083520Y1579579D02*
X2088368D01*
X2083877Y1579219D02*
X2088368D01*
X2084146Y1578859D02*
X2088368D01*
X2084351Y1578499D02*
X2088368D01*
X2084503Y1578139D02*
X2088368D01*
X2084610Y1577779D02*
X2088368D01*
X2084677Y1577419D02*
X2088368D01*
X2084704Y1577059D02*
X2088368D01*
X2084694Y1576699D02*
X2088368D01*
X2084645Y1576339D02*
X2088368D01*
X2084557Y1575979D02*
X2088368D01*
X2084426Y1575619D02*
X2088368D01*
X2084247Y1575259D02*
X2088368D01*
X2084009Y1574899D02*
X2088368D01*
X2083696Y1574539D02*
X2088368D01*
X2083273Y1574179D02*
X2088368D01*
X2082644Y1573819D02*
X2088368D01*
X2075426Y1573459D02*
X2088368D01*
X2076014Y1573099D02*
X2088368D01*
X2076637Y1572739D02*
X2088368D01*
X2076943Y1572379D02*
X2088368D01*
X2077119Y1572019D02*
X2088368D01*
X2077238Y1571659D02*
X2088368D01*
X2077586Y1571299D02*
X2088368D01*
X2077946Y1570939D02*
X2088368D01*
X2078306Y1570579D02*
X2088368D01*
X2078666Y1570219D02*
X2088368D01*
X2081966Y1569859D02*
X2088368D01*
X2082821Y1569499D02*
X2088368D01*
X2083289Y1569139D02*
X2088368D01*
X2083614Y1568779D02*
X2088368D01*
X2083850Y1568419D02*
X2088368D01*
X2084019Y1568059D02*
X2088368D01*
X2084134Y1567699D02*
X2088368D01*
X2084201Y1567339D02*
X2088368D01*
X2084223Y1566979D02*
X2088368D01*
X2084202Y1566619D02*
X2088368D01*
X2084135Y1566259D02*
X2088368D01*
X2084021Y1565899D02*
X2088368D01*
X2083852Y1565539D02*
X2088368D01*
X2083617Y1565179D02*
X2088368D01*
X2083293Y1564819D02*
X2088368D01*
X2082827Y1564459D02*
X2088368D01*
X2081983Y1564099D02*
X2088368D01*
X2080426Y1563739D02*
X2088368D01*
X2080508Y1563379D02*
X2088368D01*
X2080866Y1563019D02*
X2088368D01*
X2081226Y1562659D02*
X2088368D01*
X2081586Y1562299D02*
X2088368D01*
X2081946Y1561939D02*
X2088368D01*
X2082302Y1561579D02*
X2088368D01*
X2082534Y1561219D02*
X2088368D01*
X2082639Y1560859D02*
X2088368D01*
X2082655Y1560499D02*
X2088368D01*
X2082655Y1560139D02*
X2088368D01*
X2082658Y1559779D02*
X2088368D01*
X2082943Y1559419D02*
X2088368D01*
X2083371Y1559059D02*
X2088368D01*
X2083673Y1558699D02*
X2088368D01*
X2083893Y1558339D02*
X2088368D01*
X2084049Y1557979D02*
X2088368D01*
X2084153Y1557619D02*
X2088368D01*
X2084210Y1557259D02*
X2088368D01*
X2084222Y1556899D02*
X2088368D01*
X2084191Y1556539D02*
X2088368D01*
X2084114Y1556179D02*
X2088368D01*
X2083988Y1555819D02*
X2088368D01*
X2083806Y1555459D02*
X2088368D01*
X2083554Y1555099D02*
X2088368D01*
X2083205Y1554739D02*
X2088368D01*
X2082691Y1554379D02*
X2088368D01*
X2081506Y1554019D02*
X2088368D01*
X2076969Y1553659D02*
X2088368D01*
X2076984Y1553299D02*
X2088368D01*
X2077273Y1552939D02*
X2088368D01*
X2077633Y1552579D02*
X2088368D01*
X2077993Y1552219D02*
X2088368D01*
X2078353Y1551859D02*
X2088368D01*
X2078713Y1551499D02*
X2088368D01*
X2079073Y1551139D02*
X2088368D01*
X2079433Y1550779D02*
X2088368D01*
X2079793Y1550419D02*
X2088368D01*
X2080153Y1550059D02*
X2088368D01*
X2082439Y1549699D02*
X2088368D01*
X2083053Y1549339D02*
X2088368D01*
X2083447Y1548979D02*
X2088368D01*
X2083728Y1548619D02*
X2088368D01*
X2083932Y1548259D02*
X2088368D01*
X2084077Y1547899D02*
X2088368D01*
X2084170Y1547539D02*
X2088368D01*
X2084217Y1547179D02*
X2088368D01*
X2084219Y1546819D02*
X2088368D01*
X2084178Y1546459D02*
X2088368D01*
X2084091Y1546099D02*
X2088368D01*
X2083953Y1545739D02*
X2088368D01*
X2083757Y1545379D02*
X2088368D01*
X2083486Y1545019D02*
X2088368D01*
X2083110Y1544659D02*
X2088368D01*
X2082536Y1544299D02*
X2088368D01*
X2039305Y1543939D02*
X2088368D01*
X2039305Y1543579D02*
X2088368D01*
X2039305Y1543219D02*
X2088368D01*
X2039305Y1542859D02*
X2088368D01*
X2039305Y1542499D02*
X2088368D01*
X2039305Y1542139D02*
X2088368D01*
X2039305Y1541779D02*
X2088368D01*
X2039305Y1541419D02*
X2088368D01*
X2039305Y1541059D02*
X2088368D01*
X2039305Y1540699D02*
X2088368D01*
X2039305Y1540339D02*
X2088368D01*
X2039305Y1539979D02*
X2088368D01*
X2039305Y1539619D02*
X2088368D01*
X2039305Y1539259D02*
X2088368D01*
X2039305Y1538899D02*
X2088368D01*
X2039305Y1538539D02*
X2088368D01*
X2039305Y1538179D02*
X2088368D01*
X2039305Y1537819D02*
X2088368D01*
X2039305Y1537459D02*
X2088368D01*
X2039305Y1537099D02*
X2088368D01*
X2039305Y1536739D02*
X2088368D01*
X2039305Y1536379D02*
X2088368D01*
X2039305Y1536019D02*
X2088368D01*
X2039305Y1535659D02*
X2088368D01*
X2039305Y1535299D02*
X2088368D01*
X2039305Y1534939D02*
X2088368D01*
X2039305Y1534579D02*
X2088368D01*
X2039305Y1534219D02*
X2088368D01*
X2039305Y1533859D02*
X2088368D01*
X2039305Y1533499D02*
X2088368D01*
X2039305Y1533139D02*
X2088368D01*
X2039305Y1532779D02*
X2088368D01*
X2039305Y1532419D02*
X2088368D01*
X2039305Y1532059D02*
X2088368D01*
X2039305Y1531699D02*
X2088368D01*
X2068660Y1531339D02*
X2088368D01*
X2069612Y1530979D02*
X2088368D01*
X2070198Y1530619D02*
X2088368D01*
X2070634Y1530259D02*
X2088368D01*
X2070977Y1529899D02*
X2088368D01*
X2071254Y1529539D02*
X2088368D01*
X2071479Y1529179D02*
X2088368D01*
X2071661Y1528819D02*
X2088368D01*
X2071804Y1528459D02*
X2088368D01*
X2071913Y1528099D02*
X2088368D01*
X2071990Y1527739D02*
X2088368D01*
X2072037Y1527379D02*
X2088368D01*
X2072055Y1527019D02*
X2088368D01*
X2072044Y1526659D02*
X2088368D01*
X2072004Y1526299D02*
X2088368D01*
X2071934Y1525939D02*
X2088368D01*
X2071832Y1525579D02*
X2088368D01*
X2071697Y1525219D02*
X2088368D01*
X2071525Y1524859D02*
X2088368D01*
X2071311Y1524499D02*
X2088368D01*
X2071047Y1524139D02*
X2088368D01*
X2070721Y1523779D02*
X2088368D01*
X2070310Y1523419D02*
X2088368D01*
X2069769Y1523059D02*
X2088368D01*
X2068951Y1522699D02*
X2088368D01*
X2027427Y1522339D02*
X2088368D01*
X2027427Y1521979D02*
X2088368D01*
X2027427Y1521619D02*
X2088368D01*
X2027427Y1521259D02*
X2088368D01*
X2027427Y1520899D02*
X2088368D01*
X2027427Y1520539D02*
X2088368D01*
X2027427Y1520179D02*
X2088368D01*
X2027427Y1519819D02*
X2088368D01*
X2027427Y1519459D02*
X2088368D01*
X2027427Y1519099D02*
X2088368D01*
X2027427Y1518739D02*
X2088368D01*
X2027427Y1518379D02*
X2088368D01*
X2027427Y1518019D02*
X2088368D01*
X2027427Y1517659D02*
X2088368D01*
X2027427Y1517299D02*
X2088368D01*
X2027427Y1516939D02*
X2088368D01*
X2027427Y1516579D02*
X2088368D01*
X2027427Y1516219D02*
X2088368D01*
X2027427Y1515859D02*
X2088368D01*
X2027427Y1515499D02*
X2088368D01*
X2027427Y1515139D02*
X2088368D01*
X2027427Y1514779D02*
X2088368D01*
X2027427Y1514419D02*
X2088368D01*
X2027427Y1514059D02*
X2088368D01*
X2027427Y1513699D02*
X2088368D01*
X2027427Y1513339D02*
X2088368D01*
X2027427Y1512979D02*
X2088368D01*
X2027427Y1512619D02*
X2088368D01*
X2027427Y1512259D02*
X2088368D01*
X2027427Y1511899D02*
X2088368D01*
X2027427Y1511539D02*
X2088368D01*
X2027427Y1511179D02*
X2088368D01*
X2027427Y1510819D02*
X2088368D01*
X2027427Y1510459D02*
X2088368D01*
X2027427Y1510099D02*
X2088368D01*
X2027427Y1509739D02*
X2088368D01*
X2027427Y1509379D02*
X2088368D01*
X2027427Y1509019D02*
X2088368D01*
X2027427Y1508659D02*
X2088368D01*
X2027427Y1508299D02*
X2088368D01*
X2027427Y1507939D02*
X2088368D01*
X2027427Y1507579D02*
X2088368D01*
X2027427Y1507219D02*
X2088368D01*
X2065150Y1506859D02*
X2088368D01*
X2066382Y1506499D02*
X2088368D01*
X2067291Y1506139D02*
X2088368D01*
X2068034Y1505779D02*
X2088368D01*
X2068671Y1505419D02*
X2088368D01*
X2069230Y1505059D02*
X2088368D01*
X2069730Y1504699D02*
X2088368D01*
X2070181Y1504339D02*
X2088368D01*
X2070592Y1503979D02*
X2088368D01*
X2070968Y1503619D02*
X2088368D01*
X2071315Y1503259D02*
X2088368D01*
X2071634Y1502899D02*
X2088368D01*
X2071929Y1502539D02*
X2088368D01*
X2072203Y1502179D02*
X2088368D01*
X2072456Y1501819D02*
X2088368D01*
X2072690Y1501459D02*
X2088368D01*
X2072907Y1501099D02*
X2088368D01*
X2073108Y1500739D02*
X2088368D01*
X2073293Y1500379D02*
X2088368D01*
X2073463Y1500019D02*
X2088368D01*
X2073620Y1499659D02*
X2088368D01*
X2073763Y1499299D02*
X2088368D01*
X2073892Y1498939D02*
X2088368D01*
X2074010Y1498579D02*
X2088368D01*
X2074115Y1498219D02*
X2088368D01*
X2074208Y1497859D02*
X2088368D01*
X2074290Y1497499D02*
X2088368D01*
X2074360Y1497139D02*
X2088368D01*
X2074419Y1496779D02*
X2088368D01*
X2074468Y1496419D02*
X2088368D01*
X2074505Y1496059D02*
X2088368D01*
X2074532Y1495699D02*
X2088368D01*
X2074548Y1495339D02*
X2088368D01*
X2074553Y1494979D02*
X2088368D01*
X2074548Y1494619D02*
X2088368D01*
X2074532Y1494259D02*
X2088368D01*
X2074505Y1493899D02*
X2088368D01*
X2074468Y1493539D02*
X2088368D01*
X2074420Y1493179D02*
X2088368D01*
X2074360Y1492819D02*
X2088368D01*
X2074290Y1492459D02*
X2088368D01*
X2074209Y1492099D02*
X2088368D01*
X2074115Y1491739D02*
X2088368D01*
X2074010Y1491379D02*
X2088368D01*
X2073893Y1491019D02*
X2088368D01*
X2073763Y1490659D02*
X2088368D01*
X2073621Y1490299D02*
X2088368D01*
X2073464Y1489939D02*
X2088368D01*
X2073294Y1489579D02*
X2088368D01*
X2073109Y1489219D02*
X2088368D01*
X2072909Y1488859D02*
X2088368D01*
X2072692Y1488499D02*
X2088368D01*
X2072458Y1488139D02*
X2088368D01*
X2072204Y1487779D02*
X2088368D01*
X2071931Y1487419D02*
X2088368D01*
X2071636Y1487059D02*
X2088368D01*
X2071317Y1486699D02*
X2088368D01*
X2070971Y1486339D02*
X2088368D01*
X2070594Y1485979D02*
X2088368D01*
X2070184Y1485619D02*
X2088368D01*
X2069733Y1485259D02*
X2088368D01*
X2069233Y1484899D02*
X2088368D01*
X2068675Y1484539D02*
X2088368D01*
X2068039Y1484179D02*
X2088368D01*
X2067296Y1483819D02*
X2088368D01*
X2066388Y1483459D02*
X2088368D01*
X2065160Y1483099D02*
X2088368D01*
X2027427Y1482739D02*
X2088368D01*
X2027427Y1482379D02*
X2088368D01*
X2027427Y1482019D02*
X2088368D01*
X2027427Y1481659D02*
X2088368D01*
X2027427Y1481299D02*
X2088368D01*
X2027427Y1480939D02*
X2088368D01*
X2027427Y1480579D02*
X2088368D01*
X2027427Y1480219D02*
X2088368D01*
X2027427Y1479859D02*
X2088368D01*
X2027427Y1479499D02*
X2088368D01*
X2027427Y1479139D02*
X2088368D01*
X2027427Y1478779D02*
X2088368D01*
X2027427Y1478419D02*
X2088368D01*
X2027427Y1478059D02*
X2088368D01*
X2027427Y1477699D02*
X2088368D01*
X2027427Y1477339D02*
X2088368D01*
X2027427Y1476979D02*
X2088368D01*
X2027427Y1476619D02*
X2088368D01*
X2027427Y1476259D02*
X2088368D01*
X2027427Y1475899D02*
X2088368D01*
X2027427Y1475539D02*
X2088368D01*
X2027427Y1475179D02*
X2088368D01*
X2027427Y1474819D02*
X2088368D01*
X2027427Y1474459D02*
X2088368D01*
X2027427Y1474099D02*
X2088368D01*
X2027427Y1473739D02*
X2088368D01*
X2027427Y1473379D02*
X2088368D01*
X2027427Y1473019D02*
X2088368D01*
X2027427Y1472659D02*
X2088368D01*
X2027427Y1472299D02*
X2088368D01*
X2027427Y1471939D02*
X2088368D01*
X2027427Y1471579D02*
X2088368D01*
X2027427Y1471219D02*
X2088368D01*
X2027427Y1470859D02*
X2088368D01*
X2027427Y1470499D02*
X2088368D01*
X2027427Y1470139D02*
X2088368D01*
X2027427Y1469779D02*
X2088368D01*
X2027427Y1469419D02*
X2088368D01*
X2027427Y1469059D02*
X2088368D01*
X2027429Y1468699D02*
X2088366D01*
X2045851Y1629979D02*
X2088362D01*
X2018427Y1630339D02*
X2088330D01*
X2018427Y1630699D02*
X2088269D01*
X2018427Y1631059D02*
X2088180D01*
X2018427Y1631419D02*
X2088061D01*
X2018427Y1631779D02*
X2087908D01*
X2018427Y1632139D02*
X2087720D01*
X2018427Y1632499D02*
X2087489D01*
X2018427Y1632859D02*
X2087209D01*
X2018427Y1633219D02*
X2086867D01*
X2018427Y1633579D02*
X2086440D01*
X2018427Y1633939D02*
X2085884D01*
X2018460Y1634299D02*
X2085060D01*
X2076969Y1554019D02*
X2081004D01*
X2079026Y1569859D02*
X2080544D01*
X2039305Y1544299D02*
X2079974D01*
X2076969Y1559779D02*
X2079852D01*
X2076969Y1554379D02*
X2079819D01*
X2076969Y1560139D02*
X2079779D01*
X2079472Y1569499D02*
X2079651D01*
X2076969Y1559419D02*
X2079567D01*
X2077047Y1560499D02*
X2079426D01*
X2039305Y1544659D02*
X2079400D01*
X2076969Y1554739D02*
X2079305D01*
X2076969Y1559059D02*
X2079139D01*
X2077221Y1560859D02*
X2079066D01*
X2039305Y1545019D02*
X2079024D01*
X2076969Y1555099D02*
X2078956D01*
X2076969Y1558699D02*
X2078837D01*
X2039305Y1545379D02*
X2078753D01*
X2077306Y1561219D02*
X2078706D01*
X2076969Y1555459D02*
X2078704D01*
X2076969Y1558339D02*
X2078617D01*
X2039305Y1545739D02*
X2078557D01*
X2076969Y1555819D02*
X2078522D01*
X2076969Y1557979D02*
X2078461D01*
X2039305Y1546099D02*
X2078419D01*
X2076969Y1556179D02*
X2078396D01*
X2076969Y1557619D02*
X2078357D01*
X2077313Y1561579D02*
X2078346D01*
X2039352Y1547539D02*
X2078340D01*
X2039305Y1546459D02*
X2078332D01*
X2039463Y1547899D02*
X2078325D01*
X2076969Y1556539D02*
X2078319D01*
X2076969Y1557259D02*
X2078300D01*
X2039305Y1547179D02*
X2078293D01*
X2039305Y1546819D02*
X2078291D01*
X2076969Y1556899D02*
X2078287D01*
X2039503Y1548259D02*
X2077993D01*
X2077431Y1561939D02*
X2077986D01*
X2039479Y1548619D02*
X2077633D01*
X2039386Y1548979D02*
X2077273D01*
X2022488Y1580299D02*
X2077024D01*
X2039215Y1549339D02*
X2076913D01*
X2075066Y1573819D02*
X2076566D01*
X2038936Y1549699D02*
X2076553D01*
X2038461Y1550059D02*
X2076193D01*
X2022848Y1579939D02*
X2076186D01*
X2074706Y1574179D02*
X2075936D01*
X2027427Y1550419D02*
X2075833D01*
X2023208Y1579579D02*
X2075690D01*
X2074346Y1574539D02*
X2075514D01*
X2027427Y1550779D02*
X2075473D01*
X2023568Y1579219D02*
X2075333D01*
X2073986Y1574899D02*
X2075201D01*
X2027427Y1551139D02*
X2075113D01*
X2023928Y1578859D02*
X2075064D01*
X2073626Y1575259D02*
X2074963D01*
X2024288Y1578499D02*
X2074859D01*
X2073266Y1575619D02*
X2074783D01*
X2027427Y1551499D02*
X2074753D01*
X2024648Y1578139D02*
X2074707D01*
X2072906Y1575979D02*
X2074652D01*
X2071056Y1577779D02*
X2074599D01*
X2072546Y1576339D02*
X2074564D01*
X2071466Y1577419D02*
X2074533D01*
X2072186Y1576699D02*
X2074516D01*
X2071826Y1577059D02*
X2074506D01*
X2027427Y1551859D02*
X2074423D01*
X2027427Y1552219D02*
X2074241D01*
X2027427Y1552579D02*
X2074172D01*
X2027427Y1560139D02*
X2074169D01*
X2027427Y1559779D02*
X2074169D01*
X2027427Y1559419D02*
X2074169D01*
X2027427Y1559059D02*
X2074169D01*
X2027427Y1558699D02*
X2074169D01*
X2027427Y1558339D02*
X2074169D01*
X2027427Y1557979D02*
X2074169D01*
X2027427Y1557619D02*
X2074169D01*
X2027427Y1557259D02*
X2074169D01*
X2027427Y1556899D02*
X2074169D01*
X2027427Y1556539D02*
X2074169D01*
X2027427Y1556179D02*
X2074169D01*
X2027427Y1555819D02*
X2074169D01*
X2027427Y1555459D02*
X2074169D01*
X2027427Y1555099D02*
X2074169D01*
X2027427Y1554739D02*
X2074169D01*
X2027427Y1554379D02*
X2074169D01*
X2027427Y1554019D02*
X2074169D01*
X2027427Y1553659D02*
X2074169D01*
X2027427Y1553299D02*
X2074169D01*
X2027427Y1552939D02*
X2074169D01*
X2027427Y1560499D02*
X2074091D01*
X2027427Y1560859D02*
X2073917D01*
X2027427Y1561219D02*
X2073796D01*
X2027427Y1561579D02*
X2073446D01*
X2027427Y1561939D02*
X2073086D01*
X2015846Y1604059D02*
X2073054D01*
X2027427Y1562299D02*
X2072726D01*
X2047931Y1619899D02*
X2072660D01*
X2047286Y1623859D02*
X2072458D01*
X2027427Y1562659D02*
X2072366D01*
X2047208Y1608019D02*
X2072278D01*
X2015486Y1604419D02*
X2072126D01*
X2027427Y1563019D02*
X2072006D01*
X2047773Y1620259D02*
X2072003D01*
X2046950Y1623499D02*
X2071910D01*
X2046849Y1607659D02*
X2071814D01*
X2015126Y1604779D02*
X2071726D01*
X2047570Y1620619D02*
X2071651D01*
X2027427Y1563379D02*
X2071646D01*
X2046509Y1623139D02*
X2071592D01*
X2046373Y1607299D02*
X2071532D01*
X2014766Y1605139D02*
X2071475D01*
X2047312Y1620979D02*
X2071427D01*
X2045888Y1622779D02*
X2071390D01*
X2045666Y1606939D02*
X2071352D01*
X2014406Y1605499D02*
X2071317D01*
X2046983Y1621339D02*
X2071289D01*
X2027427Y1563739D02*
X2071286D01*
X2045692Y1622419D02*
X2071268D01*
X2013123Y1606579D02*
X2071248D01*
X2014046Y1605859D02*
X2071232D01*
X2046553Y1621699D02*
X2071220D01*
X2045950Y1622059D02*
X2071213D01*
X2013683Y1606219D02*
X2071209D01*
X2027427Y1564099D02*
X2070926D01*
X2027427Y1564459D02*
X2070566D01*
X2027427Y1564819D02*
X2070206D01*
X2027427Y1565179D02*
X2069846D01*
X2027427Y1565539D02*
X2069486D01*
X2027427Y1565899D02*
X2069126D01*
X2027427Y1566259D02*
X2068766D01*
X2027427Y1566619D02*
X2068406D01*
X2027427Y1566979D02*
X2068046D01*
X2027427Y1567339D02*
X2067686D01*
X2027427Y1567699D02*
X2067326D01*
X2027427Y1568059D02*
X2066966D01*
X2027427Y1568419D02*
X2066606D01*
X2058660Y1531339D02*
X2066449D01*
X2027427Y1568779D02*
X2066246D01*
X2058951Y1522699D02*
X2066159D01*
X2027427Y1569139D02*
X2065886D01*
X2027427Y1569499D02*
X2065526D01*
X2059612Y1530979D02*
X2065497D01*
X2059769Y1523059D02*
X2065341D01*
X2027427Y1569859D02*
X2065166D01*
X2060198Y1530619D02*
X2064912D01*
X2060310Y1523419D02*
X2064800D01*
X2027595Y1570219D02*
X2064798D01*
X2060634Y1530259D02*
X2064476D01*
X2060721Y1523779D02*
X2064389D01*
X2060977Y1529899D02*
X2064133D01*
X2061047Y1524139D02*
X2064063D01*
X2061254Y1529539D02*
X2063856D01*
X2061311Y1524499D02*
X2063799D01*
X2061479Y1529179D02*
X2063631D01*
X2061525Y1524859D02*
X2063584D01*
X2061661Y1528819D02*
X2063449D01*
X2061697Y1525219D02*
X2063412D01*
X2061804Y1528459D02*
X2063306D01*
X2061832Y1525579D02*
X2063278D01*
X2061913Y1528099D02*
X2063197D01*
X2061934Y1525939D02*
X2063176D01*
X2061990Y1527739D02*
X2063120D01*
X2062004Y1526299D02*
X2063106D01*
X2062037Y1527379D02*
X2063073D01*
X2062044Y1526659D02*
X2063066D01*
X2062055Y1527019D02*
X2063055D01*
X2027427Y1506859D02*
X2059540D01*
X2027427Y1483099D02*
X2059530D01*
X2027427Y1506499D02*
X2058308D01*
X2027427Y1483459D02*
X2058302D01*
X2027427Y1506139D02*
X2057399D01*
X2027427Y1483819D02*
X2057394D01*
X2027427Y1505779D02*
X2056656D01*
X2027427Y1484179D02*
X2056651D01*
X2048660Y1531339D02*
X2056449D01*
X2048951Y1522699D02*
X2056159D01*
X2027427Y1505419D02*
X2056019D01*
X2027427Y1484539D02*
X2056015D01*
X2049612Y1530979D02*
X2055497D01*
X2027427Y1505059D02*
X2055460D01*
X2027427Y1484899D02*
X2055457D01*
X2049769Y1523059D02*
X2055341D01*
X2027427Y1504699D02*
X2054960D01*
X2027427Y1485259D02*
X2054957D01*
X2050198Y1530619D02*
X2054912D01*
X2050310Y1523419D02*
X2054800D01*
X2027427Y1504339D02*
X2054509D01*
X2027427Y1485619D02*
X2054506D01*
X2050634Y1530259D02*
X2054476D01*
X2050721Y1523779D02*
X2054389D01*
X2050977Y1529899D02*
X2054133D01*
X2027427Y1503979D02*
X2054098D01*
X2027427Y1485979D02*
X2054096D01*
X2051047Y1524139D02*
X2054063D01*
X2051254Y1529539D02*
X2053856D01*
X2051311Y1524499D02*
X2053799D01*
X2027427Y1503619D02*
X2053722D01*
X2027427Y1486339D02*
X2053719D01*
X2051479Y1529179D02*
X2053631D01*
X2051525Y1524859D02*
X2053584D01*
X2051661Y1528819D02*
X2053449D01*
X2051697Y1525219D02*
X2053412D01*
X2027427Y1503259D02*
X2053375D01*
X2027427Y1486699D02*
X2053373D01*
X2051804Y1528459D02*
X2053306D01*
X2051832Y1525579D02*
X2053278D01*
X2051913Y1528099D02*
X2053197D01*
X2051934Y1525939D02*
X2053176D01*
X2051990Y1527739D02*
X2053120D01*
X2052004Y1526299D02*
X2053106D01*
X2052037Y1527379D02*
X2053073D01*
X2052044Y1526659D02*
X2053066D01*
X2027427Y1502899D02*
X2053056D01*
X2052055Y1527019D02*
X2053055D01*
X2027427Y1487059D02*
X2053054D01*
X2027427Y1502539D02*
X2052761D01*
X2027427Y1487419D02*
X2052759D01*
X2027427Y1502179D02*
X2052487D01*
X2040391Y1487779D02*
X2052485D01*
X2041768Y1501819D02*
X2052234D01*
X2041773Y1488139D02*
X2052232D01*
X2042323Y1501459D02*
X2052000D01*
X2042326Y1488499D02*
X2051998D01*
X2042704Y1501099D02*
X2051783D01*
X2042706Y1488859D02*
X2051781D01*
X2042985Y1500739D02*
X2051582D01*
X2042987Y1489219D02*
X2051581D01*
X2043196Y1500379D02*
X2051397D01*
X2043197Y1489579D02*
X2051396D01*
X2043350Y1500019D02*
X2051227D01*
X2043351Y1489939D02*
X2051225D01*
X2043457Y1499659D02*
X2051070D01*
X2043457Y1490299D02*
X2051069D01*
X2043520Y1499299D02*
X2050927D01*
X2043520Y1490659D02*
X2050927D01*
X2043543Y1498939D02*
X2050798D01*
X2043543Y1491019D02*
X2050797D01*
X2043525Y1498579D02*
X2050680D01*
X2043525Y1491379D02*
X2050680D01*
X2043468Y1498219D02*
X2050575D01*
X2043467Y1491739D02*
X2050575D01*
X2043367Y1497859D02*
X2050482D01*
X2043366Y1492099D02*
X2050481D01*
X2043220Y1497499D02*
X2050400D01*
X2043219Y1492459D02*
X2050400D01*
X2043017Y1497139D02*
X2050330D01*
X2043016Y1492819D02*
X2050329D01*
X2042747Y1496779D02*
X2050271D01*
X2042745Y1493179D02*
X2050270D01*
X2042382Y1496419D02*
X2050222D01*
X2042379Y1493539D02*
X2050222D01*
X2041859Y1496059D02*
X2050185D01*
X2041855Y1493899D02*
X2050185D01*
X2040836Y1495699D02*
X2050158D01*
X2040823Y1494259D02*
X2050158D01*
X2027427Y1495339D02*
X2050142D01*
X2027427Y1494619D02*
X2050142D01*
X2027427Y1494979D02*
X2050137D01*
X2039307Y1531339D02*
X2046449D01*
X2038951Y1522699D02*
X2046159D01*
X2039612Y1530979D02*
X2045497D01*
X2039769Y1523059D02*
X2045341D01*
X2040198Y1530619D02*
X2044912D01*
X2040310Y1523419D02*
X2044800D01*
X2040634Y1530259D02*
X2044476D01*
X2040721Y1523779D02*
X2044389D01*
X2040977Y1529899D02*
X2044133D01*
X2041047Y1524139D02*
X2044063D01*
X2041254Y1529539D02*
X2043856D01*
X2041311Y1524499D02*
X2043799D01*
X2041479Y1529179D02*
X2043631D01*
X2041525Y1524859D02*
X2043584D01*
X2041661Y1528819D02*
X2043449D01*
X2041697Y1525219D02*
X2043412D01*
X2041804Y1528459D02*
X2043306D01*
X2041832Y1525579D02*
X2043278D01*
X2041913Y1528099D02*
X2043197D01*
X2041934Y1525939D02*
X2043176D01*
X2041990Y1527739D02*
X2043120D01*
X2042004Y1526299D02*
X2043106D01*
X2042037Y1527379D02*
X2043073D01*
X2042044Y1526659D02*
X2043066D01*
X2042055Y1527019D02*
X2043055D01*
X2027949Y1606939D02*
X2042804D01*
X2027975Y1622419D02*
X2042778D01*
X2028134Y1629979D02*
X2042619D01*
X2028171Y1622779D02*
X2042582D01*
X2028233Y1622059D02*
X2042520D01*
X2028656Y1607299D02*
X2042097D01*
X2028772Y1629619D02*
X2041981D01*
X2028793Y1623139D02*
X2041960D01*
X2028837Y1621699D02*
X2041916D01*
X2029133Y1607659D02*
X2041620D01*
X2029218Y1629259D02*
X2041535D01*
X2029233Y1623499D02*
X2041520D01*
X2029266Y1621339D02*
X2041487D01*
X2029491Y1608019D02*
X2041262D01*
X2029558Y1628899D02*
X2041195D01*
X2029570Y1623859D02*
X2041183D01*
X2029595Y1620979D02*
X2041158D01*
X2029772Y1608379D02*
X2040981D01*
X2029824Y1628539D02*
X2040929D01*
X2029833Y1624219D02*
X2040920D01*
X2029863Y1620619D02*
X2040890D01*
X2030034Y1628179D02*
X2040719D01*
X2030041Y1624579D02*
X2040712D01*
X2030197Y1627819D02*
X2040556D01*
X2030202Y1624939D02*
X2040551D01*
X2030319Y1627459D02*
X2040434D01*
X2030323Y1625299D02*
X2040430D01*
X2030404Y1627099D02*
X2040349D01*
X2030406Y1625659D02*
X2040347D01*
X2030454Y1626739D02*
X2040299D01*
X2030455Y1626019D02*
X2040298D01*
X2030471Y1626379D02*
X2040282D01*
X2032517Y1487779D02*
X2040167D01*
X2032949Y1494259D02*
X2039735D01*
X2032962Y1495699D02*
X2039722D01*
X2033894Y1501819D02*
X2038789D01*
X2033899Y1488139D02*
X2038785D01*
X2033981Y1493899D02*
X2038703D01*
X2033985Y1496059D02*
X2038699D01*
X2034449Y1501459D02*
X2038234D01*
X2034452Y1488499D02*
X2038232D01*
X2034505Y1493539D02*
X2038179D01*
X2034508Y1496419D02*
X2038176D01*
X2034830Y1501099D02*
X2037854D01*
X2034832Y1488859D02*
X2037852D01*
X2034871Y1493179D02*
X2037813D01*
X2034873Y1496779D02*
X2037811D01*
X2035111Y1500739D02*
X2037572D01*
X2035113Y1489219D02*
X2037571D01*
X2035142Y1492819D02*
X2037542D01*
X2035143Y1497139D02*
X2037541D01*
X2035322Y1500379D02*
X2037362D01*
X2035323Y1489579D02*
X2037361D01*
X2035345Y1492459D02*
X2037339D01*
X2035346Y1497499D02*
X2037338D01*
X2035476Y1500019D02*
X2037208D01*
X2035477Y1489939D02*
X2037207D01*
X2035492Y1492099D02*
X2037191D01*
X2035493Y1497859D02*
X2037191D01*
X2035583Y1499659D02*
X2037101D01*
X2035583Y1490299D02*
X2037101D01*
X2035593Y1491739D02*
X2037091D01*
X2035594Y1498219D02*
X2037090D01*
X2035646Y1499299D02*
X2037038D01*
X2035646Y1490659D02*
X2037038D01*
X2035651Y1491379D02*
X2037033D01*
X2035651Y1498579D02*
X2037032D01*
X2035669Y1498939D02*
X2037015D01*
X2035669Y1491019D02*
X2037015D01*
X2027427Y1550059D02*
X2036547D01*
X2027427Y1522699D02*
X2036159D01*
X2027427Y1549699D02*
X2036072D01*
X2027427Y1546819D02*
X2035805D01*
X2027427Y1546459D02*
X2035805D01*
X2027427Y1546099D02*
X2035805D01*
X2027427Y1545739D02*
X2035805D01*
X2027427Y1545379D02*
X2035805D01*
X2027427Y1545019D02*
X2035805D01*
X2027427Y1544659D02*
X2035805D01*
X2027427Y1544299D02*
X2035805D01*
X2027427Y1543939D02*
X2035805D01*
X2027427Y1543579D02*
X2035805D01*
X2027427Y1543219D02*
X2035805D01*
X2027427Y1542859D02*
X2035805D01*
X2027427Y1542499D02*
X2035805D01*
X2027427Y1542139D02*
X2035805D01*
X2027427Y1541779D02*
X2035805D01*
X2027427Y1541419D02*
X2035805D01*
X2027427Y1541059D02*
X2035805D01*
X2027427Y1540699D02*
X2035805D01*
X2027427Y1540339D02*
X2035805D01*
X2027427Y1539979D02*
X2035805D01*
X2027427Y1539619D02*
X2035805D01*
X2027427Y1539259D02*
X2035805D01*
X2027427Y1538899D02*
X2035805D01*
X2027427Y1538539D02*
X2035805D01*
X2027427Y1538179D02*
X2035805D01*
X2027427Y1537819D02*
X2035805D01*
X2027427Y1537459D02*
X2035805D01*
X2027427Y1537099D02*
X2035805D01*
X2027427Y1536739D02*
X2035805D01*
X2027427Y1536379D02*
X2035805D01*
X2027427Y1536019D02*
X2035805D01*
X2027427Y1535659D02*
X2035805D01*
X2027427Y1535299D02*
X2035805D01*
X2027427Y1534939D02*
X2035805D01*
X2027427Y1534579D02*
X2035805D01*
X2027427Y1534219D02*
X2035805D01*
X2027427Y1533859D02*
X2035805D01*
X2027427Y1533499D02*
X2035805D01*
X2027427Y1533139D02*
X2035805D01*
X2027427Y1532779D02*
X2035805D01*
X2027427Y1532419D02*
X2035805D01*
X2027427Y1532059D02*
X2035805D01*
X2027427Y1531699D02*
X2035805D01*
X2027427Y1547179D02*
X2035803D01*
X2027427Y1531339D02*
X2035803D01*
X2027427Y1549339D02*
X2035793D01*
X2027427Y1547539D02*
X2035656D01*
X2027427Y1548979D02*
X2035622D01*
X2027427Y1547899D02*
X2035545D01*
X2027427Y1548619D02*
X2035529D01*
X2027427Y1548259D02*
X2035504D01*
X2027427Y1530979D02*
X2035497D01*
X2027427Y1523059D02*
X2035341D01*
X2027427Y1530619D02*
X2034912D01*
X2027427Y1523419D02*
X2034800D01*
X2027427Y1530259D02*
X2034476D01*
X2027427Y1523779D02*
X2034389D01*
X2027427Y1529899D02*
X2034133D01*
X2027427Y1524139D02*
X2034063D01*
X2027427Y1529539D02*
X2033856D01*
X2027427Y1524499D02*
X2033799D01*
X2027427Y1529179D02*
X2033631D01*
X2027427Y1524859D02*
X2033584D01*
X2027427Y1528819D02*
X2033449D01*
X2027427Y1525219D02*
X2033412D01*
X2027427Y1528459D02*
X2033306D01*
X2027427Y1525579D02*
X2033278D01*
X2027427Y1528099D02*
X2033197D01*
X2027427Y1525939D02*
X2033176D01*
X2027427Y1527739D02*
X2033120D01*
X2027427Y1526299D02*
X2033106D01*
X2027427Y1527379D02*
X2033073D01*
X2027427Y1526659D02*
X2033066D01*
X2027427Y1527019D02*
X2033055D01*
X2027427Y1487779D02*
X2032293D01*
X2027427Y1494259D02*
X2031861D01*
X2027427Y1495699D02*
X2031848D01*
X2027427Y1501819D02*
X2030915D01*
X2027427Y1488139D02*
X2030911D01*
X2027427Y1493899D02*
X2030829D01*
X2027427Y1496059D02*
X2030825D01*
X2027427Y1501459D02*
X2030360D01*
X2027427Y1488499D02*
X2030358D01*
X2027427Y1493539D02*
X2030305D01*
X2027427Y1496419D02*
X2030302D01*
X2027427Y1501099D02*
X2029980D01*
X2027427Y1488859D02*
X2029978D01*
X2027427Y1493179D02*
X2029939D01*
X2027427Y1496779D02*
X2029937D01*
X2027427Y1500739D02*
X2029698D01*
X2027427Y1489219D02*
X2029697D01*
X2027427Y1492819D02*
X2029668D01*
X2027427Y1497139D02*
X2029667D01*
X2027451Y1500379D02*
X2029488D01*
X2027452Y1489579D02*
X2029487D01*
X2027471Y1492459D02*
X2029465D01*
X2027472Y1497499D02*
X2029464D01*
X2027602Y1500019D02*
X2029334D01*
X2027603Y1489939D02*
X2029333D01*
X2027618Y1492099D02*
X2029317D01*
X2027619Y1497859D02*
X2029317D01*
X2027709Y1499659D02*
X2029227D01*
X2027709Y1490299D02*
X2029227D01*
X2027719Y1491739D02*
X2029217D01*
X2027720Y1498219D02*
X2029216D01*
X2027772Y1499299D02*
X2029164D01*
X2027772Y1490659D02*
X2029164D01*
X2027777Y1491379D02*
X2029159D01*
X2027777Y1498579D02*
X2029158D01*
X2027795Y1498939D02*
X2029141D01*
X2027795Y1491019D02*
X2029141D01*
X2012635Y1606939D02*
X2025087D01*
X2018427Y1622419D02*
X2025061D01*
X2018427Y1614499D02*
X2025057D01*
X2018427Y1614859D02*
X2024928D01*
X2018427Y1629979D02*
X2024902D01*
X2018427Y1622779D02*
X2024865D01*
X2018427Y1622059D02*
X2024803D01*
X2018427Y1614139D02*
X2024711D01*
X2012717Y1607299D02*
X2024380D01*
X2018427Y1615219D02*
X2024310D01*
X2018427Y1629619D02*
X2024264D01*
X2018427Y1623139D02*
X2024244D01*
X2018427Y1621699D02*
X2024200D01*
X2018427Y1613779D02*
X2024137D01*
X2018427Y1607659D02*
X2023904D01*
X2018427Y1615579D02*
X2023853D01*
X2018427Y1629259D02*
X2023819D01*
X2018427Y1623499D02*
X2023803D01*
X2018427Y1621339D02*
X2023770D01*
X2018427Y1613419D02*
X2023723D01*
X2018427Y1608019D02*
X2023545D01*
X2018427Y1615939D02*
X2023505D01*
X2018427Y1628899D02*
X2023479D01*
X2018427Y1623859D02*
X2023467D01*
X2018427Y1620979D02*
X2023441D01*
X2018427Y1613059D02*
X2023405D01*
X2018427Y1608379D02*
X2023265D01*
X2018427Y1616299D02*
X2023233D01*
X2018427Y1628539D02*
X2023213D01*
X2018427Y1624219D02*
X2023203D01*
X2018427Y1620619D02*
X2023183D01*
X2018427Y1612699D02*
X2023154D01*
X2018427Y1608739D02*
X2023044D01*
X2018427Y1616659D02*
X2023019D01*
X2018427Y1628179D02*
X2023003D01*
X2018427Y1624579D02*
X2022995D01*
X2018427Y1620259D02*
X2022980D01*
X2018427Y1612339D02*
X2022957D01*
X2018427Y1609099D02*
X2022871D01*
X2018427Y1617019D02*
X2022852D01*
X2018427Y1627819D02*
X2022840D01*
X2018427Y1624939D02*
X2022834D01*
X2018427Y1619899D02*
X2022822D01*
X2018427Y1611979D02*
X2022805D01*
X2018427Y1609459D02*
X2022741D01*
X2018427Y1617379D02*
X2022727D01*
X2018427Y1627459D02*
X2022718D01*
X2018427Y1625299D02*
X2022714D01*
X2018427Y1619539D02*
X2022705D01*
X2018427Y1611619D02*
X2022693D01*
X2018427Y1609819D02*
X2022648D01*
X2018427Y1617739D02*
X2022639D01*
X2018427Y1627099D02*
X2022633D01*
X2018427Y1625659D02*
X2022630D01*
X2018427Y1619179D02*
X2022625D01*
X2018427Y1611259D02*
X2022617D01*
X2018427Y1610179D02*
X2022591D01*
X2018427Y1618099D02*
X2022586D01*
X2018427Y1626739D02*
X2022583D01*
X2018427Y1626019D02*
X2022581D01*
X2018427Y1618819D02*
X2022579D01*
X2018427Y1610899D02*
X2022575D01*
X2018427Y1610539D02*
X2022566D01*
X2018427Y1618459D02*
X2022566D01*
X2018427Y1626379D02*
X2022565D01*
X2004212Y1597939D02*
X2016967D01*
X2004222Y1598299D02*
X2015990D01*
X2004157Y1598659D02*
X2015589D01*
X2004006Y1599019D02*
X2015229D01*
X2003740Y1599379D02*
X2014869D01*
X2003246Y1599739D02*
X2014509D01*
X2012873Y1587139D02*
X2014394D01*
X1916836Y1600099D02*
X2014149D01*
X2013233Y1586779D02*
X2013927D01*
X1922368Y1600459D02*
X2013789D01*
X1922808Y1600819D02*
X2013429D01*
X1923168Y1601179D02*
X2013069D01*
X1923528Y1601539D02*
X2012709D01*
X1923888Y1601899D02*
X2012349D01*
X1924248Y1602259D02*
X2011989D01*
X1924608Y1602619D02*
X2011629D01*
X1943458Y1582459D02*
X2010656D01*
X1992744Y1582099D02*
X2010579D01*
X2004971Y1592179D02*
X2010546D01*
X1943818Y1582819D02*
X2010371D01*
X1944178Y1583179D02*
X2010011D01*
X2005331Y1591819D02*
X2009872D01*
X1944538Y1583539D02*
X2009651D01*
X2007851Y1589299D02*
X2009614D01*
X2008211Y1588939D02*
X2009614D01*
X2008571Y1588579D02*
X2009614D01*
X2005691Y1591459D02*
X2009555D01*
X2008931Y1588219D02*
X2009497D01*
X2007491Y1589659D02*
X2009476D01*
X2006051Y1591099D02*
X2009372D01*
X2007131Y1590019D02*
X2009330D01*
X1944898Y1583899D02*
X2009291D01*
X2006411Y1590739D02*
X2009282D01*
X2006771Y1590379D02*
X2009268D01*
X1945198Y1584259D02*
X2008931D01*
X1945349Y1584619D02*
X2008571D01*
X1945396Y1584979D02*
X2008211D01*
X1945396Y1585339D02*
X2007851D01*
X1945396Y1585699D02*
X2007491D01*
X1945396Y1586059D02*
X2007131D01*
X1945431Y1586419D02*
X2006771D01*
X1945620Y1586779D02*
X2006411D01*
X1945721Y1587139D02*
X2006051D01*
X1945744Y1587499D02*
X2005691D01*
X1945693Y1587859D02*
X2005331D01*
X1945558Y1588219D02*
X2004971D01*
X1945317Y1588579D02*
X2004611D01*
X1944884Y1588939D02*
X2004251D01*
X1943761Y1589299D02*
X2003891D01*
X1943587Y1589659D02*
X2003531D01*
X1943366Y1590019D02*
X2003171D01*
X1942988Y1590379D02*
X2002811D01*
X1942876Y1590739D02*
X2002451D01*
X1943118Y1591099D02*
X2002091D01*
X1943312Y1591459D02*
X2001731D01*
X1917104Y1599739D02*
X2001708D01*
X1943391Y1591819D02*
X2001383D01*
X1917257Y1599379D02*
X2001215D01*
X1943396Y1592179D02*
X2001175D01*
X1943396Y1592539D02*
X2001086D01*
X1943650Y1596859D02*
X2001077D01*
X1943477Y1596499D02*
X2001077D01*
X1943396Y1596139D02*
X2001077D01*
X1943396Y1595779D02*
X2001077D01*
X1943396Y1595419D02*
X2001077D01*
X1943396Y1595059D02*
X2001077D01*
X1943396Y1594699D02*
X2001077D01*
X1943396Y1594339D02*
X2001077D01*
X1943396Y1593979D02*
X2001077D01*
X1943396Y1593619D02*
X2001077D01*
X1943396Y1593259D02*
X2001077D01*
X1943396Y1592899D02*
X2001077D01*
X1943733Y1597219D02*
X2001006D01*
X1942731Y1599019D02*
X2000949D01*
X1943740Y1597579D02*
X2000829D01*
X1943243Y1598659D02*
X2000798D01*
X1943670Y1597939D02*
X2000742D01*
X1943515Y1598299D02*
X2000732D01*
X1943098Y1582099D02*
X1991710D01*
X1943295Y1578499D02*
X1990999D01*
X1942754Y1581739D02*
X1990991D01*
X1943269Y1578139D02*
X1990925D01*
X1943541Y1578859D02*
X1990714D01*
X1942723Y1581379D02*
X1990636D01*
X1943684Y1579219D02*
X1990466D01*
X1943124Y1581019D02*
X1990418D01*
X1943743Y1579579D02*
X1990316D01*
X1943447Y1580659D02*
X1990289D01*
X1943727Y1579939D02*
X1990240D01*
X1943633Y1580299D02*
X1990232D01*
X1945131Y1577779D02*
X1982027D01*
X1945687Y1577419D02*
X1982027D01*
X1955427Y1577059D02*
X1982027D01*
X1955427Y1576699D02*
X1982027D01*
X1955427Y1576339D02*
X1982027D01*
X1955427Y1575979D02*
X1982027D01*
X1955427Y1575619D02*
X1982027D01*
X1955427Y1575259D02*
X1982027D01*
X1955427Y1574899D02*
X1982027D01*
X1955427Y1574539D02*
X1982027D01*
X1955427Y1574179D02*
X1982027D01*
X1955427Y1573819D02*
X1982027D01*
X1955427Y1573459D02*
X1982027D01*
X1955427Y1573099D02*
X1982027D01*
X1955427Y1572739D02*
X1982027D01*
X1955427Y1572379D02*
X1982027D01*
X1955427Y1572019D02*
X1982027D01*
X1955427Y1571659D02*
X1982027D01*
X1955427Y1571299D02*
X1982027D01*
X1955427Y1570939D02*
X1982027D01*
X1955427Y1570579D02*
X1982027D01*
X1955427Y1570219D02*
X1982027D01*
X1955427Y1569859D02*
X1982027D01*
X1955427Y1569499D02*
X1982027D01*
X1955427Y1569139D02*
X1982027D01*
X1955427Y1568779D02*
X1982027D01*
X1955427Y1568419D02*
X1982027D01*
X1955427Y1568059D02*
X1982027D01*
X1955427Y1567699D02*
X1982027D01*
X1955427Y1567339D02*
X1982027D01*
X1955427Y1566979D02*
X1982027D01*
X1955427Y1566619D02*
X1982027D01*
X1955427Y1566259D02*
X1982027D01*
X1955427Y1565899D02*
X1982027D01*
X1955427Y1565539D02*
X1982027D01*
X1955427Y1565179D02*
X1982027D01*
X1955427Y1564819D02*
X1982027D01*
X1955427Y1564459D02*
X1982027D01*
X1955427Y1564099D02*
X1982027D01*
X1955427Y1563739D02*
X1982027D01*
X1955427Y1563379D02*
X1982027D01*
X1955433Y1563019D02*
X1982021D01*
X1917324Y1599019D02*
X1941260D01*
X1917315Y1598659D02*
X1940749D01*
X1855012Y1596139D02*
X1940596D01*
X1854652Y1595779D02*
X1940596D01*
X1854292Y1595419D02*
X1940596D01*
X1853932Y1595059D02*
X1940596D01*
X1853572Y1594699D02*
X1940596D01*
X1853212Y1594339D02*
X1940596D01*
X1852852Y1593979D02*
X1940596D01*
X1852492Y1593619D02*
X1940596D01*
X1852132Y1593259D02*
X1940596D01*
X1851772Y1592899D02*
X1940596D01*
X1851412Y1592539D02*
X1940570D01*
X1855372Y1596499D02*
X1940515D01*
X1917229Y1598299D02*
X1940476D01*
X1855732Y1596859D02*
X1940342D01*
X1917054Y1597939D02*
X1940321D01*
X1851052Y1592179D02*
X1940259D01*
X1916127Y1597219D02*
X1940259D01*
X1916748Y1597579D02*
X1940252D01*
X1850692Y1591819D02*
X1939899D01*
X1850332Y1591459D02*
X1939539D01*
X1849972Y1591099D02*
X1939179D01*
X1849710Y1590739D02*
X1938819D01*
X1849822Y1590379D02*
X1938459D01*
X1930756Y1590019D02*
X1938079D01*
X1850727Y1579939D02*
X1929837D01*
X1850734Y1579579D02*
X1929741D01*
X1852737Y1579219D02*
X1929444D01*
X1853285Y1578859D02*
X1929272D01*
X1850727Y1580299D02*
X1929265D01*
X1853592Y1578499D02*
X1929189D01*
X1853782Y1578139D02*
X1929183D01*
X1926422Y1577779D02*
X1928981D01*
X1859047Y1586059D02*
X1928930D01*
X1859055Y1586779D02*
X1928901D01*
X1858825Y1586419D02*
X1928878D01*
X1859712Y1585699D02*
X1928809D01*
X1862954Y1590019D02*
X1928800D01*
X1862989Y1587139D02*
X1928764D01*
X1850727Y1580659D02*
X1928612D01*
X1860033Y1585339D02*
X1928413D01*
X1863345Y1589659D02*
X1928410D01*
X1863364Y1587499D02*
X1928391D01*
X1859862Y1583179D02*
X1928324D01*
X1850727Y1581019D02*
X1928299D01*
X1859394Y1582819D02*
X1928230D01*
X1863567Y1589299D02*
X1928188D01*
X1860217Y1584979D02*
X1928184D01*
X1863578Y1587859D02*
X1928177D01*
X1860119Y1583539D02*
X1928155D01*
X1850807Y1581379D02*
X1928119D01*
X1851882Y1582459D02*
X1928082D01*
X1863687Y1588939D02*
X1928067D01*
X1863692Y1588219D02*
X1928062D01*
X1860309Y1584619D02*
X1928059D01*
X1860264Y1583899D02*
X1928045D01*
X1851162Y1581739D02*
X1928030D01*
X1863727Y1588579D02*
X1928027D01*
X1851522Y1582099D02*
X1928018D01*
X1860324Y1584259D02*
X1928014D01*
X1853889Y1577779D02*
X1924632D01*
X1853946Y1577419D02*
X1924088D01*
X1894238Y1606939D02*
X1923732D01*
X1894069Y1607299D02*
X1923691D01*
X1832044Y1633939D02*
X1923527D01*
X1831806Y1633579D02*
X1923527D01*
X1831675Y1633219D02*
X1923527D01*
X1831628Y1632859D02*
X1923527D01*
X1831627Y1632499D02*
X1923527D01*
X1831627Y1632139D02*
X1923527D01*
X1831627Y1631779D02*
X1923527D01*
X1831627Y1631419D02*
X1923527D01*
X1831627Y1631059D02*
X1923527D01*
X1831627Y1630699D02*
X1923527D01*
X1831627Y1630339D02*
X1923527D01*
X1831627Y1629979D02*
X1923527D01*
X1831627Y1629619D02*
X1923527D01*
X1831627Y1629259D02*
X1923527D01*
X1831627Y1628899D02*
X1923527D01*
X1831627Y1628539D02*
X1923527D01*
X1831627Y1628179D02*
X1923527D01*
X1831627Y1627819D02*
X1923527D01*
X1831627Y1627459D02*
X1923527D01*
X1831627Y1627099D02*
X1923527D01*
X1831627Y1626739D02*
X1923527D01*
X1831627Y1626379D02*
X1923527D01*
X1916379Y1626019D02*
X1923527D01*
X1916830Y1625659D02*
X1923527D01*
X1917079Y1625299D02*
X1923527D01*
X1917218Y1624939D02*
X1923527D01*
X1917275Y1624579D02*
X1923527D01*
X1917256Y1624219D02*
X1923527D01*
X1917159Y1623859D02*
X1923527D01*
X1916969Y1623499D02*
X1923527D01*
X1916639Y1623139D02*
X1923527D01*
X1915893Y1622779D02*
X1923527D01*
X1911243Y1622419D02*
X1923527D01*
X1911276Y1622059D02*
X1923527D01*
X1911253Y1621699D02*
X1923527D01*
X1911151Y1621339D02*
X1923527D01*
X1910955Y1620979D02*
X1923527D01*
X1910614Y1620619D02*
X1923527D01*
X1909782Y1620259D02*
X1923527D01*
X1900270Y1619899D02*
X1923527D01*
X1900322Y1619539D02*
X1923527D01*
X1900317Y1619179D02*
X1923527D01*
X1900236Y1618819D02*
X1923527D01*
X1900066Y1618459D02*
X1923527D01*
X1899770Y1618099D02*
X1923527D01*
X1899184Y1617739D02*
X1923527D01*
X1894270Y1617379D02*
X1923527D01*
X1894324Y1617019D02*
X1923527D01*
X1894315Y1616659D02*
X1923527D01*
X1894229Y1616299D02*
X1923527D01*
X1894054Y1615939D02*
X1923527D01*
X1893748Y1615579D02*
X1923527D01*
X1893127Y1615219D02*
X1923527D01*
X1831627Y1614859D02*
X1923527D01*
X1831627Y1614499D02*
X1923527D01*
X1831627Y1614139D02*
X1923527D01*
X1831627Y1613779D02*
X1923527D01*
X1831627Y1613419D02*
X1923527D01*
X1831627Y1613059D02*
X1923527D01*
X1831627Y1612699D02*
X1923527D01*
X1831627Y1612339D02*
X1923527D01*
X1831627Y1611979D02*
X1923527D01*
X1831627Y1611619D02*
X1923527D01*
X1831627Y1611259D02*
X1923527D01*
X1831627Y1610899D02*
X1923527D01*
X1831627Y1610539D02*
X1923527D01*
X1831627Y1610179D02*
X1923527D01*
X1831627Y1609819D02*
X1923527D01*
X1831627Y1609459D02*
X1923527D01*
X1831627Y1609099D02*
X1923527D01*
X1831627Y1608739D02*
X1923527D01*
X1831627Y1608379D02*
X1923527D01*
X1893195Y1608019D02*
X1923527D01*
X1893775Y1607659D02*
X1923527D01*
X1832474Y1634299D02*
X1923479D01*
X1894318Y1606579D02*
X1923114D01*
X1894321Y1606219D02*
X1922554D01*
X1894271Y1605859D02*
X1922191D01*
X1899246Y1605499D02*
X1921831D01*
X1899796Y1605139D02*
X1921471D01*
X1900081Y1604779D02*
X1921111D01*
X1900244Y1604419D02*
X1920751D01*
X1900320Y1604059D02*
X1920391D01*
X1916336Y1600459D02*
X1920287D01*
X1900319Y1603699D02*
X1920031D01*
X1911275Y1600819D02*
X1919850D01*
X1900272Y1603339D02*
X1919707D01*
X1911317Y1601179D02*
X1919588D01*
X1910293Y1602979D02*
X1919500D01*
X1911322Y1601539D02*
X1919428D01*
X1910816Y1602619D02*
X1919379D01*
X1911251Y1601899D02*
X1919345D01*
X1911093Y1602259D02*
X1919329D01*
X1911600Y1622779D02*
X1915151D01*
X1887627Y1597219D02*
X1915031D01*
X1887695Y1626019D02*
X1914673D01*
X1900539Y1620259D02*
X1909272D01*
X1853977Y1577059D02*
X1906527D01*
X1853977Y1576699D02*
X1906527D01*
X1853977Y1576339D02*
X1906527D01*
X1853977Y1575979D02*
X1906527D01*
X1853977Y1575619D02*
X1906527D01*
X1853977Y1575259D02*
X1906527D01*
X1853977Y1574899D02*
X1906527D01*
X1853977Y1574539D02*
X1906527D01*
X1853977Y1574179D02*
X1906527D01*
X1853977Y1573819D02*
X1906527D01*
X1853977Y1573459D02*
X1906527D01*
X1853977Y1573099D02*
X1906527D01*
X1853977Y1572739D02*
X1906527D01*
X1853977Y1572379D02*
X1906527D01*
X1853977Y1572019D02*
X1906527D01*
X1853977Y1571659D02*
X1906527D01*
X1853977Y1571299D02*
X1906527D01*
X1853977Y1570939D02*
X1906527D01*
X1853977Y1570579D02*
X1906527D01*
X1853977Y1570219D02*
X1906527D01*
X1853977Y1569859D02*
X1906527D01*
X1853977Y1569499D02*
X1906527D01*
X1853977Y1569139D02*
X1906527D01*
X1853977Y1568779D02*
X1906527D01*
X1853977Y1568419D02*
X1906527D01*
X1853977Y1568059D02*
X1906527D01*
X1853977Y1567699D02*
X1906527D01*
X1853977Y1567339D02*
X1906527D01*
X1853977Y1566979D02*
X1906527D01*
X1853977Y1566619D02*
X1906527D01*
X1853977Y1566259D02*
X1906527D01*
X1853977Y1565899D02*
X1906527D01*
X1853977Y1565539D02*
X1906527D01*
X1853977Y1565179D02*
X1906527D01*
X1853977Y1564819D02*
X1906527D01*
X1853977Y1564459D02*
X1906527D01*
X1853977Y1564099D02*
X1906527D01*
X1853977Y1563739D02*
X1906527D01*
X1853977Y1563379D02*
X1906527D01*
X1853977Y1563019D02*
X1906527D01*
X1853977Y1562659D02*
X1906527D01*
X1853977Y1562299D02*
X1906527D01*
X1853977Y1561939D02*
X1906527D01*
X1853977Y1561579D02*
X1906527D01*
X1853977Y1561219D02*
X1906527D01*
X1853977Y1560859D02*
X1906527D01*
X1853977Y1560499D02*
X1906527D01*
X1853977Y1560139D02*
X1906527D01*
X1853977Y1559779D02*
X1906527D01*
X1853977Y1559419D02*
X1906527D01*
X1853977Y1559059D02*
X1906527D01*
X1853977Y1558699D02*
X1906527D01*
X1853977Y1558339D02*
X1906527D01*
X1853977Y1557979D02*
X1906527D01*
X1853977Y1557619D02*
X1906527D01*
X1853977Y1557259D02*
X1906527D01*
X1853977Y1556899D02*
X1906527D01*
X1853977Y1556539D02*
X1906527D01*
X1853977Y1556179D02*
X1906527D01*
X1853977Y1555819D02*
X1906527D01*
X1853977Y1555459D02*
X1906527D01*
X1853977Y1555099D02*
X1906527D01*
X1853977Y1554739D02*
X1906527D01*
X1853977Y1554379D02*
X1906527D01*
X1853977Y1554019D02*
X1906527D01*
X1853977Y1553659D02*
X1906527D01*
X1853977Y1553299D02*
X1906527D01*
X1853977Y1552939D02*
X1906527D01*
X1853977Y1552579D02*
X1906527D01*
X1853977Y1552219D02*
X1906527D01*
X1853977Y1551859D02*
X1906527D01*
X1853977Y1551499D02*
X1906527D01*
X1853977Y1551139D02*
X1906527D01*
X1853977Y1550779D02*
X1906527D01*
X1854075Y1550419D02*
X1906527D01*
X1854433Y1550059D02*
X1906527D01*
X1854793Y1549699D02*
X1906527D01*
X1855153Y1549339D02*
X1906527D01*
X1855513Y1548979D02*
X1906527D01*
X1855873Y1548619D02*
X1906527D01*
X1856233Y1548259D02*
X1906527D01*
X1856593Y1547899D02*
X1906527D01*
X1856953Y1547539D02*
X1906527D01*
X1857313Y1547179D02*
X1906527D01*
X1857673Y1546819D02*
X1906527D01*
X1858033Y1546459D02*
X1906527D01*
X1858393Y1546099D02*
X1906527D01*
X1858753Y1545739D02*
X1906527D01*
X1859113Y1545379D02*
X1906527D01*
X1859473Y1545019D02*
X1906527D01*
X1859833Y1544659D02*
X1906527D01*
X1860193Y1544299D02*
X1906527D01*
X1860859Y1543939D02*
X1906527D01*
X1861256Y1543579D02*
X1906527D01*
X1861498Y1543219D02*
X1906527D01*
X1861644Y1542859D02*
X1906527D01*
X1861716Y1542499D02*
X1906527D01*
X1861721Y1542139D02*
X1906527D01*
X1861661Y1541779D02*
X1906527D01*
X1861527Y1541419D02*
X1906527D01*
X1861303Y1541059D02*
X1906527D01*
X1860938Y1540699D02*
X1906527D01*
X1860166Y1540339D02*
X1906527D01*
X1859665Y1539979D02*
X1906527D01*
X1859788Y1539619D02*
X1906527D01*
X1860148Y1539259D02*
X1906527D01*
X1860508Y1538899D02*
X1906527D01*
X1860868Y1538539D02*
X1906527D01*
X1861228Y1538179D02*
X1906527D01*
X1861588Y1537819D02*
X1906527D01*
X1861948Y1537459D02*
X1906527D01*
X1862308Y1537099D02*
X1906527D01*
X1862668Y1536739D02*
X1906527D01*
X1863028Y1536379D02*
X1906527D01*
X1863388Y1536019D02*
X1906527D01*
X1863748Y1535659D02*
X1906527D01*
X1864108Y1535299D02*
X1906527D01*
X1864468Y1534939D02*
X1906527D01*
X1864828Y1534579D02*
X1906527D01*
X1865132Y1534219D02*
X1906527D01*
X1865300Y1533859D02*
X1906527D01*
X1865372Y1533499D02*
X1906527D01*
X1865377Y1533139D02*
X1906527D01*
X1865377Y1532779D02*
X1906527D01*
X1865377Y1532419D02*
X1906527D01*
X1865377Y1532059D02*
X1906527D01*
X1865377Y1531699D02*
X1906527D01*
X1865377Y1531339D02*
X1906527D01*
X1865377Y1530979D02*
X1906527D01*
X1865377Y1530619D02*
X1906527D01*
X1865377Y1530259D02*
X1906527D01*
X1865377Y1529899D02*
X1906527D01*
X1865377Y1529539D02*
X1906527D01*
X1865377Y1529179D02*
X1906527D01*
X1865377Y1528819D02*
X1906527D01*
X1865377Y1528459D02*
X1906527D01*
X1865377Y1528099D02*
X1906527D01*
X1865377Y1527739D02*
X1906527D01*
X1865377Y1527379D02*
X1906527D01*
X1865377Y1527019D02*
X1906527D01*
X1865548Y1526659D02*
X1906527D01*
X1865908Y1526299D02*
X1906527D01*
X1866268Y1525939D02*
X1906527D01*
X1866628Y1525579D02*
X1906527D01*
X1866988Y1525219D02*
X1906527D01*
X1867348Y1524859D02*
X1906527D01*
X1867708Y1524499D02*
X1906527D01*
X1868068Y1524139D02*
X1906527D01*
X1868428Y1523779D02*
X1906527D01*
X1868788Y1523419D02*
X1906527D01*
X1869148Y1523059D02*
X1906527D01*
X1880116Y1522699D02*
X1906527D01*
X1880653Y1522339D02*
X1906527D01*
X1880935Y1521979D02*
X1906527D01*
X1881095Y1521619D02*
X1906527D01*
X1881169Y1521259D02*
X1906527D01*
X1881166Y1520899D02*
X1906527D01*
X1881088Y1520539D02*
X1906527D01*
X1880977Y1520179D02*
X1906527D01*
X1880977Y1519819D02*
X1906527D01*
X1880977Y1519459D02*
X1906527D01*
X1880977Y1519099D02*
X1906527D01*
X1880977Y1518739D02*
X1906527D01*
X1880977Y1518379D02*
X1906527D01*
X1880977Y1518019D02*
X1906527D01*
X1880977Y1517659D02*
X1906527D01*
X1880977Y1517299D02*
X1906527D01*
X1880977Y1516939D02*
X1906527D01*
X1880977Y1516579D02*
X1906527D01*
X1880977Y1516219D02*
X1906527D01*
X1880977Y1515859D02*
X1906527D01*
X1880977Y1515499D02*
X1906527D01*
X1880977Y1515139D02*
X1906527D01*
X1880977Y1514779D02*
X1906527D01*
X1880977Y1514419D02*
X1906527D01*
X1880977Y1514059D02*
X1906527D01*
X1880977Y1513699D02*
X1906527D01*
X1880977Y1513339D02*
X1906527D01*
X1880977Y1512979D02*
X1906527D01*
X1880977Y1512619D02*
X1906527D01*
X1880977Y1512259D02*
X1906527D01*
X1880977Y1511899D02*
X1906527D01*
X1881031Y1511539D02*
X1906527D01*
X1881114Y1511179D02*
X1906527D01*
X1881121Y1510819D02*
X1906527D01*
X1881052Y1510459D02*
X1906527D01*
X1880897Y1510099D02*
X1906527D01*
X1880624Y1509739D02*
X1906527D01*
X1880113Y1509379D02*
X1906527D01*
X1877304Y1509019D02*
X1906527D01*
X1877304Y1508659D02*
X1906527D01*
X1877304Y1508299D02*
X1906527D01*
X1877304Y1507939D02*
X1906527D01*
X1877304Y1507579D02*
X1906527D01*
X1877304Y1507219D02*
X1906527D01*
X1877304Y1506859D02*
X1906527D01*
X1877304Y1506499D02*
X1906527D01*
X1877304Y1506139D02*
X1906527D01*
X1877304Y1505779D02*
X1906527D01*
X1877304Y1505419D02*
X1906527D01*
X1877304Y1505059D02*
X1906527D01*
X1877304Y1504699D02*
X1906527D01*
X1877304Y1504339D02*
X1906527D01*
X1877304Y1503979D02*
X1906527D01*
X1877304Y1503619D02*
X1906527D01*
X1877304Y1503259D02*
X1906527D01*
X1877304Y1502899D02*
X1906527D01*
X1877304Y1502539D02*
X1906527D01*
X1877304Y1502179D02*
X1906527D01*
X1904604Y1501819D02*
X1906527D01*
X1905159Y1501459D02*
X1906527D01*
X1905540Y1501099D02*
X1906527D01*
X1905583Y1496779D02*
X1906527D01*
X1905218Y1496419D02*
X1906527D01*
X1904695Y1496059D02*
X1906527D01*
X1903672Y1495699D02*
X1906527D01*
X1877458Y1495339D02*
X1906527D01*
X1877818Y1494979D02*
X1906527D01*
X1878178Y1494619D02*
X1906527D01*
X1903659Y1494259D02*
X1906527D01*
X1904691Y1493899D02*
X1906527D01*
X1905215Y1493539D02*
X1906527D01*
X1905581Y1493179D02*
X1906527D01*
X1905542Y1488859D02*
X1906527D01*
X1905162Y1488499D02*
X1906527D01*
X1904609Y1488139D02*
X1906527D01*
X1903227Y1487779D02*
X1906527D01*
X1867013Y1487419D02*
X1906527D01*
X1866718Y1487059D02*
X1906527D01*
X1866399Y1486699D02*
X1906527D01*
X1866053Y1486339D02*
X1906527D01*
X1865676Y1485979D02*
X1906527D01*
X1865266Y1485619D02*
X1906527D01*
X1864815Y1485259D02*
X1906527D01*
X1864315Y1484899D02*
X1906527D01*
X1863757Y1484539D02*
X1906527D01*
X1863121Y1484179D02*
X1906527D01*
X1862378Y1483819D02*
X1906527D01*
X1861470Y1483459D02*
X1906527D01*
X1860242Y1483099D02*
X1906527D01*
X1831627Y1482739D02*
X1906527D01*
X1831627Y1482379D02*
X1906527D01*
X1831627Y1482019D02*
X1906527D01*
X1831627Y1481659D02*
X1906527D01*
X1831627Y1481299D02*
X1906527D01*
X1831627Y1480939D02*
X1906527D01*
X1831627Y1480579D02*
X1906527D01*
X1831627Y1480219D02*
X1906527D01*
X1831627Y1479859D02*
X1906527D01*
X1831627Y1479499D02*
X1906527D01*
X1831627Y1479139D02*
X1906527D01*
X1831627Y1478779D02*
X1906527D01*
X1831627Y1478419D02*
X1906527D01*
X1831627Y1478059D02*
X1906527D01*
X1831627Y1477699D02*
X1906527D01*
X1831627Y1477339D02*
X1906527D01*
X1831627Y1476979D02*
X1906527D01*
X1831627Y1476619D02*
X1906527D01*
X1831627Y1476259D02*
X1906527D01*
X1831627Y1475899D02*
X1906527D01*
X1831627Y1475539D02*
X1906527D01*
X1831627Y1475179D02*
X1906527D01*
X1831627Y1474819D02*
X1906527D01*
X1831627Y1474459D02*
X1906527D01*
X1831627Y1474099D02*
X1906527D01*
X1831627Y1473739D02*
X1906527D01*
X1831627Y1473379D02*
X1906527D01*
X1831627Y1473019D02*
X1906527D01*
X1831627Y1472659D02*
X1906527D01*
X1831627Y1472299D02*
X1906527D01*
X1831627Y1471939D02*
X1906527D01*
X1831627Y1471579D02*
X1906527D01*
X1831627Y1471219D02*
X1906527D01*
X1831627Y1470859D02*
X1906527D01*
X1831627Y1470499D02*
X1906527D01*
X1831627Y1470139D02*
X1906527D01*
X1831627Y1469779D02*
X1906527D01*
X1831627Y1469419D02*
X1906527D01*
X1831627Y1469059D02*
X1906527D01*
X1831635Y1468699D02*
X1906519D01*
X1905825Y1500739D02*
X1906429D01*
X1905827Y1489219D02*
X1906427D01*
X1905872Y1492819D02*
X1906382D01*
X1905874Y1497139D02*
X1906380D01*
X1895353Y1487779D02*
X1903003D01*
X1895785Y1494259D02*
X1902571D01*
X1895798Y1495699D02*
X1902558D01*
X1896730Y1501819D02*
X1901625D01*
X1896735Y1488139D02*
X1901621D01*
X1896817Y1493899D02*
X1901539D01*
X1896821Y1496059D02*
X1901535D01*
X1897285Y1501459D02*
X1901070D01*
X1897288Y1488499D02*
X1901068D01*
X1897341Y1493539D02*
X1901015D01*
X1897344Y1496419D02*
X1901012D01*
X1897666Y1501099D02*
X1900690D01*
X1897668Y1488859D02*
X1900688D01*
X1897707Y1493179D02*
X1900649D01*
X1897709Y1496779D02*
X1900647D01*
X1897947Y1500739D02*
X1900408D01*
X1897949Y1489219D02*
X1900407D01*
X1897978Y1492819D02*
X1900378D01*
X1897979Y1497139D02*
X1900377D01*
X1898158Y1500379D02*
X1900198D01*
X1898159Y1489579D02*
X1900197D01*
X1898181Y1492459D02*
X1900175D01*
X1898182Y1497499D02*
X1900174D01*
X1898312Y1500019D02*
X1900044D01*
X1898313Y1489939D02*
X1900043D01*
X1898328Y1492099D02*
X1900027D01*
X1898329Y1497859D02*
X1900027D01*
X1898419Y1499659D02*
X1899937D01*
X1898419Y1490299D02*
X1899937D01*
X1898429Y1491739D02*
X1899927D01*
X1898430Y1498219D02*
X1899926D01*
X1898482Y1499299D02*
X1899874D01*
X1898482Y1490659D02*
X1899874D01*
X1898487Y1491379D02*
X1899869D01*
X1898487Y1498579D02*
X1899868D01*
X1898505Y1498939D02*
X1899851D01*
X1898505Y1491019D02*
X1899851D01*
X1894491Y1617739D02*
X1897974D01*
X1894552Y1605499D02*
X1897908D01*
X1887479Y1487779D02*
X1895129D01*
X1887911Y1494259D02*
X1894697D01*
X1887924Y1495699D02*
X1894684D01*
X1888856Y1501819D02*
X1893751D01*
X1888861Y1488139D02*
X1893747D01*
X1888943Y1493899D02*
X1893665D01*
X1888947Y1496059D02*
X1893661D01*
X1889411Y1501459D02*
X1893196D01*
X1889414Y1488499D02*
X1893194D01*
X1889467Y1493539D02*
X1893141D01*
X1889470Y1496419D02*
X1893138D01*
X1889792Y1501099D02*
X1892816D01*
X1889794Y1488859D02*
X1892814D01*
X1889833Y1493179D02*
X1892775D01*
X1889835Y1496779D02*
X1892773D01*
X1890073Y1500739D02*
X1892534D01*
X1890075Y1489219D02*
X1892533D01*
X1890104Y1492819D02*
X1892504D01*
X1890105Y1497139D02*
X1892503D01*
X1890284Y1500379D02*
X1892324D01*
X1890285Y1489579D02*
X1892323D01*
X1890307Y1492459D02*
X1892301D01*
X1890308Y1497499D02*
X1892300D01*
X1890438Y1500019D02*
X1892170D01*
X1890439Y1489939D02*
X1892169D01*
X1890454Y1492099D02*
X1892153D01*
X1890455Y1497859D02*
X1892153D01*
X1890545Y1499659D02*
X1892063D01*
X1890545Y1490299D02*
X1892063D01*
X1890555Y1491739D02*
X1892053D01*
X1890556Y1498219D02*
X1892052D01*
X1864627Y1615219D02*
X1892031D01*
X1890608Y1499299D02*
X1892000D01*
X1890608Y1490659D02*
X1892000D01*
X1890613Y1491379D02*
X1891995D01*
X1890613Y1498579D02*
X1891994D01*
X1890631Y1498939D02*
X1891977D01*
X1890631Y1491019D02*
X1891977D01*
X1864695Y1608019D02*
X1891963D01*
X1879605Y1487779D02*
X1887255D01*
X1880037Y1494259D02*
X1886823D01*
X1880050Y1495699D02*
X1886810D01*
X1859127Y1597219D02*
X1886531D01*
X1859195Y1626019D02*
X1886463D01*
X1880982Y1501819D02*
X1885877D01*
X1880987Y1488139D02*
X1885873D01*
X1881069Y1493899D02*
X1885791D01*
X1881073Y1496059D02*
X1885787D01*
X1881537Y1501459D02*
X1885322D01*
X1881540Y1488499D02*
X1885320D01*
X1881593Y1493539D02*
X1885267D01*
X1881596Y1496419D02*
X1885264D01*
X1881918Y1501099D02*
X1884942D01*
X1881920Y1488859D02*
X1884940D01*
X1881959Y1493179D02*
X1884901D01*
X1881961Y1496779D02*
X1884899D01*
X1882199Y1500739D02*
X1884660D01*
X1882201Y1489219D02*
X1884659D01*
X1882230Y1492819D02*
X1884630D01*
X1882231Y1497139D02*
X1884629D01*
X1882410Y1500379D02*
X1884450D01*
X1882411Y1489579D02*
X1884449D01*
X1882433Y1492459D02*
X1884427D01*
X1882434Y1497499D02*
X1884426D01*
X1882564Y1500019D02*
X1884296D01*
X1882565Y1489939D02*
X1884295D01*
X1882580Y1492099D02*
X1884279D01*
X1882581Y1497859D02*
X1884279D01*
X1882671Y1499659D02*
X1884189D01*
X1882671Y1490299D02*
X1884189D01*
X1882681Y1491739D02*
X1884179D01*
X1882682Y1498219D02*
X1884178D01*
X1882734Y1499299D02*
X1884126D01*
X1882734Y1490659D02*
X1884126D01*
X1882739Y1491379D02*
X1884121D01*
X1882739Y1498579D02*
X1884120D01*
X1882757Y1498939D02*
X1884103D01*
X1882757Y1491019D02*
X1884103D01*
X1867286Y1487779D02*
X1879381D01*
X1878577Y1494259D02*
X1878949D01*
X1877304Y1495699D02*
X1878936D01*
X1869508Y1522699D02*
X1878738D01*
X1877304Y1509379D02*
X1878642D01*
X1869868Y1522339D02*
X1878201D01*
X1877323Y1509739D02*
X1878130D01*
X1877432Y1501819D02*
X1878003D01*
X1867539Y1488139D02*
X1877999D01*
X1870228Y1521979D02*
X1877919D01*
X1877496Y1496059D02*
X1877913D01*
X1872028Y1520179D02*
X1877777D01*
X1872388Y1519819D02*
X1877777D01*
X1872748Y1519459D02*
X1877777D01*
X1873108Y1519099D02*
X1877777D01*
X1873468Y1518739D02*
X1877777D01*
X1873828Y1518379D02*
X1877777D01*
X1874188Y1518019D02*
X1877777D01*
X1874548Y1517659D02*
X1877777D01*
X1874908Y1517299D02*
X1877777D01*
X1875268Y1516939D02*
X1877777D01*
X1875628Y1516579D02*
X1877777D01*
X1875988Y1516219D02*
X1877777D01*
X1876348Y1515859D02*
X1877777D01*
X1876708Y1515499D02*
X1877777D01*
X1871668Y1520539D02*
X1877765D01*
X1870588Y1521619D02*
X1877759D01*
X1877028Y1515139D02*
X1877725D01*
X1871308Y1520899D02*
X1877687D01*
X1870948Y1521259D02*
X1877685D01*
X1867774Y1488499D02*
X1877446D01*
X1867991Y1488859D02*
X1877066D01*
X1868191Y1489219D02*
X1876785D01*
X1868376Y1489579D02*
X1876575D01*
X1868546Y1489939D02*
X1876421D01*
X1868703Y1490299D02*
X1876315D01*
X1869197Y1491739D02*
X1876304D01*
X1868845Y1490659D02*
X1876252D01*
X1869092Y1491379D02*
X1876247D01*
X1868975Y1491019D02*
X1876229D01*
X1869291Y1492099D02*
X1876172D01*
X1869372Y1492459D02*
X1875812D01*
X1869442Y1492819D02*
X1875452D01*
X1869502Y1493179D02*
X1875092D01*
X1869550Y1493539D02*
X1874732D01*
X1869587Y1493899D02*
X1874403D01*
X1869614Y1494259D02*
X1874209D01*
X1869630Y1494619D02*
X1874118D01*
X1831627Y1510459D02*
X1874104D01*
X1831627Y1510099D02*
X1874104D01*
X1831627Y1509739D02*
X1874104D01*
X1831627Y1509379D02*
X1874104D01*
X1831627Y1509019D02*
X1874104D01*
X1831627Y1508659D02*
X1874104D01*
X1831627Y1508299D02*
X1874104D01*
X1831627Y1507939D02*
X1874104D01*
X1831627Y1507579D02*
X1874104D01*
X1831627Y1507219D02*
X1874104D01*
X1860232Y1506859D02*
X1874104D01*
X1861464Y1506499D02*
X1874104D01*
X1862373Y1506139D02*
X1874104D01*
X1863116Y1505779D02*
X1874104D01*
X1863753Y1505419D02*
X1874104D01*
X1864312Y1505059D02*
X1874104D01*
X1864812Y1504699D02*
X1874104D01*
X1865263Y1504339D02*
X1874104D01*
X1865674Y1503979D02*
X1874104D01*
X1866050Y1503619D02*
X1874104D01*
X1866397Y1503259D02*
X1874104D01*
X1866716Y1502899D02*
X1874104D01*
X1867011Y1502539D02*
X1874104D01*
X1867285Y1502179D02*
X1874104D01*
X1867538Y1501819D02*
X1874104D01*
X1867772Y1501459D02*
X1874104D01*
X1867989Y1501099D02*
X1874104D01*
X1868190Y1500739D02*
X1874104D01*
X1868375Y1500379D02*
X1874104D01*
X1868545Y1500019D02*
X1874104D01*
X1868702Y1499659D02*
X1874104D01*
X1868845Y1499299D02*
X1874104D01*
X1868974Y1498939D02*
X1874104D01*
X1869092Y1498579D02*
X1874104D01*
X1869197Y1498219D02*
X1874104D01*
X1869290Y1497859D02*
X1874104D01*
X1869372Y1497499D02*
X1874104D01*
X1869442Y1497139D02*
X1874104D01*
X1869501Y1496779D02*
X1874104D01*
X1869549Y1496419D02*
X1874104D01*
X1869587Y1496059D02*
X1874104D01*
X1869614Y1495699D02*
X1874104D01*
X1869630Y1495339D02*
X1874104D01*
X1869635Y1494979D02*
X1874104D01*
X1831627Y1510819D02*
X1874104D01*
X1831627Y1511179D02*
X1873840D01*
X1836627Y1615219D02*
X1863531D01*
X1836195Y1608019D02*
X1863463D01*
X1856092Y1597219D02*
X1858031D01*
X1831627Y1626019D02*
X1857963D01*
X1856513Y1597579D02*
X1857410D01*
X1831627Y1625659D02*
X1857383D01*
X1831627Y1625299D02*
X1857089D01*
X1831627Y1511539D02*
X1857085D01*
X1831627Y1624939D02*
X1856920D01*
X1831627Y1623859D02*
X1856887D01*
X1831627Y1624579D02*
X1856840D01*
X1831627Y1624219D02*
X1856836D01*
X1831627Y1511899D02*
X1856725D01*
X1853750Y1623499D02*
X1856606D01*
X1831627Y1512259D02*
X1856365D01*
X1831627Y1512619D02*
X1856005D01*
X1831627Y1512979D02*
X1855645D01*
X1831627Y1513339D02*
X1855285D01*
X1831627Y1529899D02*
X1855104D01*
X1831627Y1529539D02*
X1855104D01*
X1831627Y1529179D02*
X1855104D01*
X1831627Y1528819D02*
X1855104D01*
X1831627Y1528459D02*
X1855104D01*
X1831627Y1528099D02*
X1855104D01*
X1831627Y1527739D02*
X1855104D01*
X1831627Y1527379D02*
X1855104D01*
X1831627Y1527019D02*
X1855104D01*
X1831627Y1526659D02*
X1855104D01*
X1831627Y1526299D02*
X1855104D01*
X1831627Y1525939D02*
X1855104D01*
X1831627Y1525579D02*
X1855104D01*
X1831627Y1525219D02*
X1855104D01*
X1831627Y1524859D02*
X1855104D01*
X1831627Y1524499D02*
X1855104D01*
X1831627Y1524139D02*
X1855104D01*
X1831627Y1523779D02*
X1855104D01*
X1831627Y1523419D02*
X1855104D01*
X1831627Y1523059D02*
X1855104D01*
X1831627Y1522699D02*
X1855104D01*
X1831627Y1522339D02*
X1855104D01*
X1831627Y1521979D02*
X1855104D01*
X1831627Y1521619D02*
X1855104D01*
X1831627Y1521259D02*
X1855104D01*
X1831627Y1520899D02*
X1855104D01*
X1831627Y1520539D02*
X1855104D01*
X1831627Y1520179D02*
X1855104D01*
X1831627Y1519819D02*
X1855104D01*
X1831627Y1519459D02*
X1855104D01*
X1831627Y1519099D02*
X1855104D01*
X1831627Y1518739D02*
X1855104D01*
X1831627Y1518379D02*
X1855104D01*
X1831627Y1518019D02*
X1855104D01*
X1831627Y1517659D02*
X1855104D01*
X1831627Y1517299D02*
X1855104D01*
X1831627Y1516939D02*
X1855104D01*
X1831627Y1516579D02*
X1855104D01*
X1831627Y1516219D02*
X1855104D01*
X1831627Y1515859D02*
X1855104D01*
X1831627Y1515499D02*
X1855104D01*
X1831627Y1515139D02*
X1855104D01*
X1831627Y1514779D02*
X1855104D01*
X1831627Y1514419D02*
X1855104D01*
X1831627Y1514059D02*
X1855104D01*
X1831627Y1513699D02*
X1855104D01*
X1831627Y1530259D02*
X1855100D01*
X1831627Y1506859D02*
X1854622D01*
X1831627Y1483099D02*
X1854612D01*
X1831627Y1506499D02*
X1853390D01*
X1831627Y1483459D02*
X1853384D01*
X1831627Y1506139D02*
X1852481D01*
X1831627Y1483819D02*
X1852476D01*
X1831627Y1623499D02*
X1852412D01*
X1831627Y1623139D02*
X1851862D01*
X1831627Y1505779D02*
X1851738D01*
X1831627Y1484179D02*
X1851733D01*
X1831627Y1622779D02*
X1851577D01*
X1831627Y1622419D02*
X1851414D01*
X1831627Y1600819D02*
X1851390D01*
X1831627Y1601899D02*
X1851387D01*
X1831627Y1621339D02*
X1851386D01*
X1831627Y1601179D02*
X1851341D01*
X1831627Y1621699D02*
X1851338D01*
X1831627Y1622059D02*
X1851338D01*
X1831627Y1601539D02*
X1851336D01*
X1842237Y1602259D02*
X1851119D01*
X1831627Y1505419D02*
X1851101D01*
X1831627Y1484539D02*
X1851097D01*
X1831627Y1505059D02*
X1850542D01*
X1831627Y1484899D02*
X1850539D01*
X1831627Y1504699D02*
X1850042D01*
X1831627Y1485259D02*
X1850039D01*
X1831627Y1504339D02*
X1849591D01*
X1831627Y1485619D02*
X1849588D01*
X1831627Y1503979D02*
X1849180D01*
X1831627Y1485979D02*
X1849177D01*
X1845092Y1600459D02*
X1849063D01*
X1831627Y1503619D02*
X1848804D01*
X1831627Y1486339D02*
X1848801D01*
X1845517Y1600099D02*
X1848637D01*
X1831627Y1503259D02*
X1848457D01*
X1831627Y1486699D02*
X1848455D01*
X1831627Y1502899D02*
X1848138D01*
X1831627Y1487059D02*
X1848136D01*
X1831627Y1502539D02*
X1847843D01*
X1831627Y1487419D02*
X1847841D01*
X1831627Y1502179D02*
X1847569D01*
X1831627Y1487779D02*
X1847567D01*
X1831627Y1501819D02*
X1847316D01*
X1831627Y1488139D02*
X1847314D01*
X1831627Y1501459D02*
X1847082D01*
X1831627Y1488499D02*
X1847080D01*
X1831627Y1501099D02*
X1846865D01*
X1831627Y1488859D02*
X1846863D01*
X1831627Y1500739D02*
X1846664D01*
X1831627Y1489219D02*
X1846663D01*
X1831627Y1500379D02*
X1846479D01*
X1831627Y1489579D02*
X1846478D01*
X1831627Y1500019D02*
X1846309D01*
X1831627Y1489939D02*
X1846307D01*
X1831627Y1499659D02*
X1846152D01*
X1831627Y1490299D02*
X1846151D01*
X1831627Y1499299D02*
X1846009D01*
X1831627Y1490659D02*
X1846009D01*
X1831627Y1498939D02*
X1845880D01*
X1831627Y1491019D02*
X1845879D01*
X1831627Y1498579D02*
X1845762D01*
X1831627Y1491379D02*
X1845762D01*
X1831627Y1498219D02*
X1845657D01*
X1831627Y1491739D02*
X1845657D01*
X1831627Y1497859D02*
X1845564D01*
X1831627Y1492099D02*
X1845563D01*
X1831627Y1497499D02*
X1845482D01*
X1831627Y1492459D02*
X1845482D01*
X1831627Y1497139D02*
X1845412D01*
X1831627Y1492819D02*
X1845411D01*
X1831627Y1496779D02*
X1845353D01*
X1831627Y1493179D02*
X1845352D01*
X1831627Y1496419D02*
X1845304D01*
X1831627Y1493539D02*
X1845304D01*
X1831627Y1496059D02*
X1845267D01*
X1831627Y1493899D02*
X1845267D01*
X1831627Y1495699D02*
X1845240D01*
X1831627Y1494259D02*
X1845240D01*
X1831627Y1495339D02*
X1845224D01*
X1831627Y1494619D02*
X1845224D01*
X1831627Y1494979D02*
X1845219D01*
X1839492Y1600459D02*
X1843263D01*
X1839912Y1600099D02*
X1842843D01*
X1840148Y1599739D02*
X1842607D01*
X1840278Y1599379D02*
X1842327D01*
X1831627Y1530619D02*
X1841973D01*
X1840327Y1599019D02*
X1841967D01*
X1840300Y1598659D02*
X1841607D01*
X1831627Y1530979D02*
X1841305D01*
X1840199Y1598299D02*
X1841247D01*
X1831627Y1531339D02*
X1840942D01*
X1831627Y1602259D02*
X1840922D01*
X1840291Y1597939D02*
X1840887D01*
X1831627Y1620979D02*
X1840865D01*
X1831627Y1531699D02*
X1840582D01*
X1831627Y1602619D02*
X1840367D01*
X1831627Y1620619D02*
X1840342D01*
X1831627Y1532059D02*
X1840222D01*
X1831627Y1602979D02*
X1840079D01*
X1831627Y1620259D02*
X1840065D01*
X1831627Y1603339D02*
X1839915D01*
X1831627Y1619899D02*
X1839907D01*
X1831627Y1604419D02*
X1839886D01*
X1831627Y1618819D02*
X1839883D01*
X1831627Y1532419D02*
X1839862D01*
X1831627Y1619179D02*
X1839841D01*
X1831627Y1603699D02*
X1839838D01*
X1831627Y1604059D02*
X1839838D01*
X1831627Y1619539D02*
X1839836D01*
X1836327Y1604779D02*
X1839529D01*
X1831627Y1532779D02*
X1839502D01*
X1831627Y1533139D02*
X1839142D01*
X1831627Y1533499D02*
X1838782D01*
X1831627Y1533859D02*
X1838422D01*
X1831627Y1534219D02*
X1838062D01*
X1831627Y1534579D02*
X1837702D01*
X1831627Y1600459D02*
X1837663D01*
X1831627Y1534939D02*
X1837342D01*
X1831627Y1600099D02*
X1837243D01*
X1831627Y1599739D02*
X1837007D01*
X1831627Y1535299D02*
X1836982D01*
X1831627Y1599379D02*
X1836727D01*
X1831627Y1535659D02*
X1836622D01*
X1831627Y1599019D02*
X1836367D01*
X1831627Y1536019D02*
X1836161D01*
X1831627Y1598659D02*
X1836007D01*
X1831627Y1536379D02*
X1835692D01*
X1831627Y1598299D02*
X1835677D01*
X1831627Y1615219D02*
X1835531D01*
X1831627Y1597939D02*
X1835483D01*
X1831627Y1536739D02*
X1835436D01*
X1831627Y1597579D02*
X1835391D01*
X1831627Y1597219D02*
X1835377D01*
X1831627Y1596859D02*
X1835377D01*
X1831627Y1596499D02*
X1835377D01*
X1831627Y1596139D02*
X1835377D01*
X1831627Y1595779D02*
X1835377D01*
X1831627Y1595419D02*
X1835377D01*
X1831627Y1595059D02*
X1835377D01*
X1831627Y1594699D02*
X1835377D01*
X1831627Y1594339D02*
X1835377D01*
X1831627Y1593979D02*
X1835377D01*
X1831627Y1593619D02*
X1835377D01*
X1831627Y1593259D02*
X1835377D01*
X1831627Y1592899D02*
X1835377D01*
X1831627Y1592539D02*
X1835377D01*
X1831627Y1592179D02*
X1835377D01*
X1831627Y1591819D02*
X1835377D01*
X1831627Y1591459D02*
X1835377D01*
X1831627Y1591099D02*
X1835377D01*
X1831627Y1590739D02*
X1835377D01*
X1831627Y1590379D02*
X1835377D01*
X1831627Y1590019D02*
X1835377D01*
X1831627Y1589659D02*
X1835377D01*
X1831627Y1589299D02*
X1835377D01*
X1831627Y1588939D02*
X1835377D01*
X1831627Y1588579D02*
X1835377D01*
X1831627Y1588219D02*
X1835377D01*
X1831627Y1587859D02*
X1835377D01*
X1831627Y1587499D02*
X1835377D01*
X1831627Y1587139D02*
X1835377D01*
X1831627Y1586779D02*
X1835377D01*
X1831627Y1586419D02*
X1835377D01*
X1831627Y1586059D02*
X1835377D01*
X1831627Y1585699D02*
X1835377D01*
X1831627Y1585339D02*
X1835377D01*
X1831627Y1584979D02*
X1835377D01*
X1831627Y1584619D02*
X1835377D01*
X1831627Y1584259D02*
X1835377D01*
X1831627Y1583899D02*
X1835377D01*
X1831627Y1583539D02*
X1835377D01*
X1831627Y1583179D02*
X1835377D01*
X1831627Y1582819D02*
X1835377D01*
X1831627Y1582459D02*
X1835377D01*
X1831627Y1582099D02*
X1835377D01*
X1831627Y1581739D02*
X1835377D01*
X1831627Y1581379D02*
X1835377D01*
X1831627Y1581019D02*
X1835377D01*
X1831627Y1580659D02*
X1835377D01*
X1831627Y1580299D02*
X1835377D01*
X1831627Y1579939D02*
X1835377D01*
X1831627Y1579579D02*
X1835377D01*
X1831627Y1579219D02*
X1835377D01*
X1831627Y1578859D02*
X1835377D01*
X1831627Y1578499D02*
X1835377D01*
X1831627Y1578139D02*
X1835377D01*
X1831627Y1577779D02*
X1835377D01*
X1831627Y1577419D02*
X1835377D01*
X1831627Y1577059D02*
X1835377D01*
X1831627Y1576699D02*
X1835377D01*
X1831627Y1576339D02*
X1835377D01*
X1831627Y1575979D02*
X1835377D01*
X1831627Y1575619D02*
X1835377D01*
X1831627Y1575259D02*
X1835377D01*
X1831627Y1574899D02*
X1835377D01*
X1831627Y1574539D02*
X1835377D01*
X1831627Y1574179D02*
X1835377D01*
X1831627Y1573819D02*
X1835377D01*
X1831627Y1573459D02*
X1835377D01*
X1831627Y1573099D02*
X1835377D01*
X1831627Y1572739D02*
X1835377D01*
X1831627Y1572379D02*
X1835377D01*
X1831627Y1572019D02*
X1835377D01*
X1831627Y1571659D02*
X1835377D01*
X1831627Y1571299D02*
X1835377D01*
X1831627Y1570939D02*
X1835377D01*
X1831627Y1570579D02*
X1835377D01*
X1831627Y1570219D02*
X1835377D01*
X1831627Y1569859D02*
X1835377D01*
X1831627Y1569499D02*
X1835377D01*
X1831627Y1569139D02*
X1835377D01*
X1831627Y1568779D02*
X1835377D01*
X1831627Y1568419D02*
X1835377D01*
X1831627Y1568059D02*
X1835377D01*
X1831627Y1567699D02*
X1835377D01*
X1831627Y1567339D02*
X1835377D01*
X1831627Y1566979D02*
X1835377D01*
X1831627Y1566619D02*
X1835377D01*
X1831627Y1566259D02*
X1835377D01*
X1831627Y1565899D02*
X1835377D01*
X1831627Y1565539D02*
X1835377D01*
X1831627Y1565179D02*
X1835377D01*
X1831627Y1564819D02*
X1835377D01*
X1831627Y1564459D02*
X1835377D01*
X1831627Y1564099D02*
X1835377D01*
X1831627Y1563739D02*
X1835377D01*
X1831627Y1563379D02*
X1835377D01*
X1831627Y1563019D02*
X1835377D01*
X1831627Y1562659D02*
X1835377D01*
X1831627Y1562299D02*
X1835377D01*
X1831627Y1561939D02*
X1835377D01*
X1831627Y1561579D02*
X1835377D01*
X1831627Y1561219D02*
X1835377D01*
X1831627Y1560859D02*
X1835377D01*
X1831627Y1560499D02*
X1835377D01*
X1831627Y1560139D02*
X1835377D01*
X1831627Y1559779D02*
X1835377D01*
X1831627Y1559419D02*
X1835377D01*
X1831627Y1559059D02*
X1835377D01*
X1831627Y1558699D02*
X1835377D01*
X1831627Y1558339D02*
X1835377D01*
X1831627Y1557979D02*
X1835377D01*
X1831627Y1557619D02*
X1835377D01*
X1831627Y1557259D02*
X1835377D01*
X1831627Y1556899D02*
X1835377D01*
X1831627Y1556539D02*
X1835377D01*
X1831627Y1556179D02*
X1835377D01*
X1831627Y1555819D02*
X1835377D01*
X1831627Y1555459D02*
X1835377D01*
X1831627Y1555099D02*
X1835377D01*
X1831627Y1554739D02*
X1835377D01*
X1831627Y1554379D02*
X1835377D01*
X1831627Y1554019D02*
X1835377D01*
X1831627Y1553659D02*
X1835377D01*
X1831627Y1553299D02*
X1835377D01*
X1831627Y1552939D02*
X1835377D01*
X1831627Y1552579D02*
X1835377D01*
X1831627Y1552219D02*
X1835377D01*
X1831627Y1551859D02*
X1835377D01*
X1831627Y1551499D02*
X1835377D01*
X1831627Y1551139D02*
X1835377D01*
X1831627Y1550779D02*
X1835377D01*
X1831627Y1550419D02*
X1835377D01*
X1831627Y1550059D02*
X1835377D01*
X1831627Y1549699D02*
X1835377D01*
X1831627Y1549339D02*
X1835377D01*
X1831627Y1548979D02*
X1835377D01*
X1831627Y1548619D02*
X1835377D01*
X1831627Y1548259D02*
X1835377D01*
X1831627Y1547899D02*
X1835377D01*
X1831627Y1547539D02*
X1835377D01*
X1831627Y1547179D02*
X1835377D01*
X1831627Y1546819D02*
X1835377D01*
X1831627Y1546459D02*
X1835377D01*
X1831627Y1546099D02*
X1835377D01*
X1831627Y1545739D02*
X1835377D01*
X1831627Y1545379D02*
X1835377D01*
X1831627Y1545019D02*
X1835377D01*
X1831627Y1544659D02*
X1835377D01*
X1831627Y1544299D02*
X1835377D01*
X1831627Y1543939D02*
X1835377D01*
X1831627Y1543579D02*
X1835377D01*
X1831627Y1543219D02*
X1835377D01*
X1831627Y1542859D02*
X1835377D01*
X1831627Y1542499D02*
X1835377D01*
X1831627Y1542139D02*
X1835377D01*
X1831627Y1541779D02*
X1835377D01*
X1831627Y1541419D02*
X1835377D01*
X1831627Y1541059D02*
X1835377D01*
X1831627Y1540699D02*
X1835377D01*
X1831627Y1540339D02*
X1835377D01*
X1831627Y1539979D02*
X1835377D01*
X1831627Y1539619D02*
X1835377D01*
X1831627Y1539259D02*
X1835377D01*
X1831627Y1538899D02*
X1835377D01*
X1831627Y1538539D02*
X1835377D01*
X1831627Y1538179D02*
X1835338D01*
X1831627Y1618459D02*
X1835322D01*
X1831627Y1537099D02*
X1835291D01*
X1831627Y1537819D02*
X1835245D01*
X1831627Y1537459D02*
X1835231D01*
X1831627Y1608019D02*
X1834963D01*
X1831627Y1615579D02*
X1834910D01*
X1831627Y1604779D02*
X1834875D01*
X1831627Y1618099D02*
X1834822D01*
X1831627Y1615939D02*
X1834604D01*
X1831627Y1617739D02*
X1834554D01*
X1831627Y1616299D02*
X1834429D01*
X1831627Y1617379D02*
X1834401D01*
X1831627Y1607659D02*
X1834383D01*
X1831627Y1605139D02*
X1834346D01*
X1831627Y1616659D02*
X1834343D01*
X1831627Y1617019D02*
X1834334D01*
X1831627Y1607299D02*
X1834089D01*
X1831627Y1605499D02*
X1834068D01*
X1831627Y1606939D02*
X1833920D01*
X1831627Y1605859D02*
X1833909D01*
X1831627Y1606579D02*
X1833840D01*
X1831627Y1606219D02*
X1833836D01*
X2089568Y1629839D02*
G03X2083435Y1635741I-6017J-115D01*
G01X2083439D02*
X2007704D01*
Y1611603*
X1936304*
Y1635704*
X1833353Y1635740*
G03X1830427Y1632814I-0J-2926*
G01Y1632815D02*
Y1200923D01*
G03X1836332Y1195017I5905J-0*
G01X2083439*
X2083435D02*
G03X2089568Y1200919I116J6017D01*
G01Y1200923D02*
Y1242905D01*
Y1629835*
G54D18*
X1859727Y1542291D02*
X1852227Y1549791D01*
Y1577091*
X1851927Y1577391*
X1856904Y1514403D02*
Y1530803D01*
X2037555Y1526977D02*
Y1548303D01*
X2037504*
X1850577Y1588567D02*
X1861977D01*
X1944264Y1575977D02*
X1926264D01*
X1925527Y1575991*
X2011614Y1580193D02*
X2011314D01*
X1992227Y1580167D02*
X2002290D01*
X2002314Y1580191*
X2011614*
Y1580193*
X1879427Y1521091D03*
X1879377Y1510967D03*
X1851977Y1537767D03*
X1874677Y1547241D03*
X1849777Y1534767D03*
X1841977Y1537567D03*
X1847177Y1537767D03*
X1852177Y1532167D03*
X1836977Y1537567D03*
X1872427Y1513091D03*
X1856904Y1514403D03*
Y1530803D03*
X1918327Y1504891D03*
X1922027Y1486991D03*
X1940727Y1527391D03*
X1960827Y1525991D03*
X1891927Y1524741D03*
X1889177D03*
X1942927Y1529491D03*
X2021027Y1522491D03*
X1999727Y1493991D03*
Y1486991D03*
X1967927Y1526091D03*
X1988968Y1504797D03*
X1855777Y1599167D03*
X1858579Y1624381D03*
X1870079Y1603881D03*
X1841579D03*
X1874677Y1550491D03*
X1884427Y1577741D03*
X1879427Y1571741D03*
X1854727Y1564391D03*
X1851777Y1581367D03*
X1835579Y1606381D03*
X1864079D03*
X1844177Y1598967D03*
X1841579Y1619381D03*
X1870079D03*
X1849977Y1598967D03*
X1881579Y1621881D03*
X1853079D03*
X1838577Y1598967D03*
X1864079Y1616881D03*
X1836079D03*
X1858577Y1584367D03*
X1858579Y1598881D03*
X1854577Y1586367D03*
X1853079Y1601381D03*
X1881079D03*
X1850577Y1588567D03*
X1861977D03*
X1929764Y1581977D03*
X1943996Y1587431D03*
X1941996Y1585681D03*
X1929764Y1584227D03*
X1915527Y1624491D03*
X1887079Y1624381D03*
X1898579Y1603881D03*
X1918427Y1568291D03*
X1953327Y1578691D03*
X1950827Y1578191D03*
X1921177Y1610241D03*
Y1607491D03*
Y1591741D03*
X1893177Y1576991D03*
X1894177Y1568741D03*
X1892579Y1606381D03*
X1941996Y1588931D03*
X1930627Y1586491D03*
X1941996Y1597431D03*
X1929777Y1588567D03*
X1898579Y1619381D03*
X1909527Y1621991D03*
X1892579Y1616881D03*
X1887079Y1598881D03*
X1915579D03*
X1909579Y1601381D03*
X1930927Y1578291D03*
X1941996Y1579681D03*
X2011014Y1590493D03*
X1988427Y1579191D03*
X1985227Y1579991D03*
X2024727Y1603591D03*
X2020227Y1603691D03*
X2002477Y1598167D03*
X1996927Y1569741D03*
X2015214Y1585593D03*
X2075469Y1566436D03*
X2064027Y1591491D03*
X2062427Y1623491D03*
X2050927Y1619991D03*
X2063927Y1595491D03*
X2051677Y1580741D03*
Y1583741D03*
X2075569Y1561436D03*
X2075469Y1571436D03*
X2077955Y1576977D03*
G54D26*
X2077555Y1526977D03*
X2067555D03*
X2057555D03*
X2047555D03*
X2037555D03*
G54D30*
X2026518Y1626372D03*
Y1618498D03*
Y1610624D03*
X2044235Y1626372D03*
Y1618498D03*
Y1610624D03*
G54D38*
X2081255Y1576977D03*
Y1566977D03*
Y1556977D03*
Y1546977D03*
Y1536977D03*
G54D41*
X1872427Y1513091D02*
Y1513003D01*
X1861377Y1524140*
Y1532167*
X1846827Y1546718*
Y1583667*
X1849527Y1586367*
X1854577*
X1879377Y1510967D02*
Y1521091D01*
X1879427*
X1851977Y1537767D02*
X1844627Y1545118D01*
Y1588017*
X1849777Y1534767D02*
X1844777D01*
X1841977Y1537567*
X1839777Y1539767*
Y1594567*
X1847177Y1537767D02*
X1842377Y1542567D01*
Y1591367*
X1852177Y1532167D02*
X1842377D01*
X1836977Y1537567*
Y1597367*
X1838577Y1598967*
X1879493Y1491041D02*
X1875704Y1494830D01*
Y1514241*
X1863777Y1526167*
Y1533367*
X1849127Y1548018*
X1844627Y1588017D02*
X1855777Y1599167D01*
X1839777Y1594567D02*
X1844177Y1598967D01*
X1842377Y1591367D02*
X1849977Y1598967D01*
X1849127Y1548018D02*
Y1581967D01*
X1851527Y1584367*
X1858577*
X1858579Y1624381D02*
X1887079D01*
X1898579Y1603881D02*
X1870079D01*
X1841579*
X1835579Y1606381D02*
X1864079D01*
X1892579*
X1841579Y1619381D02*
X1870079D01*
X1898579*
X1881579Y1621881D02*
X1909527D01*
Y1621991*
X1853079Y1621881D02*
X1881579D01*
X1892579Y1616881D02*
X1864079D01*
X1836079*
X1858579Y1598881D02*
X1887079D01*
X1853079Y1601381D02*
X1881079D01*
X1909579*
X1887079Y1624381D02*
X1915527D01*
Y1624491*
X1887079Y1598881D02*
X1915579D01*
G54D43*
X1921327Y1602167D02*
X1923901Y1604741D01*
X2012336*
X2017146Y1599931D02*
X2012336Y1604741D01*
X2026518Y1610624D02*
X2044235D01*
X2026518Y1618498D02*
X2044235D01*
X1859727Y1542291D03*
X2029504Y1534803D03*
Y1538303D03*
X2082504Y1491303D03*
Y1494803D03*
X1851927Y1577391D03*
X1944264Y1575977D03*
X1925527Y1575991D03*
X1921327Y1602167D03*
X2037504Y1548303D03*
X1992227Y1580167D03*
X2017146Y1599931D03*
X2011314Y1580193D03*
X2063504Y1553303D03*
Y1556803D03*
X2058504Y1553303D03*
Y1556803D03*
Y1565303D03*
Y1568803D03*
G54D58*
X2081845Y1600266D03*
Y1627825D03*
X2067278Y1600266D03*
Y1627825D03*
G54D65*
X2016657Y1498915D03*
X2024531D03*
X2032405D03*
X2040279D03*
Y1491041D03*
X2032405D03*
X2024531D03*
X2016657D03*
X1879493Y1498915D03*
X1887367D03*
X1895241D03*
X1903115D03*
Y1491041D03*
X1895241D03*
X1887367D03*
X1879493D03*
X1940201Y1498915D03*
X1948075D03*
X1955949D03*
X1963823D03*
X1971697D03*
X1979571D03*
Y1491041D03*
X1971697D03*
X1963823D03*
X1955949D03*
X1948075D03*
X1940201D03*
G74*
X0Y0D02*
M02*
