*
*
G04 PADS VX.2 Build Number: 5060570 generated Gerber (RS-274-X) file*
G04 PC Version=2.1*
*
%IN "ESP32-Sense-Series-Main"*%
*
%MOIN*%
*
%FSLAX35Y35*%
*
*
*
*
G04 PC Standard Apertures*
*
*
G04 Thermal Relief Aperture macro.*
%AMTER*
1,1,$1,0,0*
1,0,$1-$2,0,0*
21,0,$3,$4,0,0,45*
21,0,$3,$4,0,0,135*
%
*
*
G04 Annular Aperture macro.*
%AMANN*
1,1,$1,0,0*
1,0,$2,0,0*
%
*
*
G04 Odd Aperture macro.*
%AMODD*
1,1,$1,0,0*
1,0,$1-0.005,0,0*
%
*
*
G04 PC Custom Aperture Macros*
*
*
*
*
*
*
G04 PC Aperture Table*
*
%ADD010C,0.001*%
%ADD014C,0.004*%
%ADD016C,0.01*%
*
*
*
*
G04 PC Circuitry*
G04 Layer Name ESP32-Sense-Series-Main - circuitry*
%LPD*%
*
*
G04 PC Custom Flashes*
G04 Layer Name ESP32-Sense-Series-Main - flashes*
%LPD*%
*
*
G04 PC Circuitry*
G04 Layer Name ESP32-Sense-Series-Main - circuitry*
%LPD*%
*
G54D10*
G54D14*
G01X2089568Y1629839D02*
G75*
G03X2083436Y1635740I-6017J-116D01*
G01X2083440D02*
X2007704D01*
Y1611603*
X1936304*
Y1635704*
X1833353Y1635739*
G03X1830427Y1632814I-0J-2925*
G01Y1632815D02*
Y1200922D01*
G03X1836333Y1195017I5906J0*
G01X2083440*
X2083435D02*
G03X2089568Y1200918I116J6017D01*
G01Y1200922D02*
Y1242905D01*
Y1629835*
G54D16*
X2079420Y1600266D02*
X2087420D01*
X2083420Y1596266D02*
Y1604266D01*
X2086329Y1605547D02*
X2085420Y1602266D01*
X2086329Y1605547D02*
X2087238Y1602266D01*
X2085761Y1603359D02*
X2086897D01*
X2076270Y1600266D02*
X2084270D01*
X2080270Y1596266D02*
Y1604266D01*
X2083179Y1605547D02*
X2082270Y1602266D01*
X2083179Y1605547D02*
X2084088Y1602266D01*
X2082611Y1603359D02*
X2083748D01*
X2083420Y1599084D02*
G03Y1601447I-0J1182D01*
G01X2080270*
G03Y1599084I0J-1181*
G01X2083420*
X2079420Y1627825D02*
X2087420D01*
X2083420Y1623825D02*
Y1631825D01*
X2086329Y1633106D02*
X2085420Y1629825D01*
X2086329Y1633106D02*
X2087238Y1629825D01*
X2085761Y1630918D02*
X2086897D01*
X2076270Y1627825D02*
X2084270D01*
X2080270Y1623825D02*
Y1631825D01*
X2083179Y1633106D02*
X2082270Y1629825D01*
X2083179Y1633106D02*
X2084088Y1629825D01*
X2082611Y1630918D02*
X2083748D01*
X2083420Y1626643D02*
G03Y1629006I-0J1182D01*
G01X2080270*
G03Y1626643I0J-1181*
G01X2083420*
X2064853Y1600266D02*
X2072853D01*
X2068853Y1596266D02*
Y1604266D01*
X2071762Y1605547D02*
X2070853Y1602266D01*
X2071762Y1605547D02*
X2072671Y1602266D01*
X2071194Y1603359D02*
X2072330D01*
X2061703Y1600266D02*
X2069703D01*
X2065703Y1596266D02*
Y1604266D01*
X2068612Y1605547D02*
X2067703Y1602266D01*
X2068612Y1605547D02*
X2069522Y1602266D01*
X2068044Y1603359D02*
X2069181D01*
X2068853Y1599084D02*
G03Y1601447I-0J1182D01*
G01X2065703*
G03Y1599084I0J-1181*
G01X2068853*
X2064853Y1627825D02*
X2072853D01*
X2068853Y1623825D02*
Y1631825D01*
X2071762Y1633106D02*
X2070853Y1629825D01*
X2071762Y1633106D02*
X2072671Y1629825D01*
X2071194Y1630918D02*
X2072330D01*
X2061703Y1627825D02*
X2069703D01*
X2065703Y1623825D02*
Y1631825D01*
X2068612Y1633106D02*
X2067703Y1629825D01*
X2068612Y1633106D02*
X2069522Y1629825D01*
X2068044Y1630918D02*
X2069181D01*
X2068853Y1626643D02*
G03Y1629006I-0J1182D01*
G01X2065703*
G03Y1626643I0J-1181*
G01X2068853*
X2069340Y1606171D02*
X2077340D01*
X2073340Y1602171D02*
Y1610171D01*
X2075340Y1611452D02*
Y1608171D01*
Y1611452D02*
X2076363D01*
X2076703Y1611296*
X2076817Y1611140*
X2076931Y1610827*
Y1610515*
X2076817Y1610202*
X2076703Y1610046*
X2076363Y1609890*
X2075340D02*
X2076363D01*
X2076703Y1609734*
X2076817Y1609577*
X2076931Y1609265*
Y1608796*
X2076817Y1608484*
X2076703Y1608327*
X2076363Y1608171*
X2075340*
X2069340Y1621919D02*
X2077340D01*
X2073340Y1617919D02*
Y1625919D01*
X2075340Y1627200D02*
Y1623919D01*
Y1627200D02*
X2076363D01*
X2076703Y1627044*
X2076817Y1626888*
X2076931Y1626575*
Y1626263*
X2076817Y1625950*
X2076703Y1625794*
X2076363Y1625638*
X2075340D02*
X2076363D01*
X2076703Y1625482*
X2076817Y1625325*
X2076931Y1625013*
Y1624544*
X2076817Y1624232*
X2076703Y1624075*
X2076363Y1623919*
X2075340*
X2022518Y1622372D02*
X2030518Y1630372D01*
Y1622372*
X2022518Y1630372*
Y1622372*
Y1614498D02*
X2030518Y1622498D01*
Y1614498*
X2022518Y1622498*
Y1614498*
Y1606624D02*
X2030518Y1614624D01*
Y1606624*
X2022518Y1614624*
Y1606624*
X2040235Y1622372D02*
X2048235Y1630372D01*
Y1622372*
X2040235Y1630372*
Y1622372*
Y1614498D02*
X2048235Y1622498D01*
Y1614498*
X2040235Y1622498*
Y1614498*
Y1606624D02*
X2048235Y1614624D01*
Y1606624*
X2040235Y1614624*
Y1606624*
X1853427Y1214346D02*
X1861427D01*
X1857427Y1210346D02*
Y1218346D01*
X2058345Y1494978D02*
X2066345D01*
X2062345Y1490978D02*
Y1498978D01*
X1853427Y1494978D02*
X1861427D01*
X1857427Y1490978D02*
Y1498978D01*
X2058345Y1214346D02*
X2066345D01*
X2062345Y1210346D02*
Y1218346D01*
X2016657Y1494915D02*
X2020657Y1498915D01*
X2016657Y1502915*
X2012657Y1498915*
X2016657Y1494915*
Y1498915D02*
Y1502915D01*
X2024531Y1494915D02*
X2028531Y1498915D01*
X2024531Y1502915*
X2020531Y1498915*
X2024531Y1494915*
Y1498915D02*
Y1502915D01*
X2032405Y1494915D02*
X2036405Y1498915D01*
X2032405Y1502915*
X2028405Y1498915*
X2032405Y1494915*
Y1498915D02*
Y1502915D01*
X2040279Y1494915D02*
X2044279Y1498915D01*
X2040279Y1502915*
X2036279Y1498915*
X2040279Y1494915*
Y1498915D02*
Y1502915D01*
Y1487041D02*
X2044279Y1491041D01*
X2040279Y1495041*
X2036279Y1491041*
X2040279Y1487041*
Y1491041D02*
Y1495041D01*
X2032405Y1487041D02*
X2036405Y1491041D01*
X2032405Y1495041*
X2028405Y1491041*
X2032405Y1487041*
Y1491041D02*
Y1495041D01*
X2024531Y1487041D02*
X2028531Y1491041D01*
X2024531Y1495041*
X2020531Y1491041*
X2024531Y1487041*
Y1491041D02*
Y1495041D01*
X2016657Y1487041D02*
X2020657Y1491041D01*
X2016657Y1495041*
X2012657Y1491041*
X2016657Y1487041*
Y1491041D02*
Y1495041D01*
X1879493Y1494915D02*
X1883493Y1498915D01*
X1879493Y1502915*
X1875493Y1498915*
X1879493Y1494915*
Y1498915D02*
Y1502915D01*
X1887367Y1494915D02*
X1891367Y1498915D01*
X1887367Y1502915*
X1883367Y1498915*
X1887367Y1494915*
Y1498915D02*
Y1502915D01*
X1895241Y1494915D02*
X1899241Y1498915D01*
X1895241Y1502915*
X1891241Y1498915*
X1895241Y1494915*
Y1498915D02*
Y1502915D01*
X1903115Y1494915D02*
X1907115Y1498915D01*
X1903115Y1502915*
X1899115Y1498915*
X1903115Y1494915*
Y1498915D02*
Y1502915D01*
Y1487041D02*
X1907115Y1491041D01*
X1903115Y1495041*
X1899115Y1491041*
X1903115Y1487041*
Y1491041D02*
Y1495041D01*
X1895241Y1487041D02*
X1899241Y1491041D01*
X1895241Y1495041*
X1891241Y1491041*
X1895241Y1487041*
Y1491041D02*
Y1495041D01*
X1887367Y1487041D02*
X1891367Y1491041D01*
X1887367Y1495041*
X1883367Y1491041*
X1887367Y1487041*
Y1491041D02*
Y1495041D01*
X1879493Y1487041D02*
X1883493Y1491041D01*
X1879493Y1495041*
X1875493Y1491041*
X1879493Y1487041*
Y1491041D02*
Y1495041D01*
X1940201Y1494915D02*
X1944201Y1498915D01*
X1940201Y1502915*
X1936201Y1498915*
X1940201Y1494915*
Y1498915D02*
Y1502915D01*
X1948075Y1494915D02*
X1952075Y1498915D01*
X1948075Y1502915*
X1944075Y1498915*
X1948075Y1494915*
Y1498915D02*
Y1502915D01*
X1955949Y1494915D02*
X1959949Y1498915D01*
X1955949Y1502915*
X1951949Y1498915*
X1955949Y1494915*
Y1498915D02*
Y1502915D01*
X1963823Y1494915D02*
X1967823Y1498915D01*
X1963823Y1502915*
X1959823Y1498915*
X1963823Y1494915*
Y1498915D02*
Y1502915D01*
X1971697Y1494915D02*
X1975697Y1498915D01*
X1971697Y1502915*
X1967697Y1498915*
X1971697Y1494915*
Y1498915D02*
Y1502915D01*
X1979571Y1494915D02*
X1983571Y1498915D01*
X1979571Y1502915*
X1975571Y1498915*
X1979571Y1494915*
Y1498915D02*
Y1502915D01*
Y1487041D02*
X1983571Y1491041D01*
X1979571Y1495041*
X1975571Y1491041*
X1979571Y1487041*
Y1491041D02*
Y1495041D01*
X1971697Y1487041D02*
X1975697Y1491041D01*
X1971697Y1495041*
X1967697Y1491041*
X1971697Y1487041*
Y1491041D02*
Y1495041D01*
X1963823Y1487041D02*
X1967823Y1491041D01*
X1963823Y1495041*
X1959823Y1491041*
X1963823Y1487041*
Y1491041D02*
Y1495041D01*
X1955949Y1487041D02*
X1959949Y1491041D01*
X1955949Y1495041*
X1951949Y1491041*
X1955949Y1487041*
Y1491041D02*
Y1495041D01*
X1948075Y1487041D02*
X1952075Y1491041D01*
X1948075Y1495041*
X1944075Y1491041*
X1948075Y1487041*
Y1491041D02*
Y1495041D01*
X1940201Y1487041D02*
X1944201Y1491041D01*
X1940201Y1495041*
X1936201Y1491041*
X1940201Y1487041*
Y1491041D02*
Y1495041D01*
X2073555Y1522977D02*
X2081555D01*
X2073555Y1530977*
X2081555*
X2073555Y1522977*
X2063555D02*
X2071555D01*
X2063555Y1530977*
X2071555*
X2063555Y1522977*
X2053555D02*
X2061555D01*
X2053555Y1530977*
X2061555*
X2053555Y1522977*
X2043555D02*
X2051555D01*
X2043555Y1530977*
X2051555*
X2043555Y1522977*
X2033555D02*
X2041555D01*
X2033555Y1530977*
X2041555*
X2033555Y1522977*
X1875427Y1517090D02*
X1883427Y1525090D01*
X1875427D02*
X1883427Y1517090D01*
X1875377Y1506967D02*
X1883377Y1514967D01*
X1875377D02*
X1883377Y1506967D01*
X1847977Y1533767D02*
X1855977Y1541767D01*
X1847977D02*
X1855977Y1533767D01*
X1870677Y1543240D02*
X1878677Y1551240D01*
X1870677D02*
X1878677Y1543240D01*
X1855727Y1538290D02*
X1863727D01*
Y1546290*
X1855727*
Y1538290*
X1859727Y1542290D02*
Y1546290D01*
X1845777Y1530767D02*
X1853777Y1538767D01*
X1845777D02*
X1853777Y1530767D01*
X1837977Y1533567D02*
X1845977Y1541567D01*
X1837977D02*
X1845977Y1533567D01*
X1843177Y1533767D02*
X1851177Y1541767D01*
X1843177D02*
X1851177Y1533767D01*
X1848177Y1528167D02*
X1856177Y1536167D01*
X1848177D02*
X1856177Y1528167D01*
X1832977Y1533567D02*
X1840977Y1541567D01*
X1832977D02*
X1840977Y1533567D01*
X1868427Y1509090D02*
X1876427Y1517090D01*
X1868427D02*
X1876427Y1509090D01*
X1852904Y1510403D02*
X1860904Y1518403D01*
X1852904D02*
X1860904Y1510403D01*
X1852904Y1526803D02*
X1860904Y1534803D01*
X1852904D02*
X1860904Y1526803D01*
X1914327Y1500890D02*
X1922327Y1508890D01*
X1914327D02*
X1922327Y1500890D01*
X1918027Y1482990D02*
X1926027Y1490990D01*
X1918027D02*
X1926027Y1482990D01*
X1936727Y1523390D02*
X1944727Y1531390D01*
X1936727D02*
X1944727Y1523390D01*
X1956827Y1521990D02*
X1964827Y1529990D01*
X1956827D02*
X1964827Y1521990D01*
X1887927Y1520740D02*
X1895927Y1528740D01*
X1887927D02*
X1895927Y1520740D01*
X1885177D02*
X1893177Y1528740D01*
X1885177D02*
X1893177Y1520740D01*
X1938927Y1525490D02*
X1946927Y1533490D01*
X1938927D02*
X1946927Y1525490D01*
X2025504Y1530803D02*
X2033504D01*
Y1538803*
X2025504*
Y1530803*
X2029504Y1534803D02*
Y1538803D01*
X2025504Y1534303D02*
X2033504D01*
Y1542303*
X2025504*
Y1534303*
X2029504Y1538303D02*
Y1542303D01*
X2017027Y1518490D02*
X2025027Y1526490D01*
X2017027D02*
X2025027Y1518490D01*
X1995727Y1489990D02*
X2003727Y1497990D01*
X1995727D02*
X2003727Y1489990D01*
X1995727Y1482990D02*
X2003727Y1490990D01*
X1995727D02*
X2003727Y1482990D01*
X1963927Y1522090D02*
X1971927Y1530090D01*
X1963927D02*
X1971927Y1522090D01*
X1984968Y1500797D02*
X1992968Y1508797D01*
X1984968D02*
X1992968Y1500797D01*
X2078504Y1487303D02*
X2086504D01*
Y1495303*
X2078504*
Y1487303*
X2082504Y1491303D02*
Y1495303D01*
X2078504Y1490803D02*
X2086504D01*
Y1498803*
X2078504*
Y1490803*
X2082504Y1494803D02*
Y1498803D01*
X1851777Y1595167D02*
X1859777Y1603167D01*
X1851777D02*
X1859777Y1595167D01*
X1854579Y1620381D02*
X1862579Y1628381D01*
X1854579D02*
X1862579Y1620381D01*
X1866079Y1599881D02*
X1874079Y1607881D01*
X1866079D02*
X1874079Y1599881D01*
X1837579D02*
X1845579Y1607881D01*
X1837579D02*
X1845579Y1599881D01*
X1870677Y1546490D02*
X1878677Y1554490D01*
X1870677D02*
X1878677Y1546490D01*
X1880427Y1573740D02*
X1888427Y1581740D01*
X1880427D02*
X1888427Y1573740D01*
X1875427Y1567740D02*
X1883427Y1575740D01*
X1875427D02*
X1883427Y1567740D01*
X1850727Y1560390D02*
X1858727Y1568390D01*
X1850727D02*
X1858727Y1560390D01*
X1847777Y1577367D02*
X1855777Y1585367D01*
X1847777D02*
X1855777Y1577367D01*
X1847927Y1573390D02*
X1855927D01*
Y1581390*
X1847927*
Y1573390*
X1851927Y1577390D02*
Y1581390D01*
X1831579Y1602381D02*
X1839579Y1610381D01*
X1831579D02*
X1839579Y1602381D01*
X1860079D02*
X1868079Y1610381D01*
X1860079D02*
X1868079Y1602381D01*
X1840177Y1594967D02*
X1848177Y1602967D01*
X1840177D02*
X1848177Y1594967D01*
X1837579Y1615381D02*
X1845579Y1623381D01*
X1837579D02*
X1845579Y1615381D01*
X1866079D02*
X1874079Y1623381D01*
X1866079D02*
X1874079Y1615381D01*
X1845977Y1594967D02*
X1853977Y1602967D01*
X1845977D02*
X1853977Y1594967D01*
X1877579Y1617881D02*
X1885579Y1625881D01*
X1877579D02*
X1885579Y1617881D01*
X1849079D02*
X1857079Y1625881D01*
X1849079D02*
X1857079Y1617881D01*
X1834577Y1594967D02*
X1842577Y1602967D01*
X1834577D02*
X1842577Y1594967D01*
X1860079Y1612881D02*
X1868079Y1620881D01*
X1860079D02*
X1868079Y1612881D01*
X1832079D02*
X1840079Y1620881D01*
X1832079D02*
X1840079Y1612881D01*
X1854577Y1580367D02*
X1862577Y1588367D01*
X1854577D02*
X1862577Y1580367D01*
X1854579Y1594881D02*
X1862579Y1602881D01*
X1854579D02*
X1862579Y1594881D01*
X1850577Y1582367D02*
X1858577Y1590367D01*
X1850577D02*
X1858577Y1582367D01*
X1849079Y1597381D02*
X1857079Y1605381D01*
X1849079D02*
X1857079Y1597381D01*
X1877079D02*
X1885079Y1605381D01*
X1877079D02*
X1885079Y1597381D01*
X1846577Y1584567D02*
X1854577Y1592567D01*
X1846577D02*
X1854577Y1584567D01*
X1857977D02*
X1865977Y1592567D01*
X1857977D02*
X1865977Y1584567D01*
X1925764Y1577977D02*
X1933764Y1585977D01*
X1925764D02*
X1933764Y1577977D01*
X1939996Y1583431D02*
X1947996Y1591431D01*
X1939996D02*
X1947996Y1583431D01*
X1937996Y1581681D02*
X1945996Y1589681D01*
X1937996D02*
X1945996Y1581681D01*
X1925764Y1580227D02*
X1933764Y1588227D01*
X1925764D02*
X1933764Y1580227D01*
X1911527Y1620490D02*
X1919527Y1628490D01*
X1911527D02*
X1919527Y1620490D01*
X1883079Y1620381D02*
X1891079Y1628381D01*
X1883079D02*
X1891079Y1620381D01*
X1894579Y1599881D02*
X1902579Y1607881D01*
X1894579D02*
X1902579Y1599881D01*
X1914427Y1564290D02*
X1922427Y1572290D01*
X1914427D02*
X1922427Y1564290D01*
X1949327Y1574690D02*
X1957327Y1582690D01*
X1949327D02*
X1957327Y1574690D01*
X1946827Y1574190D02*
X1954827Y1582190D01*
X1946827D02*
X1954827Y1574190D01*
X1917177Y1606240D02*
X1925177Y1614240D01*
X1917177D02*
X1925177Y1606240D01*
X1917177Y1603490D02*
X1925177Y1611490D01*
X1917177D02*
X1925177Y1603490D01*
X1917177Y1587740D02*
X1925177Y1595740D01*
X1917177D02*
X1925177Y1587740D01*
X1889177Y1572990D02*
X1897177Y1580990D01*
X1889177D02*
X1897177Y1572990D01*
X1890177Y1564740D02*
X1898177Y1572740D01*
X1890177D02*
X1898177Y1564740D01*
X1940264Y1571977D02*
X1948264D01*
Y1579977*
X1940264*
Y1571977*
X1944264Y1575977D02*
Y1579977D01*
X1921527Y1571990D02*
X1929527D01*
Y1579990*
X1921527*
Y1571990*
X1925527Y1575990D02*
Y1579990D01*
X1917327Y1598167D02*
X1925327D01*
Y1606167*
X1917327*
Y1598167*
X1921327Y1602167D02*
Y1606167D01*
X1888579Y1602381D02*
X1896579Y1610381D01*
X1888579D02*
X1896579Y1602381D01*
X1937996Y1584931D02*
X1945996Y1592931D01*
X1937996D02*
X1945996Y1584931D01*
X1926627Y1582490D02*
X1934627Y1590490D01*
X1926627D02*
X1934627Y1582490D01*
X1937996Y1593431D02*
X1945996Y1601431D01*
X1937996D02*
X1945996Y1593431D01*
X1925777Y1584567D02*
X1933777Y1592567D01*
X1925777D02*
X1933777Y1584567D01*
X1894579Y1615381D02*
X1902579Y1623381D01*
X1894579D02*
X1902579Y1615381D01*
X1905527Y1617990D02*
X1913527Y1625990D01*
X1905527D02*
X1913527Y1617990D01*
X1888579Y1612881D02*
X1896579Y1620881D01*
X1888579D02*
X1896579Y1612881D01*
X1883079Y1594881D02*
X1891079Y1602881D01*
X1883079D02*
X1891079Y1594881D01*
X1911579D02*
X1919579Y1602881D01*
X1911579D02*
X1919579Y1594881D01*
X1905579Y1597381D02*
X1913579Y1605381D01*
X1905579D02*
X1913579Y1597381D01*
X1926927Y1574290D02*
X1934927Y1582290D01*
X1926927D02*
X1934927Y1574290D01*
X1937996Y1575681D02*
X1945996Y1583681D01*
X1937996D02*
X1945996Y1575681D01*
X2007014Y1586493D02*
X2015014Y1594493D01*
X2007014D02*
X2015014Y1586493D01*
X1984427Y1575190D02*
X1992427Y1583190D01*
X1984427D02*
X1992427Y1575190D01*
X1981227Y1575990D02*
X1989227Y1583990D01*
X1981227D02*
X1989227Y1575990D01*
X2020727Y1599590D02*
X2028727Y1607590D01*
X2020727D02*
X2028727Y1599590D01*
X2016227Y1599690D02*
X2024227Y1607690D01*
X2016227D02*
X2024227Y1599690D01*
X2033504Y1544303D02*
X2041504D01*
Y1552303*
X2033504*
Y1544303*
X2037504Y1548303D02*
Y1552303D01*
X1988227Y1576167D02*
X1996227D01*
Y1584167*
X1988227*
Y1576167*
X1992227Y1580167D02*
Y1584167D01*
X2013146Y1595931D02*
X2021146D01*
Y1603931*
X2013146*
Y1595931*
X2017146Y1599931D02*
Y1603931D01*
X2007314Y1576193D02*
X2015314D01*
Y1584193*
X2007314*
Y1576193*
X2011314Y1580193D02*
Y1584193D01*
X1998477Y1594167D02*
X2006477Y1602167D01*
X1998477D02*
X2006477Y1594167D01*
X1992927Y1565740D02*
X2000927Y1573740D01*
X1992927D02*
X2000927Y1565740D01*
X2011214Y1581593D02*
X2019214Y1589593D01*
X2011214D02*
X2019214Y1581593D01*
X2071469Y1562436D02*
X2079469Y1570436D01*
X2071469D02*
X2079469Y1562436D01*
X2059504Y1549303D02*
X2067504D01*
Y1557303*
X2059504*
Y1549303*
X2063504Y1553303D02*
Y1557303D01*
X2059504Y1552803D02*
X2067504D01*
Y1560803*
X2059504*
Y1552803*
X2063504Y1556803D02*
Y1560803D01*
X2054504Y1549303D02*
X2062504D01*
Y1557303*
X2054504*
Y1549303*
X2058504Y1553303D02*
Y1557303D01*
X2054504Y1552803D02*
X2062504D01*
Y1560803*
X2054504*
Y1552803*
X2058504Y1556803D02*
Y1560803D01*
X2054504Y1561303D02*
X2062504D01*
Y1569303*
X2054504*
Y1561303*
X2058504Y1565303D02*
Y1569303D01*
X2054504Y1564803D02*
X2062504D01*
Y1572803*
X2054504*
Y1564803*
X2058504Y1568803D02*
Y1572803D01*
X2060027Y1587490D02*
X2068027Y1595490D01*
X2060027D02*
X2068027Y1587490D01*
X2058427Y1619490D02*
X2066427Y1627490D01*
X2058427D02*
X2066427Y1619490D01*
X2046927Y1615990D02*
X2054927Y1623990D01*
X2046927D02*
X2054927Y1615990D01*
X2059927Y1591490D02*
X2067927Y1599490D01*
X2059927D02*
X2067927Y1591490D01*
X2047677Y1576740D02*
X2055677Y1584740D01*
X2047677D02*
X2055677Y1576740D01*
X2047677Y1579740D02*
X2055677Y1587740D01*
X2047677D02*
X2055677Y1579740D01*
X2071569Y1557436D02*
X2079569Y1565436D01*
X2071569D02*
X2079569Y1557436D01*
X2071469Y1567436D02*
X2079469Y1575436D01*
X2071469D02*
X2079469Y1567436D01*
X2073955Y1572977D02*
X2081955Y1580977D01*
X2073955D02*
X2081955Y1572977D01*
X2468504Y1790803D02*
X2726504D01*
X2468504Y1766803D02*
X2726504D01*
X2468504Y1742803D02*
X2726504D01*
X2468504Y1718803D02*
X2726504D01*
X2468504Y1694803D02*
X2726504D01*
X2468504Y1670803D02*
X2726504D01*
X2468504Y1646803D02*
X2726504D01*
X2468504Y1622803D02*
X2726504D01*
X2468504Y1598803D02*
X2726504D01*
X2468504Y1574803D02*
X2726504D01*
X2468504Y1790803D02*
Y1574803D01*
X2552504Y1790803D02*
Y1574803D01*
X2588504Y1790803D02*
Y1574803D01*
X2624504Y1790803D02*
Y1574803D01*
X2678504Y1790803D02*
Y1574803D01*
X2726504Y1790803D02*
Y1574803D01*
X2504004Y1779553D02*
X2503459Y1780303D01*
X2502640Y1780678*
X2501549*
X2500731Y1780303*
X2500186Y1779553*
Y1778803*
X2500459Y1778053*
X2500731Y1777678*
X2501277Y1777303*
X2502913Y1776553*
X2503459Y1776178*
X2503731Y1775803*
X2504004Y1775053*
Y1773928*
X2503459Y1773178*
X2502640Y1772803*
X2501549*
X2500731Y1773178*
X2500186Y1773928*
X2506459Y1780678D02*
Y1772803D01*
X2512731Y1780678D02*
X2508913Y1772803D01*
Y1780678D02*
X2512731D01*
X2508913Y1772803D02*
X2512731D01*
X2515186Y1780678D02*
Y1772803D01*
Y1780678D02*
X2518731D01*
X2515186Y1776928D02*
X2517368D01*
X2515186Y1772803D02*
X2518731D01*
X2562368Y1780678D02*
X2561822Y1780303D01*
X2561277Y1779553*
X2561004Y1778803*
X2560731Y1777678*
Y1775803*
X2561004Y1774678*
X2561277Y1773928*
X2561822Y1773178*
X2562368Y1772803*
X2563459*
X2564004Y1773178*
X2564549Y1773928*
X2564822Y1774678*
X2565095Y1775803*
Y1777678*
X2564822Y1778803*
X2564549Y1779553*
X2564004Y1780303*
X2563459Y1780678*
X2562368*
X2563186Y1774303D02*
X2564822Y1772053D01*
X2569459Y1780678D02*
Y1772803D01*
X2567549Y1780678D02*
X2571368D01*
X2573822D02*
X2576004Y1776928D01*
Y1772803*
X2578186Y1780678D02*
X2576004Y1776928D01*
X2600549Y1779553D02*
X2600004Y1780303D01*
X2599186Y1780678*
X2598095*
X2597277Y1780303*
X2596731Y1779553*
Y1778803*
X2597004Y1778053*
X2597277Y1777678*
X2597822Y1777303*
X2599459Y1776553*
X2600004Y1776178*
X2600277Y1775803*
X2600549Y1775053*
Y1773928*
X2600004Y1773178*
X2599186Y1772803*
X2598095*
X2597277Y1773178*
X2596731Y1773928*
X2603004Y1780678D02*
X2605186Y1776928D01*
Y1772803*
X2607368Y1780678D02*
X2605186Y1776928D01*
X2609822Y1780678D02*
Y1772803D01*
Y1780678D02*
X2612004Y1772803D01*
X2614186Y1780678D02*
X2612004Y1772803D01*
X2614186Y1780678D02*
Y1772803D01*
X2636004Y1780678D02*
Y1772803D01*
Y1780678D02*
X2638459D01*
X2639277Y1780303*
X2639549Y1779928*
X2639822Y1779178*
Y1778053*
X2639549Y1777303*
X2639277Y1776928*
X2638459Y1776553*
X2636004*
X2642277Y1780678D02*
Y1772803D01*
X2645549*
X2650186Y1780678D02*
X2648004Y1772803D01*
X2650186Y1780678D02*
X2652368Y1772803D01*
X2648822Y1775428D02*
X2651549D01*
X2656731Y1780678D02*
Y1772803D01*
X2654822Y1780678D02*
X2658640D01*
X2661095D02*
Y1772803D01*
Y1780678D02*
X2664640D01*
X2661095Y1776928D02*
X2663277D01*
X2661095Y1772803D02*
X2664640D01*
X2667095Y1780678D02*
Y1772803D01*
Y1780678D02*
X2669004D01*
X2669822Y1780303*
X2670368Y1779553*
X2670640Y1778803*
X2670913Y1777678*
Y1775803*
X2670640Y1774678*
X2670368Y1773928*
X2669822Y1773178*
X2669004Y1772803*
X2667095*
X2695186Y1780678D02*
Y1772803D01*
X2693277Y1780678D02*
X2697095D01*
X2701186D02*
X2700640Y1780303D01*
X2700095Y1779553*
X2699822Y1778803*
X2699549Y1777678*
Y1775803*
X2699822Y1774678*
X2700095Y1773928*
X2700640Y1773178*
X2701186Y1772803*
X2702277*
X2702822Y1773178*
X2703368Y1773928*
X2703640Y1774678*
X2703913Y1775803*
Y1777678*
X2703640Y1778803*
X2703368Y1779553*
X2702822Y1780303*
X2702277Y1780678*
X2701186*
X2706368D02*
Y1772803D01*
X2709640*
X2475049Y1756678D02*
X2478049D01*
X2476413Y1753678*
X2477231*
X2477777Y1753303*
X2478049Y1752928*
X2478322Y1751803*
Y1751053*
X2478049Y1749928*
X2477504Y1749178*
X2476686Y1748803*
X2475868*
X2475049Y1749178*
X2474777Y1749553*
X2474504Y1750303*
X2481049Y1749553D02*
X2480777Y1749178D01*
X2481049Y1748803*
X2481322Y1749178*
X2481049Y1749553*
X2484049Y1754803D02*
Y1755178D01*
X2484322Y1755928*
X2484595Y1756303*
X2485140Y1756678*
X2486231*
X2486777Y1756303*
X2487049Y1755928*
X2487322Y1755178*
Y1754428*
X2487049Y1753678*
X2486504Y1752553*
X2483777Y1748803*
X2487595*
X2570140Y1756678D02*
X2567413Y1751428D01*
X2571504*
X2570140Y1756678D02*
Y1748803D01*
X2600504Y1754803D02*
X2612504D01*
X2606504Y1748803D02*
Y1760803D01*
X2636140Y1756678D02*
Y1748803D01*
Y1756678D02*
X2639959Y1748803D01*
Y1756678D02*
Y1748803D01*
X2644049Y1756678D02*
X2643504Y1756303D01*
X2642959Y1755553*
X2642686Y1754803*
X2642413Y1753678*
Y1751803*
X2642686Y1750678*
X2642959Y1749928*
X2643504Y1749178*
X2644049Y1748803*
X2645140*
X2645686Y1749178*
X2646231Y1749928*
X2646504Y1750678*
X2646777Y1751803*
Y1753678*
X2646504Y1754803*
X2646231Y1755553*
X2645686Y1756303*
X2645140Y1756678*
X2644049*
X2686322Y1755553D02*
Y1748803D01*
X2683868Y1752178D02*
X2688777D01*
X2696140Y1758178D02*
X2691231Y1746178D01*
X2698595Y1752178D02*
X2703504D01*
X2707595Y1756678D02*
X2706777Y1756303D01*
X2706231Y1755178*
X2705959Y1753303*
Y1752178*
X2706231Y1750303*
X2706777Y1749178*
X2707595Y1748803*
X2708140*
X2708959Y1749178*
X2709504Y1750303*
X2709777Y1752178*
Y1753303*
X2709504Y1755178*
X2708959Y1756303*
X2708140Y1756678*
X2707595*
X2712504Y1749553D02*
X2712231Y1749178D01*
X2712504Y1748803*
X2712777Y1749178*
X2712504Y1749553*
X2716868Y1756678D02*
X2716049Y1756303D01*
X2715504Y1755178*
X2715231Y1753303*
Y1752178*
X2715504Y1750303*
X2716049Y1749178*
X2716868Y1748803*
X2717413*
X2718231Y1749178*
X2718777Y1750303*
X2719049Y1752178*
Y1753303*
X2718777Y1755178*
X2718231Y1756303*
X2717413Y1756678*
X2716868*
X2476140Y1732678D02*
X2475322Y1732303D01*
X2474777Y1731178*
X2474504Y1729303*
Y1728178*
X2474777Y1726303*
X2475322Y1725178*
X2476140Y1724803*
X2476686*
X2477504Y1725178*
X2478049Y1726303*
X2478322Y1728178*
Y1729303*
X2478049Y1731178*
X2477504Y1732303*
X2476686Y1732678*
X2476140*
X2481049Y1725553D02*
X2480777Y1725178D01*
X2481049Y1724803*
X2481322Y1725178*
X2481049Y1725553*
X2484049Y1730803D02*
Y1731178D01*
X2484322Y1731928*
X2484595Y1732303*
X2485140Y1732678*
X2486231*
X2486777Y1732303*
X2487049Y1731928*
X2487322Y1731178*
Y1730428*
X2487049Y1729678*
X2486504Y1728553*
X2483777Y1724803*
X2487595*
X2490322Y1730803D02*
Y1731178D01*
X2490595Y1731928*
X2490868Y1732303*
X2491413Y1732678*
X2492504*
X2493049Y1732303*
X2493322Y1731928*
X2493595Y1731178*
Y1730428*
X2493322Y1729678*
X2492777Y1728553*
X2490049Y1724803*
X2493868*
X2497686Y1732678D02*
X2496868Y1732303D01*
X2496595Y1731553*
Y1730803*
X2496868Y1730053*
X2497413Y1729678*
X2498504Y1729303*
X2499322Y1728928*
X2499868Y1728178*
X2500140Y1727428*
Y1726303*
X2499868Y1725553*
X2499595Y1725178*
X2498777Y1724803*
X2497686*
X2496868Y1725178*
X2496595Y1725553*
X2496322Y1726303*
Y1727428*
X2496595Y1728178*
X2497140Y1728928*
X2497959Y1729303*
X2499049Y1729678*
X2499595Y1730053*
X2499868Y1730803*
Y1731553*
X2499595Y1732303*
X2498777Y1732678*
X2497686*
X2505868Y1731553D02*
X2505595Y1732303D01*
X2504777Y1732678*
X2504231*
X2503413Y1732303*
X2502868Y1731178*
X2502595Y1729303*
Y1727428*
X2502868Y1725928*
X2503413Y1725178*
X2504231Y1724803*
X2504504*
X2505322Y1725178*
X2505868Y1725928*
X2506140Y1727053*
Y1727428*
X2505868Y1728553*
X2505322Y1729303*
X2504504Y1729678*
X2504231*
X2503413Y1729303*
X2502868Y1728553*
X2502595Y1727428*
X2568095Y1730053D02*
X2567822Y1728928D01*
X2567277Y1728178*
X2566459Y1727803*
X2566186*
X2565368Y1728178*
X2564822Y1728928*
X2564549Y1730053*
Y1730428*
X2564822Y1731553*
X2565368Y1732303*
X2566186Y1732678*
X2566459*
X2567277Y1732303*
X2567822Y1731553*
X2568095Y1730053*
Y1728178*
X2567822Y1726303*
X2567277Y1725178*
X2566459Y1724803*
X2565913*
X2565095Y1725178*
X2564822Y1725928*
X2574368Y1732678D02*
X2571640Y1724803D01*
X2570549Y1732678D02*
X2574368D01*
X2600504Y1724803D02*
X2612504Y1736803D01*
X2600504D02*
X2612504Y1724803D01*
X2633140Y1732678D02*
X2635322Y1728928D01*
Y1724803*
X2637504Y1732678D02*
X2635322Y1728928D01*
X2639959Y1732678D02*
Y1724803D01*
Y1732678D02*
X2643504D01*
X2639959Y1728928D02*
X2642140D01*
X2639959Y1724803D02*
X2643504D01*
X2649777Y1731553D02*
X2649231Y1732303D01*
X2648413Y1732678*
X2647322*
X2646504Y1732303*
X2645959Y1731553*
Y1730803*
X2646231Y1730053*
X2646504Y1729678*
X2647049Y1729303*
X2648686Y1728553*
X2649231Y1728178*
X2649504Y1727803*
X2649777Y1727053*
Y1725928*
X2649231Y1725178*
X2648413Y1724803*
X2647322*
X2646504Y1725178*
X2645959Y1725928*
X2686322Y1731553D02*
Y1724803D01*
X2683868Y1728178D02*
X2688777D01*
X2696140Y1734178D02*
X2691231Y1722178D01*
X2698595Y1728178D02*
X2703504D01*
X2707595Y1732678D02*
X2706777Y1732303D01*
X2706231Y1731178*
X2705959Y1729303*
Y1728178*
X2706231Y1726303*
X2706777Y1725178*
X2707595Y1724803*
X2708140*
X2708959Y1725178*
X2709504Y1726303*
X2709777Y1728178*
Y1729303*
X2709504Y1731178*
X2708959Y1732303*
X2708140Y1732678*
X2707595*
X2712504Y1725553D02*
X2712231Y1725178D01*
X2712504Y1724803*
X2712777Y1725178*
X2712504Y1725553*
X2716868Y1732678D02*
X2716049Y1732303D01*
X2715504Y1731178*
X2715231Y1729303*
Y1728178*
X2715504Y1726303*
X2716049Y1725178*
X2716868Y1724803*
X2717413*
X2718231Y1725178*
X2718777Y1726303*
X2719049Y1728178*
Y1729303*
X2718777Y1731178*
X2718231Y1732303*
X2717413Y1732678*
X2716868*
X2476140Y1708678D02*
X2475322Y1708303D01*
X2474777Y1707178*
X2474504Y1705303*
Y1704178*
X2474777Y1702303*
X2475322Y1701178*
X2476140Y1700803*
X2476686*
X2477504Y1701178*
X2478049Y1702303*
X2478322Y1704178*
Y1705303*
X2478049Y1707178*
X2477504Y1708303*
X2476686Y1708678*
X2476140*
X2481049Y1701553D02*
X2480777Y1701178D01*
X2481049Y1700803*
X2481322Y1701178*
X2481049Y1701553*
X2484322Y1708678D02*
X2487322D01*
X2485686Y1705678*
X2486504*
X2487049Y1705303*
X2487322Y1704928*
X2487595Y1703803*
Y1703053*
X2487322Y1701928*
X2486777Y1701178*
X2485959Y1700803*
X2485140*
X2484322Y1701178*
X2484049Y1701553*
X2483777Y1702303*
X2491686Y1708678D02*
X2490868Y1708303D01*
X2490322Y1707178*
X2490049Y1705303*
Y1704178*
X2490322Y1702303*
X2490868Y1701178*
X2491686Y1700803*
X2492231*
X2493049Y1701178*
X2493595Y1702303*
X2493868Y1704178*
Y1705303*
X2493595Y1707178*
X2493049Y1708303*
X2492231Y1708678*
X2491686*
X2499049D02*
X2496322Y1703428D01*
X2500413*
X2499049Y1708678D02*
Y1700803D01*
X2504231Y1708678D02*
X2503413Y1708303D01*
X2503140Y1707553*
Y1706803*
X2503413Y1706053*
X2503959Y1705678*
X2505049Y1705303*
X2505868Y1704928*
X2506413Y1704178*
X2506686Y1703428*
Y1702303*
X2506413Y1701553*
X2506140Y1701178*
X2505322Y1700803*
X2504231*
X2503413Y1701178*
X2503140Y1701553*
X2502868Y1702303*
Y1703428*
X2503140Y1704178*
X2503686Y1704928*
X2504504Y1705303*
X2505595Y1705678*
X2506140Y1706053*
X2506413Y1706803*
Y1707553*
X2506140Y1708303*
X2505322Y1708678*
X2504231*
X2565777Y1707178D02*
X2566322Y1707553D01*
X2567140Y1708678*
Y1700803*
X2573140Y1706053D02*
X2572868Y1704928D01*
X2572322Y1704178*
X2571504Y1703803*
X2571231*
X2570413Y1704178*
X2569868Y1704928*
X2569595Y1706053*
Y1706428*
X2569868Y1707553*
X2570413Y1708303*
X2571231Y1708678*
X2571504*
X2572322Y1708303*
X2572868Y1707553*
X2573140Y1706053*
Y1704178*
X2572868Y1702303*
X2572322Y1701178*
X2571504Y1700803*
X2570959*
X2570140Y1701178*
X2569868Y1701928*
X2600504Y1700803D02*
X2612504D01*
Y1712803*
X2600504*
Y1700803*
X2606504Y1706803D02*
Y1712803D01*
X2633140Y1708678D02*
X2635322Y1704928D01*
Y1700803*
X2637504Y1708678D02*
X2635322Y1704928D01*
X2639959Y1708678D02*
Y1700803D01*
Y1708678D02*
X2643504D01*
X2639959Y1704928D02*
X2642140D01*
X2639959Y1700803D02*
X2643504D01*
X2649777Y1707553D02*
X2649231Y1708303D01*
X2648413Y1708678*
X2647322*
X2646504Y1708303*
X2645959Y1707553*
Y1706803*
X2646231Y1706053*
X2646504Y1705678*
X2647049Y1705303*
X2648686Y1704553*
X2649231Y1704178*
X2649504Y1703803*
X2649777Y1703053*
Y1701928*
X2649231Y1701178*
X2648413Y1700803*
X2647322*
X2646504Y1701178*
X2645959Y1701928*
X2686322Y1707553D02*
Y1700803D01*
X2683868Y1704178D02*
X2688777D01*
X2696140Y1710178D02*
X2691231Y1698178D01*
X2698595Y1704178D02*
X2703504D01*
X2707595Y1708678D02*
X2706777Y1708303D01*
X2706231Y1707178*
X2705959Y1705303*
Y1704178*
X2706231Y1702303*
X2706777Y1701178*
X2707595Y1700803*
X2708140*
X2708959Y1701178*
X2709504Y1702303*
X2709777Y1704178*
Y1705303*
X2709504Y1707178*
X2708959Y1708303*
X2708140Y1708678*
X2707595*
X2712504Y1701553D02*
X2712231Y1701178D01*
X2712504Y1700803*
X2712777Y1701178*
X2712504Y1701553*
X2716868Y1708678D02*
X2716049Y1708303D01*
X2715504Y1707178*
X2715231Y1705303*
Y1704178*
X2715504Y1702303*
X2716049Y1701178*
X2716868Y1700803*
X2717413*
X2718231Y1701178*
X2718777Y1702303*
X2719049Y1704178*
Y1705303*
X2718777Y1707178*
X2718231Y1708303*
X2717413Y1708678*
X2716868*
X2476140Y1684678D02*
X2475322Y1684303D01*
X2474777Y1683178*
X2474504Y1681303*
Y1680178*
X2474777Y1678303*
X2475322Y1677178*
X2476140Y1676803*
X2476686*
X2477504Y1677178*
X2478049Y1678303*
X2478322Y1680178*
Y1681303*
X2478049Y1683178*
X2477504Y1684303*
X2476686Y1684678*
X2476140*
X2481049Y1677553D02*
X2480777Y1677178D01*
X2481049Y1676803*
X2481322Y1677178*
X2481049Y1677553*
X2487595Y1684678D02*
X2484868Y1676803D01*
X2483777Y1684678D02*
X2487595D01*
X2564686Y1682803D02*
Y1683178D01*
X2564959Y1683928*
X2565231Y1684303*
X2565777Y1684678*
X2566868*
X2567413Y1684303*
X2567686Y1683928*
X2567959Y1683178*
Y1682428*
X2567686Y1681678*
X2567140Y1680553*
X2564413Y1676803*
X2568231*
X2572049Y1684678D02*
X2571231Y1684303D01*
X2570959Y1683553*
Y1682803*
X2571231Y1682053*
X2571777Y1681678*
X2572868Y1681303*
X2573686Y1680928*
X2574231Y1680178*
X2574504Y1679428*
Y1678303*
X2574231Y1677553*
X2573959Y1677178*
X2573140Y1676803*
X2572049*
X2571231Y1677178*
X2570959Y1677553*
X2570686Y1678303*
Y1679428*
X2570959Y1680178*
X2571504Y1680928*
X2572322Y1681303*
X2573413Y1681678*
X2573959Y1682053*
X2574231Y1682803*
Y1683553*
X2573959Y1684303*
X2573140Y1684678*
X2572049*
X2606504Y1676803D02*
X2612504Y1682803D01*
X2606504Y1688803*
X2600504Y1682803*
X2606504Y1676803*
Y1682803D02*
Y1688803D01*
X2633140Y1684678D02*
X2635322Y1680928D01*
Y1676803*
X2637504Y1684678D02*
X2635322Y1680928D01*
X2639959Y1684678D02*
Y1676803D01*
Y1684678D02*
X2643504D01*
X2639959Y1680928D02*
X2642140D01*
X2639959Y1676803D02*
X2643504D01*
X2649777Y1683553D02*
X2649231Y1684303D01*
X2648413Y1684678*
X2647322*
X2646504Y1684303*
X2645959Y1683553*
Y1682803*
X2646231Y1682053*
X2646504Y1681678*
X2647049Y1681303*
X2648686Y1680553*
X2649231Y1680178*
X2649504Y1679803*
X2649777Y1679053*
Y1677928*
X2649231Y1677178*
X2648413Y1676803*
X2647322*
X2646504Y1677178*
X2645959Y1677928*
X2686322Y1683553D02*
Y1676803D01*
X2683868Y1680178D02*
X2688777D01*
X2696140Y1686178D02*
X2691231Y1674178D01*
X2698595Y1680178D02*
X2703504D01*
X2707595Y1684678D02*
X2706777Y1684303D01*
X2706231Y1683178*
X2705959Y1681303*
Y1680178*
X2706231Y1678303*
X2706777Y1677178*
X2707595Y1676803*
X2708140*
X2708959Y1677178*
X2709504Y1678303*
X2709777Y1680178*
Y1681303*
X2709504Y1683178*
X2708959Y1684303*
X2708140Y1684678*
X2707595*
X2712504Y1677553D02*
X2712231Y1677178D01*
X2712504Y1676803*
X2712777Y1677178*
X2712504Y1677553*
X2716868Y1684678D02*
X2716049Y1684303D01*
X2715504Y1683178*
X2715231Y1681303*
Y1680178*
X2715504Y1678303*
X2716049Y1677178*
X2716868Y1676803*
X2717413*
X2718231Y1677178*
X2718777Y1678303*
X2719049Y1680178*
Y1681303*
X2718777Y1683178*
X2718231Y1684303*
X2717413Y1684678*
X2716868*
X2474504Y1659178D02*
X2475049Y1659553D01*
X2475868Y1660678*
Y1652803*
X2478595Y1653553D02*
X2478322Y1653178D01*
X2478595Y1652803*
X2478868Y1653178*
X2478595Y1653553*
X2482959Y1660678D02*
X2482140Y1660303D01*
X2481595Y1659178*
X2481322Y1657303*
Y1656178*
X2481595Y1654303*
X2482140Y1653178*
X2482959Y1652803*
X2483504*
X2484322Y1653178*
X2484868Y1654303*
X2485140Y1656178*
Y1657303*
X2484868Y1659178*
X2484322Y1660303*
X2483504Y1660678*
X2482959*
X2487595Y1659178D02*
X2488140Y1659553D01*
X2488959Y1660678*
Y1652803*
X2494686Y1659553D02*
X2494413Y1660303D01*
X2493595Y1660678*
X2493049*
X2492231Y1660303*
X2491686Y1659178*
X2491413Y1657303*
Y1655428*
X2491686Y1653928*
X2492231Y1653178*
X2493049Y1652803*
X2493322*
X2494140Y1653178*
X2494686Y1653928*
X2494959Y1655053*
Y1655428*
X2494686Y1656553*
X2494140Y1657303*
X2493322Y1657678*
X2493049*
X2492231Y1657303*
X2491686Y1656553*
X2491413Y1655428*
X2570959Y1660678D02*
X2568231D01*
X2567959Y1657303*
X2568231Y1657678*
X2569049Y1658053*
X2569868*
X2570686Y1657678*
X2571231Y1656928*
X2571504Y1655803*
X2571231Y1655053*
X2570959Y1653928*
X2570413Y1653178*
X2569595Y1652803*
X2568777*
X2567959Y1653178*
X2567686Y1653553*
X2567413Y1654303*
X2600504Y1652803D02*
X2612504D01*
X2600504Y1664803*
X2612504*
X2600504Y1652803*
X2633140Y1660678D02*
X2635322Y1656928D01*
Y1652803*
X2637504Y1660678D02*
X2635322Y1656928D01*
X2639959Y1660678D02*
Y1652803D01*
Y1660678D02*
X2643504D01*
X2639959Y1656928D02*
X2642140D01*
X2639959Y1652803D02*
X2643504D01*
X2649777Y1659553D02*
X2649231Y1660303D01*
X2648413Y1660678*
X2647322*
X2646504Y1660303*
X2645959Y1659553*
Y1658803*
X2646231Y1658053*
X2646504Y1657678*
X2647049Y1657303*
X2648686Y1656553*
X2649231Y1656178*
X2649504Y1655803*
X2649777Y1655053*
Y1653928*
X2649231Y1653178*
X2648413Y1652803*
X2647322*
X2646504Y1653178*
X2645959Y1653928*
X2686322Y1659553D02*
Y1652803D01*
X2683868Y1656178D02*
X2688777D01*
X2696140Y1662178D02*
X2691231Y1650178D01*
X2698595Y1656178D02*
X2703504D01*
X2707595Y1660678D02*
X2706777Y1660303D01*
X2706231Y1659178*
X2705959Y1657303*
Y1656178*
X2706231Y1654303*
X2706777Y1653178*
X2707595Y1652803*
X2708140*
X2708959Y1653178*
X2709504Y1654303*
X2709777Y1656178*
Y1657303*
X2709504Y1659178*
X2708959Y1660303*
X2708140Y1660678*
X2707595*
X2712504Y1653553D02*
X2712231Y1653178D01*
X2712504Y1652803*
X2712777Y1653178*
X2712504Y1653553*
X2716868Y1660678D02*
X2716049Y1660303D01*
X2715504Y1659178*
X2715231Y1657303*
Y1656178*
X2715504Y1654303*
X2716049Y1653178*
X2716868Y1652803*
X2717413*
X2718231Y1653178*
X2718777Y1654303*
X2719049Y1656178*
Y1657303*
X2718777Y1659178*
X2718231Y1660303*
X2717413Y1660678*
X2716868*
X2476140Y1636678D02*
X2475322Y1636303D01*
X2474777Y1635178*
X2474504Y1633303*
Y1632178*
X2474777Y1630303*
X2475322Y1629178*
X2476140Y1628803*
X2476686*
X2477504Y1629178*
X2478049Y1630303*
X2478322Y1632178*
Y1633303*
X2478049Y1635178*
X2477504Y1636303*
X2476686Y1636678*
X2476140*
X2481049Y1629553D02*
X2480777Y1629178D01*
X2481049Y1628803*
X2481322Y1629178*
X2481049Y1629553*
X2487322Y1634053D02*
X2487049Y1632928D01*
X2486504Y1632178*
X2485686Y1631803*
X2485413*
X2484595Y1632178*
X2484049Y1632928*
X2483777Y1634053*
Y1634428*
X2484049Y1635553*
X2484595Y1636303*
X2485413Y1636678*
X2485686*
X2486504Y1636303*
X2487049Y1635553*
X2487322Y1634053*
Y1632178*
X2487049Y1630303*
X2486504Y1629178*
X2485686Y1628803*
X2485140*
X2484322Y1629178*
X2484049Y1629928*
X2570959Y1635553D02*
X2570686Y1636303D01*
X2569868Y1636678*
X2569322*
X2568504Y1636303*
X2567959Y1635178*
X2567686Y1633303*
Y1631428*
X2567959Y1629928*
X2568504Y1629178*
X2569322Y1628803*
X2569595*
X2570413Y1629178*
X2570959Y1629928*
X2571231Y1631053*
Y1631428*
X2570959Y1632553*
X2570413Y1633303*
X2569595Y1633678*
X2569322*
X2568504Y1633303*
X2567959Y1632553*
X2567686Y1631428*
X2600504Y1628803D02*
X2612504Y1640803D01*
Y1628803*
X2600504Y1640803*
Y1628803*
X2633140Y1636678D02*
X2635322Y1632928D01*
Y1628803*
X2637504Y1636678D02*
X2635322Y1632928D01*
X2639959Y1636678D02*
Y1628803D01*
Y1636678D02*
X2643504D01*
X2639959Y1632928D02*
X2642140D01*
X2639959Y1628803D02*
X2643504D01*
X2649777Y1635553D02*
X2649231Y1636303D01*
X2648413Y1636678*
X2647322*
X2646504Y1636303*
X2645959Y1635553*
Y1634803*
X2646231Y1634053*
X2646504Y1633678*
X2647049Y1633303*
X2648686Y1632553*
X2649231Y1632178*
X2649504Y1631803*
X2649777Y1631053*
Y1629928*
X2649231Y1629178*
X2648413Y1628803*
X2647322*
X2646504Y1629178*
X2645959Y1629928*
X2686322Y1635553D02*
Y1628803D01*
X2683868Y1632178D02*
X2688777D01*
X2696140Y1638178D02*
X2691231Y1626178D01*
X2698595Y1632178D02*
X2703504D01*
X2707595Y1636678D02*
X2706777Y1636303D01*
X2706231Y1635178*
X2705959Y1633303*
Y1632178*
X2706231Y1630303*
X2706777Y1629178*
X2707595Y1628803*
X2708140*
X2708959Y1629178*
X2709504Y1630303*
X2709777Y1632178*
Y1633303*
X2709504Y1635178*
X2708959Y1636303*
X2708140Y1636678*
X2707595*
X2712504Y1629553D02*
X2712231Y1629178D01*
X2712504Y1628803*
X2712777Y1629178*
X2712504Y1629553*
X2716868Y1636678D02*
X2716049Y1636303D01*
X2715504Y1635178*
X2715231Y1633303*
Y1632178*
X2715504Y1630303*
X2716049Y1629178*
X2716868Y1628803*
X2717413*
X2718231Y1629178*
X2718777Y1630303*
X2719049Y1632178*
Y1633303*
X2718777Y1635178*
X2718231Y1636303*
X2717413Y1636678*
X2716868*
X2476140Y1612678D02*
X2475322Y1612303D01*
X2474777Y1611178*
X2474504Y1609303*
Y1608178*
X2474777Y1606303*
X2475322Y1605178*
X2476140Y1604803*
X2476686*
X2477504Y1605178*
X2478049Y1606303*
X2478322Y1608178*
Y1609303*
X2478049Y1611178*
X2477504Y1612303*
X2476686Y1612678*
X2476140*
X2481049Y1605553D02*
X2480777Y1605178D01*
X2481049Y1604803*
X2481322Y1605178*
X2481049Y1605553*
X2487049Y1611553D02*
X2486777Y1612303D01*
X2485959Y1612678*
X2485413*
X2484595Y1612303*
X2484049Y1611178*
X2483777Y1609303*
Y1607428*
X2484049Y1605928*
X2484595Y1605178*
X2485413Y1604803*
X2485686*
X2486504Y1605178*
X2487049Y1605928*
X2487322Y1607053*
Y1607428*
X2487049Y1608553*
X2486504Y1609303*
X2485686Y1609678*
X2485413*
X2484595Y1609303*
X2484049Y1608553*
X2483777Y1607428*
X2496049Y1610053D02*
X2499049Y1604803D01*
Y1610053D02*
X2496049Y1604803D01*
X2507777Y1611178D02*
X2508322Y1611553D01*
X2509140Y1612678*
Y1604803*
X2511868Y1605553D02*
X2511595Y1605178D01*
X2511868Y1604803*
X2512140Y1605178*
X2511868Y1605553*
X2517322Y1612678D02*
X2514595Y1607428D01*
X2518686*
X2517322Y1612678D02*
Y1604803D01*
X2570140Y1612678D02*
X2567413Y1607428D01*
X2571504*
X2570140Y1612678D02*
Y1604803D01*
X2600504Y1610803D02*
X2612504D01*
X2606504Y1604803D02*
Y1616803D01*
X2611249Y1620103D02*
X2609504Y1613803D01*
X2611249Y1620103D02*
X2612995Y1613803D01*
X2610159Y1615903D02*
X2612340D01*
X2633140Y1612678D02*
X2635322Y1608928D01*
Y1604803*
X2637504Y1612678D02*
X2635322Y1608928D01*
X2639959Y1612678D02*
Y1604803D01*
Y1612678D02*
X2643504D01*
X2639959Y1608928D02*
X2642140D01*
X2639959Y1604803D02*
X2643504D01*
X2649777Y1611553D02*
X2649231Y1612303D01*
X2648413Y1612678*
X2647322*
X2646504Y1612303*
X2645959Y1611553*
Y1610803*
X2646231Y1610053*
X2646504Y1609678*
X2647049Y1609303*
X2648686Y1608553*
X2649231Y1608178*
X2649504Y1607803*
X2649777Y1607053*
Y1605928*
X2649231Y1605178*
X2648413Y1604803*
X2647322*
X2646504Y1605178*
X2645959Y1605928*
X2686322Y1611553D02*
Y1604803D01*
X2683868Y1608178D02*
X2688777D01*
X2696140Y1614178D02*
X2691231Y1602178D01*
X2698595Y1608178D02*
X2703504D01*
X2707595Y1612678D02*
X2706777Y1612303D01*
X2706231Y1611178*
X2705959Y1609303*
Y1608178*
X2706231Y1606303*
X2706777Y1605178*
X2707595Y1604803*
X2708140*
X2708959Y1605178*
X2709504Y1606303*
X2709777Y1608178*
Y1609303*
X2709504Y1611178*
X2708959Y1612303*
X2708140Y1612678*
X2707595*
X2712504Y1605553D02*
X2712231Y1605178D01*
X2712504Y1604803*
X2712777Y1605178*
X2712504Y1605553*
X2716868Y1612678D02*
X2716049Y1612303D01*
X2715504Y1611178*
X2715231Y1609303*
Y1608178*
X2715504Y1606303*
X2716049Y1605178*
X2716868Y1604803*
X2717413*
X2718231Y1605178*
X2718777Y1606303*
X2719049Y1608178*
Y1609303*
X2718777Y1611178*
X2718231Y1612303*
X2717413Y1612678*
X2716868*
X2476140Y1588678D02*
X2475322Y1588303D01*
X2474777Y1587178*
X2474504Y1585303*
Y1584178*
X2474777Y1582303*
X2475322Y1581178*
X2476140Y1580803*
X2476686*
X2477504Y1581178*
X2478049Y1582303*
X2478322Y1584178*
Y1585303*
X2478049Y1587178*
X2477504Y1588303*
X2476686Y1588678*
X2476140*
X2481049Y1581553D02*
X2480777Y1581178D01*
X2481049Y1580803*
X2481322Y1581178*
X2481049Y1581553*
X2487049Y1587553D02*
X2486777Y1588303D01*
X2485959Y1588678*
X2485413*
X2484595Y1588303*
X2484049Y1587178*
X2483777Y1585303*
Y1583428*
X2484049Y1581928*
X2484595Y1581178*
X2485413Y1580803*
X2485686*
X2486504Y1581178*
X2487049Y1581928*
X2487322Y1583053*
Y1583428*
X2487049Y1584553*
X2486504Y1585303*
X2485686Y1585678*
X2485413*
X2484595Y1585303*
X2484049Y1584553*
X2483777Y1583428*
X2567822Y1586803D02*
Y1587178D01*
X2568095Y1587928*
X2568368Y1588303*
X2568913Y1588678*
X2570004*
X2570549Y1588303*
X2570822Y1587928*
X2571095Y1587178*
Y1586428*
X2570822Y1585678*
X2570277Y1584553*
X2567549Y1580803*
X2571368*
X2600504Y1586803D02*
X2612504D01*
X2606504Y1580803D02*
Y1592803D01*
X2609504Y1596103D02*
Y1589803D01*
Y1596103D02*
X2611468D01*
X2612122Y1595803*
X2612340Y1595503*
X2612559Y1594903*
Y1594303*
X2612340Y1593703*
X2612122Y1593403*
X2611468Y1593103*
X2609504D02*
X2611468D01*
X2612122Y1592803*
X2612340Y1592503*
X2612559Y1591903*
Y1591003*
X2612340Y1590403*
X2612122Y1590103*
X2611468Y1589803*
X2609504*
X2633140Y1588678D02*
X2635322Y1584928D01*
Y1580803*
X2637504Y1588678D02*
X2635322Y1584928D01*
X2639959Y1588678D02*
Y1580803D01*
Y1588678D02*
X2643504D01*
X2639959Y1584928D02*
X2642140D01*
X2639959Y1580803D02*
X2643504D01*
X2649777Y1587553D02*
X2649231Y1588303D01*
X2648413Y1588678*
X2647322*
X2646504Y1588303*
X2645959Y1587553*
Y1586803*
X2646231Y1586053*
X2646504Y1585678*
X2647049Y1585303*
X2648686Y1584553*
X2649231Y1584178*
X2649504Y1583803*
X2649777Y1583053*
Y1581928*
X2649231Y1581178*
X2648413Y1580803*
X2647322*
X2646504Y1581178*
X2645959Y1581928*
X2686322Y1587553D02*
Y1580803D01*
X2683868Y1584178D02*
X2688777D01*
X2696140Y1590178D02*
X2691231Y1578178D01*
X2698595Y1584178D02*
X2703504D01*
X2707595Y1588678D02*
X2706777Y1588303D01*
X2706231Y1587178*
X2705959Y1585303*
Y1584178*
X2706231Y1582303*
X2706777Y1581178*
X2707595Y1580803*
X2708140*
X2708959Y1581178*
X2709504Y1582303*
X2709777Y1584178*
Y1585303*
X2709504Y1587178*
X2708959Y1588303*
X2708140Y1588678*
X2707595*
X2712504Y1581553D02*
X2712231Y1581178D01*
X2712504Y1580803*
X2712777Y1581178*
X2712504Y1581553*
X2716868Y1588678D02*
X2716049Y1588303D01*
X2715504Y1587178*
X2715231Y1585303*
Y1584178*
X2715504Y1582303*
X2716049Y1581178*
X2716868Y1580803*
X2717413*
X2718231Y1581178*
X2718777Y1582303*
X2719049Y1584178*
Y1585303*
X2718777Y1587178*
X2718231Y1588303*
X2717413Y1588678*
X2716868*
G74*
X0Y0D02*
M02*
