M48
;FILE_FORMAT=2:4
INCH,LZ
FMAT,2
ICI,OFF
;TYPE=PLATED
T1C.009
T2C.012
T3C.02362
T4C.02756
T5C.03543
T6C.04
;TYPE=NON_PLATED
T7C.12598
%
M72
G90
G93X0Y0
T1C.009F0S0
X192203Y148699
X199973Y148699
X202103Y152249
X199973Y149399
X198897Y15048
X196793Y152609
X196083Y152599
X194293Y152949
X194073Y152739
X191833Y150489
X189193Y152474
X188918Y152474
X187943Y152109
X187938Y151097
X187243Y151309
X18569Y15144
X18569Y15308
X185218Y153217
X185198Y153777
X184978Y153477
X184718Y153777
X184198Y153757
X183698Y153757
X185058Y158857
X185178Y158137
X185458Y158637
X185473Y156439
X185858Y158437
X186198Y158857
X187468Y155049
X187468Y154724
X187943Y157174
X188443Y157774
X189318Y157699
X189418Y156874
X191843Y156829
X192976Y158423
X192976Y158198
X192978Y158857
X193063Y158649
X193093Y157829
X1942Y158568
X1942Y158893
X1942Y157968
X1944Y158743
X195083Y157819
X195333Y157869
X198523Y157999
X198843Y157919
X199693Y156974
X201521Y158559
X205168Y158074
X205168Y158374
X207547Y156644
X207547Y157144
X207557Y156144
X207795Y157698
X206403Y159149
X206393Y159549
X202473Y160359
X202023Y160369
X201101Y159049
X200248Y159817
X1942Y159743
X192118Y159174
X192118Y161024
X192118Y160749
X191558Y159888
X190958Y160138
X189858Y160388
X189258Y160638
X188708Y159888
X188108Y160138
X187008Y160388
X186408Y160638
X185858Y159888
X185578Y159917
X185308Y160138
X184998Y159897
X184418Y159897
X184158Y160388
X183858Y159897
X183558Y160638
X183608Y161688
X184158Y161938
X185308Y162188
X185858Y162438
X186408Y161688
X187008Y161938
X188158Y162188
X188708Y162438
X189258Y161688
X189858Y161938
X190953Y162199
X191553Y162449
X205093Y161999
X206243Y162349
T2C.012F095S3
X20825Y14913
X20825Y14948
X20635Y15533
X20635Y15568
X20585Y15533
X20585Y15568
X20375Y15483
X20295Y15348
X20295Y15383
X185973Y154229
X185193Y157739
X192133Y160217
X192553Y157599
X194426Y157598
X199223Y158017
X201131Y158019
X201715Y159993
X20585Y15653
X20585Y15688
T3C.02362F197S55
X207334Y160617
X207334Y162192
X208342Y160027G85X208027Y160027
X208342Y162782G85X208027Y162782
X206885Y160027G85X20657Y160027
X206885Y162782G85X20657Y162782
T4C.02756F197S55
X187949Y149892
X187949Y149104
X188737Y149892
X188737Y149104
X189524Y149892
X189524Y149104
X190311Y149892
X190311Y149104
X19402Y149892
X19402Y149104
X194807Y149892
X194807Y149104
X195595Y149892
X195595Y149104
X196382Y149892
X196382Y149104
X19717Y149892
X19717Y149104
X197957Y149892
X197957Y149104
X201666Y149892
X201666Y149104
X202453Y149892
X202453Y149104
X20324Y149104
X20324Y149892
X204028Y149104
X204028Y149892
T5C.03543F197S55
X202652Y161062
X204423Y161062
X204423Y162637
X204423Y16185
X202652Y162637
X202652Y16185
T6C.04F139S55
X203755Y152698
X204755Y152698
X205755Y152698
X206755Y152698
X207755Y152698
T7C.12598F035S794
X185743Y121435
X206234Y121435
X206234Y149498
X185743Y149498
M30
