*
*
G04 PADS VX.2 Build Number: 5060570 generated Gerber (RS-274-X) file*
G04 PC Version=2.1*
*
%IN "ESP32-Sense-Series-Main"*%
*
%MOIN*%
*
%FSLAX35Y35*%
*
*
*
*
G04 PC Standard Apertures*
*
*
G04 Thermal Relief Aperture macro.*
%AMTER*
1,1,$1,0,0*
1,0,$1-$2,0,0*
21,0,$3,$4,0,0,45*
21,0,$3,$4,0,0,135*
%
*
*
G04 Annular Aperture macro.*
%AMANN*
1,1,$1,0,0*
1,0,$2,0,0*
%
*
*
G04 Odd Aperture macro.*
%AMODD*
1,1,$1,0,0*
1,0,$1-0.005,0,0*
%
*
*
G04 PC Custom Aperture Macros*
*
*
*
*
*
*
G04 PC Aperture Table*
*
%ADD010C,0.001*%
%ADD014C,0.004*%
%ADD026C,0.07*%
%ADD030C,0.05906*%
%ADD038C,0.03937*%
%ADD045C,0.23622*%
%ADD058O,0.07087X0.05906*%
%ADD065C,0.04528*%
*
*
*
*
G04 PC Circuitry*
G04 Layer Name ESP32-Sense-Series-Main - circuitry*
%LPD*%
*
*
G04 PC Custom Flashes*
G04 Layer Name ESP32-Sense-Series-Main - flashes*
%LPD*%
*
*
G04 PC Circuitry*
G04 Layer Name ESP32-Sense-Series-Main - circuitry*
%LPD*%
*
G54D10*
G54D14*
G01X2089568Y1629839D02*
G75*
G03X2083435Y1635741I-6017J-115D01*
G01X2083439D02*
X2007704D01*
Y1611603*
X1936304*
Y1635704*
X1833353Y1635740*
G03X1830427Y1632814I-0J-2926*
G01Y1632815D02*
Y1200923D01*
G03X1836332Y1195017I5905J-0*
G01X2083439*
X2083435D02*
G03X2089568Y1200919I116J6017D01*
G01Y1200923D02*
Y1242905D01*
Y1629835*
G54D26*
X2077555Y1526977D03*
X2067555D03*
X2057555D03*
X2047555D03*
X2037555D03*
G54D30*
X2026518Y1626372D03*
Y1618498D03*
Y1610624D03*
X2044235Y1626372D03*
Y1618498D03*
Y1610624D03*
G54D38*
X2081255Y1576977D03*
Y1566977D03*
Y1556977D03*
Y1546977D03*
Y1536977D03*
G54D45*
X1857427Y1214346D03*
X2062345Y1494978D03*
X1857427D03*
X2062345Y1214346D03*
G54D58*
X2081845Y1600266D03*
Y1627825D03*
X2067278Y1600266D03*
Y1627825D03*
G54D65*
X2016657Y1498915D03*
X2024531D03*
X2032405D03*
X2040279D03*
Y1491041D03*
X2032405D03*
X2024531D03*
X2016657D03*
X1879493Y1498915D03*
X1887367D03*
X1895241D03*
X1903115D03*
Y1491041D03*
X1895241D03*
X1887367D03*
X1879493D03*
X1940201Y1498915D03*
X1948075D03*
X1955949D03*
X1963823D03*
X1971697D03*
X1979571D03*
Y1491041D03*
X1971697D03*
X1963823D03*
X1955949D03*
X1948075D03*
X1940201D03*
G74*
X0Y0D02*
M02*
