*
*
G04 PADS VX.2 Build Number: 5060570 generated Gerber (RS-274-X) file*
G04 PC Version=2.1*
*
%IN "ESP32-Sense-Series-Main"*%
*
%MOIN*%
*
%FSLAX35Y35*%
*
*
*
*
G04 PC Standard Apertures*
*
*
G04 Thermal Relief Aperture macro.*
%AMTER*
1,1,$1,0,0*
1,0,$1-$2,0,0*
21,0,$3,$4,0,0,45*
21,0,$3,$4,0,0,135*
%
*
*
G04 Annular Aperture macro.*
%AMANN*
1,1,$1,0,0*
1,0,$2,0,0*
%
*
*
G04 Odd Aperture macro.*
%AMODD*
1,1,$1,0,0*
1,0,$1-0.005,0,0*
%
*
*
G04 PC Custom Aperture Macros*
*
*
*
*
*
*
G04 PC Aperture Table*
*
%ADD010C,0.001*%
%ADD011C,0.005*%
%ADD012C,0.008*%
%ADD014C,0.004*%
%ADD016C,0.01*%
%ADD021C,0.006*%
%ADD028C,0.00591*%
%ADD064C,0.00591*%
*
*
*
*
G04 PC Circuitry*
G04 Layer Name ESP32-Sense-Series-Main - circuitry*
%LPD*%
*
*
G04 PC Custom Flashes*
G04 Layer Name ESP32-Sense-Series-Main - flashes*
%LPD*%
*
*
G04 PC Circuitry*
G04 Layer Name ESP32-Sense-Series-Main - circuitry*
%LPD*%
*
G54D10*
G01X1830427Y1635740D02*
X1830430D01*
X2089568D02*
X2089571D01*
X1830427Y1195017D02*
X1830430D01*
X1830427Y1635740D02*
X1830430D01*
G54D11*
X1936554Y1635021D02*
X2007420D01*
Y1534627*
X1936554*
Y1635021*
Y1611393D02*
X2007404D01*
X1948346Y1620914D02*
Y1616320D01*
Y1620914D02*
X1949778D01*
X1950256Y1620695*
X1950415Y1620476*
X1950574Y1620039*
Y1619601*
X1950415Y1619164*
X1950256Y1618945*
X1949778Y1618726*
X1948346*
X1949460D02*
X1950574Y1616320D01*
X1952006Y1620914D02*
Y1616320D01*
Y1620914D02*
X1954074D01*
X1952006Y1618726D02*
X1953278D01*
X1960437Y1620914D02*
X1959165Y1616320D01*
X1960437Y1620914D02*
X1961710Y1616320D01*
X1959642Y1617851D02*
X1961233D01*
X1963142Y1619382D02*
Y1616320D01*
Y1618507D02*
X1963619Y1619164D01*
X1963937Y1619382*
X1964415*
X1964733Y1619164*
X1964892Y1618507*
Y1616320*
X1966801Y1620914D02*
Y1617195D01*
X1966960Y1616539*
X1967278Y1616320*
X1967596*
X1966324Y1619382D02*
X1967437D01*
X1969028Y1618070D02*
X1970937D01*
Y1618507*
X1970778Y1618945*
X1970619Y1619164*
X1970301Y1619382*
X1969824*
X1969506Y1619164*
X1969187Y1618726*
X1969028Y1618070*
Y1617632*
X1969187Y1616976*
X1969506Y1616539*
X1969824Y1616320*
X1970301*
X1970619Y1616539*
X1970937Y1616976*
X1972369Y1619382D02*
Y1616320D01*
Y1618507D02*
X1972846Y1619164D01*
X1973165Y1619382*
X1973642*
X1973960Y1619164*
X1974119Y1618507*
Y1616320*
X1975551Y1619382D02*
Y1616320D01*
Y1618507D02*
X1976028Y1619164D01*
X1976346Y1619382*
X1976824*
X1977142Y1619164*
X1977301Y1618507*
Y1616320*
X1980642Y1619382D02*
Y1616320D01*
Y1618726D02*
X1980324Y1619164D01*
X1980006Y1619382*
X1979528*
X1979210Y1619164*
X1978892Y1618726*
X1978733Y1618070*
Y1617632*
X1978892Y1616976*
X1979210Y1616539*
X1979528Y1616320*
X1980006*
X1980324Y1616539*
X1980642Y1616976*
X1890343Y1592049D02*
Y1631419D01*
X1917903D02*
Y1592049D01*
X1909044Y1611734D02*
X1899202D01*
X1909792Y1602364D02*
Y1610947D01*
X1909044Y1621892D02*
X1899202D01*
X1898454Y1602364D02*
Y1610947D01*
X1899202Y1601577D02*
X1909044D01*
X1909792Y1612521D02*
Y1621104D01*
X1898454Y1612521D02*
Y1621104D01*
X1861843Y1592049D02*
Y1631419D01*
X1889403D02*
Y1592049D01*
X1880544Y1611734D02*
X1870702D01*
X1881292Y1602364D02*
Y1610947D01*
X1880544Y1621892D02*
X1870702D01*
X1869954Y1602364D02*
Y1610947D01*
X1870702Y1601577D02*
X1880544D01*
X1881292Y1612521D02*
Y1621104D01*
X1869954Y1612521D02*
Y1621104D01*
X1833343Y1592049D02*
Y1631419D01*
X1860903D02*
Y1592049D01*
X1852044Y1611734D02*
X1842202D01*
X1852792Y1602364D02*
Y1610947D01*
X1852044Y1621892D02*
X1842202D01*
X1841454Y1602364D02*
Y1610947D01*
X1842202Y1601577D02*
X1852044D01*
X1852792Y1612521D02*
Y1621104D01*
X1841454Y1612521D02*
Y1621104D01*
X1844877Y1579567D02*
Y1582167D01*
X1841877*
Y1579567*
X1844877Y1577567D02*
Y1574967D01*
X1841877*
Y1577567*
X2083055Y1531977D02*
X2032055D01*
Y1521977*
X2083055*
Y1531977*
X2065305Y1536180D02*
Y1533227D01*
X2067009Y1536180D02*
X2066782Y1536040D01*
X2066555Y1535758*
X2066441Y1535477*
X2066328Y1535055*
Y1534352*
X2066441Y1533930*
X2066555Y1533649*
X2066782Y1533368*
X2067009Y1533227*
X2067464*
X2067691Y1533368*
X2067919Y1533649*
X2068032Y1533930*
X2068146Y1534352*
Y1535055*
X2068032Y1535477*
X2067919Y1535758*
X2067691Y1536040*
X2067464Y1536180*
X2067009*
X2070646D02*
X2069509D01*
X2069396Y1534915*
X2069509Y1535055*
X2069850Y1535196*
X2070191*
X2070532Y1535055*
X2070759Y1534774*
X2070873Y1534352*
X2070759Y1534071*
X2070646Y1533649*
X2070419Y1533368*
X2070078Y1533227*
X2069737*
X2069396Y1533368*
X2069282Y1533508*
X2069169Y1533790*
X2054805Y1536180D02*
Y1533227D01*
X2056509Y1536180D02*
X2056282Y1536040D01*
X2056055Y1535758*
X2055941Y1535477*
X2055828Y1535055*
Y1534352*
X2055941Y1533930*
X2056055Y1533649*
X2056282Y1533368*
X2056509Y1533227*
X2056964*
X2057191Y1533368*
X2057419Y1533649*
X2057532Y1533930*
X2057646Y1534352*
Y1535055*
X2057532Y1535477*
X2057419Y1535758*
X2057191Y1536040*
X2056964Y1536180*
X2056509*
X2058669Y1535618D02*
X2058896Y1535758D01*
X2059237Y1536180*
Y1533227*
X2061850Y1536180D02*
X2060714Y1533227D01*
X2060259Y1536180D02*
X2061850D01*
X2043805D02*
Y1533227D01*
X2045509Y1536180D02*
X2045282Y1536040D01*
X2045055Y1535758*
X2044941Y1535477*
X2044828Y1535055*
Y1534352*
X2044941Y1533930*
X2045055Y1533649*
X2045282Y1533368*
X2045509Y1533227*
X2045964*
X2046191Y1533368*
X2046419Y1533649*
X2046532Y1533930*
X2046646Y1534352*
Y1535055*
X2046532Y1535477*
X2046419Y1535758*
X2046191Y1536040*
X2045964Y1536180*
X2045509*
X2047669Y1535618D02*
X2047896Y1535758D01*
X2048237Y1536180*
Y1533227*
X2050623Y1535758D02*
X2050509Y1536040D01*
X2050169Y1536180*
X2049941*
X2049600Y1536040*
X2049373Y1535618*
X2049259Y1534915*
Y1534212*
X2049373Y1533649*
X2049600Y1533368*
X2049941Y1533227*
X2050055*
X2050396Y1533368*
X2050623Y1533649*
X2050737Y1534071*
Y1534212*
X2050623Y1534633*
X2050396Y1534915*
X2050055Y1535055*
X2049941*
X2049600Y1534915*
X2049373Y1534633*
X2049259Y1534212*
X2082509Y1535477D02*
X2082396Y1535758D01*
X2082169Y1536040*
X2081941Y1536180*
X2081487*
X2081259Y1536040*
X2081032Y1535758*
X2080919Y1535477*
X2080805Y1535055*
Y1534352*
X2080919Y1533930*
X2081032Y1533649*
X2081259Y1533368*
X2081487Y1533227*
X2081941*
X2082169Y1533368*
X2082396Y1533649*
X2082509Y1533930*
Y1534352*
X2081941D02*
X2082509D01*
X2083532Y1536180D02*
Y1533227D01*
Y1536180D02*
X2085123Y1533227D01*
Y1536180D02*
Y1533227D01*
X2086146Y1536180D02*
Y1533227D01*
Y1536180D02*
X2086941D01*
X2087282Y1536040*
X2087509Y1535758*
X2087623Y1535477*
X2087737Y1535055*
Y1534352*
X2087623Y1533930*
X2087509Y1533649*
X2087282Y1533368*
X2086941Y1533227*
X2086146*
X2034532Y1536180D02*
X2035782D01*
X2035100Y1535055*
X2035441*
X2035669Y1534915*
X2035782Y1534774*
X2035896Y1534352*
Y1534071*
X2035782Y1533649*
X2035555Y1533368*
X2035214Y1533227*
X2034873*
X2034532Y1533368*
X2034419Y1533508*
X2034305Y1533790*
X2036919Y1536180D02*
X2037828Y1533227D01*
X2038737Y1536180D02*
X2037828Y1533227D01*
X2039987Y1536180D02*
X2041237D01*
X2040555Y1535055*
X2040896*
X2041123Y1534915*
X2041237Y1534774*
X2041350Y1534352*
Y1534071*
X2041237Y1533649*
X2041009Y1533368*
X2040669Y1533227*
X2040328*
X2039987Y1533368*
X2039873Y1533508*
X2039759Y1533790*
X1963299Y1466756D02*
Y1463803D01*
X1962504Y1466756D02*
X1964095D01*
X1965345D02*
X1966595D01*
X1965913Y1465631*
X1966254*
X1966481Y1465491*
X1966595Y1465350*
X1966708Y1464928*
Y1464647*
X1966595Y1464225*
X1966368Y1463944*
X1966027Y1463803*
X1965686*
X1965345Y1463944*
X1965231Y1464084*
X1965118Y1464366*
X1963299Y1478006D02*
Y1475053D01*
X1962504Y1478006D02*
X1964095D01*
X1965231Y1477303D02*
Y1477444D01*
X1965345Y1477725*
X1965458Y1477866*
X1965686Y1478006*
X1966140*
X1966368Y1477866*
X1966481Y1477725*
X1966595Y1477444*
Y1477163*
X1966481Y1476881*
X1966254Y1476459*
X1965118Y1475053*
X1966708*
X1970799Y1466756D02*
Y1463803D01*
X1970004Y1466756D02*
X1971595D01*
X1972618Y1466194D02*
X1972845Y1466334D01*
X1973186Y1466756*
Y1463803*
X1979208Y1477303D02*
X1979095Y1477584D01*
X1978868Y1477866*
X1978640Y1478006*
X1978186*
X1977958Y1477866*
X1977731Y1477584*
X1977618Y1477303*
X1977504Y1476881*
Y1476178*
X1977618Y1475756*
X1977731Y1475475*
X1977958Y1475194*
X1978186Y1475053*
X1978640*
X1978868Y1475194*
X1979095Y1475475*
X1979208Y1475756*
Y1476178*
X1978640D02*
X1979208D01*
X1980231Y1478006D02*
Y1475053D01*
Y1478006D02*
X1981822Y1475053D01*
Y1478006D02*
Y1475053D01*
X1982845Y1478006D02*
Y1475053D01*
Y1478006D02*
X1983640D01*
X1983981Y1477866*
X1984208Y1477584*
X1984322Y1477303*
X1984436Y1476881*
Y1476178*
X1984322Y1475756*
X1984208Y1475475*
X1983981Y1475194*
X1983640Y1475053*
X1982845*
X1955799Y1466756D02*
Y1463803D01*
X1955004Y1466756D02*
X1956595D01*
X1959095D02*
X1957958D01*
X1957845Y1465491*
X1957958Y1465631*
X1958299Y1465772*
X1958640*
X1958981Y1465631*
X1959208Y1465350*
X1959322Y1464928*
X1959208Y1464647*
X1959095Y1464225*
X1958868Y1463944*
X1958527Y1463803*
X1958186*
X1957845Y1463944*
X1957731Y1464084*
X1957618Y1464366*
X1970799Y1478006D02*
Y1475053D01*
X1970004Y1478006D02*
X1971595D01*
X1973299D02*
X1972958Y1477866D01*
X1972731Y1477444*
X1972618Y1476741*
Y1476319*
X1972731Y1475616*
X1972958Y1475194*
X1973299Y1475053*
X1973527*
X1973868Y1475194*
X1974095Y1475616*
X1974208Y1476319*
Y1476741*
X1974095Y1477444*
X1973868Y1477866*
X1973527Y1478006*
X1973299*
X1955004Y1461194D02*
X1955231Y1461334D01*
X1955572Y1461756*
Y1458803*
X1956708Y1461053D02*
Y1461194D01*
X1956822Y1461475*
X1956936Y1461616*
X1957163Y1461756*
X1957618*
X1957845Y1461616*
X1957958Y1461475*
X1958072Y1461194*
Y1460913*
X1957958Y1460631*
X1957731Y1460209*
X1956595Y1458803*
X1958186*
X1971140Y1473006D02*
X1970004Y1471038D01*
X1971708*
X1971140Y1473006D02*
Y1470053D01*
X1970686Y1461756D02*
X1970345Y1461616D01*
X1970118Y1461194*
X1970004Y1460491*
Y1460069*
X1970118Y1459366*
X1970345Y1458944*
X1970686Y1458803*
X1970913*
X1971254Y1458944*
X1971481Y1459366*
X1971595Y1460069*
Y1460491*
X1971481Y1461194*
X1971254Y1461616*
X1970913Y1461756*
X1970686*
X1962618Y1472303D02*
Y1472444D01*
X1962731Y1472725*
X1962845Y1472866*
X1963072Y1473006*
X1963527*
X1963754Y1472866*
X1963868Y1472725*
X1963981Y1472444*
Y1472163*
X1963868Y1471881*
X1963640Y1471459*
X1962504Y1470053*
X1964095*
X1962504Y1461194D02*
X1962731Y1461334D01*
X1963072Y1461756*
Y1458803*
X1965572Y1461756D02*
X1964436D01*
X1964322Y1460491*
X1964436Y1460631*
X1964777Y1460772*
X1965118*
X1965458Y1460631*
X1965686Y1460350*
X1965799Y1459928*
X1965686Y1459647*
X1965572Y1459225*
X1965345Y1458944*
X1965004Y1458803*
X1964663*
X1964322Y1458944*
X1964208Y1459084*
X1964095Y1459366*
X1955799Y1478006D02*
Y1475053D01*
X1955004Y1478006D02*
X1956595D01*
X1958754D02*
X1957618Y1476038D01*
X1959322*
X1958754Y1478006D02*
Y1475053D01*
X1938299Y1466756D02*
Y1463803D01*
X1937504Y1466756D02*
X1939095D01*
X1941595Y1465772D02*
X1941481Y1465350D01*
X1941254Y1465069*
X1940913Y1464928*
X1940799*
X1940458Y1465069*
X1940231Y1465350*
X1940118Y1465772*
Y1465913*
X1940231Y1466334*
X1940458Y1466616*
X1940799Y1466756*
X1940913*
X1941254Y1466616*
X1941481Y1466334*
X1941595Y1465772*
Y1465069*
X1941481Y1464366*
X1941254Y1463944*
X1940913Y1463803*
X1940686*
X1940345Y1463944*
X1940231Y1464225*
X1938299Y1478006D02*
Y1475053D01*
X1937504Y1478006D02*
X1939095D01*
X1940686D02*
X1940345Y1477866D01*
X1940231Y1477584*
Y1477303*
X1940345Y1477022*
X1940572Y1476881*
X1941027Y1476741*
X1941368Y1476600*
X1941595Y1476319*
X1941708Y1476038*
Y1475616*
X1941595Y1475334*
X1941481Y1475194*
X1941140Y1475053*
X1940686*
X1940345Y1475194*
X1940231Y1475334*
X1940118Y1475616*
Y1476038*
X1940231Y1476319*
X1940458Y1476600*
X1940799Y1476741*
X1941254Y1476881*
X1941481Y1477022*
X1941595Y1477303*
Y1477584*
X1941481Y1477866*
X1941140Y1478006*
X1940686*
X1947049Y1466756D02*
Y1463803D01*
X1946254Y1466756D02*
X1947845D01*
X1950458D02*
X1949322Y1463803D01*
X1948868Y1466756D02*
X1950458D01*
X1947049Y1478006D02*
Y1475053D01*
X1946254Y1478006D02*
X1947845D01*
X1950231Y1477584D02*
X1950118Y1477866D01*
X1949777Y1478006*
X1949549*
X1949208Y1477866*
X1948981Y1477444*
X1948868Y1476741*
Y1476038*
X1948981Y1475475*
X1949208Y1475194*
X1949549Y1475053*
X1949663*
X1950004Y1475194*
X1950231Y1475475*
X1950345Y1475897*
Y1476038*
X1950231Y1476459*
X1950004Y1476741*
X1949663Y1476881*
X1949549*
X1949208Y1476741*
X1948981Y1476459*
X1948868Y1476038*
X1977504Y1466756D02*
Y1463803D01*
X1978527Y1466756D02*
Y1463803D01*
Y1466756D02*
X1979322D01*
X1979663Y1466616*
X1979890Y1466334*
X1980004Y1466053*
X1980118Y1465631*
Y1464928*
X1980004Y1464506*
X1979890Y1464225*
X1979663Y1463944*
X1979322Y1463803*
X1978527*
X1955004Y1472444D02*
X1955231Y1472584D01*
X1955572Y1473006*
Y1470053*
X1956822Y1473006D02*
X1958072D01*
X1957390Y1471881*
X1957731*
X1957958Y1471741*
X1958072Y1471600*
X1958186Y1471178*
Y1470897*
X1958072Y1470475*
X1957845Y1470194*
X1957504Y1470053*
X1957163*
X1956822Y1470194*
X1956708Y1470334*
X1956595Y1470616*
X1937731Y1461756D02*
X1938981D01*
X1938299Y1460631*
X1938640*
X1938868Y1460491*
X1938981Y1460350*
X1939095Y1459928*
Y1459647*
X1938981Y1459225*
X1938754Y1458944*
X1938413Y1458803*
X1938072*
X1937731Y1458944*
X1937618Y1459084*
X1937504Y1459366*
X1940231Y1461053D02*
Y1461194D01*
X1940345Y1461475*
X1940458Y1461616*
X1940686Y1461756*
X1941140*
X1941368Y1461616*
X1941481Y1461475*
X1941595Y1461194*
Y1460913*
X1941481Y1460631*
X1941254Y1460209*
X1940118Y1458803*
X1941708*
X1937731Y1473006D02*
X1938981D01*
X1938299Y1471881*
X1938640*
X1938868Y1471741*
X1938981Y1471600*
X1939095Y1471178*
Y1470897*
X1938981Y1470475*
X1938754Y1470194*
X1938413Y1470053*
X1938072*
X1937731Y1470194*
X1937618Y1470334*
X1937504Y1470616*
X1940345Y1473006D02*
X1941595D01*
X1940913Y1471881*
X1941254*
X1941481Y1471741*
X1941595Y1471600*
X1941708Y1471178*
Y1470897*
X1941595Y1470475*
X1941368Y1470194*
X1941027Y1470053*
X1940686*
X1940345Y1470194*
X1940231Y1470334*
X1940118Y1470616*
X1946368Y1461053D02*
Y1461194D01*
X1946481Y1461475*
X1946595Y1461616*
X1946822Y1461756*
X1947277*
X1947504Y1461616*
X1947618Y1461475*
X1947731Y1461194*
Y1460913*
X1947618Y1460631*
X1947390Y1460209*
X1946254Y1458803*
X1947845*
X1950458Y1461756D02*
X1949322Y1458803D01*
X1948868Y1461756D02*
X1950458D01*
X1946254Y1472444D02*
X1946481Y1472584D01*
X1946822Y1473006*
Y1470053*
X1948981Y1473006D02*
X1947845Y1471038D01*
X1949549*
X1948981Y1473006D02*
Y1470053D01*
X1977731Y1461756D02*
X1978981D01*
X1978299Y1460631*
X1978640*
X1978868Y1460491*
X1978981Y1460350*
X1979095Y1459928*
Y1459647*
X1978981Y1459225*
X1978754Y1458944*
X1978413Y1458803*
X1978072*
X1977731Y1458944*
X1977618Y1459084*
X1977504Y1459366*
X1981595Y1461756D02*
X1980458D01*
X1980345Y1460491*
X1980458Y1460631*
X1980799Y1460772*
X1981140*
X1981481Y1460631*
X1981708Y1460350*
X1981822Y1459928*
X1981708Y1459647*
X1981595Y1459225*
X1981368Y1458944*
X1981027Y1458803*
X1980686*
X1980345Y1458944*
X1980231Y1459084*
X1980118Y1459366*
X2069754Y1634506D02*
Y1631553D01*
Y1634506D02*
X2070777D01*
X2071118Y1634366*
X2071231Y1634225*
X2071345Y1633944*
Y1633522*
X2071231Y1633241*
X2071118Y1633100*
X2070777Y1632959*
X2069754*
X2073049Y1634506D02*
X2072822Y1634366D01*
X2072595Y1634084*
X2072481Y1633803*
X2072368Y1633381*
Y1632678*
X2072481Y1632256*
X2072595Y1631975*
X2072822Y1631694*
X2073049Y1631553*
X2073504*
X2073731Y1631694*
X2073958Y1631975*
X2074072Y1632256*
X2074186Y1632678*
Y1633381*
X2074072Y1633803*
X2073958Y1634084*
X2073731Y1634366*
X2073504Y1634506*
X2073049*
X2075208D02*
X2075777Y1631553D01*
X2076345Y1634506D02*
X2075777Y1631553D01*
X2076345Y1634506D02*
X2076913Y1631553D01*
X2077481Y1634506D02*
X2076913Y1631553D01*
X2078504Y1634506D02*
Y1631553D01*
Y1634506D02*
X2079981D01*
X2078504Y1633100D02*
X2079413D01*
X2078504Y1631553D02*
X2079981D01*
X2081004Y1634506D02*
Y1631553D01*
Y1634506D02*
X2082027D01*
X2082368Y1634366*
X2082481Y1634225*
X2082595Y1633944*
Y1633663*
X2082481Y1633381*
X2082368Y1633241*
X2082027Y1633100*
X2081004*
X2081799D02*
X2082595Y1631553D01*
X2029436Y1634306D02*
X2029208Y1634166D01*
X2028981Y1633884*
X2028868Y1633603*
X2028754Y1633181*
Y1632478*
X2028868Y1632056*
X2028981Y1631775*
X2029208Y1631494*
X2029436Y1631353*
X2029890*
X2030118Y1631494*
X2030345Y1631775*
X2030458Y1632056*
X2030572Y1632478*
Y1633181*
X2030458Y1633603*
X2030345Y1633884*
X2030118Y1634166*
X2029890Y1634306*
X2029436*
X2031595D02*
Y1631353D01*
Y1634306D02*
X2033186Y1631353D01*
Y1634306D02*
Y1631353D01*
X2036254Y1634869D02*
X2034208Y1630369D01*
X2037958Y1634306D02*
X2037731Y1634166D01*
X2037504Y1633884*
X2037390Y1633603*
X2037277Y1633181*
Y1632478*
X2037390Y1632056*
X2037504Y1631775*
X2037731Y1631494*
X2037958Y1631353*
X2038413*
X2038640Y1631494*
X2038868Y1631775*
X2038981Y1632056*
X2039095Y1632478*
Y1633181*
X2038981Y1633603*
X2038868Y1633884*
X2038640Y1634166*
X2038413Y1634306*
X2037958*
X2040118D02*
Y1631353D01*
Y1634306D02*
X2041595D01*
X2040118Y1632900D02*
X2041027D01*
X2042618Y1634306D02*
Y1631353D01*
Y1634306D02*
X2044095D01*
X2042618Y1632900D02*
X2043527D01*
X2016272Y1504303D02*
X2017868Y1507494D01*
X2014677*
X2016272Y1504303*
X1879108D02*
X1880704Y1507494D01*
X1877513*
X1879108Y1504303*
X1939690Y1504677D02*
X1941286Y1507868D01*
X1938095*
X1939690Y1504677*
X2014698Y1507451D02*
X2017846D01*
X2014923Y1507001D02*
X2017621D01*
X2015148Y1506551D02*
X2017396D01*
X2015373Y1506101D02*
X2017171D01*
X2015598Y1505651D02*
X2016946D01*
X2015823Y1505201D02*
X2016721D01*
X2016048Y1504751D02*
X2016496D01*
X1877534Y1507451D02*
X1880682D01*
X1877759Y1507001D02*
X1880457D01*
X1877984Y1506551D02*
X1880232D01*
X1878209Y1506101D02*
X1880007D01*
X1878434Y1505651D02*
X1879782D01*
X1878659Y1505201D02*
X1879557D01*
X1878884Y1504751D02*
X1879332D01*
X1938116Y1507825D02*
X1941264D01*
X1938341Y1507375D02*
X1941039D01*
X1938566Y1506925D02*
X1940814D01*
X1938791Y1506475D02*
X1940589D01*
X1939016Y1506025D02*
X1940364D01*
X1939241Y1505575D02*
X1940139D01*
X1939466Y1505125D02*
X1939914D01*
G54D12*
X1902477Y1568467D02*
G75*
G03X1902477I-400J0D01*
G01X1889977D02*
G03X1889977I-400J0D01*
G01X1879130Y1527867D02*
G03X1879130I-400J0D01*
G01X1843877Y1578567D02*
X1842877D01*
G54D14*
X2083392Y1573641D02*
Y1586338D01*
X2063392*
Y1573641*
X2083392Y1559153D02*
Y1546535D01*
X2063392*
Y1559231*
X1889968Y1565467D02*
Y1562467D01*
X1901386*
Y1565467*
X1889968*
X1877468D02*
Y1562467D01*
X1888886*
Y1565467*
X1877468*
X1890839Y1530867D02*
Y1533867D01*
X1879421*
Y1530867*
X1890839*
X1884891Y1551476D02*
X1899064D01*
Y1540059D02*
X1884891D01*
Y1546555D02*
Y1544980D01*
X1899064Y1546555D02*
Y1544980D01*
X1874223Y1553057D02*
Y1568017D01*
X1834932Y1568018*
Y1553057*
X1874223*
X1834931Y1558037D02*
G03Y1563037I0J2500D01*
G01X2026876Y1604764D02*
Y1578386D01*
X2040876*
Y1604764*
X2026876*
X2046991Y1630112D02*
Y1606884D01*
X2023762*
Y1627884*
X2025991Y1630112*
X2046991*
X2038876Y1626498D02*
Y1623498D01*
X2032876*
Y1626498*
X2038876*
X2037876D02*
Y1623498D01*
X2036876Y1626498D02*
Y1623498D01*
X2035876Y1626498D02*
Y1623498D01*
X2034876Y1626498D02*
Y1623498D01*
X2033876Y1626498D02*
Y1623498D01*
X1927896Y1609931D02*
Y1605981D01*
Y1598431D02*
X1922896D01*
Y1602381*
Y1609931D02*
X1927896D01*
Y1598431D02*
Y1602381D01*
X1922896Y1605981D02*
Y1609931D01*
X1929896Y1602331D02*
X1930896D01*
X1928896Y1601331D02*
Y1598731D01*
X1931896*
Y1601331*
X1928896Y1603331D02*
Y1605931D01*
X1931896*
Y1603331*
X1926396Y1591288D02*
Y1592288D01*
X1927396Y1590288D02*
X1929996D01*
Y1593288*
X1927396*
X1925396Y1590288D02*
X1922796D01*
Y1593288*
X1925396*
X2061133Y1626166D02*
X2057383D01*
X2056330Y1623667D02*
X2054828Y1625170D01*
Y1622165*
X2056330Y1623667*
X2053583Y1626166D02*
X2049833D01*
Y1621166*
X2053583*
X2061133D02*
Y1626166D01*
X2057383Y1621166D02*
X2061133D01*
X2057054Y1614347D02*
Y1611985D01*
X2053904Y1613166*
X2057054Y1614347*
X2051929Y1614916D02*
Y1615916D01*
X2059029*
Y1614916*
X2051929Y1611416D02*
Y1610416D01*
X2059029*
Y1611416*
X2052029Y1614916D02*
Y1615916D01*
Y1611416D02*
Y1610416D01*
X2052079Y1614916D02*
Y1615916D01*
X2052179Y1614916D02*
Y1615916D01*
X2052079Y1611416D02*
Y1610416D01*
X2052179Y1611416D02*
Y1610416D01*
X2057054Y1607347D02*
Y1604985D01*
X2053904Y1606166*
X2057054Y1607347*
X2051929Y1607916D02*
Y1608916D01*
X2059029*
Y1607916*
X2051929Y1604416D02*
Y1603416D01*
X2059029*
Y1604416*
X2052029Y1607916D02*
Y1608916D01*
Y1604416D02*
Y1603416D01*
X2052079Y1607916D02*
Y1608916D01*
X2052179Y1607916D02*
Y1608916D01*
X2052079Y1604416D02*
Y1603416D01*
X2052179Y1604416D02*
Y1603416D01*
X2056861Y1620241D02*
Y1617091D01*
X2054105*
Y1620241*
X2056861*
X2012326Y1503246D02*
X2044610D01*
Y1486710*
X2012326*
Y1503246*
X1875162D02*
X1907446D01*
Y1486710*
X1875162*
Y1503246*
X1935870D02*
X1983902D01*
Y1486710*
X1935870*
Y1503246*
X1897489Y1539021D02*
X1897025Y1538093D01*
X1897953*
X1897489Y1539021*
X1897205Y1538452D02*
X1897774D01*
X1897385Y1538812D02*
X1897594D01*
X2089568Y1629839D02*
G03X2083435Y1635741I-6017J-115D01*
G01X2083439D02*
X2007704D01*
Y1611603*
X1936304*
Y1635704*
X1833353Y1635740*
G03X1830427Y1632814I-0J-2926*
G01Y1632815D02*
Y1200923D01*
G03X1836332Y1195017I5905J-0*
G01X2083439*
X2083435D02*
G03X2089568Y1200919I116J6017D01*
G01Y1200923D02*
Y1242905D01*
Y1629835*
X2083355Y1558277D02*
X2075055D01*
Y1574277*
X2083355*
X2087555Y1557077D02*
Y1559577D01*
X2085055Y1558327*
X2087555Y1557077*
X1934754Y1479803D02*
X1986004D01*
Y1457203*
X1934754*
Y1479803*
X1943504D02*
Y1457303D01*
X1952254Y1479803D02*
Y1457303D01*
X1961004Y1479803D02*
Y1457303D01*
X1968504Y1479803D02*
Y1457303D01*
X1976004Y1479803D02*
Y1457303D01*
X1934754Y1468153D02*
X1986004D01*
G54D16*
X1830427Y1644703D02*
X1941429D01*
X1830427D02*
X1840427Y1647203D01*
Y1642203*
X1830427Y1644703*
X2089568D02*
X1978566D01*
X2089568D02*
X2079568Y1642203D01*
Y1647203*
X2089568Y1644703*
X1830427Y1640740D02*
Y1649703D01*
X2089568Y1640740D02*
Y1649703D01*
X1947157Y1646578D02*
X1946929Y1647203D01*
X1946247Y1647516*
X1945793*
X1945111Y1647203*
X1944657Y1646266*
X1944429Y1644703*
Y1643141*
X1944657Y1641891*
X1945111Y1641266*
X1945793Y1640953*
X1946020*
X1946702Y1641266*
X1947157Y1641891*
X1947384Y1642828*
Y1643141*
X1947157Y1644078*
X1946702Y1644703*
X1946020Y1645016*
X1945793*
X1945111Y1644703*
X1944657Y1644078*
X1944429Y1643141*
X1952384Y1647516D02*
X1950111D01*
X1949884Y1644703*
X1950111Y1645016*
X1950793Y1645328*
X1951475*
X1952157Y1645016*
X1952611Y1644391*
X1952838Y1643453*
X1952611Y1642828*
X1952384Y1641891*
X1951929Y1641266*
X1951247Y1640953*
X1950566*
X1949884Y1641266*
X1949657Y1641578*
X1949429Y1642203*
X1955111Y1641578D02*
X1954884Y1641266D01*
X1955111Y1640953*
X1955338Y1641266*
X1955111Y1641578*
X1958520Y1647516D02*
X1957838Y1647203D01*
X1957611Y1646578*
Y1645953*
X1957838Y1645328*
X1958293Y1645016*
X1959202Y1644703*
X1959884Y1644391*
X1960338Y1643766*
X1960566Y1643141*
Y1642203*
X1960338Y1641578*
X1960111Y1641266*
X1959429Y1640953*
X1958520*
X1957838Y1641266*
X1957611Y1641578*
X1957384Y1642203*
Y1643141*
X1957611Y1643766*
X1958066Y1644391*
X1958747Y1644703*
X1959657Y1645016*
X1960111Y1645328*
X1960338Y1645953*
Y1646578*
X1960111Y1647203*
X1959429Y1647516*
X1958520*
X1962611Y1645328D02*
Y1640953D01*
Y1644078D02*
X1963293Y1645016D01*
X1963747Y1645328*
X1964429*
X1964884Y1645016*
X1965111Y1644078*
Y1640953*
Y1644078D02*
X1965793Y1645016D01*
X1966247Y1645328*
X1966929*
X1967384Y1645016*
X1967611Y1644078*
Y1640953*
X1969657Y1645328D02*
Y1640953D01*
Y1644078D02*
X1970338Y1645016D01*
X1970793Y1645328*
X1971475*
X1971929Y1645016*
X1972157Y1644078*
Y1640953*
Y1644078D02*
X1972838Y1645016D01*
X1973293Y1645328*
X1973975*
X1974429Y1645016*
X1974657Y1644078*
Y1640953*
X1807204Y1195017D02*
Y1408628D01*
Y1195017D02*
X1804704Y1205017D01*
X1809704*
X1807204Y1195017*
Y1635740D02*
Y1422128D01*
Y1635740D02*
X1809704Y1625740D01*
X1804704*
X1807204Y1635740*
X1825427Y1195017D02*
X1802204D01*
X1825427Y1635740D02*
X1802204D01*
X1792204Y1416941D02*
X1792658Y1417253D01*
X1793340Y1418191*
Y1411628*
X1795386Y1416941D02*
X1795840Y1417253D01*
X1796522Y1418191*
Y1411628*
X1798568Y1416941D02*
X1799022Y1417253D01*
X1799704Y1418191*
Y1411628*
X1801977Y1412253D02*
X1801749Y1411941D01*
X1801977Y1411628*
X1802204Y1411941*
X1801977Y1412253*
X1807204Y1416003D02*
X1806977Y1415066D01*
X1806522Y1414441*
X1805840Y1414128*
X1805613*
X1804931Y1414441*
X1804477Y1415066*
X1804249Y1416003*
Y1416316*
X1804477Y1417253*
X1804931Y1417878*
X1805613Y1418191*
X1805840*
X1806522Y1417878*
X1806977Y1417253*
X1807204Y1416003*
Y1414441*
X1806977Y1412878*
X1806522Y1411941*
X1805840Y1411628*
X1805386*
X1804704Y1411941*
X1804477Y1412566*
X1809249Y1416003D02*
Y1411628D01*
Y1414753D02*
X1809931Y1415691D01*
X1810386Y1416003*
X1811068*
X1811522Y1415691*
X1811749Y1414753*
Y1411628*
Y1414753D02*
X1812431Y1415691D01*
X1812886Y1416003*
X1813568*
X1814022Y1415691*
X1814249Y1414753*
Y1411628*
X1816295Y1416003D02*
Y1411628D01*
Y1414753D02*
X1816977Y1415691D01*
X1817431Y1416003*
X1818113*
X1818568Y1415691*
X1818795Y1414753*
Y1411628*
Y1414753D02*
X1819477Y1415691D01*
X1819931Y1416003*
X1820613*
X1821068Y1415691*
X1821295Y1414753*
Y1411628*
G54D21*
X1850677Y1582417D02*
Y1586267D01*
X1845677*
Y1582417*
Y1578917D02*
Y1575067D01*
X1850677*
Y1578917*
X2057779Y1597195D02*
X2061629D01*
Y1602195*
X2057779*
X2054279D02*
X2050429D01*
Y1597195*
X2054279*
X2057779Y1590108D02*
X2061629D01*
Y1595108*
X2057779*
X2054279D02*
X2050429D01*
Y1590108*
X2054279*
X2077555Y1532977D02*
X2079555Y1535977D01*
X2075555*
X2077555Y1532977*
X1838786Y1588147D02*
X1840695Y1584603D01*
Y1588147D02*
X1838786Y1584603D01*
X1867786Y1588147D02*
X1868877Y1586459D01*
Y1584603*
X1869968Y1588147D02*
X1868877Y1586459D01*
X1896740Y1588147D02*
Y1584603D01*
X1895786Y1588147D02*
X1897695D01*
X1901304Y1547397D02*
Y1543853D01*
Y1547397D02*
X1902531D01*
X1902940Y1547228*
X1903077Y1547059*
X1903213Y1546722*
Y1546384*
X1903077Y1546047*
X1902940Y1545878*
X1902531Y1545709*
X1901304*
X1902258D02*
X1903213Y1543853D01*
X1906486Y1546553D02*
X1906349Y1546891D01*
X1906077Y1547228*
X1905804Y1547397*
X1905258*
X1904986Y1547228*
X1904713Y1546891*
X1904577Y1546553*
X1904440Y1546047*
Y1545203*
X1904577Y1544697*
X1904713Y1544359*
X1904986Y1544022*
X1905258Y1543853*
X1905804*
X1906077Y1544022*
X1906349Y1544359*
X1906486Y1544697*
Y1545203*
X1905804D02*
X1906486D01*
X1907713Y1547397D02*
Y1543853D01*
Y1547397D02*
X1908940D01*
X1909349Y1547228*
X1909486Y1547059*
X1909622Y1546722*
Y1546384*
X1909486Y1546047*
X1909349Y1545878*
X1908940Y1545709*
X1907713D02*
X1908940D01*
X1909349Y1545541*
X1909486Y1545372*
X1909622Y1545034*
Y1544528*
X1909486Y1544191*
X1909349Y1544022*
X1908940Y1543853*
X1907713*
X2065804Y1544147D02*
Y1540603D01*
Y1544147D02*
X2067031D01*
X2067440Y1543978*
X2067577Y1543809*
X2067713Y1543472*
Y1542966*
X2067577Y1542628*
X2067440Y1542459*
X2067031Y1542291*
X2065804*
X2068940Y1544147D02*
Y1540603D01*
Y1544147D02*
X2070168D01*
X2070577Y1543978*
X2070713Y1543809*
X2070849Y1543472*
Y1543134*
X2070713Y1542797*
X2070577Y1542628*
X2070168Y1542459*
X2068940*
X2069895D02*
X2070849Y1540603D01*
X2072895Y1544147D02*
X2072622Y1543978D01*
X2072349Y1543641*
X2072213Y1543303*
X2072077Y1542797*
Y1541953*
X2072213Y1541447*
X2072349Y1541109*
X2072622Y1540772*
X2072895Y1540603*
X2073440*
X2073713Y1540772*
X2073986Y1541109*
X2074122Y1541447*
X2074258Y1541953*
Y1542797*
X2074122Y1543303*
X2073986Y1543641*
X2073713Y1543978*
X2073440Y1544147*
X2072895*
X2077531Y1543303D02*
X2077395Y1543641D01*
X2077122Y1543978*
X2076849Y1544147*
X2076304*
X2076031Y1543978*
X2075758Y1543641*
X2075622Y1543303*
X2075486Y1542797*
Y1541953*
X2075622Y1541447*
X2075758Y1541109*
X2076031Y1540772*
X2076304Y1540603*
X2076849*
X2077122Y1540772*
X2077395Y1541109*
X2077531Y1541447*
Y1541953*
X2076849D02*
X2077531D01*
G54D28*
X1896564Y1621577D02*
G03X1896564I-315J0D01*
G01X1868064D02*
G03X1868064I-315J0D01*
G01X1839564D02*
G03X1839564I-315J0D01*
G54D64*
G01X1926014Y1579227D02*
Y1578227D01*
X1922424Y1577229D02*
Y1580225D01*
X1929604*
Y1577229*
X1922424*
X1897077Y1554917D02*
Y1553917D01*
X1893487Y1552919D02*
Y1555915D01*
X1900667*
Y1552919*
X1893487*
X1895577Y1536667D02*
Y1537667D01*
X1899167Y1538665D02*
Y1535669D01*
X1891987*
Y1538665*
X1899167*
X1887077Y1553917D02*
Y1554917D01*
X1890667Y1555915D02*
Y1552919D01*
X1883487*
Y1555915*
X1890667*
X1897177Y1578148D02*
Y1577148D01*
X1893587Y1576150D02*
Y1579146D01*
X1900767*
Y1576150*
X1893587*
X1897177Y1573148D02*
Y1574148D01*
X1900767Y1575146D02*
Y1572150D01*
X1893587*
Y1575146*
X1900767*
X1888427Y1578148D02*
Y1577148D01*
X1884837Y1576150D02*
Y1579146D01*
X1892017*
Y1576150*
X1884837*
X1888427Y1573148D02*
Y1574148D01*
X1892017Y1575146D02*
Y1572150D01*
X1884837*
Y1575146*
X1892017*
X1895577Y1532067D02*
Y1533067D01*
X1899167Y1534065D02*
Y1531069D01*
X1891987*
Y1534065*
X1899167*
X1895505Y1528934D02*
Y1527934D01*
X1891915Y1526936D02*
Y1529932D01*
X1899095*
Y1526936*
X1891915*
X1861577Y1542407D02*
X1862577D01*
X1863575Y1538817D02*
X1860579D01*
Y1545997*
X1863575*
Y1538817*
X1852577Y1542407D02*
X1851577D01*
X1850579Y1545997D02*
X1853575D01*
Y1538817*
X1850579*
Y1545997*
X1847577Y1542407D02*
X1846577D01*
X1845579Y1545997D02*
X1848575D01*
Y1538817*
X1845579*
Y1545997*
X1866077Y1542407D02*
X1867077D01*
X1868075Y1538817D02*
X1865079D01*
Y1545997*
X1868075*
Y1538817*
X1842577Y1542407D02*
X1841577D01*
X1840579Y1545997D02*
X1843575D01*
Y1538817*
X1840579*
Y1545997*
X1837577Y1542407D02*
X1836577D01*
X1835579Y1545997D02*
X1838575D01*
Y1538817*
X1835579*
Y1545997*
X1835077Y1578567D02*
X1836077D01*
X1837075Y1574977D02*
X1834079D01*
Y1582157*
X1837075*
Y1574977*
X1839077Y1578567D02*
X1840077D01*
X1841075Y1574977D02*
X1838079D01*
Y1582157*
X1841075*
Y1574977*
X1854077Y1578567D02*
X1855077D01*
X1856075Y1574977D02*
X1853079D01*
Y1582157*
X1856075*
Y1574977*
X1858077Y1578567D02*
X1859077D01*
X1860075Y1574977D02*
X1857079D01*
Y1582157*
X1860075*
Y1574977*
X2015077Y1543667D02*
X2014077D01*
X2013079Y1547257D02*
X2016075D01*
Y1540077*
X2013079*
Y1547257*
X2014577Y1529667D02*
Y1530667D01*
X2018167Y1531665D02*
Y1528669D01*
X2010987*
Y1531665*
X2018167*
X1934077Y1530167D02*
X1933077D01*
X1932079Y1533757D02*
X1935075D01*
Y1526577*
X1932079*
Y1533757*
X1990007Y1525087D02*
X1989007D01*
X1988009Y1528677D02*
X1991005D01*
Y1521497*
X1988009*
Y1528677*
X1995007Y1525087D02*
X1994007D01*
X1993009Y1528677D02*
X1996005D01*
Y1521497*
X1993009*
Y1528677*
X1930357Y1562139D02*
X1929650Y1562846D01*
X1931483Y1566090D02*
X1933601Y1563972D01*
X1928524Y1558895*
X1926406Y1561013*
X1931483Y1566090*
X1930357Y1548639D02*
X1929650Y1549346D01*
X1931483Y1552590D02*
X1933601Y1550472D01*
X1928524Y1545395*
X1926406Y1547513*
X1931483Y1552590*
X1930357Y1542139D02*
X1929650Y1542846D01*
X1931483Y1546090D02*
X1933601Y1543972D01*
X1928524Y1538895*
X1926406Y1541013*
X1931483Y1546090*
X1930357Y1568639D02*
X1929650Y1569346D01*
X1931483Y1572590D02*
X1933601Y1570472D01*
X1928524Y1565395*
X1926406Y1567513*
X1931483Y1572590*
X1955077Y1525167D02*
X1954077D01*
X1953079Y1528757D02*
X1956075D01*
Y1521577*
X1953079*
Y1528757*
X2055483Y1629166D02*
Y1628166D01*
X2051893Y1627168D02*
Y1630164D01*
X2059073*
Y1627168*
X2051893*
X1926396Y1596181D02*
Y1595181D01*
X1922806Y1594183D02*
Y1597179D01*
X1929986*
Y1594183*
X1922806*
X2008977Y1528167D02*
X2007977D01*
X2006979Y1531757D02*
X2009975D01*
Y1524577*
X2006979*
Y1531757*
G74*
X0Y0D02*
M02*
