*
*
G04 PADS VX.2 Build Number: 5060570 generated Gerber (RS-274-X) file*
G04 PC Version=2.1*
*
%IN "ESP32-PROG_V2_1207.pcb"*%
*
%MOIN*%
*
%FSLAX35Y35*%
*
*
*
*
G04 PC Standard Apertures*
*
*
G04 Thermal Relief Aperture macro.*
%AMTER*
1,1,$1,0,0*
1,0,$1-$2,0,0*
21,0,$3,$4,0,0,45*
21,0,$3,$4,0,0,135*
%
*
*
G04 Annular Aperture macro.*
%AMANN*
1,1,$1,0,0*
1,0,$2,0,0*
%
*
*
G04 Odd Aperture macro.*
%AMODD*
1,1,$1,0,0*
1,0,$1-0.005,0,0*
%
*
*
G04 PC Custom Aperture Macros*
*
*
*
*
*
*
G04 PC Aperture Table*
*
%ADD010C,0.001*%
%ADD011R,0.02X0.02*%
%ADD012C,0.01*%
%ADD018R,0.032X0.036*%
%ADD025C,0.006*%
%ADD054C,0.008*%
%ADD055C,0.004*%
%ADD056C,0.012*%
%ADD060C,0.015*%
%ADD070C,0.02*%
%ADD072C,0.025*%
%ADD142C,0.002*%
%ADD152O,0.07087X0.05906*%
%ADD155R,0.07X0.07*%
%ADD156C,0.07*%
%ADD163R,0.05512X0.07087*%
%ADD164R,0.13386X0.07087*%
*
*
*
*
G04 PC Circuitry*
G04 Layer Name ESP32-PROG_V2_1207.pcb - circuitry*
%LPD*%
*
*
G04 PC Custom Flashes*
G04 Layer Name ESP32-PROG_V2_1207.pcb - flashes*
%LPD*%
*
*
G04 PC Circuitry*
G04 Layer Name ESP32-PROG_V2_1207.pcb - circuitry*
%LPD*%
*
G54D10*
G54D11*
G01X2030372Y1572510D03*
X2034372D03*
X1972504Y1574803D03*
X1968504D03*
X1896037Y1572303D03*
X1900037D03*
X2020827Y1527803D03*
X2024827D03*
X1952405Y1492109D03*
X1956405D03*
X1955804Y1551303D03*
X1959804D03*
X1955904Y1555403D03*
X1959904D03*
G54D12*
X1899183Y1507621D02*
X1905978D01*
X1826106Y1532403D02*
X1825786Y1532723D01*
X1821996Y1532403D02*
Y1533379D01*
X1822056Y1533439*
X1835050Y1551517D02*
X1838378Y1554846D01*
X1826273Y1542694D02*
X1829423Y1545844D01*
X1834387Y1555947D02*
X1837180Y1558740D01*
X1839667*
X1827823Y1548592D02*
X1828949Y1549718D01*
X1830548*
X1822115Y1533379D02*
X1822056Y1533439D01*
X1835639Y1550928D02*
X1835050Y1551517D01*
X1829423Y1545844D02*
X1831923Y1548344D01*
X1838378Y1554846D02*
X1840970Y1557438D01*
X1822071Y1538992D02*
Y1541829D01*
X1823354Y1543111*
Y1544709*
X1793434Y1524411D02*
Y1547373D01*
X1783754Y1557053*
X1839667Y1558740D02*
X1840997Y1557411D01*
X1840970Y1557438*
X1831923Y1548344D02*
X1830548Y1549718D01*
X1825287Y1530208D02*
Y1532722D01*
Y1532723*
X1825786*
X1826739Y1542228D02*
X1826273Y1542694D01*
X1867030Y1554748D02*
Y1564849D01*
X1864647Y1567232*
X1870018Y1548975D02*
Y1551760D01*
X1867030Y1554748*
G54D18*
X1799935Y1524511D03*
X1806435D03*
X1786934Y1524411D03*
X1793434D03*
G54D25*
X1968804Y1488167D02*
X1977404Y1496767D01*
Y1504703*
X1982504Y1509803*
X1968804Y1488167D02*
X1914168D01*
X1911368Y1490967*
X1908704*
X1892704Y1497803D02*
X1894884D01*
X1900448Y1503367*
X1903004*
X1914204Y1495767D02*
X1914149Y1495600D01*
X1912271*
X1910804Y1497067*
Y1503367*
X1933546Y1491122D02*
X1947227Y1504803D01*
X1957504*
X1962504Y1509803*
X1933546Y1491122D02*
X1918840D01*
X1916517Y1493445*
Y1495925*
X1914675Y1497767*
X1913404*
X1960604Y1489467D02*
X1967504Y1496367D01*
Y1504803*
X1972504Y1509803*
X1960604Y1489467D02*
X1915579D01*
X1912274Y1492773*
X1912274D02*
X1897199D01*
X1897199D02*
X1894204Y1495767D01*
Y1499767D02*
X1899504Y1505067D01*
X1911804*
X1903004Y1503367D02*
X1910804D01*
X1938983Y1500967D02*
X1947819Y1509803D01*
X1952504*
X1938983Y1500967D02*
X1915904D01*
X1911804Y1505067*
X1922504Y1534767D02*
Y1563871D01*
X1922384Y1563873*
X1811271Y1518096D02*
Y1538364D01*
X1813810Y1540903*
X1823520Y1505847D02*
X1811271Y1518096D01*
X1827930Y1498667D02*
X1886704D01*
Y1498767*
X1880504Y1503667D02*
X1886604Y1509767D01*
Y1518567*
X1880504Y1503667D02*
X1821870D01*
X1809474Y1516063*
Y1544797*
X1791204Y1563067*
X1982504Y1557803D02*
X1977568Y1552867D01*
X1964740*
X1962204Y1555403*
X1959904*
X1992504Y1567803D02*
X1987368Y1562667D01*
X1966963*
X1959663Y1569967*
X1926289*
X1922384Y1573873*
X1949504Y1551267D02*
X1949540Y1551303D01*
X1955804*
X1952204Y1555367D02*
X1955904D01*
Y1555403*
X1959804Y1551303D02*
X1986004D01*
X1992504Y1557803*
G54D54*
X1825287Y1530208D02*
X1823943Y1528864D01*
X1822738*
X1822144Y1529457*
X1862153Y1538775D02*
X1863988Y1540610D01*
Y1540692*
X1855766Y1512297D02*
X1854369Y1513695D01*
X1852819*
X1836679Y1515054D02*
X1838319Y1516695D01*
X1819287Y1536208D02*
Y1536270D01*
X1817754Y1537803*
X1844491Y1561023D02*
X1845931Y1562463D01*
Y1564053*
X1853761Y1547168D02*
X1855286Y1548693D01*
X1862829Y1519228D02*
X1855227Y1526830D01*
X1855153*
X1862804Y1519203D02*
X1862829Y1519228D01*
X1869819Y1542023D02*
X1871029Y1543233D01*
Y1544949*
G54D55*
X1791704Y1529190D02*
Y1522886D01*
X1793954Y1520636*
Y1511103*
X1784454*
Y1507503*
X1788587*
X1789829Y1506261*
Y1490261*
X1790774Y1489316*
X1802639*
X1803054Y1489935*
Y1511103*
X1799304*
Y1518970*
X1795054Y1523220*
Y1529190*
X1791704*
X1784454Y1510914D02*
X1803054D01*
X1784454Y1510554D02*
X1803054D01*
X1784454Y1510194D02*
X1803054D01*
X1784454Y1509834D02*
X1803054D01*
X1784454Y1509474D02*
X1803054D01*
X1784454Y1509114D02*
X1803054D01*
X1784454Y1508754D02*
X1803054D01*
X1784454Y1508394D02*
X1803054D01*
X1784454Y1508034D02*
X1803054D01*
X1784454Y1507674D02*
X1803054D01*
X1788776Y1507314D02*
X1803054D01*
X1789136Y1506954D02*
X1803054D01*
X1789496Y1506594D02*
X1803054D01*
X1789829Y1506234D02*
X1803054D01*
X1789829Y1505874D02*
X1803054D01*
X1789829Y1505514D02*
X1803054D01*
X1789829Y1505154D02*
X1803054D01*
X1789829Y1504794D02*
X1803054D01*
X1789829Y1504434D02*
X1803054D01*
X1789829Y1504074D02*
X1803054D01*
X1789829Y1503714D02*
X1803054D01*
X1789829Y1503354D02*
X1803054D01*
X1789829Y1502994D02*
X1803054D01*
X1789829Y1502634D02*
X1803054D01*
X1789829Y1502274D02*
X1803054D01*
X1789829Y1501914D02*
X1803054D01*
X1789829Y1501554D02*
X1803054D01*
X1789829Y1501194D02*
X1803054D01*
X1789829Y1500834D02*
X1803054D01*
X1789829Y1500474D02*
X1803054D01*
X1789829Y1500114D02*
X1803054D01*
X1789829Y1499754D02*
X1803054D01*
X1789829Y1499394D02*
X1803054D01*
X1789829Y1499034D02*
X1803054D01*
X1789829Y1498674D02*
X1803054D01*
X1789829Y1498314D02*
X1803054D01*
X1789829Y1497954D02*
X1803054D01*
X1789829Y1497594D02*
X1803054D01*
X1789829Y1497234D02*
X1803054D01*
X1789829Y1496874D02*
X1803054D01*
X1789829Y1496514D02*
X1803054D01*
X1789829Y1496154D02*
X1803054D01*
X1789829Y1495794D02*
X1803054D01*
X1789829Y1495434D02*
X1803054D01*
X1789829Y1495074D02*
X1803054D01*
X1789829Y1494714D02*
X1803054D01*
X1789829Y1494354D02*
X1803054D01*
X1789829Y1493994D02*
X1803054D01*
X1789829Y1493634D02*
X1803054D01*
X1789829Y1493274D02*
X1803054D01*
X1789829Y1492914D02*
X1803054D01*
X1789829Y1492554D02*
X1803054D01*
X1789829Y1492194D02*
X1803054D01*
X1789829Y1491834D02*
X1803054D01*
X1789829Y1491474D02*
X1803054D01*
X1789829Y1491114D02*
X1803054D01*
X1789829Y1490754D02*
X1803054D01*
X1789829Y1490394D02*
X1803054D01*
X1790056Y1490034D02*
X1803054D01*
X1790416Y1489674D02*
X1802879D01*
X1793954Y1518834D02*
X1799304D01*
X1793954Y1518474D02*
X1799304D01*
X1793954Y1518114D02*
X1799304D01*
X1793954Y1517754D02*
X1799304D01*
X1793954Y1517394D02*
X1799304D01*
X1793954Y1517034D02*
X1799304D01*
X1793954Y1516674D02*
X1799304D01*
X1793954Y1516314D02*
X1799304D01*
X1793954Y1515954D02*
X1799304D01*
X1793954Y1515594D02*
X1799304D01*
X1793954Y1515234D02*
X1799304D01*
X1793954Y1514874D02*
X1799304D01*
X1793954Y1514514D02*
X1799304D01*
X1793954Y1514154D02*
X1799304D01*
X1793954Y1513794D02*
X1799304D01*
X1793954Y1513434D02*
X1799304D01*
X1793954Y1513074D02*
X1799304D01*
X1793954Y1512714D02*
X1799304D01*
X1793954Y1512354D02*
X1799304D01*
X1793954Y1511994D02*
X1799304D01*
X1793954Y1511634D02*
X1799304D01*
X1793954Y1511274D02*
X1799304D01*
X1793954Y1519194D02*
X1799080D01*
X1793954Y1519554D02*
X1798720D01*
X1793954Y1519914D02*
X1798360D01*
X1793954Y1520274D02*
X1798000D01*
X1793954Y1520634D02*
X1797640D01*
X1793596Y1520994D02*
X1797280D01*
X1793236Y1521354D02*
X1796920D01*
X1792876Y1521714D02*
X1796560D01*
X1792516Y1522074D02*
X1796200D01*
X1792156Y1522434D02*
X1795840D01*
X1791796Y1522794D02*
X1795480D01*
X1791704Y1523154D02*
X1795120D01*
X1791704Y1528914D02*
X1795054D01*
X1791704Y1528554D02*
X1795054D01*
X1791704Y1528194D02*
X1795054D01*
X1791704Y1527834D02*
X1795054D01*
X1791704Y1527474D02*
X1795054D01*
X1791704Y1527114D02*
X1795054D01*
X1791704Y1526754D02*
X1795054D01*
X1791704Y1526394D02*
X1795054D01*
X1791704Y1526034D02*
X1795054D01*
X1791704Y1525674D02*
X1795054D01*
X1791704Y1525314D02*
X1795054D01*
X1791704Y1524954D02*
X1795054D01*
X1791704Y1524594D02*
X1795054D01*
X1791704Y1524234D02*
X1795054D01*
X1791704Y1523874D02*
X1795054D01*
X1791704Y1523514D02*
X1795054D01*
X1996804Y1509803D02*
G75*
G03X1996804I-4300J0D01*
G01X1773640Y1525911D02*
G03X1773640I-2131J0D01*
G01Y1541659D02*
G03X1773640I-2131J0D01*
G01X2043004Y1571456D02*
G03X2032393Y1582067I-10611J-0D01*
G01X1767015*
G03X1756404Y1571456I0J-10611*
G01Y1496114*
G03X1767015Y1485503I10611J0*
G01X2032393*
G03X2043004Y1496114I0J10611*
G01Y1571456*
X1911684Y1494606D02*
G03X1911633Y1494704I-120J0D01*
G01X1911493Y1494823D02*
G03X1911633Y1494704I778J777D01*
G01X1911493Y1494823D02*
X1910026Y1496289D01*
X1909704Y1497067D02*
G03X1910026Y1496289I1100J-0D01*
G01X1909704Y1497067D02*
Y1502147D01*
G03X1909584Y1502267I-120J-0*
G01X1904144*
G03X1904062Y1502235I0J-120*
G01X1901946D02*
G03X1904062I1058J1132D01*
G01X1901946D02*
G03X1901864Y1502267I-82J-88D01*
G01X1900953*
G03X1900868Y1502232I-0J-120*
G01X1895661Y1497025*
X1895473Y1496874D02*
G03X1895661Y1497025I-589J929D01*
G01X1895473Y1496874D02*
G03X1895417Y1496773I64J-101D01*
X1895441Y1496701I120J-0*
G01X1895753Y1495819D02*
G03X1895441Y1496701I-1549J-52D01*
G01X1895753Y1495819D02*
G03X1895788Y1495738I120J4D01*
G01X1897619Y1493908*
G03X1897704Y1493873I85J85*
G01X1911564*
G03X1911684Y1493993I-0J120*
G01Y1494606*
X2029129Y1567302D02*
G03X2032203Y1568573I1274J1271D01*
G01X2029129Y1567302D02*
X2029099Y1567332D01*
X2028572Y1568605D02*
G03X2029099Y1567332I1800J-0D01*
G01X2028572Y1568605D02*
Y1570840D01*
G03X2028452Y1570960I-120J0*
G01X2026982*
G03X2026955Y1570957I-0J-120*
G01X2025054Y1572467D02*
G03X2026955Y1570957I1550J-0D01*
G01X2025054Y1572467D02*
Y1572510D01*
X2026604Y1574060D02*
G03X2025054Y1572510I0J-1550D01*
G01X2026604Y1574060D02*
X2028741D01*
G03X2028823Y1574093I0J120*
G01X2029372Y1574310D02*
G03X2028824Y1574093I-0J-800D01*
G01X2029372Y1574310D02*
X2031372D01*
X2032172Y1573510D02*
G03X2031372Y1574310I-800J0D01*
G01X2032172Y1573510D02*
Y1568920D01*
G03X2032174Y1568898I120J-0*
G01X2032203Y1568573D02*
G03X2032174Y1568898I-1800J0D01*
G01X2022627Y1528803D02*
Y1525053D01*
X2020827Y1523253D02*
G03X2022627Y1525053I-0J1800D01*
G01X2020827Y1523253D02*
X2020754D01*
X2018954Y1525053D02*
G03X2020754Y1523253I1800J0D01*
G01X2019022Y1525544D02*
G03X2018954Y1525053I1732J-491D01*
G01X2019022Y1525544D02*
G03X2019027Y1525577I-115J33D01*
G01Y1528803*
X2019827Y1529603D02*
G03X2019027Y1528803I-0J-800D01*
G01X2019827Y1529603D02*
X2021827D01*
X2022627Y1528803D02*
G03X2021827Y1529603I-800J0D01*
G01X1996804Y1509803D02*
G03X1996804I-4300J0D01*
G01X1980421Y1506041D02*
G03X1986804Y1509803I2083J3762D01*
G01X1980421Y1506041D02*
G03X1980278Y1506021I-58J-105D01*
G01X1978539Y1504283*
G03X1978504Y1504198I85J-85*
G01Y1496767*
X1978182Y1495989D02*
G03X1978504Y1496767I-778J778D01*
G01X1978182Y1495989D02*
X1969582Y1487389D01*
X1968804Y1487067D02*
G03X1969582Y1487389I-0J1100D01*
G01X1968804Y1487067D02*
X1914168D01*
X1913390Y1487389D02*
G03X1914168Y1487067I778J778D01*
G01X1913390Y1487389D02*
X1910948Y1489832D01*
G03X1910863Y1489867I-85J-85*
G01X1909844*
G03X1909762Y1489835I0J-120*
G01X1907154Y1490967D02*
G03X1909762Y1489835I1550J-0D01*
G01X1907252Y1491510D02*
G03X1907154Y1490967I1452J-543D01*
G01X1907252Y1491510D02*
G03X1907260Y1491552I-112J42D01*
X1907140Y1491672I-120J0*
G01X1897199*
X1896421Y1491995D02*
G03X1897199Y1491672I778J778D01*
G01X1896421Y1491995D02*
X1894233Y1494183D01*
G03X1894152Y1494218I-85J-85*
G01X1892654Y1495767D02*
G03X1894152Y1494218I1550J-0D01*
G01X1892693Y1496111D02*
G03X1892654Y1495767I1511J-344D01*
G01X1892693Y1496111D02*
G03X1892696Y1496138I-117J27D01*
X1892585Y1496258I-120J-0*
G01X1891154Y1497803D02*
G03X1892585Y1496258I1550J-0D01*
G01X1892571Y1499347D02*
G03X1891154Y1497803I133J-1544D01*
G01X1892571Y1499347D02*
G03X1892681Y1499467I-10J120D01*
X1892679Y1499488I-120J-0*
G01X1892654Y1499767D02*
G03X1892679Y1499488I1550J-0D01*
G01X1892654Y1499767D02*
X1892654D01*
X1894152Y1501316D02*
G03X1892654Y1499767I52J-1549D01*
G01X1894152Y1501316D02*
G03X1894233Y1501351I-4J120D01*
G01X1898726Y1505845*
X1898809Y1505919D02*
G03X1898726Y1505845I695J-852D01*
G01X1898809Y1505919D02*
G03X1898853Y1506012I-76J93D01*
X1898765Y1506128I-120J0*
G01X1897632Y1507621D02*
G03X1898765Y1506128I1551J-0D01*
G01X1899998Y1508939D02*
G03X1897632Y1507621I-815J-1318D01*
G01X1899998Y1508939D02*
G03X1900061Y1508921I63J102D01*
G01X1905099*
G03X1905162Y1508939I-0J120*
G01X1907528Y1507621D02*
G03X1905162Y1508939I-1550J-0D01*
G01X1906911Y1506383D02*
G03X1907528Y1507621I-933J1238D01*
G01X1906911Y1506383D02*
G03X1906863Y1506287I72J-96D01*
X1906983Y1506167I120J0*
G01X1911804*
X1912582Y1505844D02*
G03X1911804Y1506167I-778J-777D01*
G01X1912582Y1505844D02*
X1916325Y1502102D01*
G03X1916409Y1502067I84J85*
G01X1918490*
G03X1918610Y1502187I0J120*
X1918559Y1502285I-120J0*
G01X1916732Y1505803D02*
G03X1918559Y1502285I4300J0D01*
G01X1925332Y1505803D02*
G03X1916732I-4300J0D01*
G01X1923505Y1502285D02*
G03X1925332Y1505803I-2473J3518D01*
G01X1923505Y1502285D02*
G03X1923454Y1502187I69J-98D01*
X1923574Y1502067I120J0*
G01X1938478*
G03X1938563Y1502102I-0J120*
G01X1947041Y1510581*
X1947819Y1510903D02*
G03X1947041Y1510581I0J-1100D01*
G01X1947819Y1510903D02*
X1948256D01*
G03X1948371Y1510990I-0J120*
G01X1956804Y1509803D02*
G03X1948371Y1510990I-4300J0D01*
G01X1954732Y1506126D02*
G03X1956804Y1509803I-2228J3677D01*
G01X1954732Y1506126D02*
G03X1954675Y1506023I63J-103D01*
X1954795Y1505903I120J0*
G01X1956998*
G03X1957083Y1505938I0J120*
G01X1958722Y1507577*
G03X1958757Y1507662I-85J85*
X1958742Y1507720I-120J-0*
G01X1958204Y1509803D02*
G03X1958742Y1507720I4300J0D01*
G01X1966804Y1509803D02*
G03X1958204I-4300J0D01*
G01X1960421Y1506041D02*
G03X1966804Y1509803I2083J3762D01*
G01X1960421Y1506041D02*
G03X1960278Y1506021I-58J-105D01*
G01X1958282Y1504025*
X1957504Y1503703D02*
G03X1958282Y1504025I-0J1100D01*
G01X1957504Y1503703D02*
X1956880D01*
G03X1956760Y1503583I0J-120*
X1956766Y1503546I120J-0*
G01X1956804Y1503303D02*
G03X1956766Y1503546I-800J0D01*
G01X1956804Y1503303D02*
Y1496303D01*
X1956004Y1495503D02*
G03X1956804Y1496303I-0J800D01*
G01X1956004Y1495503D02*
X1954325D01*
G03X1954205Y1495383I0J-120*
G01Y1491109*
X1954116Y1490742D02*
G03X1954205Y1491109I-711J367D01*
G01X1954116Y1490742D02*
G03X1954103Y1490687I107J-55D01*
X1954223Y1490567I120J0*
G01X1960099*
G03X1960183Y1490602I-0J120*
G01X1966369Y1496787*
G03X1966404Y1496872I-85J85*
G01Y1504803*
X1966726Y1505581D02*
G03X1966404Y1504803I778J-778D01*
G01X1966726Y1505581D02*
X1968722Y1507577D01*
G03X1968757Y1507662I-85J85*
X1968742Y1507720I-120J-0*
G01X1968204Y1509803D02*
G03X1968742Y1507720I4300J0D01*
G01X1976804Y1509803D02*
G03X1968204I-4300J0D01*
G01X1970421Y1506041D02*
G03X1976804Y1509803I2083J3762D01*
G01X1970421Y1506041D02*
G03X1970278Y1506021I-58J-105D01*
G01X1968639Y1504383*
G03X1968604Y1504298I85J-85*
G01Y1496367*
X1968282Y1495589D02*
G03X1968604Y1496367I-778J778D01*
G01X1968282Y1495589D02*
X1962164Y1489472D01*
G03X1962129Y1489387I85J-85*
X1962249Y1489267I120J0*
G01X1968299*
G03X1968383Y1489302I-0J120*
G01X1976269Y1497187*
G03X1976304Y1497272I-85J85*
G01Y1504703*
X1976626Y1505481D02*
G03X1976304Y1504703I778J-778D01*
G01X1976626Y1505481D02*
X1978722Y1507577D01*
G03X1978757Y1507662I-85J85*
X1978742Y1507720I-120J-0*
G01X1978204Y1509803D02*
G03X1978742Y1507720I4300J0D01*
G01X1986804Y1509803D02*
G03X1978204I-4300J0D01*
G01X1994391Y1561897D02*
G03X1998704Y1567803I-1887J5906D01*
G01X1994391Y1561897D02*
G03X1994307Y1561783I36J-114D01*
X1994375Y1561675I120J-0*
G01X1996804Y1557803D02*
G03X1994375Y1561675I-4300J0D01*
G01X1990421Y1554041D02*
G03X1996804Y1557803I2083J3762D01*
G01X1990421Y1554041D02*
G03X1990278Y1554021I-58J-105D01*
G01X1986782Y1550525*
X1986004Y1550203D02*
G03X1986782Y1550525I-0J1100D01*
G01X1986004Y1550203D02*
X1961697D01*
G03X1961581Y1550112I0J-120*
G01X1960804Y1549503D02*
G03X1961581Y1550112I-0J800D01*
G01X1960804Y1549503D02*
X1958804D01*
X1958004Y1550303D02*
G03X1958804Y1549503I800J0D01*
G01X1958004Y1550303D02*
Y1552303D01*
X1958804Y1553103D02*
G03X1958004Y1552303I-0J-800D01*
G01X1958804Y1553103D02*
X1960804D01*
X1961581Y1552494D02*
G03X1960804Y1553103I-777J-191D01*
G01X1961581Y1552494D02*
G03X1961697Y1552403I116J29D01*
G01X1963359*
G03X1963479Y1552523I-0J120*
X1963443Y1552608I-120J0*
G01X1961860Y1554192*
G03X1961661Y1554146I-85J-85*
G01X1960904Y1553603D02*
G03X1961661Y1554146I-0J800D01*
G01X1960904Y1553603D02*
X1958904D01*
X1958104Y1554403D02*
G03X1958904Y1553603I800J0D01*
G01X1958104Y1554403D02*
Y1556403D01*
X1958904Y1557203D02*
G03X1958104Y1556403I-0J-800D01*
G01X1958904Y1557203D02*
X1960904D01*
X1961681Y1556594D02*
G03X1960904Y1557203I-777J-191D01*
G01X1961681Y1556594D02*
G03X1961797Y1556503I116J29D01*
G01X1962204*
X1962982Y1556181D02*
G03X1962204Y1556503I-778J-778D01*
G01X1962982Y1556181D02*
X1965161Y1554002D01*
G03X1965246Y1553967I85J85*
G01X1968110*
G03X1968230Y1554087I-0J120*
X1968226Y1554115I-120J0*
G01X1968204Y1554303D02*
G03X1968226Y1554115I800J0D01*
G01X1968204Y1554303D02*
Y1558047D01*
G03X1968084Y1558167I-120J-0*
G01X1966963*
X1963781Y1559485D02*
G03X1966963Y1558167I3182J3182D01*
G01X1963781Y1559485D02*
X1957834Y1565432D01*
G03X1957749Y1565467I-85J-85*
G01X1942390*
G03X1942270Y1565347I0J-120*
G01X1942270*
G03X1942271Y1565332I120J-0*
G01X1942304Y1564803D02*
G03X1942271Y1565332I-4300J0D01*
G01X1933704Y1564803D02*
G03X1942304I4300J0D01*
G01X1933737Y1565332D02*
G03X1933704Y1564803I4267J-529D01*
G01X1933737Y1565332D02*
G03Y1565347I-120J15D01*
G01X1933737D02*
X1933737D01*
X1933737D02*
G03X1933617Y1565467I-120J-0D01*
G01X1933617D02*
X1926550D01*
G03X1926430Y1565347I0J-120*
X1926437Y1565307I120J-0*
G01X1926684Y1563873D02*
G03X1926437Y1565307I-4300J-0D01*
G01X1923688Y1559775D02*
G03X1926684Y1563873I-1304J4098D01*
G01X1923688Y1559775D02*
G03X1923604Y1559661I36J-114D01*
G01Y1535907*
G03X1923636Y1535825I120J0*
G01X1924054Y1534767D02*
G03X1923636Y1535825I-1550J-0D01*
G01X1920954Y1534767D02*
G03X1924054I1550J-0D01*
G01X1921372Y1535825D02*
G03X1920954Y1534767I1132J-1058D01*
G01X1921372Y1535825D02*
G03X1921404Y1535907I-88J82D01*
G01Y1559591*
G03X1921314Y1559708I-120J0*
G01X1918084Y1563873D02*
G03X1921314Y1559708I4300J-0D01*
G01X1920513Y1567744D02*
G03X1918084Y1563873I1871J-3871D01*
G01X1920513Y1567744D02*
G03X1920580Y1567852I-53J108D01*
X1920497Y1567967I-120J0*
G01X1916184Y1573873D02*
G03X1920497Y1567967I6200J-0D01*
G01X1928544Y1574573D02*
G03X1916184Y1573873I-6160J-700D01*
G01X1928544Y1574573D02*
G03X1928663Y1574467I119J14D01*
G01X1933589*
G03X1933709Y1574587I0J120*
Y1574593I-120J-0*
G01X1933704Y1574803D02*
G03X1933709Y1574593I4300J0D01*
G01X1942304Y1574803D02*
G03X1933704I-4300J0D01*
G01X1942299Y1574593D02*
G03X1942304Y1574803I-4295J210D01*
G01X1942299Y1574593D02*
G03Y1574587I120J-6D01*
X1942419Y1574467I120J0*
G01X1959663*
X1962845Y1573149D02*
G03X1959663Y1574467I-3182J-3182D01*
G01X1962845Y1573149D02*
X1968007Y1567987D01*
G03X1968212Y1568064I85J85*
G01X1970636Y1571676D02*
G03X1968212Y1568064I1868J-3873D01*
G01X1970636Y1571676D02*
G03X1970704Y1571784I-52J108D01*
G01Y1575803*
X1971504Y1576603D02*
G03X1970704Y1575803I-0J-800D01*
G01X1971504Y1576603D02*
X1973504D01*
X1974304Y1575803D02*
G03X1973504Y1576603I-800J0D01*
G01X1974304Y1575803D02*
Y1571784D01*
G03X1974372Y1571676I120J0*
G01X1976804Y1567803D02*
G03X1974372Y1571676I-4300J0D01*
G01X1976804Y1567803D02*
X1976804D01*
X1976775Y1567301D02*
G03X1976804Y1567803I-4271J502D01*
G01X1976775Y1567301D02*
G03X1976774Y1567287I119J-14D01*
X1976894Y1567167I120J0*
G01X1985454*
G03X1985539Y1567202I0J120*
G01X1986273Y1567936*
G03X1986308Y1568016I-85J85*
G01X1998704Y1567803D02*
G03X1986308Y1568016I-6200J0D01*
G01X1957604Y1552303D02*
Y1550303D01*
X1956804Y1549503D02*
G03X1957604Y1550303I-0J800D01*
G01X1956804Y1549503D02*
X1954804D01*
X1954027Y1550112D02*
G03X1954804Y1549503I777J191D01*
G01X1954027Y1550112D02*
G03X1953911Y1550203I-116J-29D01*
G01X1950682*
G03X1950597Y1550168I-0J-120*
G01X1947954Y1551267D02*
G03X1950597Y1550168I1550J-0D01*
G01X1950525Y1552433D02*
G03X1947954Y1551267I-1021J-1166D01*
G01X1950525Y1552433D02*
G03X1950604Y1552403I79J90D01*
G01X1953911*
G03X1954027Y1552494I-0J120*
G01X1954804Y1553103D02*
G03X1954027Y1552494I-0J-800D01*
G01X1954804Y1553103D02*
X1956804D01*
X1957604Y1552303D02*
G03X1956804Y1553103I-800J0D01*
G01X1957704Y1556403D02*
Y1554403D01*
X1956904Y1553603D02*
G03X1957704Y1554403I-0J800D01*
G01X1956904Y1553603D02*
X1954904D01*
X1954136Y1554180D02*
G03X1954904Y1553603I768J223D01*
G01X1954136Y1554180D02*
G03X1954020Y1554267I-116J-33D01*
G01X1953344*
G03X1953262Y1554235I0J-120*
G01X1950654Y1555367D02*
G03X1953262Y1554235I1550J-0D01*
G01Y1556499D02*
G03X1950654Y1555367I-1058J-1132D01*
G01X1953262Y1556499D02*
G03X1953344Y1556467I82J88D01*
G01X1954002*
G03X1954120Y1556563I0J120*
G01X1954904Y1557203D02*
G03X1954120Y1556563I-0J-800D01*
G01X1954904Y1557203D02*
X1956904D01*
X1957704Y1556403D02*
G03X1956904Y1557203I-800J0D01*
G01X1939872Y1550930D02*
G03X1942304Y1554803I-1868J3873D01*
G01X1939872Y1550930D02*
G03X1939804Y1550822I52J-108D01*
G01Y1532775*
X1939277Y1531502D02*
G03X1939804Y1532775I-1273J1273D01*
G01X1939277Y1531502D02*
X1925120Y1517345D01*
G03X1925085Y1517261I85J-84*
X1925091Y1517221I120J-0*
G01X1925332Y1515803D02*
G03X1925091Y1517221I-4300J0D01*
G01X1917159Y1513935D02*
G03X1925332Y1515803I3873J1868D01*
G01X1917159Y1513935D02*
G03X1917051Y1514003I-108J-52D01*
G01X1898235*
G03X1898151Y1513968I0J-120*
G01X1884278Y1500096*
X1884151Y1499980D02*
G03X1884278Y1500096I-1147J1387D01*
G01X1884151Y1499980D02*
G03X1884107Y1499887I76J-93D01*
X1884227Y1499767I120J0*
G01X1885465*
G03X1885554Y1499807I0J120*
G01X1888254Y1498767D02*
G03X1885554Y1499807I-1550J-0D01*
G01X1885755Y1497542D02*
G03X1888254Y1498767I949J1225D01*
G01X1885755Y1497542D02*
G03X1885681Y1497567I-74J-95D01*
G01X1829071*
G03X1828989Y1497535I-0J-120*
G01X1826380Y1498667D02*
G03X1828989Y1497535I1550J-0D01*
G01X1826560Y1499391D02*
G03X1826380Y1498667I1370J-724D01*
G01X1826560Y1499391D02*
G03X1826574Y1499447I-106J56D01*
X1826454Y1499567I-120J-0*
G01X1820169*
X1818896Y1500094D02*
G03X1820169Y1499567I1273J1273D01*
G01X1818896Y1500094D02*
X1806714Y1512277D01*
G03X1806629Y1512312I-85J-85*
G01X1803317*
G03X1803197Y1512192I0J-120*
X1803289Y1512075I120J-0*
G01X1804054Y1511103D02*
G03X1803289Y1512075I-1000J0D01*
G01X1804054Y1511103D02*
Y1497488D01*
G03X1804061Y1497448I120J-0*
G01X1804106Y1497182D02*
G03X1804061Y1497448I-800J0D01*
G01X1804106Y1497182D02*
Y1490096D01*
X1804047Y1489795D02*
G03X1804106Y1490096I-741J301D01*
G01X1804047Y1489795D02*
G03X1804040Y1489770I112J-45D01*
G01X1803885Y1489378D02*
G03X1804040Y1489770I-831J557D01*
G01X1803885Y1489378D02*
X1803469Y1488759D01*
X1802639Y1488316D02*
G03X1803469Y1488759I-0J1000D01*
G01X1802639Y1488316D02*
X1790774D01*
X1790067Y1488609D02*
G03X1790774Y1488316I707J707D01*
G01X1790067Y1488609D02*
X1789122Y1489554D01*
X1788829Y1490261D02*
G03X1789122Y1489554I1000J-0D01*
G01X1788829Y1490261D02*
Y1505797D01*
G03X1788794Y1505882I-120J0*
G01X1788208Y1506468*
G03X1788123Y1506503I-85J-85*
G01X1784454*
X1783454Y1507503D02*
G03X1784454Y1506503I1000J0D01*
G01X1783454Y1507503D02*
Y1511103D01*
X1784454Y1512103D02*
G03X1783454Y1511103I-0J-1000D01*
G01X1784454Y1512103D02*
X1792834D01*
G03X1792954Y1512223I-0J120*
G01Y1520172*
G03X1792919Y1520257I-120J0*
G01X1790997Y1522179*
X1790704Y1522886D02*
G03X1790997Y1522179I1000J-0D01*
G01X1790704Y1522886D02*
Y1529190D01*
X1791704Y1530190D02*
G03X1790704Y1529190I-0J-1000D01*
G01X1791704Y1530190D02*
X1792014D01*
G03X1792134Y1530310I0J120*
G01Y1546785*
G03X1792099Y1546869I-120J-0*
G01X1783456Y1555512*
G03X1783399Y1555544I-85J-84*
G01X1782204Y1557053D02*
G03X1783399Y1555544I1550J0D01*
G01X1785263Y1557408D02*
G03X1782204Y1557053I-1509J-355D01*
G01X1785263Y1557408D02*
G03X1785295Y1557351I117J28D01*
G01X1794354Y1548292*
X1794734Y1547373D02*
G03X1794354Y1548292I-1300J-0D01*
G01X1794734Y1547373D02*
Y1530310D01*
G03X1794854Y1530190I120J0*
G01X1795054*
X1796054Y1529190D02*
G03X1795054Y1530190I-1000J0D01*
G01X1796054Y1529190D02*
Y1523684D01*
G03X1796089Y1523599I120J0*
G01X1798655Y1521034*
G03X1798740Y1520998I85J84*
G01X1799369*
X1800169Y1520198D02*
G03X1799369Y1520998I-800J0D01*
G01X1800169Y1520198D02*
Y1519503D01*
G03X1800184Y1519446I120J0*
G01X1800304Y1518970D02*
G03X1800184Y1519446I-1000J0D01*
G01X1800304Y1518970D02*
Y1512223D01*
G03X1800424Y1512103I120J0*
G01X1802674*
G03X1802794Y1512223I-0J120*
X1802705Y1512339I-120J0*
G01X1802112Y1513112D02*
G03X1802705Y1512339I800J-0D01*
G01X1802112Y1513112D02*
Y1520198D01*
X1802912Y1520998D02*
G03X1802112Y1520198I0J-800D01*
G01X1802912Y1520998D02*
X1804515D01*
G03X1804635Y1521118I-0J120*
G01Y1521848*
G03X1804556Y1521961I-120J-0*
G01X1804035Y1522711D02*
G03X1804556Y1521961I800J-0D01*
G01X1804035Y1522711D02*
Y1526311D01*
X1804556Y1527061D02*
G03X1804035Y1526311I279J-750D01*
G01X1804556Y1527061D02*
G03X1804635Y1527173I-41J112D01*
G01Y1540841*
G03X1804599Y1540926I-120J0*
G01X1799333Y1546193*
X1798804Y1547467D02*
G03X1799333Y1546193I1800J-0D01*
G01X1801878Y1548738D02*
G03X1798804Y1547467I-1274J-1271D01*
G01X1801878Y1548738D02*
X1801979Y1548638D01*
G03X1802184Y1548723I85J85*
G01Y1550482*
G03X1802148Y1550567I-120J0*
G01X1791233Y1561483*
G03X1791152Y1561518I-85J-85*
G01X1789654Y1563067D02*
G03X1791152Y1561518I1550J-0D01*
G01X1792753Y1563119D02*
G03X1789654Y1563067I-1549J-52D01*
G01X1792753Y1563119D02*
G03X1792788Y1563038I120J4D01*
G01X1810252Y1545575*
X1810574Y1544797D02*
G03X1810252Y1545575I-1100J0D01*
G01X1810574Y1544797D02*
Y1539512D01*
G03X1810779Y1539427I120J-0*
G01X1812226Y1540874*
G03X1812261Y1540955I-85J85*
G01X1815360Y1540903D02*
G03X1812261Y1540955I-1550J-0D01*
G01X1813863Y1539353D02*
G03X1815360Y1540903I-53J1550D01*
G01X1813863Y1539353D02*
G03X1813782Y1539318I4J-120D01*
G01X1812406Y1537943*
G03X1812371Y1537858I85J-85*
G01Y1535841*
G03X1812581Y1535761I120J0*
G01X1816072Y1535008D02*
G03X1812581Y1535761I-1958J-608D01*
G01X1816072Y1535008D02*
G03X1816102Y1534958I115J35D01*
G01X1816823Y1534238*
G03X1816907Y1534203I84J85*
G01X1818457*
G03X1818577Y1534323I-0J120*
X1818542Y1534407I-120J-0*
G01X1817307Y1535642*
X1817073Y1536208D02*
G03X1817307Y1535642I800J-0D01*
G01X1817073Y1536208D02*
X1817073D01*
X1817080Y1536317D02*
G03X1817073Y1536208I793J-109D01*
G01X1817080Y1536317D02*
G03X1817081Y1536333I-119J16D01*
X1817018Y1536439I-120J0*
G01X1816204Y1537803D02*
G03X1817018Y1536439I1550J0D01*
G01X1819144Y1538488D02*
G03X1816204Y1537803I-1390J-685D01*
G01X1819144Y1538488D02*
G03X1819257Y1538421I108J53D01*
G01X1819853Y1538188D02*
G03X1819257Y1538421I-566J-566D01*
G01X1819853Y1538188D02*
X1821267Y1536773D01*
X1821501Y1536208D02*
G03X1821267Y1536773I-800J-0D01*
G01Y1535642D02*
G03X1821501Y1536208I-566J566D01*
G01X1821267Y1535642D02*
X1820032Y1534407D01*
G03X1819997Y1534323I85J-84*
X1820117Y1534203I120J-0*
G01X1820343*
G03X1820428Y1534238I0J120*
G01X1821550Y1535359*
X1822681D02*
G03X1821550I-566J-565D01*
G01X1822681D02*
X1823803Y1534238D01*
G03X1823888Y1534203I85J85*
G01X1825311*
G03X1825396Y1534238I0J120*
G01X1828180Y1537022*
G03X1828215Y1537106I-85J84*
X1828204Y1537156I-120J0*
G01X1828131Y1537490D02*
G03X1828204Y1537156I800J0D01*
G01X1828365Y1538056D02*
G03X1828131Y1537490I566J-566D01*
G01X1828365Y1538056D02*
X1830911Y1540601D01*
X1831810Y1540763D02*
G03X1830911Y1540601I-333J-727D01*
G01X1831810Y1540763D02*
G03X1831945Y1540787I50J109D01*
G01X1837027Y1545869*
G03X1837062Y1545953I-85J84*
X1837058Y1545984I-120J0*
G01X1837031Y1546190D02*
G03X1837058Y1545984I800J0D01*
G01X1837265Y1546756D02*
G03X1837031Y1546190I566J-566D01*
G01X1837265Y1546756D02*
X1839811Y1549301D01*
X1840710Y1549463D02*
G03X1839811Y1549301I-333J-727D01*
G01X1840710Y1549463D02*
G03X1840845Y1549487I50J109D01*
G01X1841374Y1550015*
X1842646Y1550543D02*
G03X1841374Y1550015I0J-1800D01*
G01X1842646Y1550543D02*
X1852186D01*
X1853460Y1550014D02*
G03X1852186Y1550543I-1274J-1271D01*
G01X1853460Y1550014D02*
X1853865Y1549610D01*
G03X1854045Y1549623I84J85*
G01X1856836Y1548693D02*
G03X1854045Y1549623I-1550J0D01*
G01X1856215Y1547453D02*
G03X1856836Y1548693I-929J1240D01*
G01X1856215Y1547453D02*
G03X1856167Y1547357I72J-96D01*
X1856202Y1547272I120J-0*
G01X1862324Y1541150*
G03X1862522Y1541196I85J85*
G01X1865538Y1540692D02*
G03X1862522Y1541196I-1550J-0D01*
G01X1864492Y1539226D02*
G03X1865538Y1540692I-504J1466D01*
G01X1864492Y1539226D02*
G03X1864411Y1539113I39J-113D01*
X1864446Y1539028I120J-0*
G01X1869718Y1533756*
G03X1869803Y1533721I85J85*
G01X1896195*
G03X1896315Y1533841I0J120*
G01Y1537283*
X1896842Y1538556D02*
G03X1896315Y1537283I1273J-1273D01*
G01X1896842Y1538556D02*
X1899325Y1541038D01*
X1902399Y1539767D02*
G03X1899325Y1541038I-1800J-0D01*
G01X1901870Y1538493D02*
G03X1902399Y1539767I-1271J1274D01*
G01X1901870Y1538493D02*
X1899950Y1536572D01*
G03X1899915Y1536488I85J-84*
G01Y1525136*
G03X1899929Y1525080I120J0*
G01X1900073Y1524732D02*
G03X1899929Y1525080I-1958J-607D01*
G01X1900073Y1524732D02*
G03X1900103Y1524683I115J36D01*
G01X1900833Y1523952*
G03X1900918Y1523917I85J85*
G01X1915309*
G03X1915365Y1523931I-0J120*
G01X1918370Y1522117D02*
G03X1915365Y1523931I-2050J0D01*
G01Y1520303D02*
G03X1918370Y1522117I955J1814D01*
G01X1915365Y1520303D02*
G03X1915309Y1520317I-56J-106D01*
G01X1900123*
X1898850Y1520844D02*
G03X1900123Y1520317I1273J1273D01*
G01X1898850Y1520844D02*
X1897557Y1522137D01*
G03X1897508Y1522167I-84J-85*
G01X1896065Y1524125D02*
G03X1897508Y1522167I2050J-0D01*
G01X1896301Y1525080D02*
G03X1896065Y1524125I1814J-955D01*
G01X1896301Y1525080D02*
G03X1896315Y1525136I-106J56D01*
G01Y1530001*
G03X1896195Y1530121I-120J-0*
G01X1869008*
X1867735Y1530648D02*
G03X1869008Y1530121I1273J1273D01*
G01X1867735Y1530648D02*
X1864759Y1533624D01*
G03X1864589I-85J-84*
G01X1857444Y1526480*
G03X1857409Y1526395I85J-85*
X1857444Y1526310I120J-0*
G01X1862988Y1520767*
G03X1863053Y1520733I84J84*
G01X1864354Y1519203D02*
G03X1863053Y1520733I-1550J0D01*
G01X1861261Y1519060D02*
G03X1864354Y1519203I1543J143D01*
G01X1861261Y1519060D02*
G03X1861226Y1519134I-120J-11D01*
G01X1855699Y1524661*
G03X1855529I-85J-85*
G01X1846290Y1515422*
X1845017Y1514895D02*
G03X1846290Y1515422I0J1800D01*
G01X1845017Y1514895D02*
X1839115D01*
G03X1839030Y1514860I-0J-120*
G01X1838885Y1514715*
X1838217Y1514487D02*
G03X1838885Y1514715I102J794D01*
G01X1838217Y1514487D02*
G03X1838092Y1514417I-16J-119D01*
G01X1835129Y1515054D02*
G03X1838092Y1514417I1550J0D01*
G01X1836042Y1516467D02*
G03X1835129Y1515054I637J-1413D01*
G01X1836042Y1516467D02*
G03X1836113Y1516577I-49J110D01*
X1836112Y1516592I-120J-0*
G01X1836105Y1516695D02*
G03X1836112Y1516592I800J-0D01*
G01X1836339Y1517260D02*
G03X1836105Y1516695I566J-565D01*
G01X1836339Y1517260D02*
X1837754Y1518675D01*
X1838885D02*
G03X1837754I-566J-566D01*
G01X1838885D02*
X1839030Y1518530D01*
G03X1839115Y1518495I85J85*
G01X1844222*
G03X1844307Y1518530I-0J120*
G01X1853874Y1528097*
X1853886Y1528109D02*
G03X1853874Y1528097I1267J-1279D01*
G01X1853886Y1528109D02*
X1854587Y1528810D01*
X1854843Y1528982D02*
G03X1854587Y1528810I310J-737D01*
G01X1854843Y1528982D02*
G03X1854881Y1529008I-47J111D01*
G01X1862043Y1536170*
G03X1862078Y1536255I-85J85*
X1862043Y1536340I-120J-0*
G01X1851476Y1546907*
G03X1851391Y1546943I-85J-84*
G01X1843490*
G03X1843370Y1546823I0J-120*
X1843380Y1546777I120J-0*
G01X1843440Y1546473D02*
G03X1843379Y1546777I-800J-0D01*
G01X1843205Y1545907D02*
G03X1843440Y1546473I-565J566D01*
G01X1843205Y1545907D02*
X1840660Y1543362D01*
X1839649Y1543263D02*
G03X1840660Y1543362I445J664D01*
G01X1839649Y1543263D02*
G03X1839497Y1543248I-67J-100D01*
G01X1834491Y1538241*
G03X1834456Y1538156I85J-85*
G01Y1538157D02*
G03X1834467Y1538106I120J-0D01*
G01X1834540Y1537773D02*
G03X1834467Y1538106I-800J-0D01*
G01X1834305Y1537207D02*
G03X1834540Y1537773I-565J566D01*
G01X1834305Y1537207D02*
X1831760Y1534662D01*
X1830860Y1534500D02*
G03X1831760Y1534662I334J727D01*
G01X1830860Y1534500D02*
G03X1830725Y1534476I-50J-109D01*
G01X1827381Y1531131*
X1827231Y1530997D02*
G03X1827381Y1531131I-1125J1406D01*
G01X1827231Y1530997D02*
G03X1827186Y1530904I75J-93D01*
X1827222Y1530819I120J-0*
G01X1827267Y1530773*
X1827501Y1530208D02*
G03X1827267Y1530773I-800J-0D01*
G01Y1529642D02*
G03X1827501Y1530208I-566J566D01*
G01X1827267Y1529642D02*
X1825853Y1528228D01*
X1824953Y1528066D02*
G03X1825853Y1528228I334J728D01*
G01X1824953Y1528066D02*
G03X1824819Y1528042I-50J-109D01*
G01X1824791Y1528015*
X1823942Y1527664D02*
G03X1824791Y1528015I1J1200D01*
G01X1823942Y1527664D02*
X1822738D01*
X1822030Y1527894D02*
G03X1822738Y1527664I708J970D01*
G01X1822030Y1527894D02*
G03X1821972Y1527917I-71J-96D01*
G01X1820594Y1529457D02*
G03X1821972Y1527917I1550J0D01*
G01X1820920Y1530409D02*
G03X1820594Y1529457I1224J-952D01*
G01X1820920Y1530409D02*
G03X1820946Y1530483I-94J74D01*
X1820826Y1530603I-120J-0*
G01X1816112*
X1814839Y1531130D02*
G03X1816112Y1530603I1273J1273D01*
G01X1814839Y1531130D02*
X1813556Y1532413D01*
G03X1813507Y1532442I-84J-85*
G01X1812581Y1533040D02*
G03X1813507Y1532442I1533J1360D01*
G01X1812581Y1533040D02*
G03X1812371Y1532960I-90J-80D01*
G01Y1518601*
G03X1812406Y1518516I120J-0*
G01X1823492Y1507431*
G03X1823573Y1507396I85J85*
G01X1825070Y1505847D02*
G03X1823573Y1507396I-1550J-0D01*
G01X1824789Y1504956D02*
G03X1825070Y1505847I-1269J891D01*
G01X1824789Y1504956D02*
G03X1824767Y1504887I98J-69D01*
X1824887Y1504767I120J0*
G01X1879999*
G03X1880084Y1504802I-0J120*
G01X1885469Y1510187*
G03X1885504Y1510272I-85J85*
G01Y1517427*
G03X1885472Y1517509I-120J-0*
G01X1885054Y1518567D02*
G03X1885472Y1517509I1550J-0D01*
G01X1888154Y1518567D02*
G03X1885054I-1550J-0D01*
G01X1887736Y1517509D02*
G03X1888154Y1518567I-1132J1058D01*
G01X1887736Y1517509D02*
G03X1887704Y1517427I88J-82D01*
G01Y1512193*
G03X1887824Y1512073I120J-0*
G01X1891114*
G03X1891199Y1512108I0J120*
G01X1896167Y1517076*
X1897440Y1517603D02*
G03X1896167Y1517076I0J-1800D01*
G01X1897440Y1517603D02*
X1917051D01*
G03X1917159Y1517671I-0J120*
G01X1922450Y1519863D02*
G03X1917159Y1517671I-1418J-4060D01*
G01X1922450Y1519863D02*
G03X1922574Y1519891I39J113D01*
G01X1936169Y1533486*
G03X1936204Y1533570I-85J84*
G01Y1550822*
G03X1936136Y1550930I-120J-0*
G01X1933704Y1554803D02*
G03X1936136Y1550930I4300J0D01*
G01X1942304Y1554803D02*
G03X1933704I-4300J0D01*
G01X1854228Y1512102D02*
G03X1857316Y1512297I1538J195D01*
G01X1854228Y1512102D02*
G03X1854194Y1512172I-119J-15D01*
G01X1854103Y1512263*
G03X1853933I-85J-85*
G01X1853385Y1511715*
X1852254D02*
G03X1853385I565J566D01*
G01X1852254D02*
X1850839Y1513129D01*
X1850605Y1513695D02*
G03X1850839Y1513129I800J-0D01*
G01Y1514260D02*
G03X1850605Y1513695I566J-565D01*
G01X1850839Y1514260D02*
X1852254Y1515675D01*
X1853385D02*
G03X1852254I-566J-566D01*
G01X1853385D02*
X1854130Y1514930D01*
G03X1854215Y1514895I85J85*
G01X1854369*
X1855217Y1514543D02*
G03X1854369Y1514895I-848J-848D01*
G01X1855217Y1514543D02*
X1855891Y1513869D01*
G03X1855961Y1513835I85J85*
G01X1857316Y1512297D02*
G03X1855961Y1513835I-1550J0D01*
G01X1901745Y1570754D02*
G03X1904453Y1572308I908J1554D01*
G01X1901745Y1570754D02*
G03X1901600Y1570735I-60J-104D01*
G01X1901037Y1570503D02*
G03X1901600Y1570735I-0J800D01*
G01X1901037Y1570503D02*
X1899037D01*
X1898237Y1571303D02*
G03X1899037Y1570503I800J0D01*
G01X1898237Y1571303D02*
Y1573303D01*
X1899037Y1574103D02*
G03X1898237Y1573303I-0J-800D01*
G01X1899037Y1574103D02*
X1901037D01*
X1901595Y1573877D02*
G03X1901037Y1574103I-558J-574D01*
G01X1901595Y1573877D02*
G03X1901739Y1573859I83J86D01*
G01X1904453Y1572308D02*
G03X1901739Y1573859I-1800J0D01*
G01X1872254Y1544000D02*
G03X1872579Y1544949I-1225J949D01*
G01X1872254Y1544000D02*
G03X1872229Y1543926I95J-74D01*
G01Y1543233*
X1871971Y1542490D02*
G03X1872229Y1543233I-942J743D01*
G01X1871971Y1542490D02*
G03X1871946Y1542416I95J-74D01*
X1871957Y1542364I120J-0*
G01X1872033Y1542023D02*
G03X1871957Y1542364I-800J0D01*
G01X1871799Y1541458D02*
G03X1872033Y1542023I-566J565D01*
G01X1871799Y1541458D02*
X1870385Y1540043D01*
X1869254D02*
G03X1870385I565J566D01*
G01X1869254D02*
X1867839Y1541458D01*
X1867605Y1542023D02*
G03X1867839Y1541458I800J0D01*
G01Y1542589D02*
G03X1867605Y1542023I566J-566D01*
G01X1867839Y1542589D02*
X1869254Y1544003D01*
X1869534Y1544185D02*
G03X1869254Y1544003I285J-748D01*
G01X1869534Y1544185D02*
G03X1869612Y1544297I-42J112D01*
X1869602Y1544344I-120J0*
G01X1869578Y1544406D02*
G03X1869602Y1544344I1451J543D01*
G01X1869578Y1544406D02*
G03X1869550Y1544448I-113J-43D01*
G01X1851380Y1562618*
G03X1851295Y1562653I-85J-85*
G01X1851295D02*
X1847251D01*
G03X1847131Y1562533I0J-120*
G01Y1562463*
X1846780Y1561615D02*
G03X1847131Y1562463I-849J848D01*
G01X1846780Y1561615D02*
X1846656Y1561492D01*
G03X1846621Y1561407I85J-85*
X1846632Y1561357I120J-0*
G01X1846705Y1561023D02*
G03X1846632Y1561357I-800J0D01*
G01X1846471Y1560458D02*
G03X1846705Y1561023I-566J565D01*
G01X1846471Y1560458D02*
X1845057Y1559043D01*
X1843925D02*
G03X1845057I566J566D01*
G01X1843925D02*
X1842511Y1560458D01*
X1842277Y1561023D02*
G03X1842511Y1560458I800J0D01*
G01Y1561589D02*
G03X1842277Y1561023I566J-566D01*
G01X1842511Y1561589D02*
X1843370Y1562448D01*
G03X1843405Y1562533I-85J85*
X1843285Y1562653I-120J0*
G01X1839484*
G03X1839399Y1562618I-0J-120*
G01X1837024Y1560244*
G03X1836989Y1560159I85J-85*
X1837115Y1560039I120J-0*
G01X1837180Y1560040D02*
G03X1837115Y1560039I0J-1300D01*
G01X1837180Y1560040D02*
X1839666D01*
X1840587Y1559660D02*
G03X1839666Y1560040I-920J-920D01*
G01X1840587Y1559660D02*
X1840630Y1559616D01*
G03X1840752Y1559587I85J85*
G01X1841563Y1559391D02*
G03X1840752Y1559587I-566J-566D01*
G01X1841563Y1559391D02*
X1842977Y1557976D01*
X1843211Y1557411D02*
G03X1842977Y1557976I-800J-0D01*
G01Y1556845D02*
G03X1843211Y1557411I-566J566D01*
G01X1842977Y1556845D02*
X1841563Y1555431D01*
X1840717Y1555247D02*
G03X1841563Y1555431I280J750D01*
G01X1840717Y1555247D02*
G03X1840590Y1555220I-42J-112D01*
G01X1840583Y1555212*
G03X1840548Y1555128I85J-84*
X1840554Y1555091I120J-0*
G01X1840592Y1554846D02*
G03X1840554Y1555091I-800J-0D01*
G01X1840358Y1554280D02*
G03X1840592Y1554846I-566J566D01*
G01X1840358Y1554280D02*
X1838944Y1552866D01*
X1838133Y1552670D02*
G03X1838944Y1552866I245J762D01*
G01X1838133Y1552670D02*
G03X1838011Y1552641I-37J-114D01*
G01X1837892Y1552521*
G03X1837857Y1552436I85J-85*
X1837892Y1552352I120J0*
G01X1838609Y1551635*
X1838843Y1551069D02*
G03X1838609Y1551635I-800J0D01*
G01Y1550503D02*
G03X1838843Y1551069I-566J566D01*
G01X1838609Y1550503D02*
X1836063Y1547958D01*
X1834932D02*
G03X1836063I566J565D01*
G01X1834932D02*
X1834333Y1548557D01*
G03X1834128Y1548472I-85J-85*
X1834129Y1548455I120J-0*
G01X1834137Y1548344D02*
G03X1834129Y1548455I-800J-0D01*
G01X1833903Y1547778D02*
G03X1834137Y1548344I-566J566D01*
G01X1833903Y1547778D02*
X1832489Y1546364D01*
X1831763Y1546146D02*
G03X1832489Y1546364I160J784D01*
G01X1831763Y1546146D02*
G03X1831619Y1546028I-24J-118D01*
X1831621Y1546004I120J0*
G01X1831637Y1545844D02*
G03X1831621Y1546004I-800J-0D01*
G01X1831403Y1545278D02*
G03X1831637Y1545844I-566J566D01*
G01X1831403Y1545278D02*
X1829989Y1543864D01*
X1829312Y1543637D02*
G03X1829989Y1543864I111J793D01*
G01X1829312Y1543637D02*
G03X1829175Y1543518I-17J-119D01*
X1829210Y1543434I120J0*
G01X1829709Y1542935*
X1829943Y1542369D02*
G03X1829709Y1542935I-800J0D01*
G01Y1541803D02*
G03X1829943Y1542369I-566J566D01*
G01X1829709Y1541803D02*
X1827163Y1539258D01*
X1826032D02*
G03X1827163I566J565D01*
G01X1826032D02*
X1823770Y1541519D01*
G03X1823601I-84J-84*
G01X1823407Y1541325*
G03X1823371Y1541240I84J-85*
G01Y1540287*
G03X1823407Y1540203I120J0*
G01X1824051Y1539558*
X1824286Y1538992D02*
G03X1824051Y1539558I-800J0D01*
G01Y1538426D02*
G03X1824286Y1538992I-565J566D01*
G01X1824051Y1538426D02*
X1822637Y1537012D01*
X1821506D02*
G03X1822637I565J566D01*
G01X1821506D02*
X1820091Y1538426D01*
X1819857Y1538992D02*
G03X1820091Y1538426I800J0D01*
G01Y1539558D02*
G03X1819857Y1538992I566J-566D01*
G01X1820091Y1539558D02*
X1820736Y1540203D01*
G03X1820771Y1540287I-85J84*
G01Y1541829*
X1821152Y1542748D02*
G03X1820771Y1541829I919J-919D01*
G01X1821152Y1542748D02*
X1822019Y1543615D01*
G03X1822054Y1543699I-85J84*
G01Y1543830*
G03X1822036Y1543894I-120J0*
G01X1821804Y1544709D02*
G03X1822036Y1543894I1550J0D01*
G01X1821943Y1545351D02*
G03X1821804Y1544709I1411J-642D01*
G01X1821943Y1545351D02*
G03X1821954Y1545401I-109J50D01*
G01Y1548553*
X1822364Y1549543D02*
G03X1821954Y1548553I990J-990D01*
G01X1822364Y1549543D02*
X1837864Y1565043D01*
X1838854Y1565453D02*
G03X1837864Y1565043I0J-1400D01*
G01X1838854Y1565453D02*
X1845239D01*
G03X1845289Y1565464I0J120*
G01X1846573D02*
G03X1845289I-642J-1411D01*
G01X1846573D02*
G03X1846623Y1565453I50J109D01*
G01X1851925*
X1852915Y1565043D02*
G03X1851925Y1565453I-990J-990D01*
G01X1852915Y1565043D02*
X1868402Y1549556D01*
G03X1868597Y1549593I85J85*
G01X1868700Y1549791D02*
G03X1868597Y1549593I1318J-816D01*
G01X1868700Y1549791D02*
G03X1868718Y1549854I-102J63D01*
G01Y1551172*
G03X1868683Y1551257I-120J-0*
G01X1866732Y1553207*
G03X1866675Y1553239I-85J-84*
G01X1865480Y1554748D02*
G03X1866675Y1553239I1550J0D01*
G01X1865712Y1555564D02*
G03X1865480Y1554748I1318J-816D01*
G01X1865712Y1555564D02*
G03X1865730Y1555627I-102J63D01*
G01Y1564261*
G03X1865695Y1564346I-120J0*
G01X1864349Y1565691*
G03X1864292Y1565723I-85J-84*
G01X1863097Y1567232D02*
G03X1864292Y1565723I1550J0D01*
G01X1866156Y1567587D02*
G03X1863097Y1567232I-1509J-355D01*
G01X1866156Y1567587D02*
G03X1866188Y1567530I117J28D01*
G01X1867949Y1565768*
X1868330Y1564849D02*
G03X1867949Y1565768I-1300J0D01*
G01X1868330Y1564849D02*
Y1555627D01*
G03X1868348Y1555564I120J0*
G01X1868539Y1555103D02*
G03X1868348Y1555564I-1509J-355D01*
G01X1868539Y1555103D02*
G03X1868571Y1555046I117J28D01*
G01X1870937Y1552679*
X1871318Y1551760D02*
G03X1870937Y1552679I-1300J0D01*
G01X1871318Y1551760D02*
Y1549854D01*
G03X1871336Y1549791I120J0*
G01X1871568Y1548975D02*
G03X1871336Y1549791I-1550J0D01*
G01X1870636Y1547554D02*
G03X1871568Y1548975I-618J1421D01*
G01X1870636Y1547554D02*
G03X1870564Y1547444I48J-110D01*
X1870599Y1547359I120J-0*
G01X1871530Y1546428*
G03X1871573Y1546401I85J85*
G01X1872579Y1544949D02*
G03X1871573Y1546401I-1550J0D01*
G01X1778162Y1516253D02*
G03X1781914Y1520005I-0J3752D01*
G01X1778162Y1516253D02*
X1776980D01*
X1773228Y1520005D02*
G03X1776980Y1516253I3752J0D01*
G01Y1523758D02*
G03X1773228Y1520005I0J-3753D01*
G01X1776980Y1523758D02*
X1778162D01*
X1781914Y1520005D02*
G03X1778162Y1523758I-3752J0D01*
G01X1773640Y1525911D02*
G03X1773640I-2131J0D01*
G01Y1541659D02*
G03X1773640I-2131J0D01*
G01X1778162Y1543812D02*
G03X1781914Y1547565I-0J3753D01*
G01X1778162Y1543812D02*
X1776980D01*
X1773228Y1547565D02*
G03X1776980Y1543812I3752J-0D01*
G01Y1551317D02*
G03X1773228Y1547565I0J-3752D01*
G01X1776980Y1551317D02*
X1778162D01*
X1781914Y1547565D02*
G03X1778162Y1551317I-3752J-0D01*
G01X1763595Y1516253D02*
G03X1767347Y1520005I-0J3752D01*
G01X1763595Y1516253D02*
X1762413D01*
X1758661Y1520005D02*
G03X1762413Y1516253I3752J0D01*
G01Y1523758D02*
G03X1758661Y1520005I0J-3753D01*
G01X1762413Y1523758D02*
X1763595D01*
X1767347Y1520005D02*
G03X1763595Y1523758I-3752J0D01*
G01Y1543812D02*
G03X1767347Y1547565I-0J3753D01*
G01X1763595Y1543812D02*
X1762413D01*
X1758661Y1547565D02*
G03X1762413Y1543812I3752J-0D01*
G01Y1551317D02*
G03X1758661Y1547565I0J-3752D01*
G01X1762413Y1551317D02*
X1763595D01*
X1767347Y1547565D02*
G03X1763595Y1551317I-3752J-0D01*
G01X2032172Y1571182D02*
X2043004D01*
X2032172Y1570822D02*
X2043004D01*
X2032172Y1570462D02*
X2043004D01*
X2032172Y1570102D02*
X2043004D01*
X2032172Y1569742D02*
X2043004D01*
X2032172Y1569382D02*
X2043004D01*
X2032172Y1569022D02*
X2043004D01*
X2032201Y1568662D02*
X2043004D01*
X2032183Y1568302D02*
X2043004D01*
X2032089Y1567942D02*
X2043004D01*
X2031906Y1567582D02*
X2043004D01*
X2031592Y1567222D02*
X2043004D01*
X2030960Y1566862D02*
X2043004D01*
X1998566Y1566502D02*
X2043004D01*
X1998477Y1566142D02*
X2043004D01*
X1998365Y1565782D02*
X2043004D01*
X1998228Y1565422D02*
X2043004D01*
X1998065Y1565062D02*
X2043004D01*
X1997872Y1564702D02*
X2043004D01*
X1997648Y1564342D02*
X2043004D01*
X1997386Y1563982D02*
X2043004D01*
X1997082Y1563622D02*
X2043004D01*
X1996725Y1563262D02*
X2043004D01*
X1996301Y1562902D02*
X2043004D01*
X1995784Y1562542D02*
X2043004D01*
X1995119Y1562182D02*
X2043004D01*
X1994314Y1561822D02*
X2043004D01*
X1994763Y1561462D02*
X2043004D01*
X1995263Y1561102D02*
X2043004D01*
X1995643Y1560742D02*
X2043004D01*
X1995945Y1560382D02*
X2043004D01*
X1996187Y1560022D02*
X2043004D01*
X1996382Y1559662D02*
X2043004D01*
X1996534Y1559302D02*
X2043004D01*
X1996650Y1558942D02*
X2043004D01*
X1996733Y1558582D02*
X2043004D01*
X1996784Y1558222D02*
X2043004D01*
X1996804Y1557862D02*
X2043004D01*
X1996793Y1557502D02*
X2043004D01*
X1996753Y1557142D02*
X2043004D01*
X1996681Y1556782D02*
X2043004D01*
X1996576Y1556422D02*
X2043004D01*
X1996436Y1556062D02*
X2043004D01*
X1996255Y1555702D02*
X2043004D01*
X1996030Y1555342D02*
X2043004D01*
X1995749Y1554982D02*
X2043004D01*
X1995397Y1554622D02*
X2043004D01*
X1994943Y1554262D02*
X2043004D01*
X1994312Y1553902D02*
X2043004D01*
X1993079Y1553542D02*
X2043004D01*
X1989438Y1553182D02*
X2043004D01*
X1989078Y1552822D02*
X2043004D01*
X1988718Y1552462D02*
X2043004D01*
X1988358Y1552102D02*
X2043004D01*
X1987998Y1551742D02*
X2043004D01*
X1987638Y1551382D02*
X2043004D01*
X1987278Y1551022D02*
X2043004D01*
X1986918Y1550662D02*
X2043004D01*
X1986459Y1550302D02*
X2043004D01*
X1961518Y1549942D02*
X2043004D01*
X1961150Y1549582D02*
X2043004D01*
X1939804Y1549222D02*
X2043004D01*
X1939804Y1548862D02*
X2043004D01*
X1939804Y1548502D02*
X2043004D01*
X1939804Y1548142D02*
X2043004D01*
X1939804Y1547782D02*
X2043004D01*
X1939804Y1547422D02*
X2043004D01*
X1939804Y1547062D02*
X2043004D01*
X1939804Y1546702D02*
X2043004D01*
X1939804Y1546342D02*
X2043004D01*
X1939804Y1545982D02*
X2043004D01*
X1939804Y1545622D02*
X2043004D01*
X1939804Y1545262D02*
X2043004D01*
X1939804Y1544902D02*
X2043004D01*
X1939804Y1544542D02*
X2043004D01*
X1939804Y1544182D02*
X2043004D01*
X1939804Y1543822D02*
X2043004D01*
X1939804Y1543462D02*
X2043004D01*
X1939804Y1543102D02*
X2043004D01*
X1939804Y1542742D02*
X2043004D01*
X1939804Y1542382D02*
X2043004D01*
X1939804Y1542022D02*
X2043004D01*
X1939804Y1541662D02*
X2043004D01*
X1939804Y1541302D02*
X2043004D01*
X1939804Y1540942D02*
X2043004D01*
X1939804Y1540582D02*
X2043004D01*
X1939804Y1540222D02*
X2043004D01*
X1939804Y1539862D02*
X2043004D01*
X1939804Y1539502D02*
X2043004D01*
X1939804Y1539142D02*
X2043004D01*
X1939804Y1538782D02*
X2043004D01*
X1939804Y1538422D02*
X2043004D01*
X1939804Y1538062D02*
X2043004D01*
X1939804Y1537702D02*
X2043004D01*
X1939804Y1537342D02*
X2043004D01*
X1939804Y1536982D02*
X2043004D01*
X1939804Y1536622D02*
X2043004D01*
X1939804Y1536262D02*
X2043004D01*
X1939804Y1535902D02*
X2043004D01*
X1939804Y1535542D02*
X2043004D01*
X1939804Y1535182D02*
X2043004D01*
X1939804Y1534822D02*
X2043004D01*
X1939804Y1534462D02*
X2043004D01*
X1939804Y1534102D02*
X2043004D01*
X1939804Y1533742D02*
X2043004D01*
X1939804Y1533382D02*
X2043004D01*
X1939804Y1533022D02*
X2043004D01*
X1939800Y1532662D02*
X2043004D01*
X1939741Y1532302D02*
X2043004D01*
X1939599Y1531942D02*
X2043004D01*
X1939351Y1531582D02*
X2043004D01*
X1938996Y1531222D02*
X2043004D01*
X1938636Y1530862D02*
X2043004D01*
X1938276Y1530502D02*
X2043004D01*
X1937916Y1530142D02*
X2043004D01*
X1937556Y1529782D02*
X2043004D01*
X2022334Y1529422D02*
X2043004D01*
X2022584Y1529062D02*
X2043004D01*
X2022627Y1528702D02*
X2043004D01*
X2022627Y1528342D02*
X2043004D01*
X2022627Y1527982D02*
X2043004D01*
X2022627Y1527622D02*
X2043004D01*
X2022627Y1527262D02*
X2043004D01*
X2022627Y1526902D02*
X2043004D01*
X2022627Y1526542D02*
X2043004D01*
X2022627Y1526182D02*
X2043004D01*
X2022627Y1525822D02*
X2043004D01*
X2022627Y1525462D02*
X2043004D01*
X2022627Y1525102D02*
X2043004D01*
X2022600Y1524742D02*
X2043004D01*
X2022497Y1524382D02*
X2043004D01*
X2022302Y1524022D02*
X2043004D01*
X2021969Y1523662D02*
X2043004D01*
X2021242Y1523302D02*
X2043004D01*
X1930716Y1522942D02*
X2043004D01*
X1930356Y1522582D02*
X2043004D01*
X1929996Y1522222D02*
X2043004D01*
X1929636Y1521862D02*
X2043004D01*
X1929276Y1521502D02*
X2043004D01*
X1928916Y1521142D02*
X2043004D01*
X1928556Y1520782D02*
X2043004D01*
X1928196Y1520422D02*
X2043004D01*
X1927836Y1520062D02*
X2043004D01*
X1927476Y1519702D02*
X2043004D01*
X1927116Y1519342D02*
X2043004D01*
X1926756Y1518982D02*
X2043004D01*
X1926396Y1518622D02*
X2043004D01*
X1926036Y1518262D02*
X2043004D01*
X1925676Y1517902D02*
X2043004D01*
X1925316Y1517542D02*
X2043004D01*
X1925105Y1517182D02*
X2043004D01*
X1925210Y1516822D02*
X2043004D01*
X1925281Y1516462D02*
X2043004D01*
X1925322Y1516102D02*
X2043004D01*
X1925332Y1515742D02*
X2043004D01*
X1925311Y1515382D02*
X2043004D01*
X1925260Y1515022D02*
X2043004D01*
X1925178Y1514662D02*
X2043004D01*
X1925061Y1514302D02*
X2043004D01*
X1993671Y1513942D02*
X2043004D01*
X1994556Y1513582D02*
X2043004D01*
X1995112Y1513222D02*
X2043004D01*
X1995526Y1512862D02*
X2043004D01*
X1995852Y1512502D02*
X2043004D01*
X1996112Y1512142D02*
X2043004D01*
X1996322Y1511782D02*
X2043004D01*
X1996488Y1511422D02*
X2043004D01*
X1996616Y1511062D02*
X2043004D01*
X1996709Y1510702D02*
X2043004D01*
X1996770Y1510342D02*
X2043004D01*
X1996800Y1509982D02*
X2043004D01*
X1996800Y1509622D02*
X2043004D01*
X1996770Y1509262D02*
X2043004D01*
X1996708Y1508902D02*
X2043004D01*
X1996615Y1508542D02*
X2043004D01*
X1996487Y1508182D02*
X2043004D01*
X1996320Y1507822D02*
X2043004D01*
X1996111Y1507462D02*
X2043004D01*
X1995849Y1507102D02*
X2043004D01*
X1995523Y1506742D02*
X2043004D01*
X1995109Y1506382D02*
X2043004D01*
X1994551Y1506022D02*
X2043004D01*
X1993661Y1505662D02*
X2043004D01*
X1979558Y1505302D02*
X2043004D01*
X1979198Y1504942D02*
X2043004D01*
X1978838Y1504582D02*
X2043004D01*
X1978506Y1504222D02*
X2043004D01*
X1978504Y1503862D02*
X2043004D01*
X1978504Y1503502D02*
X2043004D01*
X1978504Y1503142D02*
X2043004D01*
X1978504Y1502782D02*
X2043004D01*
X1978504Y1502422D02*
X2043004D01*
X1978504Y1502062D02*
X2043004D01*
X1978504Y1501702D02*
X2043004D01*
X1978504Y1501342D02*
X2043004D01*
X1978504Y1500982D02*
X2043004D01*
X1978504Y1500622D02*
X2043004D01*
X1978504Y1500262D02*
X2043004D01*
X1978504Y1499902D02*
X2043004D01*
X1978504Y1499542D02*
X2043004D01*
X1978504Y1499182D02*
X2043004D01*
X1978504Y1498822D02*
X2043004D01*
X1978504Y1498462D02*
X2043004D01*
X1978504Y1498102D02*
X2043004D01*
X1978504Y1497742D02*
X2043004D01*
X1978504Y1497382D02*
X2043004D01*
X1978504Y1497022D02*
X2043004D01*
X1978499Y1496662D02*
X2043004D01*
X1978401Y1496302D02*
X2043004D01*
X2032172Y1571542D02*
X2043004D01*
X1978134Y1495942D02*
X2043003D01*
X2032172Y1571902D02*
X2042995D01*
X1977774Y1495582D02*
X2042991D01*
X2032172Y1572262D02*
X2042973D01*
X1977414Y1495222D02*
X2042966D01*
X2032172Y1572622D02*
X2042940D01*
X1977054Y1494862D02*
X2042930D01*
X2032172Y1572982D02*
X2042894D01*
X1976694Y1494502D02*
X2042881D01*
X2032172Y1573342D02*
X2042835D01*
X1976334Y1494142D02*
X2042819D01*
X2032149Y1573702D02*
X2042764D01*
X1975974Y1493782D02*
X2042745D01*
X2031951Y1574062D02*
X2042679D01*
X1975614Y1493422D02*
X2042657D01*
X1974304Y1574422D02*
X2042581D01*
X1975254Y1493062D02*
X2042556D01*
X1974304Y1574782D02*
X2042469D01*
X1974894Y1492702D02*
X2042440D01*
X1974304Y1575142D02*
X2042343D01*
X1974534Y1492342D02*
X2042311D01*
X1974304Y1575502D02*
X2042202D01*
X1974174Y1491982D02*
X2042166D01*
X1974302Y1575862D02*
X2042046D01*
X1973814Y1491622D02*
X2042006D01*
X1974186Y1576222D02*
X2041874D01*
X1973454Y1491262D02*
X2041830D01*
X1973688Y1576582D02*
X2041684D01*
X1973094Y1490902D02*
X2041636D01*
X1941734Y1576942D02*
X2041476D01*
X1972734Y1490542D02*
X2041423D01*
X1941504Y1577302D02*
X2041249D01*
X1972374Y1490182D02*
X2041191D01*
X1941216Y1577662D02*
X2041000D01*
X1972014Y1489822D02*
X2040937D01*
X1940855Y1578022D02*
X2040729D01*
X1971654Y1489462D02*
X2040660D01*
X1940388Y1578382D02*
X2040432D01*
X1971294Y1489102D02*
X2040357D01*
X1939730Y1578742D02*
X2040107D01*
X1970934Y1488742D02*
X2040025D01*
X1938116Y1579102D02*
X2039751D01*
X1970574Y1488382D02*
X2039660D01*
X1925067Y1579462D02*
X2039357D01*
X1970214Y1488022D02*
X2039257D01*
X1924129Y1579822D02*
X2038920D01*
X1969854Y1487662D02*
X2038808D01*
X1760977Y1580182D02*
X2038431D01*
X1969483Y1487302D02*
X2038304D01*
X1761534Y1580542D02*
X2037874D01*
X1761680Y1486942D02*
X2037728D01*
X1762181Y1580902D02*
X2037227D01*
X1762354Y1486582D02*
X2037054D01*
X1762960Y1581262D02*
X2036448D01*
X1763176Y1486222D02*
X2036232D01*
X1763973Y1581622D02*
X2035435D01*
X1764279Y1485862D02*
X2035129D01*
X1765673Y1581982D02*
X2033736D01*
X1998632Y1566862D02*
X2029846D01*
X1998677Y1567222D02*
X2029214D01*
X1998700Y1567582D02*
X2028891D01*
X1974304Y1574062D02*
X2028759D01*
X1998702Y1567942D02*
X2028698D01*
X1998684Y1568302D02*
X2028597D01*
X1997920Y1570822D02*
X2028572D01*
X1998105Y1570462D02*
X2028572D01*
X1998262Y1570102D02*
X2028572D01*
X1998393Y1569742D02*
X2028572D01*
X1998500Y1569382D02*
X2028572D01*
X1998583Y1569022D02*
X2028572D01*
X1998644Y1568662D02*
X2028572D01*
X1997703Y1571182D02*
X2025738D01*
X1994414Y1573702D02*
X2025613D01*
X1997450Y1571542D02*
X2025360D01*
X1995290Y1573342D02*
X2025296D01*
X1997156Y1571902D02*
X2025161D01*
X1995913Y1572982D02*
X2025127D01*
X1996812Y1572262D02*
X2025068D01*
X1996405Y1572622D02*
X2025058D01*
X1931076Y1523302D02*
X2020339D01*
X1931436Y1523662D02*
X2019612D01*
X1937196Y1529422D02*
X2019319D01*
X1931796Y1524022D02*
X2019279D01*
X1932156Y1524382D02*
X2019084D01*
X1936836Y1529062D02*
X2019070D01*
X1936476Y1528702D02*
X2019027D01*
X1936116Y1528342D02*
X2019027D01*
X1935756Y1527982D02*
X2019027D01*
X1935396Y1527622D02*
X2019027D01*
X1935036Y1527262D02*
X2019027D01*
X1934676Y1526902D02*
X2019027D01*
X1934316Y1526542D02*
X2019027D01*
X1933956Y1526182D02*
X2019027D01*
X1933596Y1525822D02*
X2019027D01*
X1933236Y1525462D02*
X2019001D01*
X1932516Y1524742D02*
X2018981D01*
X1932876Y1525102D02*
X2018955D01*
X1989798Y1553542D02*
X1991929D01*
X1983661Y1505662D02*
X1991347D01*
X1983671Y1513942D02*
X1991337D01*
X1990158Y1553902D02*
X1990696D01*
X1974304Y1573702D02*
X1990594D01*
X1984551Y1506022D02*
X1990457D01*
X1984556Y1513582D02*
X1990451D01*
X1985109Y1506382D02*
X1989899D01*
X1985112Y1513222D02*
X1989896D01*
X1974304Y1573342D02*
X1989717D01*
X1985523Y1506742D02*
X1989484D01*
X1985526Y1512862D02*
X1989481D01*
X1985849Y1507102D02*
X1989158D01*
X1985852Y1512502D02*
X1989156D01*
X1974304Y1572982D02*
X1989095D01*
X1986111Y1507462D02*
X1988897D01*
X1986112Y1512142D02*
X1988895D01*
X1986320Y1507822D02*
X1988688D01*
X1986322Y1511782D02*
X1988686D01*
X1974304Y1572622D02*
X1988602D01*
X1986487Y1508182D02*
X1988521D01*
X1986488Y1511422D02*
X1988520D01*
X1986615Y1508542D02*
X1988393D01*
X1986616Y1511062D02*
X1988392D01*
X1986708Y1508902D02*
X1988299D01*
X1986709Y1510702D02*
X1988299D01*
X1986770Y1509262D02*
X1988238D01*
X1986770Y1510342D02*
X1988238D01*
X1986800Y1509622D02*
X1988208D01*
X1986800Y1509982D02*
X1988208D01*
X1974304Y1572262D02*
X1988196D01*
X1974304Y1571902D02*
X1987852D01*
X1974628Y1571542D02*
X1987558D01*
X1975164Y1571182D02*
X1987305D01*
X1975566Y1570822D02*
X1987088D01*
X1975884Y1570462D02*
X1986903D01*
X1976138Y1570102D02*
X1986746D01*
X1976342Y1569742D02*
X1986615D01*
X1976504Y1569382D02*
X1986508D01*
X1976628Y1569022D02*
X1986425D01*
X1976717Y1568662D02*
X1986364D01*
X1976775Y1568302D02*
X1986324D01*
X1976802Y1567942D02*
X1986278D01*
X1976798Y1567582D02*
X1985918D01*
X1976793Y1567222D02*
X1985558D01*
X1979918Y1505662D02*
X1981347D01*
X1973671Y1513942D02*
X1981337D01*
X1980278Y1506022D02*
X1980457D01*
X1974556Y1513582D02*
X1980451D01*
X1975112Y1513222D02*
X1979896D01*
X1975526Y1512862D02*
X1979481D01*
X1975852Y1512502D02*
X1979156D01*
X1976112Y1512142D02*
X1978895D01*
X1976320Y1507822D02*
X1978688D01*
X1976322Y1511782D02*
X1978686D01*
X1976111Y1507462D02*
X1978607D01*
X1976487Y1508182D02*
X1978521D01*
X1976488Y1511422D02*
X1978520D01*
X1976615Y1508542D02*
X1978393D01*
X1976616Y1511062D02*
X1978392D01*
X1976708Y1508902D02*
X1978299D01*
X1976709Y1510702D02*
X1978299D01*
X1975849Y1507102D02*
X1978247D01*
X1976770Y1509262D02*
X1978238D01*
X1976770Y1510342D02*
X1978238D01*
X1976800Y1509622D02*
X1978208D01*
X1976800Y1509982D02*
X1978208D01*
X1975523Y1506742D02*
X1977887D01*
X1975109Y1506382D02*
X1977527D01*
X1974551Y1506022D02*
X1977167D01*
X1973661Y1505662D02*
X1976807D01*
X1969558Y1505302D02*
X1976481D01*
X1969198Y1504942D02*
X1976330D01*
X1968838Y1504582D02*
X1976304D01*
X1968604Y1504222D02*
X1976304D01*
X1968604Y1503862D02*
X1976304D01*
X1968604Y1503502D02*
X1976304D01*
X1968604Y1503142D02*
X1976304D01*
X1968604Y1502782D02*
X1976304D01*
X1968604Y1502422D02*
X1976304D01*
X1968604Y1502062D02*
X1976304D01*
X1968604Y1501702D02*
X1976304D01*
X1968604Y1501342D02*
X1976304D01*
X1968604Y1500982D02*
X1976304D01*
X1968604Y1500622D02*
X1976304D01*
X1968604Y1500262D02*
X1976304D01*
X1968604Y1499902D02*
X1976304D01*
X1968604Y1499542D02*
X1976304D01*
X1968604Y1499182D02*
X1976304D01*
X1968604Y1498822D02*
X1976304D01*
X1968604Y1498462D02*
X1976304D01*
X1968604Y1498102D02*
X1976304D01*
X1968604Y1497742D02*
X1976304D01*
X1968604Y1497382D02*
X1976304D01*
X1968604Y1497022D02*
X1976103D01*
X1968604Y1496662D02*
X1975743D01*
X1968602Y1496302D02*
X1975383D01*
X1968518Y1495942D02*
X1975023D01*
X1968274Y1495582D02*
X1974663D01*
X1967914Y1495222D02*
X1974303D01*
X1967554Y1494862D02*
X1973943D01*
X1967194Y1494502D02*
X1973583D01*
X1966834Y1494142D02*
X1973223D01*
X1966474Y1493782D02*
X1972863D01*
X1966114Y1493422D02*
X1972503D01*
X1965754Y1493062D02*
X1972143D01*
X1965394Y1492702D02*
X1971783D01*
X1965034Y1492342D02*
X1971423D01*
X1969918Y1505662D02*
X1971347D01*
X1963671Y1513942D02*
X1971337D01*
X1941919Y1576582D02*
X1971320D01*
X1964674Y1491982D02*
X1971063D01*
X1942063Y1576222D02*
X1970822D01*
X1942172Y1575862D02*
X1970706D01*
X1942247Y1575502D02*
X1970704D01*
X1942291Y1575142D02*
X1970704D01*
X1942304Y1574782D02*
X1970704D01*
X1960300Y1574422D02*
X1970704D01*
X1961529Y1574062D02*
X1970704D01*
X1962173Y1573702D02*
X1970704D01*
X1962640Y1573342D02*
X1970704D01*
X1963012Y1572982D02*
X1970704D01*
X1963372Y1572622D02*
X1970704D01*
X1963732Y1572262D02*
X1970704D01*
X1964092Y1571902D02*
X1970704D01*
X1964314Y1491622D02*
X1970703D01*
X1970278Y1506022D02*
X1970457D01*
X1964556Y1513582D02*
X1970451D01*
X1964452Y1571542D02*
X1970379D01*
X1963954Y1491262D02*
X1970343D01*
X1963594Y1490902D02*
X1969983D01*
X1965112Y1513222D02*
X1969896D01*
X1964812Y1571182D02*
X1969844D01*
X1963234Y1490542D02*
X1969623D01*
X1965526Y1512862D02*
X1969481D01*
X1965172Y1570822D02*
X1969441D01*
X1962874Y1490182D02*
X1969263D01*
X1965852Y1512502D02*
X1969156D01*
X1965532Y1570462D02*
X1969124D01*
X1962514Y1489822D02*
X1968903D01*
X1966112Y1512142D02*
X1968895D01*
X1965892Y1570102D02*
X1968870D01*
X1966320Y1507822D02*
X1968688D01*
X1966322Y1511782D02*
X1968686D01*
X1966252Y1569742D02*
X1968666D01*
X1966111Y1507462D02*
X1968607D01*
X1962155Y1489462D02*
X1968543D01*
X1966487Y1508182D02*
X1968521D01*
X1966488Y1511422D02*
X1968520D01*
X1966612Y1569382D02*
X1968504D01*
X1966615Y1508542D02*
X1968393D01*
X1966616Y1511062D02*
X1968392D01*
X1966972Y1569022D02*
X1968380D01*
X1966708Y1508902D02*
X1968299D01*
X1966709Y1510702D02*
X1968299D01*
X1967332Y1568662D02*
X1968290D01*
X1965849Y1507102D02*
X1968247D01*
X1966770Y1509262D02*
X1968238D01*
X1966770Y1510342D02*
X1968238D01*
X1967692Y1568302D02*
X1968233D01*
X1966800Y1509622D02*
X1968208D01*
X1966800Y1509982D02*
X1968208D01*
X1964901Y1554262D02*
X1968205D01*
X1941026Y1557862D02*
X1968204D01*
X1941352Y1557502D02*
X1968204D01*
X1961211Y1557142D02*
X1968204D01*
X1961609Y1556782D02*
X1968204D01*
X1962619Y1556422D02*
X1968204D01*
X1963101Y1556062D02*
X1968204D01*
X1963461Y1555702D02*
X1968204D01*
X1963821Y1555342D02*
X1968204D01*
X1964181Y1554982D02*
X1968204D01*
X1964541Y1554622D02*
X1968204D01*
X1965523Y1506742D02*
X1967887D01*
X1965109Y1506382D02*
X1967527D01*
X1964551Y1506022D02*
X1967167D01*
X1963661Y1505662D02*
X1966807D01*
X1959558Y1505302D02*
X1966523D01*
X1959198Y1504942D02*
X1966413D01*
X1958838Y1504582D02*
X1966404D01*
X1958478Y1504222D02*
X1966404D01*
X1958073Y1503862D02*
X1966404D01*
X1956779Y1503502D02*
X1966404D01*
X1956804Y1503142D02*
X1966404D01*
X1956804Y1502782D02*
X1966404D01*
X1956804Y1502422D02*
X1966404D01*
X1956804Y1502062D02*
X1966404D01*
X1956804Y1501702D02*
X1966404D01*
X1956804Y1501342D02*
X1966404D01*
X1956804Y1500982D02*
X1966404D01*
X1956804Y1500622D02*
X1966404D01*
X1956804Y1500262D02*
X1966404D01*
X1956804Y1499902D02*
X1966404D01*
X1956804Y1499542D02*
X1966404D01*
X1956804Y1499182D02*
X1966404D01*
X1956804Y1498822D02*
X1966404D01*
X1956804Y1498462D02*
X1966404D01*
X1956804Y1498102D02*
X1966404D01*
X1956804Y1497742D02*
X1966404D01*
X1956804Y1497382D02*
X1966404D01*
X1956804Y1497022D02*
X1966404D01*
X1940612Y1558222D02*
X1966263D01*
X1956804Y1496662D02*
X1966243D01*
X1956804Y1496302D02*
X1965883D01*
X1956718Y1495942D02*
X1965523D01*
X1956350Y1495582D02*
X1965163D01*
X1940056Y1558582D02*
X1965076D01*
X1954205Y1495222D02*
X1964803D01*
X1954205Y1494862D02*
X1964443D01*
X1939171Y1558942D02*
X1964439D01*
X1954205Y1494502D02*
X1964083D01*
X1923604Y1559302D02*
X1963975D01*
X1954205Y1494142D02*
X1963723D01*
X1923604Y1559662D02*
X1963604D01*
X1961594Y1552462D02*
X1963462D01*
X1954205Y1493782D02*
X1963363D01*
X1924297Y1560022D02*
X1963244D01*
X1961413Y1552822D02*
X1963230D01*
X1954205Y1493422D02*
X1963003D01*
X1924894Y1560382D02*
X1962884D01*
X1941987Y1553182D02*
X1962870D01*
X1954205Y1493062D02*
X1962643D01*
X1939416Y1560742D02*
X1962524D01*
X1942115Y1553542D02*
X1962510D01*
X1954205Y1492702D02*
X1962283D01*
X1940192Y1561102D02*
X1962164D01*
X1961527Y1553902D02*
X1962150D01*
X1954205Y1492342D02*
X1961923D01*
X1940710Y1561462D02*
X1961804D01*
X1954205Y1491982D02*
X1961563D01*
X1941103Y1561822D02*
X1961444D01*
X1959918Y1505662D02*
X1961347D01*
X1953671Y1513942D02*
X1961337D01*
X1954205Y1491622D02*
X1961203D01*
X1941412Y1562182D02*
X1961084D01*
X1954205Y1491262D02*
X1960843D01*
X1941661Y1562542D02*
X1960724D01*
X1954178Y1490902D02*
X1960483D01*
X1960278Y1506022D02*
X1960457D01*
X1954556Y1513582D02*
X1960451D01*
X1941861Y1562902D02*
X1960364D01*
X1942018Y1563262D02*
X1960004D01*
X1955112Y1513222D02*
X1959896D01*
X1942138Y1563622D02*
X1959644D01*
X1955526Y1512862D02*
X1959481D01*
X1942225Y1563982D02*
X1959284D01*
X1955852Y1512502D02*
X1959156D01*
X1942279Y1564342D02*
X1958924D01*
X1956112Y1512142D02*
X1958895D01*
X1956320Y1507822D02*
X1958688D01*
X1956322Y1511782D02*
X1958686D01*
X1956111Y1507462D02*
X1958607D01*
X1957211Y1557142D02*
X1958596D01*
X1942303Y1564702D02*
X1958564D01*
X1956487Y1508182D02*
X1958521D01*
X1956488Y1511422D02*
X1958520D01*
X1957150Y1549582D02*
X1958458D01*
X1956615Y1508542D02*
X1958393D01*
X1956616Y1511062D02*
X1958392D01*
X1956708Y1508902D02*
X1958299D01*
X1956709Y1510702D02*
X1958299D01*
X1957527Y1553902D02*
X1958281D01*
X1955849Y1507102D02*
X1958247D01*
X1956770Y1509262D02*
X1958238D01*
X1956770Y1510342D02*
X1958238D01*
X1956800Y1509622D02*
X1958208D01*
X1956800Y1509982D02*
X1958208D01*
X1942296Y1565062D02*
X1958204D01*
X1957609Y1556782D02*
X1958199D01*
X1957413Y1552822D02*
X1958195D01*
X1957691Y1554262D02*
X1958117D01*
X1957704Y1556422D02*
X1958104D01*
X1957704Y1556062D02*
X1958104D01*
X1957704Y1555702D02*
X1958104D01*
X1957704Y1555342D02*
X1958104D01*
X1957704Y1554982D02*
X1958104D01*
X1957704Y1554622D02*
X1958104D01*
X1957518Y1549942D02*
X1958090D01*
X1957588Y1552462D02*
X1958020D01*
X1957604Y1550302D02*
X1958004D01*
X1957604Y1552102D02*
X1958004D01*
X1957604Y1551742D02*
X1958004D01*
X1957604Y1551382D02*
X1958004D01*
X1957604Y1551022D02*
X1958004D01*
X1957604Y1550662D02*
X1958004D01*
X1955523Y1506742D02*
X1957887D01*
X1942296Y1565422D02*
X1957844D01*
X1955109Y1506382D02*
X1957527D01*
X1954675Y1506022D02*
X1957167D01*
X1941612Y1557142D02*
X1954596D01*
X1939804Y1549582D02*
X1954458D01*
X1952709Y1553902D02*
X1954281D01*
X1952837Y1556782D02*
X1954199D01*
X1941820Y1552822D02*
X1954195D01*
X1950308Y1549942D02*
X1954090D01*
X1953309Y1554262D02*
X1954055D01*
X1950492Y1552462D02*
X1954014D01*
X1942208Y1553902D02*
X1951699D01*
X1941822Y1556782D02*
X1951571D01*
X1924908Y1513942D02*
X1951337D01*
X1942270Y1554262D02*
X1951117D01*
X1941988Y1556422D02*
X1951068D01*
X1942300Y1554622D02*
X1950845D01*
X1942116Y1556062D02*
X1950818D01*
X1942300Y1554982D02*
X1950703D01*
X1942209Y1555702D02*
X1950691D01*
X1942270Y1555342D02*
X1950654D01*
X1924714Y1513582D02*
X1950451D01*
X1924471Y1513222D02*
X1949896D01*
X1924169Y1512862D02*
X1949481D01*
X1923787Y1512502D02*
X1949156D01*
X1923287Y1512142D02*
X1948895D01*
X1939804Y1549942D02*
X1948700D01*
X1922554Y1511782D02*
X1948686D01*
X1895604Y1511422D02*
X1948520D01*
X1941611Y1552462D02*
X1948516D01*
X1895244Y1511062D02*
X1948392D01*
X1939804Y1550302D02*
X1948291D01*
X1941349Y1552102D02*
X1948198D01*
X1939804Y1550662D02*
X1948077D01*
X1941023Y1551742D02*
X1948028D01*
X1940051Y1551022D02*
X1947974D01*
X1940609Y1551382D02*
X1947958D01*
X1894884Y1510702D02*
X1947185D01*
X1894524Y1510342D02*
X1946802D01*
X1922047Y1509982D02*
X1946442D01*
X1923009Y1509622D02*
X1946082D01*
X1923587Y1509262D02*
X1945722D01*
X1924013Y1508902D02*
X1945362D01*
X1924347Y1508542D02*
X1945002D01*
X1924614Y1508182D02*
X1944642D01*
X1924829Y1507822D02*
X1944282D01*
X1924999Y1507462D02*
X1943922D01*
X1925131Y1507102D02*
X1943562D01*
X1925228Y1506742D02*
X1943202D01*
X1925293Y1506382D02*
X1942842D01*
X1925326Y1506022D02*
X1942482D01*
X1925330Y1505662D02*
X1942122D01*
X1925303Y1505302D02*
X1941762D01*
X1925245Y1504942D02*
X1941402D01*
X1925155Y1504582D02*
X1941042D01*
X1925031Y1504222D02*
X1940682D01*
X1924869Y1503862D02*
X1940322D01*
X1924664Y1503502D02*
X1939962D01*
X1924409Y1503142D02*
X1939602D01*
X1924092Y1502782D02*
X1939242D01*
X1923688Y1502422D02*
X1938882D01*
X1925715Y1579102D02*
X1937891D01*
X1923604Y1558942D02*
X1936837D01*
X1925331Y1560742D02*
X1936592D01*
X1926222Y1578742D02*
X1936278D01*
X1923604Y1550662D02*
X1936204D01*
X1923604Y1550302D02*
X1936204D01*
X1923604Y1549942D02*
X1936204D01*
X1923604Y1549582D02*
X1936204D01*
X1923604Y1549222D02*
X1936204D01*
X1923604Y1548862D02*
X1936204D01*
X1923604Y1548502D02*
X1936204D01*
X1923604Y1548142D02*
X1936204D01*
X1923604Y1547782D02*
X1936204D01*
X1923604Y1547422D02*
X1936204D01*
X1923604Y1547062D02*
X1936204D01*
X1923604Y1546702D02*
X1936204D01*
X1923604Y1546342D02*
X1936204D01*
X1923604Y1545982D02*
X1936204D01*
X1923604Y1545622D02*
X1936204D01*
X1923604Y1545262D02*
X1936204D01*
X1923604Y1544902D02*
X1936204D01*
X1923604Y1544542D02*
X1936204D01*
X1923604Y1544182D02*
X1936204D01*
X1923604Y1543822D02*
X1936204D01*
X1923604Y1543462D02*
X1936204D01*
X1923604Y1543102D02*
X1936204D01*
X1923604Y1542742D02*
X1936204D01*
X1923604Y1542382D02*
X1936204D01*
X1923604Y1542022D02*
X1936204D01*
X1923604Y1541662D02*
X1936204D01*
X1923604Y1541302D02*
X1936204D01*
X1923604Y1540942D02*
X1936204D01*
X1923604Y1540582D02*
X1936204D01*
X1923604Y1540222D02*
X1936204D01*
X1923604Y1539862D02*
X1936204D01*
X1923604Y1539502D02*
X1936204D01*
X1923604Y1539142D02*
X1936204D01*
X1923604Y1538782D02*
X1936204D01*
X1923604Y1538422D02*
X1936204D01*
X1923604Y1538062D02*
X1936204D01*
X1923604Y1537702D02*
X1936204D01*
X1923604Y1537342D02*
X1936204D01*
X1923604Y1536982D02*
X1936204D01*
X1923604Y1536622D02*
X1936204D01*
X1923604Y1536262D02*
X1936204D01*
X1923604Y1535902D02*
X1936204D01*
X1923847Y1535542D02*
X1936204D01*
X1923998Y1535182D02*
X1936204D01*
X1924053Y1534822D02*
X1936204D01*
X1924024Y1534462D02*
X1936204D01*
X1923904Y1534102D02*
X1936204D01*
X1923667Y1533742D02*
X1936204D01*
X1923199Y1533382D02*
X1936065D01*
X1923604Y1551022D02*
X1935957D01*
X1923604Y1558582D02*
X1935951D01*
X1925672Y1561102D02*
X1935815D01*
X1899915Y1533022D02*
X1935705D01*
X1926639Y1578382D02*
X1935620D01*
X1923604Y1551382D02*
X1935399D01*
X1923604Y1558222D02*
X1935396D01*
X1899915Y1532662D02*
X1935345D01*
X1925944Y1561462D02*
X1935297D01*
X1926991Y1578022D02*
X1935152D01*
X1899915Y1532302D02*
X1934985D01*
X1923604Y1551742D02*
X1934984D01*
X1923604Y1557862D02*
X1934981D01*
X1926163Y1561822D02*
X1934905D01*
X1927291Y1577662D02*
X1934792D01*
X1923604Y1552102D02*
X1934658D01*
X1923604Y1557502D02*
X1934656D01*
X1899915Y1531942D02*
X1934625D01*
X1926337Y1562182D02*
X1934595D01*
X1927549Y1577302D02*
X1934504D01*
X1923604Y1552462D02*
X1934397D01*
X1923604Y1557142D02*
X1934395D01*
X1926472Y1562542D02*
X1934347D01*
X1927771Y1576942D02*
X1934273D01*
X1899915Y1531582D02*
X1934265D01*
X1923604Y1552822D02*
X1934188D01*
X1923604Y1556782D02*
X1934186D01*
X1926573Y1562902D02*
X1934147D01*
X1927960Y1576582D02*
X1934089D01*
X1923604Y1553182D02*
X1934021D01*
X1923604Y1556422D02*
X1934020D01*
X1926640Y1563262D02*
X1933990D01*
X1928121Y1576222D02*
X1933945D01*
X1899915Y1531222D02*
X1933905D01*
X1923604Y1553542D02*
X1933893D01*
X1923604Y1556062D02*
X1933892D01*
X1926676Y1563622D02*
X1933869D01*
X1928256Y1575862D02*
X1933836D01*
X1923604Y1553902D02*
X1933799D01*
X1923604Y1555702D02*
X1933799D01*
X1926682Y1563982D02*
X1933783D01*
X1928366Y1575502D02*
X1933761D01*
X1923604Y1554262D02*
X1933738D01*
X1923604Y1555342D02*
X1933738D01*
X1926658Y1564342D02*
X1933729D01*
X1928452Y1575142D02*
X1933717D01*
X1926516Y1565062D02*
X1933712D01*
X1926457Y1565422D02*
X1933711D01*
X1923604Y1554622D02*
X1933708D01*
X1923604Y1554982D02*
X1933708D01*
X1926603Y1564702D02*
X1933705D01*
X1928517Y1574782D02*
X1933704D01*
X1899915Y1530862D02*
X1933545D01*
X1899915Y1530502D02*
X1933185D01*
X1899915Y1530142D02*
X1932825D01*
X1899915Y1529782D02*
X1932465D01*
X1899915Y1529422D02*
X1932105D01*
X1899915Y1529062D02*
X1931745D01*
X1899915Y1528702D02*
X1931385D01*
X1899915Y1528342D02*
X1931025D01*
X1899915Y1527982D02*
X1930665D01*
X1899915Y1527622D02*
X1930305D01*
X1899915Y1527262D02*
X1929945D01*
X1899915Y1526902D02*
X1929585D01*
X1899915Y1526542D02*
X1929225D01*
X1899915Y1526182D02*
X1928865D01*
X1899915Y1525822D02*
X1928505D01*
X1899915Y1525462D02*
X1928145D01*
X1899920Y1525102D02*
X1927785D01*
X1900070Y1524742D02*
X1927425D01*
X1900404Y1524382D02*
X1927065D01*
X1917079Y1524022D02*
X1926705D01*
X1917668Y1523662D02*
X1926345D01*
X1917993Y1523302D02*
X1925985D01*
X1918197Y1522942D02*
X1925625D01*
X1918317Y1522582D02*
X1925265D01*
X1918367Y1522222D02*
X1924905D01*
X1918354Y1521862D02*
X1924545D01*
X1918275Y1521502D02*
X1924185D01*
X1918123Y1521142D02*
X1923825D01*
X1917875Y1520782D02*
X1923465D01*
X1917472Y1520422D02*
X1923105D01*
X1921628Y1520062D02*
X1922745D01*
X1899915Y1533382D02*
X1921809D01*
X1868330Y1559302D02*
X1921404D01*
X1868330Y1558942D02*
X1921404D01*
X1868330Y1558582D02*
X1921404D01*
X1868330Y1558222D02*
X1921404D01*
X1868330Y1557862D02*
X1921404D01*
X1868330Y1557502D02*
X1921404D01*
X1868330Y1557142D02*
X1921404D01*
X1868330Y1556782D02*
X1921404D01*
X1868330Y1556422D02*
X1921404D01*
X1868330Y1556062D02*
X1921404D01*
X1868330Y1555702D02*
X1921404D01*
X1868462Y1555342D02*
X1921404D01*
X1868635Y1554982D02*
X1921404D01*
X1868995Y1554622D02*
X1921404D01*
X1869355Y1554262D02*
X1921404D01*
X1869715Y1553902D02*
X1921404D01*
X1870075Y1553542D02*
X1921404D01*
X1870435Y1553182D02*
X1921404D01*
X1870795Y1552822D02*
X1921404D01*
X1871112Y1552462D02*
X1921404D01*
X1871272Y1552102D02*
X1921404D01*
X1871318Y1551742D02*
X1921404D01*
X1871318Y1551382D02*
X1921404D01*
X1871318Y1551022D02*
X1921404D01*
X1871318Y1550662D02*
X1921404D01*
X1871318Y1550302D02*
X1921404D01*
X1871318Y1549942D02*
X1921404D01*
X1871444Y1549582D02*
X1921404D01*
X1871548Y1549222D02*
X1921404D01*
X1871564Y1548862D02*
X1921404D01*
X1871494Y1548502D02*
X1921404D01*
X1871325Y1548142D02*
X1921404D01*
X1871007Y1547782D02*
X1921404D01*
X1870566Y1547422D02*
X1921404D01*
X1870896Y1547062D02*
X1921404D01*
X1871256Y1546702D02*
X1921404D01*
X1871710Y1546342D02*
X1921404D01*
X1872185Y1545982D02*
X1921404D01*
X1872426Y1545622D02*
X1921404D01*
X1872547Y1545262D02*
X1921404D01*
X1872578Y1544902D02*
X1921404D01*
X1872525Y1544542D02*
X1921404D01*
X1872376Y1544182D02*
X1921404D01*
X1872229Y1543822D02*
X1921404D01*
X1872229Y1543462D02*
X1921404D01*
X1872222Y1543102D02*
X1921404D01*
X1872124Y1542742D02*
X1921404D01*
X1871950Y1542382D02*
X1921404D01*
X1872033Y1542022D02*
X1921404D01*
X1871947Y1541662D02*
X1921404D01*
X1901540Y1541302D02*
X1921404D01*
X1901963Y1540942D02*
X1921404D01*
X1902204Y1540582D02*
X1921404D01*
X1902341Y1540222D02*
X1921404D01*
X1902397Y1539862D02*
X1921404D01*
X1902380Y1539502D02*
X1921404D01*
X1902287Y1539142D02*
X1921404D01*
X1902106Y1538782D02*
X1921404D01*
X1901800Y1538422D02*
X1921404D01*
X1901440Y1538062D02*
X1921404D01*
X1901080Y1537702D02*
X1921404D01*
X1900720Y1537342D02*
X1921404D01*
X1900360Y1536982D02*
X1921404D01*
X1900000Y1536622D02*
X1921404D01*
X1899915Y1536262D02*
X1921404D01*
X1899915Y1535902D02*
X1921404D01*
X1868330Y1559662D02*
X1921381D01*
X1899915Y1533742D02*
X1921342D01*
X1899915Y1535542D02*
X1921161D01*
X1899915Y1534102D02*
X1921104D01*
X1899915Y1535182D02*
X1921011D01*
X1899915Y1534462D02*
X1920984D01*
X1899915Y1534822D02*
X1920955D01*
X1760488Y1579822D02*
X1920638D01*
X1866025Y1567942D02*
X1920540D01*
X1868330Y1560022D02*
X1920470D01*
X1887014Y1520062D02*
X1920436D01*
X1866157Y1567582D02*
X1920208D01*
X1894164Y1509982D02*
X1920017D01*
X1868330Y1560382D02*
X1919873D01*
X1760051Y1579462D02*
X1919700D01*
X1866496Y1567222D02*
X1919687D01*
X1865769Y1568302D02*
X1919662D01*
X1895964Y1511782D02*
X1919509D01*
X1868330Y1560742D02*
X1919436D01*
X1866856Y1566862D02*
X1919292D01*
X1887660Y1519702D02*
X1919218D01*
X1868330Y1561102D02*
X1919095D01*
X1893804Y1509622D02*
X1919055D01*
X1759657Y1579102D02*
X1919053D01*
X1865246Y1568662D02*
X1919024D01*
X1867216Y1566502D02*
X1918981D01*
X1868330Y1561462D02*
X1918823D01*
X1896324Y1512142D02*
X1918777D01*
X1867576Y1566142D02*
X1918731D01*
X1868330Y1561822D02*
X1918604D01*
X1887947Y1519342D02*
X1918589D01*
X1759301Y1578742D02*
X1918545D01*
X1867936Y1565782D02*
X1918531D01*
X1756404Y1569022D02*
X1918522D01*
X1893444Y1509262D02*
X1918477D01*
X1868330Y1562182D02*
X1918430D01*
X1916005Y1502422D02*
X1918376D01*
X1868197Y1565422D02*
X1918372D01*
X1868330Y1562542D02*
X1918295D01*
X1896684Y1512502D02*
X1918277D01*
X1868312Y1565062D02*
X1918251D01*
X1868330Y1562902D02*
X1918195D01*
X1868330Y1564702D02*
X1918164D01*
X1888098Y1518982D02*
X1918136D01*
X1758976Y1578382D02*
X1918128D01*
X1868330Y1563262D02*
X1918127D01*
X1868330Y1564342D02*
X1918109D01*
X1756404Y1569382D02*
X1918109D01*
X1868330Y1563622D02*
X1918091D01*
X1868330Y1563982D02*
X1918085D01*
X1906851Y1508902D02*
X1918050D01*
X1915645Y1502782D02*
X1917972D01*
X1897044Y1512862D02*
X1917895D01*
X1888153Y1518622D02*
X1917784D01*
X1758679Y1578022D02*
X1917777D01*
X1756404Y1569742D02*
X1917760D01*
X1907225Y1508542D02*
X1917717D01*
X1915285Y1503142D02*
X1917655D01*
X1897404Y1513222D02*
X1917593D01*
X1888124Y1518262D02*
X1917504D01*
X1758408Y1577662D02*
X1917476D01*
X1756404Y1570102D02*
X1917462D01*
X1907423Y1508182D02*
X1917450D01*
X1914925Y1503502D02*
X1917400D01*
X1897764Y1513582D02*
X1917350D01*
X1888004Y1517902D02*
X1917279D01*
X1907515Y1507822D02*
X1917235D01*
X1758160Y1577302D02*
X1917218D01*
X1756404Y1570462D02*
X1917206D01*
X1914565Y1503862D02*
X1917195D01*
X1898124Y1513942D02*
X1917155D01*
X1907520Y1507462D02*
X1917065D01*
X1914205Y1504222D02*
X1917033D01*
X1757932Y1576942D02*
X1916997D01*
X1903668Y1570822D02*
X1916986D01*
X1907438Y1507102D02*
X1916933D01*
X1913845Y1504582D02*
X1916909D01*
X1907254Y1506742D02*
X1916836D01*
X1913485Y1504942D02*
X1916819D01*
X1757724Y1576582D02*
X1916807D01*
X1904057Y1571182D02*
X1916798D01*
X1906909Y1506382D02*
X1916771D01*
X1913125Y1505302D02*
X1916761D01*
X1912350Y1506022D02*
X1916737D01*
X1912765Y1505662D02*
X1916734D01*
X1757534Y1576222D02*
X1916646D01*
X1904281Y1571542D02*
X1916638D01*
X1757362Y1575862D02*
X1916511D01*
X1904406Y1571902D02*
X1916505D01*
X1757206Y1575502D02*
X1916401D01*
X1904452Y1572262D02*
X1916396D01*
X1757065Y1575142D02*
X1916315D01*
X1904425Y1572622D02*
X1916311D01*
X1756939Y1574782D02*
X1916251D01*
X1904322Y1572982D02*
X1916248D01*
X1756827Y1574422D02*
X1916208D01*
X1904127Y1573342D02*
X1916206D01*
X1903059Y1574062D02*
X1916186D01*
X1903792Y1573702D02*
X1916186D01*
X1900764Y1524022D02*
X1915561D01*
X1761104Y1487302D02*
X1913489D01*
X1760600Y1487662D02*
X1913118D01*
X1760152Y1488022D02*
X1912758D01*
X1802996Y1488382D02*
X1912398D01*
X1803458Y1488742D02*
X1912038D01*
X1803699Y1489102D02*
X1911678D01*
X1909074Y1489462D02*
X1911318D01*
X1909748Y1489822D02*
X1910958D01*
X1803935Y1489462D02*
X1908334D01*
X1804058Y1489822D02*
X1907660D01*
X1804106Y1490182D02*
X1907368D01*
X1804106Y1491622D02*
X1907238D01*
X1804106Y1490542D02*
X1907213D01*
X1804106Y1491262D02*
X1907182D01*
X1804106Y1490902D02*
X1907155D01*
X1901291Y1574062D02*
X1902246D01*
X1871643Y1541302D02*
X1899659D01*
X1863762Y1520422D02*
X1899519D01*
X1871283Y1540942D02*
X1899228D01*
X1862972Y1520782D02*
X1898916D01*
X1870923Y1540582D02*
X1898868D01*
X1890204Y1506022D02*
X1898853D01*
X1756729Y1574062D02*
X1898783D01*
X1862612Y1521142D02*
X1898553D01*
X1889844Y1505662D02*
X1898543D01*
X1870563Y1540222D02*
X1898508D01*
X1756404Y1570822D02*
X1898398D01*
X1756644Y1573702D02*
X1898343D01*
X1893084Y1508902D02*
X1898310D01*
X1890564Y1506382D02*
X1898251D01*
X1756404Y1571182D02*
X1898246D01*
X1756573Y1573342D02*
X1898238D01*
X1756514Y1572982D02*
X1898237D01*
X1756468Y1572622D02*
X1898237D01*
X1756435Y1572262D02*
X1898237D01*
X1756413Y1571902D02*
X1898237D01*
X1756404Y1571542D02*
X1898237D01*
X1862252Y1521502D02*
X1898193D01*
X1889484Y1505302D02*
X1898183D01*
X1870105Y1539862D02*
X1898148D01*
X1892724Y1508542D02*
X1897936D01*
X1890924Y1506742D02*
X1897906D01*
X1861892Y1521862D02*
X1897833D01*
X1889124Y1504942D02*
X1897823D01*
X1864981Y1539502D02*
X1897788D01*
X1892364Y1508182D02*
X1897738D01*
X1891284Y1507102D02*
X1897722D01*
X1892004Y1507822D02*
X1897646D01*
X1891644Y1507462D02*
X1897641D01*
X1888764Y1504582D02*
X1897463D01*
X1864415Y1539142D02*
X1897428D01*
X1861532Y1522222D02*
X1897354D01*
X1888404Y1504222D02*
X1897103D01*
X1864692Y1538782D02*
X1897068D01*
X1887767Y1517542D02*
X1896974D01*
X1861172Y1522582D02*
X1896766D01*
X1888044Y1503862D02*
X1896743D01*
X1865052Y1538422D02*
X1896721D01*
X1865412Y1538062D02*
X1896492D01*
X1860812Y1522942D02*
X1896441D01*
X1804106Y1491982D02*
X1896434D01*
X1887684Y1503502D02*
X1896383D01*
X1865772Y1537702D02*
X1896365D01*
X1866132Y1537342D02*
X1896316D01*
X1866492Y1536982D02*
X1896315D01*
X1866852Y1536622D02*
X1896315D01*
X1867212Y1536262D02*
X1896315D01*
X1867572Y1535902D02*
X1896315D01*
X1867932Y1535542D02*
X1896315D01*
X1868292Y1535182D02*
X1896315D01*
X1868652Y1534822D02*
X1896315D01*
X1869012Y1534462D02*
X1896315D01*
X1869372Y1534102D02*
X1896315D01*
X1860746Y1529782D02*
X1896315D01*
X1860386Y1529422D02*
X1896315D01*
X1860026Y1529062D02*
X1896315D01*
X1859666Y1528702D02*
X1896315D01*
X1859306Y1528342D02*
X1896315D01*
X1858946Y1527982D02*
X1896315D01*
X1858586Y1527622D02*
X1896315D01*
X1858226Y1527262D02*
X1896315D01*
X1857866Y1526902D02*
X1896315D01*
X1857506Y1526542D02*
X1896315D01*
X1857572Y1526182D02*
X1896315D01*
X1857932Y1525822D02*
X1896315D01*
X1858292Y1525462D02*
X1896315D01*
X1858652Y1525102D02*
X1896310D01*
X1887704Y1517182D02*
X1896283D01*
X1869735Y1533742D02*
X1896263D01*
X1860452Y1523302D02*
X1896238D01*
X1859012Y1524742D02*
X1896160D01*
X1860092Y1523662D02*
X1896118D01*
X1859372Y1524382D02*
X1896081D01*
X1804106Y1492342D02*
X1896074D01*
X1859732Y1524022D02*
X1896068D01*
X1887324Y1503142D02*
X1896023D01*
X1887704Y1516822D02*
X1895913D01*
X1804106Y1492702D02*
X1895714D01*
X1886964Y1502782D02*
X1895663D01*
X1887704Y1516462D02*
X1895553D01*
X1804106Y1493062D02*
X1895354D01*
X1886604Y1502422D02*
X1895303D01*
X1887704Y1516102D02*
X1895193D01*
X1804106Y1493422D02*
X1894994D01*
X1886244Y1502062D02*
X1894943D01*
X1887704Y1515742D02*
X1894833D01*
X1804106Y1493782D02*
X1894634D01*
X1885884Y1501702D02*
X1894583D01*
X1887704Y1515382D02*
X1894473D01*
X1804106Y1494142D02*
X1894274D01*
X1885524Y1501342D02*
X1894222D01*
X1887704Y1515022D02*
X1894113D01*
X1887704Y1514662D02*
X1893753D01*
X1887704Y1514302D02*
X1893393D01*
X1804106Y1494502D02*
X1893309D01*
X1885164Y1500982D02*
X1893241D01*
X1887704Y1513942D02*
X1893033D01*
X1804106Y1494862D02*
X1892946D01*
X1884804Y1500622D02*
X1892911D01*
X1804106Y1495222D02*
X1892753D01*
X1887114Y1500262D02*
X1892735D01*
X1887704Y1513582D02*
X1892673D01*
X1888047Y1499542D02*
X1892670D01*
X1804106Y1495582D02*
X1892665D01*
X1804106Y1495942D02*
X1892664D01*
X1887760Y1499902D02*
X1892660D01*
X1804106Y1496302D02*
X1892318D01*
X1887704Y1513222D02*
X1892313D01*
X1888198Y1499182D02*
X1891996D01*
X1887704Y1512862D02*
X1891953D01*
X1804106Y1496662D02*
X1891655D01*
X1887704Y1512502D02*
X1891593D01*
X1888253Y1498822D02*
X1891536D01*
X1804106Y1497022D02*
X1891365D01*
X1888224Y1498462D02*
X1891301D01*
X1887715Y1512142D02*
X1891233D01*
X1887399Y1497382D02*
X1891212D01*
X1888104Y1498102D02*
X1891183D01*
X1887867Y1497742D02*
X1891155D01*
X1884444Y1500262D02*
X1886294D01*
X1864094Y1520062D02*
X1886194D01*
X1828797Y1497382D02*
X1886009D01*
X1884108Y1499902D02*
X1885648D01*
X1864272Y1519702D02*
X1885548D01*
X1848050Y1517182D02*
X1885504D01*
X1847690Y1516822D02*
X1885504D01*
X1847330Y1516462D02*
X1885504D01*
X1846970Y1516102D02*
X1885504D01*
X1853309Y1515742D02*
X1885504D01*
X1853678Y1515382D02*
X1885504D01*
X1854038Y1515022D02*
X1885504D01*
X1855079Y1514662D02*
X1885504D01*
X1855459Y1514302D02*
X1885504D01*
X1855819Y1513942D02*
X1885504D01*
X1856634Y1513582D02*
X1885504D01*
X1857010Y1513222D02*
X1885504D01*
X1857210Y1512862D02*
X1885504D01*
X1857303Y1512502D02*
X1885504D01*
X1857308Y1512142D02*
X1885504D01*
X1857228Y1511782D02*
X1885504D01*
X1857045Y1511422D02*
X1885504D01*
X1856702Y1511062D02*
X1885504D01*
X1820221Y1510702D02*
X1885504D01*
X1820581Y1510342D02*
X1885504D01*
X1848410Y1517542D02*
X1885442D01*
X1820941Y1509982D02*
X1885263D01*
X1864348Y1519342D02*
X1885261D01*
X1863646Y1517902D02*
X1885204D01*
X1864338Y1518982D02*
X1885111D01*
X1864035Y1518262D02*
X1885084D01*
X1864241Y1518622D02*
X1885055D01*
X1821301Y1509622D02*
X1884903D01*
X1821661Y1509262D02*
X1884543D01*
X1822021Y1508902D02*
X1884183D01*
X1822381Y1508542D02*
X1883823D01*
X1822741Y1508182D02*
X1883463D01*
X1823101Y1507822D02*
X1883103D01*
X1823461Y1507462D02*
X1882743D01*
X1824430Y1507102D02*
X1882383D01*
X1824786Y1506742D02*
X1882023D01*
X1824975Y1506382D02*
X1881663D01*
X1825060Y1506022D02*
X1881303D01*
X1825059Y1505662D02*
X1880943D01*
X1824972Y1505302D02*
X1880583D01*
X1824780Y1504942D02*
X1880223D01*
X1865297Y1539862D02*
X1869534D01*
X1859292Y1544182D02*
X1869526D01*
X1858932Y1544542D02*
X1869457D01*
X1858572Y1544902D02*
X1869097D01*
X1865465Y1540222D02*
X1869075D01*
X1859652Y1543822D02*
X1869072D01*
X1858212Y1545262D02*
X1868737D01*
X1861106Y1530142D02*
X1868733D01*
X1866936Y1551022D02*
X1868718D01*
X1867296Y1550662D02*
X1868718D01*
X1867656Y1550302D02*
X1868718D01*
X1868016Y1549942D02*
X1868718D01*
X1865534Y1540582D02*
X1868715D01*
X1860012Y1543462D02*
X1868712D01*
X1868376Y1549582D02*
X1868591D01*
X1866576Y1551382D02*
X1868558D01*
X1857852Y1545622D02*
X1868377D01*
X1865518Y1540942D02*
X1868355D01*
X1860372Y1543102D02*
X1868352D01*
X1866216Y1551742D02*
X1868198D01*
X1857492Y1545982D02*
X1868017D01*
X1865413Y1541302D02*
X1867995D01*
X1860732Y1542742D02*
X1867992D01*
X1861466Y1530502D02*
X1867900D01*
X1865856Y1552102D02*
X1867838D01*
X1865197Y1541662D02*
X1867691D01*
X1861092Y1542382D02*
X1867690D01*
X1857132Y1546342D02*
X1867657D01*
X1864784Y1542022D02*
X1867605D01*
X1861826Y1530862D02*
X1867521D01*
X1865496Y1552462D02*
X1867478D01*
X1856772Y1546702D02*
X1867297D01*
X1862186Y1531222D02*
X1867161D01*
X1865136Y1552822D02*
X1867118D01*
X1856412Y1547062D02*
X1866937D01*
X1862546Y1531582D02*
X1866801D01*
X1864776Y1553182D02*
X1866758D01*
X1856186Y1547422D02*
X1866577D01*
X1862906Y1531942D02*
X1866441D01*
X1856540Y1547782D02*
X1866217D01*
X1863266Y1532302D02*
X1866081D01*
X1864416Y1553542D02*
X1866057D01*
X1856735Y1548142D02*
X1865857D01*
X1864056Y1553902D02*
X1865731D01*
X1853976Y1563982D02*
X1865730D01*
X1854336Y1563622D02*
X1865730D01*
X1854696Y1563262D02*
X1865730D01*
X1855056Y1562902D02*
X1865730D01*
X1855416Y1562542D02*
X1865730D01*
X1855776Y1562182D02*
X1865730D01*
X1856136Y1561822D02*
X1865730D01*
X1856496Y1561462D02*
X1865730D01*
X1856856Y1561102D02*
X1865730D01*
X1857216Y1560742D02*
X1865730D01*
X1857576Y1560382D02*
X1865730D01*
X1857936Y1560022D02*
X1865730D01*
X1858296Y1559662D02*
X1865730D01*
X1858656Y1559302D02*
X1865730D01*
X1859016Y1558942D02*
X1865730D01*
X1859376Y1558582D02*
X1865730D01*
X1859736Y1558222D02*
X1865730D01*
X1860096Y1557862D02*
X1865730D01*
X1860456Y1557502D02*
X1865730D01*
X1860816Y1557142D02*
X1865730D01*
X1861176Y1556782D02*
X1865730D01*
X1861536Y1556422D02*
X1865730D01*
X1861896Y1556062D02*
X1865730D01*
X1862256Y1555702D02*
X1865730D01*
X1863626Y1532662D02*
X1865721D01*
X1853616Y1564342D02*
X1865699D01*
X1862616Y1555342D02*
X1865598D01*
X1863696Y1554262D02*
X1865558D01*
X1862976Y1554982D02*
X1865498D01*
X1856824Y1548502D02*
X1865497D01*
X1863336Y1554622D02*
X1865485D01*
X1863986Y1533022D02*
X1865361D01*
X1853256Y1564702D02*
X1865339D01*
X1856827Y1548862D02*
X1865137D01*
X1864346Y1533382D02*
X1865001D01*
X1852896Y1565062D02*
X1864979D01*
X1856743Y1549222D02*
X1864777D01*
X1852220Y1565422D02*
X1864619D01*
X1856556Y1549582D02*
X1864417D01*
X1756404Y1565782D02*
X1864100D01*
X1856204Y1549942D02*
X1864057D01*
X1756404Y1568662D02*
X1864048D01*
X1853086Y1550302D02*
X1863697D01*
X1756404Y1566142D02*
X1863545D01*
X1756404Y1568302D02*
X1863525D01*
X1838732Y1550662D02*
X1863337D01*
X1756404Y1566502D02*
X1863280D01*
X1756404Y1567942D02*
X1863269D01*
X1861452Y1542022D02*
X1863192D01*
X1756404Y1566862D02*
X1863142D01*
X1756404Y1567582D02*
X1863137D01*
X1756404Y1567222D02*
X1863097D01*
X1838842Y1551022D02*
X1862977D01*
X1861812Y1541662D02*
X1862779D01*
X1838780Y1551382D02*
X1862617D01*
X1862172Y1541302D02*
X1862563D01*
X1838502Y1551742D02*
X1862257D01*
X1833360Y1536262D02*
X1862078D01*
X1848770Y1517902D02*
X1861962D01*
X1838142Y1552102D02*
X1861897D01*
X1833000Y1535902D02*
X1861775D01*
X1833720Y1536622D02*
X1861761D01*
X1849130Y1518262D02*
X1861573D01*
X1837860Y1552462D02*
X1861537D01*
X1832640Y1535542D02*
X1861415D01*
X1834080Y1536982D02*
X1861401D01*
X1849490Y1518622D02*
X1861367D01*
X1849850Y1518982D02*
X1861270D01*
X1838896Y1552822D02*
X1861177D01*
X1832280Y1535182D02*
X1861055D01*
X1834413Y1537342D02*
X1861041D01*
X1850210Y1519342D02*
X1861018D01*
X1839260Y1553182D02*
X1860817D01*
X1831920Y1534822D02*
X1860695D01*
X1834536Y1537702D02*
X1860681D01*
X1850570Y1519702D02*
X1860658D01*
X1839620Y1553542D02*
X1860457D01*
X1831426Y1534462D02*
X1860335D01*
X1834486Y1538062D02*
X1860321D01*
X1850930Y1520062D02*
X1860298D01*
X1839980Y1553902D02*
X1860097D01*
X1830351Y1534102D02*
X1859975D01*
X1834671Y1538422D02*
X1859961D01*
X1851290Y1520422D02*
X1859938D01*
X1840340Y1554262D02*
X1859737D01*
X1829991Y1533742D02*
X1859615D01*
X1835031Y1538782D02*
X1859601D01*
X1851650Y1520782D02*
X1859578D01*
X1840560Y1554622D02*
X1859377D01*
X1829631Y1533382D02*
X1859255D01*
X1835391Y1539142D02*
X1859241D01*
X1852010Y1521142D02*
X1859218D01*
X1840581Y1554982D02*
X1859017D01*
X1829271Y1533022D02*
X1858895D01*
X1835751Y1539502D02*
X1858881D01*
X1852370Y1521502D02*
X1858858D01*
X1841457Y1555342D02*
X1858657D01*
X1828911Y1532662D02*
X1858535D01*
X1836111Y1539862D02*
X1858521D01*
X1852730Y1521862D02*
X1858498D01*
X1841834Y1555702D02*
X1858297D01*
X1828551Y1532302D02*
X1858175D01*
X1836471Y1540222D02*
X1858161D01*
X1853090Y1522222D02*
X1858138D01*
X1842194Y1556062D02*
X1857937D01*
X1828191Y1531942D02*
X1857815D01*
X1836831Y1540582D02*
X1857801D01*
X1853450Y1522582D02*
X1857778D01*
X1842554Y1556422D02*
X1857577D01*
X1827831Y1531582D02*
X1857455D01*
X1837191Y1540942D02*
X1857441D01*
X1853810Y1522942D02*
X1857418D01*
X1842914Y1556782D02*
X1857217D01*
X1827471Y1531222D02*
X1857095D01*
X1837551Y1541302D02*
X1857081D01*
X1854170Y1523302D02*
X1857058D01*
X1843165Y1557142D02*
X1856857D01*
X1827194Y1530862D02*
X1856735D01*
X1837911Y1541662D02*
X1856721D01*
X1854530Y1523662D02*
X1856698D01*
X1843206Y1557502D02*
X1856497D01*
X1827445Y1530502D02*
X1856375D01*
X1838271Y1542022D02*
X1856361D01*
X1854890Y1524022D02*
X1856338D01*
X1843072Y1557862D02*
X1856137D01*
X1827499Y1530142D02*
X1856015D01*
X1838631Y1542382D02*
X1856001D01*
X1855250Y1524382D02*
X1855978D01*
X1842732Y1558222D02*
X1855777D01*
X1827378Y1529782D02*
X1855655D01*
X1838991Y1542742D02*
X1855641D01*
X1842372Y1558582D02*
X1855417D01*
X1827047Y1529422D02*
X1855295D01*
X1839351Y1543102D02*
X1855281D01*
X1844932Y1558942D02*
X1855057D01*
X1826687Y1529062D02*
X1854935D01*
X1840760Y1543462D02*
X1854921D01*
X1819861Y1511062D02*
X1854830D01*
X1845315Y1559302D02*
X1854697D01*
X1841120Y1543822D02*
X1854561D01*
X1819501Y1511422D02*
X1854487D01*
X1826327Y1528702D02*
X1854478D01*
X1853532Y1549942D02*
X1854367D01*
X1845675Y1559662D02*
X1854337D01*
X1853452Y1511782D02*
X1854304D01*
X1853812Y1512142D02*
X1854216D01*
X1841480Y1544182D02*
X1854201D01*
X1825967Y1528342D02*
X1854118D01*
X1853908Y1549582D02*
X1853990D01*
X1846035Y1560022D02*
X1853977D01*
X1841840Y1544542D02*
X1853841D01*
X1824757Y1527982D02*
X1853758D01*
X1846395Y1560382D02*
X1853617D01*
X1842200Y1544902D02*
X1853481D01*
X1812371Y1527622D02*
X1853398D01*
X1846654Y1560742D02*
X1853257D01*
X1842560Y1545262D02*
X1853121D01*
X1812371Y1527262D02*
X1853038D01*
X1846701Y1561102D02*
X1852897D01*
X1842920Y1545622D02*
X1852761D01*
X1812371Y1526902D02*
X1852678D01*
X1846635Y1561462D02*
X1852537D01*
X1843271Y1545982D02*
X1852401D01*
X1846610Y1515742D02*
X1852330D01*
X1812371Y1526542D02*
X1852318D01*
X1819141Y1511782D02*
X1852187D01*
X1846945Y1561822D02*
X1852177D01*
X1843429Y1546342D02*
X1852041D01*
X1846248Y1515382D02*
X1851961D01*
X1812371Y1526182D02*
X1851958D01*
X1818781Y1512142D02*
X1851827D01*
X1847098Y1562182D02*
X1851817D01*
X1843406Y1546702D02*
X1851681D01*
X1845681Y1515022D02*
X1851601D01*
X1812371Y1525822D02*
X1851598D01*
X1818421Y1512502D02*
X1851467D01*
X1847131Y1562542D02*
X1851457D01*
X1838826Y1514662D02*
X1851241D01*
X1812371Y1525462D02*
X1851238D01*
X1818061Y1512862D02*
X1851107D01*
X1838034Y1514302D02*
X1850881D01*
X1812371Y1525102D02*
X1850878D01*
X1817701Y1513222D02*
X1850760D01*
X1837758Y1513942D02*
X1850644D01*
X1837163Y1513582D02*
X1850613D01*
X1812371Y1524742D02*
X1850518D01*
X1812371Y1524382D02*
X1850158D01*
X1812371Y1524022D02*
X1849798D01*
X1812371Y1523662D02*
X1849438D01*
X1812371Y1523302D02*
X1849078D01*
X1812371Y1522942D02*
X1848718D01*
X1812371Y1522582D02*
X1848358D01*
X1812371Y1522222D02*
X1847998D01*
X1812371Y1521862D02*
X1847638D01*
X1812371Y1521502D02*
X1847278D01*
X1812371Y1521142D02*
X1846918D01*
X1812371Y1520782D02*
X1846558D01*
X1812371Y1520422D02*
X1846198D01*
X1812371Y1520062D02*
X1845838D01*
X1812371Y1519702D02*
X1845478D01*
X1812371Y1519342D02*
X1845118D01*
X1812371Y1518982D02*
X1844758D01*
X1838938Y1518622D02*
X1844398D01*
X1842012Y1558942D02*
X1844050D01*
X1841652Y1559302D02*
X1843667D01*
X1839323Y1562542D02*
X1843405D01*
X1840585Y1559662D02*
X1843307D01*
X1838963Y1562182D02*
X1843104D01*
X1839887Y1560022D02*
X1842947D01*
X1838603Y1561822D02*
X1842744D01*
X1837163Y1560382D02*
X1842587D01*
X1838243Y1561462D02*
X1842407D01*
X1837523Y1560742D02*
X1842328D01*
X1837883Y1561102D02*
X1842280D01*
X1838407Y1550302D02*
X1841747D01*
X1838047Y1549942D02*
X1841300D01*
X1837687Y1549582D02*
X1840940D01*
X1837327Y1549222D02*
X1839731D01*
X1836967Y1548862D02*
X1839371D01*
X1836607Y1548502D02*
X1839011D01*
X1836247Y1548142D02*
X1838651D01*
X1756404Y1565422D02*
X1838559D01*
X1835797Y1547782D02*
X1838291D01*
X1833547Y1547422D02*
X1837931D01*
X1756404Y1565062D02*
X1837883D01*
X1812371Y1518622D02*
X1837701D01*
X1833187Y1547062D02*
X1837571D01*
X1756404Y1564702D02*
X1837523D01*
X1812661Y1518262D02*
X1837341D01*
X1832827Y1546702D02*
X1837216D01*
X1792086Y1564342D02*
X1837163D01*
X1831625Y1545982D02*
X1837059D01*
X1832466Y1546342D02*
X1837046D01*
X1813021Y1517902D02*
X1836981D01*
X1792455Y1563982D02*
X1836803D01*
X1831606Y1545622D02*
X1836780D01*
X1813381Y1517542D02*
X1836621D01*
X1792651Y1563622D02*
X1836443D01*
X1831387Y1545262D02*
X1836420D01*
X1813741Y1517182D02*
X1836270D01*
X1817341Y1513582D02*
X1836194D01*
X1814101Y1516822D02*
X1836115D01*
X1792742Y1563262D02*
X1836083D01*
X1831027Y1544902D02*
X1836060D01*
X1814461Y1516462D02*
X1836029D01*
X1792925Y1562902D02*
X1835723D01*
X1830667Y1544542D02*
X1835700D01*
X1816981Y1513942D02*
X1835599D01*
X1814821Y1516102D02*
X1835536D01*
X1793285Y1562542D02*
X1835363D01*
X1830307Y1544182D02*
X1835340D01*
X1816621Y1514302D02*
X1835323D01*
X1815181Y1515742D02*
X1835289D01*
X1833907Y1547782D02*
X1835198D01*
X1816261Y1514662D02*
X1835179D01*
X1815541Y1515382D02*
X1835164D01*
X1815901Y1515022D02*
X1835129D01*
X1793645Y1562182D02*
X1835003D01*
X1829943Y1543822D02*
X1834980D01*
X1834111Y1548142D02*
X1834748D01*
X1794005Y1561822D02*
X1834643D01*
X1829189Y1543462D02*
X1834620D01*
X1834132Y1548502D02*
X1834388D01*
X1794365Y1561462D02*
X1834283D01*
X1829542Y1543102D02*
X1834260D01*
X1794725Y1561102D02*
X1833923D01*
X1829851Y1542742D02*
X1833900D01*
X1795085Y1560742D02*
X1833563D01*
X1829943Y1542382D02*
X1833540D01*
X1795445Y1560382D02*
X1833203D01*
X1829864Y1542022D02*
X1833180D01*
X1795805Y1560022D02*
X1832843D01*
X1829567Y1541662D02*
X1832820D01*
X1796165Y1559662D02*
X1832483D01*
X1829207Y1541302D02*
X1832460D01*
X1796525Y1559302D02*
X1832123D01*
X1828847Y1540942D02*
X1832100D01*
X1796885Y1558942D02*
X1831763D01*
X1797245Y1558582D02*
X1831403D01*
X1797605Y1558222D02*
X1831043D01*
X1830711Y1534462D02*
X1830962D01*
X1828487Y1540582D02*
X1830891D01*
X1797965Y1557862D02*
X1830683D01*
X1828127Y1540222D02*
X1830531D01*
X1798325Y1557502D02*
X1830323D01*
X1827767Y1539862D02*
X1830171D01*
X1798685Y1557142D02*
X1829963D01*
X1827407Y1539502D02*
X1829811D01*
X1799045Y1556782D02*
X1829603D01*
X1827016Y1539142D02*
X1829451D01*
X1799405Y1556422D02*
X1829243D01*
X1824257Y1538782D02*
X1829091D01*
X1799765Y1556062D02*
X1828883D01*
X1824047Y1538422D02*
X1828731D01*
X1800125Y1555702D02*
X1828523D01*
X1823687Y1538062D02*
X1828371D01*
X1800485Y1555342D02*
X1828163D01*
X1823327Y1537702D02*
X1828160D01*
X1822967Y1537342D02*
X1828145D01*
X1822605Y1536982D02*
X1828140D01*
X1800845Y1554982D02*
X1827803D01*
X1821386Y1536622D02*
X1827780D01*
X1801205Y1554622D02*
X1827443D01*
X1821499Y1536262D02*
X1827420D01*
X1801565Y1554262D02*
X1827083D01*
X1804081Y1497382D02*
X1827064D01*
X1821440Y1535902D02*
X1827060D01*
X1801925Y1553902D02*
X1826723D01*
X1822399Y1535542D02*
X1826700D01*
X1804054Y1497742D02*
X1826687D01*
X1804054Y1499542D02*
X1826527D01*
X1804054Y1498102D02*
X1826487D01*
X1804054Y1499182D02*
X1826468D01*
X1804054Y1498462D02*
X1826394D01*
X1804054Y1498822D02*
X1826388D01*
X1802285Y1553542D02*
X1826363D01*
X1822859Y1535182D02*
X1826340D01*
X1824272Y1539142D02*
X1826179D01*
X1802645Y1553182D02*
X1826003D01*
X1823219Y1534822D02*
X1825980D01*
X1824102Y1539502D02*
X1825788D01*
X1803005Y1552822D02*
X1825643D01*
X1823579Y1534462D02*
X1825620D01*
X1823747Y1539862D02*
X1825428D01*
X1803365Y1552462D02*
X1825283D01*
X1823391Y1540222D02*
X1825068D01*
X1803725Y1552102D02*
X1824923D01*
X1823371Y1540582D02*
X1824708D01*
X1804085Y1551742D02*
X1824563D01*
X1823371Y1540942D02*
X1824348D01*
X1804445Y1551382D02*
X1824203D01*
X1823388Y1541302D02*
X1823988D01*
X1804805Y1551022D02*
X1823843D01*
X1805165Y1550662D02*
X1823483D01*
X1805525Y1550302D02*
X1823123D01*
X1805885Y1549942D02*
X1822763D01*
X1806245Y1549582D02*
X1822403D01*
X1806605Y1549222D02*
X1822124D01*
X1810574Y1543822D02*
X1822054D01*
X1806965Y1548862D02*
X1821989D01*
X1807325Y1548502D02*
X1821954D01*
X1807685Y1548142D02*
X1821954D01*
X1808045Y1547782D02*
X1821954D01*
X1808405Y1547422D02*
X1821954D01*
X1808765Y1547062D02*
X1821954D01*
X1809125Y1546702D02*
X1821954D01*
X1809485Y1546342D02*
X1821954D01*
X1809845Y1545982D02*
X1821954D01*
X1810205Y1545622D02*
X1821954D01*
X1810471Y1545262D02*
X1821906D01*
X1810574Y1544182D02*
X1821897D01*
X1810574Y1543462D02*
X1821866D01*
X1821167Y1535542D02*
X1821832D01*
X1810569Y1544902D02*
X1821816D01*
X1810574Y1544542D02*
X1821813D01*
X1812371Y1527982D02*
X1821669D01*
X1821059Y1536982D02*
X1821538D01*
X1810574Y1543102D02*
X1821506D01*
X1820807Y1535182D02*
X1821372D01*
X1820699Y1537342D02*
X1821176D01*
X1810574Y1542742D02*
X1821146D01*
X1812371Y1528342D02*
X1821068D01*
X1820447Y1534822D02*
X1821012D01*
X1812371Y1530502D02*
X1820944D01*
X1814274Y1542382D02*
X1820895D01*
X1820339Y1537702D02*
X1820816D01*
X1812371Y1528702D02*
X1820791D01*
X1814883Y1542022D02*
X1820786D01*
X1815162Y1541662D02*
X1820771D01*
X1815308Y1541302D02*
X1820771D01*
X1815360Y1540942D02*
X1820771D01*
X1815327Y1540582D02*
X1820771D01*
X1812371Y1530142D02*
X1820753D01*
X1815203Y1540222D02*
X1820752D01*
X1820087Y1534462D02*
X1820652D01*
X1812371Y1529062D02*
X1820645D01*
X1812371Y1529782D02*
X1820628D01*
X1812371Y1529422D02*
X1820594D01*
X1819979Y1538062D02*
X1820456D01*
X1814959Y1539862D02*
X1820395D01*
X1819308Y1538422D02*
X1820096D01*
X1814474Y1539502D02*
X1820040D01*
X1818956Y1538782D02*
X1819885D01*
X1818536Y1539142D02*
X1819871D01*
X1819242Y1538422D02*
X1819266D01*
X1804054Y1499902D02*
X1819123D01*
X1804054Y1500262D02*
X1818729D01*
X1816599Y1534462D02*
X1818487D01*
X1804054Y1500622D02*
X1818369D01*
X1816239Y1534822D02*
X1818127D01*
X1804054Y1500982D02*
X1818009D01*
X1816009Y1535182D02*
X1817767D01*
X1804054Y1501342D02*
X1817649D01*
X1815817Y1535542D02*
X1817407D01*
X1804054Y1501702D02*
X1817289D01*
X1815510Y1535902D02*
X1817134D01*
X1814974Y1536262D02*
X1817075D01*
X1813605Y1539142D02*
X1816972D01*
X1804054Y1502062D02*
X1816929D01*
X1812371Y1536622D02*
X1816751D01*
X1804054Y1502422D02*
X1816569D01*
X1813245Y1538782D02*
X1816552D01*
X1812371Y1536982D02*
X1816439D01*
X1812885Y1538422D02*
X1816333D01*
X1812371Y1537342D02*
X1816274D01*
X1812525Y1538062D02*
X1816226D01*
X1804054Y1502782D02*
X1816209D01*
X1812371Y1537702D02*
X1816207D01*
X1804054Y1503142D02*
X1815849D01*
X1804054Y1503502D02*
X1815489D01*
X1812371Y1530862D02*
X1815182D01*
X1804054Y1503862D02*
X1815129D01*
X1804054Y1504222D02*
X1814769D01*
X1812371Y1531222D02*
X1814747D01*
X1804054Y1504582D02*
X1814409D01*
X1812371Y1531582D02*
X1814387D01*
X1804054Y1504942D02*
X1814049D01*
X1812371Y1531942D02*
X1814027D01*
X1804054Y1505302D02*
X1813689D01*
X1812371Y1532302D02*
X1813667D01*
X1810574Y1542382D02*
X1813347D01*
X1804054Y1505662D02*
X1813329D01*
X1812371Y1536262D02*
X1813255D01*
X1812371Y1532662D02*
X1813028D01*
X1804054Y1506022D02*
X1812969D01*
X1810574Y1542022D02*
X1812738D01*
X1812371Y1535902D02*
X1812718D01*
X1804054Y1506382D02*
X1812609D01*
X1812388Y1533022D02*
X1812597D01*
X1810574Y1541662D02*
X1812459D01*
X1810574Y1541302D02*
X1812313D01*
X1810574Y1540942D02*
X1812260D01*
X1804054Y1506742D02*
X1812249D01*
X1810574Y1540582D02*
X1811934D01*
X1804054Y1507102D02*
X1811889D01*
X1810574Y1540222D02*
X1811574D01*
X1804054Y1507462D02*
X1811529D01*
X1810574Y1539862D02*
X1811214D01*
X1804054Y1507822D02*
X1811169D01*
X1810574Y1539502D02*
X1810854D01*
X1804054Y1508182D02*
X1810809D01*
X1804054Y1508542D02*
X1810449D01*
X1804054Y1508902D02*
X1810089D01*
X1804054Y1509262D02*
X1809729D01*
X1804054Y1509622D02*
X1809369D01*
X1804054Y1509982D02*
X1809009D01*
X1804054Y1510342D02*
X1808649D01*
X1804054Y1510702D02*
X1808289D01*
X1804054Y1511062D02*
X1807929D01*
X1804002Y1511422D02*
X1807569D01*
X1803789Y1511782D02*
X1807209D01*
X1803208Y1512142D02*
X1806849D01*
X1794734Y1540582D02*
X1804635D01*
X1794734Y1540222D02*
X1804635D01*
X1794734Y1539862D02*
X1804635D01*
X1794734Y1539502D02*
X1804635D01*
X1794734Y1539142D02*
X1804635D01*
X1794734Y1538782D02*
X1804635D01*
X1794734Y1538422D02*
X1804635D01*
X1794734Y1538062D02*
X1804635D01*
X1794734Y1537702D02*
X1804635D01*
X1794734Y1537342D02*
X1804635D01*
X1794734Y1536982D02*
X1804635D01*
X1794734Y1536622D02*
X1804635D01*
X1794734Y1536262D02*
X1804635D01*
X1794734Y1535902D02*
X1804635D01*
X1794734Y1535542D02*
X1804635D01*
X1794734Y1535182D02*
X1804635D01*
X1794734Y1534822D02*
X1804635D01*
X1794734Y1534462D02*
X1804635D01*
X1794734Y1534102D02*
X1804635D01*
X1794734Y1533742D02*
X1804635D01*
X1794734Y1533382D02*
X1804635D01*
X1794734Y1533022D02*
X1804635D01*
X1794734Y1532662D02*
X1804635D01*
X1794734Y1532302D02*
X1804635D01*
X1794734Y1531942D02*
X1804635D01*
X1794734Y1531582D02*
X1804635D01*
X1794734Y1531222D02*
X1804635D01*
X1794734Y1530862D02*
X1804635D01*
X1794734Y1530502D02*
X1804635D01*
X1795362Y1530142D02*
X1804635D01*
X1795860Y1529782D02*
X1804635D01*
X1796027Y1529422D02*
X1804635D01*
X1796054Y1529062D02*
X1804635D01*
X1796054Y1528702D02*
X1804635D01*
X1796054Y1528342D02*
X1804635D01*
X1796054Y1527982D02*
X1804635D01*
X1796054Y1527622D02*
X1804635D01*
X1796054Y1527262D02*
X1804635D01*
X1798187Y1521502D02*
X1804635D01*
X1798547Y1521142D02*
X1804635D01*
X1797827Y1521862D02*
X1804634D01*
X1794734Y1540942D02*
X1804584D01*
X1796054Y1526902D02*
X1804295D01*
X1794734Y1541302D02*
X1804224D01*
X1797467Y1522222D02*
X1804201D01*
X1796054Y1526542D02*
X1804069D01*
X1797107Y1522582D02*
X1804045D01*
X1796054Y1526182D02*
X1804035D01*
X1796054Y1525822D02*
X1804035D01*
X1796054Y1525462D02*
X1804035D01*
X1796054Y1525102D02*
X1804035D01*
X1796054Y1524742D02*
X1804035D01*
X1796054Y1524382D02*
X1804035D01*
X1796054Y1524022D02*
X1804035D01*
X1796056Y1523662D02*
X1804035D01*
X1796387Y1523302D02*
X1804035D01*
X1796747Y1522942D02*
X1804035D01*
X1794734Y1541662D02*
X1803864D01*
X1794734Y1542022D02*
X1803504D01*
X1794734Y1542382D02*
X1803144D01*
X1794734Y1542742D02*
X1802784D01*
X1800336Y1512142D02*
X1802762D01*
X1794734Y1543102D02*
X1802424D01*
X1800304Y1512502D02*
X1802395D01*
X1799917Y1520782D02*
X1802365D01*
X1792344Y1550302D02*
X1802184D01*
X1792704Y1549942D02*
X1802184D01*
X1793064Y1549582D02*
X1802184D01*
X1801005Y1549222D02*
X1802184D01*
X1801742Y1548862D02*
X1802184D01*
X1800304Y1512862D02*
X1802152D01*
X1800137Y1520422D02*
X1802144D01*
X1800169Y1520062D02*
X1802112D01*
X1800169Y1519702D02*
X1802112D01*
X1800232Y1519342D02*
X1802112D01*
X1800304Y1518982D02*
X1802112D01*
X1800304Y1518622D02*
X1802112D01*
X1800304Y1518262D02*
X1802112D01*
X1800304Y1517902D02*
X1802112D01*
X1800304Y1517542D02*
X1802112D01*
X1800304Y1517182D02*
X1802112D01*
X1800304Y1516822D02*
X1802112D01*
X1800304Y1516462D02*
X1802112D01*
X1800304Y1516102D02*
X1802112D01*
X1800304Y1515742D02*
X1802112D01*
X1800304Y1515382D02*
X1802112D01*
X1800304Y1515022D02*
X1802112D01*
X1800304Y1514662D02*
X1802112D01*
X1800304Y1514302D02*
X1802112D01*
X1800304Y1513942D02*
X1802112D01*
X1800304Y1513582D02*
X1802112D01*
X1800304Y1513222D02*
X1802112D01*
X1794734Y1543462D02*
X1802064D01*
X1791984Y1550662D02*
X1802054D01*
X1794734Y1543822D02*
X1801704D01*
X1791624Y1551022D02*
X1801694D01*
X1794734Y1544182D02*
X1801344D01*
X1791264Y1551382D02*
X1801334D01*
X1794734Y1544542D02*
X1800984D01*
X1790904Y1551742D02*
X1800974D01*
X1794734Y1544902D02*
X1800624D01*
X1790544Y1552102D02*
X1800614D01*
X1794734Y1545262D02*
X1800264D01*
X1790184Y1552462D02*
X1800254D01*
X1793424Y1549222D02*
X1800203D01*
X1794734Y1545622D02*
X1799904D01*
X1789824Y1552822D02*
X1799894D01*
X1794734Y1545982D02*
X1799544D01*
X1789464Y1553182D02*
X1799534D01*
X1793784Y1548862D02*
X1799466D01*
X1794734Y1546342D02*
X1799199D01*
X1789104Y1553542D02*
X1799174D01*
X1794144Y1548502D02*
X1799131D01*
X1794734Y1546702D02*
X1798975D01*
X1794483Y1548142D02*
X1798935D01*
X1794734Y1547062D02*
X1798850D01*
X1794668Y1547782D02*
X1798832D01*
X1788744Y1553902D02*
X1798814D01*
X1794733Y1547422D02*
X1798805D01*
X1788384Y1554262D02*
X1798454D01*
X1788024Y1554622D02*
X1798094D01*
X1787664Y1554982D02*
X1797734D01*
X1787304Y1555342D02*
X1797374D01*
X1786944Y1555702D02*
X1797014D01*
X1786584Y1556062D02*
X1796654D01*
X1786224Y1556422D02*
X1796294D01*
X1785864Y1556782D02*
X1795934D01*
X1785504Y1557142D02*
X1795574D01*
X1785238Y1557502D02*
X1795214D01*
X1785076Y1557862D02*
X1794854D01*
X1784772Y1558222D02*
X1794494D01*
X1784011Y1558582D02*
X1794134D01*
X1756404Y1558942D02*
X1793774D01*
X1756404Y1559302D02*
X1793414D01*
X1756404Y1559662D02*
X1793054D01*
X1781914Y1520062D02*
X1792954D01*
X1781902Y1519702D02*
X1792954D01*
X1781855Y1519342D02*
X1792954D01*
X1781772Y1518982D02*
X1792954D01*
X1781650Y1518622D02*
X1792954D01*
X1781485Y1518262D02*
X1792954D01*
X1781269Y1517902D02*
X1792954D01*
X1780992Y1517542D02*
X1792954D01*
X1780633Y1517182D02*
X1792954D01*
X1780148Y1516822D02*
X1792954D01*
X1779396Y1516462D02*
X1792954D01*
X1756404Y1516102D02*
X1792954D01*
X1756404Y1515742D02*
X1792954D01*
X1756404Y1515382D02*
X1792954D01*
X1756404Y1515022D02*
X1792954D01*
X1756404Y1514662D02*
X1792954D01*
X1756404Y1514302D02*
X1792954D01*
X1756404Y1513942D02*
X1792954D01*
X1756404Y1513582D02*
X1792954D01*
X1756404Y1513222D02*
X1792954D01*
X1756404Y1512862D02*
X1792954D01*
X1756404Y1512502D02*
X1792954D01*
X1756404Y1512142D02*
X1792922D01*
X1781891Y1520422D02*
X1792754D01*
X1756404Y1560022D02*
X1792694D01*
X1781833Y1520782D02*
X1792394D01*
X1756404Y1560382D02*
X1792334D01*
X1781814Y1546702D02*
X1792134D01*
X1781709Y1546342D02*
X1792134D01*
X1781564Y1545982D02*
X1792134D01*
X1781372Y1545622D02*
X1792134D01*
X1781125Y1545262D02*
X1792134D01*
X1780806Y1544902D02*
X1792134D01*
X1780385Y1544542D02*
X1792134D01*
X1779786Y1544182D02*
X1792134D01*
X1778435Y1543822D02*
X1792134D01*
X1772646Y1543462D02*
X1792134D01*
X1773078Y1543102D02*
X1792134D01*
X1773345Y1542742D02*
X1792134D01*
X1773514Y1542382D02*
X1792134D01*
X1773609Y1542022D02*
X1792134D01*
X1773640Y1541662D02*
X1792134D01*
X1773610Y1541302D02*
X1792134D01*
X1773516Y1540942D02*
X1792134D01*
X1773348Y1540582D02*
X1792134D01*
X1773083Y1540222D02*
X1792134D01*
X1772654Y1539862D02*
X1792134D01*
X1756404Y1539502D02*
X1792134D01*
X1756404Y1539142D02*
X1792134D01*
X1756404Y1538782D02*
X1792134D01*
X1756404Y1538422D02*
X1792134D01*
X1756404Y1538062D02*
X1792134D01*
X1756404Y1537702D02*
X1792134D01*
X1756404Y1537342D02*
X1792134D01*
X1756404Y1536982D02*
X1792134D01*
X1756404Y1536622D02*
X1792134D01*
X1756404Y1536262D02*
X1792134D01*
X1756404Y1535902D02*
X1792134D01*
X1756404Y1535542D02*
X1792134D01*
X1756404Y1535182D02*
X1792134D01*
X1756404Y1534822D02*
X1792134D01*
X1756404Y1534462D02*
X1792134D01*
X1756404Y1534102D02*
X1792134D01*
X1756404Y1533742D02*
X1792134D01*
X1756404Y1533382D02*
X1792134D01*
X1756404Y1533022D02*
X1792134D01*
X1756404Y1532662D02*
X1792134D01*
X1756404Y1532302D02*
X1792134D01*
X1756404Y1531942D02*
X1792134D01*
X1756404Y1531582D02*
X1792134D01*
X1756404Y1531222D02*
X1792134D01*
X1756404Y1530862D02*
X1792134D01*
X1756404Y1530502D02*
X1792134D01*
X1781738Y1521142D02*
X1792034D01*
X1756404Y1560742D02*
X1791974D01*
X1781880Y1547062D02*
X1791907D01*
X1781603Y1521502D02*
X1791674D01*
X1756404Y1561102D02*
X1791614D01*
X1781912Y1547422D02*
X1791547D01*
X1756404Y1530142D02*
X1791396D01*
X1781423Y1521862D02*
X1791314D01*
X1756404Y1561462D02*
X1791254D01*
X1781908Y1547782D02*
X1791187D01*
X1781190Y1522222D02*
X1790956D01*
X1756404Y1529782D02*
X1790898D01*
X1781870Y1548142D02*
X1790827D01*
X1780890Y1522582D02*
X1790751D01*
X1756404Y1529422D02*
X1790731D01*
X1756404Y1529062D02*
X1790704D01*
X1756404Y1528702D02*
X1790704D01*
X1756404Y1528342D02*
X1790704D01*
X1772013Y1527982D02*
X1790704D01*
X1772780Y1527622D02*
X1790704D01*
X1773158Y1527262D02*
X1790704D01*
X1773396Y1526902D02*
X1790704D01*
X1773545Y1526542D02*
X1790704D01*
X1773623Y1526182D02*
X1790704D01*
X1773639Y1525822D02*
X1790704D01*
X1773592Y1525462D02*
X1790704D01*
X1773481Y1525102D02*
X1790704D01*
X1773291Y1524742D02*
X1790704D01*
X1772994Y1524382D02*
X1790704D01*
X1772495Y1524022D02*
X1790704D01*
X1779007Y1523662D02*
X1790704D01*
X1779955Y1523302D02*
X1790704D01*
X1780499Y1522942D02*
X1790704D01*
X1781795Y1548502D02*
X1790467D01*
X1759748Y1488382D02*
X1790417D01*
X1756404Y1564342D02*
X1790322D01*
X1756404Y1561822D02*
X1790281D01*
X1781683Y1548862D02*
X1790107D01*
X1756404Y1563982D02*
X1789953D01*
X1759383Y1488742D02*
X1789934D01*
X1756404Y1562182D02*
X1789932D01*
X1756404Y1563622D02*
X1789757D01*
X1781529Y1549222D02*
X1789747D01*
X1756404Y1562542D02*
X1789746D01*
X1756404Y1563262D02*
X1789666D01*
X1756404Y1562902D02*
X1789663D01*
X1759051Y1489102D02*
X1789574D01*
X1781326Y1549582D02*
X1789387D01*
X1758748Y1489462D02*
X1789214D01*
X1781065Y1549942D02*
X1789027D01*
X1758471Y1489822D02*
X1788931D01*
X1758217Y1490182D02*
X1788832D01*
X1756404Y1505662D02*
X1788829D01*
X1756404Y1505302D02*
X1788829D01*
X1756404Y1504942D02*
X1788829D01*
X1756404Y1504582D02*
X1788829D01*
X1756404Y1504222D02*
X1788829D01*
X1756404Y1503862D02*
X1788829D01*
X1756404Y1503502D02*
X1788829D01*
X1756404Y1503142D02*
X1788829D01*
X1756404Y1502782D02*
X1788829D01*
X1756404Y1502422D02*
X1788829D01*
X1756404Y1502062D02*
X1788829D01*
X1756404Y1501702D02*
X1788829D01*
X1756404Y1501342D02*
X1788829D01*
X1756404Y1500982D02*
X1788829D01*
X1756404Y1500622D02*
X1788829D01*
X1756404Y1500262D02*
X1788829D01*
X1756404Y1499902D02*
X1788829D01*
X1756404Y1499542D02*
X1788829D01*
X1756404Y1499182D02*
X1788829D01*
X1756404Y1498822D02*
X1788829D01*
X1756404Y1498462D02*
X1788829D01*
X1756404Y1498102D02*
X1788829D01*
X1756404Y1497742D02*
X1788829D01*
X1756404Y1497382D02*
X1788829D01*
X1756404Y1497022D02*
X1788829D01*
X1756404Y1496662D02*
X1788829D01*
X1756404Y1496302D02*
X1788829D01*
X1756405Y1495942D02*
X1788829D01*
X1756417Y1495582D02*
X1788829D01*
X1756442Y1495222D02*
X1788829D01*
X1756478Y1494862D02*
X1788829D01*
X1756527Y1494502D02*
X1788829D01*
X1756589Y1494142D02*
X1788829D01*
X1756664Y1493782D02*
X1788829D01*
X1756751Y1493422D02*
X1788829D01*
X1756853Y1493062D02*
X1788829D01*
X1756968Y1492702D02*
X1788829D01*
X1757097Y1492342D02*
X1788829D01*
X1757242Y1491982D02*
X1788829D01*
X1757402Y1491622D02*
X1788829D01*
X1757579Y1491262D02*
X1788829D01*
X1757772Y1490902D02*
X1788829D01*
X1757985Y1490542D02*
X1788829D01*
X1780729Y1550302D02*
X1788667D01*
X1756404Y1506022D02*
X1788654D01*
X1780281Y1550662D02*
X1788307D01*
X1756404Y1506382D02*
X1788294D01*
X1779621Y1551022D02*
X1787947D01*
X1756404Y1551382D02*
X1787587D01*
X1756404Y1551742D02*
X1787227D01*
X1756404Y1552102D02*
X1786867D01*
X1756404Y1552462D02*
X1786507D01*
X1756404Y1552822D02*
X1786147D01*
X1756404Y1553182D02*
X1785787D01*
X1756404Y1553542D02*
X1785427D01*
X1756404Y1553902D02*
X1785067D01*
X1756404Y1554262D02*
X1784707D01*
X1756404Y1554622D02*
X1784347D01*
X1756404Y1554982D02*
X1783987D01*
X1756404Y1506742D02*
X1783806D01*
X1756404Y1511782D02*
X1783719D01*
X1756404Y1555342D02*
X1783627D01*
X1756404Y1507102D02*
X1783538D01*
X1756404Y1511422D02*
X1783506D01*
X1756404Y1558582D02*
X1783497D01*
X1756404Y1507462D02*
X1783455D01*
X1756404Y1511062D02*
X1783454D01*
X1756404Y1510702D02*
X1783454D01*
X1756404Y1510342D02*
X1783454D01*
X1756404Y1509982D02*
X1783454D01*
X1756404Y1509622D02*
X1783454D01*
X1756404Y1509262D02*
X1783454D01*
X1756404Y1508902D02*
X1783454D01*
X1756404Y1508542D02*
X1783454D01*
X1756404Y1508182D02*
X1783454D01*
X1756404Y1507822D02*
X1783454D01*
X1756404Y1555702D02*
X1782995D01*
X1756404Y1558222D02*
X1782736D01*
X1756404Y1556062D02*
X1782562D01*
X1756404Y1557862D02*
X1782432D01*
X1756404Y1556422D02*
X1782338D01*
X1756404Y1557502D02*
X1782270D01*
X1756404Y1556782D02*
X1782228D01*
X1756404Y1557142D02*
X1782206D01*
X1763868Y1543822D02*
X1776707D01*
X1764440Y1523662D02*
X1776135D01*
X1764830Y1516462D02*
X1775745D01*
X1765054Y1551022D02*
X1775521D01*
X1765219Y1544182D02*
X1775356D01*
X1765389Y1523302D02*
X1775186D01*
X1765581Y1516822D02*
X1774994D01*
X1765714Y1550662D02*
X1774861D01*
X1765819Y1544542D02*
X1774756D01*
X1765932Y1522942D02*
X1774643D01*
X1766066Y1517182D02*
X1774509D01*
X1766162Y1550302D02*
X1774413D01*
X1766239Y1544902D02*
X1774336D01*
X1766323Y1522582D02*
X1774252D01*
X1766425Y1517542D02*
X1774150D01*
X1766498Y1549942D02*
X1774077D01*
X1766558Y1545262D02*
X1774017D01*
X1766623Y1522222D02*
X1773952D01*
X1766702Y1517902D02*
X1773873D01*
X1766759Y1549582D02*
X1773816D01*
X1766805Y1545622D02*
X1773770D01*
X1766856Y1521862D02*
X1773719D01*
X1766918Y1518262D02*
X1773657D01*
X1766962Y1549222D02*
X1773613D01*
X1766997Y1545982D02*
X1773578D01*
X1767036Y1521502D02*
X1773539D01*
X1767083Y1518622D02*
X1773492D01*
X1767116Y1548862D02*
X1773459D01*
X1767143Y1546342D02*
X1773432D01*
X1767171Y1521142D02*
X1773404D01*
X1767205Y1518982D02*
X1773370D01*
X1767228Y1548502D02*
X1773347D01*
X1767247Y1546702D02*
X1773328D01*
X1767266Y1520782D02*
X1773309D01*
X1767288Y1519342D02*
X1773287D01*
X1767303Y1548142D02*
X1773272D01*
X1767314Y1547062D02*
X1773261D01*
X1767324Y1520422D02*
X1773251D01*
X1767335Y1519702D02*
X1773240D01*
X1767341Y1547782D02*
X1773234D01*
X1767345Y1547422D02*
X1773230D01*
X1767347Y1520062D02*
X1773228D01*
X1756404Y1527982D02*
X1771005D01*
X1756404Y1524022D02*
X1770523D01*
X1756404Y1543462D02*
X1770373D01*
X1756404Y1539862D02*
X1770364D01*
X1756404Y1527622D02*
X1770238D01*
X1756404Y1524382D02*
X1770025D01*
X1756404Y1543102D02*
X1769941D01*
X1756404Y1540222D02*
X1769936D01*
X1756404Y1527262D02*
X1769861D01*
X1756404Y1524742D02*
X1769728D01*
X1756404Y1542742D02*
X1769674D01*
X1756404Y1540582D02*
X1769670D01*
X1756404Y1526902D02*
X1769622D01*
X1756404Y1525102D02*
X1769538D01*
X1756404Y1542382D02*
X1769504D01*
X1756404Y1540942D02*
X1769502D01*
X1756404Y1526542D02*
X1769474D01*
X1756404Y1525462D02*
X1769426D01*
X1756404Y1542022D02*
X1769409D01*
X1756404Y1541302D02*
X1769408D01*
X1756404Y1526182D02*
X1769395D01*
X1756404Y1525822D02*
X1769380D01*
X1756404Y1541662D02*
X1769378D01*
X1756404Y1543822D02*
X1762140D01*
X1756404Y1523662D02*
X1761568D01*
X1756404Y1516462D02*
X1761179D01*
X1756404Y1551022D02*
X1760954D01*
X1756404Y1544182D02*
X1760789D01*
X1756404Y1523302D02*
X1760620D01*
X1756404Y1516822D02*
X1760427D01*
X1756404Y1550662D02*
X1760294D01*
X1756404Y1544542D02*
X1760190D01*
X1756404Y1522942D02*
X1760076D01*
X1756404Y1517182D02*
X1759942D01*
X1756404Y1550302D02*
X1759846D01*
X1756404Y1544902D02*
X1759769D01*
X1756404Y1522582D02*
X1759685D01*
X1756404Y1517542D02*
X1759583D01*
X1756404Y1549942D02*
X1759510D01*
X1756404Y1545262D02*
X1759450D01*
X1756404Y1522222D02*
X1759385D01*
X1756404Y1517902D02*
X1759306D01*
X1756404Y1549582D02*
X1759249D01*
X1756404Y1545622D02*
X1759203D01*
X1756404Y1521862D02*
X1759152D01*
X1756404Y1518262D02*
X1759090D01*
X1756404Y1549222D02*
X1759046D01*
X1756404Y1545982D02*
X1759011D01*
X1756404Y1521502D02*
X1758972D01*
X1756404Y1518622D02*
X1758925D01*
X1756404Y1548862D02*
X1758892D01*
X1756404Y1546342D02*
X1758866D01*
X1756404Y1521142D02*
X1758837D01*
X1756404Y1518982D02*
X1758803D01*
X1756404Y1548502D02*
X1758780D01*
X1756404Y1546702D02*
X1758761D01*
X1756404Y1520782D02*
X1758742D01*
X1756404Y1519342D02*
X1758720D01*
X1756404Y1548142D02*
X1758705D01*
X1756404Y1547062D02*
X1758695D01*
X1756404Y1520422D02*
X1758684D01*
X1756404Y1519702D02*
X1758673D01*
X1756404Y1547782D02*
X1758667D01*
X1756404Y1547422D02*
X1758663D01*
X1756404Y1520062D02*
X1758661D01*
X1897025Y1494502D02*
X1911684D01*
X1897385Y1494142D02*
X1911684D01*
X1896665Y1494862D02*
X1911454D01*
X1896305Y1495222D02*
X1911094D01*
X1895945Y1495582D02*
X1910734D01*
X1895744Y1495942D02*
X1910374D01*
X1895659Y1496302D02*
X1910014D01*
X1895470Y1496662D02*
X1909781D01*
X1895658Y1497022D02*
X1909705D01*
X1903840Y1502062D02*
X1909704D01*
X1900338Y1501702D02*
X1909704D01*
X1899978Y1501342D02*
X1909704D01*
X1899618Y1500982D02*
X1909704D01*
X1899258Y1500622D02*
X1909704D01*
X1898898Y1500262D02*
X1909704D01*
X1898538Y1499902D02*
X1909704D01*
X1898178Y1499542D02*
X1909704D01*
X1897818Y1499182D02*
X1909704D01*
X1897458Y1498822D02*
X1909704D01*
X1897098Y1498462D02*
X1909704D01*
X1896738Y1498102D02*
X1909704D01*
X1896378Y1497742D02*
X1909704D01*
X1896018Y1497382D02*
X1909704D01*
X1900698Y1502062D02*
X1902168D01*
X1767015Y1583267D02*
G03X1755204Y1571456I0J-11811D01*
G01X1767015Y1583267D02*
X2032393D01*
X2044204Y1571456D02*
G03X2032393Y1583267I-11811J-0D01*
G01X2044204Y1571456D02*
Y1496114D01*
X2032393Y1484303D02*
G03X2044204Y1496114I0J11811D01*
G01X2032393Y1484303D02*
X1767015D01*
X1755204Y1496114D02*
G03X1767015Y1484303I11811J0D01*
G01X1755204Y1496114D02*
Y1571456D01*
G54D56*
X1823354Y1544709D02*
Y1548553D01*
X1838854Y1564053*
X1845931*
X1871029Y1544949D02*
X1851925Y1564053D01*
X1845931*
X1900037Y1572303D02*
X1902653D01*
Y1572308*
X1780815Y1522659D02*
X1780249Y1522093D01*
X1780815Y1517352D02*
X1780249Y1517918D01*
X1774327Y1517352D02*
X1774892Y1517918D01*
X1774327Y1522659D02*
X1774892Y1522093D01*
X1780815Y1550218D02*
X1780249Y1549652D01*
X1780815Y1544911D02*
X1780249Y1545477D01*
X1774327Y1544911D02*
X1774892Y1545477D01*
X1774327Y1550218D02*
X1774892Y1549652D01*
X1766248Y1522659D02*
X1765682Y1522093D01*
X1766248Y1517352D02*
X1765682Y1517918D01*
X1759760Y1517352D02*
X1760326Y1517918D01*
X1759760Y1522659D02*
X1760326Y1522093D01*
X1766248Y1550218D02*
X1765682Y1549652D01*
X1766248Y1544911D02*
X1765682Y1545477D01*
X1759760Y1544911D02*
X1760326Y1545477D01*
X1759760Y1550218D02*
X1760326Y1549652D01*
G54D60*
X2026604Y1572467D02*
Y1572510D01*
X2030372*
X1973462Y1487171D03*
X2030942Y1487565D03*
X1892704Y1497803D03*
X1894204Y1495767D03*
X1904884Y1490873D03*
X1900884Y1494873D03*
X1903884Y1497873D03*
X1906884Y1494873D03*
X1903884D03*
X1906884Y1497873D03*
X1900884D03*
X1902884Y1490873D03*
X1914204Y1495767D03*
X1908704Y1490967D03*
X1913404Y1497767D03*
X1894204Y1499767D03*
X1899183Y1507621D03*
X1905978D03*
X1903004Y1503367D03*
X1903884Y1500873D03*
X1906884D03*
X1900884D03*
X1910804Y1503367D03*
X2014884Y1506873D03*
Y1501873D03*
X1890384Y1513373D03*
X2014884Y1516873D03*
Y1512373D03*
X1909364Y1525117D03*
X1911964D03*
X2027884Y1527873D03*
X1922504Y1534767D03*
X1926884Y1534873D03*
X1931884D03*
X1969884Y1528873D03*
Y1536873D03*
X1981884D03*
Y1528873D03*
X1995884D03*
Y1536873D03*
X1943904Y1539167D03*
X1969884Y1544873D03*
X1981884D03*
X1995884D03*
X1781336Y1526935D03*
X1760384Y1495373D03*
X1768384Y1512873D03*
X1764884Y1557373D03*
X1823520Y1505847D03*
X1813810Y1540903D03*
X1845931Y1564053D03*
X1855766Y1512297D03*
X1823354Y1544709D03*
X1817754Y1537803D03*
X1834387Y1555947D03*
X1827823Y1548592D03*
X1827930Y1498667D03*
X1791204Y1563067D03*
X1822144Y1529457D03*
X1855286Y1548693D03*
X1836679Y1515054D03*
X1783754Y1557053D03*
X1785504Y1509803D03*
X1801820Y1527285D03*
X1848095Y1555228D03*
X1859384Y1511373D03*
X1857384Y1507873D03*
X1835884Y1565873D03*
X1821884Y1560873D03*
X1811884Y1565373D03*
X1847384Y1515373D03*
X1829384Y1522873D03*
X1830384Y1529373D03*
X1837384Y1521873D03*
X1853884Y1531873D03*
X1855884Y1534873D03*
X1848884Y1541873D03*
X1844384Y1551373D03*
X1845884Y1553373D03*
X1836384Y1546873D03*
X1830884Y1541373D03*
X1826384Y1537873D03*
X1819384Y1552873D03*
X1815884Y1549373D03*
X1812884Y1546373D03*
X1795884Y1541873D03*
Y1533373D03*
Y1537873D03*
X1786384Y1528373D03*
X1783384Y1516873D03*
X1784384Y1492873D03*
X1871029Y1544949D03*
X1886704Y1498767D03*
X1886604Y1518567D03*
X1864647Y1567232D03*
X1867030Y1554748D03*
X1870018Y1548975D03*
X1863988Y1540692D03*
X1862804Y1519203D03*
X1869884Y1522873D03*
X1862884Y1507373D03*
X1864384Y1510873D03*
X1907884Y1551373D03*
Y1554373D03*
X1884384Y1526873D03*
X1877884Y1538873D03*
X1869384Y1538373D03*
X1869884Y1526373D03*
X1949504Y1551267D03*
X1952204Y1555367D03*
X2042384Y1560873D03*
X1760384Y1571873D03*
X1832884Y1569873D03*
X1816884Y1572373D03*
X1820884Y1576373D03*
X1824884Y1577873D03*
X1828384Y1578373D03*
X1791384Y1574873D03*
X1968404Y1577903D03*
X2026604Y1572467D03*
X2036884Y1572373D03*
G54D70*
X1952405Y1492109D02*
Y1499704D01*
X1952504Y1499803*
X1921032Y1515803D02*
X1938004Y1532775D01*
Y1554803*
X1898115Y1524125D02*
Y1531921D01*
X1916320Y1522117D02*
X1900123D01*
X1898115Y1524125*
X2020754Y1525053D02*
X2020827D01*
Y1527803*
X1898115Y1531921D02*
X1869008D01*
X1864674Y1536255*
X1898115Y1531921D02*
Y1537283D01*
X1900599Y1539767*
X1826106Y1532403D02*
X1831335Y1537631D01*
X1862153Y1538775D02*
X1860504Y1540424D01*
X1826106Y1532403D02*
X1821996D01*
X1816112*
X1814114Y1534400*
X1855153Y1526830D02*
X1855153D01*
X1805668Y1516655D02*
X1806435D01*
Y1524511*
X1840235Y1546331D02*
X1842646Y1548743D01*
X1852186*
X1853761Y1547168D02*
X1852186Y1548743D01*
X1855153Y1526830D02*
X1855249D01*
X1864674Y1536255*
X1838319Y1516695D02*
X1845017D01*
X1855153Y1526830*
X1806435Y1524511D02*
Y1541636D01*
X1800604Y1547467*
X1860504Y1540424D02*
X1853761Y1547168D01*
X1831335Y1537631D02*
X1839894Y1546190D01*
X1840094*
X1840235Y1546331*
X1883004Y1501367D02*
X1897440Y1515803D01*
X1921032*
X1883004Y1501367D02*
X1820169D01*
X1805668Y1515868*
Y1516655*
X1864674Y1536255D02*
X1862153Y1538775D01*
X1972504Y1567803D02*
Y1574803D01*
X2030403Y1568573D02*
X2030372Y1568605D01*
Y1572510*
X2020754Y1525053D03*
X1900599Y1539767D03*
X1800604Y1547467D03*
X1902653Y1572308D03*
X2030403Y1568573D03*
G54D72*
X1898115Y1524125D03*
X1916320Y1522117D03*
X1814114Y1534400D03*
X1793434Y1527686D03*
G54D142*
X1826598Y1539965D02*
X1829002Y1542369D01*
X1826881Y1544490*
X1824476Y1542086*
X1826598Y1539965*
X1826598*
X1826398Y1540165D02*
X1826798D01*
X1826198Y1540365D02*
X1826998D01*
X1825998Y1540565D02*
X1827198D01*
X1825798Y1540765D02*
X1827398D01*
X1825598Y1540965D02*
X1827598D01*
X1825398Y1541165D02*
X1827798D01*
X1825198Y1541365D02*
X1827998D01*
X1824998Y1541565D02*
X1828198D01*
X1824798Y1541765D02*
X1828398D01*
X1824598Y1541965D02*
X1828598D01*
X1824555Y1542165D02*
X1828798D01*
X1824755Y1542365D02*
X1828998D01*
X1824955Y1542565D02*
X1828806D01*
X1825155Y1542765D02*
X1828606D01*
X1825355Y1542965D02*
X1828406D01*
X1825555Y1543165D02*
X1828206D01*
X1825755Y1543365D02*
X1828006D01*
X1825955Y1543565D02*
X1827806D01*
X1826155Y1543765D02*
X1827606D01*
X1826355Y1543965D02*
X1827406D01*
X1826555Y1544165D02*
X1827206D01*
X1826755Y1544365D02*
X1827006D01*
X1824476Y1542086D02*
X1824476D01*
X1824676Y1541886D02*
Y1542286D01*
X1824876Y1541686D02*
Y1542486D01*
X1825076Y1541486D02*
Y1542686D01*
X1825276Y1541286D02*
Y1542886D01*
X1825476Y1541086D02*
Y1543086D01*
X1825676Y1540886D02*
Y1543286D01*
X1825876Y1540686D02*
Y1543486D01*
X1826076Y1540486D02*
Y1543686D01*
X1826276Y1540286D02*
Y1543886D01*
X1826476Y1540086D02*
Y1544086D01*
X1826676Y1540044D02*
Y1544286D01*
X1826876Y1540244D02*
Y1544486D01*
X1827076Y1540444D02*
Y1544295D01*
X1827276Y1540644D02*
Y1544095D01*
X1827476Y1540844D02*
Y1543895D01*
X1827676Y1541044D02*
Y1543695D01*
X1827876Y1541244D02*
Y1543495D01*
X1828076Y1541444D02*
Y1543295D01*
X1828276Y1541644D02*
Y1543095D01*
X1828476Y1541844D02*
Y1542895D01*
X1828676Y1542044D02*
Y1542695D01*
X1828876Y1542244D02*
Y1542495D01*
X1831194Y1535369D02*
X1833598Y1537773D01*
X1831477Y1539894*
X1829073Y1537490*
X1831194Y1535369*
X1831194*
X1830994Y1535569D02*
X1831394D01*
X1830794Y1535769D02*
X1831594D01*
X1830594Y1535969D02*
X1831794D01*
X1830394Y1536169D02*
X1831994D01*
X1830194Y1536369D02*
X1832194D01*
X1829994Y1536569D02*
X1832394D01*
X1829794Y1536769D02*
X1832594D01*
X1829594Y1536969D02*
X1832794D01*
X1829394Y1537169D02*
X1832994D01*
X1829194Y1537369D02*
X1833194D01*
X1829151Y1537569D02*
X1833394D01*
X1829351Y1537769D02*
X1833594D01*
X1829551Y1537969D02*
X1833402D01*
X1829751Y1538169D02*
X1833202D01*
X1829951Y1538369D02*
X1833002D01*
X1830151Y1538569D02*
X1832802D01*
X1830351Y1538769D02*
X1832602D01*
X1830551Y1538969D02*
X1832402D01*
X1830751Y1539169D02*
X1832202D01*
X1830951Y1539369D02*
X1832002D01*
X1831151Y1539569D02*
X1831802D01*
X1831351Y1539769D02*
X1831602D01*
X1829073Y1537490D02*
X1829073D01*
X1829273Y1537290D02*
Y1537690D01*
X1829473Y1537090D02*
Y1537890D01*
X1829673Y1536890D02*
Y1538090D01*
X1829873Y1536690D02*
Y1538290D01*
X1830073Y1536490D02*
Y1538490D01*
X1830273Y1536290D02*
Y1538690D01*
X1830473Y1536090D02*
Y1538890D01*
X1830673Y1535890D02*
Y1539090D01*
X1830873Y1535690D02*
Y1539290D01*
X1831073Y1535490D02*
Y1539490D01*
X1831273Y1535447D02*
Y1539690D01*
X1831473Y1535647D02*
Y1539890D01*
X1831673Y1535847D02*
Y1539698D01*
X1831873Y1536047D02*
Y1539498D01*
X1832073Y1536247D02*
Y1539298D01*
X1832273Y1536447D02*
Y1539098D01*
X1832473Y1536647D02*
Y1538898D01*
X1832673Y1536847D02*
Y1538698D01*
X1832873Y1537047D02*
Y1538498D01*
X1833073Y1537247D02*
Y1538298D01*
X1833273Y1537447D02*
Y1538098D01*
X1833473Y1537647D02*
Y1537898D01*
X1825287Y1531481D02*
X1824014Y1530208D01*
X1825287Y1528935*
X1826560Y1530208*
X1825287Y1531481*
Y1528935D02*
X1825287D01*
X1825087Y1529135D02*
X1825487D01*
X1824887Y1529335D02*
X1825687D01*
X1824687Y1529535D02*
X1825887D01*
X1824487Y1529735D02*
X1826087D01*
X1824287Y1529935D02*
X1826287D01*
X1824087Y1530135D02*
X1826487D01*
X1824141Y1530335D02*
X1826433D01*
X1824341Y1530535D02*
X1826233D01*
X1824541Y1530735D02*
X1826033D01*
X1824741Y1530935D02*
X1825833D01*
X1824941Y1531135D02*
X1825633D01*
X1825141Y1531335D02*
X1825433D01*
X1824014Y1530208D02*
X1824014D01*
X1824214Y1530008D02*
Y1530408D01*
X1824414Y1529808D02*
Y1530608D01*
X1824614Y1529608D02*
Y1530808D01*
X1824814Y1529408D02*
Y1531008D01*
X1825014Y1529208D02*
Y1531208D01*
X1825214Y1529008D02*
Y1531408D01*
X1825414Y1529062D02*
Y1531353D01*
X1825614Y1529262D02*
Y1531153D01*
X1825814Y1529462D02*
Y1530953D01*
X1826014Y1529662D02*
Y1530753D01*
X1826214Y1529862D02*
Y1530553D01*
X1826414Y1530062D02*
Y1530353D01*
X1828115Y1528652D02*
X1826843Y1527379D01*
X1828115Y1526107*
X1829388Y1527379*
X1828115Y1528652*
Y1526107D02*
X1828115D01*
X1827915Y1526307D02*
X1828315D01*
X1827715Y1526507D02*
X1828515D01*
X1827515Y1526707D02*
X1828715D01*
X1827315Y1526907D02*
X1828915D01*
X1827115Y1527107D02*
X1829115D01*
X1826915Y1527307D02*
X1829315D01*
X1826970Y1527507D02*
X1829261D01*
X1827170Y1527707D02*
X1829061D01*
X1827370Y1527907D02*
X1828861D01*
X1827570Y1528107D02*
X1828661D01*
X1827770Y1528307D02*
X1828461D01*
X1827970Y1528507D02*
X1828261D01*
X1826843Y1527379D02*
X1826843D01*
X1827043Y1527179D02*
Y1527579D01*
X1827243Y1526979D02*
Y1527779D01*
X1827443Y1526779D02*
Y1527979D01*
X1827643Y1526579D02*
Y1528179D01*
X1827843Y1526379D02*
Y1528379D01*
X1828043Y1526179D02*
Y1528579D01*
X1828243Y1526234D02*
Y1528525D01*
X1828443Y1526434D02*
Y1528325D01*
X1828643Y1526634D02*
Y1528125D01*
X1828843Y1526834D02*
Y1527925D01*
X1829043Y1527034D02*
Y1527725D01*
X1829243Y1527234D02*
Y1527525D01*
X1831923Y1549617D02*
X1830650Y1548344D01*
X1831923Y1547071*
X1833196Y1548344*
X1831923Y1549617*
Y1547071D02*
X1831923D01*
X1831723Y1547271D02*
X1832123D01*
X1831523Y1547471D02*
X1832323D01*
X1831323Y1547671D02*
X1832523D01*
X1831123Y1547871D02*
X1832723D01*
X1830923Y1548071D02*
X1832923D01*
X1830723Y1548271D02*
X1833123D01*
X1830777Y1548471D02*
X1833069D01*
X1830977Y1548671D02*
X1832869D01*
X1831177Y1548871D02*
X1832669D01*
X1831377Y1549071D02*
X1832469D01*
X1831577Y1549271D02*
X1832269D01*
X1831777Y1549471D02*
X1832069D01*
X1830650Y1548344D02*
X1830650D01*
X1830850Y1548144D02*
Y1548544D01*
X1831050Y1547944D02*
Y1548744D01*
X1831250Y1547744D02*
Y1548944D01*
X1831450Y1547544D02*
Y1549144D01*
X1831650Y1547344D02*
Y1549344D01*
X1831850Y1547144D02*
Y1549544D01*
X1832050Y1547198D02*
Y1549489D01*
X1832250Y1547398D02*
Y1549289D01*
X1832450Y1547598D02*
Y1549089D01*
X1832650Y1547798D02*
Y1548889D01*
X1832850Y1547998D02*
Y1548689D01*
X1833050Y1548198D02*
Y1548489D01*
X1834751Y1546788D02*
X1833479Y1545515D01*
X1834751Y1544243*
X1836024Y1545515*
X1834751Y1546788*
Y1544243D02*
X1834751D01*
X1834551Y1544443D02*
X1834951D01*
X1834351Y1544643D02*
X1835151D01*
X1834151Y1544843D02*
X1835351D01*
X1833951Y1545043D02*
X1835551D01*
X1833751Y1545243D02*
X1835751D01*
X1833551Y1545443D02*
X1835951D01*
X1833606Y1545643D02*
X1835897D01*
X1833806Y1545843D02*
X1835697D01*
X1834006Y1546043D02*
X1835497D01*
X1834206Y1546243D02*
X1835297D01*
X1834406Y1546443D02*
X1835097D01*
X1834606Y1546643D02*
X1834897D01*
X1833479Y1545515D02*
X1833479D01*
X1833679Y1545315D02*
Y1545715D01*
X1833879Y1545115D02*
Y1545915D01*
X1834079Y1544915D02*
Y1546115D01*
X1834279Y1544715D02*
Y1546315D01*
X1834479Y1544515D02*
Y1546515D01*
X1834679Y1544315D02*
Y1546715D01*
X1834879Y1544370D02*
Y1546661D01*
X1835079Y1544570D02*
Y1546461D01*
X1835279Y1544770D02*
Y1546261D01*
X1835479Y1544970D02*
Y1546061D01*
X1835679Y1545170D02*
Y1545861D01*
X1835879Y1545370D02*
Y1545661D01*
X1843825Y1555855D02*
X1842553Y1554582D01*
X1843825Y1553310*
X1845098Y1554582*
X1843825Y1555855*
Y1553310D02*
X1843825D01*
X1843625Y1553510D02*
X1844025D01*
X1843425Y1553710D02*
X1844225D01*
X1843225Y1553910D02*
X1844425D01*
X1843025Y1554110D02*
X1844625D01*
X1842825Y1554310D02*
X1844825D01*
X1842625Y1554510D02*
X1845025D01*
X1842680Y1554710D02*
X1844971D01*
X1842880Y1554910D02*
X1844771D01*
X1843080Y1555110D02*
X1844571D01*
X1843280Y1555310D02*
X1844371D01*
X1843480Y1555510D02*
X1844171D01*
X1843680Y1555710D02*
X1843971D01*
X1842553Y1554582D02*
X1842553D01*
X1842753Y1554382D02*
Y1554782D01*
X1842953Y1554182D02*
Y1554982D01*
X1843153Y1553982D02*
Y1555182D01*
X1843353Y1553782D02*
Y1555382D01*
X1843553Y1553582D02*
Y1555582D01*
X1843753Y1553382D02*
Y1555782D01*
X1843953Y1553437D02*
Y1555728D01*
X1844153Y1553637D02*
Y1555528D01*
X1844353Y1553837D02*
Y1555328D01*
X1844553Y1554037D02*
Y1555128D01*
X1844753Y1554237D02*
Y1554928D01*
X1844953Y1554437D02*
Y1554728D01*
X1840997Y1558684D02*
X1839724Y1557411D01*
X1840997Y1556138*
X1842270Y1557411*
X1840997Y1558684*
Y1556138D02*
X1840997D01*
X1840797Y1556338D02*
X1841197D01*
X1840597Y1556538D02*
X1841397D01*
X1840397Y1556738D02*
X1841597D01*
X1840197Y1556938D02*
X1841797D01*
X1839997Y1557138D02*
X1841997D01*
X1839797Y1557338D02*
X1842197D01*
X1839851Y1557538D02*
X1842143D01*
X1840051Y1557738D02*
X1841943D01*
X1840251Y1557938D02*
X1841743D01*
X1840451Y1558138D02*
X1841543D01*
X1840651Y1558338D02*
X1841343D01*
X1840851Y1558538D02*
X1841143D01*
X1839724Y1557411D02*
X1839724D01*
X1839924Y1557211D02*
Y1557611D01*
X1840124Y1557011D02*
Y1557811D01*
X1840324Y1556811D02*
Y1558011D01*
X1840524Y1556611D02*
Y1558211D01*
X1840724Y1556411D02*
Y1558411D01*
X1840924Y1556211D02*
Y1558611D01*
X1841124Y1556265D02*
Y1558556D01*
X1841324Y1556465D02*
Y1558356D01*
X1841524Y1556665D02*
Y1558156D01*
X1841724Y1556865D02*
Y1557956D01*
X1841924Y1557065D02*
Y1557756D01*
X1842124Y1557265D02*
Y1557556D01*
X1857676Y1538869D02*
X1856403Y1537596D01*
X1857676Y1536323*
X1858949Y1537596*
X1857676Y1538869*
Y1536323D02*
X1857676D01*
X1857476Y1536523D02*
X1857876D01*
X1857276Y1536723D02*
X1858076D01*
X1857076Y1536923D02*
X1858276D01*
X1856876Y1537123D02*
X1858476D01*
X1856676Y1537323D02*
X1858676D01*
X1856476Y1537523D02*
X1858876D01*
X1856530Y1537723D02*
X1858821D01*
X1856730Y1537923D02*
X1858621D01*
X1856930Y1538123D02*
X1858421D01*
X1857130Y1538323D02*
X1858221D01*
X1857330Y1538523D02*
X1858021D01*
X1857530Y1538723D02*
X1857821D01*
X1856403Y1537596D02*
X1856403D01*
X1856603Y1537396D02*
Y1537796D01*
X1856803Y1537196D02*
Y1537996D01*
X1857003Y1536996D02*
Y1538196D01*
X1857203Y1536796D02*
Y1538396D01*
X1857403Y1536596D02*
Y1538596D01*
X1857603Y1536396D02*
Y1538796D01*
X1857803Y1536450D02*
Y1538741D01*
X1858003Y1536650D02*
Y1538541D01*
X1858203Y1536850D02*
Y1538341D01*
X1858403Y1537050D02*
Y1538141D01*
X1858603Y1537250D02*
Y1537941D01*
X1858803Y1537450D02*
Y1537741D01*
X1860504Y1541697D02*
X1859231Y1540424D01*
X1860504Y1539152*
X1861777Y1540424*
X1860504Y1541697*
Y1539152D02*
X1860504D01*
X1860304Y1539352D02*
X1860704D01*
X1860104Y1539552D02*
X1860904D01*
X1859904Y1539752D02*
X1861104D01*
X1859704Y1539952D02*
X1861304D01*
X1859504Y1540152D02*
X1861504D01*
X1859304Y1540352D02*
X1861704D01*
X1859359Y1540552D02*
X1861650D01*
X1859559Y1540752D02*
X1861450D01*
X1859759Y1540952D02*
X1861250D01*
X1859959Y1541152D02*
X1861050D01*
X1860159Y1541352D02*
X1860850D01*
X1860359Y1541552D02*
X1860650D01*
X1859231Y1540424D02*
X1859231D01*
X1859431Y1540224D02*
Y1540624D01*
X1859631Y1540024D02*
Y1540824D01*
X1859831Y1539824D02*
Y1541024D01*
X1860031Y1539624D02*
Y1541224D01*
X1860231Y1539424D02*
Y1541424D01*
X1860431Y1539224D02*
Y1541624D01*
X1860631Y1539279D02*
Y1541570D01*
X1860831Y1539479D02*
Y1541370D01*
X1861031Y1539679D02*
Y1541170D01*
X1861231Y1539879D02*
Y1540970D01*
X1861431Y1540079D02*
Y1540770D01*
X1861631Y1540279D02*
Y1540570D01*
X1866991Y1540468D02*
X1865718Y1539195D01*
X1866991Y1537922*
X1868264Y1539195*
X1866991Y1540468*
Y1537922D02*
X1866991D01*
X1866791Y1538122D02*
X1867191D01*
X1866591Y1538322D02*
X1867391D01*
X1866391Y1538522D02*
X1867591D01*
X1866191Y1538722D02*
X1867791D01*
X1865991Y1538922D02*
X1867991D01*
X1865791Y1539122D02*
X1868191D01*
X1865845Y1539322D02*
X1868136D01*
X1866045Y1539522D02*
X1867936D01*
X1866245Y1539722D02*
X1867736D01*
X1866445Y1539922D02*
X1867536D01*
X1866645Y1540122D02*
X1867336D01*
X1866845Y1540322D02*
X1867136D01*
X1865718Y1539195D02*
X1865718D01*
X1865918Y1538995D02*
Y1539395D01*
X1866118Y1538795D02*
Y1539595D01*
X1866318Y1538595D02*
Y1539795D01*
X1866518Y1538395D02*
Y1539995D01*
X1866718Y1538195D02*
Y1540195D01*
X1866918Y1537995D02*
Y1540395D01*
X1867118Y1538049D02*
Y1540340D01*
X1867318Y1538249D02*
Y1540140D01*
X1867518Y1538449D02*
Y1539940D01*
X1867718Y1538649D02*
Y1539740D01*
X1867918Y1538849D02*
Y1539540D01*
X1868118Y1539049D02*
Y1539340D01*
X1869819Y1543296D02*
X1868546Y1542023D01*
X1869819Y1540750*
X1871092Y1542023*
X1869819Y1543296*
Y1540750D02*
X1869819D01*
X1869619Y1540950D02*
X1870019D01*
X1869419Y1541150D02*
X1870219D01*
X1869219Y1541350D02*
X1870419D01*
X1869019Y1541550D02*
X1870619D01*
X1868819Y1541750D02*
X1870819D01*
X1868619Y1541950D02*
X1871019D01*
X1868674Y1542150D02*
X1870965D01*
X1868874Y1542350D02*
X1870765D01*
X1869074Y1542550D02*
X1870565D01*
X1869274Y1542750D02*
X1870365D01*
X1869474Y1542950D02*
X1870165D01*
X1869674Y1543150D02*
X1869965D01*
X1868546Y1542023D02*
X1868546D01*
X1868746Y1541823D02*
Y1542223D01*
X1868946Y1541623D02*
Y1542423D01*
X1869146Y1541423D02*
Y1542623D01*
X1869346Y1541223D02*
Y1542823D01*
X1869546Y1541023D02*
Y1543023D01*
X1869746Y1540823D02*
Y1543223D01*
X1869946Y1540878D02*
Y1543169D01*
X1870146Y1541078D02*
Y1542969D01*
X1870346Y1541278D02*
Y1542769D01*
X1870546Y1541478D02*
Y1542569D01*
X1870746Y1541678D02*
Y1542369D01*
X1870946Y1541878D02*
Y1542169D01*
X1838319Y1517968D02*
X1837046Y1516695D01*
X1838319Y1515422*
X1839592Y1516695*
X1838319Y1517968*
Y1515422D02*
X1838319D01*
X1838119Y1515622D02*
X1838519D01*
X1837919Y1515822D02*
X1838719D01*
X1837719Y1516022D02*
X1838919D01*
X1837519Y1516222D02*
X1839119D01*
X1837319Y1516422D02*
X1839319D01*
X1837119Y1516622D02*
X1839519D01*
X1837174Y1516822D02*
X1839465D01*
X1837374Y1517022D02*
X1839265D01*
X1837574Y1517222D02*
X1839065D01*
X1837774Y1517422D02*
X1838865D01*
X1837974Y1517622D02*
X1838665D01*
X1838174Y1517822D02*
X1838465D01*
X1837046Y1516695D02*
X1837046D01*
X1837246Y1516495D02*
Y1516895D01*
X1837446Y1516295D02*
Y1517095D01*
X1837646Y1516095D02*
Y1517295D01*
X1837846Y1515895D02*
Y1517495D01*
X1838046Y1515695D02*
Y1517695D01*
X1838246Y1515495D02*
Y1517895D01*
X1838446Y1515549D02*
Y1517840D01*
X1838646Y1515749D02*
Y1517640D01*
X1838846Y1515949D02*
Y1517440D01*
X1839046Y1516149D02*
Y1517240D01*
X1839246Y1516349D02*
Y1517040D01*
X1839446Y1516549D02*
Y1516840D01*
X1835491Y1520796D02*
X1834218Y1519523D01*
X1835491Y1518250*
X1836764Y1519523*
X1835491Y1520796*
Y1518250D02*
X1835491D01*
X1835291Y1518450D02*
X1835691D01*
X1835091Y1518650D02*
X1835891D01*
X1834891Y1518850D02*
X1836091D01*
X1834691Y1519050D02*
X1836291D01*
X1834491Y1519250D02*
X1836491D01*
X1834291Y1519450D02*
X1836691D01*
X1834345Y1519650D02*
X1836636D01*
X1834545Y1519850D02*
X1836436D01*
X1834745Y1520050D02*
X1836236D01*
X1834945Y1520250D02*
X1836036D01*
X1835145Y1520450D02*
X1835836D01*
X1835345Y1520650D02*
X1835636D01*
X1834218Y1519523D02*
X1834218D01*
X1834418Y1519323D02*
Y1519723D01*
X1834618Y1519123D02*
Y1519923D01*
X1834818Y1518923D02*
Y1520123D01*
X1835018Y1518723D02*
Y1520323D01*
X1835218Y1518523D02*
Y1520523D01*
X1835418Y1518323D02*
Y1520723D01*
X1835618Y1518378D02*
Y1520669D01*
X1835818Y1518578D02*
Y1520469D01*
X1836018Y1518778D02*
Y1520269D01*
X1836218Y1518978D02*
Y1520069D01*
X1836418Y1519178D02*
Y1519869D01*
X1836618Y1519378D02*
Y1519669D01*
X1855153Y1528103D02*
X1853880Y1526830D01*
X1855153Y1525558*
X1856425Y1526830*
X1855153Y1528103*
Y1525558D02*
X1855153D01*
X1854953Y1525758D02*
X1855353D01*
X1854753Y1525958D02*
X1855553D01*
X1854553Y1526158D02*
X1855753D01*
X1854353Y1526358D02*
X1855953D01*
X1854153Y1526558D02*
X1856153D01*
X1853953Y1526758D02*
X1856353D01*
X1854007Y1526958D02*
X1856298D01*
X1854207Y1527158D02*
X1856098D01*
X1854407Y1527358D02*
X1855898D01*
X1854607Y1527558D02*
X1855698D01*
X1854807Y1527758D02*
X1855498D01*
X1855007Y1527958D02*
X1855298D01*
X1853880Y1526830D02*
X1853880D01*
X1854080Y1526630D02*
Y1527030D01*
X1854280Y1526430D02*
Y1527230D01*
X1854480Y1526230D02*
Y1527430D01*
X1854680Y1526030D02*
Y1527630D01*
X1854880Y1525830D02*
Y1527830D01*
X1855080Y1525630D02*
Y1528030D01*
X1855280Y1525685D02*
Y1527976D01*
X1855480Y1525885D02*
Y1527776D01*
X1855680Y1526085D02*
Y1527576D01*
X1855880Y1526285D02*
Y1527376D01*
X1856080Y1526485D02*
Y1527176D01*
X1856280Y1526685D02*
Y1526976D01*
X1852324Y1530932D02*
X1851051Y1529659D01*
X1852324Y1528386*
X1853597Y1529659*
X1852324Y1530932*
Y1528386D02*
X1852324D01*
X1852124Y1528586D02*
X1852524D01*
X1851924Y1528786D02*
X1852724D01*
X1851724Y1528986D02*
X1852924D01*
X1851524Y1529186D02*
X1853124D01*
X1851324Y1529386D02*
X1853324D01*
X1851124Y1529586D02*
X1853524D01*
X1851179Y1529786D02*
X1853470D01*
X1851379Y1529986D02*
X1853270D01*
X1851579Y1530186D02*
X1853070D01*
X1851779Y1530386D02*
X1852870D01*
X1851979Y1530586D02*
X1852670D01*
X1852179Y1530786D02*
X1852470D01*
X1851051Y1529659D02*
X1851051D01*
X1851251Y1529459D02*
Y1529859D01*
X1851451Y1529259D02*
Y1530059D01*
X1851651Y1529059D02*
Y1530259D01*
X1851851Y1528859D02*
Y1530459D01*
X1852051Y1528659D02*
Y1530659D01*
X1852251Y1528459D02*
Y1530859D01*
X1852451Y1528513D02*
Y1530804D01*
X1852651Y1528713D02*
Y1530604D01*
X1852851Y1528913D02*
Y1530404D01*
X1853051Y1529113D02*
Y1530204D01*
X1853251Y1529313D02*
Y1530004D01*
X1853451Y1529513D02*
Y1529804D01*
X1853761Y1548441D02*
X1852488Y1547168D01*
X1853761Y1545895*
X1855033Y1547168*
X1853761Y1548441*
Y1545895D02*
X1853761D01*
X1853561Y1546095D02*
X1853961D01*
X1853361Y1546295D02*
X1854161D01*
X1853161Y1546495D02*
X1854361D01*
X1852961Y1546695D02*
X1854561D01*
X1852761Y1546895D02*
X1854761D01*
X1852561Y1547095D02*
X1854961D01*
X1852615Y1547295D02*
X1854906D01*
X1852815Y1547495D02*
X1854706D01*
X1853015Y1547695D02*
X1854506D01*
X1853215Y1547895D02*
X1854306D01*
X1853415Y1548095D02*
X1854106D01*
X1853615Y1548295D02*
X1853906D01*
X1852488Y1547168D02*
X1852488D01*
X1852688Y1546968D02*
Y1547368D01*
X1852888Y1546768D02*
Y1547568D01*
X1853088Y1546568D02*
Y1547768D01*
X1853288Y1546368D02*
Y1547968D01*
X1853488Y1546168D02*
Y1548168D01*
X1853688Y1545968D02*
Y1548368D01*
X1853888Y1546022D02*
Y1548314D01*
X1854088Y1546222D02*
Y1548114D01*
X1854288Y1546422D02*
Y1547914D01*
X1854488Y1546622D02*
Y1547714D01*
X1854688Y1546822D02*
Y1547514D01*
X1854888Y1547022D02*
Y1547314D01*
X1850932Y1545612D02*
X1849659Y1544339D01*
X1849659D02*
X1850932Y1543067D01*
X1852205Y1544339*
X1852205D02*
X1850932Y1545612D01*
Y1543067D02*
X1850932D01*
X1850732Y1543267D02*
X1851132D01*
X1850532Y1543467D02*
X1851332D01*
X1850332Y1543667D02*
X1851532D01*
X1850132Y1543867D02*
X1851732D01*
X1849932Y1544067D02*
X1851932D01*
X1849732Y1544267D02*
X1852132D01*
X1849787Y1544467D02*
X1852078D01*
X1849987Y1544667D02*
X1851878D01*
X1850187Y1544867D02*
X1851678D01*
X1850387Y1545067D02*
X1851478D01*
X1850587Y1545267D02*
X1851278D01*
X1850787Y1545467D02*
X1851078D01*
X1849659Y1544339D02*
X1849659D01*
X1849859Y1544139D02*
Y1544540D01*
X1850059Y1543939D02*
Y1544740D01*
X1850259Y1543739D02*
Y1544940D01*
X1850459Y1543539D02*
Y1545140D01*
X1850659Y1543339D02*
Y1545340D01*
X1850859Y1543139D02*
Y1545540D01*
X1851059Y1543194D02*
Y1545485D01*
X1851259Y1543394D02*
Y1545285D01*
X1851459Y1543594D02*
Y1545085D01*
X1851659Y1543794D02*
Y1544885D01*
X1851859Y1543994D02*
Y1544685D01*
X1852059Y1544194D02*
Y1544485D01*
X1844491Y1562296D02*
X1843218Y1561023D01*
X1844491Y1559750*
X1845764Y1561023*
X1844491Y1562296*
Y1559750D02*
X1844491D01*
X1844291Y1559950D02*
X1844691D01*
X1844091Y1560150D02*
X1844891D01*
X1843891Y1560350D02*
X1845091D01*
X1843691Y1560550D02*
X1845291D01*
X1843491Y1560750D02*
X1845491D01*
X1843291Y1560950D02*
X1845691D01*
X1843345Y1561150D02*
X1845636D01*
X1843545Y1561350D02*
X1845436D01*
X1843745Y1561550D02*
X1845236D01*
X1843945Y1561750D02*
X1845036D01*
X1844145Y1561950D02*
X1844836D01*
X1844345Y1562150D02*
X1844636D01*
X1843218Y1561023D02*
X1843218D01*
X1843418Y1560823D02*
Y1561223D01*
X1843618Y1560623D02*
Y1561423D01*
X1843818Y1560423D02*
Y1561623D01*
X1844018Y1560223D02*
Y1561823D01*
X1844218Y1560023D02*
Y1562023D01*
X1844418Y1559823D02*
Y1562223D01*
X1844618Y1559878D02*
Y1562169D01*
X1844818Y1560078D02*
Y1561969D01*
X1845018Y1560278D02*
Y1561769D01*
X1845218Y1560478D02*
Y1561569D01*
X1845418Y1560678D02*
Y1561369D01*
X1845618Y1560878D02*
Y1561169D01*
X1847319Y1559468D02*
X1846046Y1558195D01*
X1847319Y1556922*
X1848592Y1558195*
X1847319Y1559468*
Y1556922D02*
X1847319D01*
X1847119Y1557122D02*
X1847519D01*
X1846919Y1557322D02*
X1847719D01*
X1846719Y1557522D02*
X1847919D01*
X1846519Y1557722D02*
X1848119D01*
X1846319Y1557922D02*
X1848319D01*
X1846119Y1558122D02*
X1848519D01*
X1846174Y1558322D02*
X1848465D01*
X1846374Y1558522D02*
X1848265D01*
X1846574Y1558722D02*
X1848065D01*
X1846774Y1558922D02*
X1847865D01*
X1846974Y1559122D02*
X1847665D01*
X1847174Y1559322D02*
X1847465D01*
X1846046Y1558195D02*
X1846046D01*
X1846246Y1557995D02*
Y1558395D01*
X1846446Y1557795D02*
Y1558595D01*
X1846646Y1557595D02*
Y1558795D01*
X1846846Y1557395D02*
Y1558995D01*
X1847046Y1557195D02*
Y1559195D01*
X1847246Y1556995D02*
Y1559395D01*
X1847446Y1557049D02*
Y1559340D01*
X1847646Y1557249D02*
Y1559140D01*
X1847846Y1557449D02*
Y1558940D01*
X1848046Y1557649D02*
Y1558740D01*
X1848246Y1557849D02*
Y1558540D01*
X1848446Y1558049D02*
Y1558340D01*
X1822071Y1540265D02*
X1820799Y1538992D01*
X1822071Y1537719*
X1823344Y1538992*
X1822071Y1540265*
Y1537719D02*
X1822071D01*
X1821871Y1537919D02*
X1822271D01*
X1821671Y1538119D02*
X1822471D01*
X1821471Y1538319D02*
X1822671D01*
X1821271Y1538519D02*
X1822871D01*
X1821071Y1538719D02*
X1823071D01*
X1820871Y1538919D02*
X1823271D01*
X1820926Y1539119D02*
X1823217D01*
X1821126Y1539319D02*
X1823017D01*
X1821326Y1539519D02*
X1822817D01*
X1821526Y1539719D02*
X1822617D01*
X1821726Y1539919D02*
X1822417D01*
X1821926Y1540119D02*
X1822217D01*
X1820799Y1538992D02*
X1820799D01*
X1820999Y1538792D02*
Y1539192D01*
X1821199Y1538592D02*
Y1539392D01*
X1821399Y1538392D02*
Y1539592D01*
X1821599Y1538192D02*
Y1539792D01*
X1821799Y1537992D02*
Y1539992D01*
X1821999Y1537792D02*
Y1540192D01*
X1822199Y1537847D02*
Y1540138D01*
X1822399Y1538047D02*
Y1539938D01*
X1822599Y1538247D02*
Y1539738D01*
X1822799Y1538447D02*
Y1539538D01*
X1822999Y1538647D02*
Y1539338D01*
X1823199Y1538847D02*
Y1539138D01*
X1824900Y1537436D02*
X1823627Y1536164D01*
X1824900Y1534891*
X1826173Y1536164*
X1824900Y1537436*
Y1534891D02*
X1824900D01*
X1824700Y1535091D02*
X1825100D01*
X1824500Y1535291D02*
X1825300D01*
X1824300Y1535491D02*
X1825500D01*
X1824100Y1535691D02*
X1825700D01*
X1823900Y1535891D02*
X1825900D01*
X1823700Y1536091D02*
X1826100D01*
X1823754Y1536291D02*
X1826045D01*
X1823954Y1536491D02*
X1825845D01*
X1824154Y1536691D02*
X1825645D01*
X1824354Y1536891D02*
X1825445D01*
X1824554Y1537091D02*
X1825245D01*
X1824754Y1537291D02*
X1825045D01*
X1823627Y1536164D02*
X1823627D01*
X1823827Y1535964D02*
Y1536364D01*
X1824027Y1535764D02*
Y1536564D01*
X1824227Y1535564D02*
Y1536764D01*
X1824427Y1535364D02*
Y1536964D01*
X1824627Y1535164D02*
Y1537164D01*
X1824827Y1534964D02*
Y1537364D01*
X1825027Y1535018D02*
Y1537309D01*
X1825227Y1535218D02*
Y1537109D01*
X1825427Y1535418D02*
Y1536909D01*
X1825627Y1535618D02*
Y1536709D01*
X1825827Y1535818D02*
Y1536509D01*
X1826027Y1536018D02*
Y1536309D01*
X1852819Y1514968D02*
X1851546Y1513695D01*
X1852819Y1512422*
X1854092Y1513695*
X1852819Y1514968*
Y1512422D02*
X1852819D01*
X1852619Y1512622D02*
X1853019D01*
X1852419Y1512822D02*
X1853219D01*
X1852219Y1513022D02*
X1853419D01*
X1852019Y1513222D02*
X1853619D01*
X1851819Y1513422D02*
X1853819D01*
X1851619Y1513622D02*
X1854019D01*
X1851674Y1513822D02*
X1853965D01*
X1851874Y1514022D02*
X1853765D01*
X1852074Y1514222D02*
X1853565D01*
X1852274Y1514422D02*
X1853365D01*
X1852474Y1514622D02*
X1853165D01*
X1852674Y1514822D02*
X1852965D01*
X1851546Y1513695D02*
X1851546D01*
X1851746Y1513495D02*
Y1513895D01*
X1851946Y1513295D02*
Y1514095D01*
X1852146Y1513095D02*
Y1514295D01*
X1852346Y1512895D02*
Y1514495D01*
X1852546Y1512695D02*
Y1514695D01*
X1852746Y1512495D02*
Y1514895D01*
X1852946Y1512549D02*
Y1514840D01*
X1853146Y1512749D02*
Y1514640D01*
X1853346Y1512949D02*
Y1514440D01*
X1853546Y1513149D02*
Y1514240D01*
X1853746Y1513349D02*
Y1514040D01*
X1853946Y1513549D02*
Y1513840D01*
X1849991Y1517796D02*
X1848718Y1516523D01*
X1849991Y1515250*
X1851264Y1516523*
X1849991Y1517796*
Y1515250D02*
X1849991D01*
X1849791Y1515450D02*
X1850191D01*
X1849591Y1515650D02*
X1850391D01*
X1849391Y1515850D02*
X1850591D01*
X1849191Y1516050D02*
X1850791D01*
X1848991Y1516250D02*
X1850991D01*
X1848791Y1516450D02*
X1851191D01*
X1848845Y1516650D02*
X1851136D01*
X1849045Y1516850D02*
X1850936D01*
X1849245Y1517050D02*
X1850736D01*
X1849445Y1517250D02*
X1850536D01*
X1849645Y1517450D02*
X1850336D01*
X1849845Y1517650D02*
X1850136D01*
X1848718Y1516523D02*
X1848718D01*
X1848918Y1516323D02*
Y1516723D01*
X1849118Y1516123D02*
Y1516923D01*
X1849318Y1515923D02*
Y1517123D01*
X1849518Y1515723D02*
Y1517323D01*
X1849718Y1515523D02*
Y1517523D01*
X1849918Y1515323D02*
Y1517723D01*
X1850118Y1515378D02*
Y1517669D01*
X1850318Y1515578D02*
Y1517469D01*
X1850518Y1515778D02*
Y1517269D01*
X1850718Y1515978D02*
Y1517069D01*
X1850918Y1516178D02*
Y1516869D01*
X1851118Y1516378D02*
Y1516669D01*
X1838378Y1556119D02*
X1837105Y1554846D01*
X1838378Y1553573*
X1839651Y1554846*
X1838378Y1556119*
Y1553573D02*
X1838378D01*
X1838178Y1553773D02*
X1838578D01*
X1837978Y1553973D02*
X1838778D01*
X1837778Y1554173D02*
X1838978D01*
X1837578Y1554373D02*
X1839178D01*
X1837378Y1554573D02*
X1839378D01*
X1837178Y1554773D02*
X1839578D01*
X1837232Y1554973D02*
X1839524D01*
X1837432Y1555173D02*
X1839324D01*
X1837632Y1555373D02*
X1839124D01*
X1837832Y1555573D02*
X1838924D01*
X1838032Y1555773D02*
X1838724D01*
X1838232Y1555973D02*
X1838524D01*
X1837105Y1554846D02*
X1837105D01*
X1837305Y1554646D02*
Y1555046D01*
X1837505Y1554446D02*
Y1555246D01*
X1837705Y1554246D02*
Y1555446D01*
X1837905Y1554046D02*
Y1555646D01*
X1838105Y1553846D02*
Y1555846D01*
X1838305Y1553646D02*
Y1556046D01*
X1838505Y1553700D02*
Y1555991D01*
X1838705Y1553900D02*
Y1555791D01*
X1838905Y1554100D02*
Y1555591D01*
X1839105Y1554300D02*
Y1555391D01*
X1839305Y1554500D02*
Y1555191D01*
X1839505Y1554700D02*
Y1554991D01*
X1841206Y1553290D02*
X1839934Y1552017D01*
X1841206Y1550745*
X1842479Y1552017*
X1841206Y1553290*
Y1550745D02*
X1841206D01*
X1841006Y1550945D02*
X1841406D01*
X1840806Y1551145D02*
X1841606D01*
X1840606Y1551345D02*
X1841806D01*
X1840406Y1551545D02*
X1842006D01*
X1840206Y1551745D02*
X1842206D01*
X1840006Y1551945D02*
X1842406D01*
X1840061Y1552145D02*
X1842352D01*
X1840261Y1552345D02*
X1842152D01*
X1840461Y1552545D02*
X1841952D01*
X1840661Y1552745D02*
X1841752D01*
X1840861Y1552945D02*
X1841552D01*
X1841061Y1553145D02*
X1841352D01*
X1839934Y1552017D02*
X1839934D01*
X1840134Y1551817D02*
Y1552217D01*
X1840334Y1551617D02*
Y1552417D01*
X1840534Y1551417D02*
Y1552617D01*
X1840734Y1551217D02*
Y1552817D01*
X1840934Y1551017D02*
Y1553017D01*
X1841134Y1550817D02*
Y1553217D01*
X1841334Y1550872D02*
Y1553163D01*
X1841534Y1551072D02*
Y1552963D01*
X1841734Y1551272D02*
Y1552763D01*
X1841934Y1551472D02*
Y1552563D01*
X1842134Y1551672D02*
Y1552363D01*
X1842334Y1551872D02*
Y1552163D01*
X1832251Y1544288D02*
X1830979Y1543015D01*
X1832251Y1541743*
X1833524Y1543015*
X1832251Y1544288*
Y1541743D02*
X1832251D01*
X1832051Y1541943D02*
X1832451D01*
X1831851Y1542143D02*
X1832651D01*
X1831651Y1542343D02*
X1832851D01*
X1831451Y1542543D02*
X1833051D01*
X1831251Y1542743D02*
X1833251D01*
X1831051Y1542943D02*
X1833451D01*
X1831106Y1543143D02*
X1833397D01*
X1831306Y1543343D02*
X1833197D01*
X1831506Y1543543D02*
X1832997D01*
X1831706Y1543743D02*
X1832797D01*
X1831906Y1543943D02*
X1832597D01*
X1832106Y1544143D02*
X1832397D01*
X1830979Y1543015D02*
X1830979D01*
X1831179Y1542815D02*
Y1543215D01*
X1831379Y1542615D02*
Y1543415D01*
X1831579Y1542415D02*
Y1543615D01*
X1831779Y1542215D02*
Y1543815D01*
X1831979Y1542015D02*
Y1544015D01*
X1832179Y1541815D02*
Y1544215D01*
X1832379Y1541870D02*
Y1544161D01*
X1832579Y1542070D02*
Y1543961D01*
X1832779Y1542270D02*
Y1543761D01*
X1832979Y1542470D02*
Y1543561D01*
X1833179Y1542670D02*
Y1543361D01*
X1833379Y1542870D02*
Y1543161D01*
X1829423Y1547117D02*
X1828150Y1545844D01*
X1829423Y1544571*
X1830696Y1545844*
X1829423Y1547117*
Y1544571D02*
X1829423D01*
X1829223Y1544771D02*
X1829623D01*
X1829023Y1544971D02*
X1829823D01*
X1828823Y1545171D02*
X1830023D01*
X1828623Y1545371D02*
X1830223D01*
X1828423Y1545571D02*
X1830423D01*
X1828223Y1545771D02*
X1830623D01*
X1828277Y1545971D02*
X1830569D01*
X1828477Y1546171D02*
X1830369D01*
X1828677Y1546371D02*
X1830169D01*
X1828877Y1546571D02*
X1829969D01*
X1829077Y1546771D02*
X1829769D01*
X1829277Y1546971D02*
X1829569D01*
X1828150Y1545844D02*
X1828150D01*
X1828350Y1545644D02*
Y1546044D01*
X1828550Y1545444D02*
Y1546244D01*
X1828750Y1545244D02*
Y1546444D01*
X1828950Y1545044D02*
Y1546644D01*
X1829150Y1544844D02*
Y1546844D01*
X1829350Y1544644D02*
Y1547044D01*
X1829550Y1544698D02*
Y1546989D01*
X1829750Y1544898D02*
Y1546789D01*
X1829950Y1545098D02*
Y1546589D01*
X1830150Y1545298D02*
Y1546389D01*
X1830350Y1545498D02*
Y1546189D01*
X1830550Y1545698D02*
Y1545989D01*
X1835498Y1548665D02*
X1837902Y1551069D01*
X1835781Y1553190*
X1833376Y1550786*
X1835498Y1548665*
X1835498*
X1835298Y1548865D02*
X1835698D01*
X1835098Y1549065D02*
X1835898D01*
X1834898Y1549265D02*
X1836098D01*
X1834698Y1549465D02*
X1836298D01*
X1834498Y1549665D02*
X1836498D01*
X1834298Y1549865D02*
X1836698D01*
X1834098Y1550065D02*
X1836898D01*
X1833898Y1550265D02*
X1837098D01*
X1833698Y1550465D02*
X1837298D01*
X1833498Y1550665D02*
X1837498D01*
X1833455Y1550865D02*
X1837698D01*
X1833655Y1551065D02*
X1837898D01*
X1833855Y1551265D02*
X1837706D01*
X1834055Y1551465D02*
X1837506D01*
X1834255Y1551665D02*
X1837306D01*
X1834455Y1551865D02*
X1837106D01*
X1834655Y1552065D02*
X1836906D01*
X1834855Y1552265D02*
X1836706D01*
X1835055Y1552465D02*
X1836506D01*
X1835255Y1552665D02*
X1836306D01*
X1835455Y1552865D02*
X1836106D01*
X1835655Y1553065D02*
X1835906D01*
X1833376Y1550786D02*
X1833376D01*
X1833576Y1550586D02*
Y1550986D01*
X1833776Y1550386D02*
Y1551186D01*
X1833976Y1550186D02*
Y1551386D01*
X1834176Y1549986D02*
Y1551586D01*
X1834376Y1549786D02*
Y1551786D01*
X1834576Y1549586D02*
Y1551986D01*
X1834776Y1549386D02*
Y1552186D01*
X1834976Y1549186D02*
Y1552386D01*
X1835176Y1548986D02*
Y1552586D01*
X1835376Y1548786D02*
Y1552786D01*
X1835576Y1548744D02*
Y1552986D01*
X1835776Y1548944D02*
Y1553186D01*
X1835976Y1549144D02*
Y1552995D01*
X1836176Y1549344D02*
Y1552795D01*
X1836376Y1549544D02*
Y1552595D01*
X1836576Y1549744D02*
Y1552395D01*
X1836776Y1549944D02*
Y1552195D01*
X1836976Y1550144D02*
Y1551995D01*
X1837176Y1550344D02*
Y1551795D01*
X1837376Y1550544D02*
Y1551595D01*
X1837576Y1550744D02*
Y1551395D01*
X1837776Y1550944D02*
Y1551195D01*
X1840094Y1544069D02*
X1842498Y1546473D01*
X1840377Y1548594*
X1837973Y1546190*
X1840094Y1544069*
X1840094*
X1839894Y1544269D02*
X1840294D01*
X1839694Y1544469D02*
X1840494D01*
X1839494Y1544669D02*
X1840694D01*
X1839294Y1544869D02*
X1840894D01*
X1839094Y1545069D02*
X1841094D01*
X1838894Y1545269D02*
X1841294D01*
X1838694Y1545469D02*
X1841494D01*
X1838494Y1545669D02*
X1841694D01*
X1838294Y1545869D02*
X1841894D01*
X1838094Y1546069D02*
X1842094D01*
X1838051Y1546269D02*
X1842294D01*
X1838251Y1546469D02*
X1842494D01*
X1838451Y1546669D02*
X1842302D01*
X1838651Y1546869D02*
X1842102D01*
X1838851Y1547069D02*
X1841902D01*
X1839051Y1547269D02*
X1841702D01*
X1839251Y1547469D02*
X1841502D01*
X1839451Y1547669D02*
X1841302D01*
X1839651Y1547869D02*
X1841102D01*
X1839851Y1548069D02*
X1840902D01*
X1840051Y1548269D02*
X1840702D01*
X1840251Y1548469D02*
X1840502D01*
X1837973Y1546190D02*
X1837973D01*
X1838173Y1545990D02*
Y1546390D01*
X1838373Y1545790D02*
Y1546590D01*
X1838573Y1545590D02*
Y1546790D01*
X1838773Y1545390D02*
Y1546990D01*
X1838973Y1545190D02*
Y1547190D01*
X1839173Y1544990D02*
Y1547390D01*
X1839373Y1544790D02*
Y1547590D01*
X1839573Y1544590D02*
Y1547790D01*
X1839773Y1544390D02*
Y1547990D01*
X1839973Y1544190D02*
Y1548190D01*
X1840173Y1544147D02*
Y1548390D01*
X1840373Y1544347D02*
Y1548590D01*
X1840573Y1544547D02*
Y1548398D01*
X1840773Y1544747D02*
Y1548198D01*
X1840973Y1544947D02*
Y1547998D01*
X1841173Y1545147D02*
Y1547798D01*
X1841373Y1545347D02*
Y1547598D01*
X1841573Y1545547D02*
Y1547398D01*
X1841773Y1545747D02*
Y1547198D01*
X1841973Y1545947D02*
Y1546998D01*
X1842173Y1546147D02*
Y1546798D01*
X1842373Y1546347D02*
Y1546598D01*
X1822115Y1534652D02*
X1820843Y1533379D01*
X1822115Y1532107*
X1823388Y1533379*
X1822115Y1534652*
Y1532107D02*
X1822115D01*
X1821915Y1532307D02*
X1822315D01*
X1821715Y1532507D02*
X1822515D01*
X1821515Y1532707D02*
X1822715D01*
X1821315Y1532907D02*
X1822915D01*
X1821115Y1533107D02*
X1823115D01*
X1820915Y1533307D02*
X1823315D01*
X1820970Y1533507D02*
X1823261D01*
X1821170Y1533707D02*
X1823061D01*
X1821370Y1533907D02*
X1822861D01*
X1821570Y1534107D02*
X1822661D01*
X1821770Y1534307D02*
X1822461D01*
X1821970Y1534507D02*
X1822261D01*
X1820843Y1533379D02*
X1820843D01*
X1821043Y1533179D02*
Y1533579D01*
X1821243Y1532979D02*
Y1533779D01*
X1821443Y1532779D02*
Y1533979D01*
X1821643Y1532579D02*
Y1534179D01*
X1821843Y1532379D02*
Y1534379D01*
X1822043Y1532179D02*
Y1534579D01*
X1822243Y1532234D02*
Y1534525D01*
X1822443Y1532434D02*
Y1534325D01*
X1822643Y1532634D02*
Y1534125D01*
X1822843Y1532834D02*
Y1533925D01*
X1823043Y1533034D02*
Y1533725D01*
X1823243Y1533234D02*
Y1533525D01*
X1819287Y1537481D02*
X1818014Y1536208D01*
X1819287Y1534935*
X1820560Y1536208*
X1819287Y1537481*
Y1534935D02*
X1819287D01*
X1819087Y1535135D02*
X1819487D01*
X1818887Y1535335D02*
X1819687D01*
X1818687Y1535535D02*
X1819887D01*
X1818487Y1535735D02*
X1820087D01*
X1818287Y1535935D02*
X1820287D01*
X1818087Y1536135D02*
X1820487D01*
X1818141Y1536335D02*
X1820433D01*
X1818341Y1536535D02*
X1820233D01*
X1818541Y1536735D02*
X1820033D01*
X1818741Y1536935D02*
X1819833D01*
X1818941Y1537135D02*
X1819633D01*
X1819141Y1537335D02*
X1819433D01*
X1818014Y1536208D02*
X1818014D01*
X1818214Y1536008D02*
Y1536408D01*
X1818414Y1535808D02*
Y1536608D01*
X1818614Y1535608D02*
Y1536808D01*
X1818814Y1535408D02*
Y1537008D01*
X1819014Y1535208D02*
Y1537208D01*
X1819214Y1535008D02*
Y1537408D01*
X1819414Y1535062D02*
Y1537353D01*
X1819614Y1535262D02*
Y1537153D01*
X1819814Y1535462D02*
Y1536953D01*
X1820014Y1535662D02*
Y1536753D01*
X1820214Y1535862D02*
Y1536553D01*
X1820414Y1536062D02*
Y1536353D01*
G54D152*
X1763004Y1547565D03*
Y1520005D03*
X1777571Y1547565D03*
Y1520005D03*
G54D155*
X1952504Y1499803D03*
X1972504Y1557803D03*
G54D156*
X1938004Y1554803D03*
Y1564803D03*
Y1574803D03*
X1921032Y1515803D03*
Y1505803D03*
Y1495803D03*
X1952504Y1509803D03*
X1962504Y1499803D03*
Y1509803D03*
X1972504Y1499803D03*
Y1509803D03*
X1982504Y1499803D03*
Y1509803D03*
X1992504Y1499803D03*
Y1509803D03*
X1972504Y1567803D03*
X1982504Y1557803D03*
Y1567803D03*
X1992504Y1557803D03*
Y1567803D03*
X1922384Y1563873D03*
Y1573873D03*
G54D163*
X1787558Y1516655D03*
X1796613D03*
X1805668D03*
G54D164*
X1796613Y1493639D03*
G74*
X0Y0D02*
M02*
