M48
;FILE_FORMAT=2:4
INCH,LZ
FMAT,2
ICI,OFF
;TYPE=PLATED
T1C.009
T2C.012
T3C.015
T4C.02362
T5C.04
%
M72
G90
G93X0Y0
T1C.009F0S0
X176038Y149537
X178438Y149287
X17855Y15098
X182352Y150585
X182793Y149867
X185738Y150787
X185938Y151137
X186288Y150737
X186438Y151087
X18867Y149877
X18927Y14978
X18942Y149977
X18942Y149577
X189918Y150762
X190088Y150087
X190088Y149787
X190088Y149487
X190288Y149087
X1903Y150337
X190388Y150087
X190388Y149787
X190388Y149487
X190488Y149087
X190598Y150762
X190688Y150087
X190688Y149787
X190688Y149487
X19087Y149097
X19108Y150337
X19134Y149777
X19142Y149577
X197346Y148717
X201488Y150687
X201488Y150187
X203094Y148756
X202788Y152787
X201488Y151687
X201488Y151237
X199588Y152887
X199588Y153687
X198188Y153687
X198188Y152887
X196988Y153687
X196988Y152887
X193188Y153487
X192688Y153487
X19225Y153477
X191196Y152512
X190936Y152512
X189038Y151337
X18866Y151857
X188438Y152687
X186988Y152287
X186988Y152637
X18628Y15192
X185588Y153487
X185577Y15123
X185388Y153187
X184738Y151537
X183738Y152187
X183668Y151505
X183038Y152937
X182938Y152287
X182214Y152946
X180182Y152729
X179588Y153337
X178638Y152837
X178338Y151687
X178134Y152693
X176838Y151287
X176488Y155737
X178375Y155705
X179588Y154187
X179588Y153787
X181288Y154637
X181381Y15409
X181588Y154937
X181775Y15378
X181938Y155287
X182188Y156087
X182335Y154471
X182638Y153787
X182782Y154859
X183088Y154137
X183439Y155595
X183638Y154687
X184438Y155137
X184588Y155337
X184809Y155523
X184888Y154187
X185529Y154869
X186399Y154069
X186703Y155475
X186938Y153837
X187002Y154898
X187103Y154495
X187788Y153887
X190788Y155137
X190788Y155437
X19439Y153917
X19495Y155127
X19522Y155537
X196988Y154487
X198188Y154487
X199588Y154487
X204238Y156087
X203688Y157237
X20266Y157247
X19684Y15779
X186465Y156723
X184593Y156405
X183588Y156587
X183288Y156987
X182838Y157837
X182488Y157787
X182088Y157637
X181688Y157237
X181188Y156537
X179138Y157487
X17912Y156307
X176038Y157187
T2C.012F0S0
X18006Y154747
X19006Y153977
X190265Y157231
X202075Y152505
X20304Y156857
T3C.015F0S0
X179343Y152769
X181411Y15344
X189812Y152412
X191632Y152212
T4C.02362F0S0
X177151Y152591
X177151Y154166
X176143Y154756G85X176458Y154756
X176143Y152001G85X176458Y152001
X1776Y154756G85X177915Y154756
X1776Y152001G85X177915Y152001
T5C.04F0S0
X192103Y15058
X192103Y14958
X19525Y14998
X19525Y15098
X19625Y14998
X19625Y15098
X19725Y14998
X19725Y15098
X19825Y14998
X19825Y15098
X19925Y14998
X19925Y15098
X19925Y15578
X19925Y15678
X19825Y15578
X19825Y15678
X19725Y15678
X19725Y15578
X1938Y15648
X1938Y15748
X1938Y15548
X192238Y156387
X192238Y157387
X192103Y15158
M30
