*
*
G04 PADS VX.2 Build Number: 5060570 generated Gerber (RS-274-X) file*
G04 PC Version=2.1*
*
%IN "ESP32-PROG_V2_1207.pcb"*%
*
%MOIN*%
*
%FSLAX35Y35*%
*
*
*
*
G04 PC Standard Apertures*
*
*
G04 Thermal Relief Aperture macro.*
%AMTER*
1,1,$1,0,0*
1,0,$1-$2,0,0*
21,0,$3,$4,0,0,45*
21,0,$3,$4,0,0,135*
%
*
*
G04 Annular Aperture macro.*
%AMANN*
1,1,$1,0,0*
1,0,$2,0,0*
%
*
*
G04 Odd Aperture macro.*
%AMODD*
1,1,$1,0,0*
1,0,$1-0.005,0,0*
%
*
*
G04 PC Custom Aperture Macros*
*
*
*
*
*
*
G04 PC Aperture Table*
*
%ADD010C,0.001*%
%ADD011R,0.02X0.02*%
%ADD018R,0.032X0.036*%
%ADD055C,0.004*%
%ADD142C,0.002*%
%ADD163R,0.05512X0.07087*%
%ADD164R,0.13386X0.07087*%
*
*
*
*
G04 PC Circuitry*
G04 Layer Name ESP32-PROG_V2_1207.pcb - circuitry*
%LPD*%
*
*
G04 PC Custom Flashes*
G04 Layer Name ESP32-PROG_V2_1207.pcb - flashes*
%LPD*%
*
*
G04 PC Circuitry*
G04 Layer Name ESP32-PROG_V2_1207.pcb - circuitry*
%LPD*%
*
G54D10*
G54D11*
G01X2030372Y1572510D03*
X2034372D03*
X1972504Y1574803D03*
X1968504D03*
X1896037Y1572303D03*
X1900037D03*
X2020827Y1527803D03*
X2024827D03*
X1952405Y1492109D03*
X1956405D03*
X1955804Y1551303D03*
X1959804D03*
X1955904Y1555403D03*
X1959904D03*
G54D18*
X1799935Y1524511D03*
X1806435D03*
X1786934Y1524411D03*
X1793434D03*
G54D55*
X1767015Y1583267D02*
G75*
G03X1755204Y1571456I0J-11811D01*
G01X1767015Y1583267D02*
X2032393D01*
X2044204Y1571456D02*
G03X2032393Y1583267I-11811J-0D01*
G01X2044204Y1571456D02*
Y1496114D01*
X2032393Y1484303D02*
G03X2044204Y1496114I0J11811D01*
G01X2032393Y1484303D02*
X1767015D01*
X1755204Y1496114D02*
G03X1767015Y1484303I11811J0D01*
G01X1755204Y1496114D02*
Y1571456D01*
G54D142*
X1826598Y1539965D02*
X1829002Y1542369D01*
X1826881Y1544490*
X1824476Y1542086*
X1826598Y1539965*
X1826598*
X1826398Y1540165D02*
X1826798D01*
X1826198Y1540365D02*
X1826998D01*
X1825998Y1540565D02*
X1827198D01*
X1825798Y1540765D02*
X1827398D01*
X1825598Y1540965D02*
X1827598D01*
X1825398Y1541165D02*
X1827798D01*
X1825198Y1541365D02*
X1827998D01*
X1824998Y1541565D02*
X1828198D01*
X1824798Y1541765D02*
X1828398D01*
X1824598Y1541965D02*
X1828598D01*
X1824555Y1542165D02*
X1828798D01*
X1824755Y1542365D02*
X1828998D01*
X1824955Y1542565D02*
X1828806D01*
X1825155Y1542765D02*
X1828606D01*
X1825355Y1542965D02*
X1828406D01*
X1825555Y1543165D02*
X1828206D01*
X1825755Y1543365D02*
X1828006D01*
X1825955Y1543565D02*
X1827806D01*
X1826155Y1543765D02*
X1827606D01*
X1826355Y1543965D02*
X1827406D01*
X1826555Y1544165D02*
X1827206D01*
X1826755Y1544365D02*
X1827006D01*
X1824476Y1542086D02*
X1824476D01*
X1824676Y1541886D02*
Y1542286D01*
X1824876Y1541686D02*
Y1542486D01*
X1825076Y1541486D02*
Y1542686D01*
X1825276Y1541286D02*
Y1542886D01*
X1825476Y1541086D02*
Y1543086D01*
X1825676Y1540886D02*
Y1543286D01*
X1825876Y1540686D02*
Y1543486D01*
X1826076Y1540486D02*
Y1543686D01*
X1826276Y1540286D02*
Y1543886D01*
X1826476Y1540086D02*
Y1544086D01*
X1826676Y1540044D02*
Y1544286D01*
X1826876Y1540244D02*
Y1544486D01*
X1827076Y1540444D02*
Y1544295D01*
X1827276Y1540644D02*
Y1544095D01*
X1827476Y1540844D02*
Y1543895D01*
X1827676Y1541044D02*
Y1543695D01*
X1827876Y1541244D02*
Y1543495D01*
X1828076Y1541444D02*
Y1543295D01*
X1828276Y1541644D02*
Y1543095D01*
X1828476Y1541844D02*
Y1542895D01*
X1828676Y1542044D02*
Y1542695D01*
X1828876Y1542244D02*
Y1542495D01*
X1831194Y1535369D02*
X1833598Y1537773D01*
X1831477Y1539894*
X1829073Y1537490*
X1831194Y1535369*
X1831194*
X1830994Y1535569D02*
X1831394D01*
X1830794Y1535769D02*
X1831594D01*
X1830594Y1535969D02*
X1831794D01*
X1830394Y1536169D02*
X1831994D01*
X1830194Y1536369D02*
X1832194D01*
X1829994Y1536569D02*
X1832394D01*
X1829794Y1536769D02*
X1832594D01*
X1829594Y1536969D02*
X1832794D01*
X1829394Y1537169D02*
X1832994D01*
X1829194Y1537369D02*
X1833194D01*
X1829151Y1537569D02*
X1833394D01*
X1829351Y1537769D02*
X1833594D01*
X1829551Y1537969D02*
X1833402D01*
X1829751Y1538169D02*
X1833202D01*
X1829951Y1538369D02*
X1833002D01*
X1830151Y1538569D02*
X1832802D01*
X1830351Y1538769D02*
X1832602D01*
X1830551Y1538969D02*
X1832402D01*
X1830751Y1539169D02*
X1832202D01*
X1830951Y1539369D02*
X1832002D01*
X1831151Y1539569D02*
X1831802D01*
X1831351Y1539769D02*
X1831602D01*
X1829073Y1537490D02*
X1829073D01*
X1829273Y1537290D02*
Y1537690D01*
X1829473Y1537090D02*
Y1537890D01*
X1829673Y1536890D02*
Y1538090D01*
X1829873Y1536690D02*
Y1538290D01*
X1830073Y1536490D02*
Y1538490D01*
X1830273Y1536290D02*
Y1538690D01*
X1830473Y1536090D02*
Y1538890D01*
X1830673Y1535890D02*
Y1539090D01*
X1830873Y1535690D02*
Y1539290D01*
X1831073Y1535490D02*
Y1539490D01*
X1831273Y1535447D02*
Y1539690D01*
X1831473Y1535647D02*
Y1539890D01*
X1831673Y1535847D02*
Y1539698D01*
X1831873Y1536047D02*
Y1539498D01*
X1832073Y1536247D02*
Y1539298D01*
X1832273Y1536447D02*
Y1539098D01*
X1832473Y1536647D02*
Y1538898D01*
X1832673Y1536847D02*
Y1538698D01*
X1832873Y1537047D02*
Y1538498D01*
X1833073Y1537247D02*
Y1538298D01*
X1833273Y1537447D02*
Y1538098D01*
X1833473Y1537647D02*
Y1537898D01*
X1825287Y1531481D02*
X1824014Y1530208D01*
X1825287Y1528935*
X1826560Y1530208*
X1825287Y1531481*
Y1528935D02*
X1825287D01*
X1825087Y1529135D02*
X1825487D01*
X1824887Y1529335D02*
X1825687D01*
X1824687Y1529535D02*
X1825887D01*
X1824487Y1529735D02*
X1826087D01*
X1824287Y1529935D02*
X1826287D01*
X1824087Y1530135D02*
X1826487D01*
X1824141Y1530335D02*
X1826433D01*
X1824341Y1530535D02*
X1826233D01*
X1824541Y1530735D02*
X1826033D01*
X1824741Y1530935D02*
X1825833D01*
X1824941Y1531135D02*
X1825633D01*
X1825141Y1531335D02*
X1825433D01*
X1824014Y1530208D02*
X1824014D01*
X1824214Y1530008D02*
Y1530408D01*
X1824414Y1529808D02*
Y1530608D01*
X1824614Y1529608D02*
Y1530808D01*
X1824814Y1529408D02*
Y1531008D01*
X1825014Y1529208D02*
Y1531208D01*
X1825214Y1529008D02*
Y1531408D01*
X1825414Y1529062D02*
Y1531353D01*
X1825614Y1529262D02*
Y1531153D01*
X1825814Y1529462D02*
Y1530953D01*
X1826014Y1529662D02*
Y1530753D01*
X1826214Y1529862D02*
Y1530553D01*
X1826414Y1530062D02*
Y1530353D01*
X1828115Y1528652D02*
X1826843Y1527379D01*
X1828115Y1526107*
X1829388Y1527379*
X1828115Y1528652*
Y1526107D02*
X1828115D01*
X1827915Y1526307D02*
X1828315D01*
X1827715Y1526507D02*
X1828515D01*
X1827515Y1526707D02*
X1828715D01*
X1827315Y1526907D02*
X1828915D01*
X1827115Y1527107D02*
X1829115D01*
X1826915Y1527307D02*
X1829315D01*
X1826970Y1527507D02*
X1829261D01*
X1827170Y1527707D02*
X1829061D01*
X1827370Y1527907D02*
X1828861D01*
X1827570Y1528107D02*
X1828661D01*
X1827770Y1528307D02*
X1828461D01*
X1827970Y1528507D02*
X1828261D01*
X1826843Y1527379D02*
X1826843D01*
X1827043Y1527179D02*
Y1527579D01*
X1827243Y1526979D02*
Y1527779D01*
X1827443Y1526779D02*
Y1527979D01*
X1827643Y1526579D02*
Y1528179D01*
X1827843Y1526379D02*
Y1528379D01*
X1828043Y1526179D02*
Y1528579D01*
X1828243Y1526234D02*
Y1528525D01*
X1828443Y1526434D02*
Y1528325D01*
X1828643Y1526634D02*
Y1528125D01*
X1828843Y1526834D02*
Y1527925D01*
X1829043Y1527034D02*
Y1527725D01*
X1829243Y1527234D02*
Y1527525D01*
X1831923Y1549617D02*
X1830650Y1548344D01*
X1831923Y1547071*
X1833196Y1548344*
X1831923Y1549617*
Y1547071D02*
X1831923D01*
X1831723Y1547271D02*
X1832123D01*
X1831523Y1547471D02*
X1832323D01*
X1831323Y1547671D02*
X1832523D01*
X1831123Y1547871D02*
X1832723D01*
X1830923Y1548071D02*
X1832923D01*
X1830723Y1548271D02*
X1833123D01*
X1830777Y1548471D02*
X1833069D01*
X1830977Y1548671D02*
X1832869D01*
X1831177Y1548871D02*
X1832669D01*
X1831377Y1549071D02*
X1832469D01*
X1831577Y1549271D02*
X1832269D01*
X1831777Y1549471D02*
X1832069D01*
X1830650Y1548344D02*
X1830650D01*
X1830850Y1548144D02*
Y1548544D01*
X1831050Y1547944D02*
Y1548744D01*
X1831250Y1547744D02*
Y1548944D01*
X1831450Y1547544D02*
Y1549144D01*
X1831650Y1547344D02*
Y1549344D01*
X1831850Y1547144D02*
Y1549544D01*
X1832050Y1547198D02*
Y1549489D01*
X1832250Y1547398D02*
Y1549289D01*
X1832450Y1547598D02*
Y1549089D01*
X1832650Y1547798D02*
Y1548889D01*
X1832850Y1547998D02*
Y1548689D01*
X1833050Y1548198D02*
Y1548489D01*
X1834751Y1546788D02*
X1833479Y1545515D01*
X1834751Y1544243*
X1836024Y1545515*
X1834751Y1546788*
Y1544243D02*
X1834751D01*
X1834551Y1544443D02*
X1834951D01*
X1834351Y1544643D02*
X1835151D01*
X1834151Y1544843D02*
X1835351D01*
X1833951Y1545043D02*
X1835551D01*
X1833751Y1545243D02*
X1835751D01*
X1833551Y1545443D02*
X1835951D01*
X1833606Y1545643D02*
X1835897D01*
X1833806Y1545843D02*
X1835697D01*
X1834006Y1546043D02*
X1835497D01*
X1834206Y1546243D02*
X1835297D01*
X1834406Y1546443D02*
X1835097D01*
X1834606Y1546643D02*
X1834897D01*
X1833479Y1545515D02*
X1833479D01*
X1833679Y1545315D02*
Y1545715D01*
X1833879Y1545115D02*
Y1545915D01*
X1834079Y1544915D02*
Y1546115D01*
X1834279Y1544715D02*
Y1546315D01*
X1834479Y1544515D02*
Y1546515D01*
X1834679Y1544315D02*
Y1546715D01*
X1834879Y1544370D02*
Y1546661D01*
X1835079Y1544570D02*
Y1546461D01*
X1835279Y1544770D02*
Y1546261D01*
X1835479Y1544970D02*
Y1546061D01*
X1835679Y1545170D02*
Y1545861D01*
X1835879Y1545370D02*
Y1545661D01*
X1843825Y1555855D02*
X1842553Y1554582D01*
X1843825Y1553310*
X1845098Y1554582*
X1843825Y1555855*
Y1553310D02*
X1843825D01*
X1843625Y1553510D02*
X1844025D01*
X1843425Y1553710D02*
X1844225D01*
X1843225Y1553910D02*
X1844425D01*
X1843025Y1554110D02*
X1844625D01*
X1842825Y1554310D02*
X1844825D01*
X1842625Y1554510D02*
X1845025D01*
X1842680Y1554710D02*
X1844971D01*
X1842880Y1554910D02*
X1844771D01*
X1843080Y1555110D02*
X1844571D01*
X1843280Y1555310D02*
X1844371D01*
X1843480Y1555510D02*
X1844171D01*
X1843680Y1555710D02*
X1843971D01*
X1842553Y1554582D02*
X1842553D01*
X1842753Y1554382D02*
Y1554782D01*
X1842953Y1554182D02*
Y1554982D01*
X1843153Y1553982D02*
Y1555182D01*
X1843353Y1553782D02*
Y1555382D01*
X1843553Y1553582D02*
Y1555582D01*
X1843753Y1553382D02*
Y1555782D01*
X1843953Y1553437D02*
Y1555728D01*
X1844153Y1553637D02*
Y1555528D01*
X1844353Y1553837D02*
Y1555328D01*
X1844553Y1554037D02*
Y1555128D01*
X1844753Y1554237D02*
Y1554928D01*
X1844953Y1554437D02*
Y1554728D01*
X1840997Y1558684D02*
X1839724Y1557411D01*
X1840997Y1556138*
X1842270Y1557411*
X1840997Y1558684*
Y1556138D02*
X1840997D01*
X1840797Y1556338D02*
X1841197D01*
X1840597Y1556538D02*
X1841397D01*
X1840397Y1556738D02*
X1841597D01*
X1840197Y1556938D02*
X1841797D01*
X1839997Y1557138D02*
X1841997D01*
X1839797Y1557338D02*
X1842197D01*
X1839851Y1557538D02*
X1842143D01*
X1840051Y1557738D02*
X1841943D01*
X1840251Y1557938D02*
X1841743D01*
X1840451Y1558138D02*
X1841543D01*
X1840651Y1558338D02*
X1841343D01*
X1840851Y1558538D02*
X1841143D01*
X1839724Y1557411D02*
X1839724D01*
X1839924Y1557211D02*
Y1557611D01*
X1840124Y1557011D02*
Y1557811D01*
X1840324Y1556811D02*
Y1558011D01*
X1840524Y1556611D02*
Y1558211D01*
X1840724Y1556411D02*
Y1558411D01*
X1840924Y1556211D02*
Y1558611D01*
X1841124Y1556265D02*
Y1558556D01*
X1841324Y1556465D02*
Y1558356D01*
X1841524Y1556665D02*
Y1558156D01*
X1841724Y1556865D02*
Y1557956D01*
X1841924Y1557065D02*
Y1557756D01*
X1842124Y1557265D02*
Y1557556D01*
X1857676Y1538869D02*
X1856403Y1537596D01*
X1857676Y1536323*
X1858949Y1537596*
X1857676Y1538869*
Y1536323D02*
X1857676D01*
X1857476Y1536523D02*
X1857876D01*
X1857276Y1536723D02*
X1858076D01*
X1857076Y1536923D02*
X1858276D01*
X1856876Y1537123D02*
X1858476D01*
X1856676Y1537323D02*
X1858676D01*
X1856476Y1537523D02*
X1858876D01*
X1856530Y1537723D02*
X1858821D01*
X1856730Y1537923D02*
X1858621D01*
X1856930Y1538123D02*
X1858421D01*
X1857130Y1538323D02*
X1858221D01*
X1857330Y1538523D02*
X1858021D01*
X1857530Y1538723D02*
X1857821D01*
X1856403Y1537596D02*
X1856403D01*
X1856603Y1537396D02*
Y1537796D01*
X1856803Y1537196D02*
Y1537996D01*
X1857003Y1536996D02*
Y1538196D01*
X1857203Y1536796D02*
Y1538396D01*
X1857403Y1536596D02*
Y1538596D01*
X1857603Y1536396D02*
Y1538796D01*
X1857803Y1536450D02*
Y1538741D01*
X1858003Y1536650D02*
Y1538541D01*
X1858203Y1536850D02*
Y1538341D01*
X1858403Y1537050D02*
Y1538141D01*
X1858603Y1537250D02*
Y1537941D01*
X1858803Y1537450D02*
Y1537741D01*
X1860504Y1541697D02*
X1859231Y1540424D01*
X1860504Y1539152*
X1861777Y1540424*
X1860504Y1541697*
Y1539152D02*
X1860504D01*
X1860304Y1539352D02*
X1860704D01*
X1860104Y1539552D02*
X1860904D01*
X1859904Y1539752D02*
X1861104D01*
X1859704Y1539952D02*
X1861304D01*
X1859504Y1540152D02*
X1861504D01*
X1859304Y1540352D02*
X1861704D01*
X1859359Y1540552D02*
X1861650D01*
X1859559Y1540752D02*
X1861450D01*
X1859759Y1540952D02*
X1861250D01*
X1859959Y1541152D02*
X1861050D01*
X1860159Y1541352D02*
X1860850D01*
X1860359Y1541552D02*
X1860650D01*
X1859231Y1540424D02*
X1859231D01*
X1859431Y1540224D02*
Y1540624D01*
X1859631Y1540024D02*
Y1540824D01*
X1859831Y1539824D02*
Y1541024D01*
X1860031Y1539624D02*
Y1541224D01*
X1860231Y1539424D02*
Y1541424D01*
X1860431Y1539224D02*
Y1541624D01*
X1860631Y1539279D02*
Y1541570D01*
X1860831Y1539479D02*
Y1541370D01*
X1861031Y1539679D02*
Y1541170D01*
X1861231Y1539879D02*
Y1540970D01*
X1861431Y1540079D02*
Y1540770D01*
X1861631Y1540279D02*
Y1540570D01*
X1866991Y1540468D02*
X1865718Y1539195D01*
X1866991Y1537922*
X1868264Y1539195*
X1866991Y1540468*
Y1537922D02*
X1866991D01*
X1866791Y1538122D02*
X1867191D01*
X1866591Y1538322D02*
X1867391D01*
X1866391Y1538522D02*
X1867591D01*
X1866191Y1538722D02*
X1867791D01*
X1865991Y1538922D02*
X1867991D01*
X1865791Y1539122D02*
X1868191D01*
X1865845Y1539322D02*
X1868136D01*
X1866045Y1539522D02*
X1867936D01*
X1866245Y1539722D02*
X1867736D01*
X1866445Y1539922D02*
X1867536D01*
X1866645Y1540122D02*
X1867336D01*
X1866845Y1540322D02*
X1867136D01*
X1865718Y1539195D02*
X1865718D01*
X1865918Y1538995D02*
Y1539395D01*
X1866118Y1538795D02*
Y1539595D01*
X1866318Y1538595D02*
Y1539795D01*
X1866518Y1538395D02*
Y1539995D01*
X1866718Y1538195D02*
Y1540195D01*
X1866918Y1537995D02*
Y1540395D01*
X1867118Y1538049D02*
Y1540340D01*
X1867318Y1538249D02*
Y1540140D01*
X1867518Y1538449D02*
Y1539940D01*
X1867718Y1538649D02*
Y1539740D01*
X1867918Y1538849D02*
Y1539540D01*
X1868118Y1539049D02*
Y1539340D01*
X1869819Y1543296D02*
X1868546Y1542023D01*
X1869819Y1540750*
X1871092Y1542023*
X1869819Y1543296*
Y1540750D02*
X1869819D01*
X1869619Y1540950D02*
X1870019D01*
X1869419Y1541150D02*
X1870219D01*
X1869219Y1541350D02*
X1870419D01*
X1869019Y1541550D02*
X1870619D01*
X1868819Y1541750D02*
X1870819D01*
X1868619Y1541950D02*
X1871019D01*
X1868674Y1542150D02*
X1870965D01*
X1868874Y1542350D02*
X1870765D01*
X1869074Y1542550D02*
X1870565D01*
X1869274Y1542750D02*
X1870365D01*
X1869474Y1542950D02*
X1870165D01*
X1869674Y1543150D02*
X1869965D01*
X1868546Y1542023D02*
X1868546D01*
X1868746Y1541823D02*
Y1542223D01*
X1868946Y1541623D02*
Y1542423D01*
X1869146Y1541423D02*
Y1542623D01*
X1869346Y1541223D02*
Y1542823D01*
X1869546Y1541023D02*
Y1543023D01*
X1869746Y1540823D02*
Y1543223D01*
X1869946Y1540878D02*
Y1543169D01*
X1870146Y1541078D02*
Y1542969D01*
X1870346Y1541278D02*
Y1542769D01*
X1870546Y1541478D02*
Y1542569D01*
X1870746Y1541678D02*
Y1542369D01*
X1870946Y1541878D02*
Y1542169D01*
X1838319Y1517968D02*
X1837046Y1516695D01*
X1838319Y1515422*
X1839592Y1516695*
X1838319Y1517968*
Y1515422D02*
X1838319D01*
X1838119Y1515622D02*
X1838519D01*
X1837919Y1515822D02*
X1838719D01*
X1837719Y1516022D02*
X1838919D01*
X1837519Y1516222D02*
X1839119D01*
X1837319Y1516422D02*
X1839319D01*
X1837119Y1516622D02*
X1839519D01*
X1837174Y1516822D02*
X1839465D01*
X1837374Y1517022D02*
X1839265D01*
X1837574Y1517222D02*
X1839065D01*
X1837774Y1517422D02*
X1838865D01*
X1837974Y1517622D02*
X1838665D01*
X1838174Y1517822D02*
X1838465D01*
X1837046Y1516695D02*
X1837046D01*
X1837246Y1516495D02*
Y1516895D01*
X1837446Y1516295D02*
Y1517095D01*
X1837646Y1516095D02*
Y1517295D01*
X1837846Y1515895D02*
Y1517495D01*
X1838046Y1515695D02*
Y1517695D01*
X1838246Y1515495D02*
Y1517895D01*
X1838446Y1515549D02*
Y1517840D01*
X1838646Y1515749D02*
Y1517640D01*
X1838846Y1515949D02*
Y1517440D01*
X1839046Y1516149D02*
Y1517240D01*
X1839246Y1516349D02*
Y1517040D01*
X1839446Y1516549D02*
Y1516840D01*
X1835491Y1520796D02*
X1834218Y1519523D01*
X1835491Y1518250*
X1836764Y1519523*
X1835491Y1520796*
Y1518250D02*
X1835491D01*
X1835291Y1518450D02*
X1835691D01*
X1835091Y1518650D02*
X1835891D01*
X1834891Y1518850D02*
X1836091D01*
X1834691Y1519050D02*
X1836291D01*
X1834491Y1519250D02*
X1836491D01*
X1834291Y1519450D02*
X1836691D01*
X1834345Y1519650D02*
X1836636D01*
X1834545Y1519850D02*
X1836436D01*
X1834745Y1520050D02*
X1836236D01*
X1834945Y1520250D02*
X1836036D01*
X1835145Y1520450D02*
X1835836D01*
X1835345Y1520650D02*
X1835636D01*
X1834218Y1519523D02*
X1834218D01*
X1834418Y1519323D02*
Y1519723D01*
X1834618Y1519123D02*
Y1519923D01*
X1834818Y1518923D02*
Y1520123D01*
X1835018Y1518723D02*
Y1520323D01*
X1835218Y1518523D02*
Y1520523D01*
X1835418Y1518323D02*
Y1520723D01*
X1835618Y1518378D02*
Y1520669D01*
X1835818Y1518578D02*
Y1520469D01*
X1836018Y1518778D02*
Y1520269D01*
X1836218Y1518978D02*
Y1520069D01*
X1836418Y1519178D02*
Y1519869D01*
X1836618Y1519378D02*
Y1519669D01*
X1855153Y1528103D02*
X1853880Y1526830D01*
X1855153Y1525558*
X1856425Y1526830*
X1855153Y1528103*
Y1525558D02*
X1855153D01*
X1854953Y1525758D02*
X1855353D01*
X1854753Y1525958D02*
X1855553D01*
X1854553Y1526158D02*
X1855753D01*
X1854353Y1526358D02*
X1855953D01*
X1854153Y1526558D02*
X1856153D01*
X1853953Y1526758D02*
X1856353D01*
X1854007Y1526958D02*
X1856298D01*
X1854207Y1527158D02*
X1856098D01*
X1854407Y1527358D02*
X1855898D01*
X1854607Y1527558D02*
X1855698D01*
X1854807Y1527758D02*
X1855498D01*
X1855007Y1527958D02*
X1855298D01*
X1853880Y1526830D02*
X1853880D01*
X1854080Y1526630D02*
Y1527030D01*
X1854280Y1526430D02*
Y1527230D01*
X1854480Y1526230D02*
Y1527430D01*
X1854680Y1526030D02*
Y1527630D01*
X1854880Y1525830D02*
Y1527830D01*
X1855080Y1525630D02*
Y1528030D01*
X1855280Y1525685D02*
Y1527976D01*
X1855480Y1525885D02*
Y1527776D01*
X1855680Y1526085D02*
Y1527576D01*
X1855880Y1526285D02*
Y1527376D01*
X1856080Y1526485D02*
Y1527176D01*
X1856280Y1526685D02*
Y1526976D01*
X1852324Y1530932D02*
X1851051Y1529659D01*
X1852324Y1528386*
X1853597Y1529659*
X1852324Y1530932*
Y1528386D02*
X1852324D01*
X1852124Y1528586D02*
X1852524D01*
X1851924Y1528786D02*
X1852724D01*
X1851724Y1528986D02*
X1852924D01*
X1851524Y1529186D02*
X1853124D01*
X1851324Y1529386D02*
X1853324D01*
X1851124Y1529586D02*
X1853524D01*
X1851179Y1529786D02*
X1853470D01*
X1851379Y1529986D02*
X1853270D01*
X1851579Y1530186D02*
X1853070D01*
X1851779Y1530386D02*
X1852870D01*
X1851979Y1530586D02*
X1852670D01*
X1852179Y1530786D02*
X1852470D01*
X1851051Y1529659D02*
X1851051D01*
X1851251Y1529459D02*
Y1529859D01*
X1851451Y1529259D02*
Y1530059D01*
X1851651Y1529059D02*
Y1530259D01*
X1851851Y1528859D02*
Y1530459D01*
X1852051Y1528659D02*
Y1530659D01*
X1852251Y1528459D02*
Y1530859D01*
X1852451Y1528513D02*
Y1530804D01*
X1852651Y1528713D02*
Y1530604D01*
X1852851Y1528913D02*
Y1530404D01*
X1853051Y1529113D02*
Y1530204D01*
X1853251Y1529313D02*
Y1530004D01*
X1853451Y1529513D02*
Y1529804D01*
X1853761Y1548441D02*
X1852488Y1547168D01*
X1853761Y1545895*
X1855033Y1547168*
X1853761Y1548441*
Y1545895D02*
X1853761D01*
X1853561Y1546095D02*
X1853961D01*
X1853361Y1546295D02*
X1854161D01*
X1853161Y1546495D02*
X1854361D01*
X1852961Y1546695D02*
X1854561D01*
X1852761Y1546895D02*
X1854761D01*
X1852561Y1547095D02*
X1854961D01*
X1852615Y1547295D02*
X1854906D01*
X1852815Y1547495D02*
X1854706D01*
X1853015Y1547695D02*
X1854506D01*
X1853215Y1547895D02*
X1854306D01*
X1853415Y1548095D02*
X1854106D01*
X1853615Y1548295D02*
X1853906D01*
X1852488Y1547168D02*
X1852488D01*
X1852688Y1546968D02*
Y1547368D01*
X1852888Y1546768D02*
Y1547568D01*
X1853088Y1546568D02*
Y1547768D01*
X1853288Y1546368D02*
Y1547968D01*
X1853488Y1546168D02*
Y1548168D01*
X1853688Y1545968D02*
Y1548368D01*
X1853888Y1546022D02*
Y1548314D01*
X1854088Y1546222D02*
Y1548114D01*
X1854288Y1546422D02*
Y1547914D01*
X1854488Y1546622D02*
Y1547714D01*
X1854688Y1546822D02*
Y1547514D01*
X1854888Y1547022D02*
Y1547314D01*
X1850932Y1545612D02*
X1849659Y1544339D01*
X1849659D02*
X1850932Y1543067D01*
X1852205Y1544339*
X1852205D02*
X1850932Y1545612D01*
Y1543067D02*
X1850932D01*
X1850732Y1543267D02*
X1851132D01*
X1850532Y1543467D02*
X1851332D01*
X1850332Y1543667D02*
X1851532D01*
X1850132Y1543867D02*
X1851732D01*
X1849932Y1544067D02*
X1851932D01*
X1849732Y1544267D02*
X1852132D01*
X1849787Y1544467D02*
X1852078D01*
X1849987Y1544667D02*
X1851878D01*
X1850187Y1544867D02*
X1851678D01*
X1850387Y1545067D02*
X1851478D01*
X1850587Y1545267D02*
X1851278D01*
X1850787Y1545467D02*
X1851078D01*
X1849659Y1544339D02*
X1849659D01*
X1849859Y1544139D02*
Y1544540D01*
X1850059Y1543939D02*
Y1544740D01*
X1850259Y1543739D02*
Y1544940D01*
X1850459Y1543539D02*
Y1545140D01*
X1850659Y1543339D02*
Y1545340D01*
X1850859Y1543139D02*
Y1545540D01*
X1851059Y1543194D02*
Y1545485D01*
X1851259Y1543394D02*
Y1545285D01*
X1851459Y1543594D02*
Y1545085D01*
X1851659Y1543794D02*
Y1544885D01*
X1851859Y1543994D02*
Y1544685D01*
X1852059Y1544194D02*
Y1544485D01*
X1844491Y1562296D02*
X1843218Y1561023D01*
X1844491Y1559750*
X1845764Y1561023*
X1844491Y1562296*
Y1559750D02*
X1844491D01*
X1844291Y1559950D02*
X1844691D01*
X1844091Y1560150D02*
X1844891D01*
X1843891Y1560350D02*
X1845091D01*
X1843691Y1560550D02*
X1845291D01*
X1843491Y1560750D02*
X1845491D01*
X1843291Y1560950D02*
X1845691D01*
X1843345Y1561150D02*
X1845636D01*
X1843545Y1561350D02*
X1845436D01*
X1843745Y1561550D02*
X1845236D01*
X1843945Y1561750D02*
X1845036D01*
X1844145Y1561950D02*
X1844836D01*
X1844345Y1562150D02*
X1844636D01*
X1843218Y1561023D02*
X1843218D01*
X1843418Y1560823D02*
Y1561223D01*
X1843618Y1560623D02*
Y1561423D01*
X1843818Y1560423D02*
Y1561623D01*
X1844018Y1560223D02*
Y1561823D01*
X1844218Y1560023D02*
Y1562023D01*
X1844418Y1559823D02*
Y1562223D01*
X1844618Y1559878D02*
Y1562169D01*
X1844818Y1560078D02*
Y1561969D01*
X1845018Y1560278D02*
Y1561769D01*
X1845218Y1560478D02*
Y1561569D01*
X1845418Y1560678D02*
Y1561369D01*
X1845618Y1560878D02*
Y1561169D01*
X1847319Y1559468D02*
X1846046Y1558195D01*
X1847319Y1556922*
X1848592Y1558195*
X1847319Y1559468*
Y1556922D02*
X1847319D01*
X1847119Y1557122D02*
X1847519D01*
X1846919Y1557322D02*
X1847719D01*
X1846719Y1557522D02*
X1847919D01*
X1846519Y1557722D02*
X1848119D01*
X1846319Y1557922D02*
X1848319D01*
X1846119Y1558122D02*
X1848519D01*
X1846174Y1558322D02*
X1848465D01*
X1846374Y1558522D02*
X1848265D01*
X1846574Y1558722D02*
X1848065D01*
X1846774Y1558922D02*
X1847865D01*
X1846974Y1559122D02*
X1847665D01*
X1847174Y1559322D02*
X1847465D01*
X1846046Y1558195D02*
X1846046D01*
X1846246Y1557995D02*
Y1558395D01*
X1846446Y1557795D02*
Y1558595D01*
X1846646Y1557595D02*
Y1558795D01*
X1846846Y1557395D02*
Y1558995D01*
X1847046Y1557195D02*
Y1559195D01*
X1847246Y1556995D02*
Y1559395D01*
X1847446Y1557049D02*
Y1559340D01*
X1847646Y1557249D02*
Y1559140D01*
X1847846Y1557449D02*
Y1558940D01*
X1848046Y1557649D02*
Y1558740D01*
X1848246Y1557849D02*
Y1558540D01*
X1848446Y1558049D02*
Y1558340D01*
X1822071Y1540265D02*
X1820799Y1538992D01*
X1822071Y1537719*
X1823344Y1538992*
X1822071Y1540265*
Y1537719D02*
X1822071D01*
X1821871Y1537919D02*
X1822271D01*
X1821671Y1538119D02*
X1822471D01*
X1821471Y1538319D02*
X1822671D01*
X1821271Y1538519D02*
X1822871D01*
X1821071Y1538719D02*
X1823071D01*
X1820871Y1538919D02*
X1823271D01*
X1820926Y1539119D02*
X1823217D01*
X1821126Y1539319D02*
X1823017D01*
X1821326Y1539519D02*
X1822817D01*
X1821526Y1539719D02*
X1822617D01*
X1821726Y1539919D02*
X1822417D01*
X1821926Y1540119D02*
X1822217D01*
X1820799Y1538992D02*
X1820799D01*
X1820999Y1538792D02*
Y1539192D01*
X1821199Y1538592D02*
Y1539392D01*
X1821399Y1538392D02*
Y1539592D01*
X1821599Y1538192D02*
Y1539792D01*
X1821799Y1537992D02*
Y1539992D01*
X1821999Y1537792D02*
Y1540192D01*
X1822199Y1537847D02*
Y1540138D01*
X1822399Y1538047D02*
Y1539938D01*
X1822599Y1538247D02*
Y1539738D01*
X1822799Y1538447D02*
Y1539538D01*
X1822999Y1538647D02*
Y1539338D01*
X1823199Y1538847D02*
Y1539138D01*
X1824900Y1537436D02*
X1823627Y1536164D01*
X1824900Y1534891*
X1826173Y1536164*
X1824900Y1537436*
Y1534891D02*
X1824900D01*
X1824700Y1535091D02*
X1825100D01*
X1824500Y1535291D02*
X1825300D01*
X1824300Y1535491D02*
X1825500D01*
X1824100Y1535691D02*
X1825700D01*
X1823900Y1535891D02*
X1825900D01*
X1823700Y1536091D02*
X1826100D01*
X1823754Y1536291D02*
X1826045D01*
X1823954Y1536491D02*
X1825845D01*
X1824154Y1536691D02*
X1825645D01*
X1824354Y1536891D02*
X1825445D01*
X1824554Y1537091D02*
X1825245D01*
X1824754Y1537291D02*
X1825045D01*
X1823627Y1536164D02*
X1823627D01*
X1823827Y1535964D02*
Y1536364D01*
X1824027Y1535764D02*
Y1536564D01*
X1824227Y1535564D02*
Y1536764D01*
X1824427Y1535364D02*
Y1536964D01*
X1824627Y1535164D02*
Y1537164D01*
X1824827Y1534964D02*
Y1537364D01*
X1825027Y1535018D02*
Y1537309D01*
X1825227Y1535218D02*
Y1537109D01*
X1825427Y1535418D02*
Y1536909D01*
X1825627Y1535618D02*
Y1536709D01*
X1825827Y1535818D02*
Y1536509D01*
X1826027Y1536018D02*
Y1536309D01*
X1852819Y1514968D02*
X1851546Y1513695D01*
X1852819Y1512422*
X1854092Y1513695*
X1852819Y1514968*
Y1512422D02*
X1852819D01*
X1852619Y1512622D02*
X1853019D01*
X1852419Y1512822D02*
X1853219D01*
X1852219Y1513022D02*
X1853419D01*
X1852019Y1513222D02*
X1853619D01*
X1851819Y1513422D02*
X1853819D01*
X1851619Y1513622D02*
X1854019D01*
X1851674Y1513822D02*
X1853965D01*
X1851874Y1514022D02*
X1853765D01*
X1852074Y1514222D02*
X1853565D01*
X1852274Y1514422D02*
X1853365D01*
X1852474Y1514622D02*
X1853165D01*
X1852674Y1514822D02*
X1852965D01*
X1851546Y1513695D02*
X1851546D01*
X1851746Y1513495D02*
Y1513895D01*
X1851946Y1513295D02*
Y1514095D01*
X1852146Y1513095D02*
Y1514295D01*
X1852346Y1512895D02*
Y1514495D01*
X1852546Y1512695D02*
Y1514695D01*
X1852746Y1512495D02*
Y1514895D01*
X1852946Y1512549D02*
Y1514840D01*
X1853146Y1512749D02*
Y1514640D01*
X1853346Y1512949D02*
Y1514440D01*
X1853546Y1513149D02*
Y1514240D01*
X1853746Y1513349D02*
Y1514040D01*
X1853946Y1513549D02*
Y1513840D01*
X1849991Y1517796D02*
X1848718Y1516523D01*
X1849991Y1515250*
X1851264Y1516523*
X1849991Y1517796*
Y1515250D02*
X1849991D01*
X1849791Y1515450D02*
X1850191D01*
X1849591Y1515650D02*
X1850391D01*
X1849391Y1515850D02*
X1850591D01*
X1849191Y1516050D02*
X1850791D01*
X1848991Y1516250D02*
X1850991D01*
X1848791Y1516450D02*
X1851191D01*
X1848845Y1516650D02*
X1851136D01*
X1849045Y1516850D02*
X1850936D01*
X1849245Y1517050D02*
X1850736D01*
X1849445Y1517250D02*
X1850536D01*
X1849645Y1517450D02*
X1850336D01*
X1849845Y1517650D02*
X1850136D01*
X1848718Y1516523D02*
X1848718D01*
X1848918Y1516323D02*
Y1516723D01*
X1849118Y1516123D02*
Y1516923D01*
X1849318Y1515923D02*
Y1517123D01*
X1849518Y1515723D02*
Y1517323D01*
X1849718Y1515523D02*
Y1517523D01*
X1849918Y1515323D02*
Y1517723D01*
X1850118Y1515378D02*
Y1517669D01*
X1850318Y1515578D02*
Y1517469D01*
X1850518Y1515778D02*
Y1517269D01*
X1850718Y1515978D02*
Y1517069D01*
X1850918Y1516178D02*
Y1516869D01*
X1851118Y1516378D02*
Y1516669D01*
X1838378Y1556119D02*
X1837105Y1554846D01*
X1838378Y1553573*
X1839651Y1554846*
X1838378Y1556119*
Y1553573D02*
X1838378D01*
X1838178Y1553773D02*
X1838578D01*
X1837978Y1553973D02*
X1838778D01*
X1837778Y1554173D02*
X1838978D01*
X1837578Y1554373D02*
X1839178D01*
X1837378Y1554573D02*
X1839378D01*
X1837178Y1554773D02*
X1839578D01*
X1837232Y1554973D02*
X1839524D01*
X1837432Y1555173D02*
X1839324D01*
X1837632Y1555373D02*
X1839124D01*
X1837832Y1555573D02*
X1838924D01*
X1838032Y1555773D02*
X1838724D01*
X1838232Y1555973D02*
X1838524D01*
X1837105Y1554846D02*
X1837105D01*
X1837305Y1554646D02*
Y1555046D01*
X1837505Y1554446D02*
Y1555246D01*
X1837705Y1554246D02*
Y1555446D01*
X1837905Y1554046D02*
Y1555646D01*
X1838105Y1553846D02*
Y1555846D01*
X1838305Y1553646D02*
Y1556046D01*
X1838505Y1553700D02*
Y1555991D01*
X1838705Y1553900D02*
Y1555791D01*
X1838905Y1554100D02*
Y1555591D01*
X1839105Y1554300D02*
Y1555391D01*
X1839305Y1554500D02*
Y1555191D01*
X1839505Y1554700D02*
Y1554991D01*
X1841206Y1553290D02*
X1839934Y1552017D01*
X1841206Y1550745*
X1842479Y1552017*
X1841206Y1553290*
Y1550745D02*
X1841206D01*
X1841006Y1550945D02*
X1841406D01*
X1840806Y1551145D02*
X1841606D01*
X1840606Y1551345D02*
X1841806D01*
X1840406Y1551545D02*
X1842006D01*
X1840206Y1551745D02*
X1842206D01*
X1840006Y1551945D02*
X1842406D01*
X1840061Y1552145D02*
X1842352D01*
X1840261Y1552345D02*
X1842152D01*
X1840461Y1552545D02*
X1841952D01*
X1840661Y1552745D02*
X1841752D01*
X1840861Y1552945D02*
X1841552D01*
X1841061Y1553145D02*
X1841352D01*
X1839934Y1552017D02*
X1839934D01*
X1840134Y1551817D02*
Y1552217D01*
X1840334Y1551617D02*
Y1552417D01*
X1840534Y1551417D02*
Y1552617D01*
X1840734Y1551217D02*
Y1552817D01*
X1840934Y1551017D02*
Y1553017D01*
X1841134Y1550817D02*
Y1553217D01*
X1841334Y1550872D02*
Y1553163D01*
X1841534Y1551072D02*
Y1552963D01*
X1841734Y1551272D02*
Y1552763D01*
X1841934Y1551472D02*
Y1552563D01*
X1842134Y1551672D02*
Y1552363D01*
X1842334Y1551872D02*
Y1552163D01*
X1832251Y1544288D02*
X1830979Y1543015D01*
X1832251Y1541743*
X1833524Y1543015*
X1832251Y1544288*
Y1541743D02*
X1832251D01*
X1832051Y1541943D02*
X1832451D01*
X1831851Y1542143D02*
X1832651D01*
X1831651Y1542343D02*
X1832851D01*
X1831451Y1542543D02*
X1833051D01*
X1831251Y1542743D02*
X1833251D01*
X1831051Y1542943D02*
X1833451D01*
X1831106Y1543143D02*
X1833397D01*
X1831306Y1543343D02*
X1833197D01*
X1831506Y1543543D02*
X1832997D01*
X1831706Y1543743D02*
X1832797D01*
X1831906Y1543943D02*
X1832597D01*
X1832106Y1544143D02*
X1832397D01*
X1830979Y1543015D02*
X1830979D01*
X1831179Y1542815D02*
Y1543215D01*
X1831379Y1542615D02*
Y1543415D01*
X1831579Y1542415D02*
Y1543615D01*
X1831779Y1542215D02*
Y1543815D01*
X1831979Y1542015D02*
Y1544015D01*
X1832179Y1541815D02*
Y1544215D01*
X1832379Y1541870D02*
Y1544161D01*
X1832579Y1542070D02*
Y1543961D01*
X1832779Y1542270D02*
Y1543761D01*
X1832979Y1542470D02*
Y1543561D01*
X1833179Y1542670D02*
Y1543361D01*
X1833379Y1542870D02*
Y1543161D01*
X1829423Y1547117D02*
X1828150Y1545844D01*
X1829423Y1544571*
X1830696Y1545844*
X1829423Y1547117*
Y1544571D02*
X1829423D01*
X1829223Y1544771D02*
X1829623D01*
X1829023Y1544971D02*
X1829823D01*
X1828823Y1545171D02*
X1830023D01*
X1828623Y1545371D02*
X1830223D01*
X1828423Y1545571D02*
X1830423D01*
X1828223Y1545771D02*
X1830623D01*
X1828277Y1545971D02*
X1830569D01*
X1828477Y1546171D02*
X1830369D01*
X1828677Y1546371D02*
X1830169D01*
X1828877Y1546571D02*
X1829969D01*
X1829077Y1546771D02*
X1829769D01*
X1829277Y1546971D02*
X1829569D01*
X1828150Y1545844D02*
X1828150D01*
X1828350Y1545644D02*
Y1546044D01*
X1828550Y1545444D02*
Y1546244D01*
X1828750Y1545244D02*
Y1546444D01*
X1828950Y1545044D02*
Y1546644D01*
X1829150Y1544844D02*
Y1546844D01*
X1829350Y1544644D02*
Y1547044D01*
X1829550Y1544698D02*
Y1546989D01*
X1829750Y1544898D02*
Y1546789D01*
X1829950Y1545098D02*
Y1546589D01*
X1830150Y1545298D02*
Y1546389D01*
X1830350Y1545498D02*
Y1546189D01*
X1830550Y1545698D02*
Y1545989D01*
X1835498Y1548665D02*
X1837902Y1551069D01*
X1835781Y1553190*
X1833376Y1550786*
X1835498Y1548665*
X1835498*
X1835298Y1548865D02*
X1835698D01*
X1835098Y1549065D02*
X1835898D01*
X1834898Y1549265D02*
X1836098D01*
X1834698Y1549465D02*
X1836298D01*
X1834498Y1549665D02*
X1836498D01*
X1834298Y1549865D02*
X1836698D01*
X1834098Y1550065D02*
X1836898D01*
X1833898Y1550265D02*
X1837098D01*
X1833698Y1550465D02*
X1837298D01*
X1833498Y1550665D02*
X1837498D01*
X1833455Y1550865D02*
X1837698D01*
X1833655Y1551065D02*
X1837898D01*
X1833855Y1551265D02*
X1837706D01*
X1834055Y1551465D02*
X1837506D01*
X1834255Y1551665D02*
X1837306D01*
X1834455Y1551865D02*
X1837106D01*
X1834655Y1552065D02*
X1836906D01*
X1834855Y1552265D02*
X1836706D01*
X1835055Y1552465D02*
X1836506D01*
X1835255Y1552665D02*
X1836306D01*
X1835455Y1552865D02*
X1836106D01*
X1835655Y1553065D02*
X1835906D01*
X1833376Y1550786D02*
X1833376D01*
X1833576Y1550586D02*
Y1550986D01*
X1833776Y1550386D02*
Y1551186D01*
X1833976Y1550186D02*
Y1551386D01*
X1834176Y1549986D02*
Y1551586D01*
X1834376Y1549786D02*
Y1551786D01*
X1834576Y1549586D02*
Y1551986D01*
X1834776Y1549386D02*
Y1552186D01*
X1834976Y1549186D02*
Y1552386D01*
X1835176Y1548986D02*
Y1552586D01*
X1835376Y1548786D02*
Y1552786D01*
X1835576Y1548744D02*
Y1552986D01*
X1835776Y1548944D02*
Y1553186D01*
X1835976Y1549144D02*
Y1552995D01*
X1836176Y1549344D02*
Y1552795D01*
X1836376Y1549544D02*
Y1552595D01*
X1836576Y1549744D02*
Y1552395D01*
X1836776Y1549944D02*
Y1552195D01*
X1836976Y1550144D02*
Y1551995D01*
X1837176Y1550344D02*
Y1551795D01*
X1837376Y1550544D02*
Y1551595D01*
X1837576Y1550744D02*
Y1551395D01*
X1837776Y1550944D02*
Y1551195D01*
X1840094Y1544069D02*
X1842498Y1546473D01*
X1840377Y1548594*
X1837973Y1546190*
X1840094Y1544069*
X1840094*
X1839894Y1544269D02*
X1840294D01*
X1839694Y1544469D02*
X1840494D01*
X1839494Y1544669D02*
X1840694D01*
X1839294Y1544869D02*
X1840894D01*
X1839094Y1545069D02*
X1841094D01*
X1838894Y1545269D02*
X1841294D01*
X1838694Y1545469D02*
X1841494D01*
X1838494Y1545669D02*
X1841694D01*
X1838294Y1545869D02*
X1841894D01*
X1838094Y1546069D02*
X1842094D01*
X1838051Y1546269D02*
X1842294D01*
X1838251Y1546469D02*
X1842494D01*
X1838451Y1546669D02*
X1842302D01*
X1838651Y1546869D02*
X1842102D01*
X1838851Y1547069D02*
X1841902D01*
X1839051Y1547269D02*
X1841702D01*
X1839251Y1547469D02*
X1841502D01*
X1839451Y1547669D02*
X1841302D01*
X1839651Y1547869D02*
X1841102D01*
X1839851Y1548069D02*
X1840902D01*
X1840051Y1548269D02*
X1840702D01*
X1840251Y1548469D02*
X1840502D01*
X1837973Y1546190D02*
X1837973D01*
X1838173Y1545990D02*
Y1546390D01*
X1838373Y1545790D02*
Y1546590D01*
X1838573Y1545590D02*
Y1546790D01*
X1838773Y1545390D02*
Y1546990D01*
X1838973Y1545190D02*
Y1547190D01*
X1839173Y1544990D02*
Y1547390D01*
X1839373Y1544790D02*
Y1547590D01*
X1839573Y1544590D02*
Y1547790D01*
X1839773Y1544390D02*
Y1547990D01*
X1839973Y1544190D02*
Y1548190D01*
X1840173Y1544147D02*
Y1548390D01*
X1840373Y1544347D02*
Y1548590D01*
X1840573Y1544547D02*
Y1548398D01*
X1840773Y1544747D02*
Y1548198D01*
X1840973Y1544947D02*
Y1547998D01*
X1841173Y1545147D02*
Y1547798D01*
X1841373Y1545347D02*
Y1547598D01*
X1841573Y1545547D02*
Y1547398D01*
X1841773Y1545747D02*
Y1547198D01*
X1841973Y1545947D02*
Y1546998D01*
X1842173Y1546147D02*
Y1546798D01*
X1842373Y1546347D02*
Y1546598D01*
X1822115Y1534652D02*
X1820843Y1533379D01*
X1822115Y1532107*
X1823388Y1533379*
X1822115Y1534652*
Y1532107D02*
X1822115D01*
X1821915Y1532307D02*
X1822315D01*
X1821715Y1532507D02*
X1822515D01*
X1821515Y1532707D02*
X1822715D01*
X1821315Y1532907D02*
X1822915D01*
X1821115Y1533107D02*
X1823115D01*
X1820915Y1533307D02*
X1823315D01*
X1820970Y1533507D02*
X1823261D01*
X1821170Y1533707D02*
X1823061D01*
X1821370Y1533907D02*
X1822861D01*
X1821570Y1534107D02*
X1822661D01*
X1821770Y1534307D02*
X1822461D01*
X1821970Y1534507D02*
X1822261D01*
X1820843Y1533379D02*
X1820843D01*
X1821043Y1533179D02*
Y1533579D01*
X1821243Y1532979D02*
Y1533779D01*
X1821443Y1532779D02*
Y1533979D01*
X1821643Y1532579D02*
Y1534179D01*
X1821843Y1532379D02*
Y1534379D01*
X1822043Y1532179D02*
Y1534579D01*
X1822243Y1532234D02*
Y1534525D01*
X1822443Y1532434D02*
Y1534325D01*
X1822643Y1532634D02*
Y1534125D01*
X1822843Y1532834D02*
Y1533925D01*
X1823043Y1533034D02*
Y1533725D01*
X1823243Y1533234D02*
Y1533525D01*
X1819287Y1537481D02*
X1818014Y1536208D01*
X1819287Y1534935*
X1820560Y1536208*
X1819287Y1537481*
Y1534935D02*
X1819287D01*
X1819087Y1535135D02*
X1819487D01*
X1818887Y1535335D02*
X1819687D01*
X1818687Y1535535D02*
X1819887D01*
X1818487Y1535735D02*
X1820087D01*
X1818287Y1535935D02*
X1820287D01*
X1818087Y1536135D02*
X1820487D01*
X1818141Y1536335D02*
X1820433D01*
X1818341Y1536535D02*
X1820233D01*
X1818541Y1536735D02*
X1820033D01*
X1818741Y1536935D02*
X1819833D01*
X1818941Y1537135D02*
X1819633D01*
X1819141Y1537335D02*
X1819433D01*
X1818014Y1536208D02*
X1818014D01*
X1818214Y1536008D02*
Y1536408D01*
X1818414Y1535808D02*
Y1536608D01*
X1818614Y1535608D02*
Y1536808D01*
X1818814Y1535408D02*
Y1537008D01*
X1819014Y1535208D02*
Y1537208D01*
X1819214Y1535008D02*
Y1537408D01*
X1819414Y1535062D02*
Y1537353D01*
X1819614Y1535262D02*
Y1537153D01*
X1819814Y1535462D02*
Y1536953D01*
X1820014Y1535662D02*
Y1536753D01*
X1820214Y1535862D02*
Y1536553D01*
X1820414Y1536062D02*
Y1536353D01*
G54D163*
X1787558Y1516655D03*
X1796613D03*
X1805668D03*
G54D164*
X1796613Y1493639D03*
G74*
X0Y0D02*
M02*
