*
*
G04 PADS VX.2 Build Number: 5060570 generated Gerber (RS-274-X) file*
G04 PC Version=2.1*
*
%IN "ESP32-PROG_V2_1207.pcb"*%
*
%MOIN*%
*
%FSLAX35Y35*%
*
*
*
*
G04 PC Standard Apertures*
*
*
G04 Thermal Relief Aperture macro.*
%AMTER*
1,1,$1,0,0*
1,0,$1-$2,0,0*
21,0,$3,$4,0,0,45*
21,0,$3,$4,0,0,135*
%
*
*
G04 Annular Aperture macro.*
%AMANN*
1,1,$1,0,0*
1,0,$2,0,0*
%
*
*
G04 Odd Aperture macro.*
%AMODD*
1,1,$1,0,0*
1,0,$1-0.005,0,0*
%
*
*
G04 PC Custom Aperture Macros*
*
*
*
*
*
*
G04 PC Aperture Table*
*
%ADD010C,0.001*%
%ADD012C,0.01*%
%ADD024C,0.005*%
%ADD025C,0.006*%
%ADD028C,0.00984*%
%ADD029C,0.00787*%
%ADD054C,0.008*%
%ADD055C,0.004*%
%ADD086C,0.00394*%
*
*
*
*
G04 PC Circuitry*
G04 Layer Name ESP32-PROG_V2_1207.pcb - circuitry*
%LPD*%
*
*
G04 PC Custom Flashes*
G04 Layer Name ESP32-PROG_V2_1207.pcb - flashes*
%LPD*%
*
*
G04 PC Circuitry*
G04 Layer Name ESP32-PROG_V2_1207.pcb - circuitry*
%LPD*%
*
G54D10*
G54D12*
G01X1755204Y1595978D02*
X1881022D01*
X1755204D02*
X1765204Y1598478D01*
Y1593478*
X1755204Y1595978*
X2044204D02*
X1918386D01*
X2044204D02*
X2034204Y1593478D01*
Y1598478*
X2044204Y1595978*
X1755204Y1588267D02*
Y1600978D01*
X2044204Y1588267D02*
Y1600978D01*
X1887204Y1598790D02*
X1884931Y1592228D01*
X1884022Y1598790D02*
X1887204D01*
X1889704D02*
X1892204D01*
X1890840Y1596290*
X1891522*
X1891977Y1595978*
X1892204Y1595665*
X1892431Y1594728*
Y1594103*
X1892204Y1593165*
X1891749Y1592540*
X1891068Y1592228*
X1890386*
X1889704Y1592540*
X1889477Y1592853*
X1889249Y1593478*
X1894704Y1592853D02*
X1894477Y1592540D01*
X1894704Y1592228*
X1894931Y1592540*
X1894704Y1592853*
X1899249Y1598790D02*
X1896977Y1594415D01*
X1900386*
X1899249Y1598790D02*
Y1592228D01*
X1902431Y1596603D02*
Y1592228D01*
Y1595353D02*
X1903113Y1596290D01*
X1903568Y1596603*
X1904249*
X1904704Y1596290*
X1904931Y1595353*
Y1592228*
Y1595353D02*
X1905613Y1596290D01*
X1906068Y1596603*
X1906749*
X1907204Y1596290*
X1907431Y1595353*
Y1592228*
X1909477Y1596603D02*
Y1592228D01*
Y1595353D02*
X1910159Y1596290D01*
X1910613Y1596603*
X1911295*
X1911749Y1596290*
X1911977Y1595353*
Y1592228*
Y1595353D02*
X1912659Y1596290D01*
X1913113Y1596603*
X1913795*
X1914249Y1596290*
X1914477Y1595353*
Y1592228*
X1735927Y1484303D02*
Y1527035D01*
Y1484303D02*
X1733427Y1494303D01*
X1738427*
X1735927Y1484303*
Y1583267D02*
Y1540535D01*
Y1583267D02*
X1738427Y1573267D01*
X1733427*
X1735927Y1583267*
X1750204Y1484303D02*
X1730927D01*
X1750204Y1583267D02*
X1730927D01*
X1721495Y1535035D02*
Y1535347D01*
X1721723Y1535972*
X1721950Y1536285*
X1722404Y1536597*
X1723313*
X1723768Y1536285*
X1723995Y1535972*
X1724223Y1535347*
Y1534722*
X1723995Y1534097*
X1723541Y1533160*
X1721268Y1530035*
X1724450*
X1729450Y1536597D02*
X1727177D01*
X1726950Y1533785*
X1727177Y1534097*
X1727859Y1534410*
X1728541*
X1729223Y1534097*
X1729677Y1533472*
X1729904Y1532535*
X1729677Y1531910*
X1729450Y1530972*
X1728995Y1530347*
X1728313Y1530035*
X1727632*
X1726950Y1530347*
X1726723Y1530660*
X1726495Y1531285*
X1732177Y1530660D02*
X1731950Y1530347D01*
X1732177Y1530035*
X1732404Y1530347*
X1732177Y1530660*
X1734450Y1535347D02*
X1734904Y1535660D01*
X1735586Y1536597*
Y1530035*
X1737632Y1534410D02*
Y1530035D01*
Y1533160D02*
X1738313Y1534097D01*
X1738768Y1534410*
X1739450*
X1739904Y1534097*
X1740132Y1533160*
Y1530035*
Y1533160D02*
X1740813Y1534097D01*
X1741268Y1534410*
X1741950*
X1742404Y1534097*
X1742632Y1533160*
Y1530035*
X1744677Y1534410D02*
Y1530035D01*
Y1533160D02*
X1745359Y1534097D01*
X1745813Y1534410*
X1746495*
X1746950Y1534097*
X1747177Y1533160*
Y1530035*
Y1533160D02*
X1747859Y1534097D01*
X1748313Y1534410*
X1748995*
X1749450Y1534097*
X1749677Y1533160*
Y1530035*
G54D24*
X1943004Y1548803D02*
Y1579803D01*
X1933004*
Y1548803*
X1943004*
X1916032Y1521803D02*
Y1490803D01*
X1926032*
Y1521803*
X1916032*
X1893454Y1574253D02*
X1890554Y1571353D01*
X1892954Y1574453D02*
X1890304Y1571803D01*
X1892304Y1574503D02*
X1890304Y1572503D01*
X1891679Y1574478D02*
X1890354Y1573153D01*
X1891204Y1574503D02*
X1890329Y1573628D01*
X1927384Y1557873D02*
Y1579873D01*
X1927384D02*
X1917384D01*
X1917384D02*
Y1557873D01*
X1917384D02*
X1927384D01*
X1928259Y1559373D02*
X1930884D01*
X1928259Y1560736D02*
X1928384Y1560554D01*
X1928634Y1560373*
X1928634D02*
X1928884Y1560282D01*
X1929259Y1560191*
X1929884*
X1930259Y1560282*
X1930509Y1560373*
X1930509D02*
X1930759Y1560554D01*
X1930884Y1560736*
Y1561100*
X1930759Y1561282*
X1930509Y1561463*
X1930259Y1561554*
X1929884Y1561645*
X1929259*
X1928884Y1561554*
X1928634Y1561463*
X1928384Y1561282*
X1928259Y1561100*
Y1560736*
Y1563009D02*
X1928384Y1562736D01*
X1928759Y1562554*
X1929384Y1562463*
X1929759*
X1930384Y1562554*
X1930759Y1562736*
X1930884Y1563009*
Y1563191*
X1930759Y1563463*
X1930384Y1563645*
X1929759Y1563736*
X1929384*
X1928759Y1563645*
X1928384Y1563463*
X1928259Y1563191*
Y1563009*
X1931384Y1564554D02*
Y1566463D01*
X1928259Y1567554D02*
X1928384Y1567373D01*
X1928384D02*
X1928634Y1567191D01*
X1928884Y1567100*
X1929259Y1567009*
X1929884*
X1930259Y1567100*
X1930509Y1567191*
X1930759Y1567373*
X1930759D02*
X1930884Y1567554D01*
Y1567918*
X1930759Y1568100*
X1930509Y1568282*
X1930259Y1568373*
X1930259D02*
X1929884Y1568463D01*
X1929259*
X1928884Y1568373*
X1928884D02*
X1928634Y1568282D01*
X1928384Y1568100*
X1928259Y1567918*
Y1567554*
Y1569282D02*
X1930884D01*
X1928259D02*
X1930884Y1570554D01*
X1928259D02*
X1930884D01*
X1927759Y1573009D02*
X1931759Y1571373D01*
X1928259Y1574373D02*
X1928384Y1574191D01*
X1928634Y1574009*
X1928884Y1573918*
X1929259Y1573827*
X1929884*
X1930259Y1573918*
X1930509Y1574009*
X1930759Y1574191*
X1930884Y1574373*
X1930884D02*
Y1574736D01*
X1930759Y1574918*
X1930509Y1575100*
X1930259Y1575191*
X1929884Y1575282*
X1929259*
X1928884Y1575191*
X1928634Y1575100*
X1928384Y1574918*
X1928259Y1574736*
Y1574373*
Y1576100D02*
X1930884D01*
X1928259D02*
Y1577282D01*
X1929509Y1576100D02*
Y1576827D01*
X1928259Y1578100D02*
X1930884D01*
X1928259D02*
Y1579282D01*
X1929509Y1578100D02*
Y1578827D01*
X1955884Y1538982D02*
Y1535373D01*
Y1538982D02*
X1957009D01*
X1957384Y1538810*
X1957509Y1538638*
X1957634Y1538294*
Y1537779*
X1957509Y1537435*
X1957384Y1537263*
X1957009Y1537091*
X1955884*
X1958759Y1537779D02*
Y1535373D01*
Y1536748D02*
X1958884Y1537263D01*
X1959134Y1537607*
X1959384Y1537779*
X1959759*
X1961509D02*
X1961259Y1537607D01*
X1961009Y1537263*
X1960884Y1536748*
X1960884D02*
Y1536404D01*
X1961009Y1535888*
X1961259Y1535544*
X1961509Y1535373*
X1961509D02*
X1961884D01*
X1961884D02*
X1962134Y1535544D01*
X1962384Y1535888*
X1962509Y1536404*
Y1536748*
X1962509D02*
X1962384Y1537263D01*
X1962134Y1537607*
X1961884Y1537779*
X1961509*
X1965134D02*
Y1535029D01*
X1965009Y1534513*
X1964884Y1534341*
X1964634Y1534169*
X1964259*
X1964009Y1534341*
X1965134Y1537263D02*
X1964884Y1537607D01*
X1964634Y1537779*
X1964259*
X1964009Y1537607*
X1963759Y1537263*
X1963634Y1536748*
X1963634D02*
Y1536404D01*
X1963759Y1535888*
X1964009Y1535544*
X1964259Y1535373*
X1964259D02*
X1964634D01*
X1964634D02*
X1964884Y1535544D01*
X1965134Y1535888*
X1966259Y1537779D02*
Y1535373D01*
Y1536748D02*
X1966384Y1537263D01*
X1966634Y1537607*
X1966884Y1537779*
X1967259*
X1969884D02*
Y1535373D01*
Y1537263D02*
X1969634Y1537607D01*
X1969384Y1537779*
X1969009*
X1968759Y1537607*
X1968509Y1537263*
X1968384Y1536748*
X1968384D02*
Y1536404D01*
X1968509Y1535888*
X1968759Y1535544*
X1969009Y1535373*
X1969009D02*
X1969384D01*
X1969384D02*
X1969634Y1535544D01*
X1969884Y1535888*
X1971009Y1537779D02*
Y1535373D01*
Y1537091D02*
X1971384Y1537607D01*
X1971634Y1537779*
X1972009*
X1972259Y1537607*
X1972384Y1537091*
Y1535373*
Y1537091D02*
X1972759Y1537607D01*
X1973009Y1537779*
X1973384*
X1973634Y1537607*
X1973759Y1537091*
Y1535373*
X1957134Y1531482D02*
Y1528732D01*
X1957009Y1528216*
X1956884Y1528044*
X1956634Y1527873*
X1956634D02*
X1956384D01*
X1956384D02*
X1956134Y1528044D01*
X1956009Y1528216*
X1955884Y1528732*
Y1529076*
X1959134Y1531482D02*
Y1527873D01*
X1958259Y1531482D02*
X1960009D01*
X1962134D02*
X1961134Y1527873D01*
X1962134Y1531482D02*
X1963134Y1527873D01*
X1961509Y1529076D02*
X1962759D01*
X1966134Y1530623D02*
X1966009Y1530966D01*
X1965759Y1531310*
X1965509Y1531482*
X1965009*
X1964759Y1531310*
X1964509Y1530966*
X1964384Y1530623*
X1964384D02*
X1964259Y1530107D01*
Y1529248*
X1964259D02*
X1964384Y1528732D01*
X1964509Y1528388*
X1964759Y1528044*
X1965009Y1527873*
X1965009D02*
X1965509D01*
X1965509D02*
X1965759Y1528044D01*
X1966009Y1528388*
X1966134Y1528732*
Y1529248*
X1965509D02*
X1966134D01*
X1980259Y1530623D02*
X1980134Y1530966D01*
X1979884Y1531310*
X1979634Y1531482*
X1979134*
X1978884Y1531310*
X1978634Y1530966*
X1978509Y1530623*
X1978509D02*
X1978384Y1530107D01*
Y1529248*
X1978384D02*
X1978509Y1528732D01*
X1978634Y1528388*
X1978884Y1528044*
X1979134Y1527873*
X1979134D02*
X1979634D01*
X1979634D02*
X1979884Y1528044D01*
X1980134Y1528388*
X1980259Y1528732*
X1982134Y1531482D02*
X1981884Y1531310D01*
X1981634Y1530966*
X1981509Y1530623*
X1981509D02*
X1981384Y1530107D01*
Y1529248*
X1981384D02*
X1981509Y1528732D01*
X1981634Y1528388*
X1981884Y1528044*
X1982134Y1527873*
X1982134D02*
X1982634D01*
X1982634D02*
X1982884Y1528044D01*
X1983134Y1528388*
X1983259Y1528732*
X1983384Y1529248*
X1983384D02*
Y1530107D01*
X1983259Y1530623*
X1983259D02*
X1983134Y1530966D01*
X1982884Y1531310*
X1982634Y1531482*
X1982134*
X1984509D02*
Y1527873D01*
Y1531482D02*
X1985509Y1527873D01*
X1986509Y1531482D02*
X1985509Y1527873D01*
X1986509Y1531482D02*
Y1527873D01*
X1990509Y1530279D02*
Y1527873D01*
Y1529591D02*
X1990884Y1530107D01*
X1991134Y1530279*
X1991509*
X1991759Y1530107*
X1991884Y1529591*
Y1527873*
X1980259Y1538123D02*
X1980134Y1538466D01*
X1979884Y1538810*
X1979634Y1538982*
X1979134*
X1978884Y1538810*
X1978634Y1538466*
X1978509Y1538123*
X1978509D02*
X1978384Y1537607D01*
Y1536748*
X1978384D02*
X1978509Y1536232D01*
X1978634Y1535888*
X1978884Y1535544*
X1979134Y1535373*
X1979134D02*
X1979634D01*
X1979634D02*
X1979884Y1535544D01*
X1980134Y1535888*
X1980259Y1536232*
X1982134Y1538982D02*
X1981884Y1538810D01*
X1981634Y1538466*
X1981509Y1538123*
X1981509D02*
X1981384Y1537607D01*
Y1536748*
X1981384D02*
X1981509Y1536232D01*
X1981634Y1535888*
X1981884Y1535544*
X1982134Y1535373*
X1982134D02*
X1982634D01*
X1982634D02*
X1982884Y1535544D01*
X1983134Y1535888*
X1983259Y1536232*
X1983384Y1536748*
X1983384D02*
Y1537607D01*
X1983259Y1538123*
X1983259D02*
X1983134Y1538466D01*
X1982884Y1538810*
X1982634Y1538982*
X1982134*
X1984509D02*
Y1535373D01*
Y1538982D02*
X1985509Y1535373D01*
X1986509Y1538982D02*
X1985509Y1535373D01*
X1986509Y1538982D02*
Y1535373D01*
X1990509Y1537779D02*
Y1535373D01*
Y1537091D02*
X1990884Y1537607D01*
X1991134Y1537779*
X1991509*
X1991759Y1537607*
X1991884Y1537091*
Y1535373*
X1994134Y1538466D02*
Y1535373D01*
X1993009Y1536919D02*
X1995259D01*
X1996384Y1538294D02*
X1996634Y1538466D01*
X1997009Y1538982*
Y1535373*
X1792884Y1571310D02*
Y1567373D01*
Y1571310D02*
X1794111D01*
X1794520Y1571123*
X1794520D02*
X1794656Y1570935D01*
X1794793Y1570560*
Y1570185*
X1794656Y1569810*
X1794520Y1569623*
X1794520D02*
X1794111Y1569435D01*
X1792884D02*
X1794111D01*
X1794520Y1569248*
X1794520D02*
X1794656Y1569060D01*
X1794793Y1568685*
Y1568123*
X1794793D02*
X1794656Y1567748D01*
X1794656D02*
X1794520Y1567560D01*
X1794111Y1567373*
X1794111D02*
X1792884D01*
X1796838Y1571310D02*
X1796565Y1571123D01*
X1796565D02*
X1796293Y1570748D01*
X1796293D02*
X1796156Y1570373D01*
X1796156D02*
X1796020Y1569810D01*
Y1568873*
X1796020D02*
X1796156Y1568310D01*
X1796293Y1567935*
X1796565Y1567560*
X1796838Y1567373*
X1796838D02*
X1797384D01*
X1797384D02*
X1797656Y1567560D01*
X1797929Y1567935*
X1798065Y1568310*
X1798202Y1568873*
X1798202D02*
Y1569810D01*
X1798065Y1570373*
X1798065D02*
X1797929Y1570748D01*
X1797929D02*
X1797656Y1571123D01*
X1797656D02*
X1797384Y1571310D01*
X1796838*
X1800247D02*
X1799974Y1571123D01*
X1799974D02*
X1799702Y1570748D01*
X1799702D02*
X1799565Y1570373D01*
X1799565D02*
X1799429Y1569810D01*
Y1568873*
X1799429D02*
X1799565Y1568310D01*
X1799702Y1567935*
X1799974Y1567560*
X1800247Y1567373*
X1800247D02*
X1800793D01*
X1800793D02*
X1801065Y1567560D01*
X1801338Y1567935*
X1801474Y1568310*
X1801611Y1568873*
X1801611D02*
Y1569810D01*
X1801474Y1570373*
X1801474D02*
X1801338Y1570748D01*
X1801338D02*
X1801065Y1571123D01*
X1801065D02*
X1800793Y1571310D01*
X1800247*
X1803793D02*
Y1567373D01*
X1802838Y1571310D02*
X1804747D01*
X1792884Y1500310D02*
Y1496373D01*
Y1500310D02*
X1794111D01*
X1794520Y1500123*
X1794520D02*
X1794656Y1499935D01*
X1794793Y1499560*
Y1499185*
X1794656Y1498810*
X1794520Y1498623*
X1794520D02*
X1794111Y1498435D01*
X1792884*
X1793838D02*
X1794793Y1496373D01*
X1797929Y1499748D02*
X1797656Y1500123D01*
X1797656D02*
X1797247Y1500310D01*
X1796702*
X1796293Y1500123*
X1796293D02*
X1796020Y1499748D01*
X1796020D02*
Y1499373D01*
X1796020D02*
X1796156Y1498998D01*
X1796156D02*
X1796293Y1498810D01*
X1796565Y1498623*
X1796565D02*
X1797384Y1498248D01*
X1797384D02*
X1797656Y1498060D01*
X1797793Y1497873*
X1797793D02*
X1797929Y1497498D01*
X1797929D02*
Y1496935D01*
X1797656Y1496560*
X1797247Y1496373*
X1797247D02*
X1796702D01*
X1796702D02*
X1796293Y1496560D01*
X1796020Y1496935*
X1800111Y1500310D02*
Y1496373D01*
X1799156Y1500310D02*
X1801065D01*
G54D25*
X1916884Y1532873D02*
X2012884D01*
X1916884Y1524373D02*
Y1540873D01*
G54D28*
X1887446Y1575453D02*
G75*
G03X1887446I-492J0D01*
G54D29*
G01X1890335Y1555157D02*
X1902933D01*
Y1574449*
X1890335*
Y1555157*
G54D54*
X1877904Y1514703D02*
G03X1877904I-400J0D01*
G01Y1527703D02*
G03X1877904I-400J0D01*
G01X1903904Y1536703D02*
G03X1903904I-400J0D01*
G01X1892181Y1522631D02*
G03X1892181I-400J0D01*
G54D55*
G01X1903004Y1544303D02*
Y1545303D01*
X1906594Y1546301D02*
Y1543305D01*
X1899414*
Y1546301*
X1906594*
X1770704Y1510267D02*
Y1509267D01*
X1769704Y1511267D02*
X1767104D01*
Y1508267*
X1769704*
X1771704Y1511267D02*
X1774304D01*
Y1508267*
X1771704*
X1885241Y1525053D02*
X1889241D01*
Y1533253*
X1888441Y1534053*
X1886041*
X1885241Y1533253*
Y1525053*
X1886741Y1528803D02*
X1887741D01*
X1887241Y1530303*
X1886741Y1528803*
X1911069Y1503758D02*
Y1504840D01*
X1908412*
X1896995Y1490766D02*
X1899652D01*
X1896995Y1491848D02*
Y1490766D01*
X1911069Y1491848D02*
Y1490766D01*
X1908412*
X1896945Y1503758D02*
Y1504840D01*
X1897733*
X1905312D02*
X1902753D01*
X1905312Y1490766D02*
X1902753D01*
X1899701Y1504693D02*
G03X1899701I-590J0D01*
G01X1899308D02*
G03X1899308I-197J0D01*
G01X1828159Y1574194D02*
X1828866Y1574901D01*
X1828159Y1572779D02*
X1829998Y1570941D01*
X1832119Y1573062*
X1830281Y1574901*
X1826745Y1574194D02*
X1824907Y1576032D01*
X1827028Y1578153*
X1828866Y1576315*
X1818366Y1564501D02*
X1817659Y1563794D01*
X1818366Y1565915D02*
X1816528Y1567753D01*
X1814407Y1565632*
X1816245Y1563794*
X1819781Y1564501D02*
X1821619Y1562662D01*
X1819498Y1560541*
X1817659Y1562379*
X1769704Y1557767D02*
Y1556767D01*
X1768704Y1558767D02*
X1766104D01*
Y1555767*
X1768704*
X1770704Y1558767D02*
X1773304D01*
Y1555767*
X1770704*
X1791712Y1546386D02*
Y1548748D01*
X1794862Y1547567*
X1791712Y1546386*
X1796837Y1545817D02*
Y1544817D01*
X1789737*
Y1545817*
X1796837Y1549317D02*
Y1550317D01*
X1789737*
Y1549317*
X1796737Y1545817D02*
Y1544817D01*
Y1549317D02*
Y1550317D01*
X1796687Y1545817D02*
Y1544817D01*
X1796587Y1545817D02*
Y1544817D01*
X1796687Y1549317D02*
Y1550317D01*
X1796587Y1549317D02*
Y1550317D01*
X1789906Y1540492D02*
Y1543642D01*
X1792662*
Y1540492*
X1789906*
Y1535992D02*
Y1539142D01*
X1792662*
Y1535992*
X1789906*
Y1531492D02*
Y1534642D01*
X1792662*
Y1531492*
X1789906*
X1878355Y1536509D02*
X1882105D01*
X1883158Y1539007D02*
X1884660Y1537505D01*
Y1540510*
X1883158Y1539007*
X1885905Y1536509D02*
X1889655D01*
Y1541509*
X1885905*
X1878355D02*
Y1536509D01*
X1882105Y1541509D02*
X1878355D01*
X1878354Y1542303D02*
X1882104D01*
X1883156Y1544802D02*
X1884659Y1543299D01*
Y1546304*
X1883156Y1544802*
X1885904Y1542303D02*
X1889654D01*
Y1547303*
X1885904*
X1878354D02*
Y1542303D01*
X1882104Y1547303D02*
X1878354D01*
Y1548303D02*
X1882104D01*
X1883156Y1550802D02*
X1884659Y1549299D01*
Y1552304*
X1883156Y1550802*
X1885904Y1548303D02*
X1889654D01*
Y1553303*
X1885904*
X1878354D02*
Y1548303D01*
X1882104Y1553303D02*
X1878354D01*
X2018504Y1499598D02*
Y1486902D01*
X2038504*
Y1499598*
X2018504Y1524087D02*
Y1536705D01*
X2038504*
Y1524008*
X1880504Y1502594D02*
X1883504D01*
Y1514012*
X1880504*
Y1502594*
Y1515594D02*
X1883504D01*
Y1527012*
X1880504*
Y1515594*
X1895032Y1539303D02*
Y1540303D01*
X1898622Y1541301D02*
Y1538305D01*
X1891442*
Y1541301*
X1898622*
X1895004Y1545303D02*
Y1544303D01*
X1891414Y1543305D02*
Y1546301D01*
X1898594*
Y1543305*
X1891414*
X1895004Y1550303D02*
Y1549303D01*
X1891414Y1548305D02*
Y1551301D01*
X1898594*
Y1548305*
X1891414*
X1870004Y1512803D02*
Y1511803D01*
X1866414Y1510805D02*
Y1513801D01*
X1873594*
Y1510805*
X1866414*
X1869004Y1571803D02*
Y1572803D01*
X1872594Y1573801D02*
Y1570805D01*
X1865414*
Y1573801*
X1872594*
X1869004Y1566803D02*
Y1567803D01*
X1872594Y1568801D02*
Y1565805D01*
X1865414*
Y1568801*
X1872594*
X1869004Y1556803D02*
Y1557803D01*
X1872594Y1558801D02*
Y1555805D01*
X1865414*
Y1558801*
X1872594*
X1903004Y1550303D02*
Y1549303D01*
X1899414Y1548305D02*
Y1551301D01*
X1906594*
Y1548305*
X1899414*
X1878004Y1557803D02*
Y1556803D01*
X1874414Y1555805D02*
Y1558801D01*
X1881594*
Y1555805*
X1874414*
X1814971Y1561175D02*
X1814264Y1560468D01*
X1811020Y1562301D02*
X1813138Y1564419D01*
X1818215Y1559342*
X1816097Y1557224*
X1811020Y1562301*
X1878004Y1572803D02*
Y1571803D01*
X1874414Y1570805D02*
Y1573801D01*
X1881594*
Y1570805*
X1874414*
X1878004Y1567803D02*
Y1566803D01*
X1874414Y1565805D02*
Y1568801D01*
X1881594*
Y1565805*
X1874414*
X1870004Y1517803D02*
Y1516803D01*
X1866414Y1515805D02*
Y1518801D01*
X1873594*
Y1515805*
X1866414*
X1778704Y1509267D02*
Y1510267D01*
X1782294Y1511265D02*
Y1508269D01*
X1775114*
Y1511265*
X1782294*
X1777704Y1556767D02*
Y1557767D01*
X1781294Y1558765D02*
Y1555769D01*
X1774114*
Y1558765*
X1781294*
X1878004Y1561803D02*
Y1562803D01*
X1881594Y1563801D02*
Y1560805D01*
X1874414*
Y1563801*
X1881594*
X1836114Y1564320D02*
X1838720Y1566926D01*
X1844288*
X1869521Y1541693D02*
X1874911Y1536303D01*
X1869521Y1530914*
X1813487D02*
X1808097Y1536303D01*
X1813487Y1541693*
X1844288Y1566926D02*
X1846894Y1564320D01*
Y1508286D02*
X1841504Y1502897D01*
X1836114Y1508286*
X1782962Y1489745D02*
X1765246D01*
Y1507461*
X1782962*
Y1489745*
X1779025Y1498603D02*
G03X1779025I-4921J0D01*
G01X1765246Y1577825D02*
X1782962D01*
Y1560109*
X1765246*
Y1577825*
X1779025Y1568967D02*
G03X1779025I-4921J0D01*
G01X1904772Y1520862D02*
Y1519862D01*
X1903772Y1521862D02*
X1901172D01*
Y1518862*
X1903772*
X1905772Y1521862D02*
X1908372D01*
Y1518862*
X1905772*
X1894532Y1509803D02*
Y1510803D01*
X1895532Y1508803D02*
X1898132D01*
Y1511803*
X1895532*
X1893532Y1508803D02*
X1890932D01*
Y1511803*
X1893532*
X1890919Y1529603D02*
X1891919D01*
X1892917Y1526013D02*
X1889921D01*
Y1533193*
X1892917*
Y1526013*
X1904772Y1514744D02*
Y1515744D01*
X1908362Y1516742D02*
Y1513746D01*
X1901182*
Y1516742*
X1908362*
X1906504Y1524594D02*
X1909504D01*
Y1536012*
X1906504*
Y1524594*
X1893071Y1513866D02*
X1897993D01*
Y1521740*
X1893071*
Y1513866*
X1899154Y1512253D02*
Y1508253D01*
X1907354*
X1908154Y1509053*
Y1511453*
X1907354Y1512253*
X1899154*
X1902904Y1510753D02*
Y1509753D01*
X1904404Y1510253*
X1902904Y1510753*
X1914032Y1523553D02*
Y1519603D01*
Y1512053D02*
X1909032D01*
Y1516003*
Y1523553D02*
X1914032D01*
Y1512053D02*
Y1516003D01*
X1909032Y1519603D02*
Y1523553D01*
X1895504Y1525053D02*
Y1529003D01*
Y1536553D02*
X1900504D01*
Y1532603*
Y1525053D02*
X1895504D01*
Y1536553D02*
Y1532603D01*
X1900504Y1529003D02*
Y1525053D01*
X1932543Y1522126D02*
X2012465D01*
Y1487480*
X1932543*
Y1522126*
X1952543Y1580126D02*
X2012465D01*
Y1545480*
X1952543*
Y1580126*
X2018504Y1553598D02*
Y1540902D01*
X2038504*
Y1553598*
X2018504Y1568087D02*
Y1580705D01*
X2038504*
Y1568008*
X1927858Y1503985D02*
X1929358D01*
X1929639Y1503917*
X1929733Y1503849*
X1929827Y1503712*
Y1503576*
X1929733Y1503440*
X1929639Y1503371*
X1929358Y1503303*
X1929171*
X1927858Y1505076D02*
X1929827D01*
X1927858Y1504599D02*
Y1505553D01*
Y1506712D02*
X1929827Y1506167D01*
X1927858Y1506712D02*
X1929827Y1507258D01*
X1929171Y1506371D02*
Y1507053D01*
X1928327Y1508894D02*
X1928139Y1508826D01*
X1927952Y1508690*
X1927858Y1508553*
Y1508280*
X1927952Y1508144*
X1928139Y1508008*
X1928327Y1507940*
X1928608Y1507871*
X1929077*
X1929358Y1507940*
X1929546Y1508008*
X1929733Y1508144*
X1929827Y1508280*
Y1508553*
X1929733Y1508690*
X1929546Y1508826*
X1929358Y1508894*
X1929077*
Y1508553D02*
Y1508894D01*
X1927259Y1515054D02*
Y1514145D01*
X1928384Y1514054*
X1928259Y1514145*
X1928134Y1514418*
Y1514691*
X1928259Y1514963*
X1928509Y1515145*
X1928884Y1515236*
X1929134Y1515145*
X1929509Y1515054*
X1929759Y1514873*
X1929759D02*
X1929884Y1514600D01*
Y1514327*
X1929759Y1514054*
X1929634Y1513963*
X1929384Y1513873*
X1927259Y1516054D02*
X1929884Y1516782D01*
X1927259Y1517509D02*
X1929884Y1516782D01*
X1927259Y1491054D02*
Y1492054D01*
X1928259Y1491509*
Y1491782*
X1928384Y1491963*
X1928509Y1492054*
X1928884Y1492145*
X1929134*
X1929509Y1492054*
X1929759Y1491873*
X1929759D02*
X1929884Y1491600D01*
Y1491327*
X1929759Y1491054*
X1929634Y1490963*
X1929384Y1490873*
X1927259Y1492963D02*
X1929884Y1493691D01*
X1927259Y1494418D02*
X1929884Y1493691D01*
X1927259Y1495418D02*
Y1496418D01*
X1928259Y1495873*
X1928259D02*
Y1496145D01*
X1928384Y1496327*
X1928509Y1496418*
X1928884Y1496509*
X1929134*
X1929509Y1496418*
X1929759Y1496236*
X1929884Y1495963*
Y1495691*
X1929759Y1495418*
X1929634Y1495327*
X1929384Y1495236*
X1944259Y1553554D02*
Y1552645D01*
X1945384Y1552554*
X1945259Y1552645*
X1945134Y1552918*
Y1553191*
X1945259Y1553463*
X1945509Y1553645*
X1945884Y1553736*
X1946134Y1553645*
X1946509Y1553554*
X1946759Y1553373*
X1946759D02*
X1946884Y1553100D01*
Y1552827*
X1946759Y1552554*
X1946634Y1552463*
X1946384Y1552373*
X1944259Y1554554D02*
X1946884Y1555282D01*
X1944259Y1556009D02*
X1946884Y1555282D01*
X1944858Y1562303D02*
X1946827D01*
X1944858D02*
Y1562917D01*
X1944952Y1563121*
X1945046Y1563190*
X1945233Y1563258*
X1945514*
X1945702Y1563190*
X1945796Y1563121*
X1945889Y1562917*
Y1562303*
X1944858Y1563871D02*
X1946827D01*
X1944858D02*
Y1564485D01*
X1944952Y1564690*
X1945046Y1564758*
X1945233Y1564826*
X1945421*
X1945608Y1564758*
X1945702Y1564690*
X1945796Y1564485*
Y1563871*
Y1564349D02*
X1946827Y1564826D01*
X1944858Y1565849D02*
X1944952Y1565712D01*
X1945139Y1565576*
X1945327Y1565508*
X1945608Y1565440*
X1946077*
X1946358Y1565508*
X1946546Y1565576*
X1946733Y1565712*
X1946827Y1565849*
Y1566121*
X1946733Y1566258*
X1946546Y1566394*
X1946358Y1566462*
X1946077Y1566530*
X1945608*
X1945327Y1566462*
X1945139Y1566394*
X1944952Y1566258*
X1944858Y1566121*
Y1565849*
X1945327Y1568167D02*
X1945139Y1568099D01*
X1944952Y1567962*
X1944858Y1567826*
Y1567553*
X1944952Y1567417*
X1945139Y1567280*
X1945327Y1567212*
X1945608Y1567144*
X1946077*
X1946358Y1567212*
X1946546Y1567280*
X1946733Y1567417*
X1946827Y1567553*
Y1567826*
X1946733Y1567962*
X1946546Y1568099*
X1946358Y1568167*
X1946077*
Y1567826D02*
Y1568167D01*
X1944259Y1573054D02*
Y1574054D01*
X1945259Y1573509*
Y1573782*
X1945384Y1573963*
X1945509Y1574054*
X1945884Y1574145*
X1946134*
X1946509Y1574054*
X1946759Y1573873*
X1946759D02*
X1946884Y1573600D01*
Y1573327*
X1946759Y1573054*
X1946634Y1572963*
X1946384Y1572873*
X1944259Y1574963D02*
X1946884Y1575691D01*
X1944259Y1576418D02*
X1946884Y1575691D01*
X1944259Y1577418D02*
Y1578418D01*
X1945259Y1577873*
X1945259D02*
Y1578145D01*
X1945384Y1578327*
X1945509Y1578418*
X1945884Y1578509*
X1946134*
X1946509Y1578418*
X1946759Y1578236*
X1946884Y1577963*
Y1577691*
X1946759Y1577418*
X1946634Y1577327*
X1946384Y1577236*
X1927202Y1501303D02*
X1929827Y1502030D01*
X1927202Y1502758D02*
X1929827Y1502030D01*
X1944202Y1560303D02*
X1946827Y1561030D01*
X1944202Y1561758D02*
X1946827Y1561030D01*
X1767015Y1583267D02*
G03X1755204Y1571456I0J-11811D01*
G01X1767015Y1583267D02*
X2032393D01*
X2044204Y1571456D02*
G03X2032393Y1583267I-11811J-0D01*
G01X2044204Y1571456D02*
Y1496114D01*
X2032393Y1484303D02*
G03X2044204Y1496114I0J11811D01*
G01X2032393Y1484303D02*
X1767015D01*
X1755204Y1496114D02*
G03X1767015Y1484303I11811J0D01*
G01X1755204Y1496114D02*
Y1571456D01*
X1974504Y1545503D02*
Y1549567D01*
X1986504*
Y1545503*
X1964504Y1487667D02*
Y1491667D01*
X1976504*
Y1487667*
X2018527Y1525303D02*
X2027304D01*
Y1498303*
X2018527*
X2018604Y1570803D02*
X2027304D01*
Y1550803*
X2018604*
G54D86*
X1825429Y1559919D02*
X1816242Y1569106D01*
X1823481Y1576344*
X1832667Y1567157*
X1825429Y1559919*
G74*
X0Y0D02*
M02*
